<svg version="1.1" xmlns="http://www.w3.org/2000/svg" xmlns:xlink="http://www.w3.org/1999/xlink" width="751.7490234375" height="504"><defs/><g><g transform="translate(2,-6) scale(1,1)"><rect fill="#C0C0C0" stroke="none" x="545" y="23" width="201.7490234375" height="44" opacity="0.2"/></g><g transform="translate(2,-6) scale(1,1)"><rect fill="#ffffff" stroke="none" x="538" y="16" width="201.7490234375" height="44"/></g><g transform="translate(2,-6) scale(1,1)"><path fill="none" stroke="#000000" d="M 538 16 L 739.7490234375 16 L 739.7490234375 60 L 538 60 L 538 16 Z Z" stroke-miterlimit="10"/></g><g transform="translate(2,-6) scale(1,1)"><rect fill="#ffffff" stroke="none" x="528" y="23" width="20" height="10"/></g><g transform="translate(2,-6) scale(1,1)"><path fill="none" stroke="#000000" d="M 528 23 L 548 23 L 548 33 L 528 33 L 528 23 Z Z" stroke-miterlimit="10"/></g><g transform="translate(2,-6) scale(1,1)"><rect fill="#ffffff" stroke="none" x="528" y="43" width="20" height="10"/></g><g transform="translate(2,-6) scale(1,1)"><path fill="none" stroke="#000000" d="M 528 43 L 548 43 L 548 53 L 528 53 L 528 43 Z Z" stroke-miterlimit="10"/></g><g transform="translate(2,-6) scale(1,1)"><g><path fill="none" stroke="none"/><text fill="#000000" stroke="none" font-family="Arial" font-size="13px" font-style="normal" font-weight="normal" text-decoration="none" x="625.799560546875" y="33.5">«bdd»</text></g></g><g transform="translate(2,-6) scale(1,1)"><g><path fill="none" stroke="none"/><text fill="#000000" stroke="none" font-family="Arial" font-size="13px" font-style="normal" font-weight="bold" text-decoration="none" x="575.589599609375" y="48.5">Database (MongoDB 3)</text></g></g><g transform="translate(2,-6) scale(1,1)"><rect fill="#C0C0C0" stroke="none" x="25" y="375" width="250.8544921875" height="44" opacity="0.2"/></g><g transform="translate(2,-6) scale(1,1)"><rect fill="#ffffff" stroke="none" x="18" y="368" width="250.8544921875" height="44"/></g><g transform="translate(2,-6) scale(1,1)"><path fill="none" stroke="#000000" d="M 18 368 L 268.8544921875 368 L 268.8544921875 412 L 18 412 L 18 368 Z Z" stroke-miterlimit="10"/></g><g transform="translate(2,-6) scale(1,1)"><rect fill="#ffffff" stroke="none" x="8" y="375" width="20" height="10"/></g><g transform="translate(2,-6) scale(1,1)"><path fill="none" stroke="#000000" d="M 8 375 L 28 375 L 28 385 L 8 385 L 8 375 Z Z" stroke-miterlimit="10"/></g><g transform="translate(2,-6) scale(1,1)"><rect fill="#ffffff" stroke="none" x="8" y="395" width="20" height="10"/></g><g transform="translate(2,-6) scale(1,1)"><path fill="none" stroke="#000000" d="M 8 395 L 28 395 L 28 405 L 8 405 L 8 395 Z Z" stroke-miterlimit="10"/></g><g transform="translate(2,-6) scale(1,1)"><g><path fill="none" stroke="none"/><text fill="#000000" stroke="none" font-family="Arial" font-size="13px" font-style="normal" font-weight="normal" text-decoration="none" x="130.71728515625" y="385.5">«apk»</text></g></g><g transform="translate(2,-6) scale(1,1)"><g><path fill="none" stroke="none"/><text fill="#000000" stroke="none" font-family="Arial" font-size="13px" font-style="normal" font-weight="bold" text-decoration="none" x="111.92822265625" y="400.5">Phonintheair</text></g></g><g transform="translate(2,-6) scale(1,1)"><rect fill="#C0C0C0" stroke="none" x="321" y="375" width="206.0654296875" height="44" opacity="0.2"/></g><g transform="translate(2,-6) scale(1,1)"><rect fill="#ffffff" stroke="none" x="314" y="368" width="206.0654296875" height="44"/></g><g transform="translate(2,-6) scale(1,1)"><path fill="none" stroke="#000000" d="M 314 368 L 520.0654296875 368 L 520.0654296875 412 L 314 412 L 314 368 Z Z" stroke-miterlimit="10"/></g><g transform="translate(2,-6) scale(1,1)"><rect fill="#ffffff" stroke="none" x="304" y="375" width="20" height="10"/></g><g transform="translate(2,-6) scale(1,1)"><path fill="none" stroke="#000000" d="M 304 375 L 324 375 L 324 385 L 304 385 L 304 375 Z Z" stroke-miterlimit="10"/></g><g transform="translate(2,-6) scale(1,1)"><rect fill="#ffffff" stroke="none" x="304" y="395" width="20" height="10"/></g><g transform="translate(2,-6) scale(1,1)"><path fill="none" stroke="#000000" d="M 304 395 L 324 395 L 324 405 L 304 405 L 304 395 Z Z" stroke-miterlimit="10"/></g><g transform="translate(2,-6) scale(1,1)"><g><path fill="none" stroke="none"/><text fill="#000000" stroke="none" font-family="Arial" font-size="13px" font-style="normal" font-weight="normal" text-decoration="none" x="404.32275390625" y="385.5">«apk»</text></g></g><g transform="translate(2,-6) scale(1,1)"><g><path fill="none" stroke="none"/><text fill="#000000" stroke="none" font-family="Arial" font-size="13px" font-style="normal" font-weight="bold" text-decoration="none" x="389.513671875" y="400.5">Tabintheair</text></g></g><g transform="translate(2,-6) scale(1,1)"><rect fill="#C0C0C0" stroke="none" x="425" y="175" width="98.447265625" height="44" opacity="0.2"/></g><g transform="translate(2,-6) scale(1,1)"><rect fill="#ffffff" stroke="none" x="418" y="168" width="98.447265625" height="44"/></g><g transform="translate(2,-6) scale(1,1)"><path fill="none" stroke="#000000" d="M 418 168 L 516.447265625 168 L 516.447265625 212 L 418 212 L 418 168 Z Z" stroke-miterlimit="10"/></g><g transform="translate(2,-6) scale(1,1)"><rect fill="#ffffff" stroke="none" x="408" y="175" width="20" height="10"/></g><g transform="translate(2,-6) scale(1,1)"><path fill="none" stroke="#000000" d="M 408 175 L 428 175 L 428 185 L 408 185 L 408 175 Z Z" stroke-miterlimit="10"/></g><g transform="translate(2,-6) scale(1,1)"><rect fill="#ffffff" stroke="none" x="408" y="195" width="20" height="10"/></g><g transform="translate(2,-6) scale(1,1)"><path fill="none" stroke="#000000" d="M 408 195 L 428 195 L 428 205 L 408 205 L 408 195 Z Z" stroke-miterlimit="10"/></g><g transform="translate(2,-6) scale(1,1)"><g><path fill="none" stroke="none"/><text fill="#000000" stroke="none" font-family="Arial" font-size="13px" font-style="normal" font-weight="normal" text-decoration="none" x="457.77001953125" y="185.5">«jar»</text></g></g><g transform="translate(2,-6) scale(1,1)"><g><path fill="none" stroke="none"/><text fill="#000000" stroke="none" font-family="Arial" font-size="13px" font-style="normal" font-weight="bold" text-decoration="none" x="434.293212890625" y="200.5">Spring REST</text></g></g><g transform="translate(2,-6) scale(1,1)"><rect fill="#C0C0C0" stroke="none" x="297" y="95" width="151.97705078125" height="44" opacity="0.2"/></g><g transform="translate(2,-6) scale(1,1)"><rect fill="#ffffff" stroke="none" x="290" y="88" width="151.97705078125" height="44"/></g><g transform="translate(2,-6) scale(1,1)"><path fill="none" stroke="#000000" d="M 290 88 L 441.97705078125 88 L 441.97705078125 132 L 290 132 L 290 88 Z Z" stroke-miterlimit="10"/></g><g transform="translate(2,-6) scale(1,1)"><rect fill="#ffffff" stroke="none" x="280" y="95" width="20" height="10"/></g><g transform="translate(2,-6) scale(1,1)"><path fill="none" stroke="#000000" d="M 280 95 L 300 95 L 300 105 L 280 105 L 280 95 Z Z" stroke-miterlimit="10"/></g><g transform="translate(2,-6) scale(1,1)"><rect fill="#ffffff" stroke="none" x="280" y="115" width="20" height="10"/></g><g transform="translate(2,-6) scale(1,1)"><path fill="none" stroke="#000000" d="M 280 115 L 300 115 L 300 125 L 280 125 L 280 115 Z Z" stroke-miterlimit="10"/></g><g transform="translate(2,-6) scale(1,1)"><g><path fill="none" stroke="none"/><text fill="#000000" stroke="none" font-family="Arial" font-size="13px" font-style="normal" font-weight="normal" text-decoration="none" x="353.284912109375" y="105.5">«war»</text></g></g><g transform="translate(2,-6) scale(1,1)"><g><path fill="none" stroke="none"/><text fill="#000000" stroke="none" font-family="Arial" font-size="13px" font-style="normal" font-weight="bold" text-decoration="none" x="332.70263671875" y="120.5">REST Server</text></g></g><g transform="translate(2,-6) scale(1,1)"><rect fill="#C0C0C0" stroke="none" x="33" y="95" width="223.43896484375" height="44" opacity="0.2"/></g><g transform="translate(2,-6) scale(1,1)"><rect fill="#ffffff" stroke="none" x="26" y="88" width="223.43896484375" height="44"/></g><g transform="translate(2,-6) scale(1,1)"><path fill="none" stroke="#000000" d="M 26 88 L 249.43896484375 88 L 249.43896484375 132 L 26 132 L 26 88 Z Z" stroke-miterlimit="10"/></g><g transform="translate(2,-6) scale(1,1)"><rect fill="#ffffff" stroke="none" x="16" y="95" width="20" height="10"/></g><g transform="translate(2,-6) scale(1,1)"><path fill="none" stroke="#000000" d="M 16 95 L 36 95 L 36 105 L 16 105 L 16 95 Z Z" stroke-miterlimit="10"/></g><g transform="translate(2,-6) scale(1,1)"><rect fill="#ffffff" stroke="none" x="16" y="115" width="20" height="10"/></g><g transform="translate(2,-6) scale(1,1)"><path fill="none" stroke="#000000" d="M 16 115 L 36 115 L 36 125 L 16 125 L 16 115 Z Z" stroke-miterlimit="10"/></g><g transform="translate(2,-6) scale(1,1)"><g><path fill="none" stroke="none"/><text fill="#000000" stroke="none" font-family="Arial" font-size="13px" font-style="normal" font-weight="normal" text-decoration="none" x="128.265869140625" y="105.5">«jar»</text></g></g><g transform="translate(2,-6) scale(1,1)"><g><path fill="none" stroke="none"/><text fill="#000000" stroke="none" font-family="Arial" font-size="13px" font-style="normal" font-weight="bold" text-decoration="none" x="89.614990234375" y="120.5">Notification Server</text></g></g><g transform="translate(2,-6) scale(1,1)"><rect fill="#C0C0C0" stroke="none" x="497" y="95" width="98.44091796875" height="44" opacity="0.2"/></g><g transform="translate(2,-6) scale(1,1)"><rect fill="#ffffff" stroke="none" x="490" y="88" width="98.44091796875" height="44"/></g><g transform="translate(2,-6) scale(1,1)"><path fill="none" stroke="#000000" d="M 490 88 L 588.44091796875 88 L 588.44091796875 132 L 490 132 L 490 88 Z Z" stroke-miterlimit="10"/></g><g transform="translate(2,-6) scale(1,1)"><rect fill="#ffffff" stroke="none" x="480" y="95" width="20" height="10"/></g><g transform="translate(2,-6) scale(1,1)"><path fill="none" stroke="#000000" d="M 480 95 L 500 95 L 500 105 L 480 105 L 480 95 Z Z" stroke-miterlimit="10"/></g><g transform="translate(2,-6) scale(1,1)"><rect fill="#ffffff" stroke="none" x="480" y="115" width="20" height="10"/></g><g transform="translate(2,-6) scale(1,1)"><path fill="none" stroke="#000000" d="M 480 115 L 500 115 L 500 125 L 480 125 L 480 115 Z Z" stroke-miterlimit="10"/></g><g transform="translate(2,-6) scale(1,1)"><g><path fill="none" stroke="none"/><text fill="#000000" stroke="none" font-family="Arial" font-size="13px" font-style="normal" font-weight="normal" text-decoration="none" x="529.766845703125" y="105.5">«jar»</text></g></g><g transform="translate(2,-6) scale(1,1)"><g><path fill="none" stroke="none"/><text fill="#000000" stroke="none" font-family="Arial" font-size="13px" font-style="normal" font-weight="bold" text-decoration="none" x="529.055908203125" y="120.5">ORM</text></g></g><g transform="translate(2,-6) scale(1,1)"><rect fill="#C0C0C0" stroke="none" x="281" y="23" width="196.7216796875" height="44" opacity="0.2"/></g><g transform="translate(2,-6) scale(1,1)"><rect fill="#ffffff" stroke="none" x="274" y="16" width="196.7216796875" height="44"/></g><g transform="translate(2,-6) scale(1,1)"><path fill="none" stroke="#000000" d="M 274 16 L 470.7216796875 16 L 470.7216796875 60 L 274 60 L 274 16 Z Z" stroke-miterlimit="10"/></g><g transform="translate(2,-6) scale(1,1)"><rect fill="#ffffff" stroke="none" x="264" y="23" width="20" height="10"/></g><g transform="translate(2,-6) scale(1,1)"><path fill="none" stroke="#000000" d="M 264 23 L 284 23 L 284 33 L 264 33 L 264 23 Z Z" stroke-miterlimit="10"/></g><g transform="translate(2,-6) scale(1,1)"><rect fill="#ffffff" stroke="none" x="264" y="43" width="20" height="10"/></g><g transform="translate(2,-6) scale(1,1)"><path fill="none" stroke="#000000" d="M 264 43 L 284 43 L 284 53 L 264 53 L 264 43 Z Z" stroke-miterlimit="10"/></g><g transform="translate(2,-6) scale(1,1)"><g><path fill="none" stroke="none"/><text fill="#000000" stroke="none" font-family="Arial" font-size="13px" font-style="normal" font-weight="bold" text-decoration="none" x="350.26904296875" y="35.5">Tomcat 8</text></g></g><g transform="translate(2,-6) scale(1,1)"><rect fill="#C0C0C0" stroke="none" x="217" y="175" width="98.44091796875" height="44" opacity="0.2"/></g><g transform="translate(2,-6) scale(1,1)"><rect fill="#ffffff" stroke="none" x="210" y="168" width="98.44091796875" height="44"/></g><g transform="translate(2,-6) scale(1,1)"><path fill="none" stroke="#000000" d="M 210 168 L 308.44091796875 168 L 308.44091796875 212 L 210 212 L 210 168 Z Z" stroke-miterlimit="10"/></g><g transform="translate(2,-6) scale(1,1)"><rect fill="#ffffff" stroke="none" x="200" y="175" width="20" height="10"/></g><g transform="translate(2,-6) scale(1,1)"><path fill="none" stroke="#000000" d="M 200 175 L 220 175 L 220 185 L 200 185 L 200 175 Z Z" stroke-miterlimit="10"/></g><g transform="translate(2,-6) scale(1,1)"><rect fill="#ffffff" stroke="none" x="200" y="195" width="20" height="10"/></g><g transform="translate(2,-6) scale(1,1)"><path fill="none" stroke="#000000" d="M 200 195 L 220 195 L 220 205 L 200 205 L 200 195 Z Z" stroke-miterlimit="10"/></g><g transform="translate(2,-6) scale(1,1)"><g><path fill="none" stroke="none"/><text fill="#000000" stroke="none" font-family="Arial" font-size="13px" font-style="normal" font-weight="bold" text-decoration="none" x="246.52001953125" y="187.5">JRE 8</text></g></g><g transform="translate(2,-6) scale(1,1)"><rect fill="#C0C0C0" stroke="none" x="441" y="463" width="98.44091796875" height="44" opacity="0.2"/></g><g transform="translate(2,-6) scale(1,1)"><rect fill="#ffffff" stroke="none" x="434" y="456" width="98.44091796875" height="44"/></g><g transform="translate(2,-6) scale(1,1)"><path fill="none" stroke="#000000" d="M 434 456 L 532.44091796875 456 L 532.44091796875 500 L 434 500 L 434 456 Z Z" stroke-miterlimit="10"/></g><g transform="translate(2,-6) scale(1,1)"><rect fill="#ffffff" stroke="none" x="424" y="463" width="20" height="10"/></g><g transform="translate(2,-6) scale(1,1)"><path fill="none" stroke="#000000" d="M 424 463 L 444 463 L 444 473 L 424 473 L 424 463 Z Z" stroke-miterlimit="10"/></g><g transform="translate(2,-6) scale(1,1)"><rect fill="#ffffff" stroke="none" x="424" y="483" width="20" height="10"/></g><g transform="translate(2,-6) scale(1,1)"><path fill="none" stroke="#000000" d="M 424 483 L 444 483 L 444 493 L 424 493 L 424 483 Z Z" stroke-miterlimit="10"/></g><g transform="translate(2,-6) scale(1,1)"><g><path fill="none" stroke="none"/><text fill="#000000" stroke="none" font-family="Arial" font-size="13px" font-style="normal" font-weight="normal" text-decoration="none" x="472.31640625" y="473.5">«api»</text></g></g><g transform="translate(2,-6) scale(1,1)"><g><path fill="none" stroke="none"/><text fill="#000000" stroke="none" font-family="Arial" font-size="13px" font-style="normal" font-weight="bold" text-decoration="none" x="461.84912109375" y="488.5">Retrofit 2</text></g></g><g transform="translate(2,-6) scale(1,1)"><path fill="#C0C0C0" stroke="none" d="M 662.7099609375 122.5 C 662.7099609375 116.1487248 667.8586857375 111 674.2099609375 111 C 680.5612361375 111 685.7099609375 116.1487248 685.7099609375 122.5 C 685.7099609375 128.8512752 680.5612361375 134 674.2099609375 134 C 667.8586857375 134 662.7099609375 128.8512752 662.7099609375 122.5 Z" opacity="0.2"/></g><g transform="translate(2,-6) scale(1,1)"><path fill="none" stroke="#000000" d="M 669.4947002649145 126.22615119211545 A 11.5 11.5 0 0 1 664.5052997350855 103.77384880788455" stroke-miterlimit="10"/></g><g transform="translate(2,-6) scale(1,1)"><path fill="#ffffff" stroke="none" d="M 658.7099609375 115.5 C 658.7099609375 110.8055792 662.5155401375 107 667.2099609375 107 C 671.9043817375 107 675.7099609375 110.8055792 675.7099609375 115.5 C 675.7099609375 120.1944208 671.9043817375 124 667.2099609375 124 C 662.5155401375 124 658.7099609375 120.1944208 658.7099609375 115.5 Z"/></g><g transform="translate(2,-6) scale(1,1)"><path fill="none" stroke="#000000" d="M 658.7099609375 115.5 C 658.7099609375 110.8055792 662.5155401375 107 667.2099609375 107 C 671.9043817375 107 675.7099609375 110.8055792 675.7099609375 115.5 C 675.7099609375 120.1944208 671.9043817375 124 667.2099609375 124 C 662.5155401375 124 658.7099609375 120.1944208 658.7099609375 115.5 Z" stroke-miterlimit="10"/></g><g transform="translate(2,-6) scale(1,1)"><g><path fill="none" stroke="none"/><text fill="#000000" stroke="none" font-family="Arial" font-size="13px" font-style="normal" font-weight="bold" text-decoration="none" x="651.680419921875" y="146.5">IBDD</text></g></g><g transform="translate(2,-6) scale(1,1)"><path fill="#C0C0C0" stroke="none" d="M 394.272216796875 250.5 C 394.272216796875 244.1487248 399.420941596875 239 405.772216796875 239 C 412.123491996875 239 417.272216796875 244.1487248 417.272216796875 250.5 C 417.272216796875 256.8512752 412.123491996875 262 405.772216796875 262 C 399.420941596875 262 394.272216796875 256.8512752 394.272216796875 250.5 Z" opacity="0.2"/></g><g transform="translate(2,-6) scale(1,1)"><path fill="none" stroke="#000000" d="M 409.46432870951486 242.09492141766987 A 11.5 11.5 0 0 1 386.53567129048514 243.90507858233013" stroke-miterlimit="10"/></g><g transform="translate(2,-6) scale(1,1)"><path fill="#ffffff" stroke="none" d="M 390.272216796875 243.5 C 390.272216796875 238.8055792 394.077795996875 235 398.772216796875 235 C 403.466637596875 235 407.272216796875 238.8055792 407.272216796875 243.5 C 407.272216796875 248.1944208 403.466637596875 252 398.772216796875 252 C 394.077795996875 252 390.272216796875 248.1944208 390.272216796875 243.5 Z"/></g><g transform="translate(2,-6) scale(1,1)"><path fill="none" stroke="#000000" d="M 390.272216796875 243.5 C 390.272216796875 238.8055792 394.077795996875 235 398.772216796875 235 C 403.466637596875 235 407.272216796875 238.8055792 407.272216796875 243.5 C 407.272216796875 248.1944208 403.466637596875 252 398.772216796875 252 C 394.077795996875 252 390.272216796875 248.1944208 390.272216796875 243.5 Z" stroke-miterlimit="10"/></g><g transform="translate(2,-6) scale(1,1)"><g><path fill="none" stroke="none"/><text fill="#000000" stroke="none" font-family="Arial" font-size="13px" font-style="normal" font-weight="bold" text-decoration="none" x="358.67724609375" y="274.5">IWebServices</text></g></g><g transform="translate(2,-6) scale(1,1)"><path fill="none" stroke="#000000" d="M 330 133 L 284 167" stroke-miterlimit="10" stroke-dasharray="3"/></g><g transform="translate(2,-6) scale(1,1)"><path fill="none" stroke="#000000" d="M 289.6704809283316 157.57420316146013 L 284 167 L 294.6746803796305 164.34459065439398" stroke-miterlimit="10"/></g><g transform="translate(2,-6) scale(1,1)"><path fill="none" stroke="#000000" d="M 167 133 L 219 167" stroke-miterlimit="10" stroke-dasharray="3"/></g><g transform="translate(2,-6) scale(1,1)"><path fill="none" stroke="#000000" d="M 208.19049403703153 164.96172110923234 L 219 167 L 212.79780585791977 157.91524420669737" stroke-miterlimit="10"/></g><g transform="translate(2,-6) scale(1,1)"><path fill="none" stroke="#000000" d="M 362 87 L 365 61" stroke-miterlimit="10" stroke-dasharray="3"/></g><g transform="translate(2,-6) scale(1,1)"><path fill="none" stroke="#000000" d="M 368.0168850142364 71.57820423374761 L 365 61 L 359.65333990516746 70.61317979808581" stroke-miterlimit="10"/></g><g transform="translate(2,-6) scale(1,1)"><path fill="none" stroke="#000000" d="M 389 133 L 433 167" stroke-miterlimit="10" stroke-dasharray="3"/></g><g transform="translate(2,-6) scale(1,1)"><path fill="none" stroke="#000000" d="M 422.3845286984867 164.11698611748966 L 433 167 L 427.5323269237868 157.45512959063075" stroke-miterlimit="10"/></g><g transform="translate(2,-6) scale(1,1)"><path fill="#C0C0C0" stroke="none" d="M 108.121337890625 234.5 C 108.121337890625 228.1487248 113.270062690625 223 119.621337890625 223 C 125.972613090625 223 131.121337890625 228.1487248 131.121337890625 234.5 C 131.121337890625 240.8512752 125.972613090625 246 119.621337890625 246 C 113.270062690625 246 108.121337890625 240.8512752 108.121337890625 234.5 Z" opacity="0.2"/></g><g transform="translate(2,-6) scale(1,1)"><path fill="none" stroke="#000000" d="M 123.43681270859616 225.7961249780425 A 11.5 11.5 0 0 1 100.56318729140384 228.2038750219575" stroke-miterlimit="10"/></g><g transform="translate(2,-6) scale(1,1)"><path fill="none" stroke="#000000" d="M 119.23577962968159 218.06168398686393 A 11.5 11.5 0 0 1 104.76422037031841 235.9383160131361" stroke-miterlimit="10"/></g><g transform="translate(2,-6) scale(1,1)"><path fill="#ffffff" stroke="none" d="M 104.121337890625 227.5 C 104.121337890625 222.8055792 107.926917090625 219 112.621337890625 219 C 117.315758690625 219 121.121337890625 222.8055792 121.121337890625 227.5 C 121.121337890625 232.1944208 117.315758690625 236 112.621337890625 236 C 107.926917090625 236 104.121337890625 232.1944208 104.121337890625 227.5 Z"/></g><g transform="translate(2,-6) scale(1,1)"><path fill="none" stroke="#000000" d="M 104.121337890625 227.5 C 104.121337890625 222.8055792 107.926917090625 219 112.621337890625 219 C 117.315758690625 219 121.121337890625 222.8055792 121.121337890625 227.5 C 121.121337890625 232.1944208 117.315758690625 236 112.621337890625 236 C 107.926917090625 236 104.121337890625 232.1944208 104.121337890625 227.5 Z" stroke-miterlimit="10"/></g><g transform="translate(2,-6) scale(1,1)"><g><path fill="none" stroke="none"/><text fill="#000000" stroke="none" font-family="Arial" font-size="13px" font-style="normal" font-weight="bold" text-decoration="none" x="78.66455078125" y="258.5">IWebsocket</text></g></g><g transform="translate(2,-6) scale(1,1)"><path fill="none" stroke="#000000" d="M 134 367 L 113.26315789473684 239" stroke-miterlimit="10"/></g><g transform="translate(2,-6) scale(1,1)"><g><path fill="none" stroke="none"/><text fill="#000000" stroke="none" font-family="Arial" font-size="13px" font-style="normal" font-weight="normal" text-decoration="none" x="44" y="327">«websocket»</text></g></g><g transform="translate(2,-6) scale(1,1)"><path fill="none" stroke="#000000" d="M 429 413 L 461 455" stroke-miterlimit="10" stroke-dasharray="3"/></g><g transform="translate(2,-6) scale(1,1)"><path fill="none" stroke="#000000" d="M 451.4925959044393 449.467435733431 L 461 455 L 458.1893638027896 444.36513638230696" stroke-miterlimit="10"/></g><g transform="translate(2,-6) scale(1,1)"><rect fill="#C0C0C0" stroke="none" x="249" y="463" width="173.57177734375" height="44" opacity="0.2"/></g><g transform="translate(2,-6) scale(1,1)"><rect fill="#ffffff" stroke="none" x="242" y="456" width="173.57177734375" height="44"/></g><g transform="translate(2,-6) scale(1,1)"><path fill="none" stroke="#000000" d="M 242 456 L 415.57177734375 456 L 415.57177734375 500 L 242 500 L 242 456 Z Z" stroke-miterlimit="10"/></g><g transform="translate(2,-6) scale(1,1)"><rect fill="#ffffff" stroke="none" x="232" y="463" width="20" height="10"/></g><g transform="translate(2,-6) scale(1,1)"><path fill="none" stroke="#000000" d="M 232 463 L 252 463 L 252 473 L 232 473 L 232 463 Z Z" stroke-miterlimit="10"/></g><g transform="translate(2,-6) scale(1,1)"><rect fill="#ffffff" stroke="none" x="232" y="483" width="20" height="10"/></g><g transform="translate(2,-6) scale(1,1)"><path fill="none" stroke="#000000" d="M 232 483 L 252 483 L 252 493 L 232 493 L 232 483 Z Z" stroke-miterlimit="10"/></g><g transform="translate(2,-6) scale(1,1)"><g><path fill="none" stroke="none"/><text fill="#000000" stroke="none" font-family="Arial" font-size="13px" font-style="normal" font-weight="normal" text-decoration="none" x="317.8818359375" y="473.5">«api»</text></g></g><g transform="translate(2,-6) scale(1,1)"><g><path fill="none" stroke="none"/><text fill="#000000" stroke="none" font-family="Arial" font-size="13px" font-style="normal" font-weight="bold" text-decoration="none" x="290.063232421875" y="488.5">Android API 23</text></g></g><g transform="translate(2,-6) scale(1,1)"><path fill="none" stroke="#000000" d="M 389 413 L 346 455" stroke-miterlimit="10" stroke-dasharray="3"/></g><g transform="translate(2,-6) scale(1,1)"><path fill="none" stroke="#000000" d="M 350.32877907757256 444.88754868008897 L 346 455 L 356.21149194273795 450.9103261372821" stroke-miterlimit="10"/></g><g transform="translate(2,-6) scale(1,1)"><path fill="none" stroke="#000000" d="M 366 367 L 124.121337890625 236.81251162574404" stroke-miterlimit="10"/></g><g transform="translate(2,-6) scale(1,1)"><g><path fill="none" stroke="none"/><text fill="#000000" stroke="none" font-family="Arial" font-size="13px" font-style="normal" font-weight="normal" text-decoration="none" x="259" y="299">«websocket»</text></g></g><g transform="translate(2,-6) scale(1,1)"><path fill="none" stroke="#000000" d="M 410 367 L 398.94736842105266 255" stroke-miterlimit="10"/></g><g transform="translate(2,-6) scale(1,1)"><g><path fill="none" stroke="none"/><text fill="#000000" stroke="none" font-family="Arial" font-size="13px" font-style="normal" font-weight="normal" text-decoration="none" x="407" y="319">«http»</text></g></g><g transform="translate(2,-6) scale(1,1)"><path fill="none" stroke="#000000" d="M 366 133 L 391.5833333333333 232" stroke-miterlimit="10"/></g><g transform="translate(2,-6) scale(1,1)"><path fill="none" stroke="#000000" d="M 128 133 L 115.66666666666667 216" stroke-miterlimit="10"/></g><g transform="translate(2,-6) scale(1,1)"><path fill="none" stroke="#000000" d="M 443 110 L 479 110" stroke-miterlimit="10" stroke-dasharray="3"/></g><g transform="translate(2,-6) scale(1,1)"><path fill="none" stroke="#000000" d="M 468.83732514237585 114.20951775601598 L 479 110 L 468.83732514237585 105.79048224398402" stroke-miterlimit="10"/></g><g transform="translate(2,-6) scale(1,1)"><path fill="none" stroke="#000000" d="M 589 118 L 655.7099609375 117.50889756944444" stroke-miterlimit="10"/></g><g transform="translate(2,-6) scale(1,1)"><rect fill="#C0C0C0" stroke="none" x="33" y="23" width="91.998046875" height="44" opacity="0.2"/></g><g transform="translate(2,-6) scale(1,1)"><rect fill="#ffffff" stroke="none" x="26" y="16" width="91.998046875" height="44"/></g><g transform="translate(2,-6) scale(1,1)"><path fill="none" stroke="#000000" d="M 26 16 L 117.998046875 16 L 117.998046875 60 L 26 60 L 26 16 Z Z" stroke-miterlimit="10"/></g><g transform="translate(2,-6) scale(1,1)"><rect fill="#ffffff" stroke="none" x="16" y="23" width="20" height="10"/></g><g transform="translate(2,-6) scale(1,1)"><path fill="none" stroke="#000000" d="M 16 23 L 36 23 L 36 33 L 16 33 L 16 23 Z Z" stroke-miterlimit="10"/></g><g transform="translate(2,-6) scale(1,1)"><rect fill="#ffffff" stroke="none" x="16" y="43" width="20" height="10"/></g><g transform="translate(2,-6) scale(1,1)"><path fill="none" stroke="#000000" d="M 16 43 L 36 43 L 36 53 L 16 53 L 16 43 Z Z" stroke-miterlimit="10"/></g><g transform="translate(2,-6) scale(1,1)"><g><path fill="none" stroke="none"/><text fill="#000000" stroke="none" font-family="Arial" font-size="13px" font-style="normal" font-weight="normal" text-decoration="none" x="62.54541015625" y="33.5">«jar»</text></g></g><g transform="translate(2,-6) scale(1,1)"><g><path fill="none" stroke="none"/><text fill="#000000" stroke="none" font-family="Arial" font-size="13px" font-style="normal" font-weight="bold" text-decoration="none" x="43.4072265625" y="48.5">Jetty server</text></g></g><g transform="translate(2,-6) scale(1,1)"><path fill="none" stroke="#000000" d="M 111 87 L 87 61" stroke-miterlimit="10" stroke-dasharray="3"/></g><g transform="translate(2,-6) scale(1,1)"><path fill="none" stroke="#000000" d="M 96.98630829381318 65.6123363560042 L 87 61 L 90.79997199913093 71.32280062801858" stroke-miterlimit="10"/></g><g transform="translate(2,-6) scale(1,1)"><rect fill="#C0C0C0" stroke="none" x="113" y="463" width="98.44091796875" height="44" opacity="0.2"/></g><g transform="translate(2,-6) scale(1,1)"><rect fill="#ffffff" stroke="none" x="106" y="456" width="98.44091796875" height="44"/></g><g transform="translate(2,-6) scale(1,1)"><path fill="none" stroke="#000000" d="M 106 456 L 204.44091796875 456 L 204.44091796875 500 L 106 500 L 106 456 Z Z" stroke-miterlimit="10"/></g><g transform="translate(2,-6) scale(1,1)"><rect fill="#ffffff" stroke="none" x="96" y="463" width="20" height="10"/></g><g transform="translate(2,-6) scale(1,1)"><path fill="none" stroke="#000000" d="M 96 463 L 116 463 L 116 473 L 96 473 L 96 463 Z Z" stroke-miterlimit="10"/></g><g transform="translate(2,-6) scale(1,1)"><rect fill="#ffffff" stroke="none" x="96" y="483" width="20" height="10"/></g><g transform="translate(2,-6) scale(1,1)"><path fill="none" stroke="#000000" d="M 96 483 L 116 483 L 116 493 L 96 493 L 96 483 Z Z" stroke-miterlimit="10"/></g><g transform="translate(2,-6) scale(1,1)"><g><path fill="none" stroke="none"/><text fill="#000000" stroke="none" font-family="Arial" font-size="13px" font-style="normal" font-weight="normal" text-decoration="none" x="144.31640625" y="473.5">«api»</text></g></g><g transform="translate(2,-6) scale(1,1)"><g><path fill="none" stroke="none"/><text fill="#000000" stroke="none" font-family="Arial" font-size="13px" font-style="normal" font-weight="bold" text-decoration="none" x="132.38916015625" y="488.5">Autobahn</text></g></g><g transform="translate(2,-6) scale(1,1)"><path fill="none" stroke="#000000" d="M 344 413 L 205 459" stroke-miterlimit="10" stroke-dasharray="3"/></g><g transform="translate(2,-6) scale(1,1)"><path fill="none" stroke="#000000" d="M 213.32554043432867 451.81074576354695 L 205 459 L 215.9706165204267 459.80347567588655" stroke-miterlimit="10"/></g><g transform="translate(2,-6) scale(1,1)"><path fill="none" stroke="#000000" d="M 141 413 L 147 455" stroke-miterlimit="10" stroke-dasharray="3"/></g><g transform="translate(2,-6) scale(1,1)"><path fill="none" stroke="#000000" d="M 141.39557076751026 445.53478088061274 L 147 455 L 149.7299907097617 444.3441494602911" stroke-miterlimit="10"/></g><g transform="translate(2,-6) scale(1,1)"><rect fill="#C0C0C0" stroke="none" x="145" y="23" width="98.44091796875" height="44" opacity="0.2"/></g><g transform="translate(2,-6) scale(1,1)"><rect fill="#ffffff" stroke="none" x="138" y="16" width="98.44091796875" height="44"/></g><g transform="translate(2,-6) scale(1,1)"><path fill="none" stroke="#000000" d="M 138 16 L 236.44091796875 16 L 236.44091796875 60 L 138 60 L 138 16 Z Z" stroke-miterlimit="10"/></g><g transform="translate(2,-6) scale(1,1)"><rect fill="#ffffff" stroke="none" x="128" y="23" width="20" height="10"/></g><g transform="translate(2,-6) scale(1,1)"><path fill="none" stroke="#000000" d="M 128 23 L 148 23 L 148 33 L 128 33 L 128 23 Z Z" stroke-miterlimit="10"/></g><g transform="translate(2,-6) scale(1,1)"><rect fill="#ffffff" stroke="none" x="128" y="43" width="20" height="10"/></g><g transform="translate(2,-6) scale(1,1)"><path fill="none" stroke="#000000" d="M 128 43 L 148 43 L 148 53 L 128 53 L 128 43 Z Z" stroke-miterlimit="10"/></g><g transform="translate(2,-6) scale(1,1)"><g><path fill="none" stroke="none"/><text fill="#000000" stroke="none" font-family="Arial" font-size="13px" font-style="normal" font-weight="normal" text-decoration="none" x="177.766845703125" y="33.5">«jar»</text></g></g><g transform="translate(2,-6) scale(1,1)"><g><path fill="none" stroke="none"/><text fill="#000000" stroke="none" font-family="Arial" font-size="13px" font-style="normal" font-weight="bold" text-decoration="none" x="169.095947265625" y="48.5">JSR356</text></g></g><g transform="translate(2,-6) scale(1,1)"><path fill="none" stroke="#000000" d="M 148 87 L 166 61" stroke-miterlimit="10" stroke-dasharray="3"/></g><g transform="translate(2,-6) scale(1,1)"><path fill="none" stroke="#000000" d="M 163.67633668901465 71.75177142694079 L 166 61 L 156.75427142985026 66.95957240136546" stroke-miterlimit="10"/></g><g transform="translate(2,-6) scale(1,1)"><path fill="none" stroke="#000000" d="M 642 61 L 658.75 104" stroke-miterlimit="10"/></g></g></svg>