<svg version="1.1" xmlns="http://www.w3.org/2000/svg" xmlns:xlink="http://www.w3.org/1999/xlink" width="680.47265625" height="376"><defs/><g><g transform="translate(-9,-2) scale(1,1)"><rect fill="#C0C0C0" stroke="none" x="26" y="19" width="202.64794921875" height="44" opacity="0.2"/></g><g transform="translate(-9,-2) scale(1,1)"><rect fill="#ffffff" stroke="none" x="19" y="12" width="202.64794921875" height="44"/></g><g transform="translate(-9,-2) scale(1,1)"><path fill="none" stroke="#000000" d="M 19 12 L 221.64794921875 12 L 221.64794921875 56 L 19 56 L 19 12 Z Z" stroke-miterlimit="10"/></g><g transform="translate(-9,-2) scale(1,1)"><path fill="none" stroke="#000000" d="M 19 37 L 221.64794921875 37" stroke-miterlimit="10"/></g><g transform="translate(-9,-2) scale(1,1)"><path fill="none" stroke="#000000" d="M 19 47 L 221.64794921875 47" stroke-miterlimit="10"/></g><g transform="translate(-9,-2) scale(1,1)"><g><path fill="none" stroke="none"/><text fill="#000000" stroke="none" font-family="Arial" font-size="13px" font-style="normal" font-weight="bold" text-decoration="none" x="30.364990234375" y="31.5">BootServiceBroadcastReceiver</text></g></g><g transform="translate(-9,-2) scale(1,1)"><rect fill="#C0C0C0" stroke="none" x="82" y="107" width="79.103515625" height="44" opacity="0.2"/></g><g transform="translate(-9,-2) scale(1,1)"><rect fill="#ffffff" stroke="none" x="75" y="100" width="79.103515625" height="44"/></g><g transform="translate(-9,-2) scale(1,1)"><path fill="none" stroke="#000000" d="M 75 100 L 154.103515625 100 L 154.103515625 144 L 75 144 L 75 100 Z Z" stroke-miterlimit="10"/></g><g transform="translate(-9,-2) scale(1,1)"><path fill="none" stroke="#000000" d="M 75 125 L 154.103515625 125" stroke-miterlimit="10"/></g><g transform="translate(-9,-2) scale(1,1)"><path fill="none" stroke="#000000" d="M 75 135 L 154.103515625 135" stroke-miterlimit="10"/></g><g transform="translate(-9,-2) scale(1,1)"><g><path fill="none" stroke="none"/><text fill="#000000" stroke="none" font-family="Arial" font-size="13px" font-style="normal" font-weight="bold" text-decoration="none" x="81.680419921875" y="119.5">CallService</text></g></g><g transform="translate(-9,-2) scale(1,1)"><path fill="none" stroke="#000000" d="M 118 57 L 116 99" stroke-miterlimit="10"/></g><g transform="translate(-9,-2) scale(1,1)"><path fill="#000000" stroke="none" d="M 112.27863598639388 88.64860154963411 L 116 99 L 120.68814230973317 89.04905423169788 L 117.04643328713989 77.02490097006238"/></g><g transform="translate(-9,-2) scale(1,1)"><path fill="none" stroke="#000000" d="M 112.27863598639388 88.64860154963411 L 116 99 L 120.68814230973317 89.04905423169788 L 117.04643328713989 77.02490097006238 L 112.27863598639388 88.64860154963411" stroke-miterlimit="10"/></g><g transform="translate(-9,-2) scale(1,1)"><rect fill="#C0C0C0" stroke="none" x="103" y="175" width="126.03173828125" height="44" opacity="0.2"/></g><g transform="translate(-9,-2) scale(1,1)"><rect fill="#ffffff" stroke="none" x="96" y="168" width="126.03173828125" height="44"/></g><g transform="translate(-9,-2) scale(1,1)"><path fill="none" stroke="#000000" d="M 96 168 L 222.03173828125 168 L 222.03173828125 212 L 96 212 L 96 168 Z Z" stroke-miterlimit="10"/></g><g transform="translate(-9,-2) scale(1,1)"><path fill="none" stroke="#000000" d="M 96 193 L 222.03173828125 193" stroke-miterlimit="10"/></g><g transform="translate(-9,-2) scale(1,1)"><path fill="none" stroke="#000000" d="M 96 203 L 222.03173828125 203" stroke-miterlimit="10"/></g><g transform="translate(-9,-2) scale(1,1)"><g><path fill="none" stroke="none"/><text fill="#000000" stroke="none" font-family="Arial" font-size="13px" font-style="normal" font-weight="bold" text-decoration="none" x="104.464111328125" y="187.5">MessageController</text></g></g><g transform="translate(-9,-2) scale(1,1)"><rect fill="#C0C0C0" stroke="none" x="154" y="331" width="50.919921875" height="44" opacity="0.2"/></g><g transform="translate(-9,-2) scale(1,1)"><rect fill="#ffffff" stroke="none" x="147" y="324" width="50.919921875" height="44"/></g><g transform="translate(-9,-2) scale(1,1)"><path fill="none" stroke="#000000" d="M 147 324 L 197.919921875 324 L 197.919921875 368 L 147 368 L 147 324 Z Z" stroke-miterlimit="10"/></g><g transform="translate(-9,-2) scale(1,1)"><path fill="none" stroke="#000000" d="M 147 349 L 197.919921875 349" stroke-miterlimit="10"/></g><g transform="translate(-9,-2) scale(1,1)"><path fill="none" stroke="#000000" d="M 147 359 L 197.919921875 359" stroke-miterlimit="10"/></g><g transform="translate(-9,-2) scale(1,1)"><g><path fill="none" stroke="none"/><text fill="#000000" stroke="none" font-family="Arial" font-size="13px" font-style="normal" font-weight="bold" text-decoration="none" x="161.2626953125" y="343.5">Call</text></g></g><g transform="translate(-9,-2) scale(1,1)"><rect fill="#C0C0C0" stroke="none" x="26" y="331" width="120.26806640625" height="44" opacity="0.2"/></g><g transform="translate(-9,-2) scale(1,1)"><rect fill="#ffffff" stroke="none" x="19" y="324" width="120.26806640625" height="44"/></g><g transform="translate(-9,-2) scale(1,1)"><path fill="none" stroke="#000000" d="M 19 324 L 139.26806640625 324 L 139.26806640625 368 L 19 368 L 19 324 Z Z" stroke-miterlimit="10"/></g><g transform="translate(-9,-2) scale(1,1)"><path fill="none" stroke="#000000" d="M 19 349 L 139.26806640625 349" stroke-miterlimit="10"/></g><g transform="translate(-9,-2) scale(1,1)"><path fill="none" stroke="#000000" d="M 19 359 L 139.26806640625 359" stroke-miterlimit="10"/></g><g transform="translate(-9,-2) scale(1,1)"><g><path fill="none" stroke="none"/><text fill="#000000" stroke="none" font-family="Arial" font-size="13px" font-style="normal" font-weight="bold" text-decoration="none" x="25.658203125" y="343.5">MessageMetadata</text></g></g><g transform="translate(-9,-2) scale(1,1)"><rect fill="#C0C0C0" stroke="none" x="218" y="331" width="61.01904296875" height="44" opacity="0.2"/></g><g transform="translate(-9,-2) scale(1,1)"><rect fill="#ffffff" stroke="none" x="211" y="324" width="61.01904296875" height="44"/></g><g transform="translate(-9,-2) scale(1,1)"><path fill="none" stroke="#000000" d="M 211 324 L 272.01904296875 324 L 272.01904296875 368 L 211 368 L 211 324 Z Z" stroke-miterlimit="10"/></g><g transform="translate(-9,-2) scale(1,1)"><path fill="none" stroke="#000000" d="M 211 349 L 272.01904296875 349" stroke-miterlimit="10"/></g><g transform="translate(-9,-2) scale(1,1)"><path fill="none" stroke="#000000" d="M 211 359 L 272.01904296875 359" stroke-miterlimit="10"/></g><g transform="translate(-9,-2) scale(1,1)"><g><path fill="none" stroke="none"/><text fill="#000000" stroke="none" font-family="Arial" font-size="13px" font-style="normal" font-weight="bold" text-decoration="none" x="217.305908203125" y="343.5">Register</text></g></g><g transform="translate(-9,-2) scale(1,1)"><rect fill="#C0C0C0" stroke="none" x="135" y="247" width="63.919921875" height="44" opacity="0.2"/></g><g transform="translate(-9,-2) scale(1,1)"><rect fill="#ffffff" stroke="none" x="128" y="240" width="63.919921875" height="44"/></g><g transform="translate(-9,-2) scale(1,1)"><path fill="none" stroke="#000000" d="M 128 240 L 191.919921875 240 L 191.919921875 284 L 128 284 L 128 240 Z Z" stroke-miterlimit="10"/></g><g transform="translate(-9,-2) scale(1,1)"><path fill="none" stroke="#000000" d="M 128 265 L 191.919921875 265" stroke-miterlimit="10"/></g><g transform="translate(-9,-2) scale(1,1)"><path fill="none" stroke="#000000" d="M 128 275 L 191.919921875 275" stroke-miterlimit="10"/></g><g transform="translate(-9,-2) scale(1,1)"><g><path fill="none" stroke="none"/><text fill="#000000" stroke="none" font-family="Arial" font-size="13px" font-style="normal" font-weight="bold" text-decoration="none" x="133.58544921875" y="259.5">Message</text></g></g><g transform="translate(-9,-2) scale(1,1)"><rect fill="#C0C0C0" stroke="none" x="346" y="131" width="151.314453125" height="44" opacity="0.2"/></g><g transform="translate(-9,-2) scale(1,1)"><rect fill="#ffffff" stroke="none" x="339" y="124" width="151.314453125" height="44"/></g><g transform="translate(-9,-2) scale(1,1)"><path fill="none" stroke="#000000" d="M 339 124 L 490.314453125 124 L 490.314453125 168 L 339 168 L 339 124 Z Z" stroke-miterlimit="10"/></g><g transform="translate(-9,-2) scale(1,1)"><path fill="none" stroke="#000000" d="M 339 149 L 490.314453125 149" stroke-miterlimit="10"/></g><g transform="translate(-9,-2) scale(1,1)"><path fill="none" stroke="#000000" d="M 339 159 L 490.314453125 159" stroke-miterlimit="10"/></g><g transform="translate(-9,-2) scale(1,1)"><g><path fill="none" stroke="none"/><text fill="#000000" stroke="none" font-family="Arial" font-size="13px" font-style="normal" font-weight="bold" text-decoration="none" x="347.4609375" y="143.5">CallWebSocketHandler</text></g></g><g transform="translate(-9,-2) scale(1,1)"><rect fill="#C0C0C0" stroke="none" x="346" y="243" width="150.5654296875" height="44" opacity="0.2"/></g><g transform="translate(-9,-2) scale(1,1)"><rect fill="#5656ff" stroke="none" x="339" y="236" width="150.5654296875" height="44"/></g><g transform="translate(-9,-2) scale(1,1)"><path fill="none" stroke="#000000" d="M 339 236 L 489.5654296875 236 L 489.5654296875 280 L 339 280 L 339 236 Z Z" stroke-miterlimit="10"/></g><g transform="translate(-9,-2) scale(1,1)"><path fill="none" stroke="#000000" d="M 339 261 L 489.5654296875 261" stroke-miterlimit="10"/></g><g transform="translate(-9,-2) scale(1,1)"><path fill="none" stroke="#000000" d="M 339 271 L 489.5654296875 271" stroke-miterlimit="10"/></g><g transform="translate(-9,-2) scale(1,1)"><g><path fill="none" stroke="none"/><text fill="#000000" stroke="none" font-family="Arial" font-size="13px" font-style="normal" font-weight="bold" text-decoration="none" x="348.162353515625" y="255.5">WebSocketConnection</text></g></g><g transform="translate(-9,-2) scale(1,1)"><rect fill="#C0C0C0" stroke="none" x="298" y="331" width="258.18359375" height="44" opacity="0.2"/></g><g transform="translate(-9,-2) scale(1,1)"><rect fill="#ffffff" stroke="none" x="291" y="324" width="258.18359375" height="44"/></g><g transform="translate(-9,-2) scale(1,1)"><path fill="none" stroke="#000000" d="M 291 324 L 549.18359375 324 L 549.18359375 368 L 291 368 L 291 324 Z Z" stroke-miterlimit="10"/></g><g transform="translate(-9,-2) scale(1,1)"><path fill="none" stroke="#000000" d="M 291 349 L 549.18359375 349" stroke-miterlimit="10"/></g><g transform="translate(-9,-2) scale(1,1)"><path fill="none" stroke="#000000" d="M 291 359 L 549.18359375 359" stroke-miterlimit="10"/></g><g transform="translate(-9,-2) scale(1,1)"><g><path fill="none" stroke="none"/><text fill="#000000" stroke="none" font-family="Arial" font-size="13px" font-style="normal" font-weight="bold" text-decoration="none" x="304.104248046875" y="343.5">WebSocketConnectionHandlerSingleton</text></g></g><g transform="translate(-9,-2) scale(1,1)"><path fill="none" stroke="#000000" d="M 137 285 L 101 323" stroke-miterlimit="10"/></g><g transform="translate(-9,-2) scale(1,1)"><path fill="none" stroke="#000000" d="M 104.93341452885946 312.72730560446007 L 101 323 L 111.04523595471753 318.5174522184309" stroke-miterlimit="10"/></g><g transform="translate(-9,-2) scale(1,1)"><path fill="none" stroke="#000000" d="M 163 285 L 168 323" stroke-miterlimit="10"/></g><g transform="translate(-9,-2) scale(1,1)"><path fill="none" stroke="#000000" d="M 162.50068874366247 313.473322945228 L 168 323 L 170.8477776663918 312.37502177118466" stroke-miterlimit="10"/></g><g transform="translate(-9,-2) scale(1,1)"><path fill="none" stroke="#000000" d="M 181 285 L 219 323" stroke-miterlimit="10"/></g><g transform="translate(-9,-2) scale(1,1)"><path fill="none" stroke="#000000" d="M 208.83732514237585 318.790482243984 L 219 323 L 214.790482243984 312.83732514237585" stroke-miterlimit="10"/></g><g transform="translate(-9,-2) scale(1,1)"><path fill="none" stroke="#000000" d="M 418 323 L 416 281" stroke-miterlimit="10"/></g><g transform="translate(-9,-2) scale(1,1)"><path fill="none" stroke="#000000" d="M 420.68814230973317 290.9509457683021 L 416 281 L 412.2786359863939 291.3513984503659" stroke-miterlimit="10"/></g><g transform="translate(-9,-2) scale(1,1)"><path fill="none" stroke="#000000" d="M 414 235 L 414 169" stroke-miterlimit="10"/></g><g transform="translate(-9,-2) scale(1,1)"><path fill="none" stroke="#000000" d="M 418.209517756016 179.16267485762415 L 414 169 L 409.790482243984 179.16267485762415" stroke-miterlimit="10"/></g><g transform="translate(-9,-2) scale(1,1)"><rect fill="#C0C0C0" stroke="none" x="199" y="103" width="55.26171875" height="44" opacity="0.2"/></g><g transform="translate(-9,-2) scale(1,1)"><rect fill="#5656ff" stroke="none" x="192" y="96" width="55.26171875" height="44"/></g><g transform="translate(-9,-2) scale(1,1)"><path fill="none" stroke="#000000" d="M 192 96 L 247.26171875 96 L 247.26171875 140 L 192 140 L 192 96 Z Z" stroke-miterlimit="10"/></g><g transform="translate(-9,-2) scale(1,1)"><path fill="none" stroke="#000000" d="M 192 121 L 247.26171875 121" stroke-miterlimit="10"/></g><g transform="translate(-9,-2) scale(1,1)"><path fill="none" stroke="#000000" d="M 192 131 L 247.26171875 131" stroke-miterlimit="10"/></g><g transform="translate(-9,-2) scale(1,1)"><g><path fill="none" stroke="none"/><text fill="#000000" stroke="none" font-family="Arial" font-size="13px" font-style="normal" font-weight="bold" text-decoration="none" x="197.956787109375" y="115.5">Service</text></g></g><g transform="translate(-9,-2) scale(1,1)"><path fill="none" stroke="#000000" d="M 155 120 L 191 119" stroke-miterlimit="10"/></g><g transform="translate(-9,-2) scale(1,1)"><path fill="#FFFFFF" stroke="none" d="M 170.91625924498967 127.9801646580415 L 191 119 L 170.44871539466666 111.14858604641249"/></g><g transform="translate(-9,-2) scale(1,1)"><path fill="none" stroke="#000000" d="M 170.91625924498967 127.9801646580415 L 191 119 L 170.44871539466666 111.14858604641249 L 170.91625924498967 127.9801646580415" stroke-miterlimit="10"/></g><g transform="translate(-9,-2) scale(1,1)"><rect fill="#C0C0C0" stroke="none" x="311" y="23" width="134.01708984375" height="44" opacity="0.2"/></g><g transform="translate(-9,-2) scale(1,1)"><rect fill="#5656ff" stroke="none" x="304" y="16" width="134.01708984375" height="44"/></g><g transform="translate(-9,-2) scale(1,1)"><path fill="none" stroke="#000000" d="M 304 16 L 438.01708984375 16 L 438.01708984375 60 L 304 60 L 304 16 Z Z" stroke-miterlimit="10"/></g><g transform="translate(-9,-2) scale(1,1)"><path fill="none" stroke="#000000" d="M 304 41 L 438.01708984375 41" stroke-miterlimit="10"/></g><g transform="translate(-9,-2) scale(1,1)"><path fill="none" stroke="#000000" d="M 304 51 L 438.01708984375 51" stroke-miterlimit="10"/></g><g transform="translate(-9,-2) scale(1,1)"><g><path fill="none" stroke="none"/><text fill="#000000" stroke="none" font-family="Arial" font-size="13px" font-style="normal" font-weight="bold" text-decoration="none" x="316.094970703125" y="35.5">BroadcastReceiver</text></g></g><g transform="translate(-9,-2) scale(1,1)"><path fill="none" stroke="#000000" d="M 223 36 L 303 37" stroke-miterlimit="10"/></g><g transform="translate(-9,-2) scale(1,1)"><path fill="#FFFFFF" stroke="none" d="M 282.5710082934889 45.16433082715911 L 303 37 L 282.7814677397877 28.327575123256842"/></g><g transform="translate(-9,-2) scale(1,1)"><path fill="none" stroke="#000000" d="M 282.5710082934889 45.16433082715911 L 303 37 L 282.7814677397877 28.327575123256842 L 282.5710082934889 45.16433082715911" stroke-miterlimit="10"/></g><g transform="translate(-9,-2) scale(1,1)"><rect fill="#C0C0C0" stroke="none" x="559" y="127" width="127.47265625" height="44" opacity="0.2"/></g><g transform="translate(-9,-2) scale(1,1)"><rect fill="#5656ff" stroke="none" x="552" y="120" width="127.47265625" height="44"/></g><g transform="translate(-9,-2) scale(1,1)"><path fill="none" stroke="#000000" d="M 552 120 L 679.47265625 120 L 679.47265625 164 L 552 164 L 552 120 Z Z" stroke-miterlimit="10"/></g><g transform="translate(-9,-2) scale(1,1)"><path fill="none" stroke="#000000" d="M 552 145 L 679.47265625 145" stroke-miterlimit="10"/></g><g transform="translate(-9,-2) scale(1,1)"><path fill="none" stroke="#000000" d="M 552 155 L 679.47265625 155" stroke-miterlimit="10"/></g><g transform="translate(-9,-2) scale(1,1)"><g><path fill="none" stroke="none"/><text fill="#000000" stroke="none" font-family="Arial" font-size="13px" font-style="normal" font-weight="bold" text-decoration="none" x="559.7373046875" y="139.5">WebSocketHandler</text></g></g><g transform="translate(-9,-2) scale(1,1)"><path fill="none" stroke="#000000" d="M 491 144 L 551 143" stroke-miterlimit="10"/></g><g transform="translate(-9,-2) scale(1,1)"><path fill="#FFFFFF" stroke="none" d="M 530.8177704360932 151.7565752340607 L 551 143 L 530.5371748879234 134.92084234387235"/></g><g transform="translate(-9,-2) scale(1,1)"><path fill="none" stroke="#000000" d="M 530.8177704360932 151.7565752340607 L 551 143 L 530.5371748879234 134.92084234387235 L 530.8177704360932 151.7565752340607" stroke-miterlimit="10"/></g></g></svg>