<svg version="1.1" xmlns="http://www.w3.org/2000/svg" xmlns:xlink="http://www.w3.org/1999/xlink" width="554.80810546875" height="392"><defs/><g><g transform="translate(-2,-2) scale(1,1)"><rect fill="#C0C0C0" stroke="none" x="57" y="19" width="126.03173828125" height="44" opacity="0.2"/></g><g transform="translate(-2,-2) scale(1,1)"><rect fill="#ffffff" stroke="none" x="50" y="12" width="126.03173828125" height="44"/></g><g transform="translate(-2,-2) scale(1,1)"><path fill="none" stroke="#000000" d="M 50 12 L 176.03173828125 12 L 176.03173828125 56 L 50 56 L 50 12 Z Z" stroke-miterlimit="10"/></g><g transform="translate(-2,-2) scale(1,1)"><path fill="none" stroke="#000000" d="M 50 37 L 176.03173828125 37" stroke-miterlimit="10"/></g><g transform="translate(-2,-2) scale(1,1)"><path fill="none" stroke="#000000" d="M 50 47 L 176.03173828125 47" stroke-miterlimit="10"/></g><g transform="translate(-2,-2) scale(1,1)"><g><path fill="none" stroke="none"/><text fill="#000000" stroke="none" font-family="Arial" font-size="13px" font-style="normal" font-weight="bold" text-decoration="none" x="58.464111328125" y="31.5">MessageController</text></g></g><g transform="translate(-2,-2) scale(1,1)"><rect fill="#C0C0C0" stroke="none" x="147" y="347" width="50.919921875" height="44" opacity="0.2"/></g><g transform="translate(-2,-2) scale(1,1)"><rect fill="#ffffff" stroke="none" x="140" y="340" width="50.919921875" height="44"/></g><g transform="translate(-2,-2) scale(1,1)"><path fill="none" stroke="#000000" d="M 140 340 L 190.919921875 340 L 190.919921875 384 L 140 384 L 140 340 Z Z" stroke-miterlimit="10"/></g><g transform="translate(-2,-2) scale(1,1)"><path fill="none" stroke="#000000" d="M 140 365 L 190.919921875 365" stroke-miterlimit="10"/></g><g transform="translate(-2,-2) scale(1,1)"><path fill="none" stroke="#000000" d="M 140 375 L 190.919921875 375" stroke-miterlimit="10"/></g><g transform="translate(-2,-2) scale(1,1)"><g><path fill="none" stroke="none"/><text fill="#000000" stroke="none" font-family="Arial" font-size="13px" font-style="normal" font-weight="bold" text-decoration="none" x="154.2626953125" y="359.5">Call</text></g></g><g transform="translate(-2,-2) scale(1,1)"><rect fill="#C0C0C0" stroke="none" x="19" y="347" width="120.26806640625" height="44" opacity="0.2"/></g><g transform="translate(-2,-2) scale(1,1)"><rect fill="#ffffff" stroke="none" x="12" y="340" width="120.26806640625" height="44"/></g><g transform="translate(-2,-2) scale(1,1)"><path fill="none" stroke="#000000" d="M 12 340 L 132.26806640625 340 L 132.26806640625 384 L 12 384 L 12 340 Z Z" stroke-miterlimit="10"/></g><g transform="translate(-2,-2) scale(1,1)"><path fill="none" stroke="#000000" d="M 12 365 L 132.26806640625 365" stroke-miterlimit="10"/></g><g transform="translate(-2,-2) scale(1,1)"><path fill="none" stroke="#000000" d="M 12 375 L 132.26806640625 375" stroke-miterlimit="10"/></g><g transform="translate(-2,-2) scale(1,1)"><g><path fill="none" stroke="none"/><text fill="#000000" stroke="none" font-family="Arial" font-size="13px" font-style="normal" font-weight="bold" text-decoration="none" x="18.658203125" y="359.5">MessageMetadata</text></g></g><g transform="translate(-2,-2) scale(1,1)"><rect fill="#C0C0C0" stroke="none" x="203" y="347" width="61.01904296875" height="44" opacity="0.2"/></g><g transform="translate(-2,-2) scale(1,1)"><rect fill="#ffffff" stroke="none" x="196" y="340" width="61.01904296875" height="44"/></g><g transform="translate(-2,-2) scale(1,1)"><path fill="none" stroke="#000000" d="M 196 340 L 257.01904296875 340 L 257.01904296875 384 L 196 384 L 196 340 Z Z" stroke-miterlimit="10"/></g><g transform="translate(-2,-2) scale(1,1)"><path fill="none" stroke="#000000" d="M 196 365 L 257.01904296875 365" stroke-miterlimit="10"/></g><g transform="translate(-2,-2) scale(1,1)"><path fill="none" stroke="#000000" d="M 196 375 L 257.01904296875 375" stroke-miterlimit="10"/></g><g transform="translate(-2,-2) scale(1,1)"><g><path fill="none" stroke="none"/><text fill="#000000" stroke="none" font-family="Arial" font-size="13px" font-style="normal" font-weight="bold" text-decoration="none" x="202.305908203125" y="359.5">Register</text></g></g><g transform="translate(-2,-2) scale(1,1)"><rect fill="#C0C0C0" stroke="none" x="115" y="227" width="63.919921875" height="44" opacity="0.2"/></g><g transform="translate(-2,-2) scale(1,1)"><rect fill="#ffffff" stroke="none" x="108" y="220" width="63.919921875" height="44"/></g><g transform="translate(-2,-2) scale(1,1)"><path fill="none" stroke="#000000" d="M 108 220 L 171.919921875 220 L 171.919921875 264 L 108 264 L 108 220 Z Z" stroke-miterlimit="10"/></g><g transform="translate(-2,-2) scale(1,1)"><path fill="none" stroke="#000000" d="M 108 245 L 171.919921875 245" stroke-miterlimit="10"/></g><g transform="translate(-2,-2) scale(1,1)"><path fill="none" stroke="#000000" d="M 108 255 L 171.919921875 255" stroke-miterlimit="10"/></g><g transform="translate(-2,-2) scale(1,1)"><g><path fill="none" stroke="none"/><text fill="#000000" stroke="none" font-family="Arial" font-size="13px" font-style="normal" font-weight="bold" text-decoration="none" x="113.58544921875" y="239.5">Message</text></g></g><g transform="translate(-2,-2) scale(1,1)"><path fill="none" stroke="#000000" d="M 126 265 L 85 339" stroke-miterlimit="10"/></g><g transform="translate(-2,-2) scale(1,1)"><path fill="none" stroke="#000000" d="M 86.24310320018058 328.0704668702775 L 85 339 L 93.60735369379216 332.1506597113326" stroke-miterlimit="10"/></g><g transform="translate(-2,-2) scale(1,1)"><path fill="none" stroke="#000000" d="M 144 265 L 160 339" stroke-miterlimit="10"/></g><g transform="translate(-2,-2) scale(1,1)"><path fill="none" stroke="#000000" d="M 153.73785125838822 329.9564667779717 L 160 339 L 161.96673582718955 328.17724849282547" stroke-miterlimit="10"/></g><g transform="translate(-2,-2) scale(1,1)"><path fill="none" stroke="#000000" d="M 156 265 L 209 339" stroke-miterlimit="10"/></g><g transform="translate(-2,-2) scale(1,1)"><path fill="none" stroke="#000000" d="M 199.66021059247814 333.18894727066237 L 209 339 L 206.5048063658342 328.2867367843398" stroke-miterlimit="10"/></g><g transform="translate(-2,-2) scale(1,1)"><rect fill="#C0C0C0" stroke="none" x="169" y="99" width="94.95361328125" height="44" opacity="0.2"/></g><g transform="translate(-2,-2) scale(1,1)"><rect fill="#ffffff" stroke="none" x="162" y="92" width="94.95361328125" height="44"/></g><g transform="translate(-2,-2) scale(1,1)"><path fill="none" stroke="#000000" d="M 162 92 L 256.95361328125 92 L 256.95361328125 136 L 162 136 L 162 92 Z Z" stroke-miterlimit="10"/></g><g transform="translate(-2,-2) scale(1,1)"><path fill="none" stroke="#000000" d="M 162 117 L 256.95361328125 117" stroke-miterlimit="10"/></g><g transform="translate(-2,-2) scale(1,1)"><path fill="none" stroke="#000000" d="M 162 127 L 256.95361328125 127" stroke-miterlimit="10"/></g><g transform="translate(-2,-2) scale(1,1)"><g><path fill="none" stroke="none"/><text fill="#000000" stroke="none" font-family="Arial" font-size="13px" font-style="normal" font-weight="bold" text-decoration="none" x="170.102294921875" y="111.5">CallController</text></g></g><g transform="translate(-2,-2) scale(1,1)"><rect fill="#C0C0C0" stroke="none" x="281" y="99" width="99.3017578125" height="44" opacity="0.2"/></g><g transform="translate(-2,-2) scale(1,1)"><rect fill="#ffffff" stroke="none" x="274" y="92" width="99.3017578125" height="44"/></g><g transform="translate(-2,-2) scale(1,1)"><path fill="none" stroke="#000000" d="M 274 92 L 373.3017578125 92 L 373.3017578125 136 L 274 136 L 274 92 Z Z" stroke-miterlimit="10"/></g><g transform="translate(-2,-2) scale(1,1)"><path fill="none" stroke="#000000" d="M 274 117 L 373.3017578125 117" stroke-miterlimit="10"/></g><g transform="translate(-2,-2) scale(1,1)"><path fill="none" stroke="#000000" d="M 274 127 L 373.3017578125 127" stroke-miterlimit="10"/></g><g transform="translate(-2,-2) scale(1,1)"><g><path fill="none" stroke="none"/><text fill="#000000" stroke="none" font-family="Arial" font-size="13px" font-style="normal" font-weight="bold" text-decoration="none" x="281.74365234375" y="111.5">PeerController</text></g></g><g transform="translate(-2,-2) scale(1,1)"><rect fill="#C0C0C0" stroke="none" x="25" y="99" width="123.130859375" height="44" opacity="0.2"/></g><g transform="translate(-2,-2) scale(1,1)"><rect fill="#ffffff" stroke="none" x="18" y="92" width="123.130859375" height="44"/></g><g transform="translate(-2,-2) scale(1,1)"><path fill="none" stroke="#000000" d="M 18 92 L 141.130859375 92 L 141.130859375 136 L 18 136 L 18 92 Z Z" stroke-miterlimit="10"/></g><g transform="translate(-2,-2) scale(1,1)"><path fill="none" stroke="#000000" d="M 18 117 L 141.130859375 117" stroke-miterlimit="10"/></g><g transform="translate(-2,-2) scale(1,1)"><path fill="none" stroke="#000000" d="M 18 127 L 141.130859375 127" stroke-miterlimit="10"/></g><g transform="translate(-2,-2) scale(1,1)"><g><path fill="none" stroke="none"/><text fill="#000000" stroke="none" font-family="Arial" font-size="13px" font-style="normal" font-weight="bold" text-decoration="none" x="27.1845703125" y="111.5">RegisterController</text></g></g><g transform="translate(-2,-2) scale(1,1)"><rect fill="#C0C0C0" stroke="none" x="313" y="275" width="111.54638671875" height="44" opacity="0.2"/></g><g transform="translate(-2,-2) scale(1,1)"><rect fill="#ffffff" stroke="none" x="306" y="268" width="111.54638671875" height="44"/></g><g transform="translate(-2,-2) scale(1,1)"><path fill="none" stroke="#000000" d="M 306 268 L 417.54638671875 268 L 417.54638671875 312 L 306 312 L 306 268 Z Z" stroke-miterlimit="10"/></g><g transform="translate(-2,-2) scale(1,1)"><path fill="none" stroke="#000000" d="M 306 293 L 417.54638671875 293" stroke-miterlimit="10"/></g><g transform="translate(-2,-2) scale(1,1)"><path fill="none" stroke="#000000" d="M 306 303 L 417.54638671875 303" stroke-miterlimit="10"/></g><g transform="translate(-2,-2) scale(1,1)"><g><path fill="none" stroke="none"/><text fill="#000000" stroke="none" font-family="Arial" font-size="13px" font-style="normal" font-weight="bold" text-decoration="none" x="314.8037109375" y="287.5">NotifierEndPoint</text></g></g><g transform="translate(-2,-2) scale(1,1)"><rect fill="#C0C0C0" stroke="none" x="409" y="19" width="144.80810546875" height="44" opacity="0.2"/></g><g transform="translate(-2,-2) scale(1,1)"><rect fill="#ffffff" stroke="none" x="402" y="12" width="144.80810546875" height="44"/></g><g transform="translate(-2,-2) scale(1,1)"><path fill="none" stroke="#000000" d="M 402 12 L 546.80810546875 12 L 546.80810546875 56 L 402 56 L 402 12 Z Z" stroke-miterlimit="10"/></g><g transform="translate(-2,-2) scale(1,1)"><path fill="none" stroke="#000000" d="M 402 37 L 546.80810546875 37" stroke-miterlimit="10"/></g><g transform="translate(-2,-2) scale(1,1)"><path fill="none" stroke="#000000" d="M 402 47 L 546.80810546875 47" stroke-miterlimit="10"/></g><g transform="translate(-2,-2) scale(1,1)"><g><path fill="none" stroke="none"/><text fill="#000000" stroke="none" font-family="Arial" font-size="13px" font-style="normal" font-weight="bold" text-decoration="none" x="410.806884765625" y="31.5">PeerHandlerSingleton</text></g></g><g transform="translate(-2,-2) scale(1,1)"><rect fill="#C0C0C0" stroke="none" x="313" y="211" width="94.97900390625" height="44" opacity="0.2"/></g><g transform="translate(-2,-2) scale(1,1)"><rect fill="#ffffff" stroke="none" x="306" y="204" width="94.97900390625" height="44"/></g><g transform="translate(-2,-2) scale(1,1)"><path fill="none" stroke="#000000" d="M 306 204 L 400.97900390625 204 L 400.97900390625 248 L 306 248 L 306 204 Z Z" stroke-miterlimit="10"/></g><g transform="translate(-2,-2) scale(1,1)"><path fill="none" stroke="#000000" d="M 306 229 L 400.97900390625 229" stroke-miterlimit="10"/></g><g transform="translate(-2,-2) scale(1,1)"><path fill="none" stroke="#000000" d="M 306 239 L 400.97900390625 239" stroke-miterlimit="10"/></g><g transform="translate(-2,-2) scale(1,1)"><g><path fill="none" stroke="none"/><text fill="#000000" stroke="none" font-family="Arial" font-size="13px" font-style="normal" font-weight="bold" text-decoration="none" x="313.75634765625" y="223.5">NotifierServer</text></g></g><g transform="translate(-2,-2) scale(1,1)"><rect fill="#C0C0C0" stroke="none" x="463" y="271" width="66.04638671875" height="44" opacity="0.2"/></g><g transform="translate(-2,-2) scale(1,1)"><rect fill="#5656ff" stroke="none" x="456" y="264" width="66.04638671875" height="44"/></g><g transform="translate(-2,-2) scale(1,1)"><path fill="none" stroke="#000000" d="M 456 264 L 522.04638671875 264 L 522.04638671875 308 L 456 308 L 456 264 Z Z" stroke-miterlimit="10"/></g><g transform="translate(-2,-2) scale(1,1)"><path fill="none" stroke="#000000" d="M 456 289 L 522.04638671875 289" stroke-miterlimit="10"/></g><g transform="translate(-2,-2) scale(1,1)"><path fill="none" stroke="#000000" d="M 456 299 L 522.04638671875 299" stroke-miterlimit="10"/></g><g transform="translate(-2,-2) scale(1,1)"><g><path fill="none" stroke="none"/><text fill="#000000" stroke="none" font-family="Arial" font-size="13px" font-style="normal" font-weight="bold" text-decoration="none" x="462.642333984375" y="283.5">EndPoint</text></g></g><g transform="translate(-2,-2) scale(1,1)"><path fill="none" stroke="#000000" d="M 419 288 L 455 287" stroke-miterlimit="10"/></g><g transform="translate(-2,-2) scale(1,1)"><path fill="#FFFFFF" stroke="none" d="M 434.9162592449897 295.9801646580415 L 455 287 L 434.44871539466664 279.1485860464125"/></g><g transform="translate(-2,-2) scale(1,1)"><path fill="none" stroke="#000000" d="M 434.9162592449897 295.9801646580415 L 455 287 L 434.44871539466664 279.1485860464125 L 434.9162592449897 295.9801646580415" stroke-miterlimit="10"/></g></g></svg>