<svg version="1.1" xmlns="http://www.w3.org/2000/svg" xmlns:xlink="http://www.w3.org/1999/xlink" width="811.68994140625" height="400"><defs/><g><g transform="translate(-2,-6) scale(1,1)"><rect fill="#C0C0C0" stroke="none" x="27" y="23" width="202.64794921875" height="44" opacity="0.2"/></g><g transform="translate(-2,-6) scale(1,1)"><rect fill="#ffffff" stroke="none" x="20" y="16" width="202.64794921875" height="44"/></g><g transform="translate(-2,-6) scale(1,1)"><path fill="none" stroke="#000000" d="M 20 16 L 222.64794921875 16 L 222.64794921875 60 L 20 60 L 20 16 Z Z" stroke-miterlimit="10"/></g><g transform="translate(-2,-6) scale(1,1)"><path fill="none" stroke="#000000" d="M 20 41 L 222.64794921875 41" stroke-miterlimit="10"/></g><g transform="translate(-2,-6) scale(1,1)"><path fill="none" stroke="#000000" d="M 20 51 L 222.64794921875 51" stroke-miterlimit="10"/></g><g transform="translate(-2,-6) scale(1,1)"><g><path fill="none" stroke="none"/><text fill="#000000" stroke="none" font-family="Arial" font-size="13px" font-style="normal" font-weight="bold" text-decoration="none" x="31.364990234375" y="35.5">BootServiceBroadcastReceiver</text></g></g><g transform="translate(-2,-6) scale(1,1)"><rect fill="#C0C0C0" stroke="none" x="83" y="111" width="79.103515625" height="44" opacity="0.2"/></g><g transform="translate(-2,-6) scale(1,1)"><rect fill="#ffffff" stroke="none" x="76" y="104" width="79.103515625" height="44"/></g><g transform="translate(-2,-6) scale(1,1)"><path fill="none" stroke="#000000" d="M 76 104 L 155.103515625 104 L 155.103515625 148 L 76 148 L 76 104 Z Z" stroke-miterlimit="10"/></g><g transform="translate(-2,-6) scale(1,1)"><path fill="none" stroke="#000000" d="M 76 129 L 155.103515625 129" stroke-miterlimit="10"/></g><g transform="translate(-2,-6) scale(1,1)"><path fill="none" stroke="#000000" d="M 76 139 L 155.103515625 139" stroke-miterlimit="10"/></g><g transform="translate(-2,-6) scale(1,1)"><g><path fill="none" stroke="none"/><text fill="#000000" stroke="none" font-family="Arial" font-size="13px" font-style="normal" font-weight="bold" text-decoration="none" x="82.680419921875" y="123.5">CallService</text></g></g><g transform="translate(-2,-6) scale(1,1)"><path fill="none" stroke="#000000" d="M 119 61 L 117 103" stroke-miterlimit="10"/></g><g transform="translate(-2,-6) scale(1,1)"><path fill="#000000" stroke="none" d="M 113.27863598639388 92.64860154963411 L 117 103 L 121.68814230973317 93.04905423169788 L 118.04643328713989 81.02490097006238"/></g><g transform="translate(-2,-6) scale(1,1)"><path fill="none" stroke="#000000" d="M 113.27863598639388 92.64860154963411 L 117 103 L 121.68814230973317 93.04905423169788 L 118.04643328713989 81.02490097006238 L 113.27863598639388 92.64860154963411" stroke-miterlimit="10"/></g><g transform="translate(-2,-6) scale(1,1)"><rect fill="#C0C0C0" stroke="none" x="183" y="183" width="126.03173828125" height="44" opacity="0.2"/></g><g transform="translate(-2,-6) scale(1,1)"><rect fill="#ffffff" stroke="none" x="176" y="176" width="126.03173828125" height="44"/></g><g transform="translate(-2,-6) scale(1,1)"><path fill="none" stroke="#000000" d="M 176 176 L 302.03173828125 176 L 302.03173828125 220 L 176 220 L 176 176 Z Z" stroke-miterlimit="10"/></g><g transform="translate(-2,-6) scale(1,1)"><path fill="none" stroke="#000000" d="M 176 201 L 302.03173828125 201" stroke-miterlimit="10"/></g><g transform="translate(-2,-6) scale(1,1)"><path fill="none" stroke="#000000" d="M 176 211 L 302.03173828125 211" stroke-miterlimit="10"/></g><g transform="translate(-2,-6) scale(1,1)"><g><path fill="none" stroke="none"/><text fill="#000000" stroke="none" font-family="Arial" font-size="13px" font-style="normal" font-weight="bold" text-decoration="none" x="184.464111328125" y="195.5">MessageController</text></g></g><g transform="translate(-2,-6) scale(1,1)"><rect fill="#C0C0C0" stroke="none" x="515" y="23" width="141.17724609375" height="44" opacity="0.2"/></g><g transform="translate(-2,-6) scale(1,1)"><rect fill="#ffffff" stroke="none" x="508" y="16" width="141.17724609375" height="44"/></g><g transform="translate(-2,-6) scale(1,1)"><path fill="none" stroke="#000000" d="M 508 16 L 649.17724609375 16 L 649.17724609375 60 L 508 60 L 508 16 Z Z" stroke-miterlimit="10"/></g><g transform="translate(-2,-6) scale(1,1)"><path fill="none" stroke="#000000" d="M 508 41 L 649.17724609375 41" stroke-miterlimit="10"/></g><g transform="translate(-2,-6) scale(1,1)"><path fill="none" stroke="#000000" d="M 508 51 L 649.17724609375 51" stroke-miterlimit="10"/></g><g transform="translate(-2,-6) scale(1,1)"><g><path fill="none" stroke="none"/><text fill="#000000" stroke="none" font-family="Arial" font-size="13px" font-style="normal" font-weight="bold" text-decoration="none" x="517.52099609375" y="35.5">BusHandlerSingleton</text></g></g><g transform="translate(-2,-6) scale(1,1)"><rect fill="#C0C0C0" stroke="none" x="507" y="95" width="148.4072265625" height="44" opacity="0.2"/></g><g transform="translate(-2,-6) scale(1,1)"><rect fill="#ffffff" stroke="none" x="500" y="88" width="148.4072265625" height="44"/></g><g transform="translate(-2,-6) scale(1,1)"><path fill="none" stroke="#000000" d="M 500 88 L 648.4072265625 88 L 648.4072265625 132 L 500 132 L 500 88 Z Z" stroke-miterlimit="10"/></g><g transform="translate(-2,-6) scale(1,1)"><path fill="none" stroke="#000000" d="M 500 113 L 648.4072265625 113" stroke-miterlimit="10"/></g><g transform="translate(-2,-6) scale(1,1)"><path fill="none" stroke="#000000" d="M 500 123 L 648.4072265625 123" stroke-miterlimit="10"/></g><g transform="translate(-2,-6) scale(1,1)"><g><path fill="none" stroke="none"/><text fill="#000000" stroke="none" font-family="Arial" font-size="13px" font-style="normal" font-weight="bold" text-decoration="none" x="508.794189453125" y="107.5">PhoneCallBegunEvent</text></g></g><g transform="translate(-2,-6) scale(1,1)"><rect fill="#C0C0C0" stroke="none" x="663" y="95" width="147.68994140625" height="44" opacity="0.2"/></g><g transform="translate(-2,-6) scale(1,1)"><rect fill="#ffffff" stroke="none" x="656" y="88" width="147.68994140625" height="44"/></g><g transform="translate(-2,-6) scale(1,1)"><path fill="none" stroke="#000000" d="M 656 88 L 803.68994140625 88 L 803.68994140625 132 L 656 132 L 656 88 Z Z" stroke-miterlimit="10"/></g><g transform="translate(-2,-6) scale(1,1)"><path fill="none" stroke="#000000" d="M 656 113 L 803.68994140625 113" stroke-miterlimit="10"/></g><g transform="translate(-2,-6) scale(1,1)"><path fill="none" stroke="#000000" d="M 656 123 L 803.68994140625 123" stroke-miterlimit="10"/></g><g transform="translate(-2,-6) scale(1,1)"><g><path fill="none" stroke="none"/><text fill="#000000" stroke="none" font-family="Arial" font-size="13px" font-style="normal" font-weight="bold" text-decoration="none" x="664.435546875" y="107.5">PhoneCallEndedEvent</text></g></g><g transform="translate(-2,-6) scale(1,1)"><rect fill="#C0C0C0" stroke="none" x="147" y="359" width="50.919921875" height="44" opacity="0.2"/></g><g transform="translate(-2,-6) scale(1,1)"><rect fill="#ffffff" stroke="none" x="140" y="352" width="50.919921875" height="44"/></g><g transform="translate(-2,-6) scale(1,1)"><path fill="none" stroke="#000000" d="M 140 352 L 190.919921875 352 L 190.919921875 396 L 140 396 L 140 352 Z Z" stroke-miterlimit="10"/></g><g transform="translate(-2,-6) scale(1,1)"><path fill="none" stroke="#000000" d="M 140 377 L 190.919921875 377" stroke-miterlimit="10"/></g><g transform="translate(-2,-6) scale(1,1)"><path fill="none" stroke="#000000" d="M 140 387 L 190.919921875 387" stroke-miterlimit="10"/></g><g transform="translate(-2,-6) scale(1,1)"><g><path fill="none" stroke="none"/><text fill="#000000" stroke="none" font-family="Arial" font-size="13px" font-style="normal" font-weight="bold" text-decoration="none" x="154.2626953125" y="371.5">Call</text></g></g><g transform="translate(-2,-6) scale(1,1)"><rect fill="#C0C0C0" stroke="none" x="19" y="359" width="120.26806640625" height="44" opacity="0.2"/></g><g transform="translate(-2,-6) scale(1,1)"><rect fill="#ffffff" stroke="none" x="12" y="352" width="120.26806640625" height="44"/></g><g transform="translate(-2,-6) scale(1,1)"><path fill="none" stroke="#000000" d="M 12 352 L 132.26806640625 352 L 132.26806640625 396 L 12 396 L 12 352 Z Z" stroke-miterlimit="10"/></g><g transform="translate(-2,-6) scale(1,1)"><path fill="none" stroke="#000000" d="M 12 377 L 132.26806640625 377" stroke-miterlimit="10"/></g><g transform="translate(-2,-6) scale(1,1)"><path fill="none" stroke="#000000" d="M 12 387 L 132.26806640625 387" stroke-miterlimit="10"/></g><g transform="translate(-2,-6) scale(1,1)"><g><path fill="none" stroke="none"/><text fill="#000000" stroke="none" font-family="Arial" font-size="13px" font-style="normal" font-weight="bold" text-decoration="none" x="18.658203125" y="371.5">MessageMetadata</text></g></g><g transform="translate(-2,-6) scale(1,1)"><rect fill="#C0C0C0" stroke="none" x="203" y="359" width="61.01904296875" height="44" opacity="0.2"/></g><g transform="translate(-2,-6) scale(1,1)"><rect fill="#ffffff" stroke="none" x="196" y="352" width="61.01904296875" height="44"/></g><g transform="translate(-2,-6) scale(1,1)"><path fill="none" stroke="#000000" d="M 196 352 L 257.01904296875 352 L 257.01904296875 396 L 196 396 L 196 352 Z Z" stroke-miterlimit="10"/></g><g transform="translate(-2,-6) scale(1,1)"><path fill="none" stroke="#000000" d="M 196 377 L 257.01904296875 377" stroke-miterlimit="10"/></g><g transform="translate(-2,-6) scale(1,1)"><path fill="none" stroke="#000000" d="M 196 387 L 257.01904296875 387" stroke-miterlimit="10"/></g><g transform="translate(-2,-6) scale(1,1)"><g><path fill="none" stroke="none"/><text fill="#000000" stroke="none" font-family="Arial" font-size="13px" font-style="normal" font-weight="bold" text-decoration="none" x="202.305908203125" y="371.5">Register</text></g></g><g transform="translate(-2,-6) scale(1,1)"><rect fill="#C0C0C0" stroke="none" x="103" y="263" width="63.919921875" height="44" opacity="0.2"/></g><g transform="translate(-2,-6) scale(1,1)"><rect fill="#ffffff" stroke="none" x="96" y="256" width="63.919921875" height="44"/></g><g transform="translate(-2,-6) scale(1,1)"><path fill="none" stroke="#000000" d="M 96 256 L 159.919921875 256 L 159.919921875 300 L 96 300 L 96 256 Z Z" stroke-miterlimit="10"/></g><g transform="translate(-2,-6) scale(1,1)"><path fill="none" stroke="#000000" d="M 96 281 L 159.919921875 281" stroke-miterlimit="10"/></g><g transform="translate(-2,-6) scale(1,1)"><path fill="none" stroke="#000000" d="M 96 291 L 159.919921875 291" stroke-miterlimit="10"/></g><g transform="translate(-2,-6) scale(1,1)"><g><path fill="none" stroke="none"/><text fill="#000000" stroke="none" font-family="Arial" font-size="13px" font-style="normal" font-weight="bold" text-decoration="none" x="101.58544921875" y="275.5">Message</text></g></g><g transform="translate(-2,-6) scale(1,1)"><rect fill="#C0C0C0" stroke="none" x="339" y="183" width="151.314453125" height="44" opacity="0.2"/></g><g transform="translate(-2,-6) scale(1,1)"><rect fill="#ffffff" stroke="none" x="332" y="176" width="151.314453125" height="44"/></g><g transform="translate(-2,-6) scale(1,1)"><path fill="none" stroke="#000000" d="M 332 176 L 483.314453125 176 L 483.314453125 220 L 332 220 L 332 176 Z Z" stroke-miterlimit="10"/></g><g transform="translate(-2,-6) scale(1,1)"><path fill="none" stroke="#000000" d="M 332 201 L 483.314453125 201" stroke-miterlimit="10"/></g><g transform="translate(-2,-6) scale(1,1)"><path fill="none" stroke="#000000" d="M 332 211 L 483.314453125 211" stroke-miterlimit="10"/></g><g transform="translate(-2,-6) scale(1,1)"><g><path fill="none" stroke="none"/><text fill="#000000" stroke="none" font-family="Arial" font-size="13px" font-style="normal" font-weight="bold" text-decoration="none" x="340.4609375" y="195.5">CallWebSocketHandler</text></g></g><g transform="translate(-2,-6) scale(1,1)"><rect fill="#C0C0C0" stroke="none" x="339" y="263" width="150.5654296875" height="44" opacity="0.2"/></g><g transform="translate(-2,-6) scale(1,1)"><rect fill="#568eff" stroke="none" x="332" y="256" width="150.5654296875" height="44"/></g><g transform="translate(-2,-6) scale(1,1)"><path fill="none" stroke="#000000" d="M 332 256 L 482.5654296875 256 L 482.5654296875 300 L 332 300 L 332 256 Z Z" stroke-miterlimit="10"/></g><g transform="translate(-2,-6) scale(1,1)"><path fill="none" stroke="#000000" d="M 332 281 L 482.5654296875 281" stroke-miterlimit="10"/></g><g transform="translate(-2,-6) scale(1,1)"><path fill="none" stroke="#000000" d="M 332 291 L 482.5654296875 291" stroke-miterlimit="10"/></g><g transform="translate(-2,-6) scale(1,1)"><g><path fill="none" stroke="none"/><text fill="#000000" stroke="none" font-family="Arial" font-size="13px" font-style="normal" font-weight="bold" text-decoration="none" x="341.162353515625" y="275.5">WebSocketConnection</text></g></g><g transform="translate(-2,-6) scale(1,1)"><rect fill="#C0C0C0" stroke="none" x="283" y="359" width="258.18359375" height="44" opacity="0.2"/></g><g transform="translate(-2,-6) scale(1,1)"><rect fill="#ffffff" stroke="none" x="276" y="352" width="258.18359375" height="44"/></g><g transform="translate(-2,-6) scale(1,1)"><path fill="none" stroke="#000000" d="M 276 352 L 534.18359375 352 L 534.18359375 396 L 276 396 L 276 352 Z Z" stroke-miterlimit="10"/></g><g transform="translate(-2,-6) scale(1,1)"><path fill="none" stroke="#000000" d="M 276 377 L 534.18359375 377" stroke-miterlimit="10"/></g><g transform="translate(-2,-6) scale(1,1)"><path fill="none" stroke="#000000" d="M 276 387 L 534.18359375 387" stroke-miterlimit="10"/></g><g transform="translate(-2,-6) scale(1,1)"><g><path fill="none" stroke="none"/><text fill="#000000" stroke="none" font-family="Arial" font-size="13px" font-style="normal" font-weight="bold" text-decoration="none" x="289.104248046875" y="371.5">WebSocketConnectionHandlerSingleton</text></g></g><g transform="translate(-2,-6) scale(1,1)"><rect fill="#C0C0C0" stroke="none" x="243" y="23" width="79.8017578125" height="44" opacity="0.2"/></g><g transform="translate(-2,-6) scale(1,1)"><rect fill="#ffffff" stroke="none" x="236" y="16" width="79.8017578125" height="44"/></g><g transform="translate(-2,-6) scale(1,1)"><path fill="none" stroke="#000000" d="M 236 16 L 315.8017578125 16 L 315.8017578125 60 L 236 60 L 236 16 Z Z" stroke-miterlimit="10"/></g><g transform="translate(-2,-6) scale(1,1)"><path fill="none" stroke="#000000" d="M 236 41 L 315.8017578125 41" stroke-miterlimit="10"/></g><g transform="translate(-2,-6) scale(1,1)"><path fill="none" stroke="#000000" d="M 236 51 L 315.8017578125 51" stroke-miterlimit="10"/></g><g transform="translate(-2,-6) scale(1,1)"><g><path fill="none" stroke="none"/><text fill="#000000" stroke="none" font-family="Arial" font-size="13px" font-style="normal" font-weight="bold" text-decoration="none" x="244.1181640625" y="35.5">CallActivity</text></g></g><g transform="translate(-2,-6) scale(1,1)"><rect fill="#C0C0C0" stroke="none" x="331" y="23" width="139.7490234375" height="44" opacity="0.2"/></g><g transform="translate(-2,-6) scale(1,1)"><rect fill="#ffffff" stroke="none" x="324" y="16" width="139.7490234375" height="44"/></g><g transform="translate(-2,-6) scale(1,1)"><path fill="none" stroke="#000000" d="M 324 16 L 463.7490234375 16 L 463.7490234375 60 L 324 60 L 324 16 Z Z" stroke-miterlimit="10"/></g><g transform="translate(-2,-6) scale(1,1)"><path fill="none" stroke="#000000" d="M 324 41 L 463.7490234375 41" stroke-miterlimit="10"/></g><g transform="translate(-2,-6) scale(1,1)"><path fill="none" stroke="#000000" d="M 324 51 L 463.7490234375 51" stroke-miterlimit="10"/></g><g transform="translate(-2,-6) scale(1,1)"><g><path fill="none" stroke="none"/><text fill="#000000" stroke="none" font-family="Arial" font-size="13px" font-style="normal" font-weight="bold" text-decoration="none" x="334.27001953125" y="35.5">ContactDetailActivity</text></g></g><g transform="translate(-2,-6) scale(1,1)"><path fill="none" stroke="#000000" d="M 114 301 L 85 351" stroke-miterlimit="10"/></g><g transform="translate(-2,-6) scale(1,1)"><path fill="none" stroke="#000000" d="M 86.45743366583437 340.0969780744193 L 85 351 L 93.74016196724475 344.32096048923734" stroke-miterlimit="10"/></g><g transform="translate(-2,-6) scale(1,1)"><path fill="none" stroke="#000000" d="M 136 301 L 156 351" stroke-miterlimit="10"/></g><g transform="translate(-2,-6) scale(1,1)"><path fill="none" stroke="#000000" d="M 148.31723819473166 343.1275689241817 L 156 351 L 156.1341164273886 340.00081763111893" stroke-miterlimit="10"/></g><g transform="translate(-2,-6) scale(1,1)"><path fill="none" stroke="#000000" d="M 151 301 L 202 351" stroke-miterlimit="10"/></g><g transform="translate(-2,-6) scale(1,1)"><path fill="none" stroke="#000000" d="M 191.79614687634069 346.89130416910814 L 202 351 L 197.6900729458855 340.87949957817244" stroke-miterlimit="10"/></g><g transform="translate(-2,-6) scale(1,1)"><path fill="none" stroke="#000000" d="M 405 351 L 407 301" stroke-miterlimit="10"/></g><g transform="translate(-2,-6) scale(1,1)"><path fill="none" stroke="#000000" d="M 410.79997199913095 311.32280062801857 L 407 301 L 402.3876636439958 310.9863082938132" stroke-miterlimit="10"/></g><g transform="translate(-2,-6) scale(1,1)"><path fill="none" stroke="#000000" d="M 407 255 L 407 221" stroke-miterlimit="10"/></g><g transform="translate(-2,-6) scale(1,1)"><path fill="none" stroke="#000000" d="M 411.209517756016 231.16267485762415 L 407 221 L 402.790482243984 231.16267485762415" stroke-miterlimit="10"/></g><g transform="translate(-2,-6) scale(1,1)"><rect fill="#C0C0C0" stroke="none" x="23" y="191" width="55.26171875" height="44" opacity="0.2"/></g><g transform="translate(-2,-6) scale(1,1)"><rect fill="#568eff" stroke="none" x="16" y="184" width="55.26171875" height="44"/></g><g transform="translate(-2,-6) scale(1,1)"><path fill="none" stroke="#000000" d="M 16 184 L 71.26171875 184 L 71.26171875 228 L 16 228 L 16 184 Z Z" stroke-miterlimit="10"/></g><g transform="translate(-2,-6) scale(1,1)"><path fill="none" stroke="#000000" d="M 16 209 L 71.26171875 209" stroke-miterlimit="10"/></g><g transform="translate(-2,-6) scale(1,1)"><path fill="none" stroke="#000000" d="M 16 219 L 71.26171875 219" stroke-miterlimit="10"/></g><g transform="translate(-2,-6) scale(1,1)"><g><path fill="none" stroke="none"/><text fill="#000000" stroke="none" font-family="Arial" font-size="13px" font-style="normal" font-weight="bold" text-decoration="none" x="21.956787109375" y="203.5">Service</text></g></g><g transform="translate(-2,-6) scale(1,1)"><path fill="none" stroke="#000000" d="M 94 149 L 64 183" stroke-miterlimit="10"/></g><g transform="translate(-2,-6) scale(1,1)"><path fill="#FFFFFF" stroke="none" d="M 71.13477962038064 162.1890673018098 L 64 183 L 83.76060268554986 173.3294994181356"/></g><g transform="translate(-2,-6) scale(1,1)"><path fill="none" stroke="#000000" d="M 71.13477962038064 162.1890673018098 L 64 183 L 83.76060268554986 173.3294994181356 L 71.13477962038064 162.1890673018098" stroke-miterlimit="10"/></g><g transform="translate(-2,-6) scale(1,1)"><rect fill="#C0C0C0" stroke="none" x="319" y="111" width="55.9599609375" height="44" opacity="0.2"/></g><g transform="translate(-2,-6) scale(1,1)"><rect fill="#568eff" stroke="none" x="312" y="104" width="55.9599609375" height="44"/></g><g transform="translate(-2,-6) scale(1,1)"><path fill="none" stroke="#000000" d="M 312 104 L 367.9599609375 104 L 367.9599609375 148 L 312 148 L 312 104 Z Z" stroke-miterlimit="10"/></g><g transform="translate(-2,-6) scale(1,1)"><path fill="none" stroke="#000000" d="M 312 129 L 367.9599609375 129" stroke-miterlimit="10"/></g><g transform="translate(-2,-6) scale(1,1)"><path fill="none" stroke="#000000" d="M 312 139 L 367.9599609375 139" stroke-miterlimit="10"/></g><g transform="translate(-2,-6) scale(1,1)"><g><path fill="none" stroke="none"/><text fill="#000000" stroke="none" font-family="Arial" font-size="13px" font-style="normal" font-weight="bold" text-decoration="none" x="319.39453125" y="123.5">Activity</text></g></g><g transform="translate(-2,-6) scale(1,1)"><path fill="none" stroke="#000000" d="M 292 61 L 322 103" stroke-miterlimit="10"/></g><g transform="translate(-2,-6) scale(1,1)"><path fill="#FFFFFF" stroke="none" d="M 303.3352794533816 91.35404761659056 L 322 103 L 317.0369814362187 81.56711762884977"/></g><g transform="translate(-2,-6) scale(1,1)"><path fill="none" stroke="#000000" d="M 303.3352794533816 91.35404761659056 L 322 103 L 317.0369814362187 81.56711762884977 L 303.3352794533816 91.35404761659056" stroke-miterlimit="10"/></g><g transform="translate(-2,-6) scale(1,1)"><path fill="none" stroke="#000000" d="M 379 61 L 353 103" stroke-miterlimit="10"/></g><g transform="translate(-2,-6) scale(1,1)"><path fill="#FFFFFF" stroke="none" d="M 356.5399291517028 81.28666535050581 L 353 103 L 370.85675408091913 90.1494617352588"/></g><g transform="translate(-2,-6) scale(1,1)"><path fill="none" stroke="#000000" d="M 356.5399291517028 81.28666535050581 L 353 103 L 370.85675408091913 90.1494617352588 L 356.5399291517028 81.28666535050581" stroke-miterlimit="10"/></g><g transform="translate(-2,-6) scale(1,1)"><rect fill="#C0C0C0" stroke="none" x="711" y="23" width="50.919921875" height="44" opacity="0.2"/></g><g transform="translate(-2,-6) scale(1,1)"><rect fill="#568eff" stroke="none" x="704" y="16" width="50.919921875" height="44"/></g><g transform="translate(-2,-6) scale(1,1)"><path fill="none" stroke="#000000" d="M 704 16 L 754.919921875 16 L 754.919921875 60 L 704 60 L 704 16 Z Z" stroke-miterlimit="10"/></g><g transform="translate(-2,-6) scale(1,1)"><path fill="none" stroke="#000000" d="M 704 41 L 754.919921875 41" stroke-miterlimit="10"/></g><g transform="translate(-2,-6) scale(1,1)"><path fill="none" stroke="#000000" d="M 704 51 L 754.919921875 51" stroke-miterlimit="10"/></g><g transform="translate(-2,-6) scale(1,1)"><g><path fill="none" stroke="none"/><text fill="#000000" stroke="none" font-family="Arial" font-size="13px" font-style="normal" font-weight="bold" text-decoration="none" x="718.259521484375" y="35.5">Bus</text></g></g><g transform="translate(-2,-6) scale(1,1)"><path fill="none" stroke="#000000" d="M 650 38 L 703 38" stroke-miterlimit="10"/></g><g transform="translate(-2,-6) scale(1,1)"><path fill="none" stroke="#000000" d="M 692.8373251423759 42.20951775601599 L 703 38 L 692.8373251423758 33.790482243984016" stroke-miterlimit="10"/></g><g transform="translate(-2,-6) scale(1,1)"><rect fill="#C0C0C0" stroke="none" x="551" y="183" width="127.47265625" height="44" opacity="0.2"/></g><g transform="translate(-2,-6) scale(1,1)"><rect fill="#568eff" stroke="none" x="544" y="176" width="127.47265625" height="44"/></g><g transform="translate(-2,-6) scale(1,1)"><path fill="none" stroke="#000000" d="M 544 176 L 671.47265625 176 L 671.47265625 220 L 544 220 L 544 176 Z Z" stroke-miterlimit="10"/></g><g transform="translate(-2,-6) scale(1,1)"><path fill="none" stroke="#000000" d="M 544 201 L 671.47265625 201" stroke-miterlimit="10"/></g><g transform="translate(-2,-6) scale(1,1)"><path fill="none" stroke="#000000" d="M 544 211 L 671.47265625 211" stroke-miterlimit="10"/></g><g transform="translate(-2,-6) scale(1,1)"><g><path fill="none" stroke="none"/><text fill="#000000" stroke="none" font-family="Arial" font-size="13px" font-style="normal" font-weight="bold" text-decoration="none" x="551.7373046875" y="195.5">WebSocketHandler</text></g></g><g transform="translate(-2,-6) scale(1,1)"><path fill="none" stroke="#000000" d="M 484 198 L 543 198" stroke-miterlimit="10"/></g><g transform="translate(-2,-6) scale(1,1)"><path fill="#FFFFFF" stroke="none" d="M 522.6746502847517 206.41903551203197 L 543 198 L 522.6746502847517 189.58096448796803"/></g><g transform="translate(-2,-6) scale(1,1)"><path fill="none" stroke="#000000" d="M 522.6746502847517 206.41903551203197 L 543 198 L 522.6746502847517 189.58096448796803 L 522.6746502847517 206.41903551203197" stroke-miterlimit="10"/></g></g></svg>