<svg version="1.1" xmlns="http://www.w3.org/2000/svg" xmlns:xlink="http://www.w3.org/1999/xlink" width="1019" height="700"><defs/><g><g transform="translate(-31,-30) scale(1,1)"><rect fill="#C0C0C0" stroke="none" x="48" y="47" width="399.6" height="15" opacity="0.2"/></g><g transform="translate(-31,-30) scale(1,1)"><rect fill="#C0C0C0" stroke="none" x="48" y="61" width="999" height="666" opacity="0.2"/></g><g transform="translate(-31,-30) scale(1,1)"><rect fill="#ffffff" stroke="none" x="41" y="55" width="999" height="665"/></g><g transform="translate(-31,-30) scale(1,1)"><path fill="none" stroke="#000000" d="M 41 55 L 1040 55 L 1040 720 L 41 720 L 41 55 Z Z" stroke-miterlimit="10"/></g><g transform="translate(-31,-30) scale(1,1)"><rect fill="#ffffff" stroke="none" x="41" y="40" width="399.6" height="15"/></g><g transform="translate(-31,-30) scale(1,1)"><path fill="none" stroke="#000000" d="M 41 40 L 440.6 40 L 440.6 55 L 41 55 L 41 40 Z Z" stroke-miterlimit="10"/></g><g transform="translate(-31,-30) scale(1,1)"><rect fill="#ffffff" stroke="none" x="41" y="54" width="999" height="666"/></g><g transform="translate(-31,-30) scale(1,1)"><path fill="none" stroke="#000000" d="M 41 54 L 1040 54 L 1040 720 L 41 720 L 41 54 Z Z" stroke-miterlimit="10"/></g><g transform="translate(-31,-30) scale(1,1)"><g><path fill="none" stroke="none"/><text fill="#000000" stroke="none" font-family="Arial" font-size="13px" font-style="normal" font-weight="bold" text-decoration="none" x="509.44091796875" y="74.5">server-rest</text></g></g><g transform="translate(-31,-30) scale(1,1)"><rect fill="#C0C0C0" stroke="none" x="511" y="165" width="70.39999999999998" height="15" opacity="0.2"/></g><g transform="translate(-31,-30) scale(1,1)"><rect fill="#C0C0C0" stroke="none" x="511" y="179" width="176" height="132" opacity="0.2"/></g><g transform="translate(-31,-30) scale(1,1)"><rect fill="#ffffff" stroke="none" x="504" y="173" width="176" height="131"/></g><g transform="translate(-31,-30) scale(1,1)"><path fill="none" stroke="#000000" d="M 504 173 L 680 173 L 680 304 L 504 304 L 504 173 Z Z" stroke-miterlimit="10"/></g><g transform="translate(-31,-30) scale(1,1)"><rect fill="#ffffff" stroke="none" x="504" y="158" width="70.39999999999998" height="15"/></g><g transform="translate(-31,-30) scale(1,1)"><path fill="none" stroke="#000000" d="M 504 158 L 574.4 158 L 574.4 173 L 504 173 L 504 158 Z Z" stroke-miterlimit="10"/></g><g transform="translate(-31,-30) scale(1,1)"><rect fill="#ffffff" stroke="none" x="504" y="172" width="176" height="132"/></g><g transform="translate(-31,-30) scale(1,1)"><path fill="none" stroke="#000000" d="M 504 172 L 680 172 L 680 304 L 504 304 L 504 172 Z Z" stroke-miterlimit="10"/></g><g transform="translate(-31,-30) scale(1,1)"><g><path fill="none" stroke="none"/><text fill="#000000" stroke="none" font-family="Arial" font-size="13px" font-style="normal" font-weight="bold" text-decoration="none" x="571.411376953125" y="192.5">service</text></g></g><g transform="translate(-31,-30) scale(1,1)"><g><path fill="none" stroke="none"/><text fill="#000000" stroke="none" font-family="Arial" font-size="13px" font-style="normal" font-weight="normal" text-decoration="none" x="541.805908203125" y="207.5">(from server-rest)</text></g></g><g transform="translate(-31,-30) scale(1,1)"><rect fill="#C0C0C0" stroke="none" x="85" y="104" width="132" height="15" opacity="0.2"/></g><g transform="translate(-31,-30) scale(1,1)"><rect fill="#C0C0C0" stroke="none" x="85" y="118" width="330" height="233" opacity="0.2"/></g><g transform="translate(-31,-30) scale(1,1)"><rect fill="#ffffff" stroke="none" x="78" y="112" width="330" height="232"/></g><g transform="translate(-31,-30) scale(1,1)"><path fill="none" stroke="#000000" d="M 78 112 L 408 112 L 408 344 L 78 344 L 78 112 Z Z" stroke-miterlimit="10"/></g><g transform="translate(-31,-30) scale(1,1)"><rect fill="#ffffff" stroke="none" x="78" y="97" width="132" height="15"/></g><g transform="translate(-31,-30) scale(1,1)"><path fill="none" stroke="#000000" d="M 78 97 L 210 97 L 210 112 L 78 112 L 78 97 Z Z" stroke-miterlimit="10"/></g><g transform="translate(-31,-30) scale(1,1)"><rect fill="#ffffff" stroke="none" x="78" y="111" width="330" height="233"/></g><g transform="translate(-31,-30) scale(1,1)"><path fill="none" stroke="#000000" d="M 78 111 L 408 111 L 408 344 L 78 344 L 78 111 Z Z" stroke-miterlimit="10"/></g><g transform="translate(-31,-30) scale(1,1)"><g><path fill="none" stroke="none"/><text fill="#000000" stroke="none" font-family="Arial" font-size="13px" font-style="normal" font-weight="bold" text-decoration="none" x="216.266845703125" y="131.5">controller</text></g></g><g transform="translate(-31,-30) scale(1,1)"><rect fill="#C0C0C0" stroke="none" x="135" y="191" width="178.076171875" height="72" opacity="0.2"/></g><g transform="translate(-31,-30) scale(1,1)"><rect fill="#ffffff" stroke="none" x="128" y="184" width="178.076171875" height="72"/></g><g transform="translate(-31,-30) scale(1,1)"><path fill="none" stroke="#000000" d="M 128 184 L 306.076171875 184 L 306.076171875 256 L 128 256 L 128 184 Z Z" stroke-miterlimit="10"/></g><g transform="translate(-31,-30) scale(1,1)"><path fill="none" stroke="#000000" d="M 128 224 L 306.076171875 224" stroke-miterlimit="10"/></g><g transform="translate(-31,-30) scale(1,1)"><path fill="none" stroke="#000000" d="M 128 234 L 306.076171875 234" stroke-miterlimit="10"/></g><g transform="translate(-31,-30) scale(1,1)"><g><path fill="none" stroke="none"/><text fill="#000000" stroke="none" font-family="Arial" font-size="13px" font-style="normal" font-weight="bold" text-decoration="none" x="163.2099609375" y="203.5">ProspectController</text></g></g><g transform="translate(-31,-30) scale(1,1)"><g><path fill="none" stroke="none"/><text fill="#000000" stroke="none" font-family="Arial" font-size="13px" font-style="normal" font-weight="normal" text-decoration="none" x="171.169921875" y="218.5">(from controller)</text></g></g><g transform="translate(-31,-30) scale(1,1)"><g><path fill="none" stroke="none"/><text fill="#000000" stroke="none" font-family="Arial" font-size="13px" font-style="normal" font-weight="normal" text-decoration="none" x="133" y="251.5">-getProspectByCommand()</text></g></g><g transform="translate(-31,-30) scale(1,1)"><rect fill="#C0C0C0" stroke="none" x="446" y="96" width="131.08447265625" height="44" opacity="0.2"/></g><g transform="translate(-31,-30) scale(1,1)"><rect fill="#ffffff" stroke="none" x="439" y="89" width="131.08447265625" height="44"/></g><g transform="translate(-31,-30) scale(1,1)"><path fill="none" stroke="#000000" d="M 439 89 L 570.08447265625 89 L 570.08447265625 133 L 439 133 L 439 89 Z Z" stroke-miterlimit="10"/></g><g transform="translate(-31,-30) scale(1,1)"><path fill="none" stroke="#000000" d="M 439 114 L 570.08447265625 114" stroke-miterlimit="10"/></g><g transform="translate(-31,-30) scale(1,1)"><path fill="none" stroke="#000000" d="M 439 124 L 570.08447265625 124" stroke-miterlimit="10"/></g><g transform="translate(-31,-30) scale(1,1)"><g><path fill="none" stroke="none"/><text fill="#000000" stroke="none" font-family="Arial" font-size="13px" font-style="normal" font-weight="bold" text-decoration="none" x="448.905029296875" y="108.5">java.util.Collections</text></g></g><g transform="translate(-31,-30) scale(1,1)"><path fill="none" stroke="#000000" d="M 307 186 L 443 134" stroke-miterlimit="10" stroke-dasharray="3"/></g><g transform="translate(-31,-30) scale(1,1)"><path fill="none" stroke="#000000" d="M 435.0109114078289 141.56137973298803 L 443 134 L 432.0041583966534 133.69756416529813" stroke-miterlimit="10"/></g><g transform="translate(-31,-30) scale(1,1)"><rect fill="#C0C0C0" stroke="none" x="87" y="391" width="153.6" height="15" opacity="0.2"/></g><g transform="translate(-31,-30) scale(1,1)"><rect fill="#C0C0C0" stroke="none" x="87" y="405" width="384" height="218" opacity="0.2"/></g><g transform="translate(-31,-30) scale(1,1)"><rect fill="#ffffff" stroke="none" x="80" y="399" width="384" height="217"/></g><g transform="translate(-31,-30) scale(1,1)"><path fill="none" stroke="#000000" d="M 80 399 L 464 399 L 464 616 L 80 616 L 80 399 Z Z" stroke-miterlimit="10"/></g><g transform="translate(-31,-30) scale(1,1)"><rect fill="#ffffff" stroke="none" x="80" y="384" width="153.6" height="15"/></g><g transform="translate(-31,-30) scale(1,1)"><path fill="none" stroke="#000000" d="M 80 384 L 233.6 384 L 233.6 399 L 80 399 L 80 384 Z Z" stroke-miterlimit="10"/></g><g transform="translate(-31,-30) scale(1,1)"><rect fill="#ffffff" stroke="none" x="80" y="398" width="384" height="218"/></g><g transform="translate(-31,-30) scale(1,1)"><path fill="none" stroke="#000000" d="M 80 398 L 464 398 L 464 616 L 80 616 L 80 398 Z Z" stroke-miterlimit="10"/></g><g transform="translate(-31,-30) scale(1,1)"><g><path fill="none" stroke="none"/><text fill="#000000" stroke="none" font-family="Arial" font-size="13px" font-style="normal" font-weight="bold" text-decoration="none" x="261.155029296875" y="418.5">dao</text></g></g><g transform="translate(-31,-30) scale(1,1)"><g><path fill="none" stroke="none"/><text fill="#000000" stroke="none" font-family="Arial" font-size="13px" font-style="normal" font-weight="normal" text-decoration="none" x="221.805908203125" y="433.5">(from server-rest)</text></g></g><g transform="translate(-31,-30) scale(1,1)"><rect fill="#C0C0C0" stroke="none" x="551" y="229" width="109.38818359375" height="59" opacity="0.2"/></g><g transform="translate(-31,-30) scale(1,1)"><rect fill="#ffffff" stroke="none" x="544" y="222" width="109.38818359375" height="59"/></g><g transform="translate(-31,-30) scale(1,1)"><path fill="none" stroke="#000000" d="M 544 222 L 653.38818359375 222 L 653.38818359375 281 L 544 281 L 544 222 Z Z" stroke-miterlimit="10"/></g><g transform="translate(-31,-30) scale(1,1)"><path fill="none" stroke="#000000" d="M 544 262 L 653.38818359375 262" stroke-miterlimit="10"/></g><g transform="translate(-31,-30) scale(1,1)"><path fill="none" stroke="#000000" d="M 544 272 L 653.38818359375 272" stroke-miterlimit="10"/></g><g transform="translate(-31,-30) scale(1,1)"><g><path fill="none" stroke="none"/><text fill="#000000" stroke="none" font-family="Arial" font-size="13px" font-style="normal" font-weight="bold" text-decoration="none" x="557.1455078125" y="241.5">MongoService</text></g></g><g transform="translate(-31,-30) scale(1,1)"><g><path fill="none" stroke="none"/><text fill="#000000" stroke="none" font-family="Arial" font-size="13px" font-style="normal" font-weight="normal" text-decoration="none" x="548.5" y="256.5">(from server-rest)</text></g></g><g transform="translate(-31,-30) scale(1,1)"><path fill="#C0C0C0" stroke="none" d="M 485.8681640625 226.5 C 485.8681640625 220.1487248 491.0168888625 215 497.3681640625 215 C 503.7194392625 215 508.8681640625 220.1487248 508.8681640625 226.5 C 508.8681640625 232.8512752 503.7194392625 238 497.3681640625 238 C 491.0168888625 238 485.8681640625 232.8512752 485.8681640625 226.5 Z" opacity="0.2"/></g><g transform="translate(-31,-30) scale(1,1)"><path fill="none" stroke="#000000" d="M 493.44241085717925 229.97268460725883 A 11.5 11.5 0 0 1 486.55758914282075 208.02731539274117" stroke-miterlimit="10"/></g><g transform="translate(-31,-30) scale(1,1)"><path fill="#ffffff" stroke="none" d="M 481.8681640625 219.5 C 481.8681640625 214.8055792 485.6737432625 211 490.3681640625 211 C 495.0625848625 211 498.8681640625 214.8055792 498.8681640625 219.5 C 498.8681640625 224.1944208 495.0625848625 228 490.3681640625 228 C 485.6737432625 228 481.8681640625 224.1944208 481.8681640625 219.5 Z"/></g><g transform="translate(-31,-30) scale(1,1)"><path fill="none" stroke="#000000" d="M 481.8681640625 219.5 C 481.8681640625 214.8055792 485.6737432625 211 490.3681640625 211 C 495.0625848625 211 498.8681640625 214.8055792 498.8681640625 219.5 C 498.8681640625 224.1944208 495.0625848625 228 490.3681640625 228 C 485.6737432625 228 481.8681640625 224.1944208 481.8681640625 219.5 Z" stroke-miterlimit="10"/></g><g transform="translate(-31,-30) scale(1,1)"><g><path fill="none" stroke="none"/><text fill="#000000" stroke="none" font-family="Arial" font-size="13px" font-style="normal" font-weight="bold" text-decoration="none" x="448.095947265625" y="250.5">MorphiaConfig</text></g></g><g transform="translate(-31,-30) scale(1,1)"><g><path fill="none" stroke="none"/><text fill="#000000" stroke="none" font-family="Arial" font-size="13px" font-style="normal" font-weight="normal" text-decoration="none" x="444.5" y="265.5">(from controller)</text></g></g><g transform="translate(-31,-30) scale(1,1)"><path fill="none" stroke="#000000" d="M 543 245 L 501.8681640625 224.93408203125" stroke-miterlimit="10"/></g><g transform="translate(-31,-30) scale(1,1)"><path fill="none" stroke="#000000" d="M 307 226 L 478.8681640625 222.4923406862745" stroke-miterlimit="10"/></g><g transform="translate(-31,-30) scale(1,1)"><rect fill="#C0C0C0" stroke="none" x="535" y="327" width="150.39999999999998" height="15" opacity="0.2"/></g><g transform="translate(-31,-30) scale(1,1)"><rect fill="#C0C0C0" stroke="none" x="535" y="341" width="376" height="346" opacity="0.2"/></g><g transform="translate(-31,-30) scale(1,1)"><rect fill="#ffffff" stroke="none" x="528" y="335" width="376" height="345"/></g><g transform="translate(-31,-30) scale(1,1)"><path fill="none" stroke="#000000" d="M 528 335 L 904 335 L 904 680 L 528 680 L 528 335 Z Z" stroke-miterlimit="10"/></g><g transform="translate(-31,-30) scale(1,1)"><rect fill="#ffffff" stroke="none" x="528" y="320" width="150.39999999999998" height="15"/></g><g transform="translate(-31,-30) scale(1,1)"><path fill="none" stroke="#000000" d="M 528 320 L 678.4 320 L 678.4 335 L 528 335 L 528 320 Z Z" stroke-miterlimit="10"/></g><g transform="translate(-31,-30) scale(1,1)"><rect fill="#ffffff" stroke="none" x="528" y="334" width="376" height="346"/></g><g transform="translate(-31,-30) scale(1,1)"><path fill="none" stroke="#000000" d="M 528 334 L 904 334 L 904 680 L 528 680 L 528 334 Z Z" stroke-miterlimit="10"/></g><g transform="translate(-31,-30) scale(1,1)"><path fill="none" stroke="#000000" d="M 669.4 323 L 663.4 330 L 675.4 330 L 669.4 323" stroke-miterlimit="10"/></g><g transform="translate(-31,-30) scale(1,1)"><g><path fill="none" stroke="none"/><text fill="#000000" stroke="none" font-family="Arial" font-size="13px" font-style="normal" font-weight="bold" text-decoration="none" x="698.29638671875" y="354.5">model</text></g></g><g transform="translate(-31,-30) scale(1,1)"><g><path fill="none" stroke="none"/><text fill="#000000" stroke="none" font-family="Arial" font-size="13px" font-style="normal" font-weight="normal" text-decoration="none" x="665.805908203125" y="369.5">(from server-rest)</text></g></g><g transform="translate(-31,-30) scale(1,1)"><rect fill="#C0C0C0" stroke="none" x="582" y="389" width="125.3271484375" height="207" opacity="0.2"/></g><g transform="translate(-31,-30) scale(1,1)"><rect fill="#ffffff" stroke="none" x="575" y="382" width="125.3271484375" height="207"/></g><g transform="translate(-31,-30) scale(1,1)"><path fill="none" stroke="#000000" d="M 575 382 L 700.3271484375 382 L 700.3271484375 589 L 575 589 L 575 382 Z Z" stroke-miterlimit="10"/></g><g transform="translate(-31,-30) scale(1,1)"><path fill="none" stroke="#000000" d="M 575 422 L 700.3271484375 422" stroke-miterlimit="10"/></g><g transform="translate(-31,-30) scale(1,1)"><path fill="none" stroke="#000000" d="M 575 580 L 700.3271484375 580" stroke-miterlimit="10"/></g><g transform="translate(-31,-30) scale(1,1)"><g><path fill="none" stroke="none"/><text fill="#000000" stroke="none" font-family="Arial" font-size="13px" font-style="normal" font-weight="bold" text-decoration="none" x="612.733154296875" y="401.5">prospect</text></g></g><g transform="translate(-31,-30) scale(1,1)"><g><path fill="none" stroke="none"/><text fill="#000000" stroke="none" font-family="Arial" font-size="13px" font-style="normal" font-weight="normal" text-decoration="none" x="600.824951171875" y="416.5">(from model)</text></g></g><g transform="translate(-31,-30) scale(1,1)"><g><path fill="none" stroke="none"/><text fill="#000000" stroke="none" font-family="Arial" font-size="13px" font-style="normal" font-weight="normal" text-decoration="none" x="580" y="439.5">-id: int</text></g></g><g transform="translate(-31,-30) scale(1,1)"><g><path fill="none" stroke="none"/><text fill="#000000" stroke="none" font-family="Arial" font-size="13px" font-style="normal" font-weight="normal" text-decoration="none" x="580" y="454.5">-name: String</text></g></g><g transform="translate(-31,-30) scale(1,1)"><g><path fill="none" stroke="none"/><text fill="#000000" stroke="none" font-family="Arial" font-size="13px" font-style="normal" font-weight="normal" text-decoration="none" x="580" y="469.5">-finessNumber: long</text></g></g><g transform="translate(-31,-30) scale(1,1)"><g><path fill="none" stroke="none"/><text fill="#000000" stroke="none" font-family="Arial" font-size="13px" font-style="normal" font-weight="normal" text-decoration="none" x="580" y="484.5">-siretNumber: long</text></g></g><g transform="translate(-31,-30) scale(1,1)"><g><path fill="none" stroke="none"/><text fill="#000000" stroke="none" font-family="Arial" font-size="13px" font-style="normal" font-weight="normal" text-decoration="none" x="580" y="499.5">-streetNumber: int</text></g></g><g transform="translate(-31,-30) scale(1,1)"><g><path fill="none" stroke="none"/><text fill="#000000" stroke="none" font-family="Arial" font-size="13px" font-style="normal" font-weight="normal" text-decoration="none" x="580" y="514.5">-streetName: String</text></g></g><g transform="translate(-31,-30) scale(1,1)"><g><path fill="none" stroke="none"/><text fill="#000000" stroke="none" font-family="Arial" font-size="13px" font-style="normal" font-weight="normal" text-decoration="none" x="580" y="529.5">-zipCode: int</text></g></g><g transform="translate(-31,-30) scale(1,1)"><g><path fill="none" stroke="none"/><text fill="#000000" stroke="none" font-family="Arial" font-size="13px" font-style="normal" font-weight="normal" text-decoration="none" x="580" y="544.5">-city: String</text></g></g><g transform="translate(-31,-30) scale(1,1)"><g><path fill="none" stroke="none"/><text fill="#000000" stroke="none" font-family="Arial" font-size="13px" font-style="normal" font-weight="normal" text-decoration="none" x="580" y="559.5">-bedNumber: int</text></g></g><g transform="translate(-31,-30) scale(1,1)"><g><path fill="none" stroke="none"/><text fill="#000000" stroke="none" font-family="Arial" font-size="13px" font-style="normal" font-weight="normal" text-decoration="none" x="580" y="574.5">-website: String</text></g></g><g transform="translate(-31,-30) scale(1,1)"><path fill="none" stroke="#000000" d="M 276 257 L 574 445" stroke-miterlimit="10"/></g><g transform="translate(-31,-30) scale(1,1)"><path fill="#C0C0C0" stroke="none" d="M 177.194091796875 431.5 C 177.194091796875 425.1487248 182.342816596875 420 188.694091796875 420 C 195.045366996875 420 200.194091796875 425.1487248 200.194091796875 431.5 C 200.194091796875 437.8512752 195.045366996875 443 188.694091796875 443 C 182.342816596875 443 177.194091796875 437.8512752 177.194091796875 431.5 Z" opacity="0.2"/></g><g transform="translate(-31,-30) scale(1,1)"><path fill="none" stroke="#000000" d="M 170.0901420724191 420.36338069080637 A 11.5 11.5 0 0 1 191.9098579275809 427.63661930919363" stroke-miterlimit="10"/></g><g transform="translate(-31,-30) scale(1,1)"><path fill="#ffffff" stroke="none" d="M 173.194091796875 424.5 C 173.194091796875 419.8055792 176.999670996875 416 181.694091796875 416 C 186.388512596875 416 190.194091796875 419.8055792 190.194091796875 424.5 C 190.194091796875 429.1944208 186.388512596875 433 181.694091796875 433 C 176.999670996875 433 173.194091796875 429.1944208 173.194091796875 424.5 Z"/></g><g transform="translate(-31,-30) scale(1,1)"><path fill="none" stroke="#000000" d="M 173.194091796875 424.5 C 173.194091796875 419.8055792 176.999670996875 416 181.694091796875 416 C 186.388512596875 416 190.194091796875 419.8055792 190.194091796875 424.5 C 190.194091796875 429.1944208 186.388512596875 433 181.694091796875 433 C 176.999670996875 433 173.194091796875 429.1944208 173.194091796875 424.5 Z" stroke-miterlimit="10"/></g><g transform="translate(-31,-30) scale(1,1)"><g><path fill="none" stroke="none"/><text fill="#000000" stroke="none" font-family="Arial" font-size="13px" font-style="normal" font-weight="bold" text-decoration="none" x="134.010498046875" y="455.5">CommnandDAO</text></g></g><g transform="translate(-31,-30) scale(1,1)"><path fill="none" stroke="#000000" d="M 211 257 L 184.66666666666666 413" stroke-miterlimit="10"/></g><g transform="translate(-31,-30) scale(1,1)"><rect fill="#C0C0C0" stroke="none" x="127" y="487" width="212.37255859375" height="57" opacity="0.2"/></g><g transform="translate(-31,-30) scale(1,1)"><rect fill="#ffffff" stroke="none" x="120" y="480" width="212.37255859375" height="57"/></g><g transform="translate(-31,-30) scale(1,1)"><path fill="none" stroke="#000000" d="M 120 480 L 332.37255859375 480 L 332.37255859375 537 L 120 537 L 120 480 Z Z" stroke-miterlimit="10"/></g><g transform="translate(-31,-30) scale(1,1)"><path fill="none" stroke="#000000" d="M 120 505 L 332.37255859375 505" stroke-miterlimit="10"/></g><g transform="translate(-31,-30) scale(1,1)"><path fill="none" stroke="#000000" d="M 120 515 L 332.37255859375 515" stroke-miterlimit="10"/></g><g transform="translate(-31,-30) scale(1,1)"><g><path fill="none" stroke="none"/><text fill="#000000" stroke="none" font-family="Arial" font-size="13px" font-style="normal" font-weight="bold" text-decoration="none" x="169.838134765625" y="499.5">CommandDAOImpl</text></g></g><g transform="translate(-31,-30) scale(1,1)"><g><path fill="none" stroke="none"/><text fill="#000000" stroke="none" font-family="Arial" font-size="13px" font-style="normal" font-weight="normal" text-decoration="none" x="125" y="532.5">+checkExistCommandOfProspect()</text></g></g><g transform="translate(-31,-30) scale(1,1)"><path fill="none" stroke="#000000" d="M 208 479 L 186.05263157894737 436" stroke-miterlimit="10"/></g><g transform="translate(-31,-30) scale(1,1)"><rect fill="#C0C0C0" stroke="none" x="214" y="651" width="156.32275390625" height="59" opacity="0.2"/></g><g transform="translate(-31,-30) scale(1,1)"><rect fill="#ffffff" stroke="none" x="207" y="644" width="156.32275390625" height="59"/></g><g transform="translate(-31,-30) scale(1,1)"><path fill="none" stroke="#000000" d="M 207 644 L 363.32275390625 644 L 363.32275390625 703 L 207 703 L 207 644 Z Z" stroke-miterlimit="10"/></g><g transform="translate(-31,-30) scale(1,1)"><path fill="none" stroke="#000000" d="M 207 684 L 363.32275390625 684" stroke-miterlimit="10"/></g><g transform="translate(-31,-30) scale(1,1)"><path fill="none" stroke="#000000" d="M 207 694 L 363.32275390625 694" stroke-miterlimit="10"/></g><g transform="translate(-31,-30) scale(1,1)"><g><path fill="none" stroke="none"/><text fill="#000000" stroke="none" font-family="Arial" font-size="13px" font-style="normal" font-weight="bold" text-decoration="none" x="217.23193359375" y="663.5">org.mongodb.morphia.*</text></g></g><g transform="translate(-31,-30) scale(1,1)"><g><path fill="none" stroke="none"/><text fill="#000000" stroke="none" font-family="Arial" font-size="13px" font-style="normal" font-weight="normal" text-decoration="none" x="234.96728515625" y="678.5">(from server-rest)</text></g></g><g transform="translate(-31,-30) scale(1,1)"><path fill="none" stroke="#000000" d="M 237 538 L 274 643" stroke-miterlimit="10" stroke-dasharray="3"/></g><g transform="translate(-31,-30) scale(1,1)"><path fill="none" stroke="#000000" d="M 266.6522005934024 634.814045939513 L 274 643 L 274.5926648394483 632.0159775861445" stroke-miterlimit="10"/></g><g transform="translate(-31,-30) scale(1,1)"><rect fill="#C0C0C0" stroke="none" x="762" y="486" width="95.70263671875" height="102" opacity="0.2"/></g><g transform="translate(-31,-30) scale(1,1)"><rect fill="#ffffff" stroke="none" x="755" y="479" width="95.70263671875" height="102"/></g><g transform="translate(-31,-30) scale(1,1)"><path fill="none" stroke="#000000" d="M 755 479 L 850.70263671875 479 L 850.70263671875 581 L 755 581 L 755 479 Z Z" stroke-miterlimit="10"/></g><g transform="translate(-31,-30) scale(1,1)"><path fill="none" stroke="#000000" d="M 755 504 L 850.70263671875 504" stroke-miterlimit="10"/></g><g transform="translate(-31,-30) scale(1,1)"><path fill="none" stroke="#000000" d="M 755 572 L 850.70263671875 572" stroke-miterlimit="10"/></g><g transform="translate(-31,-30) scale(1,1)"><g><path fill="none" stroke="none"/><text fill="#000000" stroke="none" font-family="Arial" font-size="13px" font-style="normal" font-weight="bold" text-decoration="none" x="772.8681640625" y="498.5">Command</text></g></g><g transform="translate(-31,-30) scale(1,1)"><g><path fill="none" stroke="none"/><text fill="#000000" stroke="none" font-family="Arial" font-size="13px" font-style="normal" font-weight="normal" text-decoration="none" x="760" y="521.5">-id: int</text></g></g><g transform="translate(-31,-30) scale(1,1)"><g><path fill="none" stroke="none"/><text fill="#000000" stroke="none" font-family="Arial" font-size="13px" font-style="normal" font-weight="normal" text-decoration="none" x="760" y="536.5">-idProspect: int</text></g></g><g transform="translate(-31,-30) scale(1,1)"><g><path fill="none" stroke="none"/><text fill="#000000" stroke="none" font-family="Arial" font-size="13px" font-style="normal" font-weight="normal" text-decoration="none" x="760" y="551.5">-person: String</text></g></g><g transform="translate(-31,-30) scale(1,1)"><g><path fill="none" stroke="none"/><text fill="#000000" stroke="none" font-family="Arial" font-size="13px" font-style="normal" font-weight="normal" text-decoration="none" x="760" y="566.5">-value: long</text></g></g><g transform="translate(-31,-30) scale(1,1)"><path fill="none" stroke="#000000" d="M 754 517 L 701 503" stroke-miterlimit="10"/></g><g transform="translate(-31,-30) scale(1,1)"><path fill="#000000" stroke="none" d="M 711.900731893066 501.52553596330904 L 701 503 L 709.7505849604432 509.66537792252353 L 722.2704320877128 508.6186047024147"/></g><g transform="translate(-31,-30) scale(1,1)"><path fill="none" stroke="#000000" d="M 711.900731893066 501.52553596330904 L 701 503 L 709.7505849604432 509.66537792252353 L 722.2704320877128 508.6186047024147 L 711.900731893066 501.52553596330904" stroke-miterlimit="10"/></g><g transform="translate(-31,-30) scale(1,1)"><path fill="none" stroke="#000000" d="M 304 537 L 304 624 L 792 624 L 792 581" stroke-miterlimit="10"/></g><g transform="translate(-31,-30) scale(1,1)"><path fill="none" stroke="#000000" d="M 796.209517756016 591.1626748576241 L 792 581 L 787.790482243984 591.1626748576241" stroke-miterlimit="10"/></g></g></svg>