<svg version="1.1" xmlns="http://www.w3.org/2000/svg" xmlns:xlink="http://www.w3.org/1999/xlink" width="700" height="628"><defs/><g><g transform="translate(2,-6) scale(1,1)"><path fill="none" stroke="#000000" d="M 8 16 L 688 16 L 688 624 L 8 624 L 8 16" stroke-miterlimit="10"/></g><g transform="translate(2,-6) scale(1,1)"><path fill="#ffffff" stroke="none" d="M 8 16 L 8 38 L 431.83056640625 38 L 442.83056640625 27 L 442.83056640625 16 L 8 16"/></g><g transform="translate(2,-6) scale(1,1)"><path fill="none" stroke="#000000" d="M 8 16 L 8 38 L 431.83056640625 38 L 442.83056640625 27 L 442.83056640625 16 L 8 16 L 8 16" stroke-miterlimit="10"/></g><g transform="translate(2,-6) scale(1,1)"><g><path fill="none" stroke="none"/><text fill="#000000" stroke="none" font-family="Arial" font-size="13px" font-style="normal" font-weight="normal" text-decoration="none" x="78.97900390625" y="33.5">The system analyzes prospects by their person's commands</text></g></g><g transform="translate(2,-6) scale(1,1)"><g><path fill="none" stroke="none"/><text fill="#000000" stroke="none" font-family="Arial" font-size="13px" font-style="normal" font-weight="bold" text-decoration="none" x="13" y="33.5">interaction</text></g></g><g transform="translate(2,-6) scale(1,1)"><rect fill="#C0C0C0" stroke="none" x="71" y="47" width="136.74267578125" height="39" opacity="0.2"/></g><g transform="translate(2,-6) scale(1,1)"><rect fill="#ffffff" stroke="none" x="64" y="40" width="136.74267578125" height="39"/></g><g transform="translate(2,-6) scale(1,1)"><path fill="none" stroke="#000000" d="M 64 40 L 200.74267578125 40 L 200.74267578125 79 L 64 79 L 64 40 Z Z" stroke-miterlimit="10"/></g><g transform="translate(2,-6) scale(1,1)"><g><path fill="none" stroke="none"/><text fill="#000000" stroke="none" font-family="Arial" font-size="13px" font-style="normal" font-weight="normal" text-decoration="none" x="98.408203125" y="57.5">«controller»</text></g></g><g transform="translate(2,-6) scale(1,1)"><g><path fill="none" stroke="none"/><text fill="#000000" stroke="none" font-family="Arial" font-size="13px" font-style="normal" font-weight="bold" text-decoration="none" x="78.543212890625" y="72.5">ProspectController</text></g></g><g transform="translate(2,-6) scale(1,1)"><path fill="none" stroke="#000000" d="M 133.5 80 L 133.5 424" stroke-miterlimit="10" stroke-dasharray="3"/></g><g transform="translate(2,-6) scale(1,1)"><rect fill="#C0C0C0" stroke="none" x="375" y="47" width="138.1708984375" height="39" opacity="0.2"/></g><g transform="translate(2,-6) scale(1,1)"><rect fill="#ffffff" stroke="none" x="368" y="40" width="138.1708984375" height="39"/></g><g transform="translate(2,-6) scale(1,1)"><path fill="none" stroke="#000000" d="M 368 40 L 506.1708984375 40 L 506.1708984375 79 L 368 79 L 368 40 Z Z" stroke-miterlimit="10"/></g><g transform="translate(2,-6) scale(1,1)"><g><path fill="none" stroke="none"/><text fill="#000000" stroke="none" font-family="Arial" font-size="13px" font-style="normal" font-weight="normal" text-decoration="none" x="419.010498046875" y="57.5">«dao»</text></g></g><g transform="translate(2,-6) scale(1,1)"><g><path fill="none" stroke="none"/><text fill="#000000" stroke="none" font-family="Arial" font-size="13px" font-style="normal" font-weight="bold" text-decoration="none" x="380.7373046875" y="72.5">CommandDAOImpl</text></g></g><g transform="translate(2,-6) scale(1,1)"><path fill="none" stroke="#000000" d="M 438.5 80 L 438.5 432" stroke-miterlimit="10" stroke-dasharray="3"/></g><g transform="translate(2,-6) scale(1,1)"><path fill="none" stroke="#000000" d="M 133 136 L 163 136 L 163 156 L 139 156" stroke-miterlimit="10"/></g><g transform="translate(2,-6) scale(1,1)"><path fill="#000000" stroke="none" d="M 149.16267485762415 151.790482243984 L 139 156 L 149.16267485762415 160.209517756016"/></g><g transform="translate(2,-6) scale(1,1)"><path fill="none" stroke="#000000" d="M 149.16267485762415 151.790482243984 L 139 156 L 149.16267485762415 160.209517756016 L 149.16267485762415 151.790482243984" stroke-miterlimit="10"/></g><g transform="translate(2,-6) scale(1,1)"><g><path fill="none" stroke="none"/><text fill="#000000" stroke="none" font-family="Arial" font-size="13px" font-style="normal" font-weight="normal" text-decoration="none" x="175" y="152">1 : getProspectByTurnover</text></g></g><g transform="translate(2,-6) scale(1,1)"><rect fill="#ffffff" stroke="none" x="126" y="156" width="13" height="28"/></g><g transform="translate(2,-6) scale(1,1)"><path fill="none" stroke="#000000" d="M 126 156 L 139 156 L 139 184 L 126 184 L 126 156 Z Z" stroke-miterlimit="10"/></g><g transform="translate(2,-6) scale(1,1)"><path fill="none" stroke="#000000" d="M 139 176 L 169 176 L 169 196 L 139 196" stroke-miterlimit="10"/></g><g transform="translate(2,-6) scale(1,1)"><path fill="#000000" stroke="none" d="M 149.16267485762415 191.790482243984 L 139 196 L 149.16267485762415 200.209517756016"/></g><g transform="translate(2,-6) scale(1,1)"><path fill="none" stroke="#000000" d="M 149.16267485762415 191.790482243984 L 139 196 L 149.16267485762415 200.209517756016 L 149.16267485762415 191.790482243984" stroke-miterlimit="10"/></g><g transform="translate(2,-6) scale(1,1)"><g><path fill="none" stroke="none"/><text fill="#000000" stroke="none" font-family="Arial" font-size="13px" font-style="normal" font-weight="normal" text-decoration="none" x="175" y="192">2 : getProspectByRelationship</text></g></g><g transform="translate(2,-6) scale(1,1)"><rect fill="#ffffff" stroke="none" x="126" y="196" width="13" height="28"/></g><g transform="translate(2,-6) scale(1,1)"><path fill="none" stroke="#000000" d="M 126 196 L 139 196 L 139 224 L 126 224 L 126 196 Z Z" stroke-miterlimit="10"/></g><g transform="translate(2,-6) scale(1,1)"><path fill="none" stroke="#000000" d="M 139 222 L 431 222" stroke-miterlimit="10"/></g><g transform="translate(2,-6) scale(1,1)"><path fill="none" stroke="#000000" d="M 420.83732514237585 226.209517756016 L 431 222 L 420.83732514237585 217.790482243984" stroke-miterlimit="10"/></g><g transform="translate(2,-6) scale(1,1)"><g><path fill="none" stroke="none"/><text fill="#000000" stroke="none" font-family="Arial" font-size="13px" font-style="normal" font-weight="normal" text-decoration="none" x="148" y="219">3 : checkExistCommandOfProspect(prospectId)</text></g></g><g transform="translate(2,-6) scale(1,1)"><rect fill="#ffffff" stroke="none" x="431" y="222" width="13" height="74"/></g><g transform="translate(2,-6) scale(1,1)"><path fill="none" stroke="#000000" d="M 431 222 L 444 222 L 444 296 L 431 296 L 431 222 Z Z" stroke-miterlimit="10"/></g><g transform="translate(2,-6) scale(1,1)"><path fill="none" stroke="#000000" d="M 431 285 L 133 285" stroke-miterlimit="10" stroke-dasharray="3"/></g><g transform="translate(2,-6) scale(1,1)"><path fill="none" stroke="#000000" d="M 143.16267485762415 280.790482243984 L 133 285 L 143.16267485762415 289.209517756016" stroke-miterlimit="10"/></g><g transform="translate(2,-6) scale(1,1)"><g><path fill="none" stroke="none"/><text fill="#000000" stroke="none" font-family="Arial" font-size="13px" font-style="normal" font-weight="normal" text-decoration="none" x="227" y="302">4 : return true/false</text></g></g><g transform="translate(2,-6) scale(1,1)"><path fill="none" stroke="#000000" d="M 133 320 L 163 320 L 163 340 L 139 340" stroke-miterlimit="10"/></g><g transform="translate(2,-6) scale(1,1)"><path fill="#000000" stroke="none" d="M 149.16267485762415 335.790482243984 L 139 340 L 149.16267485762415 344.209517756016"/></g><g transform="translate(2,-6) scale(1,1)"><path fill="none" stroke="#000000" d="M 149.16267485762415 335.790482243984 L 139 340 L 149.16267485762415 344.209517756016 L 149.16267485762415 335.790482243984" stroke-miterlimit="10"/></g><g transform="translate(2,-6) scale(1,1)"><g><path fill="none" stroke="none"/><text fill="#000000" stroke="none" font-family="Arial" font-size="13px" font-style="normal" font-weight="normal" text-decoration="none" x="175" y="336">5 : getProspectByCommand</text></g></g><g transform="translate(2,-6) scale(1,1)"><rect fill="#ffffff" stroke="none" x="126" y="340" width="13" height="28"/></g><g transform="translate(2,-6) scale(1,1)"><path fill="none" stroke="#000000" d="M 126 340 L 139 340 L 139 368 L 126 368 L 126 340 Z Z" stroke-miterlimit="10"/></g></g></svg>