<svg version="1.1" xmlns="http://www.w3.org/2000/svg" xmlns:xlink="http://www.w3.org/1999/xlink" width="991" height="623"><defs/><g><g transform="translate(5,5) scale(1,1)"><path fill="none" stroke="#000000" d="M 5 5 L 976 5 L 976 608 L 5 608 L 5 5" stroke-miterlimit="10"/></g><g transform="translate(5,5) scale(1,1)"><path fill="#ffffff" stroke="none" d="M 5 5 L 5 27 L 195.88427734375 27 L 206.88427734375 16 L 206.88427734375 5 L 5 5"/></g><g transform="translate(5,5) scale(1,1)"><path fill="none" stroke="#000000" d="M 5 5 L 5 27 L 195.88427734375 27 L 206.88427734375 16 L 206.88427734375 5 L 5 5 L 5 5" stroke-miterlimit="10"/></g><g transform="translate(5,5) scale(1,1)"><g><path fill="none" stroke="none"/><text fill="#000000" stroke="none" font-family="Arial" font-size="13px" font-style="normal" font-weight="normal" text-decoration="none" x="75.97900390625" y="22.5">SequenceDiagram1</text></g></g><g transform="translate(5,5) scale(1,1)"><g><path fill="none" stroke="none"/><text fill="#000000" stroke="none" font-family="Arial" font-size="13px" font-style="normal" font-weight="bold" text-decoration="none" x="10" y="22.5">interaction</text></g></g><g transform="translate(5,5) scale(1,1)"><rect fill="#ffffff" stroke="none" x="613.9972601996528" y="40" width="34.44444444444446" height="40"/></g><g transform="translate(5,5) scale(1,1)"><path fill="none" stroke="#000000" d="M 613.9972601996528 40 L 648.4417046440973 40 L 648.4417046440973 80 L 613.9972601996528 80 L 613.9972601996528 40 Z Z" stroke-miterlimit="10"/></g><g transform="translate(5,5) scale(1,1)"><rect fill="#ffffff" stroke="none" x="603.9972601996528" y="47" width="20" height="10"/></g><g transform="translate(5,5) scale(1,1)"><path fill="none" stroke="#000000" d="M 603.9972601996528 47 L 623.9972601996528 47 L 623.9972601996528 57 L 603.9972601996528 57 L 603.9972601996528 47 Z Z" stroke-miterlimit="10"/></g><g transform="translate(5,5) scale(1,1)"><rect fill="#ffffff" stroke="none" x="603.9972601996528" y="67" width="20" height="10"/></g><g transform="translate(5,5) scale(1,1)"><path fill="none" stroke="#000000" d="M 603.9972601996528 67 L 623.9972601996528 67 L 623.9972601996528 77 L 603.9972601996528 77 L 603.9972601996528 67 Z Z" stroke-miterlimit="10"/></g><g transform="translate(5,5) scale(1,1)"><g><path fill="none" stroke="none"/><text fill="#000000" stroke="none" font-family="Arial" font-size="13px" font-style="normal" font-weight="bold" text-decoration="none" x="584.32177734375" y="99.5">: REST Server</text></g></g><g transform="translate(5,5) scale(1,1)"><path fill="none" stroke="#000000" d="M 627.5 105 L 627.5 584" stroke-miterlimit="10" stroke-dasharray="3"/></g><g transform="translate(5,5) scale(1,1)"><rect fill="#ffffff" stroke="none" x="345.64911566840277" y="40" width="34.44444444444446" height="40"/></g><g transform="translate(5,5) scale(1,1)"><path fill="none" stroke="#000000" d="M 345.64911566840277 40 L 380.09356011284723 40 L 380.09356011284723 80 L 345.64911566840277 80 L 345.64911566840277 40 Z Z" stroke-miterlimit="10"/></g><g transform="translate(5,5) scale(1,1)"><rect fill="#ffffff" stroke="none" x="335.64911566840277" y="47" width="20" height="10"/></g><g transform="translate(5,5) scale(1,1)"><path fill="none" stroke="#000000" d="M 335.64911566840277 47 L 355.64911566840277 47 L 355.64911566840277 57 L 335.64911566840277 57 L 335.64911566840277 47 Z Z" stroke-miterlimit="10"/></g><g transform="translate(5,5) scale(1,1)"><rect fill="#ffffff" stroke="none" x="335.64911566840277" y="67" width="20" height="10"/></g><g transform="translate(5,5) scale(1,1)"><path fill="none" stroke="#000000" d="M 335.64911566840277 67 L 355.64911566840277 67 L 355.64911566840277 77 L 335.64911566840277 77 L 335.64911566840277 67 Z Z" stroke-miterlimit="10"/></g><g transform="translate(5,5) scale(1,1)"><g><path fill="none" stroke="none"/><text fill="#000000" stroke="none" font-family="Arial" font-size="13px" font-style="normal" font-weight="bold" text-decoration="none" x="321.740478515625" y="99.5">: Tabintheair</text></g></g><g transform="translate(5,5) scale(1,1)"><path fill="none" stroke="#000000" d="M 358.5 105 L 358.5 584" stroke-miterlimit="10" stroke-dasharray="3"/></g><g transform="translate(5,5) scale(1,1)"><rect fill="#C0C0C0" stroke="none" x="863" y="47" width="99.9072265625" height="39" opacity="0.2"/></g><g transform="translate(5,5) scale(1,1)"><rect fill="#ffffff" stroke="none" x="856" y="40" width="99.9072265625" height="39"/></g><g transform="translate(5,5) scale(1,1)"><path fill="none" stroke="#000000" d="M 856 40 L 955.9072265625 40 L 955.9072265625 79 L 856 79 L 856 40 Z Z" stroke-miterlimit="10"/></g><g transform="translate(5,5) scale(1,1)"><g><path fill="none" stroke="none"/><text fill="#000000" stroke="none" font-family="Arial" font-size="13px" font-style="normal" font-weight="bold" text-decoration="none" x="868.02001953125" y="59.5">Google Drive</text></g></g><g transform="translate(5,5) scale(1,1)"><path fill="none" stroke="#000000" d="M 906.5 80 L 906.5 584" stroke-miterlimit="10" stroke-dasharray="3"/></g><g transform="translate(5,5) scale(1,1)"><path fill="#ffffff" stroke="none" d="M 87.0245223721591 47.3 C 87.0245223721591 43.82060576 89.90292409434092 41 93.45361328125 41 C 97.00430246815908 41 99.8827041903409 43.82060576 99.8827041903409 47.3 C 99.8827041903409 50.779394239999995 97.00430246815908 53.6 93.45361328125 53.6 C 89.90292409434092 53.6 87.0245223721591 50.779394239999995 87.0245223721591 47.3 Z"/></g><g transform="translate(5,5) scale(1,1)"><path fill="none" stroke="#000000" d="M 87.0245223721591 47.3 C 87.0245223721591 43.82060576 89.90292409434092 41 93.45361328125 41 C 97.00430246815908 41 99.8827041903409 43.82060576 99.8827041903409 47.3 C 99.8827041903409 50.779394239999995 97.00430246815908 53.6 93.45361328125 53.6 C 89.90292409434092 53.6 87.0245223721591 50.779394239999995 87.0245223721591 47.3 Z" stroke-miterlimit="10"/></g><g transform="translate(5,5) scale(1,1)"><path fill="none" stroke="#000000" d="M 93.45361328125 53.6 L 93.45361328125 66.4" stroke-miterlimit="10"/></g><g transform="translate(5,5) scale(1,1)"><path fill="none" stroke="#000000" d="M 86.64634055397727 58.4 L 100.26088600852273 58.4" stroke-miterlimit="10"/></g><g transform="translate(5,5) scale(1,1)"><path fill="none" stroke="#000000" d="M 93.45361328125 66.4 L 83.99906782670455 79" stroke-miterlimit="10"/></g><g transform="translate(5,5) scale(1,1)"><path fill="none" stroke="#000000" d="M 93.45361328125 66.4 L 102.90815873579545 79" stroke-miterlimit="10"/></g><g transform="translate(5,5) scale(1,1)"><g><path fill="none" stroke="none"/><text fill="#000000" stroke="none" font-family="Arial" font-size="13px" font-style="normal" font-weight="bold" text-decoration="none" x="51.552734375" y="99.5">: Administrator</text></g></g><g transform="translate(5,5) scale(1,1)"><path fill="none" stroke="#000000" d="M 94.5 105 L 94.5 576" stroke-miterlimit="10" stroke-dasharray="3"/></g><g transform="translate(5,5) scale(1,1)"><path fill="#ffffff" stroke="none" d="M 424 208 L 527.392578125 208 L 537.392578125 218 L 537.392578125 246 L 424 246 L 424 208"/></g><g transform="translate(5,5) scale(1,1)"><path fill="none" stroke="#000000" d="M 424 208 L 527.392578125 208 L 537.392578125 218 L 537.392578125 246 L 424 246 L 424 208 L 424 208" stroke-miterlimit="10"/></g><g transform="translate(5,5) scale(1,1)"><path fill="none" stroke="#000000" d="M 527.392578125 208 L 527.392578125 218 L 537.392578125 218 L 527.392578125 208" stroke-miterlimit="10"/></g><g transform="translate(5,5) scale(1,1)"><g><path fill="none" stroke="none"/><text fill="#000000" stroke="none" font-family="Arial" font-size="13px" font-style="normal" font-weight="normal" text-decoration="none" x="429" y="226">GET</text><text fill="#000000" stroke="none" font-family="Arial" font-size="13px" font-style="normal" font-weight="normal" text-decoration="none" x="429" y="239">/database/dump</text></g></g><g transform="translate(5,5) scale(1,1)"><path fill="none" stroke="#000000" d="M 94 137 L 351 137" stroke-miterlimit="10"/></g><g transform="translate(5,5) scale(1,1)"><path fill="#000000" stroke="none" d="M 340.83732514237585 141.209517756016 L 351 137 L 340.83732514237585 132.790482243984"/></g><g transform="translate(5,5) scale(1,1)"><path fill="none" stroke="#000000" d="M 340.83732514237585 141.209517756016 L 351 137 L 340.83732514237585 132.790482243984 L 340.83732514237585 141.209517756016" stroke-miterlimit="10"/></g><g transform="translate(5,5) scale(1,1)"><g><path fill="none" stroke="none"/><text fill="#000000" stroke="none" font-family="Arial" font-size="13px" font-style="normal" font-weight="normal" text-decoration="none" x="135" y="134">1 : pushDumpDatabaseButton</text></g></g><g transform="translate(5,5) scale(1,1)"><rect fill="#ffffff" stroke="none" x="351" y="137" width="13" height="28"/></g><g transform="translate(5,5) scale(1,1)"><path fill="none" stroke="#000000" d="M 351 137 L 364 137 L 364 165 L 351 165 L 351 137 Z Z" stroke-miterlimit="10"/></g><g transform="translate(5,5) scale(1,1)"><path fill="none" stroke="#000000" d="M 358 193 L 620 193" stroke-miterlimit="10"/></g><g transform="translate(5,5) scale(1,1)"><path fill="#000000" stroke="none" d="M 609.8373251423759 197.209517756016 L 620 193 L 609.8373251423758 188.790482243984"/></g><g transform="translate(5,5) scale(1,1)"><path fill="none" stroke="#000000" d="M 609.8373251423759 197.209517756016 L 620 193 L 609.8373251423758 188.790482243984 L 609.8373251423759 197.209517756016" stroke-miterlimit="10"/></g><g transform="translate(5,5) scale(1,1)"><g><path fill="none" stroke="none"/><text fill="#000000" stroke="none" font-family="Arial" font-size="13px" font-style="normal" font-weight="normal" text-decoration="none" x="414" y="190">2 : requestDumpDatabase</text></g></g><g transform="translate(5,5) scale(1,1)"><rect fill="#ffffff" stroke="none" x="620" y="193" width="13" height="28"/></g><g transform="translate(5,5) scale(1,1)"><path fill="none" stroke="#000000" d="M 620 193 L 633 193 L 633 221 L 620 221 L 620 193 Z Z" stroke-miterlimit="10"/></g><g transform="translate(5,5) scale(1,1)"><path fill="none" stroke="#000000" d="M 627 264 L 657 264 L 657 284 L 633 284" stroke-miterlimit="10"/></g><g transform="translate(5,5) scale(1,1)"><path fill="#000000" stroke="none" d="M 643.1626748576241 279.790482243984 L 633 284 L 643.1626748576241 288.209517756016"/></g><g transform="translate(5,5) scale(1,1)"><path fill="none" stroke="#000000" d="M 643.1626748576241 279.790482243984 L 633 284 L 643.1626748576241 288.209517756016 L 643.1626748576241 279.790482243984" stroke-miterlimit="10"/></g><g transform="translate(5,5) scale(1,1)"><g><path fill="none" stroke="none"/><text fill="#000000" stroke="none" font-family="Arial" font-size="13px" font-style="normal" font-weight="normal" text-decoration="none" x="663" y="280">3 : dumpDatabase</text></g></g><g transform="translate(5,5) scale(1,1)"><rect fill="#ffffff" stroke="none" x="620" y="284" width="13" height="28"/></g><g transform="translate(5,5) scale(1,1)"><path fill="none" stroke="#000000" d="M 620 284 L 633 284 L 633 312 L 620 312 L 620 284 Z Z" stroke-miterlimit="10"/></g><g transform="translate(5,5) scale(1,1)"><path fill="none" stroke="#000000" d="M 627 352 L 657 352 L 657 372 L 633 372" stroke-miterlimit="10"/></g><g transform="translate(5,5) scale(1,1)"><path fill="#000000" stroke="none" d="M 643.1626748576241 367.790482243984 L 633 372 L 643.1626748576241 376.209517756016"/></g><g transform="translate(5,5) scale(1,1)"><path fill="none" stroke="#000000" d="M 643.1626748576241 367.790482243984 L 633 372 L 643.1626748576241 376.209517756016 L 643.1626748576241 367.790482243984" stroke-miterlimit="10"/></g><g transform="translate(5,5) scale(1,1)"><g><path fill="none" stroke="none"/><text fill="#000000" stroke="none" font-family="Arial" font-size="13px" font-style="normal" font-weight="normal" text-decoration="none" x="664" y="368">4 : createDumpFile</text></g></g><g transform="translate(5,5) scale(1,1)"><rect fill="#ffffff" stroke="none" x="620" y="372" width="13" height="28"/></g><g transform="translate(5,5) scale(1,1)"><path fill="none" stroke="#000000" d="M 620 372 L 633 372 L 633 400 L 620 400 L 620 372 Z Z" stroke-miterlimit="10"/></g><g transform="translate(5,5) scale(1,1)"><path fill="none" stroke="#000000" d="M 627 424 L 899 424" stroke-miterlimit="10"/></g><g transform="translate(5,5) scale(1,1)"><path fill="#000000" stroke="none" d="M 888.8373251423759 428.209517756016 L 899 424 L 888.8373251423758 419.790482243984"/></g><g transform="translate(5,5) scale(1,1)"><path fill="none" stroke="#000000" d="M 888.8373251423759 428.209517756016 L 899 424 L 888.8373251423758 419.790482243984 L 888.8373251423759 428.209517756016" stroke-miterlimit="10"/></g><g transform="translate(5,5) scale(1,1)"><g><path fill="none" stroke="none"/><text fill="#000000" stroke="none" font-family="Arial" font-size="13px" font-style="normal" font-weight="normal" text-decoration="none" x="713" y="421">5 : sendDumpFile</text></g></g><g transform="translate(5,5) scale(1,1)"><rect fill="#ffffff" stroke="none" x="899" y="424" width="13" height="28"/></g><g transform="translate(5,5) scale(1,1)"><path fill="none" stroke="#000000" d="M 899 424 L 912 424 L 912 452 L 899 452 L 899 424 Z Z" stroke-miterlimit="10"/></g><g transform="translate(5,5) scale(1,1)"><path fill="none" stroke="#000000" d="M 906 496 L 633 496" stroke-miterlimit="10"/></g><g transform="translate(5,5) scale(1,1)"><path fill="#000000" stroke="none" d="M 643.1626748576241 491.790482243984 L 633 496 L 643.1626748576241 500.209517756016"/></g><g transform="translate(5,5) scale(1,1)"><path fill="none" stroke="#000000" d="M 643.1626748576241 491.790482243984 L 633 496 L 643.1626748576241 500.209517756016 L 643.1626748576241 491.790482243984" stroke-miterlimit="10"/></g><g transform="translate(5,5) scale(1,1)"><g><path fill="none" stroke="none"/><text fill="#000000" stroke="none" font-family="Arial" font-size="13px" font-style="normal" font-weight="normal" text-decoration="none" x="732" y="513">6 : giveFileId</text></g></g><g transform="translate(5,5) scale(1,1)"><rect fill="#ffffff" stroke="none" x="620" y="496" width="13" height="28"/></g><g transform="translate(5,5) scale(1,1)"><path fill="none" stroke="#000000" d="M 620 496 L 633 496 L 633 524 L 620 524 L 620 496 Z Z" stroke-miterlimit="10"/></g></g></svg>