<svg version="1.1" xmlns="http://www.w3.org/2000/svg" xmlns:xlink="http://www.w3.org/1999/xlink" width="1415" height="1044"><defs/><g><g transform="translate(5,10) scale(1,1)"><path fill="none" stroke="#000000" d="M 5 0 L 1400 0 L 1400 912 L 5 912 L 5 0" stroke-miterlimit="10"/></g><g transform="translate(5,10) scale(1,1)"><path fill="#ffffff" stroke="none" d="M 5 0 L 5 22 L 263.06787109375 22 L 274.06787109375 11 L 274.06787109375 0 L 5 0"/></g><g transform="translate(5,10) scale(1,1)"><path fill="none" stroke="#000000" d="M 5 0 L 5 22 L 263.06787109375 22 L 274.06787109375 11 L 274.06787109375 0 L 5 0 L 5 0" stroke-miterlimit="10"/></g><g transform="translate(5,10) scale(1,1)"><g><path fill="none" stroke="none"/><text fill="#000000" stroke="none" font-family="Arial" font-size="13px" font-style="normal" font-weight="normal" text-decoration="none" x="75.97900390625" y="17.5">DS détailler afficher détail client</text></g></g><g transform="translate(5,10) scale(1,1)"><g><path fill="none" stroke="none"/><text fill="#000000" stroke="none" font-family="Arial" font-size="13px" font-style="normal" font-weight="bold" text-decoration="none" x="10" y="17.5">interaction</text></g></g><g transform="translate(5,10) scale(1,1)"><path fill="none" stroke="#000000" d="M 24 168 L 1376 168 L 1376 896 L 24 896 L 24 168" stroke-miterlimit="10"/></g><g transform="translate(5,10) scale(1,1)"><path fill="#ffffff" stroke="none" d="M 24 168 L 24 190 L 160.64990234375 190 L 171.64990234375 179 L 171.64990234375 168 L 24 168"/></g><g transform="translate(5,10) scale(1,1)"><path fill="none" stroke="#000000" d="M 24 168 L 24 190 L 160.64990234375 190 L 171.64990234375 179 L 171.64990234375 168 L 24 168 L 24 168" stroke-miterlimit="10"/></g><g transform="translate(5,10) scale(1,1)"><g><path fill="none" stroke="none"/><text fill="#000000" stroke="none" font-family="Arial" font-size="13px" font-style="normal" font-weight="normal" text-decoration="none" x="48.72998046875" y="185.5">Customer clic type</text></g></g><g transform="translate(5,10) scale(1,1)"><g><path fill="none" stroke="none"/><text fill="#000000" stroke="none" font-family="Arial" font-size="13px" font-style="normal" font-weight="bold" text-decoration="none" x="29" y="185.5">alt</text></g></g><g transform="translate(5,10) scale(1,1)"><path fill="none" stroke="#000000" d="M 24 513 L 1376 513" stroke-miterlimit="10" stroke-dasharray="10,3"/></g><g transform="translate(5,10) scale(1,1)"><path fill="#ffffff" stroke="none" d="M 113.6194930752841 47.3 C 113.6194930752841 43.82060576 116.4978947974659 41 120.048583984375 41 C 123.5992731712841 41 126.47767489346592 43.82060576 126.47767489346592 47.3 C 126.47767489346592 50.779394239999995 123.5992731712841 53.6 120.048583984375 53.6 C 116.4978947974659 53.6 113.6194930752841 50.779394239999995 113.6194930752841 47.3 Z"/></g><g transform="translate(5,10) scale(1,1)"><path fill="none" stroke="#000000" d="M 113.6194930752841 47.3 C 113.6194930752841 43.82060576 116.4978947974659 41 120.048583984375 41 C 123.5992731712841 41 126.47767489346592 43.82060576 126.47767489346592 47.3 C 126.47767489346592 50.779394239999995 123.5992731712841 53.6 120.048583984375 53.6 C 116.4978947974659 53.6 113.6194930752841 50.779394239999995 113.6194930752841 47.3 Z" stroke-miterlimit="10"/></g><g transform="translate(5,10) scale(1,1)"><path fill="none" stroke="#000000" d="M 120.048583984375 53.6 L 120.048583984375 66.4" stroke-miterlimit="10"/></g><g transform="translate(5,10) scale(1,1)"><path fill="none" stroke="#000000" d="M 113.24131125710228 58.4 L 126.85585671164773 58.4" stroke-miterlimit="10"/></g><g transform="translate(5,10) scale(1,1)"><path fill="none" stroke="#000000" d="M 120.048583984375 66.4 L 110.59403852982955 79" stroke-miterlimit="10"/></g><g transform="translate(5,10) scale(1,1)"><path fill="none" stroke="#000000" d="M 120.048583984375 66.4 L 129.50312943892047 79" stroke-miterlimit="10"/></g><g transform="translate(5,10) scale(1,1)"><g><path fill="none" stroke="none"/><text fill="#000000" stroke="none" font-family="Arial" font-size="13px" font-style="normal" font-weight="bold" text-decoration="none" x="81.765869140625" y="99.5">: Commercial</text></g></g><g transform="translate(5,10) scale(1,1)"><path fill="none" stroke="#000000" d="M 121.5 105 L 121.5 888" stroke-miterlimit="10" stroke-dasharray="3"/></g><g transform="translate(5,10) scale(1,1)"><rect fill="#C0C0C0" stroke="none" x="223" y="47" width="173.58447265625" height="39" opacity="0.2"/></g><g transform="translate(5,10) scale(1,1)"><rect fill="#ffffff" stroke="none" x="216" y="40" width="173.58447265625" height="39"/></g><g transform="translate(5,10) scale(1,1)"><path fill="none" stroke="#000000" d="M 216 40 L 389.58447265625 40 L 389.58447265625 79 L 216 79 L 216 40 Z Z" stroke-miterlimit="10"/></g><g transform="translate(5,10) scale(1,1)"><g><path fill="none" stroke="none"/><text fill="#000000" stroke="none" font-family="Arial" font-size="13px" font-style="normal" font-weight="bold" text-decoration="none" x="231.266845703125" y="59.5">CustomerListViewHolder</text></g></g><g transform="translate(5,10) scale(1,1)"><path fill="none" stroke="#000000" d="M 303.5 80 L 303.5 888" stroke-miterlimit="10" stroke-dasharray="3"/></g><g transform="translate(5,10) scale(1,1)"><rect fill="#C0C0C0" stroke="none" x="559" y="47" width="176" height="39" opacity="0.2"/></g><g transform="translate(5,10) scale(1,1)"><rect fill="#ffffff" stroke="none" x="552" y="40" width="176" height="39"/></g><g transform="translate(5,10) scale(1,1)"><path fill="none" stroke="#000000" d="M 552 40 L 728 40 L 728 79 L 552 79 L 552 40 Z Z" stroke-miterlimit="10"/></g><g transform="translate(5,10) scale(1,1)"><g><path fill="none" stroke="none"/><text fill="#000000" stroke="none" font-family="Arial" font-size="13px" font-style="normal" font-weight="bold" text-decoration="none" x="586.17822265625" y="59.5">DetailHCFragment</text></g></g><g transform="translate(5,10) scale(1,1)"><path fill="none" stroke="#000000" d="M 641.5 80 L 641.5 888" stroke-miterlimit="10" stroke-dasharray="3"/></g><g transform="translate(5,10) scale(1,1)"><rect fill="#C0C0C0" stroke="none" x="807" y="47" width="148.29541015625" height="39" opacity="0.2"/></g><g transform="translate(5,10) scale(1,1)"><rect fill="#ffffff" stroke="none" x="800" y="40" width="148.29541015625" height="39"/></g><g transform="translate(5,10) scale(1,1)"><path fill="none" stroke="#000000" d="M 800 40 L 948.29541015625 40 L 948.29541015625 79 L 800 79 L 800 40 Z Z" stroke-miterlimit="10"/></g><g transform="translate(5,10) scale(1,1)"><g><path fill="none" stroke="none"/><text fill="#000000" stroke="none" font-family="Arial" font-size="13px" font-style="normal" font-weight="bold" text-decoration="none" x="813.4482421875" y="59.5">DetailIndepFragment</text></g></g><g transform="translate(5,10) scale(1,1)"><path fill="none" stroke="#000000" d="M 875.5 80 L 875.5 888" stroke-miterlimit="10" stroke-dasharray="3"/></g><g transform="translate(5,10) scale(1,1)"><g><path fill="none" stroke="none"/><text fill="#000000" stroke="none" font-family="Arial" font-size="13px" font-style="normal" font-weight="normal" text-decoration="none" x="45" y="274">Customer</text><text fill="#000000" stroke="none" font-family="Arial" font-size="13px" font-style="normal" font-weight="normal" text-decoration="none" x="45" y="287">instance</text><text fill="#000000" stroke="none" font-family="Arial" font-size="13px" font-style="normal" font-weight="normal" text-decoration="none" x="45" y="300">of HC</text></g></g><g transform="translate(5,10) scale(1,1)"><g><path fill="none" stroke="none"/><text fill="#000000" stroke="none" font-family="Arial" font-size="13px" font-style="normal" font-weight="normal" text-decoration="none" x="37" y="586">Customer</text><text fill="#000000" stroke="none" font-family="Arial" font-size="13px" font-style="normal" font-weight="normal" text-decoration="none" x="37" y="599">instance</text><text fill="#000000" stroke="none" font-family="Arial" font-size="13px" font-style="normal" font-weight="normal" text-decoration="none" x="37" y="612">of Indep</text></g></g><g transform="translate(5,10) scale(1,1)"><rect fill="#C0C0C0" stroke="none" x="1127" y="47" width="71.736328125" height="39" opacity="0.2"/></g><g transform="translate(5,10) scale(1,1)"><rect fill="#ffffff" stroke="none" x="1120" y="40" width="71.736328125" height="39"/></g><g transform="translate(5,10) scale(1,1)"><path fill="none" stroke="#000000" d="M 1120 40 L 1191.736328125 40 L 1191.736328125 79 L 1120 79 L 1120 40 Z Z" stroke-miterlimit="10"/></g><g transform="translate(5,10) scale(1,1)"><g><path fill="none" stroke="none"/><text fill="#000000" stroke="none" font-family="Arial" font-size="13px" font-style="normal" font-weight="bold" text-decoration="none" x="1135.628662109375" y="59.5">Bundle</text></g></g><g transform="translate(5,10) scale(1,1)"><path fill="none" stroke="#000000" d="M 1156.5 80 L 1156.5 1024" stroke-miterlimit="10" stroke-dasharray="3"/></g><g transform="translate(5,10) scale(1,1)"><path fill="none" stroke="#000000" d="M 121 128 L 296 128" stroke-miterlimit="10"/></g><g transform="translate(5,10) scale(1,1)"><path fill="#000000" stroke="none" d="M 285.83732514237585 132.209517756016 L 296 128 L 285.83732514237585 123.79048224398402"/></g><g transform="translate(5,10) scale(1,1)"><path fill="none" stroke="#000000" d="M 285.83732514237585 132.209517756016 L 296 128 L 285.83732514237585 123.79048224398402 L 285.83732514237585 132.209517756016" stroke-miterlimit="10"/></g><g transform="translate(5,10) scale(1,1)"><g><path fill="none" stroke="none"/><text fill="#000000" stroke="none" font-family="Arial" font-size="13px" font-style="normal" font-weight="normal" text-decoration="none" x="155" y="125">1 : onClick(v:View)</text></g></g><g transform="translate(5,10) scale(1,1)"><rect fill="#ffffff" stroke="none" x="296" y="128" width="13" height="616"/></g><g transform="translate(5,10) scale(1,1)"><path fill="none" stroke="#000000" d="M 296 128 L 309 128 L 309 744 L 296 744 L 296 128 Z Z" stroke-miterlimit="10"/></g><g transform="translate(5,10) scale(1,1)"><path fill="none" stroke="#000000" d="M 309 256 L 339 256 L 339 276 L 316 276" stroke-miterlimit="10"/></g><g transform="translate(5,10) scale(1,1)"><path fill="#000000" stroke="none" d="M 326.16267485762415 271.790482243984 L 316 276 L 326.16267485762415 280.209517756016"/></g><g transform="translate(5,10) scale(1,1)"><path fill="none" stroke="#000000" d="M 326.16267485762415 271.790482243984 L 316 276 L 326.16267485762415 280.209517756016 L 326.16267485762415 271.790482243984" stroke-miterlimit="10"/></g><g transform="translate(5,10) scale(1,1)"><g><path fill="none" stroke="none"/><text fill="#000000" stroke="none" font-family="Arial" font-size="13px" font-style="normal" font-weight="normal" text-decoration="none" x="341" y="272">2 : startDetailHCFragment(healthCenter: HealthCenter)</text></g></g><g transform="translate(5,10) scale(1,1)"><rect fill="#ffffff" stroke="none" x="303" y="276" width="13" height="76"/></g><g transform="translate(5,10) scale(1,1)"><path fill="none" stroke="#000000" d="M 303 276 L 316 276 L 316 352 L 303 352 L 303 276 Z Z" stroke-miterlimit="10"/></g><g transform="translate(5,10) scale(1,1)"><path fill="none" stroke="#000000" d="M 316 288 L 1149 288" stroke-miterlimit="10"/></g><g transform="translate(5,10) scale(1,1)"><path fill="#000000" stroke="none" d="M 1138.837325142376 292.209517756016 L 1149 288 L 1138.837325142376 283.790482243984"/></g><g transform="translate(5,10) scale(1,1)"><path fill="none" stroke="#000000" d="M 1138.837325142376 292.209517756016 L 1149 288 L 1138.837325142376 283.790482243984 L 1138.837325142376 292.209517756016" stroke-miterlimit="10"/></g><g transform="translate(5,10) scale(1,1)"><g><path fill="none" stroke="none"/><text fill="#000000" stroke="none" font-family="Arial" font-size="13px" font-style="normal" font-weight="normal" text-decoration="none" x="689" y="285">3 : new Bundle</text></g></g><g transform="translate(5,10) scale(1,1)"><rect fill="#ffffff" stroke="none" x="1149" y="288" width="13" height="80"/></g><g transform="translate(5,10) scale(1,1)"><path fill="none" stroke="#000000" d="M 1149 288 L 1162 288 L 1162 368 L 1149 368 L 1149 288 Z Z" stroke-miterlimit="10"/></g><g transform="translate(5,10) scale(1,1)"><path fill="none" stroke="#000000" d="M 1149 304 L 316 304" stroke-miterlimit="10" stroke-dasharray="3"/></g><g transform="translate(5,10) scale(1,1)"><path fill="none" stroke="#000000" d="M 326.16267485762415 299.790482243984 L 316 304 L 326.16267485762415 308.209517756016" stroke-miterlimit="10"/></g><g transform="translate(5,10) scale(1,1)"><g><path fill="none" stroke="none"/><text fill="#000000" stroke="none" font-family="Arial" font-size="13px" font-style="normal" font-weight="normal" text-decoration="none" x="702" y="321">4 : Bundle</text></g></g><g transform="translate(5,10) scale(1,1)"><path fill="none" stroke="#000000" d="M 316 336 L 1156 336" stroke-miterlimit="10"/></g><g transform="translate(5,10) scale(1,1)"><path fill="#000000" stroke="none" d="M 1145.837325142376 340.209517756016 L 1156 336 L 1145.837325142376 331.790482243984"/></g><g transform="translate(5,10) scale(1,1)"><path fill="none" stroke="#000000" d="M 1145.837325142376 340.209517756016 L 1156 336 L 1145.837325142376 331.790482243984 L 1145.837325142376 340.209517756016" stroke-miterlimit="10"/></g><g transform="translate(5,10) scale(1,1)"><g><path fill="none" stroke="none"/><text fill="#000000" stroke="none" font-family="Arial" font-size="13px" font-style="normal" font-weight="normal" text-decoration="none" x="539" y="333">5 : putParcelable(DetailHCFragment.KEY_HC_ARGS, healthCenter)</text></g></g><g transform="translate(5,10) scale(1,1)"><rect fill="#ffffff" stroke="none" x="1156" y="336" width="13" height="28"/></g><g transform="translate(5,10) scale(1,1)"><path fill="none" stroke="#000000" d="M 1156 336 L 1169 336 L 1169 364 L 1156 364 L 1156 336 Z Z" stroke-miterlimit="10"/></g><g transform="translate(5,10) scale(1,1)"><path fill="none" stroke="#000000" d="M 309 360 L 634 360" stroke-miterlimit="10"/></g><g transform="translate(5,10) scale(1,1)"><path fill="#000000" stroke="none" d="M 623.8373251423759 364.209517756016 L 634 360 L 623.8373251423758 355.790482243984"/></g><g transform="translate(5,10) scale(1,1)"><path fill="none" stroke="#000000" d="M 623.8373251423759 364.209517756016 L 634 360 L 623.8373251423758 355.790482243984 L 623.8373251423759 364.209517756016" stroke-miterlimit="10"/></g><g transform="translate(5,10) scale(1,1)"><g><path fill="none" stroke="none"/><text fill="#000000" stroke="none" font-family="Arial" font-size="13px" font-style="normal" font-weight="normal" text-decoration="none" x="395" y="357">6 : new DetailHCFragment</text></g></g><g transform="translate(5,10) scale(1,1)"><rect fill="#ffffff" stroke="none" x="634" y="360" width="13" height="107"/></g><g transform="translate(5,10) scale(1,1)"><path fill="none" stroke="#000000" d="M 634 360 L 647 360 L 647 467 L 634 467 L 634 360 Z Z" stroke-miterlimit="10"/></g><g transform="translate(5,10) scale(1,1)"><path fill="none" stroke="#000000" d="M 647 368 L 677 368 L 677 388 L 654 388" stroke-miterlimit="10"/></g><g transform="translate(5,10) scale(1,1)"><path fill="#000000" stroke="none" d="M 664.1626748576241 383.790482243984 L 654 388 L 664.1626748576241 392.209517756016"/></g><g transform="translate(5,10) scale(1,1)"><path fill="none" stroke="#000000" d="M 664.1626748576241 383.790482243984 L 654 388 L 664.1626748576241 392.209517756016 L 664.1626748576241 383.790482243984" stroke-miterlimit="10"/></g><g transform="translate(5,10) scale(1,1)"><g><path fill="none" stroke="none"/><text fill="#000000" stroke="none" font-family="Arial" font-size="13px" font-style="normal" font-weight="normal" text-decoration="none" x="687" y="384">7 : initView</text></g></g><g transform="translate(5,10) scale(1,1)"><rect fill="#ffffff" stroke="none" x="641" y="388" width="13" height="28"/></g><g transform="translate(5,10) scale(1,1)"><path fill="none" stroke="#000000" d="M 641 388 L 654 388 L 654 416 L 641 416 L 641 388 Z Z" stroke-miterlimit="10"/></g><g transform="translate(5,10) scale(1,1)"><path fill="none" stroke="#000000" d="M 647 416 L 677 416 L 677 436 L 654 436" stroke-miterlimit="10"/></g><g transform="translate(5,10) scale(1,1)"><path fill="#000000" stroke="none" d="M 664.1626748576241 431.790482243984 L 654 436 L 664.1626748576241 440.209517756016"/></g><g transform="translate(5,10) scale(1,1)"><path fill="none" stroke="#000000" d="M 664.1626748576241 431.790482243984 L 654 436 L 664.1626748576241 440.209517756016 L 664.1626748576241 431.790482243984" stroke-miterlimit="10"/></g><g transform="translate(5,10) scale(1,1)"><g><path fill="none" stroke="none"/><text fill="#000000" stroke="none" font-family="Arial" font-size="13px" font-style="normal" font-weight="normal" text-decoration="none" x="657" y="432">8 : initMap</text></g></g><g transform="translate(5,10) scale(1,1)"><rect fill="#ffffff" stroke="none" x="641" y="436" width="13" height="28"/></g><g transform="translate(5,10) scale(1,1)"><path fill="none" stroke="#000000" d="M 641 436 L 654 436 L 654 464 L 641 464 L 641 436 Z Z" stroke-miterlimit="10"/></g><g transform="translate(5,10) scale(1,1)"><path fill="none" stroke="#000000" d="M 634 464 L 121 464" stroke-miterlimit="10" stroke-dasharray="3"/></g><g transform="translate(5,10) scale(1,1)"><path fill="none" stroke="#000000" d="M 131.16267485762415 459.790482243984 L 121 464 L 131.16267485762415 468.209517756016" stroke-miterlimit="10"/></g><g transform="translate(5,10) scale(1,1)"><g><path fill="none" stroke="none"/><text fill="#000000" stroke="none" font-family="Arial" font-size="13px" font-style="normal" font-weight="normal" text-decoration="none" x="327" y="481">9 : DetailHCView</text></g></g><g transform="translate(5,10) scale(1,1)"><path fill="none" stroke="#000000" d="M 309 568 L 339 568 L 339 588 L 316 588" stroke-miterlimit="10"/></g><g transform="translate(5,10) scale(1,1)"><path fill="#000000" stroke="none" d="M 326.16267485762415 583.790482243984 L 316 588 L 326.16267485762415 592.209517756016"/></g><g transform="translate(5,10) scale(1,1)"><path fill="none" stroke="#000000" d="M 326.16267485762415 583.790482243984 L 316 588 L 326.16267485762415 592.209517756016 L 326.16267485762415 583.790482243984" stroke-miterlimit="10"/></g><g transform="translate(5,10) scale(1,1)"><g><path fill="none" stroke="none"/><text fill="#000000" stroke="none" font-family="Arial" font-size="13px" font-style="normal" font-weight="normal" text-decoration="none" x="337" y="584">10 : startDetailIndepFragment(independant: Independant)</text></g></g><g transform="translate(5,10) scale(1,1)"><rect fill="#ffffff" stroke="none" x="303" y="588" width="13" height="84"/></g><g transform="translate(5,10) scale(1,1)"><path fill="none" stroke="#000000" d="M 303 588 L 316 588 L 316 672 L 303 672 L 303 588 Z Z" stroke-miterlimit="10"/></g><g transform="translate(5,10) scale(1,1)"><path fill="none" stroke="#000000" d="M 316 608 L 1149 608" stroke-miterlimit="10"/></g><g transform="translate(5,10) scale(1,1)"><path fill="#000000" stroke="none" d="M 1138.837325142376 612.209517756016 L 1149 608 L 1138.837325142376 603.790482243984"/></g><g transform="translate(5,10) scale(1,1)"><path fill="none" stroke="#000000" d="M 1138.837325142376 612.209517756016 L 1149 608 L 1138.837325142376 603.790482243984 L 1138.837325142376 612.209517756016" stroke-miterlimit="10"/></g><g transform="translate(5,10) scale(1,1)"><g><path fill="none" stroke="none"/><text fill="#000000" stroke="none" font-family="Arial" font-size="13px" font-style="normal" font-weight="normal" text-decoration="none" x="686" y="605">11 : new Bundle</text></g></g><g transform="translate(5,10) scale(1,1)"><rect fill="#ffffff" stroke="none" x="1149" y="608" width="13" height="104"/></g><g transform="translate(5,10) scale(1,1)"><path fill="none" stroke="#000000" d="M 1149 608 L 1162 608 L 1162 712 L 1149 712 L 1149 608 Z Z" stroke-miterlimit="10"/></g><g transform="translate(5,10) scale(1,1)"><path fill="none" stroke="#000000" d="M 1149 632 L 316 632" stroke-miterlimit="10" stroke-dasharray="3"/></g><g transform="translate(5,10) scale(1,1)"><path fill="none" stroke="#000000" d="M 326.16267485762415 627.790482243984 L 316 632 L 326.16267485762415 636.209517756016" stroke-miterlimit="10"/></g><g transform="translate(5,10) scale(1,1)"><g><path fill="none" stroke="none"/><text fill="#000000" stroke="none" font-family="Arial" font-size="13px" font-style="normal" font-weight="normal" text-decoration="none" x="699" y="649">12 : Bundle</text></g></g><g transform="translate(5,10) scale(1,1)"><path fill="none" stroke="#000000" d="M 309 672 L 1156 672" stroke-miterlimit="10"/></g><g transform="translate(5,10) scale(1,1)"><path fill="#000000" stroke="none" d="M 1145.837325142376 676.209517756016 L 1156 672 L 1145.837325142376 667.790482243984"/></g><g transform="translate(5,10) scale(1,1)"><path fill="none" stroke="#000000" d="M 1145.837325142376 676.209517756016 L 1156 672 L 1145.837325142376 667.790482243984 L 1145.837325142376 676.209517756016" stroke-miterlimit="10"/></g><g transform="translate(5,10) scale(1,1)"><g><path fill="none" stroke="none"/><text fill="#000000" stroke="none" font-family="Arial" font-size="13px" font-style="normal" font-weight="normal" text-decoration="none" x="515" y="669">13 : putParcelable(DetailIndepFragment.KEY_INDEP_ARGS, independant)</text></g></g><g transform="translate(5,10) scale(1,1)"><rect fill="#ffffff" stroke="none" x="1156" y="672" width="13" height="28"/></g><g transform="translate(5,10) scale(1,1)"><path fill="none" stroke="#000000" d="M 1156 672 L 1169 672 L 1169 700 L 1156 700 L 1156 672 Z Z" stroke-miterlimit="10"/></g><g transform="translate(5,10) scale(1,1)"><path fill="none" stroke="#000000" d="M 309 720 L 868 720" stroke-miterlimit="10"/></g><g transform="translate(5,10) scale(1,1)"><path fill="#000000" stroke="none" d="M 857.8373251423759 724.209517756016 L 868 720 L 857.8373251423758 715.790482243984"/></g><g transform="translate(5,10) scale(1,1)"><path fill="none" stroke="#000000" d="M 857.8373251423759 724.209517756016 L 868 720 L 857.8373251423758 715.790482243984 L 857.8373251423759 724.209517756016" stroke-miterlimit="10"/></g><g transform="translate(5,10) scale(1,1)"><g><path fill="none" stroke="none"/><text fill="#000000" stroke="none" font-family="Arial" font-size="13px" font-style="normal" font-weight="normal" text-decoration="none" x="422" y="717">14 : new DetailIndepFragment(independant: Independant)</text></g></g><g transform="translate(5,10) scale(1,1)"><rect fill="#ffffff" stroke="none" x="868" y="720" width="13" height="136"/></g><g transform="translate(5,10) scale(1,1)"><path fill="none" stroke="#000000" d="M 868 720 L 881 720 L 881 856 L 868 856 L 868 720 Z Z" stroke-miterlimit="10"/></g><g transform="translate(5,10) scale(1,1)"><path fill="none" stroke="#000000" d="M 881 736 L 911 736 L 911 756 L 888 756" stroke-miterlimit="10"/></g><g transform="translate(5,10) scale(1,1)"><path fill="#000000" stroke="none" d="M 898.1626748576241 751.790482243984 L 888 756 L 898.1626748576241 760.209517756016"/></g><g transform="translate(5,10) scale(1,1)"><path fill="none" stroke="#000000" d="M 898.1626748576241 751.790482243984 L 888 756 L 898.1626748576241 760.209517756016 L 898.1626748576241 751.790482243984" stroke-miterlimit="10"/></g><g transform="translate(5,10) scale(1,1)"><g><path fill="none" stroke="none"/><text fill="#000000" stroke="none" font-family="Arial" font-size="13px" font-style="normal" font-weight="normal" text-decoration="none" x="885" y="752">15 : initView</text></g></g><g transform="translate(5,10) scale(1,1)"><rect fill="#ffffff" stroke="none" x="875" y="756" width="13" height="28"/></g><g transform="translate(5,10) scale(1,1)"><path fill="none" stroke="#000000" d="M 875 756 L 888 756 L 888 784 L 875 784 L 875 756 Z Z" stroke-miterlimit="10"/></g><g transform="translate(5,10) scale(1,1)"><path fill="none" stroke="#000000" d="M 881 792 L 911 792 L 911 812 L 888 812" stroke-miterlimit="10"/></g><g transform="translate(5,10) scale(1,1)"><path fill="#000000" stroke="none" d="M 898.1626748576241 807.790482243984 L 888 812 L 898.1626748576241 816.209517756016"/></g><g transform="translate(5,10) scale(1,1)"><path fill="none" stroke="#000000" d="M 898.1626748576241 807.790482243984 L 888 812 L 898.1626748576241 816.209517756016 L 898.1626748576241 807.790482243984" stroke-miterlimit="10"/></g><g transform="translate(5,10) scale(1,1)"><g><path fill="none" stroke="none"/><text fill="#000000" stroke="none" font-family="Arial" font-size="13px" font-style="normal" font-weight="normal" text-decoration="none" x="887" y="808">16 : initMap</text></g></g><g transform="translate(5,10) scale(1,1)"><rect fill="#ffffff" stroke="none" x="875" y="812" width="13" height="28"/></g><g transform="translate(5,10) scale(1,1)"><path fill="none" stroke="#000000" d="M 875 812 L 888 812 L 888 840 L 875 840 L 875 812 Z Z" stroke-miterlimit="10"/></g><g transform="translate(5,10) scale(1,1)"><path fill="none" stroke="#000000" d="M 868 840 L 121 840" stroke-miterlimit="10" stroke-dasharray="3"/></g><g transform="translate(5,10) scale(1,1)"><path fill="none" stroke="#000000" d="M 131.16267485762415 835.790482243984 L 121 840 L 131.16267485762415 844.209517756016" stroke-miterlimit="10"/></g><g transform="translate(5,10) scale(1,1)"><g><path fill="none" stroke="none"/><text fill="#000000" stroke="none" font-family="Arial" font-size="13px" font-style="normal" font-weight="normal" text-decoration="none" x="434" y="857">17 : DetailIndepView</text></g></g></g></svg>