<svg version="1.1" xmlns="http://www.w3.org/2000/svg" xmlns:xlink="http://www.w3.org/1999/xlink" width="852.82080078125" height="832"><defs/><g><g transform="translate(10,-14) scale(1,1)"><rect fill="#C0C0C0" stroke="none" x="153" y="623" width="167.77001953125" height="44" opacity="0.2"/></g><g transform="translate(10,-14) scale(1,1)"><rect fill="#ffff00" stroke="none" x="146" y="616" width="167.77001953125" height="44"/></g><g transform="translate(10,-14) scale(1,1)"><path fill="none" stroke="#000000" d="M 146 616 L 313.77001953125 616 L 313.77001953125 660 L 146 660 L 146 616 Z Z" stroke-miterlimit="10"/></g><g transform="translate(10,-14) scale(1,1)"><rect fill="#ffff00" stroke="none" x="136" y="623" width="20" height="10"/></g><g transform="translate(10,-14) scale(1,1)"><path fill="none" stroke="#000000" d="M 136 623 L 156 623 L 156 633 L 136 633 L 136 623 Z Z" stroke-miterlimit="10"/></g><g transform="translate(10,-14) scale(1,1)"><rect fill="#ffff00" stroke="none" x="136" y="643" width="20" height="10"/></g><g transform="translate(10,-14) scale(1,1)"><path fill="none" stroke="#000000" d="M 136 643 L 156 643 L 156 653 L 136 653 L 136 643 Z Z" stroke-miterlimit="10"/></g><g transform="translate(10,-14) scale(1,1)"><g><path fill="none" stroke="none"/><text fill="#000000" stroke="none" font-family="Arial" font-size="13px" font-style="normal" font-weight="normal" text-decoration="none" x="217.175048828125" y="633.5">«apk»</text></g></g><g transform="translate(10,-14) scale(1,1)"><g><path fill="none" stroke="none"/><text fill="#000000" stroke="none" font-family="Arial" font-size="13px" font-style="normal" font-weight="bold" text-decoration="none" x="192.62548828125" y="648.5">CRM-Tab v1.0</text></g></g><g transform="translate(10,-14) scale(1,1)"><rect fill="#C0C0C0" stroke="none" x="297" y="343" width="195.287109375" height="44" opacity="0.2"/></g><g transform="translate(10,-14) scale(1,1)"><rect fill="#ffff00" stroke="none" x="290" y="336" width="195.287109375" height="44"/></g><g transform="translate(10,-14) scale(1,1)"><path fill="none" stroke="#000000" d="M 290 336 L 485.287109375 336 L 485.287109375 380 L 290 380 L 290 336 Z Z" stroke-miterlimit="10"/></g><g transform="translate(10,-14) scale(1,1)"><rect fill="#ffff00" stroke="none" x="280" y="343" width="20" height="10"/></g><g transform="translate(10,-14) scale(1,1)"><path fill="none" stroke="#000000" d="M 280 343 L 300 343 L 300 353 L 280 353 L 280 343 Z Z" stroke-miterlimit="10"/></g><g transform="translate(10,-14) scale(1,1)"><rect fill="#ffff00" stroke="none" x="280" y="363" width="20" height="10"/></g><g transform="translate(10,-14) scale(1,1)"><path fill="none" stroke="#000000" d="M 280 363 L 300 363 L 300 373 L 280 373 L 280 363 Z Z" stroke-miterlimit="10"/></g><g transform="translate(10,-14) scale(1,1)"><g><path fill="none" stroke="none"/><text fill="#000000" stroke="none" font-family="Arial" font-size="13px" font-style="normal" font-weight="normal" text-decoration="none" x="374.93994140625" y="353.5">«war»</text></g></g><g transform="translate(10,-14) scale(1,1)"><g><path fill="none" stroke="none"/><text fill="#000000" stroke="none" font-family="Arial" font-size="13px" font-style="normal" font-weight="bold" text-decoration="none" x="305.95361328125" y="368.5">Server REST SNAPSHOT 1.0</text></g></g><g transform="translate(10,-14) scale(1,1)"><rect fill="#C0C0C0" stroke="none" x="465" y="607" width="134.5400390625" height="44" opacity="0.2"/></g><g transform="translate(10,-14) scale(1,1)"><rect fill="#ff0000" stroke="none" x="458" y="600" width="134.5400390625" height="44"/></g><g transform="translate(10,-14) scale(1,1)"><path fill="none" stroke="#000000" d="M 458 600 L 592.5400390625 600 L 592.5400390625 644 L 458 644 L 458 600 Z Z" stroke-miterlimit="10"/></g><g transform="translate(10,-14) scale(1,1)"><rect fill="#ff0000" stroke="none" x="448" y="607" width="20" height="10"/></g><g transform="translate(10,-14) scale(1,1)"><path fill="none" stroke="#000000" d="M 448 607 L 468 607 L 468 617 L 448 617 L 448 607 Z Z" stroke-miterlimit="10"/></g><g transform="translate(10,-14) scale(1,1)"><rect fill="#ff0000" stroke="none" x="448" y="627" width="20" height="10"/></g><g transform="translate(10,-14) scale(1,1)"><path fill="none" stroke="#000000" d="M 448 627 L 468 627 L 468 637 L 448 637 L 448 627 Z Z" stroke-miterlimit="10"/></g><g transform="translate(10,-14) scale(1,1)"><g><path fill="none" stroke="none"/><text fill="#000000" stroke="none" font-family="Arial" font-size="13px" font-style="normal" font-weight="normal" text-decoration="none" x="515.81640625" y="617.5">«jar»</text></g></g><g transform="translate(10,-14) scale(1,1)"><g><path fill="none" stroke="none"/><text fill="#000000" stroke="none" font-family="Arial" font-size="13px" font-style="normal" font-weight="bold" text-decoration="none" x="498.477783203125" y="632.5">Retrofit 2.0</text></g></g><g transform="translate(10,-14) scale(1,1)"><path fill="none" stroke="#000000" d="M 315 633 L 447 626" stroke-miterlimit="10" stroke-dasharray="3"/></g><g transform="translate(10,-14) scale(1,1)"><path fill="none" stroke="#000000" d="M 437.0745036514629 630.7417847099143 L 447 626 L 436.628666102 622.3345623486142" stroke-miterlimit="10"/></g><g transform="translate(10,-14) scale(1,1)"><rect fill="#C0C0C0" stroke="none" x="377" y="791" width="135.314453125" height="44" opacity="0.2"/></g><g transform="translate(10,-14) scale(1,1)"><rect fill="#ff0000" stroke="none" x="370" y="784" width="135.314453125" height="44"/></g><g transform="translate(10,-14) scale(1,1)"><path fill="none" stroke="#000000" d="M 370 784 L 505.314453125 784 L 505.314453125 828 L 370 828 L 370 784 Z Z" stroke-miterlimit="10"/></g><g transform="translate(10,-14) scale(1,1)"><rect fill="#ff0000" stroke="none" x="360" y="791" width="20" height="10"/></g><g transform="translate(10,-14) scale(1,1)"><path fill="none" stroke="#000000" d="M 360 791 L 380 791 L 380 801 L 360 801 L 360 791 Z Z" stroke-miterlimit="10"/></g><g transform="translate(10,-14) scale(1,1)"><rect fill="#ff0000" stroke="none" x="360" y="811" width="20" height="10"/></g><g transform="translate(10,-14) scale(1,1)"><path fill="none" stroke="#000000" d="M 360 811 L 380 811 L 380 821 L 360 821 L 360 811 Z Z" stroke-miterlimit="10"/></g><g transform="translate(10,-14) scale(1,1)"><g><path fill="none" stroke="none"/><text fill="#000000" stroke="none" font-family="Arial" font-size="13px" font-style="normal" font-weight="normal" text-decoration="none" x="428.20361328125" y="801.5">«jar»</text></g></g><g transform="translate(10,-14) scale(1,1)"><g><path fill="none" stroke="none"/><text fill="#000000" stroke="none" font-family="Arial" font-size="13px" font-style="normal" font-weight="bold" text-decoration="none" x="387.734130859375" y="816.5">SpeechRecognizer</text></g></g><g transform="translate(10,-14) scale(1,1)"><path fill="none" stroke="#000000" d="M 252 661 L 404 783" stroke-miterlimit="10" stroke-dasharray="3"/></g><g transform="translate(10,-14) scale(1,1)"><path fill="none" stroke="#000000" d="M 393.43953908557006 779.9215807181612 L 404 783 L 398.7093976244748 773.3558553254275" stroke-miterlimit="10"/></g><g transform="translate(10,-14) scale(1,1)"><rect fill="#C0C0C0" stroke="none" x="97" y="799" width="98.44091796875" height="44" opacity="0.2"/></g><g transform="translate(10,-14) scale(1,1)"><rect fill="#ff0000" stroke="none" x="90" y="792" width="98.44091796875" height="44"/></g><g transform="translate(10,-14) scale(1,1)"><path fill="none" stroke="#000000" d="M 90 792 L 188.44091796875 792 L 188.44091796875 836 L 90 836 L 90 792 Z Z" stroke-miterlimit="10"/></g><g transform="translate(10,-14) scale(1,1)"><rect fill="#ff0000" stroke="none" x="80" y="799" width="20" height="10"/></g><g transform="translate(10,-14) scale(1,1)"><path fill="none" stroke="#000000" d="M 80 799 L 100 799 L 100 809 L 80 809 L 80 799 Z Z" stroke-miterlimit="10"/></g><g transform="translate(10,-14) scale(1,1)"><rect fill="#ff0000" stroke="none" x="80" y="819" width="20" height="10"/></g><g transform="translate(10,-14) scale(1,1)"><path fill="none" stroke="#000000" d="M 80 819 L 100 819 L 100 829 L 80 829 L 80 819 Z Z" stroke-miterlimit="10"/></g><g transform="translate(10,-14) scale(1,1)"><g><path fill="none" stroke="none"/><text fill="#000000" stroke="none" font-family="Arial" font-size="13px" font-style="normal" font-weight="normal" text-decoration="none" x="129.766845703125" y="809.5">«jar»</text></g></g><g transform="translate(10,-14) scale(1,1)"><g><path fill="none" stroke="none"/><text fill="#000000" stroke="none" font-family="Arial" font-size="13px" font-style="normal" font-weight="bold" text-decoration="none" x="117.8427734375" y="824.5">Gson 2.5</text></g></g><g transform="translate(10,-14) scale(1,1)"><path fill="none" stroke="#000000" d="M 212 661 L 146 791" stroke-miterlimit="10" stroke-dasharray="3"/></g><g transform="translate(10,-14) scale(1,1)"><path fill="none" stroke="#000000" d="M 146.84707816530488 780.0326640161859 L 146 791 L 154.35405236058833 783.8438970691759" stroke-miterlimit="10"/></g><g transform="translate(10,-14) scale(1,1)"><rect fill="#C0C0C0" stroke="none" x="673" y="255" width="98.44091796875" height="44" opacity="0.2"/></g><g transform="translate(10,-14) scale(1,1)"><rect fill="#fb0000" stroke="none" x="666" y="248" width="98.44091796875" height="44"/></g><g transform="translate(10,-14) scale(1,1)"><path fill="none" stroke="#000000" d="M 666 248 L 764.44091796875 248 L 764.44091796875 292 L 666 292 L 666 248 Z Z" stroke-miterlimit="10"/></g><g transform="translate(10,-14) scale(1,1)"><rect fill="#fb0000" stroke="none" x="656" y="255" width="20" height="10"/></g><g transform="translate(10,-14) scale(1,1)"><path fill="none" stroke="#000000" d="M 656 255 L 676 255 L 676 265 L 656 265 L 656 255 Z Z" stroke-miterlimit="10"/></g><g transform="translate(10,-14) scale(1,1)"><rect fill="#fb0000" stroke="none" x="656" y="275" width="20" height="10"/></g><g transform="translate(10,-14) scale(1,1)"><path fill="none" stroke="#000000" d="M 656 275 L 676 275 L 676 285 L 656 285 L 656 275 Z Z" stroke-miterlimit="10"/></g><g transform="translate(10,-14) scale(1,1)"><g><path fill="none" stroke="none"/><text fill="#000000" stroke="none" font-family="Arial" font-size="13px" font-style="normal" font-weight="normal" text-decoration="none" x="705.766845703125" y="265.5">«jar»</text></g></g><g transform="translate(10,-14) scale(1,1)"><g><path fill="none" stroke="none"/><text fill="#000000" stroke="none" font-family="Arial" font-size="13px" font-style="normal" font-weight="bold" text-decoration="none" x="702.52001953125" y="280.5">JRE 8</text></g></g><g transform="translate(10,-14) scale(1,1)"><rect fill="#C0C0C0" stroke="none" x="633" y="343" width="206.82080078125" height="44" opacity="0.2"/></g><g transform="translate(10,-14) scale(1,1)"><rect fill="#ff0000" stroke="none" x="626" y="336" width="206.82080078125" height="44"/></g><g transform="translate(10,-14) scale(1,1)"><path fill="none" stroke="#000000" d="M 626 336 L 832.82080078125 336 L 832.82080078125 380 L 626 380 L 626 336 Z Z" stroke-miterlimit="10"/></g><g transform="translate(10,-14) scale(1,1)"><rect fill="#ff0000" stroke="none" x="616" y="343" width="20" height="10"/></g><g transform="translate(10,-14) scale(1,1)"><path fill="none" stroke="#000000" d="M 616 343 L 636 343 L 636 353 L 616 353 L 616 343 Z Z" stroke-miterlimit="10"/></g><g transform="translate(10,-14) scale(1,1)"><rect fill="#ff0000" stroke="none" x="616" y="363" width="20" height="10"/></g><g transform="translate(10,-14) scale(1,1)"><path fill="none" stroke="#000000" d="M 616 363 L 636 363 L 636 373 L 616 373 L 616 363 Z Z" stroke-miterlimit="10"/></g><g transform="translate(10,-14) scale(1,1)"><g><path fill="none" stroke="none"/><text fill="#000000" stroke="none" font-family="Arial" font-size="13px" font-style="normal" font-weight="normal" text-decoration="none" x="719.956787109375" y="353.5">«jar»</text></g></g><g transform="translate(10,-14) scale(1,1)"><g><path fill="none" stroke="none"/><text fill="#000000" stroke="none" font-family="Arial" font-size="13px" font-style="normal" font-weight="bold" text-decoration="none" x="645.530517578125" y="368.5">spring-context 3.1.1.RELEASE</text></g></g><g transform="translate(10,-14) scale(1,1)"><rect fill="#C0C0C0" stroke="none" x="153" y="183" width="98.44091796875" height="44" opacity="0.2"/></g><g transform="translate(10,-14) scale(1,1)"><rect fill="#ff0000" stroke="none" x="146" y="176" width="98.44091796875" height="44"/></g><g transform="translate(10,-14) scale(1,1)"><path fill="none" stroke="#000000" d="M 146 176 L 244.44091796875 176 L 244.44091796875 220 L 146 220 L 146 176 Z Z" stroke-miterlimit="10"/></g><g transform="translate(10,-14) scale(1,1)"><rect fill="#ff0000" stroke="none" x="136" y="183" width="20" height="10"/></g><g transform="translate(10,-14) scale(1,1)"><path fill="none" stroke="#000000" d="M 136 183 L 156 183 L 156 193 L 136 193 L 136 183 Z Z" stroke-miterlimit="10"/></g><g transform="translate(10,-14) scale(1,1)"><rect fill="#ff0000" stroke="none" x="136" y="203" width="20" height="10"/></g><g transform="translate(10,-14) scale(1,1)"><path fill="none" stroke="#000000" d="M 136 203 L 156 203 L 156 213 L 136 213 L 136 203 Z Z" stroke-miterlimit="10"/></g><g transform="translate(10,-14) scale(1,1)"><g><path fill="none" stroke="none"/><text fill="#000000" stroke="none" font-family="Arial" font-size="13px" font-style="normal" font-weight="normal" text-decoration="none" x="185.766845703125" y="193.5">«jar»</text></g></g><g transform="translate(10,-14) scale(1,1)"><g><path fill="none" stroke="none"/><text fill="#000000" stroke="none" font-family="Arial" font-size="13px" font-style="normal" font-weight="bold" text-decoration="none" x="173.128662109375" y="208.5">Tomcat 8</text></g></g><g transform="translate(10,-14) scale(1,1)"><path fill="none" stroke="#000000" d="M 486 358 L 615 358" stroke-miterlimit="10" stroke-dasharray="3"/></g><g transform="translate(10,-14) scale(1,1)"><path fill="none" stroke="#000000" d="M 604.8373251423759 362.209517756016 L 615 358 L 604.8373251423758 353.790482243984" stroke-miterlimit="10"/></g><g transform="translate(10,-14) scale(1,1)"><path fill="none" stroke="#000000" d="M 468 335 L 655 285" stroke-miterlimit="10" stroke-dasharray="3"/></g><g transform="translate(10,-14) scale(1,1)"><path fill="none" stroke="#000000" d="M 646.2695557758054 291.69173696794996 L 655 285 L 644.094871098347 283.55841627425525" stroke-miterlimit="10"/></g><g transform="translate(10,-14) scale(1,1)"><path fill="none" stroke="#000000" d="M 354 335 L 218 221" stroke-miterlimit="10" stroke-dasharray="3"/></g><g transform="translate(10,-14) scale(1,1)"><path fill="none" stroke="#000000" d="M 228.49256356521684 224.30243998126903 L 218 221 L 223.08418514377883 230.7545405542126" stroke-miterlimit="10"/></g><g transform="translate(10,-14) scale(1,1)"><path fill="#C0C0C0" stroke="none" d="M 378.272216796875 466.5 C 378.272216796875 460.1487248 383.420941596875 455 389.772216796875 455 C 396.123491996875 455 401.272216796875 460.1487248 401.272216796875 466.5 C 401.272216796875 472.8512752 396.123491996875 478 389.772216796875 478 C 383.420941596875 478 378.272216796875 472.8512752 378.272216796875 466.5 Z" opacity="0.2"/></g><g transform="translate(10,-14) scale(1,1)"><path fill="none" stroke="#000000" d="M 391.8382509087097 453.04526918683365 A 11.5 11.5 0 0 1 372.1617490912903 464.95473081316635" stroke-miterlimit="10"/></g><g transform="translate(10,-14) scale(1,1)"><path fill="#ffffff" stroke="none" d="M 374.272216796875 459.5 C 374.272216796875 454.8055792 378.077795996875 451 382.772216796875 451 C 387.466637596875 451 391.272216796875 454.8055792 391.272216796875 459.5 C 391.272216796875 464.1944208 387.466637596875 468 382.772216796875 468 C 378.077795996875 468 374.272216796875 464.1944208 374.272216796875 459.5 Z"/></g><g transform="translate(10,-14) scale(1,1)"><path fill="none" stroke="#000000" d="M 374.272216796875 459.5 C 374.272216796875 454.8055792 378.077795996875 451 382.772216796875 451 C 387.466637596875 451 391.272216796875 454.8055792 391.272216796875 459.5 C 391.272216796875 464.1944208 387.466637596875 468 382.772216796875 468 C 378.077795996875 468 374.272216796875 464.1944208 374.272216796875 459.5 Z" stroke-miterlimit="10"/></g><g transform="translate(10,-14) scale(1,1)"><g><path fill="none" stroke="none"/><text fill="#000000" stroke="none" font-family="Arial" font-size="13px" font-style="normal" font-weight="bold" text-decoration="none" x="342.67724609375" y="490.5">IWebServices</text></g></g><g transform="translate(10,-14) scale(1,1)"><path fill="none" stroke="#000000" d="M 499 599 L 389.2631578947368 471" stroke-miterlimit="10"/></g><g transform="translate(10,-14) scale(1,1)"><path fill="none" stroke="#000000" d="M 382 381 L 382 448" stroke-miterlimit="10"/></g><g transform="translate(10,-14) scale(1,1)"><g><path fill="none" stroke="none"/><text fill="#000000" stroke="none" font-family="Arial" font-size="13px" font-style="normal" font-weight="normal" text-decoration="none" x="379" y="530">«http»</text></g></g><g transform="translate(10,-14) scale(1,1)"><rect fill="#C0C0C0" stroke="none" x="377" y="31" width="98.44091796875" height="44" opacity="0.2"/></g><g transform="translate(10,-14) scale(1,1)"><rect fill="#7af900" stroke="none" x="370" y="24" width="98.44091796875" height="44"/></g><g transform="translate(10,-14) scale(1,1)"><path fill="none" stroke="#000000" d="M 370 24 L 468.44091796875 24 L 468.44091796875 68 L 370 68 L 370 24 Z Z" stroke-miterlimit="10"/></g><g transform="translate(10,-14) scale(1,1)"><rect fill="#7af900" stroke="none" x="360" y="31" width="20" height="10"/></g><g transform="translate(10,-14) scale(1,1)"><path fill="none" stroke="#000000" d="M 360 31 L 380 31 L 380 41 L 360 41 L 360 31 Z Z" stroke-miterlimit="10"/></g><g transform="translate(10,-14) scale(1,1)"><rect fill="#7af900" stroke="none" x="360" y="51" width="20" height="10"/></g><g transform="translate(10,-14) scale(1,1)"><path fill="none" stroke="#000000" d="M 360 51 L 380 51 L 380 61 L 360 61 L 360 51 Z Z" stroke-miterlimit="10"/></g><g transform="translate(10,-14) scale(1,1)"><g><path fill="none" stroke="none"/><text fill="#000000" stroke="none" font-family="Arial" font-size="13px" font-style="normal" font-weight="normal" text-decoration="none" x="390.24462890625" y="41.5">«database»</text></g></g><g transform="translate(10,-14) scale(1,1)"><g><path fill="none" stroke="none"/><text fill="#000000" stroke="none" font-family="Arial" font-size="13px" font-style="normal" font-weight="bold" text-decoration="none" x="389.8955078125" y="56.5">MongoDB 3</text></g></g><g transform="translate(10,-14) scale(1,1)"><rect fill="#C0C0C0" stroke="none" x="361" y="223" width="98.44091796875" height="44" opacity="0.2"/></g><g transform="translate(10,-14) scale(1,1)"><rect fill="#ff0000" stroke="none" x="354" y="216" width="98.44091796875" height="44"/></g><g transform="translate(10,-14) scale(1,1)"><path fill="none" stroke="#000000" d="M 354 216 L 452.44091796875 216 L 452.44091796875 260 L 354 260 L 354 216 Z Z" stroke-miterlimit="10"/></g><g transform="translate(10,-14) scale(1,1)"><rect fill="#ff0000" stroke="none" x="344" y="223" width="20" height="10"/></g><g transform="translate(10,-14) scale(1,1)"><path fill="none" stroke="#000000" d="M 344 223 L 364 223 L 364 233 L 344 233 L 344 223 Z Z" stroke-miterlimit="10"/></g><g transform="translate(10,-14) scale(1,1)"><rect fill="#ff0000" stroke="none" x="344" y="243" width="20" height="10"/></g><g transform="translate(10,-14) scale(1,1)"><path fill="none" stroke="#000000" d="M 344 243 L 364 243 L 364 253 L 344 253 L 344 243 Z Z" stroke-miterlimit="10"/></g><g transform="translate(10,-14) scale(1,1)"><g><path fill="none" stroke="none"/><text fill="#000000" stroke="none" font-family="Arial" font-size="13px" font-style="normal" font-weight="normal" text-decoration="none" x="393.766845703125" y="233.5">«jar»</text></g></g><g transform="translate(10,-14) scale(1,1)"><g><path fill="none" stroke="none"/><text fill="#000000" stroke="none" font-family="Arial" font-size="13px" font-style="normal" font-weight="bold" text-decoration="none" x="375.701416015625" y="248.5">SpringData</text></g></g><g transform="translate(10,-14) scale(1,1)"><path fill="none" stroke="#000000" d="M 385 335 L 395 261" stroke-miterlimit="10" stroke-dasharray="3"/></g><g transform="translate(10,-14) scale(1,1)"><path fill="none" stroke="#000000" d="M 397.8106361972104 271.63486361769304 L 395 261 L 389.467435733431 270.5074040955607" stroke-miterlimit="10"/></g><g transform="translate(10,-14) scale(1,1)"><path fill="#C0C0C0" stroke="none" d="M 390.7099609375 130.5 C 390.7099609375 124.1487248 395.8586857375 119 402.2099609375 119 C 408.5612361375 119 413.7099609375 124.1487248 413.7099609375 130.5 C 413.7099609375 136.8512752 408.5612361375 142 402.2099609375 142 C 395.8586857375 142 390.7099609375 136.8512752 390.7099609375 130.5 Z" opacity="0.2"/></g><g transform="translate(10,-14) scale(1,1)"><path fill="none" stroke="#000000" d="M 406.4960200725577 122.6974731559853 A 11.5 11.5 0 0 1 383.5039799274423 123.3025268440147" stroke-miterlimit="10"/></g><g transform="translate(10,-14) scale(1,1)"><path fill="#ffffff" stroke="none" d="M 386.7099609375 123.5 C 386.7099609375 118.8055792 390.5155401375 115 395.2099609375 115 C 399.9043817375 115 403.7099609375 118.8055792 403.7099609375 123.5 C 403.7099609375 128.1944208 399.9043817375 132 395.2099609375 132 C 390.5155401375 132 386.7099609375 128.1944208 386.7099609375 123.5 Z"/></g><g transform="translate(10,-14) scale(1,1)"><path fill="none" stroke="#000000" d="M 386.7099609375 123.5 C 386.7099609375 118.8055792 390.5155401375 115 395.2099609375 115 C 399.9043817375 115 403.7099609375 118.8055792 403.7099609375 123.5 C 403.7099609375 128.1944208 399.9043817375 132 395.2099609375 132 C 390.5155401375 132 386.7099609375 128.1944208 386.7099609375 123.5 Z" stroke-miterlimit="10"/></g><g transform="translate(10,-14) scale(1,1)"><g><path fill="none" stroke="none"/><text fill="#000000" stroke="none" font-family="Arial" font-size="13px" font-style="normal" font-weight="bold" text-decoration="none" x="365.5791015625" y="154.5">IDatabase</text></g></g><g transform="translate(10,-14) scale(1,1)"><path fill="none" stroke="#000000" d="M 409 69 L 399.5833333333333 112" stroke-miterlimit="10"/></g><g transform="translate(10,-14) scale(1,1)"><path fill="none" stroke="#000000" d="M 397 215 L 395.3157894736842 135" stroke-miterlimit="10"/></g><g transform="translate(10,-14) scale(1,1)"><rect fill="#C0C0C0" stroke="none" x="33" y="703" width="98.44091796875" height="44" opacity="0.2"/></g><g transform="translate(10,-14) scale(1,1)"><rect fill="#02a6ff" stroke="none" x="26" y="696" width="98.44091796875" height="44"/></g><g transform="translate(10,-14) scale(1,1)"><path fill="none" stroke="#000000" d="M 26 696 L 124.44091796875 696 L 124.44091796875 740 L 26 740 L 26 696 Z Z" stroke-miterlimit="10"/></g><g transform="translate(10,-14) scale(1,1)"><rect fill="#02a6ff" stroke="none" x="16" y="703" width="20" height="10"/></g><g transform="translate(10,-14) scale(1,1)"><path fill="none" stroke="#000000" d="M 16 703 L 36 703 L 36 713 L 16 713 L 16 703 Z Z" stroke-miterlimit="10"/></g><g transform="translate(10,-14) scale(1,1)"><rect fill="#02a6ff" stroke="none" x="16" y="723" width="20" height="10"/></g><g transform="translate(10,-14) scale(1,1)"><path fill="none" stroke="#000000" d="M 16 723 L 36 723 L 36 733 L 16 733 L 16 723 Z Z" stroke-miterlimit="10"/></g><g transform="translate(10,-14) scale(1,1)"><g><path fill="none" stroke="none"/><text fill="#000000" stroke="none" font-family="Arial" font-size="13px" font-style="normal" font-weight="bold" text-decoration="none" x="57.819580078125" y="715.5">SDK 19</text></g></g><g transform="translate(10,-14) scale(1,1)"><path fill="none" stroke="#000000" d="M 180 661 L 114 695" stroke-miterlimit="10" stroke-dasharray="3"/></g><g transform="translate(10,-14) scale(1,1)"><path fill="none" stroke="#000000" d="M 121.10658297794568 686.6037819003094 L 114 695 L 124.96213576938275 694.0880902601579" stroke-miterlimit="10"/></g><g transform="translate(10,-14) scale(1,1)"><rect fill="#C0C0C0" stroke="none" x="481" y="711" width="120.1435546875" height="44" opacity="0.2"/></g><g transform="translate(10,-14) scale(1,1)"><rect fill="#ff0000" stroke="none" x="474" y="704" width="120.1435546875" height="44"/></g><g transform="translate(10,-14) scale(1,1)"><path fill="none" stroke="#000000" d="M 474 704 L 594.1435546875 704 L 594.1435546875 748 L 474 748 L 474 704 Z Z" stroke-miterlimit="10"/></g><g transform="translate(10,-14) scale(1,1)"><rect fill="#ff0000" stroke="none" x="464" y="711" width="20" height="10"/></g><g transform="translate(10,-14) scale(1,1)"><path fill="none" stroke="#000000" d="M 464 711 L 484 711 L 484 721 L 464 721 L 464 711 Z Z" stroke-miterlimit="10"/></g><g transform="translate(10,-14) scale(1,1)"><rect fill="#ff0000" stroke="none" x="464" y="731" width="20" height="10"/></g><g transform="translate(10,-14) scale(1,1)"><path fill="none" stroke="#000000" d="M 464 731 L 484 731 L 484 741 L 464 741 L 464 731 Z Z" stroke-miterlimit="10"/></g><g transform="translate(10,-14) scale(1,1)"><g><path fill="none" stroke="none"/><text fill="#000000" stroke="none" font-family="Arial" font-size="13px" font-style="normal" font-weight="normal" text-decoration="none" x="524.6181640625" y="721.5">«jar»</text></g></g><g transform="translate(10,-14) scale(1,1)"><g><path fill="none" stroke="none"/><text fill="#000000" stroke="none" font-family="Arial" font-size="13px" font-style="normal" font-weight="bold" text-decoration="none" x="491.7373046875" y="736.5">Butterknife 7.0.1</text></g></g><g transform="translate(10,-14) scale(1,1)"><path fill="none" stroke="#000000" d="M 304 661 L 463 707" stroke-miterlimit="10" stroke-dasharray="3"/></g><g transform="translate(10,-14) scale(1,1)"><path fill="none" stroke="#000000" d="M 452.06779338293575 708.2193680665887 L 463 707 L 454.40753913909424 700.1319859963886" stroke-miterlimit="10"/></g><g transform="translate(10,-14) scale(1,1)"><rect fill="#C0C0C0" stroke="none" x="17" y="535" width="133.9052734375" height="44" opacity="0.2"/></g><g transform="translate(10,-14) scale(1,1)"><rect fill="#ff0000" stroke="none" x="10" y="528" width="133.9052734375" height="44"/></g><g transform="translate(10,-14) scale(1,1)"><path fill="none" stroke="#000000" d="M 10 528 L 143.9052734375 528 L 143.9052734375 572 L 10 572 L 10 528 Z Z" stroke-miterlimit="10"/></g><g transform="translate(10,-14) scale(1,1)"><rect fill="#ff0000" stroke="none" x="0" y="535" width="20" height="10"/></g><g transform="translate(10,-14) scale(1,1)"><path fill="none" stroke="#000000" d="M 0 535 L 20 535 L 20 545 L 0 545 L 0 535 Z Z" stroke-miterlimit="10"/></g><g transform="translate(10,-14) scale(1,1)"><rect fill="#ff0000" stroke="none" x="0" y="555" width="20" height="10"/></g><g transform="translate(10,-14) scale(1,1)"><path fill="none" stroke="#000000" d="M 0 555 L 20 555 L 20 565 L 0 565 L 0 555 Z Z" stroke-miterlimit="10"/></g><g transform="translate(10,-14) scale(1,1)"><g><path fill="none" stroke="none"/><text fill="#000000" stroke="none" font-family="Arial" font-size="13px" font-style="normal" font-weight="bold" text-decoration="none" x="27.397705078125" y="547.5">cardview-v7:23.1.1</text></g></g><g transform="translate(10,-14) scale(1,1)"><path fill="none" stroke="#000000" d="M 184 615 L 111 573" stroke-miterlimit="10" stroke-dasharray="3"/></g><g transform="translate(10,-14) scale(1,1)"><path fill="none" stroke="#000000" d="M 121.9080450526828 574.4193495442076 L 111 573 L 117.70952093865715 581.7167843138236" stroke-miterlimit="10"/></g><g transform="translate(10,-14) scale(1,1)"><rect fill="#C0C0C0" stroke="none" x="193" y="95" width="107.1689453125" height="44" opacity="0.2"/></g><g transform="translate(10,-14) scale(1,1)"><rect fill="#ff2b2b" stroke="none" x="186" y="88" width="107.1689453125" height="44"/></g><g transform="translate(10,-14) scale(1,1)"><path fill="none" stroke="#000000" d="M 186 88 L 293.1689453125 88 L 293.1689453125 132 L 186 132 L 186 88 Z Z" stroke-miterlimit="10"/></g><g transform="translate(10,-14) scale(1,1)"><rect fill="#ff2b2b" stroke="none" x="176" y="95" width="20" height="10"/></g><g transform="translate(10,-14) scale(1,1)"><path fill="none" stroke="#000000" d="M 176 95 L 196 95 L 196 105 L 176 105 L 176 95 Z Z" stroke-miterlimit="10"/></g><g transform="translate(10,-14) scale(1,1)"><rect fill="#ff2b2b" stroke="none" x="176" y="115" width="20" height="10"/></g><g transform="translate(10,-14) scale(1,1)"><path fill="none" stroke="#000000" d="M 176 115 L 196 115 L 196 125 L 176 125 L 176 115 Z Z" stroke-miterlimit="10"/></g><g transform="translate(10,-14) scale(1,1)"><g><path fill="none" stroke="none"/><text fill="#000000" stroke="none" font-family="Arial" font-size="13px" font-style="normal" font-weight="normal" text-decoration="none" x="230.130859375" y="105.5">«jar»</text></g></g><g transform="translate(10,-14) scale(1,1)"><g><path fill="none" stroke="none"/><text fill="#000000" stroke="none" font-family="Arial" font-size="13px" font-style="normal" font-weight="bold" text-decoration="none" x="202.667724609375" y="120.5">jackson 1.9.13</text></g></g><g transform="translate(10,-14) scale(1,1)"><rect fill="#C0C0C0" stroke="none" x="609" y="87" width="98.44091796875" height="44" opacity="0.2"/></g><g transform="translate(10,-14) scale(1,1)"><rect fill="#ff2b2b" stroke="none" x="602" y="80" width="98.44091796875" height="44"/></g><g transform="translate(10,-14) scale(1,1)"><path fill="none" stroke="#000000" d="M 602 80 L 700.44091796875 80 L 700.44091796875 124 L 602 124 L 602 80 Z Z" stroke-miterlimit="10"/></g><g transform="translate(10,-14) scale(1,1)"><rect fill="#ff2b2b" stroke="none" x="592" y="87" width="20" height="10"/></g><g transform="translate(10,-14) scale(1,1)"><path fill="none" stroke="#000000" d="M 592 87 L 612 87 L 612 97 L 592 97 L 592 87 Z Z" stroke-miterlimit="10"/></g><g transform="translate(10,-14) scale(1,1)"><rect fill="#ff2b2b" stroke="none" x="592" y="107" width="20" height="10"/></g><g transform="translate(10,-14) scale(1,1)"><path fill="none" stroke="#000000" d="M 592 107 L 612 107 L 612 117 L 592 117 L 592 107 Z Z" stroke-miterlimit="10"/></g><g transform="translate(10,-14) scale(1,1)"><g><path fill="none" stroke="none"/><text fill="#000000" stroke="none" font-family="Arial" font-size="13px" font-style="normal" font-weight="normal" text-decoration="none" x="641.766845703125" y="97.5">«jar»</text></g></g><g transform="translate(10,-14) scale(1,1)"><g><path fill="none" stroke="none"/><text fill="#000000" stroke="none" font-family="Arial" font-size="13px" font-style="normal" font-weight="bold" text-decoration="none" x="622.609619140625" y="112.5">log4j 1.2.15</text></g></g><g transform="translate(10,-14) scale(1,1)"><rect fill="#C0C0C0" stroke="none" x="41" y="255" width="98.44091796875" height="44" opacity="0.2"/></g><g transform="translate(10,-14) scale(1,1)"><rect fill="#ff2b2b" stroke="none" x="34" y="248" width="98.44091796875" height="44"/></g><g transform="translate(10,-14) scale(1,1)"><path fill="none" stroke="#000000" d="M 34 248 L 132.44091796875 248 L 132.44091796875 292 L 34 292 L 34 248 Z Z" stroke-miterlimit="10"/></g><g transform="translate(10,-14) scale(1,1)"><rect fill="#ff2b2b" stroke="none" x="24" y="255" width="20" height="10"/></g><g transform="translate(10,-14) scale(1,1)"><path fill="none" stroke="#000000" d="M 24 255 L 44 255 L 44 265 L 24 265 L 24 255 Z Z" stroke-miterlimit="10"/></g><g transform="translate(10,-14) scale(1,1)"><rect fill="#ff2b2b" stroke="none" x="24" y="275" width="20" height="10"/></g><g transform="translate(10,-14) scale(1,1)"><path fill="none" stroke="#000000" d="M 24 275 L 44 275 L 44 285 L 24 285 L 24 275 Z Z" stroke-miterlimit="10"/></g><g transform="translate(10,-14) scale(1,1)"><g><path fill="none" stroke="none"/><text fill="#000000" stroke="none" font-family="Arial" font-size="13px" font-style="normal" font-weight="normal" text-decoration="none" x="73.766845703125" y="265.5">«jar»</text></g></g><g transform="translate(10,-14) scale(1,1)"><g><path fill="none" stroke="none"/><text fill="#000000" stroke="none" font-family="Arial" font-size="13px" font-style="normal" font-weight="bold" text-decoration="none" x="69.069580078125" y="280.5">junit 4 </text></g></g><g transform="translate(10,-14) scale(1,1)"><rect fill="#C0C0C0" stroke="none" x="201" y="479" width="98.44091796875" height="44" opacity="0.2"/></g><g transform="translate(10,-14) scale(1,1)"><rect fill="#ff2b2b" stroke="none" x="194" y="472" width="98.44091796875" height="44"/></g><g transform="translate(10,-14) scale(1,1)"><path fill="none" stroke="#000000" d="M 194 472 L 292.44091796875 472 L 292.44091796875 516 L 194 516 L 194 472 Z Z" stroke-miterlimit="10"/></g><g transform="translate(10,-14) scale(1,1)"><rect fill="#ff2b2b" stroke="none" x="184" y="479" width="20" height="10"/></g><g transform="translate(10,-14) scale(1,1)"><path fill="none" stroke="#000000" d="M 184 479 L 204 479 L 204 489 L 184 489 L 184 479 Z Z" stroke-miterlimit="10"/></g><g transform="translate(10,-14) scale(1,1)"><rect fill="#ff2b2b" stroke="none" x="184" y="499" width="20" height="10"/></g><g transform="translate(10,-14) scale(1,1)"><path fill="none" stroke="#000000" d="M 184 499 L 204 499 L 204 509 L 184 509 L 184 499 Z Z" stroke-miterlimit="10"/></g><g transform="translate(10,-14) scale(1,1)"><g><path fill="none" stroke="none"/><text fill="#000000" stroke="none" font-family="Arial" font-size="13px" font-style="normal" font-weight="normal" text-decoration="none" x="233.766845703125" y="489.5">«jar»</text></g></g><g transform="translate(10,-14) scale(1,1)"><g><path fill="none" stroke="none"/><text fill="#000000" stroke="none" font-family="Arial" font-size="13px" font-style="normal" font-weight="bold" text-decoration="none" x="230.87548828125" y="504.5">junit 4</text></g></g><g transform="translate(10,-14) scale(1,1)"><path fill="none" stroke="#000000" d="M 226 615 L 236 517" stroke-miterlimit="10" stroke-dasharray="3"/></g><g transform="translate(10,-14) scale(1,1)"><path fill="none" stroke="#000000" d="M 239.15612138239788 527.5374995999796 L 236 517 L 230.78057740784527 526.6828522556375" stroke-miterlimit="10"/></g><g transform="translate(10,-14) scale(1,1)"><path fill="none" stroke="#000000" d="M 368 335 L 248 133" stroke-miterlimit="10" stroke-dasharray="3"/></g><g transform="translate(10,-14) scale(1,1)"><path fill="none" stroke="#000000" d="M 256.80952010175446 139.58728742175293 L 248 133 L 249.5713557974034 143.8871870084961" stroke-miterlimit="10"/></g><g transform="translate(10,-14) scale(1,1)"><path fill="none" stroke="#000000" d="M 303 335 L 133 286" stroke-miterlimit="10" stroke-dasharray="3"/></g><g transform="translate(10,-14) scale(1,1)"><path fill="none" stroke="#000000" d="M 143.9309937145867 284.7698063519647 L 133 286 L 141.59925805139017 292.8595015099934" stroke-miterlimit="10"/></g><g transform="translate(10,-14) scale(1,1)"><path fill="none" stroke="#000000" d="M 406 335 L 622 125" stroke-miterlimit="10" stroke-dasharray="3"/></g><g transform="translate(10,-14) scale(1,1)"><path fill="none" stroke="#000000" d="M 617.6477776394173 135.1023839030223 L 622 125 L 611.7790498916233 129.06597821957712" stroke-miterlimit="10"/></g></g></svg>