<svg version="1.1" xmlns="http://www.w3.org/2000/svg" xmlns:xlink="http://www.w3.org/1999/xlink" width="1340" height="874"><defs/><g><g transform="translate(-14,-64) scale(1,1)"><rect fill="#C0C0C0" stroke="none" x="31" y="81" width="272" height="15" opacity="0.2"/></g><g transform="translate(-14,-64) scale(1,1)"><rect fill="#C0C0C0" stroke="none" x="31" y="95" width="680" height="840" opacity="0.2"/></g><g transform="translate(-14,-64) scale(1,1)"><rect fill="#ffffff" stroke="none" x="24" y="89" width="680" height="839"/></g><g transform="translate(-14,-64) scale(1,1)"><path fill="none" stroke="#000000" d="M 24 89 L 704 89 L 704 928 L 24 928 L 24 89 Z Z" stroke-miterlimit="10"/></g><g transform="translate(-14,-64) scale(1,1)"><rect fill="#ffffff" stroke="none" x="24" y="74" width="272" height="15"/></g><g transform="translate(-14,-64) scale(1,1)"><path fill="none" stroke="#000000" d="M 24 74 L 296 74 L 296 89 L 24 89 L 24 74 Z Z" stroke-miterlimit="10"/></g><g transform="translate(-14,-64) scale(1,1)"><rect fill="#ffffff" stroke="none" x="24" y="88" width="680" height="840"/></g><g transform="translate(-14,-64) scale(1,1)"><path fill="none" stroke="#000000" d="M 24 88 L 704 88 L 704 928 L 24 928 L 24 88 Z Z" stroke-miterlimit="10"/></g><g transform="translate(-14,-64) scale(1,1)"><g><path fill="none" stroke="none"/><text fill="#000000" stroke="none" font-family="Arial" font-size="13px" font-style="normal" font-weight="bold" text-decoration="none" x="320.286865234375" y="108.5">android-crmtab</text></g></g><g transform="translate(-14,-64) scale(1,1)"><rect fill="#C0C0C0" stroke="none" x="741" y="94" width="244" height="15" opacity="0.2"/></g><g transform="translate(-14,-64) scale(1,1)"><rect fill="#C0C0C0" stroke="none" x="741" y="108" width="610" height="355" opacity="0.2"/></g><g transform="translate(-14,-64) scale(1,1)"><rect fill="#ffffff" stroke="none" x="734" y="102" width="610" height="354"/></g><g transform="translate(-14,-64) scale(1,1)"><path fill="none" stroke="#000000" d="M 734 102 L 1344 102 L 1344 456 L 734 456 L 734 102 Z Z" stroke-miterlimit="10"/></g><g transform="translate(-14,-64) scale(1,1)"><rect fill="#ffffff" stroke="none" x="734" y="87" width="244" height="15"/></g><g transform="translate(-14,-64) scale(1,1)"><path fill="none" stroke="#000000" d="M 734 87 L 978 87 L 978 102 L 734 102 L 734 87 Z Z" stroke-miterlimit="10"/></g><g transform="translate(-14,-64) scale(1,1)"><rect fill="#ffffff" stroke="none" x="734" y="101" width="610" height="355"/></g><g transform="translate(-14,-64) scale(1,1)"><path fill="none" stroke="#000000" d="M 734 101 L 1344 101 L 1344 456 L 734 456 L 734 101 Z Z" stroke-miterlimit="10"/></g><g transform="translate(-14,-64) scale(1,1)"><g><path fill="none" stroke="none"/><text fill="#000000" stroke="none" font-family="Arial" font-size="13px" font-style="normal" font-weight="bold" text-decoration="none" x="1007.94091796875" y="121.5">server-rest</text></g></g><g transform="translate(-14,-64) scale(1,1)"><rect fill="#C0C0C0" stroke="none" x="55" y="271" width="252.8" height="15" opacity="0.2"/></g><g transform="translate(-14,-64) scale(1,1)"><rect fill="#C0C0C0" stroke="none" x="55" y="285" width="632" height="602" opacity="0.2"/></g><g transform="translate(-14,-64) scale(1,1)"><rect fill="#ffffff" stroke="none" x="48" y="279" width="632" height="601"/></g><g transform="translate(-14,-64) scale(1,1)"><path fill="none" stroke="#000000" d="M 48 279 L 680 279 L 680 880 L 48 880 L 48 279 Z Z" stroke-miterlimit="10"/></g><g transform="translate(-14,-64) scale(1,1)"><rect fill="#ffffff" stroke="none" x="48" y="264" width="252.8" height="15"/></g><g transform="translate(-14,-64) scale(1,1)"><path fill="none" stroke="#000000" d="M 48 264 L 300.8 264 L 300.8 279 L 48 279 L 48 264 Z Z" stroke-miterlimit="10"/></g><g transform="translate(-14,-64) scale(1,1)"><rect fill="#ffffff" stroke="none" x="48" y="278" width="632" height="602"/></g><g transform="translate(-14,-64) scale(1,1)"><path fill="none" stroke="#000000" d="M 48 278 L 680 278 L 680 880 L 48 880 L 48 278 Z Z" stroke-miterlimit="10"/></g><g transform="translate(-14,-64) scale(1,1)"><g><path fill="none" stroke="none"/><text fill="#000000" stroke="none" font-family="Arial" font-size="13px" font-style="normal" font-weight="bold" text-decoration="none" x="206.11474609375" y="298.5">fr.pds.isintheair.crmtab.ctruong.uc.propsect.suggestion</text></g></g><g transform="translate(-14,-64) scale(1,1)"><rect fill="#C0C0C0" stroke="none" x="87" y="559" width="118.4" height="15" opacity="0.2"/></g><g transform="translate(-14,-64) scale(1,1)"><rect fill="#C0C0C0" stroke="none" x="87" y="573" width="296" height="274" opacity="0.2"/></g><g transform="translate(-14,-64) scale(1,1)"><rect fill="#ffffff" stroke="none" x="80" y="567" width="296" height="273"/></g><g transform="translate(-14,-64) scale(1,1)"><path fill="none" stroke="#000000" d="M 80 567 L 376 567 L 376 840 L 80 840 L 80 567 Z Z" stroke-miterlimit="10"/></g><g transform="translate(-14,-64) scale(1,1)"><rect fill="#ffffff" stroke="none" x="80" y="552" width="118.4" height="15"/></g><g transform="translate(-14,-64) scale(1,1)"><path fill="none" stroke="#000000" d="M 80 552 L 198.4 552 L 198.4 567 L 80 567 L 80 552 Z Z" stroke-miterlimit="10"/></g><g transform="translate(-14,-64) scale(1,1)"><rect fill="#ffffff" stroke="none" x="80" y="566" width="296" height="274"/></g><g transform="translate(-14,-64) scale(1,1)"><path fill="none" stroke="#000000" d="M 80 566 L 376 566 L 376 840 L 80 840 L 80 566 Z Z" stroke-miterlimit="10"/></g><g transform="translate(-14,-64) scale(1,1)"><g><path fill="none" stroke="none"/><text fill="#000000" stroke="none" font-family="Arial" font-size="13px" font-style="normal" font-weight="bold" text-decoration="none" x="187.171875" y="586.5">model.domain</text></g></g><g transform="translate(-14,-64) scale(1,1)"><rect fill="#C0C0C0" stroke="none" x="127" y="607" width="157.12255859375" height="207" opacity="0.2"/></g><g transform="translate(-14,-64) scale(1,1)"><rect fill="#ffffff" stroke="none" x="120" y="600" width="157.12255859375" height="207"/></g><g transform="translate(-14,-64) scale(1,1)"><path fill="none" stroke="#000000" d="M 120 600 L 277.12255859375 600 L 277.12255859375 807 L 120 807 L 120 600 Z Z" stroke-miterlimit="10"/></g><g transform="translate(-14,-64) scale(1,1)"><path fill="none" stroke="#000000" d="M 120 625 L 277.12255859375 625" stroke-miterlimit="10"/></g><g transform="translate(-14,-64) scale(1,1)"><path fill="none" stroke="#000000" d="M 120 798 L 277.12255859375 798" stroke-miterlimit="10"/></g><g transform="translate(-14,-64) scale(1,1)"><g><path fill="none" stroke="none"/><text fill="#000000" stroke="none" font-family="Arial" font-size="13px" font-style="normal" font-weight="bold" text-decoration="none" x="172.910400390625" y="619.5">Prospect</text></g></g><g transform="translate(-14,-64) scale(1,1)"><g><path fill="none" stroke="none"/><text fill="#000000" stroke="none" font-family="Arial" font-size="13px" font-style="normal" font-weight="normal" text-decoration="none" x="125" y="642.5">-siretNumber: long</text></g></g><g transform="translate(-14,-64) scale(1,1)"><g><path fill="none" stroke="none"/><text fill="#000000" stroke="none" font-family="Arial" font-size="13px" font-style="normal" font-weight="normal" text-decoration="none" x="125" y="657.5">-finessNumber: long</text></g></g><g transform="translate(-14,-64) scale(1,1)"><g><path fill="none" stroke="none"/><text fill="#000000" stroke="none" font-family="Arial" font-size="13px" font-style="normal" font-weight="normal" text-decoration="none" x="125" y="672.5">-turnover: long</text></g></g><g transform="translate(-14,-64) scale(1,1)"><g><path fill="none" stroke="none"/><text fill="#000000" stroke="none" font-family="Arial" font-size="13px" font-style="normal" font-weight="normal" text-decoration="none" x="125" y="687.5">-name: String</text></g></g><g transform="translate(-14,-64) scale(1,1)"><g><path fill="none" stroke="none"/><text fill="#000000" stroke="none" font-family="Arial" font-size="13px" font-style="normal" font-weight="normal" text-decoration="none" x="125" y="702.5">-streetNumber: int</text></g></g><g transform="translate(-14,-64) scale(1,1)"><g><path fill="none" stroke="none"/><text fill="#000000" stroke="none" font-family="Arial" font-size="13px" font-style="normal" font-weight="normal" text-decoration="none" x="125" y="717.5">-streetName: String</text></g></g><g transform="translate(-14,-64) scale(1,1)"><g><path fill="none" stroke="none"/><text fill="#000000" stroke="none" font-family="Arial" font-size="13px" font-style="normal" font-weight="normal" text-decoration="none" x="125" y="732.5">-town: String</text></g></g><g transform="translate(-14,-64) scale(1,1)"><g><path fill="none" stroke="none"/><text fill="#000000" stroke="none" font-family="Arial" font-size="13px" font-style="normal" font-weight="normal" text-decoration="none" x="125" y="747.5">-zipCode: int</text></g></g><g transform="translate(-14,-64) scale(1,1)"><g><path fill="none" stroke="none"/><text fill="#000000" stroke="none" font-family="Arial" font-size="13px" font-style="normal" font-weight="normal" text-decoration="none" x="125" y="762.5">-bedNumber: int</text></g></g><g transform="translate(-14,-64) scale(1,1)"><g><path fill="none" stroke="none"/><text fill="#000000" stroke="none" font-family="Arial" font-size="13px" font-style="normal" font-weight="normal" text-decoration="none" x="125" y="777.5">-website: String</text></g></g><g transform="translate(-14,-64) scale(1,1)"><g><path fill="none" stroke="none"/><text fill="#000000" stroke="none" font-family="Arial" font-size="13px" font-style="normal" font-weight="normal" text-decoration="none" x="125" y="792.5">-etablishmentType: String</text></g></g><g transform="translate(-14,-64) scale(1,1)"><rect fill="#C0C0C0" stroke="none" x="471" y="431" width="111.5908203125" height="44" opacity="0.2"/></g><g transform="translate(-14,-64) scale(1,1)"><rect fill="#ffffff" stroke="none" x="464" y="424" width="111.5908203125" height="44"/></g><g transform="translate(-14,-64) scale(1,1)"><path fill="none" stroke="#000000" d="M 464 424 L 575.5908203125 424 L 575.5908203125 468 L 464 468 L 464 424 Z Z" stroke-miterlimit="10"/></g><g transform="translate(-14,-64) scale(1,1)"><path fill="none" stroke="#000000" d="M 464 449 L 575.5908203125 449" stroke-miterlimit="10"/></g><g transform="translate(-14,-64) scale(1,1)"><path fill="none" stroke="#000000" d="M 464 459 L 575.5908203125 459" stroke-miterlimit="10"/></g><g transform="translate(-14,-64) scale(1,1)"><g><path fill="none" stroke="none"/><text fill="#000000" stroke="none" font-family="Arial" font-size="13px" font-style="normal" font-weight="bold" text-decoration="none" x="473.55908203125" y="443.5">ProspectActivity</text></g></g><g transform="translate(-14,-64) scale(1,1)"><rect fill="#C0C0C0" stroke="none" x="263" y="343" width="147.2" height="15" opacity="0.2"/></g><g transform="translate(-14,-64) scale(1,1)"><rect fill="#C0C0C0" stroke="none" x="263" y="357" width="368" height="194" opacity="0.2"/></g><g transform="translate(-14,-64) scale(1,1)"><rect fill="#ffffff" stroke="none" x="256" y="351" width="368" height="193"/></g><g transform="translate(-14,-64) scale(1,1)"><path fill="none" stroke="#000000" d="M 256 351 L 624 351 L 624 544 L 256 544 L 256 351 Z Z" stroke-miterlimit="10"/></g><g transform="translate(-14,-64) scale(1,1)"><rect fill="#ffffff" stroke="none" x="256" y="336" width="147.2" height="15"/></g><g transform="translate(-14,-64) scale(1,1)"><path fill="none" stroke="#000000" d="M 256 336 L 403.2 336 L 403.2 351 L 256 351 L 256 336 Z Z" stroke-miterlimit="10"/></g><g transform="translate(-14,-64) scale(1,1)"><rect fill="#ffffff" stroke="none" x="256" y="350" width="368" height="194"/></g><g transform="translate(-14,-64) scale(1,1)"><path fill="none" stroke="#000000" d="M 256 350 L 624 350 L 624 544 L 256 544 L 256 350 Z Z" stroke-miterlimit="10"/></g><g transform="translate(-14,-64) scale(1,1)"><g><path fill="none" stroke="none"/><text fill="#000000" stroke="none" font-family="Arial" font-size="13px" font-style="normal" font-weight="bold" text-decoration="none" x="405.325927734375" y="370.5">view.activity</text></g></g><g transform="translate(-14,-64) scale(1,1)"><path fill="none" stroke="#000000" d="M 250 599 L 331 437" stroke-miterlimit="10"/></g><g transform="translate(-14,-64) scale(1,1)"><path fill="none" stroke="#000000" d="M 209 599 L 251 197" stroke-miterlimit="10" stroke-dasharray="3"/></g><g transform="translate(-14,-64) scale(1,1)"><path fill="none" stroke="#000000" d="M 254.13070541180753 207.5450786447745 L 251 197 L 245.75724640872104 206.670239644452" stroke-miterlimit="10"/></g><g transform="translate(-14,-64) scale(1,1)"><path fill="none" stroke="#000000" d="M 334 391 L 262 197" stroke-miterlimit="10" stroke-dasharray="3"/></g><g transform="translate(-14,-64) scale(1,1)"><path fill="none" stroke="#000000" d="M 269.48252783358834 205.0629881073691 L 262 197 L 261.5895526042002 207.9923397388946" stroke-miterlimit="10"/></g><g transform="translate(-14,-64) scale(1,1)"><rect fill="#C0C0C0" stroke="none" x="527" y="127" width="84.841796875" height="44" opacity="0.2"/></g><g transform="translate(-14,-64) scale(1,1)"><rect fill="#ffffff" stroke="none" x="520" y="120" width="84.841796875" height="44"/></g><g transform="translate(-14,-64) scale(1,1)"><path fill="none" stroke="#000000" d="M 520 120 L 604.841796875 120 L 604.841796875 164 L 520 164 L 520 120 Z Z" stroke-miterlimit="10"/></g><g transform="translate(-14,-64) scale(1,1)"><path fill="none" stroke="#000000" d="M 520 145 L 604.841796875 145" stroke-miterlimit="10"/></g><g transform="translate(-14,-64) scale(1,1)"><path fill="none" stroke="#000000" d="M 520 155 L 604.841796875 155" stroke-miterlimit="10"/></g><g transform="translate(-14,-64) scale(1,1)"><g><path fill="none" stroke="none"/><text fill="#000000" stroke="none" font-family="Arial" font-size="13px" font-style="normal" font-weight="bold" text-decoration="none" x="527.734130859375" y="139.5">butterknife.*</text></g></g><g transform="translate(-14,-64) scale(1,1)"><path fill="none" stroke="#000000" d="M 362 391 L 543 165" stroke-miterlimit="10" stroke-dasharray="3"/></g><g transform="translate(-14,-64) scale(1,1)"><path fill="none" stroke="#000000" d="M 539.9328102160684 175.56372788504825 L 543 165 L 533.3614856824688 170.3008529267229" stroke-miterlimit="10"/></g><g transform="translate(-14,-64) scale(1,1)"><rect fill="#C0C0C0" stroke="none" x="319" y="159" width="149.84814453125" height="44" opacity="0.2"/></g><g transform="translate(-14,-64) scale(1,1)"><rect fill="#ffffff" stroke="none" x="312" y="152" width="149.84814453125" height="44"/></g><g transform="translate(-14,-64) scale(1,1)"><path fill="none" stroke="#000000" d="M 312 152 L 461.84814453125 152 L 461.84814453125 196 L 312 196 L 312 152 Z Z" stroke-miterlimit="10"/></g><g transform="translate(-14,-64) scale(1,1)"><path fill="none" stroke="#000000" d="M 312 177 L 461.84814453125 177" stroke-miterlimit="10"/></g><g transform="translate(-14,-64) scale(1,1)"><path fill="none" stroke="#000000" d="M 312 187 L 461.84814453125 187" stroke-miterlimit="10"/></g><g transform="translate(-14,-64) scale(1,1)"><g><path fill="none" stroke="none"/><text fill="#000000" stroke="none" font-family="Arial" font-size="13px" font-style="normal" font-weight="bold" text-decoration="none" x="321.885986328125" y="171.5">com.squareup.okhttp.*</text></g></g><g transform="translate(-14,-64) scale(1,1)"><path fill="none" stroke="#000000" d="M 347 391 L 382 197" stroke-miterlimit="10" stroke-dasharray="3"/></g><g transform="translate(-14,-64) scale(1,1)"><path fill="none" stroke="#000000" d="M 384.33829604242146 207.7485985885601 L 382 197 L 376.05301803779486 206.25383193824086" stroke-miterlimit="10"/></g><g transform="translate(-14,-64) scale(1,1)"><rect fill="#C0C0C0" stroke="none" x="455" y="575" width="73.60000000000002" height="15" opacity="0.2"/></g><g transform="translate(-14,-64) scale(1,1)"><rect fill="#C0C0C0" stroke="none" x="455" y="589" width="184" height="186" opacity="0.2"/></g><g transform="translate(-14,-64) scale(1,1)"><rect fill="#ffffff" stroke="none" x="448" y="583" width="184" height="185"/></g><g transform="translate(-14,-64) scale(1,1)"><path fill="none" stroke="#000000" d="M 448 583 L 632 583 L 632 768 L 448 768 L 448 583 Z Z" stroke-miterlimit="10"/></g><g transform="translate(-14,-64) scale(1,1)"><rect fill="#ffffff" stroke="none" x="448" y="568" width="73.60000000000002" height="15"/></g><g transform="translate(-14,-64) scale(1,1)"><path fill="none" stroke="#000000" d="M 448 568 L 521.6 568 L 521.6 583 L 448 583 L 448 568 Z Z" stroke-miterlimit="10"/></g><g transform="translate(-14,-64) scale(1,1)"><rect fill="#ffffff" stroke="none" x="448" y="582" width="184" height="186"/></g><g transform="translate(-14,-64) scale(1,1)"><path fill="none" stroke="#000000" d="M 448 582 L 632 582 L 632 768 L 448 768 L 448 582 Z Z" stroke-miterlimit="10"/></g><g transform="translate(-14,-64) scale(1,1)"><g><path fill="none" stroke="none"/><text fill="#000000" stroke="none" font-family="Arial" font-size="13px" font-style="normal" font-weight="bold" text-decoration="none" x="529.16455078125" y="602.5">rest</text></g></g><g transform="translate(-14,-64) scale(1,1)"><rect fill="#C0C0C0" stroke="none" x="775" y="191" width="92.79999999999995" height="15" opacity="0.2"/></g><g transform="translate(-14,-64) scale(1,1)"><rect fill="#C0C0C0" stroke="none" x="775" y="205" width="232" height="188" opacity="0.2"/></g><g transform="translate(-14,-64) scale(1,1)"><rect fill="#ffffff" stroke="none" x="768" y="199" width="232" height="187"/></g><g transform="translate(-14,-64) scale(1,1)"><path fill="none" stroke="#000000" d="M 768 199 L 1000 199 L 1000 386 L 768 386 L 768 199 Z Z" stroke-miterlimit="10"/></g><g transform="translate(-14,-64) scale(1,1)"><rect fill="#ffffff" stroke="none" x="768" y="184" width="92.79999999999995" height="15"/></g><g transform="translate(-14,-64) scale(1,1)"><path fill="none" stroke="#000000" d="M 768 184 L 860.8 184 L 860.8 199 L 768 199 L 768 184 Z Z" stroke-miterlimit="10"/></g><g transform="translate(-14,-64) scale(1,1)"><rect fill="#ffffff" stroke="none" x="768" y="198" width="232" height="188"/></g><g transform="translate(-14,-64) scale(1,1)"><path fill="none" stroke="#000000" d="M 768 198 L 1000 198 L 1000 386 L 768 386 L 768 198 Z Z" stroke-miterlimit="10"/></g><g transform="translate(-14,-64) scale(1,1)"><g><path fill="none" stroke="none"/><text fill="#000000" stroke="none" font-family="Arial" font-size="13px" font-style="normal" font-weight="bold" text-decoration="none" x="873.16455078125" y="218.5">rest</text></g></g><g transform="translate(-14,-64) scale(1,1)"><rect fill="#C0C0C0" stroke="none" x="799" y="271" width="154.919921875" height="100" opacity="0.2"/></g><g transform="translate(-14,-64) scale(1,1)"><rect fill="#ffffff" stroke="none" x="792" y="264" width="154.919921875" height="100"/></g><g transform="translate(-14,-64) scale(1,1)"><path fill="none" stroke="#000000" d="M 792 264 L 946.919921875 264 L 946.919921875 364 L 792 364 L 792 264 Z Z" stroke-miterlimit="10"/></g><g transform="translate(-14,-64) scale(1,1)"><path fill="none" stroke="#000000" d="M 792 317 L 946.919921875 317" stroke-miterlimit="10"/></g><g transform="translate(-14,-64) scale(1,1)"><path fill="none" stroke="#000000" d="M 792 327 L 946.919921875 327" stroke-miterlimit="10"/></g><g transform="translate(-14,-64) scale(1,1)"><g><path fill="none" stroke="none"/><text fill="#000000" stroke="none" font-family="Arial" font-size="13px" font-style="normal" font-weight="normal" text-decoration="none" x="835.496826171875" y="281.5">«controller»</text></g></g><g transform="translate(-14,-64) scale(1,1)"><g><path fill="none" stroke="none"/><text fill="#000000" stroke="none" font-family="Arial" font-size="13px" font-style="normal" font-weight="bold" text-decoration="none" x="802.266845703125" y="296.5">ProspectRestController</text></g></g><g transform="translate(-14,-64) scale(1,1)"><g><path fill="none" stroke="none"/><text fill="#000000" stroke="none" font-family="Arial" font-size="13px" font-style="normal" font-weight="normal" text-decoration="none" x="819.265869140625" y="311.5">(from server-rest)</text></g></g><g transform="translate(-14,-64) scale(1,1)"><g><path fill="none" stroke="none"/><text fill="#000000" stroke="none" font-family="Arial" font-size="13px" font-style="normal" font-weight="normal" text-decoration="none" x="797" y="344.5">+analyseProscess()</text></g></g><g transform="translate(-14,-64) scale(1,1)"><g><path fill="none" stroke="none"/><text fill="#000000" stroke="none" font-family="Arial" font-size="13px" font-style="normal" font-weight="normal" text-decoration="none" x="797" y="359.5">+createNewClient()</text></g></g><g transform="translate(-14,-64) scale(1,1)"><rect fill="#C0C0C0" stroke="none" x="1079" y="192" width="86.40000000000009" height="15" opacity="0.2"/></g><g transform="translate(-14,-64) scale(1,1)"><rect fill="#C0C0C0" stroke="none" x="1079" y="206" width="216" height="201" opacity="0.2"/></g><g transform="translate(-14,-64) scale(1,1)"><rect fill="#ffffff" stroke="none" x="1072" y="200" width="216" height="200"/></g><g transform="translate(-14,-64) scale(1,1)"><path fill="none" stroke="#000000" d="M 1072 200 L 1288 200 L 1288 400 L 1072 400 L 1072 200 Z Z" stroke-miterlimit="10"/></g><g transform="translate(-14,-64) scale(1,1)"><rect fill="#ffffff" stroke="none" x="1072" y="185" width="86.40000000000009" height="15"/></g><g transform="translate(-14,-64) scale(1,1)"><path fill="none" stroke="#000000" d="M 1072 185 L 1158.4 185 L 1158.4 200 L 1072 200 L 1072 185 Z Z" stroke-miterlimit="10"/></g><g transform="translate(-14,-64) scale(1,1)"><rect fill="#ffffff" stroke="none" x="1072" y="199" width="216" height="201"/></g><g transform="translate(-14,-64) scale(1,1)"><path fill="none" stroke="#000000" d="M 1072 199 L 1288 199 L 1288 400 L 1072 400 L 1072 199 Z Z" stroke-miterlimit="10"/></g><g transform="translate(-14,-64) scale(1,1)"><g><path fill="none" stroke="none"/><text fill="#000000" stroke="none" font-family="Arial" font-size="13px" font-style="normal" font-weight="bold" text-decoration="none" x="1153.266845703125" y="219.5">controller</text></g></g><g transform="translate(-14,-64) scale(1,1)"><rect fill="#C0C0C0" stroke="none" x="1128" y="238" width="126.74267578125" height="72" opacity="0.2"/></g><g transform="translate(-14,-64) scale(1,1)"><rect fill="#ffffff" stroke="none" x="1121" y="231" width="126.74267578125" height="72"/></g><g transform="translate(-14,-64) scale(1,1)"><path fill="none" stroke="#000000" d="M 1121 231 L 1247.74267578125 231 L 1247.74267578125 303 L 1121 303 L 1121 231 Z Z" stroke-miterlimit="10"/></g><g transform="translate(-14,-64) scale(1,1)"><path fill="none" stroke="#000000" d="M 1121 271 L 1247.74267578125 271" stroke-miterlimit="10"/></g><g transform="translate(-14,-64) scale(1,1)"><path fill="none" stroke="#000000" d="M 1121 281 L 1247.74267578125 281" stroke-miterlimit="10"/></g><g transform="translate(-14,-64) scale(1,1)"><g><path fill="none" stroke="none"/><text fill="#000000" stroke="none" font-family="Arial" font-size="13px" font-style="normal" font-weight="bold" text-decoration="none" x="1130.543212890625" y="250.5">ProspectController</text></g></g><g transform="translate(-14,-64) scale(1,1)"><g><path fill="none" stroke="none"/><text fill="#000000" stroke="none" font-family="Arial" font-size="13px" font-style="normal" font-weight="normal" text-decoration="none" x="1134.17724609375" y="265.5">(from server-rest)</text></g></g><g transform="translate(-14,-64) scale(1,1)"><g><path fill="none" stroke="none"/><text fill="#000000" stroke="none" font-family="Arial" font-size="13px" font-style="normal" font-weight="normal" text-decoration="none" x="1126" y="298.5">+analyseProspect()</text></g></g><g transform="translate(-14,-64) scale(1,1)"><path fill="none" stroke="#000000" d="M 948 302 L 1120 277" stroke-miterlimit="10"/></g><g transform="translate(-14,-64) scale(1,1)"><path fill="none" stroke="#000000" d="M 1110.5484895010184 282.62751715125233 L 1120 277 L 1109.3375172948201 274.29602837260836" stroke-miterlimit="10"/></g><g transform="translate(-14,-64) scale(1,1)"><rect fill="#C0C0C0" stroke="none" x="471" y="647" width="132.51904296875" height="59" opacity="0.2"/></g><g transform="translate(-14,-64) scale(1,1)"><rect fill="#ffffff" stroke="none" x="464" y="640" width="132.51904296875" height="59"/></g><g transform="translate(-14,-64) scale(1,1)"><path fill="none" stroke="#000000" d="M 464 640 L 596.51904296875 640 L 596.51904296875 699 L 464 699 L 464 640 Z Z" stroke-miterlimit="10"/></g><g transform="translate(-14,-64) scale(1,1)"><path fill="none" stroke="#000000" d="M 464 680 L 596.51904296875 680" stroke-miterlimit="10"/></g><g transform="translate(-14,-64) scale(1,1)"><path fill="none" stroke="#000000" d="M 464 690 L 596.51904296875 690" stroke-miterlimit="10"/></g><g transform="translate(-14,-64) scale(1,1)"><g><path fill="none" stroke="none"/><text fill="#000000" stroke="none" font-family="Arial" font-size="13px" font-style="normal" font-weight="bold" text-decoration="none" x="473.181396484375" y="659.5">ProspectRetrofitAPI</text></g></g><g transform="translate(-14,-64) scale(1,1)"><g><path fill="none" stroke="none"/><text fill="#000000" stroke="none" font-family="Arial" font-size="13px" font-style="normal" font-weight="normal" text-decoration="none" x="500.2890625" y="674.5">(from rest)</text></g></g><g transform="translate(-14,-64) scale(1,1)"><path fill="none" stroke="#000000" d="M 278 695 L 463 676" stroke-miterlimit="10"/></g><g transform="translate(-14,-64) scale(1,1)"><path fill="#FFFFFF" stroke="none" d="M 443.6411373132375 686.4515279014637 L 463 676 L 441.9208706652456 669.7015631710165"/></g><g transform="translate(-14,-64) scale(1,1)"><path fill="none" stroke="#000000" d="M 443.6411373132375 686.4515279014637 L 463 676 L 441.9208706652456 669.7015631710165 L 443.6411373132375 686.4515279014637" stroke-miterlimit="10"/></g><g transform="translate(-14,-64) scale(1,1)"><path fill="none" stroke="#000000" d="M 360 437 L 508 639" stroke-miterlimit="10"/></g><g transform="translate(-14,-64) scale(1,1)"><path fill="#FFFFFF" stroke="none" d="M 489.19607601453714 627.5801732609932 L 508 639 L 502.77865476409 617.6285809098357"/></g><g transform="translate(-14,-64) scale(1,1)"><path fill="none" stroke="#000000" d="M 489.19607601453714 627.5801732609932 L 508 639 L 502.77865476409 617.6285809098357 L 489.19607601453714 627.5801732609932" stroke-miterlimit="10"/></g><g transform="translate(-14,-64) scale(1,1)"><path fill="none" stroke="#000000" d="M 401 403 L 791 329" stroke-miterlimit="10"/></g><g transform="translate(-14,-64) scale(1,1)"><rect fill="#C0C0C0" stroke="none" x="295" y="399" width="111.5908203125" height="44" opacity="0.2"/></g><g transform="translate(-14,-64) scale(1,1)"><rect fill="#ffffff" stroke="none" x="288" y="392" width="111.5908203125" height="44"/></g><g transform="translate(-14,-64) scale(1,1)"><path fill="none" stroke="#000000" d="M 288 392 L 399.5908203125 392 L 399.5908203125 436 L 288 436 L 288 392 Z Z" stroke-miterlimit="10"/></g><g transform="translate(-14,-64) scale(1,1)"><path fill="none" stroke="#000000" d="M 288 417 L 399.5908203125 417" stroke-miterlimit="10"/></g><g transform="translate(-14,-64) scale(1,1)"><path fill="none" stroke="#000000" d="M 288 427 L 399.5908203125 427" stroke-miterlimit="10"/></g><g transform="translate(-14,-64) scale(1,1)"><g><path fill="none" stroke="none"/><text fill="#000000" stroke="none" font-family="Arial" font-size="13px" font-style="normal" font-weight="bold" text-decoration="none" x="297.55908203125" y="411.5">ProspectActivity</text></g></g><g transform="translate(-14,-64) scale(1,1)"><rect fill="#C0C0C0" stroke="none" x="495" y="455" width="100.03173828125" height="72" opacity="0.2"/></g><g transform="translate(-14,-64) scale(1,1)"><rect fill="#ffffff" stroke="none" x="488" y="448" width="100.03173828125" height="72"/></g><g transform="translate(-14,-64) scale(1,1)"><path fill="none" stroke="#000000" d="M 488 448 L 588.03173828125 448 L 588.03173828125 520 L 488 520 L 488 448 Z Z" stroke-miterlimit="10"/></g><g transform="translate(-14,-64) scale(1,1)"><path fill="none" stroke="#000000" d="M 488 473 L 588.03173828125 473" stroke-miterlimit="10"/></g><g transform="translate(-14,-64) scale(1,1)"><path fill="none" stroke="#000000" d="M 488 483 L 588.03173828125 483" stroke-miterlimit="10"/></g><g transform="translate(-14,-64) scale(1,1)"><g><path fill="none" stroke="none"/><text fill="#000000" stroke="none" font-family="Arial" font-size="13px" font-style="normal" font-weight="bold" text-decoration="none" x="495.746826171875" y="467.5">DetailProspect</text></g></g><g transform="translate(-14,-64) scale(1,1)"><g><path fill="none" stroke="none"/><text fill="#000000" stroke="none" font-family="Arial" font-size="13px" font-style="normal" font-weight="normal" text-decoration="none" x="493" y="500.5">+pushNotif()</text></g></g><g transform="translate(-14,-64) scale(1,1)"><g><path fill="none" stroke="none"/><text fill="#000000" stroke="none" font-family="Arial" font-size="13px" font-style="normal" font-weight="normal" text-decoration="none" x="493" y="515.5">+start()</text></g></g><g transform="translate(-14,-64) scale(1,1)"><path fill="none" stroke="#000000" d="M 287 429 L 187 455" stroke-miterlimit="10"/></g><g transform="translate(-14,-64) scale(1,1)"><rect fill="#C0C0C0" stroke="none" x="79" y="455" width="113.7490234375" height="44" opacity="0.2"/></g><g transform="translate(-14,-64) scale(1,1)"><rect fill="#ffffff" stroke="none" x="72" y="448" width="113.7490234375" height="44"/></g><g transform="translate(-14,-64) scale(1,1)"><path fill="none" stroke="#000000" d="M 72 448 L 185.7490234375 448 L 185.7490234375 492 L 72 492 L 72 448 Z Z" stroke-miterlimit="10"/></g><g transform="translate(-14,-64) scale(1,1)"><path fill="none" stroke="#000000" d="M 72 473 L 185.7490234375 473" stroke-miterlimit="10"/></g><g transform="translate(-14,-64) scale(1,1)"><path fill="none" stroke="#000000" d="M 72 483 L 185.7490234375 483" stroke-miterlimit="10"/></g><g transform="translate(-14,-64) scale(1,1)"><g><path fill="none" stroke="none"/><text fill="#000000" stroke="none" font-family="Arial" font-size="13px" font-style="normal" font-weight="bold" text-decoration="none" x="80.457763671875" y="467.5">ProspectAdapter</text></g></g><g transform="translate(-14,-64) scale(1,1)"><path fill="none" stroke="#000000" d="M 187 472 L 487 482" stroke-miterlimit="10"/></g><g transform="translate(-14,-64) scale(1,1)"><rect fill="#C0C0C0" stroke="none" x="71" y="207" width="92.08447265625" height="44" opacity="0.2"/></g><g transform="translate(-14,-64) scale(1,1)"><rect fill="#ffffff" stroke="none" x="64" y="200" width="92.08447265625" height="44"/></g><g transform="translate(-14,-64) scale(1,1)"><path fill="none" stroke="#000000" d="M 64 200 L 156.08447265625 200 L 156.08447265625 244 L 64 244 L 64 200 Z Z" stroke-miterlimit="10"/></g><g transform="translate(-14,-64) scale(1,1)"><path fill="none" stroke="#000000" d="M 64 225 L 156.08447265625 225" stroke-miterlimit="10"/></g><g transform="translate(-14,-64) scale(1,1)"><path fill="none" stroke="#000000" d="M 64 235 L 156.08447265625 235" stroke-miterlimit="10"/></g><g transform="translate(-14,-64) scale(1,1)"><g><path fill="none" stroke="none"/><text fill="#000000" stroke="none" font-family="Arial" font-size="13px" font-style="normal" font-weight="bold" text-decoration="none" x="71.746826171875" y="219.5">ArrayAdapter</text></g></g><g transform="translate(-14,-64) scale(1,1)"><rect fill="#C0C0C0" stroke="none" x="231" y="159" width="59.55908203125" height="44" opacity="0.2"/></g><g transform="translate(-14,-64) scale(1,1)"><rect fill="#ffffff" stroke="none" x="224" y="152" width="59.55908203125" height="44"/></g><g transform="translate(-14,-64) scale(1,1)"><path fill="none" stroke="#000000" d="M 224 152 L 283.55908203125 152 L 283.55908203125 196 L 224 196 L 224 152 Z Z" stroke-miterlimit="10"/></g><g transform="translate(-14,-64) scale(1,1)"><path fill="none" stroke="#000000" d="M 224 177 L 283.55908203125 177" stroke-miterlimit="10"/></g><g transform="translate(-14,-64) scale(1,1)"><path fill="none" stroke="#000000" d="M 224 187 L 283.55908203125 187" stroke-miterlimit="10"/></g><g transform="translate(-14,-64) scale(1,1)"><g><path fill="none" stroke="none"/><text fill="#000000" stroke="none" font-family="Arial" font-size="13px" font-style="normal" font-weight="bold" text-decoration="none" x="231.023193359375" y="171.5">retrofit.*</text></g></g><g transform="translate(-14,-64) scale(1,1)"><path fill="none" stroke="#000000" d="M 126 447 L 112 245" stroke-miterlimit="10" stroke-dasharray="3"/></g><g transform="translate(-14,-64) scale(1,1)"><path fill="none" stroke="#000000" d="M 116.90210215965149 254.84730391611532 L 112 245 L 108.5032143036688 255.42940505464878" stroke-miterlimit="10"/></g><g transform="translate(-14,-64) scale(1,1)"><path fill="none" stroke="#000000" d="M 135 493 L 167 599" stroke-miterlimit="10"/></g><g transform="translate(-14,-64) scale(1,1)"><path fill="none" stroke="#000000" d="M 589 458 L 791 354" stroke-miterlimit="10"/></g><g transform="translate(-14,-64) scale(1,1)"><rect fill="#C0C0C0" stroke="none" x="743" y="495" width="243.20000000000005" height="15" opacity="0.2"/></g><g transform="translate(-14,-64) scale(1,1)"><rect fill="#C0C0C0" stroke="none" x="743" y="509" width="608" height="418" opacity="0.2"/></g><g transform="translate(-14,-64) scale(1,1)"><rect fill="#ffffff" stroke="none" x="736" y="503" width="608" height="417"/></g><g transform="translate(-14,-64) scale(1,1)"><path fill="none" stroke="#000000" d="M 736 503 L 1344 503 L 1344 920 L 736 920 L 736 503 Z Z" stroke-miterlimit="10"/></g><g transform="translate(-14,-64) scale(1,1)"><rect fill="#ffffff" stroke="none" x="736" y="488" width="243.20000000000005" height="15"/></g><g transform="translate(-14,-64) scale(1,1)"><path fill="none" stroke="#000000" d="M 736 488 L 979.2 488 L 979.2 503 L 736 503 L 736 488 Z Z" stroke-miterlimit="10"/></g><g transform="translate(-14,-64) scale(1,1)"><rect fill="#ffffff" stroke="none" x="736" y="502" width="608" height="418"/></g><g transform="translate(-14,-64) scale(1,1)"><path fill="none" stroke="#000000" d="M 736 502 L 1344 502 L 1344 920 L 736 920 L 736 502 Z Z" stroke-miterlimit="10"/></g><g transform="translate(-14,-64) scale(1,1)"><g><path fill="none" stroke="none"/><text fill="#000000" stroke="none" font-family="Arial" font-size="13px" font-style="normal" font-weight="bold" text-decoration="none" x="988.701416015625" y="522.5">server-notification</text></g></g><g transform="translate(-14,-64) scale(1,1)"><rect fill="#C0C0C0" stroke="none" x="831" y="567" width="151.2763671875" height="57" opacity="0.2"/></g><g transform="translate(-14,-64) scale(1,1)"><rect fill="#ffffff" stroke="none" x="824" y="560" width="151.2763671875" height="57"/></g><g transform="translate(-14,-64) scale(1,1)"><path fill="none" stroke="#000000" d="M 824 560 L 975.2763671875 560 L 975.2763671875 617 L 824 617 L 824 560 Z Z" stroke-miterlimit="10"/></g><g transform="translate(-14,-64) scale(1,1)"><path fill="none" stroke="#000000" d="M 824 585 L 975.2763671875 585" stroke-miterlimit="10"/></g><g transform="translate(-14,-64) scale(1,1)"><path fill="none" stroke="#000000" d="M 824 595 L 975.2763671875 595" stroke-miterlimit="10"/></g><g transform="translate(-14,-64) scale(1,1)"><g><path fill="none" stroke="none"/><text fill="#000000" stroke="none" font-family="Arial" font-size="13px" font-style="normal" font-weight="bold" text-decoration="none" x="834.241455078125" y="579.5">ProspectNotifEndPoint</text></g></g><g transform="translate(-14,-64) scale(1,1)"><g><path fill="none" stroke="none"/><text fill="#000000" stroke="none" font-family="Arial" font-size="13px" font-style="normal" font-weight="normal" text-decoration="none" x="829" y="612.5">+onMessage()</text></g></g><g transform="translate(-14,-64) scale(1,1)"><rect fill="#C0C0C0" stroke="none" x="1007" y="711" width="200.1533203125" height="57" opacity="0.2"/></g><g transform="translate(-14,-64) scale(1,1)"><rect fill="#ffffff" stroke="none" x="1000" y="704" width="200.1533203125" height="57"/></g><g transform="translate(-14,-64) scale(1,1)"><path fill="none" stroke="#000000" d="M 1000 704 L 1200.1533203125 704 L 1200.1533203125 761 L 1000 761 L 1000 704 Z Z" stroke-miterlimit="10"/></g><g transform="translate(-14,-64) scale(1,1)"><path fill="none" stroke="#000000" d="M 1000 729 L 1200.1533203125 729" stroke-miterlimit="10"/></g><g transform="translate(-14,-64) scale(1,1)"><path fill="none" stroke="#000000" d="M 1000 739 L 1200.1533203125 739" stroke-miterlimit="10"/></g><g transform="translate(-14,-64) scale(1,1)"><g><path fill="none" stroke="none"/><text fill="#000000" stroke="none" font-family="Arial" font-size="13px" font-style="normal" font-weight="bold" text-decoration="none" x="1042.2685546875" y="723.5">ServerConfiguration</text></g></g><g transform="translate(-14,-64) scale(1,1)"><g><path fill="none" stroke="none"/><text fill="#000000" stroke="none" font-family="Arial" font-size="13px" font-style="normal" font-weight="normal" text-decoration="none" x="1005" y="756.5">+getAnnotatedEndpointClasses()</text></g></g><g transform="translate(-14,-64) scale(1,1)"><path fill="none" stroke="#000000" d="M 875 365 L 896 559" stroke-miterlimit="10"/></g><g transform="translate(-14,-64) scale(1,1)"><rect fill="#C0C0C0" stroke="none" x="783" y="703" width="94.97900390625" height="57" opacity="0.2"/></g><g transform="translate(-14,-64) scale(1,1)"><rect fill="#ffffff" stroke="none" x="776" y="696" width="94.97900390625" height="57"/></g><g transform="translate(-14,-64) scale(1,1)"><path fill="none" stroke="#000000" d="M 776 696 L 870.97900390625 696 L 870.97900390625 753 L 776 753 L 776 696 Z Z" stroke-miterlimit="10"/></g><g transform="translate(-14,-64) scale(1,1)"><path fill="none" stroke="#000000" d="M 776 721 L 870.97900390625 721" stroke-miterlimit="10"/></g><g transform="translate(-14,-64) scale(1,1)"><path fill="none" stroke="#000000" d="M 776 731 L 870.97900390625 731" stroke-miterlimit="10"/></g><g transform="translate(-14,-64) scale(1,1)"><g><path fill="none" stroke="none"/><text fill="#000000" stroke="none" font-family="Arial" font-size="13px" font-style="normal" font-weight="bold" text-decoration="none" x="783.75634765625" y="715.5">NotifierServer</text></g></g><g transform="translate(-14,-64) scale(1,1)"><g><path fill="none" stroke="none"/><text fill="#000000" stroke="none" font-family="Arial" font-size="13px" font-style="normal" font-weight="normal" text-decoration="none" x="781" y="748.5">+runServer()</text></g></g><g transform="translate(-14,-64) scale(1,1)"><path fill="none" stroke="#000000" d="M 941 618 L 1060 703" stroke-miterlimit="10"/></g><g transform="translate(-14,-64) scale(1,1)"><path fill="none" stroke="#000000" d="M 872 725 L 999 729" stroke-miterlimit="10"/></g><g transform="translate(-14,-64) scale(1,1)"><path fill="none" stroke="#000000" d="M 789 695 L 582 521" stroke-miterlimit="10"/></g><g transform="translate(-14,-64) scale(1,1)"><rect fill="#C0C0C0" stroke="none" x="591" y="207" width="67.49365234375" height="44" opacity="0.2"/></g><g transform="translate(-14,-64) scale(1,1)"><rect fill="#ffffff" stroke="none" x="584" y="200" width="67.49365234375" height="44"/></g><g transform="translate(-14,-64) scale(1,1)"><path fill="none" stroke="#000000" d="M 584 200 L 651.49365234375 200 L 651.49365234375 244 L 584 244 L 584 200 Z Z" stroke-miterlimit="10"/></g><g transform="translate(-14,-64) scale(1,1)"><path fill="none" stroke="#000000" d="M 584 225 L 651.49365234375 225" stroke-miterlimit="10"/></g><g transform="translate(-14,-64) scale(1,1)"><path fill="none" stroke="#000000" d="M 584 235 L 651.49365234375 235" stroke-miterlimit="10"/></g><g transform="translate(-14,-64) scale(1,1)"><g><path fill="none" stroke="none"/><text fill="#000000" stroke="none" font-family="Arial" font-size="13px" font-style="normal" font-weight="bold" text-decoration="none" x="590.635986328125" y="219.5">autobahn</text></g></g><g transform="translate(-14,-64) scale(1,1)"><path fill="none" stroke="#000000" d="M 549 447 L 610 245" stroke-miterlimit="10" stroke-dasharray="3"/></g><g transform="translate(-14,-64) scale(1,1)"><path fill="none" stroke="#000000" d="M 611.0918913315248 255.945673726187 L 610 245 L 603.0323236483978 253.51184388128232" stroke-miterlimit="10"/></g><g transform="translate(-14,-64) scale(1,1)"><path fill="none" stroke="#000000" d="M 504 447 L 274 197" stroke-miterlimit="10" stroke-dasharray="3"/></g><g transform="translate(-14,-64) scale(1,1)"><path fill="none" stroke="#000000" d="M 283.97862004417783 201.62894610186075 L 274 197 L 277.7827907217494 207.32910907849495" stroke-miterlimit="10"/></g><g transform="translate(-14,-64) scale(1,1)"><rect fill="#C0C0C0" stroke="none" x="1151" y="535" width="125.30810546875" height="44" opacity="0.2"/></g><g transform="translate(-14,-64) scale(1,1)"><rect fill="#ffffff" stroke="none" x="1144" y="528" width="125.30810546875" height="44"/></g><g transform="translate(-14,-64) scale(1,1)"><path fill="none" stroke="#000000" d="M 1144 528 L 1269.30810546875 528 L 1269.30810546875 572 L 1144 572 L 1144 528 Z Z" stroke-miterlimit="10"/></g><g transform="translate(-14,-64) scale(1,1)"><path fill="none" stroke="#000000" d="M 1144 553 L 1269.30810546875 553" stroke-miterlimit="10"/></g><g transform="translate(-14,-64) scale(1,1)"><path fill="none" stroke="#000000" d="M 1144 563 L 1269.30810546875 563" stroke-miterlimit="10"/></g><g transform="translate(-14,-64) scale(1,1)"><g><path fill="none" stroke="none"/><text fill="#000000" stroke="none" font-family="Arial" font-size="13px" font-style="normal" font-weight="bold" text-decoration="none" x="1154.273193359375" y="547.5">org.glassfish.tyrus</text></g></g><g transform="translate(-14,-64) scale(1,1)"><path fill="none" stroke="#000000" d="M 976 578 L 1143 558" stroke-miterlimit="10" stroke-dasharray="3"/></g><g transform="translate(-14,-64) scale(1,1)"><path fill="none" stroke="#000000" d="M 1133.4099868919918 563.3881025035008 L 1143 558 L 1132.408872881706 555.0288005176133" stroke-miterlimit="10"/></g><g transform="translate(-14,-64) scale(1,1)"><rect fill="#C0C0C0" stroke="none" x="1143" y="599" width="111.6162109375" height="44" opacity="0.2"/></g><g transform="translate(-14,-64) scale(1,1)"><rect fill="#ffffff" stroke="none" x="1136" y="592" width="111.6162109375" height="44"/></g><g transform="translate(-14,-64) scale(1,1)"><path fill="none" stroke="#000000" d="M 1136 592 L 1247.6162109375 592 L 1247.6162109375 636 L 1136 636 L 1136 592 Z Z" stroke-miterlimit="10"/></g><g transform="translate(-14,-64) scale(1,1)"><path fill="none" stroke="#000000" d="M 1136 617 L 1247.6162109375 617" stroke-miterlimit="10"/></g><g transform="translate(-14,-64) scale(1,1)"><path fill="none" stroke="#000000" d="M 1136 627 L 1247.6162109375 627" stroke-miterlimit="10"/></g><g transform="translate(-14,-64) scale(1,1)"><g><path fill="none" stroke="none"/><text fill="#000000" stroke="none" font-family="Arial" font-size="13px" font-style="normal" font-weight="bold" text-decoration="none" x="1144.1181640625" y="611.5">javax.websocket</text></g></g><g transform="translate(-14,-64) scale(1,1)"><path fill="none" stroke="#000000" d="M 976 595 L 1135 609" stroke-miterlimit="10" stroke-dasharray="3"/></g><g transform="translate(-14,-64) scale(1,1)"><path fill="none" stroke="#000000" d="M 1124.5072715649424 612.3019161085847 L 1135 609 L 1125.2457132991324 603.9153278417111" stroke-miterlimit="10"/></g><g transform="translate(-14,-64) scale(1,1)"><rect fill="#C0C0C0" stroke="none" x="839" y="119" width="139.025390625" height="44" opacity="0.2"/></g><g transform="translate(-14,-64) scale(1,1)"><rect fill="#ffffff" stroke="none" x="832" y="112" width="139.025390625" height="44"/></g><g transform="translate(-14,-64) scale(1,1)"><path fill="none" stroke="#000000" d="M 832 112 L 971.025390625 112 L 971.025390625 156 L 832 156 L 832 112 Z Z" stroke-miterlimit="10"/></g><g transform="translate(-14,-64) scale(1,1)"><path fill="none" stroke="#000000" d="M 832 137 L 971.025390625 137" stroke-miterlimit="10"/></g><g transform="translate(-14,-64) scale(1,1)"><path fill="none" stroke="#000000" d="M 832 147 L 971.025390625 147" stroke-miterlimit="10"/></g><g transform="translate(-14,-64) scale(1,1)"><g><path fill="none" stroke="none"/><text fill="#000000" stroke="none" font-family="Arial" font-size="13px" font-style="normal" font-weight="bold" text-decoration="none" x="842.27001953125" y="131.5">org.springframework</text></g></g><g transform="translate(-14,-64) scale(1,1)"><path fill="none" stroke="#000000" d="M 878 263 L 897 157" stroke-miterlimit="10" stroke-dasharray="3"/></g><g transform="translate(-14,-64) scale(1,1)"><path fill="none" stroke="#000000" d="M 899.3504461427166 167.7459482099156 L 897 157 L 891.0634835568179 166.26054925583944" stroke-miterlimit="10"/></g></g></svg>