<svg version="1.1" xmlns="http://www.w3.org/2000/svg" xmlns:xlink="http://www.w3.org/1999/xlink" width="668.39453125" height="264"><defs/><g><g transform="translate(-70,-94) scale(1,1)"><rect fill="#C0C0C0" stroke="none" x="167" y="231" width="128.919921875" height="44" opacity="0.2"/></g><g transform="translate(-70,-94) scale(1,1)"><rect fill="#ffffff" stroke="none" x="160" y="224" width="128.919921875" height="44"/></g><g transform="translate(-70,-94) scale(1,1)"><path fill="none" stroke="#000000" d="M 160 224 L 288.919921875 224 L 288.919921875 268 L 160 268 L 160 224 Z Z" stroke-miterlimit="10"/></g><g transform="translate(-70,-94) scale(1,1)"><path fill="none" stroke="#000000" d="M 160 249 L 288.919921875 249" stroke-miterlimit="10"/></g><g transform="translate(-70,-94) scale(1,1)"><path fill="none" stroke="#000000" d="M 160 259 L 288.919921875 259" stroke-miterlimit="10"/></g><g transform="translate(-70,-94) scale(1,1)"><g><path fill="none" stroke="none"/><text fill="#000000" stroke="none" font-family="Arial" font-size="13px" font-style="normal" font-weight="bold" text-decoration="none" x="169.175048828125" y="243.5">callEndedEventList</text></g></g><g transform="translate(-70,-94) scale(1,1)"><rect fill="#C0C0C0" stroke="none" x="351" y="231" width="158.5380859375" height="44" opacity="0.2"/></g><g transform="translate(-70,-94) scale(1,1)"><rect fill="#ffffff" stroke="none" x="344" y="224" width="158.5380859375" height="44"/></g><g transform="translate(-70,-94) scale(1,1)"><path fill="none" stroke="#000000" d="M 344 224 L 502.5380859375 224 L 502.5380859375 268 L 344 268 L 344 224 Z Z" stroke-miterlimit="10"/></g><g transform="translate(-70,-94) scale(1,1)"><path fill="none" stroke="#000000" d="M 344 249 L 502.5380859375 249" stroke-miterlimit="10"/></g><g transform="translate(-70,-94) scale(1,1)"><path fill="none" stroke="#000000" d="M 344 259 L 502.5380859375 259" stroke-miterlimit="10"/></g><g transform="translate(-70,-94) scale(1,1)"><g><path fill="none" stroke="none"/><text fill="#000000" stroke="none" font-family="Arial" font-size="13px" font-style="normal" font-weight="bold" text-decoration="none" x="353.530517578125" y="243.5">ListenerCallEndedEvent</text></g></g><g transform="translate(-70,-94) scale(1,1)"><rect fill="#C0C0C0" stroke="none" x="399" y="111" width="55.26171875" height="44" opacity="0.2"/></g><g transform="translate(-70,-94) scale(1,1)"><rect fill="#ff0000" stroke="none" x="392" y="104" width="55.26171875" height="44"/></g><g transform="translate(-70,-94) scale(1,1)"><path fill="none" stroke="#000000" d="M 392 104 L 447.26171875 104 L 447.26171875 148 L 392 148 L 392 104 Z Z" stroke-miterlimit="10"/></g><g transform="translate(-70,-94) scale(1,1)"><path fill="none" stroke="#000000" d="M 392 129 L 447.26171875 129" stroke-miterlimit="10"/></g><g transform="translate(-70,-94) scale(1,1)"><path fill="none" stroke="#000000" d="M 392 139 L 447.26171875 139" stroke-miterlimit="10"/></g><g transform="translate(-70,-94) scale(1,1)"><g><path fill="none" stroke="none"/><text fill="#000000" stroke="none" font-family="Arial" font-size="13px" font-style="normal" font-weight="bold" text-decoration="none" x="397.956787109375" y="123.5">Service</text></g></g><g transform="translate(-70,-94) scale(1,1)"><path fill="none" stroke="#000000" d="M 422 223 L 420 149" stroke-miterlimit="10"/></g><g transform="translate(-70,-94) scale(1,1)"><path fill="#FFFFFF" stroke="none" d="M 428.9650955631382 169.09047190943505 L 420 149 L 412.1331709422811 169.54538879107986"/></g><g transform="translate(-70,-94) scale(1,1)"><path fill="none" stroke="#000000" d="M 428.9650955631382 169.09047190943505 L 420 149 L 412.1331709422811 169.54538879107986 L 428.9650955631382 169.09047190943505" stroke-miterlimit="10"/></g><g transform="translate(-70,-94) scale(1,1)"><rect fill="#C0C0C0" stroke="none" x="103" y="127" width="50.919921875" height="44" opacity="0.2"/></g><g transform="translate(-70,-94) scale(1,1)"><rect fill="#ff0000" stroke="none" x="96" y="120" width="50.919921875" height="44"/></g><g transform="translate(-70,-94) scale(1,1)"><path fill="none" stroke="#000000" d="M 96 120 L 146.919921875 120 L 146.919921875 164 L 96 164 L 96 120 Z Z" stroke-miterlimit="10"/></g><g transform="translate(-70,-94) scale(1,1)"><path fill="none" stroke="#000000" d="M 96 145 L 146.919921875 145" stroke-miterlimit="10"/></g><g transform="translate(-70,-94) scale(1,1)"><path fill="none" stroke="#000000" d="M 96 155 L 146.919921875 155" stroke-miterlimit="10"/></g><g transform="translate(-70,-94) scale(1,1)"><g><path fill="none" stroke="none"/><text fill="#000000" stroke="none" font-family="Arial" font-size="13px" font-style="normal" font-weight="bold" text-decoration="none" x="110.259521484375" y="139.5">Bus</text></g></g><g transform="translate(-70,-94) scale(1,1)"><rect fill="#C0C0C0" stroke="none" x="87" y="303" width="68.21728515625" height="44" opacity="0.2"/></g><g transform="translate(-70,-94) scale(1,1)"><rect fill="#ffffff" stroke="none" x="80" y="296" width="68.21728515625" height="44"/></g><g transform="translate(-70,-94) scale(1,1)"><path fill="none" stroke="#000000" d="M 80 296 L 148.21728515625 296 L 148.21728515625 340 L 80 340 L 80 296 Z Z" stroke-miterlimit="10"/></g><g transform="translate(-70,-94) scale(1,1)"><path fill="none" stroke="#000000" d="M 80 321 L 148.21728515625 321" stroke-miterlimit="10"/></g><g transform="translate(-70,-94) scale(1,1)"><path fill="none" stroke="#000000" d="M 80 331 L 148.21728515625 331" stroke-miterlimit="10"/></g><g transform="translate(-70,-94) scale(1,1)"><g><path fill="none" stroke="none"/><text fill="#000000" stroke="none" font-family="Arial" font-size="13px" font-style="normal" font-weight="bold" text-decoration="none" x="87.004150390625" y="315.5">Singleton</text></g></g><g transform="translate(-70,-94) scale(1,1)"><path fill="none" stroke="#000000" d="M 115 295 L 120 165" stroke-miterlimit="10"/></g><g transform="translate(-70,-94) scale(1,1)"><path fill="none" stroke="#000000" d="M 123.81582433383 175.3169513255298 L 120 165 L 115.40300901881419 174.9933815057215" stroke-miterlimit="10"/></g><g transform="translate(-70,-94) scale(1,1)"><rect fill="#C0C0C0" stroke="none" x="567" y="111" width="55.9599609375" height="44" opacity="0.2"/></g><g transform="translate(-70,-94) scale(1,1)"><rect fill="#ff0000" stroke="none" x="560" y="104" width="55.9599609375" height="44"/></g><g transform="translate(-70,-94) scale(1,1)"><path fill="none" stroke="#000000" d="M 560 104 L 615.9599609375 104 L 615.9599609375 148 L 560 148 L 560 104 Z Z" stroke-miterlimit="10"/></g><g transform="translate(-70,-94) scale(1,1)"><path fill="none" stroke="#000000" d="M 560 129 L 615.9599609375 129" stroke-miterlimit="10"/></g><g transform="translate(-70,-94) scale(1,1)"><path fill="none" stroke="#000000" d="M 560 139 L 615.9599609375 139" stroke-miterlimit="10"/></g><g transform="translate(-70,-94) scale(1,1)"><g><path fill="none" stroke="none"/><text fill="#000000" stroke="none" font-family="Arial" font-size="13px" font-style="normal" font-weight="bold" text-decoration="none" x="567.39453125" y="123.5">Activity</text></g></g><g transform="translate(-70,-94) scale(1,1)"><rect fill="#C0C0C0" stroke="none" x="511" y="311" width="100.7236328125" height="44" opacity="0.2"/></g><g transform="translate(-70,-94) scale(1,1)"><rect fill="#ffffff" stroke="none" x="504" y="304" width="100.7236328125" height="44"/></g><g transform="translate(-70,-94) scale(1,1)"><path fill="none" stroke="#000000" d="M 504 304 L 604.7236328125 304 L 604.7236328125 348 L 504 348 L 504 304 Z Z" stroke-miterlimit="10"/></g><g transform="translate(-70,-94) scale(1,1)"><path fill="none" stroke="#000000" d="M 504 329 L 604.7236328125 329" stroke-miterlimit="10"/></g><g transform="translate(-70,-94) scale(1,1)"><path fill="none" stroke="#000000" d="M 504 339 L 604.7236328125 339" stroke-miterlimit="10"/></g><g transform="translate(-70,-94) scale(1,1)"><g><path fill="none" stroke="none"/><text fill="#000000" stroke="none" font-family="Arial" font-size="13px" font-style="normal" font-weight="bold" text-decoration="none" x="513.536865234375" y="323.5">AddlogActivity</text></g></g><g transform="translate(-70,-94) scale(1,1)"><rect fill="#C0C0C0" stroke="none" x="639" y="311" width="96.39453125" height="44" opacity="0.2"/></g><g transform="translate(-70,-94) scale(1,1)"><rect fill="#ffffff" stroke="none" x="632" y="304" width="96.39453125" height="44"/></g><g transform="translate(-70,-94) scale(1,1)"><path fill="none" stroke="#000000" d="M 632 304 L 728.39453125 304 L 728.39453125 348 L 632 348 L 632 304 Z Z" stroke-miterlimit="10"/></g><g transform="translate(-70,-94) scale(1,1)"><path fill="none" stroke="#000000" d="M 632 329 L 728.39453125 329" stroke-miterlimit="10"/></g><g transform="translate(-70,-94) scale(1,1)"><path fill="none" stroke="#000000" d="M 632 339 L 728.39453125 339" stroke-miterlimit="10"/></g><g transform="translate(-70,-94) scale(1,1)"><g><path fill="none" stroke="none"/><text fill="#000000" stroke="none" font-family="Arial" font-size="13px" font-style="normal" font-weight="bold" text-decoration="none" x="640.81640625" y="323.5">PopupActivity</text></g></g><g transform="translate(-70,-94) scale(1,1)"><path fill="none" stroke="#000000" d="M 558 303 L 583 149" stroke-miterlimit="10"/></g><g transform="translate(-70,-94) scale(1,1)"><path fill="#FFFFFF" stroke="none" d="M 588.0533124843528 170.41177323192744 L 583 149 L 571.432821475616 167.71364157466496"/></g><g transform="translate(-70,-94) scale(1,1)"><path fill="none" stroke="#000000" d="M 588.0533124843528 170.41177323192744 L 583 149 L 571.432821475616 167.71364157466496 L 588.0533124843528 170.41177323192744" stroke-miterlimit="10"/></g><g transform="translate(-70,-94) scale(1,1)"><path fill="none" stroke="#000000" d="M 669 303 L 598 149" stroke-miterlimit="10"/></g><g transform="translate(-70,-94) scale(1,1)"><path fill="#FFFFFF" stroke="none" d="M 614.1554972760712 163.93318143473977 L 598 149 L 598.8643078201571 170.98301553454428"/></g><g transform="translate(-70,-94) scale(1,1)"><path fill="none" stroke="#000000" d="M 614.1554972760712 163.93318143473977 L 598 149 L 598.8643078201571 170.98301553454428 L 614.1554972760712 163.93318143473977" stroke-miterlimit="10"/></g><g transform="translate(-70,-94) scale(1,1)"><rect fill="#C0C0C0" stroke="none" x="215" y="311" width="50.919921875" height="44" opacity="0.2"/></g><g transform="translate(-70,-94) scale(1,1)"><rect fill="#ffffff" stroke="none" x="208" y="304" width="50.919921875" height="44"/></g><g transform="translate(-70,-94) scale(1,1)"><path fill="none" stroke="#000000" d="M 208 304 L 258.919921875 304 L 258.919921875 348 L 208 348 L 208 304 Z Z" stroke-miterlimit="10"/></g><g transform="translate(-70,-94) scale(1,1)"><path fill="none" stroke="#000000" d="M 208 329 L 258.919921875 329" stroke-miterlimit="10"/></g><g transform="translate(-70,-94) scale(1,1)"><path fill="none" stroke="#000000" d="M 208 339 L 258.919921875 339" stroke-miterlimit="10"/></g><g transform="translate(-70,-94) scale(1,1)"><g><path fill="none" stroke="none"/><text fill="#000000" stroke="none" font-family="Arial" font-size="13px" font-style="normal" font-weight="bold" text-decoration="none" x="222.986328125" y="323.5">Cra</text></g></g><g transform="translate(-70,-94) scale(1,1)"><path fill="none" stroke="#000000" d="M 149 295 L 189 269" stroke-miterlimit="10"/></g><g transform="translate(-70,-94) scale(1,1)"><path fill="none" stroke="#000000" d="M 182.7733082797393 278.0679826985299 L 189 269 L 178.1850320024328 271.00909611805827" stroke-miterlimit="10"/></g><g transform="translate(-70,-94) scale(1,1)"><rect fill="#C0C0C0" stroke="none" x="183" y="127" width="105.80810546875" height="44" opacity="0.2"/></g><g transform="translate(-70,-94) scale(1,1)"><rect fill="#ffffff" stroke="none" x="176" y="120" width="105.80810546875" height="44"/></g><g transform="translate(-70,-94) scale(1,1)"><path fill="none" stroke="#000000" d="M 176 120 L 281.80810546875 120 L 281.80810546875 164 L 176 164 L 176 120 Z Z" stroke-miterlimit="10"/></g><g transform="translate(-70,-94) scale(1,1)"><path fill="none" stroke="#000000" d="M 176 145 L 281.80810546875 145" stroke-miterlimit="10"/></g><g transform="translate(-70,-94) scale(1,1)"><path fill="none" stroke="#000000" d="M 176 155 L 281.80810546875 155" stroke-miterlimit="10"/></g><g transform="translate(-70,-94) scale(1,1)"><g><path fill="none" stroke="none"/><text fill="#000000" stroke="none" font-family="Arial" font-size="13px" font-style="normal" font-weight="bold" text-decoration="none" x="183.734130859375" y="139.5">callEndedEvent</text></g></g><g transform="translate(-70,-94) scale(1,1)"><path fill="none" stroke="#000000" d="M 225 223 L 227 165" stroke-miterlimit="10"/></g><g transform="translate(-70,-94) scale(1,1)"><path fill="none" stroke="#000000" d="M 230.8567883955344 175.30170778424971 L 227 165 L 222.44275379603874 175.01156866012917" stroke-miterlimit="10"/></g><g transform="translate(-70,-94) scale(1,1)"><rect fill="#C0C0C0" stroke="none" x="319" y="311" width="92.7890625" height="44" opacity="0.2"/></g><g transform="translate(-70,-94) scale(1,1)"><rect fill="#ffffff" stroke="none" x="312" y="304" width="92.7890625" height="44"/></g><g transform="translate(-70,-94) scale(1,1)"><path fill="none" stroke="#000000" d="M 312 304 L 404.7890625 304 L 404.7890625 348 L 312 348 L 312 304 Z Z" stroke-miterlimit="10"/></g><g transform="translate(-70,-94) scale(1,1)"><path fill="none" stroke="#000000" d="M 312 329 L 404.7890625 329" stroke-miterlimit="10"/></g><g transform="translate(-70,-94) scale(1,1)"><path fill="none" stroke="#000000" d="M 312 339 L 404.7890625 339" stroke-miterlimit="10"/></g><g transform="translate(-70,-94) scale(1,1)"><g><path fill="none" stroke="none"/><text fill="#000000" stroke="none" font-family="Arial" font-size="13px" font-style="normal" font-weight="bold" text-decoration="none" x="319.74365234375" y="323.5">CraController</text></g></g></g></svg>