<svg version="1.1" xmlns="http://www.w3.org/2000/svg" xmlns:xlink="http://www.w3.org/1999/xlink" width="984.05712890625" height="400"><defs/><g><g transform="translate(-7,-6) scale(1,1)"><rect fill="#C0C0C0" stroke="none" x="32" y="23" width="202.64794921875" height="44" opacity="0.2"/></g><g transform="translate(-7,-6) scale(1,1)"><rect fill="#ffffff" stroke="none" x="25" y="16" width="202.64794921875" height="44"/></g><g transform="translate(-7,-6) scale(1,1)"><path fill="none" stroke="#000000" d="M 25 16 L 227.64794921875 16 L 227.64794921875 60 L 25 60 L 25 16 Z Z" stroke-miterlimit="10"/></g><g transform="translate(-7,-6) scale(1,1)"><path fill="none" stroke="#000000" d="M 25 41 L 227.64794921875 41" stroke-miterlimit="10"/></g><g transform="translate(-7,-6) scale(1,1)"><path fill="none" stroke="#000000" d="M 25 51 L 227.64794921875 51" stroke-miterlimit="10"/></g><g transform="translate(-7,-6) scale(1,1)"><g><path fill="none" stroke="none"/><text fill="#000000" stroke="none" font-family="Arial" font-size="13px" font-style="normal" font-weight="bold" text-decoration="none" x="36.364990234375" y="35.5">BootServiceBroadcastReceiver</text></g></g><g transform="translate(-7,-6) scale(1,1)"><rect fill="#C0C0C0" stroke="none" x="88" y="111" width="79.103515625" height="44" opacity="0.2"/></g><g transform="translate(-7,-6) scale(1,1)"><rect fill="#ffffff" stroke="none" x="81" y="104" width="79.103515625" height="44"/></g><g transform="translate(-7,-6) scale(1,1)"><path fill="none" stroke="#000000" d="M 81 104 L 160.103515625 104 L 160.103515625 148 L 81 148 L 81 104 Z Z" stroke-miterlimit="10"/></g><g transform="translate(-7,-6) scale(1,1)"><path fill="none" stroke="#000000" d="M 81 129 L 160.103515625 129" stroke-miterlimit="10"/></g><g transform="translate(-7,-6) scale(1,1)"><path fill="none" stroke="#000000" d="M 81 139 L 160.103515625 139" stroke-miterlimit="10"/></g><g transform="translate(-7,-6) scale(1,1)"><g><path fill="none" stroke="none"/><text fill="#000000" stroke="none" font-family="Arial" font-size="13px" font-style="normal" font-weight="bold" text-decoration="none" x="87.680419921875" y="123.5">CallService</text></g></g><g transform="translate(-7,-6) scale(1,1)"><path fill="none" stroke="#000000" d="M 124 61 L 122 103" stroke-miterlimit="10"/></g><g transform="translate(-7,-6) scale(1,1)"><path fill="#000000" stroke="none" d="M 118.27863598639388 92.64860154963411 L 122 103 L 126.68814230973317 93.04905423169788 L 123.04643328713989 81.02490097006238"/></g><g transform="translate(-7,-6) scale(1,1)"><path fill="none" stroke="#000000" d="M 118.27863598639388 92.64860154963411 L 122 103 L 126.68814230973317 93.04905423169788 L 123.04643328713989 81.02490097006238 L 118.27863598639388 92.64860154963411" stroke-miterlimit="10"/></g><g transform="translate(-7,-6) scale(1,1)"><rect fill="#C0C0C0" stroke="none" x="188" y="183" width="126.03173828125" height="44" opacity="0.2"/></g><g transform="translate(-7,-6) scale(1,1)"><rect fill="#ffffff" stroke="none" x="181" y="176" width="126.03173828125" height="44"/></g><g transform="translate(-7,-6) scale(1,1)"><path fill="none" stroke="#000000" d="M 181 176 L 307.03173828125 176 L 307.03173828125 220 L 181 220 L 181 176 Z Z" stroke-miterlimit="10"/></g><g transform="translate(-7,-6) scale(1,1)"><path fill="none" stroke="#000000" d="M 181 201 L 307.03173828125 201" stroke-miterlimit="10"/></g><g transform="translate(-7,-6) scale(1,1)"><path fill="none" stroke="#000000" d="M 181 211 L 307.03173828125 211" stroke-miterlimit="10"/></g><g transform="translate(-7,-6) scale(1,1)"><g><path fill="none" stroke="none"/><text fill="#000000" stroke="none" font-family="Arial" font-size="13px" font-style="normal" font-weight="bold" text-decoration="none" x="189.464111328125" y="195.5">MessageController</text></g></g><g transform="translate(-7,-6) scale(1,1)"><rect fill="#C0C0C0" stroke="none" x="520" y="23" width="141.17724609375" height="44" opacity="0.2"/></g><g transform="translate(-7,-6) scale(1,1)"><rect fill="#ffffff" stroke="none" x="513" y="16" width="141.17724609375" height="44"/></g><g transform="translate(-7,-6) scale(1,1)"><path fill="none" stroke="#000000" d="M 513 16 L 654.17724609375 16 L 654.17724609375 60 L 513 60 L 513 16 Z Z" stroke-miterlimit="10"/></g><g transform="translate(-7,-6) scale(1,1)"><path fill="none" stroke="#000000" d="M 513 41 L 654.17724609375 41" stroke-miterlimit="10"/></g><g transform="translate(-7,-6) scale(1,1)"><path fill="none" stroke="#000000" d="M 513 51 L 654.17724609375 51" stroke-miterlimit="10"/></g><g transform="translate(-7,-6) scale(1,1)"><g><path fill="none" stroke="none"/><text fill="#000000" stroke="none" font-family="Arial" font-size="13px" font-style="normal" font-weight="bold" text-decoration="none" x="522.52099609375" y="35.5">BusHandlerSingleton</text></g></g><g transform="translate(-7,-6) scale(1,1)"><rect fill="#C0C0C0" stroke="none" x="512" y="95" width="148.4072265625" height="44" opacity="0.2"/></g><g transform="translate(-7,-6) scale(1,1)"><rect fill="#ffffff" stroke="none" x="505" y="88" width="148.4072265625" height="44"/></g><g transform="translate(-7,-6) scale(1,1)"><path fill="none" stroke="#000000" d="M 505 88 L 653.4072265625 88 L 653.4072265625 132 L 505 132 L 505 88 Z Z" stroke-miterlimit="10"/></g><g transform="translate(-7,-6) scale(1,1)"><path fill="none" stroke="#000000" d="M 505 113 L 653.4072265625 113" stroke-miterlimit="10"/></g><g transform="translate(-7,-6) scale(1,1)"><path fill="none" stroke="#000000" d="M 505 123 L 653.4072265625 123" stroke-miterlimit="10"/></g><g transform="translate(-7,-6) scale(1,1)"><g><path fill="none" stroke="none"/><text fill="#000000" stroke="none" font-family="Arial" font-size="13px" font-style="normal" font-weight="bold" text-decoration="none" x="513.794189453125" y="107.5">PhoneCallBegunEvent</text></g></g><g transform="translate(-7,-6) scale(1,1)"><rect fill="#C0C0C0" stroke="none" x="668" y="95" width="147.68994140625" height="44" opacity="0.2"/></g><g transform="translate(-7,-6) scale(1,1)"><rect fill="#ffffff" stroke="none" x="661" y="88" width="147.68994140625" height="44"/></g><g transform="translate(-7,-6) scale(1,1)"><path fill="none" stroke="#000000" d="M 661 88 L 808.68994140625 88 L 808.68994140625 132 L 661 132 L 661 88 Z Z" stroke-miterlimit="10"/></g><g transform="translate(-7,-6) scale(1,1)"><path fill="none" stroke="#000000" d="M 661 113 L 808.68994140625 113" stroke-miterlimit="10"/></g><g transform="translate(-7,-6) scale(1,1)"><path fill="none" stroke="#000000" d="M 661 123 L 808.68994140625 123" stroke-miterlimit="10"/></g><g transform="translate(-7,-6) scale(1,1)"><g><path fill="none" stroke="none"/><text fill="#000000" stroke="none" font-family="Arial" font-size="13px" font-style="normal" font-weight="bold" text-decoration="none" x="669.435546875" y="107.5">PhoneCallEndedEvent</text></g></g><g transform="translate(-7,-6) scale(1,1)"><rect fill="#C0C0C0" stroke="none" x="152" y="359" width="50.919921875" height="44" opacity="0.2"/></g><g transform="translate(-7,-6) scale(1,1)"><rect fill="#ffffff" stroke="none" x="145" y="352" width="50.919921875" height="44"/></g><g transform="translate(-7,-6) scale(1,1)"><path fill="none" stroke="#000000" d="M 145 352 L 195.919921875 352 L 195.919921875 396 L 145 396 L 145 352 Z Z" stroke-miterlimit="10"/></g><g transform="translate(-7,-6) scale(1,1)"><path fill="none" stroke="#000000" d="M 145 377 L 195.919921875 377" stroke-miterlimit="10"/></g><g transform="translate(-7,-6) scale(1,1)"><path fill="none" stroke="#000000" d="M 145 387 L 195.919921875 387" stroke-miterlimit="10"/></g><g transform="translate(-7,-6) scale(1,1)"><g><path fill="none" stroke="none"/><text fill="#000000" stroke="none" font-family="Arial" font-size="13px" font-style="normal" font-weight="bold" text-decoration="none" x="159.2626953125" y="371.5">Call</text></g></g><g transform="translate(-7,-6) scale(1,1)"><rect fill="#C0C0C0" stroke="none" x="24" y="359" width="120.26806640625" height="44" opacity="0.2"/></g><g transform="translate(-7,-6) scale(1,1)"><rect fill="#ffffff" stroke="none" x="17" y="352" width="120.26806640625" height="44"/></g><g transform="translate(-7,-6) scale(1,1)"><path fill="none" stroke="#000000" d="M 17 352 L 137.26806640625 352 L 137.26806640625 396 L 17 396 L 17 352 Z Z" stroke-miterlimit="10"/></g><g transform="translate(-7,-6) scale(1,1)"><path fill="none" stroke="#000000" d="M 17 377 L 137.26806640625 377" stroke-miterlimit="10"/></g><g transform="translate(-7,-6) scale(1,1)"><path fill="none" stroke="#000000" d="M 17 387 L 137.26806640625 387" stroke-miterlimit="10"/></g><g transform="translate(-7,-6) scale(1,1)"><g><path fill="none" stroke="none"/><text fill="#000000" stroke="none" font-family="Arial" font-size="13px" font-style="normal" font-weight="bold" text-decoration="none" x="23.658203125" y="371.5">MessageMetadata</text></g></g><g transform="translate(-7,-6) scale(1,1)"><rect fill="#C0C0C0" stroke="none" x="208" y="359" width="61.01904296875" height="44" opacity="0.2"/></g><g transform="translate(-7,-6) scale(1,1)"><rect fill="#ffffff" stroke="none" x="201" y="352" width="61.01904296875" height="44"/></g><g transform="translate(-7,-6) scale(1,1)"><path fill="none" stroke="#000000" d="M 201 352 L 262.01904296875 352 L 262.01904296875 396 L 201 396 L 201 352 Z Z" stroke-miterlimit="10"/></g><g transform="translate(-7,-6) scale(1,1)"><path fill="none" stroke="#000000" d="M 201 377 L 262.01904296875 377" stroke-miterlimit="10"/></g><g transform="translate(-7,-6) scale(1,1)"><path fill="none" stroke="#000000" d="M 201 387 L 262.01904296875 387" stroke-miterlimit="10"/></g><g transform="translate(-7,-6) scale(1,1)"><g><path fill="none" stroke="none"/><text fill="#000000" stroke="none" font-family="Arial" font-size="13px" font-style="normal" font-weight="bold" text-decoration="none" x="207.305908203125" y="371.5">Register</text></g></g><g transform="translate(-7,-6) scale(1,1)"><rect fill="#C0C0C0" stroke="none" x="108" y="263" width="63.919921875" height="44" opacity="0.2"/></g><g transform="translate(-7,-6) scale(1,1)"><rect fill="#ffffff" stroke="none" x="101" y="256" width="63.919921875" height="44"/></g><g transform="translate(-7,-6) scale(1,1)"><path fill="none" stroke="#000000" d="M 101 256 L 164.919921875 256 L 164.919921875 300 L 101 300 L 101 256 Z Z" stroke-miterlimit="10"/></g><g transform="translate(-7,-6) scale(1,1)"><path fill="none" stroke="#000000" d="M 101 281 L 164.919921875 281" stroke-miterlimit="10"/></g><g transform="translate(-7,-6) scale(1,1)"><path fill="none" stroke="#000000" d="M 101 291 L 164.919921875 291" stroke-miterlimit="10"/></g><g transform="translate(-7,-6) scale(1,1)"><g><path fill="none" stroke="none"/><text fill="#000000" stroke="none" font-family="Arial" font-size="13px" font-style="normal" font-weight="bold" text-decoration="none" x="106.58544921875" y="275.5">Message</text></g></g><g transform="translate(-7,-6) scale(1,1)"><rect fill="#C0C0C0" stroke="none" x="344" y="183" width="151.314453125" height="44" opacity="0.2"/></g><g transform="translate(-7,-6) scale(1,1)"><rect fill="#ffffff" stroke="none" x="337" y="176" width="151.314453125" height="44"/></g><g transform="translate(-7,-6) scale(1,1)"><path fill="none" stroke="#000000" d="M 337 176 L 488.314453125 176 L 488.314453125 220 L 337 220 L 337 176 Z Z" stroke-miterlimit="10"/></g><g transform="translate(-7,-6) scale(1,1)"><path fill="none" stroke="#000000" d="M 337 201 L 488.314453125 201" stroke-miterlimit="10"/></g><g transform="translate(-7,-6) scale(1,1)"><path fill="none" stroke="#000000" d="M 337 211 L 488.314453125 211" stroke-miterlimit="10"/></g><g transform="translate(-7,-6) scale(1,1)"><g><path fill="none" stroke="none"/><text fill="#000000" stroke="none" font-family="Arial" font-size="13px" font-style="normal" font-weight="bold" text-decoration="none" x="345.4609375" y="195.5">CallWebSocketHandler</text></g></g><g transform="translate(-7,-6) scale(1,1)"><rect fill="#C0C0C0" stroke="none" x="344" y="263" width="150.5654296875" height="44" opacity="0.2"/></g><g transform="translate(-7,-6) scale(1,1)"><rect fill="#568eff" stroke="none" x="337" y="256" width="150.5654296875" height="44"/></g><g transform="translate(-7,-6) scale(1,1)"><path fill="none" stroke="#000000" d="M 337 256 L 487.5654296875 256 L 487.5654296875 300 L 337 300 L 337 256 Z Z" stroke-miterlimit="10"/></g><g transform="translate(-7,-6) scale(1,1)"><path fill="none" stroke="#000000" d="M 337 281 L 487.5654296875 281" stroke-miterlimit="10"/></g><g transform="translate(-7,-6) scale(1,1)"><path fill="none" stroke="#000000" d="M 337 291 L 487.5654296875 291" stroke-miterlimit="10"/></g><g transform="translate(-7,-6) scale(1,1)"><g><path fill="none" stroke="none"/><text fill="#000000" stroke="none" font-family="Arial" font-size="13px" font-style="normal" font-weight="bold" text-decoration="none" x="346.162353515625" y="275.5">WebSocketConnection</text></g></g><g transform="translate(-7,-6) scale(1,1)"><rect fill="#C0C0C0" stroke="none" x="288" y="359" width="258.18359375" height="44" opacity="0.2"/></g><g transform="translate(-7,-6) scale(1,1)"><rect fill="#ffffff" stroke="none" x="281" y="352" width="258.18359375" height="44"/></g><g transform="translate(-7,-6) scale(1,1)"><path fill="none" stroke="#000000" d="M 281 352 L 539.18359375 352 L 539.18359375 396 L 281 396 L 281 352 Z Z" stroke-miterlimit="10"/></g><g transform="translate(-7,-6) scale(1,1)"><path fill="none" stroke="#000000" d="M 281 377 L 539.18359375 377" stroke-miterlimit="10"/></g><g transform="translate(-7,-6) scale(1,1)"><path fill="none" stroke="#000000" d="M 281 387 L 539.18359375 387" stroke-miterlimit="10"/></g><g transform="translate(-7,-6) scale(1,1)"><g><path fill="none" stroke="none"/><text fill="#000000" stroke="none" font-family="Arial" font-size="13px" font-style="normal" font-weight="bold" text-decoration="none" x="294.104248046875" y="371.5">WebSocketConnectionHandlerSingleton</text></g></g><g transform="translate(-7,-6) scale(1,1)"><rect fill="#C0C0C0" stroke="none" x="248" y="23" width="79.8017578125" height="44" opacity="0.2"/></g><g transform="translate(-7,-6) scale(1,1)"><rect fill="#ffffff" stroke="none" x="241" y="16" width="79.8017578125" height="44"/></g><g transform="translate(-7,-6) scale(1,1)"><path fill="none" stroke="#000000" d="M 241 16 L 320.8017578125 16 L 320.8017578125 60 L 241 60 L 241 16 Z Z" stroke-miterlimit="10"/></g><g transform="translate(-7,-6) scale(1,1)"><path fill="none" stroke="#000000" d="M 241 41 L 320.8017578125 41" stroke-miterlimit="10"/></g><g transform="translate(-7,-6) scale(1,1)"><path fill="none" stroke="#000000" d="M 241 51 L 320.8017578125 51" stroke-miterlimit="10"/></g><g transform="translate(-7,-6) scale(1,1)"><g><path fill="none" stroke="none"/><text fill="#000000" stroke="none" font-family="Arial" font-size="13px" font-style="normal" font-weight="bold" text-decoration="none" x="249.1181640625" y="35.5">CallActivity</text></g></g><g transform="translate(-7,-6) scale(1,1)"><rect fill="#C0C0C0" stroke="none" x="336" y="23" width="139.7490234375" height="44" opacity="0.2"/></g><g transform="translate(-7,-6) scale(1,1)"><rect fill="#ffffff" stroke="none" x="329" y="16" width="139.7490234375" height="44"/></g><g transform="translate(-7,-6) scale(1,1)"><path fill="none" stroke="#000000" d="M 329 16 L 468.7490234375 16 L 468.7490234375 60 L 329 60 L 329 16 Z Z" stroke-miterlimit="10"/></g><g transform="translate(-7,-6) scale(1,1)"><path fill="none" stroke="#000000" d="M 329 41 L 468.7490234375 41" stroke-miterlimit="10"/></g><g transform="translate(-7,-6) scale(1,1)"><path fill="none" stroke="#000000" d="M 329 51 L 468.7490234375 51" stroke-miterlimit="10"/></g><g transform="translate(-7,-6) scale(1,1)"><g><path fill="none" stroke="none"/><text fill="#000000" stroke="none" font-family="Arial" font-size="13px" font-style="normal" font-weight="bold" text-decoration="none" x="339.27001953125" y="35.5">ContactDetailActivity</text></g></g><g transform="translate(-7,-6) scale(1,1)"><path fill="none" stroke="#000000" d="M 119 301 L 90 351" stroke-miterlimit="10"/></g><g transform="translate(-7,-6) scale(1,1)"><path fill="none" stroke="#000000" d="M 91.45743366583437 340.0969780744193 L 90 351 L 98.74016196724475 344.32096048923734" stroke-miterlimit="10"/></g><g transform="translate(-7,-6) scale(1,1)"><path fill="none" stroke="#000000" d="M 141 301 L 161 351" stroke-miterlimit="10"/></g><g transform="translate(-7,-6) scale(1,1)"><path fill="none" stroke="#000000" d="M 153.31723819473166 343.1275689241817 L 161 351 L 161.1341164273886 340.00081763111893" stroke-miterlimit="10"/></g><g transform="translate(-7,-6) scale(1,1)"><path fill="none" stroke="#000000" d="M 156 301 L 207 351" stroke-miterlimit="10"/></g><g transform="translate(-7,-6) scale(1,1)"><path fill="none" stroke="#000000" d="M 196.79614687634069 346.89130416910814 L 207 351 L 202.6900729458855 340.87949957817244" stroke-miterlimit="10"/></g><g transform="translate(-7,-6) scale(1,1)"><path fill="none" stroke="#000000" d="M 410 351 L 412 301" stroke-miterlimit="10"/></g><g transform="translate(-7,-6) scale(1,1)"><path fill="none" stroke="#000000" d="M 415.79997199913095 311.32280062801857 L 412 301 L 407.3876636439958 310.9863082938132" stroke-miterlimit="10"/></g><g transform="translate(-7,-6) scale(1,1)"><path fill="none" stroke="#000000" d="M 412 255 L 412 221" stroke-miterlimit="10"/></g><g transform="translate(-7,-6) scale(1,1)"><path fill="none" stroke="#000000" d="M 416.209517756016 231.16267485762415 L 412 221 L 407.790482243984 231.16267485762415" stroke-miterlimit="10"/></g><g transform="translate(-7,-6) scale(1,1)"><rect fill="#C0C0C0" stroke="none" x="28" y="191" width="55.26171875" height="44" opacity="0.2"/></g><g transform="translate(-7,-6) scale(1,1)"><rect fill="#568eff" stroke="none" x="21" y="184" width="55.26171875" height="44"/></g><g transform="translate(-7,-6) scale(1,1)"><path fill="none" stroke="#000000" d="M 21 184 L 76.26171875 184 L 76.26171875 228 L 21 228 L 21 184 Z Z" stroke-miterlimit="10"/></g><g transform="translate(-7,-6) scale(1,1)"><path fill="none" stroke="#000000" d="M 21 209 L 76.26171875 209" stroke-miterlimit="10"/></g><g transform="translate(-7,-6) scale(1,1)"><path fill="none" stroke="#000000" d="M 21 219 L 76.26171875 219" stroke-miterlimit="10"/></g><g transform="translate(-7,-6) scale(1,1)"><g><path fill="none" stroke="none"/><text fill="#000000" stroke="none" font-family="Arial" font-size="13px" font-style="normal" font-weight="bold" text-decoration="none" x="26.956787109375" y="203.5">Service</text></g></g><g transform="translate(-7,-6) scale(1,1)"><path fill="none" stroke="#000000" d="M 99 149 L 69 183" stroke-miterlimit="10"/></g><g transform="translate(-7,-6) scale(1,1)"><path fill="#FFFFFF" stroke="none" d="M 76.13477962038064 162.1890673018098 L 69 183 L 88.76060268554986 173.3294994181356"/></g><g transform="translate(-7,-6) scale(1,1)"><path fill="none" stroke="#000000" d="M 76.13477962038064 162.1890673018098 L 69 183 L 88.76060268554986 173.3294994181356 L 76.13477962038064 162.1890673018098" stroke-miterlimit="10"/></g><g transform="translate(-7,-6) scale(1,1)"><rect fill="#C0C0C0" stroke="none" x="324" y="111" width="55.9599609375" height="44" opacity="0.2"/></g><g transform="translate(-7,-6) scale(1,1)"><rect fill="#568eff" stroke="none" x="317" y="104" width="55.9599609375" height="44"/></g><g transform="translate(-7,-6) scale(1,1)"><path fill="none" stroke="#000000" d="M 317 104 L 372.9599609375 104 L 372.9599609375 148 L 317 148 L 317 104 Z Z" stroke-miterlimit="10"/></g><g transform="translate(-7,-6) scale(1,1)"><path fill="none" stroke="#000000" d="M 317 129 L 372.9599609375 129" stroke-miterlimit="10"/></g><g transform="translate(-7,-6) scale(1,1)"><path fill="none" stroke="#000000" d="M 317 139 L 372.9599609375 139" stroke-miterlimit="10"/></g><g transform="translate(-7,-6) scale(1,1)"><g><path fill="none" stroke="none"/><text fill="#000000" stroke="none" font-family="Arial" font-size="13px" font-style="normal" font-weight="bold" text-decoration="none" x="324.39453125" y="123.5">Activity</text></g></g><g transform="translate(-7,-6) scale(1,1)"><path fill="none" stroke="#000000" d="M 297 61 L 327 103" stroke-miterlimit="10"/></g><g transform="translate(-7,-6) scale(1,1)"><path fill="#FFFFFF" stroke="none" d="M 308.3352794533816 91.35404761659056 L 327 103 L 322.0369814362187 81.56711762884977"/></g><g transform="translate(-7,-6) scale(1,1)"><path fill="none" stroke="#000000" d="M 308.3352794533816 91.35404761659056 L 327 103 L 322.0369814362187 81.56711762884977 L 308.3352794533816 91.35404761659056" stroke-miterlimit="10"/></g><g transform="translate(-7,-6) scale(1,1)"><path fill="none" stroke="#000000" d="M 384 61 L 358 103" stroke-miterlimit="10"/></g><g transform="translate(-7,-6) scale(1,1)"><path fill="#FFFFFF" stroke="none" d="M 361.5399291517028 81.28666535050581 L 358 103 L 375.85675408091913 90.1494617352588"/></g><g transform="translate(-7,-6) scale(1,1)"><path fill="none" stroke="#000000" d="M 361.5399291517028 81.28666535050581 L 358 103 L 375.85675408091913 90.1494617352588 L 361.5399291517028 81.28666535050581" stroke-miterlimit="10"/></g><g transform="translate(-7,-6) scale(1,1)"><rect fill="#C0C0C0" stroke="none" x="716" y="23" width="50.919921875" height="44" opacity="0.2"/></g><g transform="translate(-7,-6) scale(1,1)"><rect fill="#568eff" stroke="none" x="709" y="16" width="50.919921875" height="44"/></g><g transform="translate(-7,-6) scale(1,1)"><path fill="none" stroke="#000000" d="M 709 16 L 759.919921875 16 L 759.919921875 60 L 709 60 L 709 16 Z Z" stroke-miterlimit="10"/></g><g transform="translate(-7,-6) scale(1,1)"><path fill="none" stroke="#000000" d="M 709 41 L 759.919921875 41" stroke-miterlimit="10"/></g><g transform="translate(-7,-6) scale(1,1)"><path fill="none" stroke="#000000" d="M 709 51 L 759.919921875 51" stroke-miterlimit="10"/></g><g transform="translate(-7,-6) scale(1,1)"><g><path fill="none" stroke="none"/><text fill="#000000" stroke="none" font-family="Arial" font-size="13px" font-style="normal" font-weight="bold" text-decoration="none" x="723.259521484375" y="35.5">Bus</text></g></g><g transform="translate(-7,-6) scale(1,1)"><path fill="none" stroke="#000000" d="M 655 38 L 708 38" stroke-miterlimit="10"/></g><g transform="translate(-7,-6) scale(1,1)"><path fill="none" stroke="#000000" d="M 697.8373251423759 42.20951775601599 L 708 38 L 697.8373251423758 33.790482243984016" stroke-miterlimit="10"/></g><g transform="translate(-7,-6) scale(1,1)"><rect fill="#C0C0C0" stroke="none" x="556" y="183" width="127.47265625" height="44" opacity="0.2"/></g><g transform="translate(-7,-6) scale(1,1)"><rect fill="#568eff" stroke="none" x="549" y="176" width="127.47265625" height="44"/></g><g transform="translate(-7,-6) scale(1,1)"><path fill="none" stroke="#000000" d="M 549 176 L 676.47265625 176 L 676.47265625 220 L 549 220 L 549 176 Z Z" stroke-miterlimit="10"/></g><g transform="translate(-7,-6) scale(1,1)"><path fill="none" stroke="#000000" d="M 549 201 L 676.47265625 201" stroke-miterlimit="10"/></g><g transform="translate(-7,-6) scale(1,1)"><path fill="none" stroke="#000000" d="M 549 211 L 676.47265625 211" stroke-miterlimit="10"/></g><g transform="translate(-7,-6) scale(1,1)"><g><path fill="none" stroke="none"/><text fill="#000000" stroke="none" font-family="Arial" font-size="13px" font-style="normal" font-weight="bold" text-decoration="none" x="556.7373046875" y="195.5">WebSocketHandler</text></g></g><g transform="translate(-7,-6) scale(1,1)"><path fill="none" stroke="#000000" d="M 489 198 L 548 198" stroke-miterlimit="10"/></g><g transform="translate(-7,-6) scale(1,1)"><path fill="#FFFFFF" stroke="none" d="M 527.6746502847517 206.41903551203197 L 548 198 L 527.6746502847517 189.58096448796803"/></g><g transform="translate(-7,-6) scale(1,1)"><path fill="none" stroke="#000000" d="M 527.6746502847517 206.41903551203197 L 548 198 L 527.6746502847517 189.58096448796803 L 527.6746502847517 206.41903551203197" stroke-miterlimit="10"/></g><g transform="translate(-7,-6) scale(1,1)"><rect fill="#C0C0C0" stroke="none" x="823" y="95" width="165.05712890625" height="44" opacity="0.2"/></g><g transform="translate(-7,-6) scale(1,1)"><rect fill="#ffffff" stroke="none" x="816" y="88" width="165.05712890625" height="44"/></g><g transform="translate(-7,-6) scale(1,1)"><path fill="none" stroke="#000000" d="M 816 88 L 981.05712890625 88 L 981.05712890625 132 L 816 132 L 816 88 Z Z" stroke-miterlimit="10"/></g><g transform="translate(-7,-6) scale(1,1)"><path fill="none" stroke="#000000" d="M 816 113 L 981.05712890625 113" stroke-miterlimit="10"/></g><g transform="translate(-7,-6) scale(1,1)"><path fill="none" stroke="#000000" d="M 816 123 L 981.05712890625 123" stroke-miterlimit="10"/></g><g transform="translate(-7,-6) scale(1,1)"><g><path fill="none" stroke="none"/><text fill="#000000" stroke="none" font-family="Arial" font-size="13px" font-style="normal" font-weight="bold" text-decoration="none" x="824.81640625" y="107.5">PhoneCallReceivedEvent</text></g></g></g></svg>