<svg version="1.1" xmlns="http://www.w3.org/2000/svg" xmlns:xlink="http://www.w3.org/1999/xlink" width="530.04638671875" height="344"><defs/><g><g transform="translate(-2,-2) scale(1,1)"><rect fill="#C0C0C0" stroke="none" x="57" y="19" width="126.03173828125" height="44" opacity="0.2"/></g><g transform="translate(-2,-2) scale(1,1)"><rect fill="#ffffff" stroke="none" x="50" y="12" width="126.03173828125" height="44"/></g><g transform="translate(-2,-2) scale(1,1)"><path fill="none" stroke="#000000" d="M 50 12 L 176.03173828125 12 L 176.03173828125 56 L 50 56 L 50 12 Z Z" stroke-miterlimit="10"/></g><g transform="translate(-2,-2) scale(1,1)"><path fill="none" stroke="#000000" d="M 50 37 L 176.03173828125 37" stroke-miterlimit="10"/></g><g transform="translate(-2,-2) scale(1,1)"><path fill="none" stroke="#000000" d="M 50 47 L 176.03173828125 47" stroke-miterlimit="10"/></g><g transform="translate(-2,-2) scale(1,1)"><g><path fill="none" stroke="none"/><text fill="#000000" stroke="none" font-family="Arial" font-size="13px" font-style="normal" font-weight="bold" text-decoration="none" x="58.464111328125" y="31.5">MessageController</text></g></g><g transform="translate(-2,-2) scale(1,1)"><rect fill="#C0C0C0" stroke="none" x="147" y="299" width="50.919921875" height="44" opacity="0.2"/></g><g transform="translate(-2,-2) scale(1,1)"><rect fill="#ffffff" stroke="none" x="140" y="292" width="50.919921875" height="44"/></g><g transform="translate(-2,-2) scale(1,1)"><path fill="none" stroke="#000000" d="M 140 292 L 190.919921875 292 L 190.919921875 336 L 140 336 L 140 292 Z Z" stroke-miterlimit="10"/></g><g transform="translate(-2,-2) scale(1,1)"><path fill="none" stroke="#000000" d="M 140 317 L 190.919921875 317" stroke-miterlimit="10"/></g><g transform="translate(-2,-2) scale(1,1)"><path fill="none" stroke="#000000" d="M 140 327 L 190.919921875 327" stroke-miterlimit="10"/></g><g transform="translate(-2,-2) scale(1,1)"><g><path fill="none" stroke="none"/><text fill="#000000" stroke="none" font-family="Arial" font-size="13px" font-style="normal" font-weight="bold" text-decoration="none" x="154.2626953125" y="311.5">Call</text></g></g><g transform="translate(-2,-2) scale(1,1)"><rect fill="#C0C0C0" stroke="none" x="19" y="299" width="120.26806640625" height="44" opacity="0.2"/></g><g transform="translate(-2,-2) scale(1,1)"><rect fill="#ffffff" stroke="none" x="12" y="292" width="120.26806640625" height="44"/></g><g transform="translate(-2,-2) scale(1,1)"><path fill="none" stroke="#000000" d="M 12 292 L 132.26806640625 292 L 132.26806640625 336 L 12 336 L 12 292 Z Z" stroke-miterlimit="10"/></g><g transform="translate(-2,-2) scale(1,1)"><path fill="none" stroke="#000000" d="M 12 317 L 132.26806640625 317" stroke-miterlimit="10"/></g><g transform="translate(-2,-2) scale(1,1)"><path fill="none" stroke="#000000" d="M 12 327 L 132.26806640625 327" stroke-miterlimit="10"/></g><g transform="translate(-2,-2) scale(1,1)"><g><path fill="none" stroke="none"/><text fill="#000000" stroke="none" font-family="Arial" font-size="13px" font-style="normal" font-weight="bold" text-decoration="none" x="18.658203125" y="311.5">MessageMetadata</text></g></g><g transform="translate(-2,-2) scale(1,1)"><rect fill="#C0C0C0" stroke="none" x="203" y="299" width="61.01904296875" height="44" opacity="0.2"/></g><g transform="translate(-2,-2) scale(1,1)"><rect fill="#ffffff" stroke="none" x="196" y="292" width="61.01904296875" height="44"/></g><g transform="translate(-2,-2) scale(1,1)"><path fill="none" stroke="#000000" d="M 196 292 L 257.01904296875 292 L 257.01904296875 336 L 196 336 L 196 292 Z Z" stroke-miterlimit="10"/></g><g transform="translate(-2,-2) scale(1,1)"><path fill="none" stroke="#000000" d="M 196 317 L 257.01904296875 317" stroke-miterlimit="10"/></g><g transform="translate(-2,-2) scale(1,1)"><path fill="none" stroke="#000000" d="M 196 327 L 257.01904296875 327" stroke-miterlimit="10"/></g><g transform="translate(-2,-2) scale(1,1)"><g><path fill="none" stroke="none"/><text fill="#000000" stroke="none" font-family="Arial" font-size="13px" font-style="normal" font-weight="bold" text-decoration="none" x="202.305908203125" y="311.5">Register</text></g></g><g transform="translate(-2,-2) scale(1,1)"><rect fill="#C0C0C0" stroke="none" x="115" y="179" width="63.919921875" height="44" opacity="0.2"/></g><g transform="translate(-2,-2) scale(1,1)"><rect fill="#ffffff" stroke="none" x="108" y="172" width="63.919921875" height="44"/></g><g transform="translate(-2,-2) scale(1,1)"><path fill="none" stroke="#000000" d="M 108 172 L 171.919921875 172 L 171.919921875 216 L 108 216 L 108 172 Z Z" stroke-miterlimit="10"/></g><g transform="translate(-2,-2) scale(1,1)"><path fill="none" stroke="#000000" d="M 108 197 L 171.919921875 197" stroke-miterlimit="10"/></g><g transform="translate(-2,-2) scale(1,1)"><path fill="none" stroke="#000000" d="M 108 207 L 171.919921875 207" stroke-miterlimit="10"/></g><g transform="translate(-2,-2) scale(1,1)"><g><path fill="none" stroke="none"/><text fill="#000000" stroke="none" font-family="Arial" font-size="13px" font-style="normal" font-weight="bold" text-decoration="none" x="113.58544921875" y="191.5">Message</text></g></g><g transform="translate(-2,-2) scale(1,1)"><path fill="none" stroke="#000000" d="M 126 217 L 85 291" stroke-miterlimit="10"/></g><g transform="translate(-2,-2) scale(1,1)"><path fill="none" stroke="#000000" d="M 86.24310320018058 280.0704668702775 L 85 291 L 93.60735369379216 284.1506597113326" stroke-miterlimit="10"/></g><g transform="translate(-2,-2) scale(1,1)"><path fill="none" stroke="#000000" d="M 144 217 L 160 291" stroke-miterlimit="10"/></g><g transform="translate(-2,-2) scale(1,1)"><path fill="none" stroke="#000000" d="M 153.73785125838822 281.9564667779717 L 160 291 L 161.96673582718955 280.17724849282547" stroke-miterlimit="10"/></g><g transform="translate(-2,-2) scale(1,1)"><path fill="none" stroke="#000000" d="M 156 217 L 209 291" stroke-miterlimit="10"/></g><g transform="translate(-2,-2) scale(1,1)"><path fill="none" stroke="#000000" d="M 199.66021059247814 285.18894727066237 L 209 291 L 206.5048063658342 280.2867367843398" stroke-miterlimit="10"/></g><g transform="translate(-2,-2) scale(1,1)"><rect fill="#C0C0C0" stroke="none" x="169" y="99" width="94.95361328125" height="44" opacity="0.2"/></g><g transform="translate(-2,-2) scale(1,1)"><rect fill="#ffffff" stroke="none" x="162" y="92" width="94.95361328125" height="44"/></g><g transform="translate(-2,-2) scale(1,1)"><path fill="none" stroke="#000000" d="M 162 92 L 256.95361328125 92 L 256.95361328125 136 L 162 136 L 162 92 Z Z" stroke-miterlimit="10"/></g><g transform="translate(-2,-2) scale(1,1)"><path fill="none" stroke="#000000" d="M 162 117 L 256.95361328125 117" stroke-miterlimit="10"/></g><g transform="translate(-2,-2) scale(1,1)"><path fill="none" stroke="#000000" d="M 162 127 L 256.95361328125 127" stroke-miterlimit="10"/></g><g transform="translate(-2,-2) scale(1,1)"><g><path fill="none" stroke="none"/><text fill="#000000" stroke="none" font-family="Arial" font-size="13px" font-style="normal" font-weight="bold" text-decoration="none" x="170.102294921875" y="111.5">CallController</text></g></g><g transform="translate(-2,-2) scale(1,1)"><rect fill="#C0C0C0" stroke="none" x="281" y="99" width="99.3017578125" height="44" opacity="0.2"/></g><g transform="translate(-2,-2) scale(1,1)"><rect fill="#ffffff" stroke="none" x="274" y="92" width="99.3017578125" height="44"/></g><g transform="translate(-2,-2) scale(1,1)"><path fill="none" stroke="#000000" d="M 274 92 L 373.3017578125 92 L 373.3017578125 136 L 274 136 L 274 92 Z Z" stroke-miterlimit="10"/></g><g transform="translate(-2,-2) scale(1,1)"><path fill="none" stroke="#000000" d="M 274 117 L 373.3017578125 117" stroke-miterlimit="10"/></g><g transform="translate(-2,-2) scale(1,1)"><path fill="none" stroke="#000000" d="M 274 127 L 373.3017578125 127" stroke-miterlimit="10"/></g><g transform="translate(-2,-2) scale(1,1)"><g><path fill="none" stroke="none"/><text fill="#000000" stroke="none" font-family="Arial" font-size="13px" font-style="normal" font-weight="bold" text-decoration="none" x="281.74365234375" y="111.5">PeerController</text></g></g><g transform="translate(-2,-2) scale(1,1)"><rect fill="#C0C0C0" stroke="none" x="25" y="99" width="123.130859375" height="44" opacity="0.2"/></g><g transform="translate(-2,-2) scale(1,1)"><rect fill="#ffffff" stroke="none" x="18" y="92" width="123.130859375" height="44"/></g><g transform="translate(-2,-2) scale(1,1)"><path fill="none" stroke="#000000" d="M 18 92 L 141.130859375 92 L 141.130859375 136 L 18 136 L 18 92 Z Z" stroke-miterlimit="10"/></g><g transform="translate(-2,-2) scale(1,1)"><path fill="none" stroke="#000000" d="M 18 117 L 141.130859375 117" stroke-miterlimit="10"/></g><g transform="translate(-2,-2) scale(1,1)"><path fill="none" stroke="#000000" d="M 18 127 L 141.130859375 127" stroke-miterlimit="10"/></g><g transform="translate(-2,-2) scale(1,1)"><g><path fill="none" stroke="none"/><text fill="#000000" stroke="none" font-family="Arial" font-size="13px" font-style="normal" font-weight="bold" text-decoration="none" x="27.1845703125" y="111.5">RegisterController</text></g></g><g transform="translate(-2,-2) scale(1,1)"><rect fill="#C0C0C0" stroke="none" x="231" y="19" width="144.80810546875" height="44" opacity="0.2"/></g><g transform="translate(-2,-2) scale(1,1)"><rect fill="#ffffff" stroke="none" x="224" y="12" width="144.80810546875" height="44"/></g><g transform="translate(-2,-2) scale(1,1)"><path fill="none" stroke="#000000" d="M 224 12 L 368.80810546875 12 L 368.80810546875 56 L 224 56 L 224 12 Z Z" stroke-miterlimit="10"/></g><g transform="translate(-2,-2) scale(1,1)"><path fill="none" stroke="#000000" d="M 224 37 L 368.80810546875 37" stroke-miterlimit="10"/></g><g transform="translate(-2,-2) scale(1,1)"><path fill="none" stroke="#000000" d="M 224 47 L 368.80810546875 47" stroke-miterlimit="10"/></g><g transform="translate(-2,-2) scale(1,1)"><g><path fill="none" stroke="none"/><text fill="#000000" stroke="none" font-family="Arial" font-size="13px" font-style="normal" font-weight="bold" text-decoration="none" x="232.806884765625" y="31.5">PeerHandlerSingleton</text></g></g><g transform="translate(-2,-2) scale(1,1)"><rect fill="#C0C0C0" stroke="none" x="313" y="163" width="94.97900390625" height="44" opacity="0.2"/></g><g transform="translate(-2,-2) scale(1,1)"><rect fill="#ffffff" stroke="none" x="306" y="156" width="94.97900390625" height="44"/></g><g transform="translate(-2,-2) scale(1,1)"><path fill="none" stroke="#000000" d="M 306 156 L 400.97900390625 156 L 400.97900390625 200 L 306 200 L 306 156 Z Z" stroke-miterlimit="10"/></g><g transform="translate(-2,-2) scale(1,1)"><path fill="none" stroke="#000000" d="M 306 181 L 400.97900390625 181" stroke-miterlimit="10"/></g><g transform="translate(-2,-2) scale(1,1)"><path fill="none" stroke="#000000" d="M 306 191 L 400.97900390625 191" stroke-miterlimit="10"/></g><g transform="translate(-2,-2) scale(1,1)"><g><path fill="none" stroke="none"/><text fill="#000000" stroke="none" font-family="Arial" font-size="13px" font-style="normal" font-weight="bold" text-decoration="none" x="313.75634765625" y="175.5">NotifierServer</text></g></g><g transform="translate(-2,-2) scale(1,1)"><rect fill="#C0C0C0" stroke="none" x="311" y="231" width="111.54638671875" height="44" opacity="0.2"/></g><g transform="translate(-2,-2) scale(1,1)"><rect fill="#ffffff" stroke="none" x="304" y="224" width="111.54638671875" height="44"/></g><g transform="translate(-2,-2) scale(1,1)"><path fill="none" stroke="#000000" d="M 304 224 L 415.54638671875 224 L 415.54638671875 268 L 304 268 L 304 224 Z Z" stroke-miterlimit="10"/></g><g transform="translate(-2,-2) scale(1,1)"><path fill="none" stroke="#000000" d="M 304 249 L 415.54638671875 249" stroke-miterlimit="10"/></g><g transform="translate(-2,-2) scale(1,1)"><path fill="none" stroke="#000000" d="M 304 259 L 415.54638671875 259" stroke-miterlimit="10"/></g><g transform="translate(-2,-2) scale(1,1)"><g><path fill="none" stroke="none"/><text fill="#000000" stroke="none" font-family="Arial" font-size="13px" font-style="normal" font-weight="bold" text-decoration="none" x="312.8037109375" y="243.5">NotifierEndPoint</text></g></g><g transform="translate(-2,-2) scale(1,1)"><rect fill="#C0C0C0" stroke="none" x="463" y="231" width="66.04638671875" height="44" opacity="0.2"/></g><g transform="translate(-2,-2) scale(1,1)"><rect fill="#5656ff" stroke="none" x="456" y="224" width="66.04638671875" height="44"/></g><g transform="translate(-2,-2) scale(1,1)"><path fill="none" stroke="#000000" d="M 456 224 L 522.04638671875 224 L 522.04638671875 268 L 456 268 L 456 224 Z Z" stroke-miterlimit="10"/></g><g transform="translate(-2,-2) scale(1,1)"><path fill="none" stroke="#000000" d="M 456 249 L 522.04638671875 249" stroke-miterlimit="10"/></g><g transform="translate(-2,-2) scale(1,1)"><path fill="none" stroke="#000000" d="M 456 259 L 522.04638671875 259" stroke-miterlimit="10"/></g><g transform="translate(-2,-2) scale(1,1)"><g><path fill="none" stroke="none"/><text fill="#000000" stroke="none" font-family="Arial" font-size="13px" font-style="normal" font-weight="bold" text-decoration="none" x="462.642333984375" y="243.5">EndPoint</text></g></g><g transform="translate(-2,-2) scale(1,1)"><path fill="none" stroke="#000000" d="M 417 246 L 455 246" stroke-miterlimit="10"/></g><g transform="translate(-2,-2) scale(1,1)"><path fill="#FFFFFF" stroke="none" d="M 434.6746502847517 254.41903551203197 L 455 246 L 434.6746502847517 237.58096448796803"/></g><g transform="translate(-2,-2) scale(1,1)"><path fill="none" stroke="#000000" d="M 434.6746502847517 254.41903551203197 L 455 246 L 434.6746502847517 237.58096448796803 L 434.6746502847517 254.41903551203197" stroke-miterlimit="10"/></g></g></svg>