<svg version="1.1" xmlns="http://www.w3.org/2000/svg" xmlns:xlink="http://www.w3.org/1999/xlink" width="664.47265625" height="376"><defs/><g><g transform="translate(-1,-2) scale(1,1)"><rect fill="#C0C0C0" stroke="none" x="18" y="19" width="202.64794921875" height="44" opacity="0.2"/></g><g transform="translate(-1,-2) scale(1,1)"><rect fill="#ffffff" stroke="none" x="11" y="12" width="202.64794921875" height="44"/></g><g transform="translate(-1,-2) scale(1,1)"><path fill="none" stroke="#000000" d="M 11 12 L 213.64794921875 12 L 213.64794921875 56 L 11 56 L 11 12 Z Z" stroke-miterlimit="10"/></g><g transform="translate(-1,-2) scale(1,1)"><path fill="none" stroke="#000000" d="M 11 37 L 213.64794921875 37" stroke-miterlimit="10"/></g><g transform="translate(-1,-2) scale(1,1)"><path fill="none" stroke="#000000" d="M 11 47 L 213.64794921875 47" stroke-miterlimit="10"/></g><g transform="translate(-1,-2) scale(1,1)"><g><path fill="none" stroke="none"/><text fill="#000000" stroke="none" font-family="Arial" font-size="13px" font-style="normal" font-weight="bold" text-decoration="none" x="22.364990234375" y="31.5">BootServiceBroadcastReceiver</text></g></g><g transform="translate(-1,-2) scale(1,1)"><rect fill="#C0C0C0" stroke="none" x="74" y="107" width="79.103515625" height="44" opacity="0.2"/></g><g transform="translate(-1,-2) scale(1,1)"><rect fill="#ffffff" stroke="none" x="67" y="100" width="79.103515625" height="44"/></g><g transform="translate(-1,-2) scale(1,1)"><path fill="none" stroke="#000000" d="M 67 100 L 146.103515625 100 L 146.103515625 144 L 67 144 L 67 100 Z Z" stroke-miterlimit="10"/></g><g transform="translate(-1,-2) scale(1,1)"><path fill="none" stroke="#000000" d="M 67 125 L 146.103515625 125" stroke-miterlimit="10"/></g><g transform="translate(-1,-2) scale(1,1)"><path fill="none" stroke="#000000" d="M 67 135 L 146.103515625 135" stroke-miterlimit="10"/></g><g transform="translate(-1,-2) scale(1,1)"><g><path fill="none" stroke="none"/><text fill="#000000" stroke="none" font-family="Arial" font-size="13px" font-style="normal" font-weight="bold" text-decoration="none" x="73.680419921875" y="119.5">CallService</text></g></g><g transform="translate(-1,-2) scale(1,1)"><path fill="none" stroke="#000000" d="M 110 57 L 108 99" stroke-miterlimit="10"/></g><g transform="translate(-1,-2) scale(1,1)"><path fill="#000000" stroke="none" d="M 104.27863598639388 88.64860154963411 L 108 99 L 112.68814230973317 89.04905423169788 L 109.04643328713989 77.02490097006238"/></g><g transform="translate(-1,-2) scale(1,1)"><path fill="none" stroke="#000000" d="M 104.27863598639388 88.64860154963411 L 108 99 L 112.68814230973317 89.04905423169788 L 109.04643328713989 77.02490097006238 L 104.27863598639388 88.64860154963411" stroke-miterlimit="10"/></g><g transform="translate(-1,-2) scale(1,1)"><rect fill="#C0C0C0" stroke="none" x="170" y="163" width="126.03173828125" height="44" opacity="0.2"/></g><g transform="translate(-1,-2) scale(1,1)"><rect fill="#ffffff" stroke="none" x="163" y="156" width="126.03173828125" height="44"/></g><g transform="translate(-1,-2) scale(1,1)"><path fill="none" stroke="#000000" d="M 163 156 L 289.03173828125 156 L 289.03173828125 200 L 163 200 L 163 156 Z Z" stroke-miterlimit="10"/></g><g transform="translate(-1,-2) scale(1,1)"><path fill="none" stroke="#000000" d="M 163 181 L 289.03173828125 181" stroke-miterlimit="10"/></g><g transform="translate(-1,-2) scale(1,1)"><path fill="none" stroke="#000000" d="M 163 191 L 289.03173828125 191" stroke-miterlimit="10"/></g><g transform="translate(-1,-2) scale(1,1)"><g><path fill="none" stroke="none"/><text fill="#000000" stroke="none" font-family="Arial" font-size="13px" font-style="normal" font-weight="bold" text-decoration="none" x="171.464111328125" y="175.5">MessageController</text></g></g><g transform="translate(-1,-2) scale(1,1)"><rect fill="#C0C0C0" stroke="none" x="146" y="331" width="50.919921875" height="44" opacity="0.2"/></g><g transform="translate(-1,-2) scale(1,1)"><rect fill="#ffffff" stroke="none" x="139" y="324" width="50.919921875" height="44"/></g><g transform="translate(-1,-2) scale(1,1)"><path fill="none" stroke="#000000" d="M 139 324 L 189.919921875 324 L 189.919921875 368 L 139 368 L 139 324 Z Z" stroke-miterlimit="10"/></g><g transform="translate(-1,-2) scale(1,1)"><path fill="none" stroke="#000000" d="M 139 349 L 189.919921875 349" stroke-miterlimit="10"/></g><g transform="translate(-1,-2) scale(1,1)"><path fill="none" stroke="#000000" d="M 139 359 L 189.919921875 359" stroke-miterlimit="10"/></g><g transform="translate(-1,-2) scale(1,1)"><g><path fill="none" stroke="none"/><text fill="#000000" stroke="none" font-family="Arial" font-size="13px" font-style="normal" font-weight="bold" text-decoration="none" x="153.2626953125" y="343.5">Call</text></g></g><g transform="translate(-1,-2) scale(1,1)"><rect fill="#C0C0C0" stroke="none" x="18" y="331" width="120.26806640625" height="44" opacity="0.2"/></g><g transform="translate(-1,-2) scale(1,1)"><rect fill="#ffffff" stroke="none" x="11" y="324" width="120.26806640625" height="44"/></g><g transform="translate(-1,-2) scale(1,1)"><path fill="none" stroke="#000000" d="M 11 324 L 131.26806640625 324 L 131.26806640625 368 L 11 368 L 11 324 Z Z" stroke-miterlimit="10"/></g><g transform="translate(-1,-2) scale(1,1)"><path fill="none" stroke="#000000" d="M 11 349 L 131.26806640625 349" stroke-miterlimit="10"/></g><g transform="translate(-1,-2) scale(1,1)"><path fill="none" stroke="#000000" d="M 11 359 L 131.26806640625 359" stroke-miterlimit="10"/></g><g transform="translate(-1,-2) scale(1,1)"><g><path fill="none" stroke="none"/><text fill="#000000" stroke="none" font-family="Arial" font-size="13px" font-style="normal" font-weight="bold" text-decoration="none" x="17.658203125" y="343.5">MessageMetadata</text></g></g><g transform="translate(-1,-2) scale(1,1)"><rect fill="#C0C0C0" stroke="none" x="210" y="331" width="61.01904296875" height="44" opacity="0.2"/></g><g transform="translate(-1,-2) scale(1,1)"><rect fill="#ffffff" stroke="none" x="203" y="324" width="61.01904296875" height="44"/></g><g transform="translate(-1,-2) scale(1,1)"><path fill="none" stroke="#000000" d="M 203 324 L 264.01904296875 324 L 264.01904296875 368 L 203 368 L 203 324 Z Z" stroke-miterlimit="10"/></g><g transform="translate(-1,-2) scale(1,1)"><path fill="none" stroke="#000000" d="M 203 349 L 264.01904296875 349" stroke-miterlimit="10"/></g><g transform="translate(-1,-2) scale(1,1)"><path fill="none" stroke="#000000" d="M 203 359 L 264.01904296875 359" stroke-miterlimit="10"/></g><g transform="translate(-1,-2) scale(1,1)"><g><path fill="none" stroke="none"/><text fill="#000000" stroke="none" font-family="Arial" font-size="13px" font-style="normal" font-weight="bold" text-decoration="none" x="209.305908203125" y="343.5">Register</text></g></g><g transform="translate(-1,-2) scale(1,1)"><rect fill="#C0C0C0" stroke="none" x="74" y="211" width="63.919921875" height="44" opacity="0.2"/></g><g transform="translate(-1,-2) scale(1,1)"><rect fill="#ffffff" stroke="none" x="67" y="204" width="63.919921875" height="44"/></g><g transform="translate(-1,-2) scale(1,1)"><path fill="none" stroke="#000000" d="M 67 204 L 130.919921875 204 L 130.919921875 248 L 67 248 L 67 204 Z Z" stroke-miterlimit="10"/></g><g transform="translate(-1,-2) scale(1,1)"><path fill="none" stroke="#000000" d="M 67 229 L 130.919921875 229" stroke-miterlimit="10"/></g><g transform="translate(-1,-2) scale(1,1)"><path fill="none" stroke="#000000" d="M 67 239 L 130.919921875 239" stroke-miterlimit="10"/></g><g transform="translate(-1,-2) scale(1,1)"><g><path fill="none" stroke="none"/><text fill="#000000" stroke="none" font-family="Arial" font-size="13px" font-style="normal" font-weight="bold" text-decoration="none" x="72.58544921875" y="223.5">Message</text></g></g><g transform="translate(-1,-2) scale(1,1)"><rect fill="#C0C0C0" stroke="none" x="348" y="159" width="151.314453125" height="44" opacity="0.2"/></g><g transform="translate(-1,-2) scale(1,1)"><rect fill="#ffffff" stroke="none" x="341" y="152" width="151.314453125" height="44"/></g><g transform="translate(-1,-2) scale(1,1)"><path fill="none" stroke="#000000" d="M 341 152 L 492.314453125 152 L 492.314453125 196 L 341 196 L 341 152 Z Z" stroke-miterlimit="10"/></g><g transform="translate(-1,-2) scale(1,1)"><path fill="none" stroke="#000000" d="M 341 177 L 492.314453125 177" stroke-miterlimit="10"/></g><g transform="translate(-1,-2) scale(1,1)"><path fill="none" stroke="#000000" d="M 341 187 L 492.314453125 187" stroke-miterlimit="10"/></g><g transform="translate(-1,-2) scale(1,1)"><g><path fill="none" stroke="none"/><text fill="#000000" stroke="none" font-family="Arial" font-size="13px" font-style="normal" font-weight="bold" text-decoration="none" x="349.4609375" y="171.5">CallWebSocketHandler</text></g></g><g transform="translate(-1,-2) scale(1,1)"><rect fill="#C0C0C0" stroke="none" x="348" y="243" width="150.5654296875" height="44" opacity="0.2"/></g><g transform="translate(-1,-2) scale(1,1)"><rect fill="#5656ff" stroke="none" x="341" y="236" width="150.5654296875" height="44"/></g><g transform="translate(-1,-2) scale(1,1)"><path fill="none" stroke="#000000" d="M 341 236 L 491.5654296875 236 L 491.5654296875 280 L 341 280 L 341 236 Z Z" stroke-miterlimit="10"/></g><g transform="translate(-1,-2) scale(1,1)"><path fill="none" stroke="#000000" d="M 341 261 L 491.5654296875 261" stroke-miterlimit="10"/></g><g transform="translate(-1,-2) scale(1,1)"><path fill="none" stroke="#000000" d="M 341 271 L 491.5654296875 271" stroke-miterlimit="10"/></g><g transform="translate(-1,-2) scale(1,1)"><g><path fill="none" stroke="none"/><text fill="#000000" stroke="none" font-family="Arial" font-size="13px" font-style="normal" font-weight="bold" text-decoration="none" x="350.162353515625" y="255.5">WebSocketConnection</text></g></g><g transform="translate(-1,-2) scale(1,1)"><rect fill="#C0C0C0" stroke="none" x="290" y="331" width="258.18359375" height="44" opacity="0.2"/></g><g transform="translate(-1,-2) scale(1,1)"><rect fill="#ffffff" stroke="none" x="283" y="324" width="258.18359375" height="44"/></g><g transform="translate(-1,-2) scale(1,1)"><path fill="none" stroke="#000000" d="M 283 324 L 541.18359375 324 L 541.18359375 368 L 283 368 L 283 324 Z Z" stroke-miterlimit="10"/></g><g transform="translate(-1,-2) scale(1,1)"><path fill="none" stroke="#000000" d="M 283 349 L 541.18359375 349" stroke-miterlimit="10"/></g><g transform="translate(-1,-2) scale(1,1)"><path fill="none" stroke="#000000" d="M 283 359 L 541.18359375 359" stroke-miterlimit="10"/></g><g transform="translate(-1,-2) scale(1,1)"><g><path fill="none" stroke="none"/><text fill="#000000" stroke="none" font-family="Arial" font-size="13px" font-style="normal" font-weight="bold" text-decoration="none" x="296.104248046875" y="343.5">WebSocketConnectionHandlerSingleton</text></g></g><g transform="translate(-1,-2) scale(1,1)"><path fill="none" stroke="#000000" d="M 93 249 L 76 323" stroke-miterlimit="10"/></g><g transform="translate(-1,-2) scale(1,1)"><path fill="none" stroke="#000000" d="M 74.1727481616539 312.1528275242227 L 76 323 L 82.37804704849209 314.0378286198477" stroke-miterlimit="10"/></g><g transform="translate(-1,-2) scale(1,1)"><path fill="none" stroke="#000000" d="M 111 249 L 151 323" stroke-miterlimit="10"/></g><g transform="translate(-1,-2) scale(1,1)"><path fill="none" stroke="#000000" d="M 142.46433480150037 316.0615261318412 L 151 323 L 149.8706151794636 312.05813133294214" stroke-miterlimit="10"/></g><g transform="translate(-1,-2) scale(1,1)"><path fill="none" stroke="#000000" d="M 124 249 L 207 323" stroke-miterlimit="10"/></g><g transform="translate(-1,-2) scale(1,1)"><path fill="none" stroke="#000000" d="M 196.61306765290382 319.3790006328574 L 207 323 L 202.21576290882112 313.0948964944637" stroke-miterlimit="10"/></g><g transform="translate(-1,-2) scale(1,1)"><path fill="none" stroke="#000000" d="M 413 323 L 415 281" stroke-miterlimit="10"/></g><g transform="translate(-1,-2) scale(1,1)"><path fill="none" stroke="#000000" d="M 418.7213640136061 291.3513984503659 L 415 281 L 410.31185769026683 290.9509457683021" stroke-miterlimit="10"/></g><g transform="translate(-1,-2) scale(1,1)"><path fill="none" stroke="#000000" d="M 416 235 L 416 197" stroke-miterlimit="10"/></g><g transform="translate(-1,-2) scale(1,1)"><path fill="none" stroke="#000000" d="M 420.209517756016 207.16267485762415 L 416 197 L 411.790482243984 207.16267485762415" stroke-miterlimit="10"/></g><g transform="translate(-1,-2) scale(1,1)"><rect fill="#C0C0C0" stroke="none" x="228" y="23" width="183.12255859375" height="44" opacity="0.2"/></g><g transform="translate(-1,-2) scale(1,1)"><rect fill="#ffffff" stroke="none" x="221" y="16" width="183.12255859375" height="44"/></g><g transform="translate(-1,-2) scale(1,1)"><path fill="none" stroke="#000000" d="M 221 16 L 404.12255859375 16 L 404.12255859375 60 L 221 60 L 221 16 Z Z" stroke-miterlimit="10"/></g><g transform="translate(-1,-2) scale(1,1)"><path fill="none" stroke="#000000" d="M 221 41 L 404.12255859375 41" stroke-miterlimit="10"/></g><g transform="translate(-1,-2) scale(1,1)"><path fill="none" stroke="#000000" d="M 221 51 L 404.12255859375 51" stroke-miterlimit="10"/></g><g transform="translate(-1,-2) scale(1,1)"><g><path fill="none" stroke="none"/><text fill="#000000" stroke="none" font-family="Arial" font-size="13px" font-style="normal" font-weight="bold" text-decoration="none" x="230.905029296875" y="35.5">PhoneCallBroadcatReceiver</text></g></g><g transform="translate(-1,-2) scale(1,1)"><rect fill="#C0C0C0" stroke="none" x="463" y="95" width="134.01708984375" height="44" opacity="0.2"/></g><g transform="translate(-1,-2) scale(1,1)"><rect fill="#5656ff" stroke="none" x="456" y="88" width="134.01708984375" height="44"/></g><g transform="translate(-1,-2) scale(1,1)"><path fill="none" stroke="#000000" d="M 456 88 L 590.01708984375 88 L 590.01708984375 132 L 456 132 L 456 88 Z Z" stroke-miterlimit="10"/></g><g transform="translate(-1,-2) scale(1,1)"><path fill="none" stroke="#000000" d="M 456 113 L 590.01708984375 113" stroke-miterlimit="10"/></g><g transform="translate(-1,-2) scale(1,1)"><path fill="none" stroke="#000000" d="M 456 123 L 590.01708984375 123" stroke-miterlimit="10"/></g><g transform="translate(-1,-2) scale(1,1)"><g><path fill="none" stroke="none"/><text fill="#000000" stroke="none" font-family="Arial" font-size="13px" font-style="normal" font-weight="bold" text-decoration="none" x="468.094970703125" y="107.5">BroadcastReceiver</text></g></g><g transform="translate(-1,-2) scale(1,1)"><rect fill="#C0C0C0" stroke="none" x="191" y="103" width="55.26171875" height="44" opacity="0.2"/></g><g transform="translate(-1,-2) scale(1,1)"><rect fill="#5656ff" stroke="none" x="184" y="96" width="55.26171875" height="44"/></g><g transform="translate(-1,-2) scale(1,1)"><path fill="none" stroke="#000000" d="M 184 96 L 239.26171875 96 L 239.26171875 140 L 184 140 L 184 96 Z Z" stroke-miterlimit="10"/></g><g transform="translate(-1,-2) scale(1,1)"><path fill="none" stroke="#000000" d="M 184 121 L 239.26171875 121" stroke-miterlimit="10"/></g><g transform="translate(-1,-2) scale(1,1)"><path fill="none" stroke="#000000" d="M 184 131 L 239.26171875 131" stroke-miterlimit="10"/></g><g transform="translate(-1,-2) scale(1,1)"><g><path fill="none" stroke="none"/><text fill="#000000" stroke="none" font-family="Arial" font-size="13px" font-style="normal" font-weight="bold" text-decoration="none" x="189.956787109375" y="115.5">Service</text></g></g><g transform="translate(-1,-2) scale(1,1)"><rect fill="#C0C0C0" stroke="none" x="535" y="159" width="127.47265625" height="44" opacity="0.2"/></g><g transform="translate(-1,-2) scale(1,1)"><rect fill="#5656ff" stroke="none" x="528" y="152" width="127.47265625" height="44"/></g><g transform="translate(-1,-2) scale(1,1)"><path fill="none" stroke="#000000" d="M 528 152 L 655.47265625 152 L 655.47265625 196 L 528 196 L 528 152 Z Z" stroke-miterlimit="10"/></g><g transform="translate(-1,-2) scale(1,1)"><path fill="none" stroke="#000000" d="M 528 177 L 655.47265625 177" stroke-miterlimit="10"/></g><g transform="translate(-1,-2) scale(1,1)"><path fill="none" stroke="#000000" d="M 528 187 L 655.47265625 187" stroke-miterlimit="10"/></g><g transform="translate(-1,-2) scale(1,1)"><g><path fill="none" stroke="none"/><text fill="#000000" stroke="none" font-family="Arial" font-size="13px" font-style="normal" font-weight="bold" text-decoration="none" x="535.7373046875" y="171.5">WebSocketHandler</text></g></g><g transform="translate(-1,-2) scale(1,1)"><path fill="none" stroke="#000000" d="M 147 120 L 183 119" stroke-miterlimit="10"/></g><g transform="translate(-1,-2) scale(1,1)"><path fill="#FFFFFF" stroke="none" d="M 162.91625924498967 127.9801646580415 L 183 119 L 162.44871539466666 111.14858604641249"/></g><g transform="translate(-1,-2) scale(1,1)"><path fill="none" stroke="#000000" d="M 162.91625924498967 127.9801646580415 L 183 119 L 162.44871539466666 111.14858604641249 L 162.91625924498967 127.9801646580415" stroke-miterlimit="10"/></g><g transform="translate(-1,-2) scale(1,1)"><path fill="none" stroke="#000000" d="M 215 53 L 455 97" stroke-miterlimit="10"/></g><g transform="translate(-1,-2) scale(1,1)"><path fill="#FFFFFF" stroke="none" d="M 433.4896660074221 101.61579153859323 L 455 97 L 436.5260394707779 85.05375446574345"/></g><g transform="translate(-1,-2) scale(1,1)"><path fill="none" stroke="#000000" d="M 433.4896660074221 101.61579153859323 L 455 97 L 436.5260394707779 85.05375446574345 L 433.4896660074221 101.61579153859323" stroke-miterlimit="10"/></g><g transform="translate(-1,-2) scale(1,1)"><path fill="none" stroke="#000000" d="M 379 61 L 456 87" stroke-miterlimit="10"/></g><g transform="translate(-1,-2) scale(1,1)"><path fill="#FFFFFF" stroke="none" d="M 434.0494452534207 88.47415952916354 L 456 87 L 439.43622568826487 72.5210020875095"/></g><g transform="translate(-1,-2) scale(1,1)"><path fill="none" stroke="#000000" d="M 434.0494452534207 88.47415952916354 L 456 87 L 439.43622568826487 72.5210020875095 L 434.0494452534207 88.47415952916354" stroke-miterlimit="10"/></g><g transform="translate(-1,-2) scale(1,1)"><path fill="none" stroke="#000000" d="M 493 174 L 527 174" stroke-miterlimit="10"/></g><g transform="translate(-1,-2) scale(1,1)"><path fill="#FFFFFF" stroke="none" d="M 506.6746502847517 182.41903551203197 L 527 174 L 506.6746502847517 165.58096448796803"/></g><g transform="translate(-1,-2) scale(1,1)"><path fill="none" stroke="#000000" d="M 506.6746502847517 182.41903551203197 L 527 174 L 506.6746502847517 165.58096448796803 L 506.6746502847517 182.41903551203197" stroke-miterlimit="10"/></g></g></svg>