<svg version="1.1" xmlns="http://www.w3.org/2000/svg" xmlns:xlink="http://www.w3.org/1999/xlink" width="1340" height="874"><defs/><g><g transform="translate(-14,-64) scale(1,1)"><rect fill="#C0C0C0" stroke="none" x="31" y="81" width="272" height="15" opacity="0.2"/></g><g transform="translate(-14,-64) scale(1,1)"><rect fill="#C0C0C0" stroke="none" x="31" y="95" width="680" height="840" opacity="0.2"/></g><g transform="translate(-14,-64) scale(1,1)"><rect fill="#ffffff" stroke="none" x="24" y="89" width="680" height="839"/></g><g transform="translate(-14,-64) scale(1,1)"><path fill="none" stroke="#000000" d="M 24 89 L 704 89 L 704 928 L 24 928 L 24 89 Z Z" stroke-miterlimit="10"/></g><g transform="translate(-14,-64) scale(1,1)"><rect fill="#ffffff" stroke="none" x="24" y="74" width="272" height="15"/></g><g transform="translate(-14,-64) scale(1,1)"><path fill="none" stroke="#000000" d="M 24 74 L 296 74 L 296 89 L 24 89 L 24 74 Z Z" stroke-miterlimit="10"/></g><g transform="translate(-14,-64) scale(1,1)"><rect fill="#ffffff" stroke="none" x="24" y="88" width="680" height="840"/></g><g transform="translate(-14,-64) scale(1,1)"><path fill="none" stroke="#000000" d="M 24 88 L 704 88 L 704 928 L 24 928 L 24 88 Z Z" stroke-miterlimit="10"/></g><g transform="translate(-14,-64) scale(1,1)"><g><path fill="none" stroke="none"/><text fill="#000000" stroke="none" font-family="Arial" font-size="13px" font-style="normal" font-weight="bold" text-decoration="none" x="320.286865234375" y="108.5">android-crmtab</text></g></g><g transform="translate(-14,-64) scale(1,1)"><rect fill="#C0C0C0" stroke="none" x="741" y="94" width="244" height="15" opacity="0.2"/></g><g transform="translate(-14,-64) scale(1,1)"><rect fill="#C0C0C0" stroke="none" x="741" y="108" width="610" height="355" opacity="0.2"/></g><g transform="translate(-14,-64) scale(1,1)"><rect fill="#ffffff" stroke="none" x="734" y="102" width="610" height="354"/></g><g transform="translate(-14,-64) scale(1,1)"><path fill="none" stroke="#000000" d="M 734 102 L 1344 102 L 1344 456 L 734 456 L 734 102 Z Z" stroke-miterlimit="10"/></g><g transform="translate(-14,-64) scale(1,1)"><rect fill="#ffffff" stroke="none" x="734" y="87" width="244" height="15"/></g><g transform="translate(-14,-64) scale(1,1)"><path fill="none" stroke="#000000" d="M 734 87 L 978 87 L 978 102 L 734 102 L 734 87 Z Z" stroke-miterlimit="10"/></g><g transform="translate(-14,-64) scale(1,1)"><rect fill="#ffffff" stroke="none" x="734" y="101" width="610" height="355"/></g><g transform="translate(-14,-64) scale(1,1)"><path fill="none" stroke="#000000" d="M 734 101 L 1344 101 L 1344 456 L 734 456 L 734 101 Z Z" stroke-miterlimit="10"/></g><g transform="translate(-14,-64) scale(1,1)"><g><path fill="none" stroke="none"/><text fill="#000000" stroke="none" font-family="Arial" font-size="13px" font-style="normal" font-weight="bold" text-decoration="none" x="1007.94091796875" y="121.5">server-rest</text></g></g><g transform="translate(-14,-64) scale(1,1)"><rect fill="#C0C0C0" stroke="none" x="55" y="271" width="252.8" height="15" opacity="0.2"/></g><g transform="translate(-14,-64) scale(1,1)"><rect fill="#C0C0C0" stroke="none" x="55" y="285" width="632" height="602" opacity="0.2"/></g><g transform="translate(-14,-64) scale(1,1)"><rect fill="#ffffff" stroke="none" x="48" y="279" width="632" height="601"/></g><g transform="translate(-14,-64) scale(1,1)"><path fill="none" stroke="#000000" d="M 48 279 L 680 279 L 680 880 L 48 880 L 48 279 Z Z" stroke-miterlimit="10"/></g><g transform="translate(-14,-64) scale(1,1)"><rect fill="#ffffff" stroke="none" x="48" y="264" width="252.8" height="15"/></g><g transform="translate(-14,-64) scale(1,1)"><path fill="none" stroke="#000000" d="M 48 264 L 300.8 264 L 300.8 279 L 48 279 L 48 264 Z Z" stroke-miterlimit="10"/></g><g transform="translate(-14,-64) scale(1,1)"><rect fill="#ffffff" stroke="none" x="48" y="278" width="632" height="602"/></g><g transform="translate(-14,-64) scale(1,1)"><path fill="none" stroke="#000000" d="M 48 278 L 680 278 L 680 880 L 48 880 L 48 278 Z Z" stroke-miterlimit="10"/></g><g transform="translate(-14,-64) scale(1,1)"><g><path fill="none" stroke="none"/><text fill="#000000" stroke="none" font-family="Arial" font-size="13px" font-style="normal" font-weight="bold" text-decoration="none" x="206.11474609375" y="298.5">fr.pds.isintheair.crmtab.ctruong.uc.propsect.suggestion</text></g></g><g transform="translate(-14,-64) scale(1,1)"><rect fill="#C0C0C0" stroke="none" x="87" y="559" width="118.4" height="15" opacity="0.2"/></g><g transform="translate(-14,-64) scale(1,1)"><rect fill="#C0C0C0" stroke="none" x="87" y="573" width="296" height="274" opacity="0.2"/></g><g transform="translate(-14,-64) scale(1,1)"><rect fill="#ffffff" stroke="none" x="80" y="567" width="296" height="273"/></g><g transform="translate(-14,-64) scale(1,1)"><path fill="none" stroke="#000000" d="M 80 567 L 376 567 L 376 840 L 80 840 L 80 567 Z Z" stroke-miterlimit="10"/></g><g transform="translate(-14,-64) scale(1,1)"><rect fill="#ffffff" stroke="none" x="80" y="552" width="118.4" height="15"/></g><g transform="translate(-14,-64) scale(1,1)"><path fill="none" stroke="#000000" d="M 80 552 L 198.4 552 L 198.4 567 L 80 567 L 80 552 Z Z" stroke-miterlimit="10"/></g><g transform="translate(-14,-64) scale(1,1)"><rect fill="#ffffff" stroke="none" x="80" y="566" width="296" height="274"/></g><g transform="translate(-14,-64) scale(1,1)"><path fill="none" stroke="#000000" d="M 80 566 L 376 566 L 376 840 L 80 840 L 80 566 Z Z" stroke-miterlimit="10"/></g><g transform="translate(-14,-64) scale(1,1)"><g><path fill="none" stroke="none"/><text fill="#000000" stroke="none" font-family="Arial" font-size="13px" font-style="normal" font-weight="bold" text-decoration="none" x="187.171875" y="586.5">model.domain</text></g></g><g transform="translate(-14,-64) scale(1,1)"><rect fill="#C0C0C0" stroke="none" x="127" y="607" width="157.12255859375" height="207" opacity="0.2"/></g><g transform="translate(-14,-64) scale(1,1)"><rect fill="#ffffff" stroke="none" x="120" y="600" width="157.12255859375" height="207"/></g><g transform="translate(-14,-64) scale(1,1)"><path fill="none" stroke="#000000" d="M 120 600 L 277.12255859375 600 L 277.12255859375 807 L 120 807 L 120 600 Z Z" stroke-miterlimit="10"/></g><g transform="translate(-14,-64) scale(1,1)"><path fill="none" stroke="#000000" d="M 120 625 L 277.12255859375 625" stroke-miterlimit="10"/></g><g transform="translate(-14,-64) scale(1,1)"><path fill="none" stroke="#000000" d="M 120 798 L 277.12255859375 798" stroke-miterlimit="10"/></g><g transform="translate(-14,-64) scale(1,1)"><g><path fill="none" stroke="none"/><text fill="#000000" stroke="none" font-family="Arial" font-size="13px" font-style="normal" font-weight="bold" text-decoration="none" x="172.910400390625" y="619.5">Prospect</text></g></g><g transform="translate(-14,-64) scale(1,1)"><g><path fill="none" stroke="none"/><text fill="#000000" stroke="none" font-family="Arial" font-size="13px" font-style="normal" font-weight="normal" text-decoration="none" x="125" y="642.5">-siretNumber: long</text></g></g><g transform="translate(-14,-64) scale(1,1)"><g><path fill="none" stroke="none"/><text fill="#000000" stroke="none" font-family="Arial" font-size="13px" font-style="normal" font-weight="normal" text-decoration="none" x="125" y="657.5">-finessNumber: long</text></g></g><g transform="translate(-14,-64) scale(1,1)"><g><path fill="none" stroke="none"/><text fill="#000000" stroke="none" font-family="Arial" font-size="13px" font-style="normal" font-weight="normal" text-decoration="none" x="125" y="672.5">-turnover: long</text></g></g><g transform="translate(-14,-64) scale(1,1)"><g><path fill="none" stroke="none"/><text fill="#000000" stroke="none" font-family="Arial" font-size="13px" font-style="normal" font-weight="normal" text-decoration="none" x="125" y="687.5">-name: String</text></g></g><g transform="translate(-14,-64) scale(1,1)"><g><path fill="none" stroke="none"/><text fill="#000000" stroke="none" font-family="Arial" font-size="13px" font-style="normal" font-weight="normal" text-decoration="none" x="125" y="702.5">-streetNumber: int</text></g></g><g transform="translate(-14,-64) scale(1,1)"><g><path fill="none" stroke="none"/><text fill="#000000" stroke="none" font-family="Arial" font-size="13px" font-style="normal" font-weight="normal" text-decoration="none" x="125" y="717.5">-streetName: String</text></g></g><g transform="translate(-14,-64) scale(1,1)"><g><path fill="none" stroke="none"/><text fill="#000000" stroke="none" font-family="Arial" font-size="13px" font-style="normal" font-weight="normal" text-decoration="none" x="125" y="732.5">-town: String</text></g></g><g transform="translate(-14,-64) scale(1,1)"><g><path fill="none" stroke="none"/><text fill="#000000" stroke="none" font-family="Arial" font-size="13px" font-style="normal" font-weight="normal" text-decoration="none" x="125" y="747.5">-zipCode: int</text></g></g><g transform="translate(-14,-64) scale(1,1)"><g><path fill="none" stroke="none"/><text fill="#000000" stroke="none" font-family="Arial" font-size="13px" font-style="normal" font-weight="normal" text-decoration="none" x="125" y="762.5">-bedNumber: int</text></g></g><g transform="translate(-14,-64) scale(1,1)"><g><path fill="none" stroke="none"/><text fill="#000000" stroke="none" font-family="Arial" font-size="13px" font-style="normal" font-weight="normal" text-decoration="none" x="125" y="777.5">-website: String</text></g></g><g transform="translate(-14,-64) scale(1,1)"><g><path fill="none" stroke="none"/><text fill="#000000" stroke="none" font-family="Arial" font-size="13px" font-style="normal" font-weight="normal" text-decoration="none" x="125" y="792.5">-etablishmentType: String</text></g></g><g transform="translate(-14,-64) scale(1,1)"><rect fill="#C0C0C0" stroke="none" x="471" y="431" width="111.5908203125" height="44" opacity="0.2"/></g><g transform="translate(-14,-64) scale(1,1)"><rect fill="#ffffff" stroke="none" x="464" y="424" width="111.5908203125" height="44"/></g><g transform="translate(-14,-64) scale(1,1)"><path fill="none" stroke="#000000" d="M 464 424 L 575.5908203125 424 L 575.5908203125 468 L 464 468 L 464 424 Z Z" stroke-miterlimit="10"/></g><g transform="translate(-14,-64) scale(1,1)"><path fill="none" stroke="#000000" d="M 464 449 L 575.5908203125 449" stroke-miterlimit="10"/></g><g transform="translate(-14,-64) scale(1,1)"><path fill="none" stroke="#000000" d="M 464 459 L 575.5908203125 459" stroke-miterlimit="10"/></g><g transform="translate(-14,-64) scale(1,1)"><g><path fill="none" stroke="none"/><text fill="#000000" stroke="none" font-family="Arial" font-size="13px" font-style="normal" font-weight="bold" text-decoration="none" x="473.55908203125" y="443.5">ProspectActivity</text></g></g><g transform="translate(-14,-64) scale(1,1)"><rect fill="#C0C0C0" stroke="none" x="407" y="343" width="89.60000000000002" height="15" opacity="0.2"/></g><g transform="translate(-14,-64) scale(1,1)"><rect fill="#C0C0C0" stroke="none" x="407" y="357" width="224" height="146" opacity="0.2"/></g><g transform="translate(-14,-64) scale(1,1)"><rect fill="#ffffff" stroke="none" x="400" y="351" width="224" height="145"/></g><g transform="translate(-14,-64) scale(1,1)"><path fill="none" stroke="#000000" d="M 400 351 L 624 351 L 624 496 L 400 496 L 400 351 Z Z" stroke-miterlimit="10"/></g><g transform="translate(-14,-64) scale(1,1)"><rect fill="#ffffff" stroke="none" x="400" y="336" width="89.60000000000002" height="15"/></g><g transform="translate(-14,-64) scale(1,1)"><path fill="none" stroke="#000000" d="M 400 336 L 489.6 336 L 489.6 351 L 400 351 L 400 336 Z Z" stroke-miterlimit="10"/></g><g transform="translate(-14,-64) scale(1,1)"><rect fill="#ffffff" stroke="none" x="400" y="350" width="224" height="146"/></g><g transform="translate(-14,-64) scale(1,1)"><path fill="none" stroke="#000000" d="M 400 350 L 624 350 L 624 496 L 400 496 L 400 350 Z Z" stroke-miterlimit="10"/></g><g transform="translate(-14,-64) scale(1,1)"><g><path fill="none" stroke="none"/><text fill="#000000" stroke="none" font-family="Arial" font-size="13px" font-style="normal" font-weight="bold" text-decoration="none" x="477.325927734375" y="370.5">view.activity</text></g></g><g transform="translate(-14,-64) scale(1,1)"><rect fill="#C0C0C0" stroke="none" x="495" y="399" width="111.5908203125" height="44" opacity="0.2"/></g><g transform="translate(-14,-64) scale(1,1)"><rect fill="#ffffff" stroke="none" x="488" y="392" width="111.5908203125" height="44"/></g><g transform="translate(-14,-64) scale(1,1)"><path fill="none" stroke="#000000" d="M 488 392 L 599.5908203125 392 L 599.5908203125 436 L 488 436 L 488 392 Z Z" stroke-miterlimit="10"/></g><g transform="translate(-14,-64) scale(1,1)"><path fill="none" stroke="#000000" d="M 488 417 L 599.5908203125 417" stroke-miterlimit="10"/></g><g transform="translate(-14,-64) scale(1,1)"><path fill="none" stroke="#000000" d="M 488 427 L 599.5908203125 427" stroke-miterlimit="10"/></g><g transform="translate(-14,-64) scale(1,1)"><g><path fill="none" stroke="none"/><text fill="#000000" stroke="none" font-family="Arial" font-size="13px" font-style="normal" font-weight="bold" text-decoration="none" x="497.55908203125" y="411.5">ProspectActivity</text></g></g><g transform="translate(-14,-64) scale(1,1)"><path fill="none" stroke="#000000" d="M 278 636 L 516 437" stroke-miterlimit="10"/></g><g transform="translate(-14,-64) scale(1,1)"><rect fill="#C0C0C0" stroke="none" x="143" y="167" width="59.55908203125" height="44" opacity="0.2"/></g><g transform="translate(-14,-64) scale(1,1)"><rect fill="#ffffff" stroke="none" x="136" y="160" width="59.55908203125" height="44"/></g><g transform="translate(-14,-64) scale(1,1)"><path fill="none" stroke="#000000" d="M 136 160 L 195.55908203125 160 L 195.55908203125 204 L 136 204 L 136 160 Z Z" stroke-miterlimit="10"/></g><g transform="translate(-14,-64) scale(1,1)"><path fill="none" stroke="#000000" d="M 136 185 L 195.55908203125 185" stroke-miterlimit="10"/></g><g transform="translate(-14,-64) scale(1,1)"><path fill="none" stroke="#000000" d="M 136 195 L 195.55908203125 195" stroke-miterlimit="10"/></g><g transform="translate(-14,-64) scale(1,1)"><g><path fill="none" stroke="none"/><text fill="#000000" stroke="none" font-family="Arial" font-size="13px" font-style="normal" font-weight="bold" text-decoration="none" x="143.023193359375" y="179.5">retrofit.*</text></g></g><g transform="translate(-14,-64) scale(1,1)"><path fill="none" stroke="#000000" d="M 191 599 L 166 205" stroke-miterlimit="10" stroke-dasharray="3"/></g><g transform="translate(-14,-64) scale(1,1)"><path fill="none" stroke="#000000" d="M 170.8446148081904 214.8757130051588 L 166 205 L 162.44247634810824 215.40884361810816" stroke-miterlimit="10"/></g><g transform="translate(-14,-64) scale(1,1)"><path fill="none" stroke="#000000" d="M 506 391 L 197 201" stroke-miterlimit="10" stroke-dasharray="3"/></g><g transform="translate(-14,-64) scale(1,1)"><path fill="none" stroke="#000000" d="M 207.86195219161687 202.73723763113446 L 197 201 L 203.45214754210872 209.908972561124" stroke-miterlimit="10"/></g><g transform="translate(-14,-64) scale(1,1)"><rect fill="#C0C0C0" stroke="none" x="559" y="159" width="84.841796875" height="44" opacity="0.2"/></g><g transform="translate(-14,-64) scale(1,1)"><rect fill="#ffffff" stroke="none" x="552" y="152" width="84.841796875" height="44"/></g><g transform="translate(-14,-64) scale(1,1)"><path fill="none" stroke="#000000" d="M 552 152 L 636.841796875 152 L 636.841796875 196 L 552 196 L 552 152 Z Z" stroke-miterlimit="10"/></g><g transform="translate(-14,-64) scale(1,1)"><path fill="none" stroke="#000000" d="M 552 177 L 636.841796875 177" stroke-miterlimit="10"/></g><g transform="translate(-14,-64) scale(1,1)"><path fill="none" stroke="#000000" d="M 552 187 L 636.841796875 187" stroke-miterlimit="10"/></g><g transform="translate(-14,-64) scale(1,1)"><g><path fill="none" stroke="none"/><text fill="#000000" stroke="none" font-family="Arial" font-size="13px" font-style="normal" font-weight="bold" text-decoration="none" x="559.734130859375" y="171.5">butterknife.*</text></g></g><g transform="translate(-14,-64) scale(1,1)"><path fill="none" stroke="#000000" d="M 548 391 L 589 197" stroke-miterlimit="10" stroke-dasharray="3"/></g><g transform="translate(-14,-64) scale(1,1)"><path fill="none" stroke="#000000" d="M 591.0171796986241 207.8134631854674 L 589 197 L 582.7800882972139 206.07263459032401" stroke-miterlimit="10"/></g><g transform="translate(-14,-64) scale(1,1)"><rect fill="#C0C0C0" stroke="none" x="367" y="175" width="149.84814453125" height="44" opacity="0.2"/></g><g transform="translate(-14,-64) scale(1,1)"><rect fill="#ffffff" stroke="none" x="360" y="168" width="149.84814453125" height="44"/></g><g transform="translate(-14,-64) scale(1,1)"><path fill="none" stroke="#000000" d="M 360 168 L 509.84814453125 168 L 509.84814453125 212 L 360 212 L 360 168 Z Z" stroke-miterlimit="10"/></g><g transform="translate(-14,-64) scale(1,1)"><path fill="none" stroke="#000000" d="M 360 193 L 509.84814453125 193" stroke-miterlimit="10"/></g><g transform="translate(-14,-64) scale(1,1)"><path fill="none" stroke="#000000" d="M 360 203 L 509.84814453125 203" stroke-miterlimit="10"/></g><g transform="translate(-14,-64) scale(1,1)"><g><path fill="none" stroke="none"/><text fill="#000000" stroke="none" font-family="Arial" font-size="13px" font-style="normal" font-weight="bold" text-decoration="none" x="369.885986328125" y="187.5">com.squareup.okhttp.*</text></g></g><g transform="translate(-14,-64) scale(1,1)"><path fill="none" stroke="#000000" d="M 532 391 L 445 213" stroke-miterlimit="10" stroke-dasharray="3"/></g><g transform="translate(-14,-64) scale(1,1)"><path fill="none" stroke="#000000" d="M 453.2445809543363 220.28195611682708 L 445 213 L 445.6806785503413 223.97891965136392" stroke-miterlimit="10"/></g><g transform="translate(-14,-64) scale(1,1)"><rect fill="#C0C0C0" stroke="none" x="455" y="575" width="73.60000000000002" height="15" opacity="0.2"/></g><g transform="translate(-14,-64) scale(1,1)"><rect fill="#C0C0C0" stroke="none" x="455" y="589" width="184" height="186" opacity="0.2"/></g><g transform="translate(-14,-64) scale(1,1)"><rect fill="#ffffff" stroke="none" x="448" y="583" width="184" height="185"/></g><g transform="translate(-14,-64) scale(1,1)"><path fill="none" stroke="#000000" d="M 448 583 L 632 583 L 632 768 L 448 768 L 448 583 Z Z" stroke-miterlimit="10"/></g><g transform="translate(-14,-64) scale(1,1)"><rect fill="#ffffff" stroke="none" x="448" y="568" width="73.60000000000002" height="15"/></g><g transform="translate(-14,-64) scale(1,1)"><path fill="none" stroke="#000000" d="M 448 568 L 521.6 568 L 521.6 583 L 448 583 L 448 568 Z Z" stroke-miterlimit="10"/></g><g transform="translate(-14,-64) scale(1,1)"><rect fill="#ffffff" stroke="none" x="448" y="582" width="184" height="186"/></g><g transform="translate(-14,-64) scale(1,1)"><path fill="none" stroke="#000000" d="M 448 582 L 632 582 L 632 768 L 448 768 L 448 582 Z Z" stroke-miterlimit="10"/></g><g transform="translate(-14,-64) scale(1,1)"><g><path fill="none" stroke="none"/><text fill="#000000" stroke="none" font-family="Arial" font-size="13px" font-style="normal" font-weight="bold" text-decoration="none" x="529.16455078125" y="602.5">rest</text></g></g><g transform="translate(-14,-64) scale(1,1)"><rect fill="#C0C0C0" stroke="none" x="775" y="191" width="92.79999999999995" height="15" opacity="0.2"/></g><g transform="translate(-14,-64) scale(1,1)"><rect fill="#C0C0C0" stroke="none" x="775" y="205" width="232" height="188" opacity="0.2"/></g><g transform="translate(-14,-64) scale(1,1)"><rect fill="#ffffff" stroke="none" x="768" y="199" width="232" height="187"/></g><g transform="translate(-14,-64) scale(1,1)"><path fill="none" stroke="#000000" d="M 768 199 L 1000 199 L 1000 386 L 768 386 L 768 199 Z Z" stroke-miterlimit="10"/></g><g transform="translate(-14,-64) scale(1,1)"><rect fill="#ffffff" stroke="none" x="768" y="184" width="92.79999999999995" height="15"/></g><g transform="translate(-14,-64) scale(1,1)"><path fill="none" stroke="#000000" d="M 768 184 L 860.8 184 L 860.8 199 L 768 199 L 768 184 Z Z" stroke-miterlimit="10"/></g><g transform="translate(-14,-64) scale(1,1)"><rect fill="#ffffff" stroke="none" x="768" y="198" width="232" height="188"/></g><g transform="translate(-14,-64) scale(1,1)"><path fill="none" stroke="#000000" d="M 768 198 L 1000 198 L 1000 386 L 768 386 L 768 198 Z Z" stroke-miterlimit="10"/></g><g transform="translate(-14,-64) scale(1,1)"><g><path fill="none" stroke="none"/><text fill="#000000" stroke="none" font-family="Arial" font-size="13px" font-style="normal" font-weight="bold" text-decoration="none" x="873.16455078125" y="218.5">rest</text></g></g><g transform="translate(-14,-64) scale(1,1)"><rect fill="#C0C0C0" stroke="none" x="799" y="271" width="154.919921875" height="85" opacity="0.2"/></g><g transform="translate(-14,-64) scale(1,1)"><rect fill="#ffffff" stroke="none" x="792" y="264" width="154.919921875" height="85"/></g><g transform="translate(-14,-64) scale(1,1)"><path fill="none" stroke="#000000" d="M 792 264 L 946.919921875 264 L 946.919921875 349 L 792 349 L 792 264 Z Z" stroke-miterlimit="10"/></g><g transform="translate(-14,-64) scale(1,1)"><path fill="none" stroke="#000000" d="M 792 317 L 946.919921875 317" stroke-miterlimit="10"/></g><g transform="translate(-14,-64) scale(1,1)"><path fill="none" stroke="#000000" d="M 792 327 L 946.919921875 327" stroke-miterlimit="10"/></g><g transform="translate(-14,-64) scale(1,1)"><g><path fill="none" stroke="none"/><text fill="#000000" stroke="none" font-family="Arial" font-size="13px" font-style="normal" font-weight="normal" text-decoration="none" x="835.496826171875" y="281.5">«controller»</text></g></g><g transform="translate(-14,-64) scale(1,1)"><g><path fill="none" stroke="none"/><text fill="#000000" stroke="none" font-family="Arial" font-size="13px" font-style="normal" font-weight="bold" text-decoration="none" x="802.266845703125" y="296.5">ProspectRestController</text></g></g><g transform="translate(-14,-64) scale(1,1)"><g><path fill="none" stroke="none"/><text fill="#000000" stroke="none" font-family="Arial" font-size="13px" font-style="normal" font-weight="normal" text-decoration="none" x="819.265869140625" y="311.5">(from server-rest)</text></g></g><g transform="translate(-14,-64) scale(1,1)"><g><path fill="none" stroke="none"/><text fill="#000000" stroke="none" font-family="Arial" font-size="13px" font-style="normal" font-weight="normal" text-decoration="none" x="797" y="344.5">+startAnalyzeProscess()</text></g></g><g transform="translate(-14,-64) scale(1,1)"><rect fill="#C0C0C0" stroke="none" x="1079" y="192" width="86.40000000000009" height="15" opacity="0.2"/></g><g transform="translate(-14,-64) scale(1,1)"><rect fill="#C0C0C0" stroke="none" x="1079" y="206" width="216" height="201" opacity="0.2"/></g><g transform="translate(-14,-64) scale(1,1)"><rect fill="#ffffff" stroke="none" x="1072" y="200" width="216" height="200"/></g><g transform="translate(-14,-64) scale(1,1)"><path fill="none" stroke="#000000" d="M 1072 200 L 1288 200 L 1288 400 L 1072 400 L 1072 200 Z Z" stroke-miterlimit="10"/></g><g transform="translate(-14,-64) scale(1,1)"><rect fill="#ffffff" stroke="none" x="1072" y="185" width="86.40000000000009" height="15"/></g><g transform="translate(-14,-64) scale(1,1)"><path fill="none" stroke="#000000" d="M 1072 185 L 1158.4 185 L 1158.4 200 L 1072 200 L 1072 185 Z Z" stroke-miterlimit="10"/></g><g transform="translate(-14,-64) scale(1,1)"><rect fill="#ffffff" stroke="none" x="1072" y="199" width="216" height="201"/></g><g transform="translate(-14,-64) scale(1,1)"><path fill="none" stroke="#000000" d="M 1072 199 L 1288 199 L 1288 400 L 1072 400 L 1072 199 Z Z" stroke-miterlimit="10"/></g><g transform="translate(-14,-64) scale(1,1)"><g><path fill="none" stroke="none"/><text fill="#000000" stroke="none" font-family="Arial" font-size="13px" font-style="normal" font-weight="bold" text-decoration="none" x="1153.266845703125" y="219.5">controller</text></g></g><g transform="translate(-14,-64) scale(1,1)"><rect fill="#C0C0C0" stroke="none" x="1128" y="238" width="126.74267578125" height="72" opacity="0.2"/></g><g transform="translate(-14,-64) scale(1,1)"><rect fill="#ffffff" stroke="none" x="1121" y="231" width="126.74267578125" height="72"/></g><g transform="translate(-14,-64) scale(1,1)"><path fill="none" stroke="#000000" d="M 1121 231 L 1247.74267578125 231 L 1247.74267578125 303 L 1121 303 L 1121 231 Z Z" stroke-miterlimit="10"/></g><g transform="translate(-14,-64) scale(1,1)"><path fill="none" stroke="#000000" d="M 1121 271 L 1247.74267578125 271" stroke-miterlimit="10"/></g><g transform="translate(-14,-64) scale(1,1)"><path fill="none" stroke="#000000" d="M 1121 281 L 1247.74267578125 281" stroke-miterlimit="10"/></g><g transform="translate(-14,-64) scale(1,1)"><g><path fill="none" stroke="none"/><text fill="#000000" stroke="none" font-family="Arial" font-size="13px" font-style="normal" font-weight="bold" text-decoration="none" x="1130.543212890625" y="250.5">ProspectController</text></g></g><g transform="translate(-14,-64) scale(1,1)"><g><path fill="none" stroke="none"/><text fill="#000000" stroke="none" font-family="Arial" font-size="13px" font-style="normal" font-weight="normal" text-decoration="none" x="1134.17724609375" y="265.5">(from server-rest)</text></g></g><g transform="translate(-14,-64) scale(1,1)"><g><path fill="none" stroke="none"/><text fill="#000000" stroke="none" font-family="Arial" font-size="13px" font-style="normal" font-weight="normal" text-decoration="none" x="1126" y="298.5">+analyseProspect()</text></g></g><g transform="translate(-14,-64) scale(1,1)"><path fill="none" stroke="#000000" d="M 948 296 L 1120 275" stroke-miterlimit="10"/></g><g transform="translate(-14,-64) scale(1,1)"><path fill="none" stroke="#000000" d="M 1110.422399068681 280.4101349706266 L 1120 275 L 1109.4020703091012 272.05315655883027" stroke-miterlimit="10"/></g><g transform="translate(-14,-64) scale(1,1)"><rect fill="#C0C0C0" stroke="none" x="471" y="647" width="132.51904296875" height="59" opacity="0.2"/></g><g transform="translate(-14,-64) scale(1,1)"><rect fill="#ffffff" stroke="none" x="464" y="640" width="132.51904296875" height="59"/></g><g transform="translate(-14,-64) scale(1,1)"><path fill="none" stroke="#000000" d="M 464 640 L 596.51904296875 640 L 596.51904296875 699 L 464 699 L 464 640 Z Z" stroke-miterlimit="10"/></g><g transform="translate(-14,-64) scale(1,1)"><path fill="none" stroke="#000000" d="M 464 680 L 596.51904296875 680" stroke-miterlimit="10"/></g><g transform="translate(-14,-64) scale(1,1)"><path fill="none" stroke="#000000" d="M 464 690 L 596.51904296875 690" stroke-miterlimit="10"/></g><g transform="translate(-14,-64) scale(1,1)"><g><path fill="none" stroke="none"/><text fill="#000000" stroke="none" font-family="Arial" font-size="13px" font-style="normal" font-weight="bold" text-decoration="none" x="473.181396484375" y="659.5">ProspectRetrofitAPI</text></g></g><g transform="translate(-14,-64) scale(1,1)"><g><path fill="none" stroke="none"/><text fill="#000000" stroke="none" font-family="Arial" font-size="13px" font-style="normal" font-weight="normal" text-decoration="none" x="500.2890625" y="674.5">(from rest)</text></g></g><g transform="translate(-14,-64) scale(1,1)"><path fill="none" stroke="#000000" d="M 278 695 L 463 676" stroke-miterlimit="10"/></g><g transform="translate(-14,-64) scale(1,1)"><path fill="#FFFFFF" stroke="none" d="M 443.6411373132375 686.4515279014637 L 463 676 L 441.9208706652456 669.7015631710165"/></g><g transform="translate(-14,-64) scale(1,1)"><path fill="none" stroke="#000000" d="M 443.6411373132375 686.4515279014637 L 463 676 L 441.9208706652456 669.7015631710165 L 443.6411373132375 686.4515279014637" stroke-miterlimit="10"/></g><g transform="translate(-14,-64) scale(1,1)"><path fill="none" stroke="#000000" d="M 542 437 L 532 639" stroke-miterlimit="10"/></g><g transform="translate(-14,-64) scale(1,1)"><path fill="#FFFFFF" stroke="none" d="M 524.5962367175944 618.2832365158526 L 532 639 L 541.4137127205895 619.1157848328326"/></g><g transform="translate(-14,-64) scale(1,1)"><path fill="none" stroke="#000000" d="M 524.5962367175944 618.2832365158526 L 532 639 L 541.4137127205895 619.1157848328326 L 524.5962367175944 618.2832365158526" stroke-miterlimit="10"/></g><g transform="translate(-14,-64) scale(1,1)"><path fill="none" stroke="#000000" d="M 601 395 L 791 332" stroke-miterlimit="10"/></g></g></svg>