<svg version="1.1" xmlns="http://www.w3.org/2000/svg" xmlns:xlink="http://www.w3.org/1999/xlink" width="786.54638671875" height="616"><defs/><g><g transform="translate(-94,-22) scale(1,1)"><rect fill="#C0C0C0" stroke="none" x="183" y="287" width="126.025390625" height="44" opacity="0.2"/></g><g transform="translate(-94,-22) scale(1,1)"><rect fill="#ffffff" stroke="none" x="176" y="280" width="126.025390625" height="44"/></g><g transform="translate(-94,-22) scale(1,1)"><path fill="none" stroke="#000000" d="M 176 280 L 302.025390625 280 L 302.025390625 324 L 176 324 L 176 280 Z Z" stroke-miterlimit="10"/></g><g transform="translate(-94,-22) scale(1,1)"><path fill="none" stroke="#000000" d="M 176 305 L 302.025390625 305" stroke-miterlimit="10"/></g><g transform="translate(-94,-22) scale(1,1)"><path fill="none" stroke="#000000" d="M 176 315 L 302.025390625 315" stroke-miterlimit="10"/></g><g transform="translate(-94,-22) scale(1,1)"><g><path fill="none" stroke="none"/><text fill="#000000" stroke="none" font-family="Arial" font-size="13px" font-style="normal" font-weight="bold" text-decoration="none" x="186.996826171875" y="299.5">CraRestController</text></g></g><g transform="translate(-94,-22) scale(1,1)"><rect fill="#C0C0C0" stroke="none" x="215" y="591" width="50.919921875" height="44" opacity="0.2"/></g><g transform="translate(-94,-22) scale(1,1)"><rect fill="#ffffff" stroke="none" x="208" y="584" width="50.919921875" height="44"/></g><g transform="translate(-94,-22) scale(1,1)"><path fill="none" stroke="#000000" d="M 208 584 L 258.919921875 584 L 258.919921875 628 L 208 628 L 208 584 Z Z" stroke-miterlimit="10"/></g><g transform="translate(-94,-22) scale(1,1)"><path fill="none" stroke="#000000" d="M 208 609 L 258.919921875 609" stroke-miterlimit="10"/></g><g transform="translate(-94,-22) scale(1,1)"><path fill="none" stroke="#000000" d="M 208 619 L 258.919921875 619" stroke-miterlimit="10"/></g><g transform="translate(-94,-22) scale(1,1)"><g><path fill="none" stroke="none"/><text fill="#000000" stroke="none" font-family="Arial" font-size="13px" font-style="normal" font-weight="bold" text-decoration="none" x="222.986328125" y="603.5">Cra</text></g></g><g transform="translate(-94,-22) scale(1,1)"><g><path fill="none" stroke="none"/><text fill="#000000" stroke="none" font-family="Arial" font-size="13px" font-style="normal" font-weight="normal" text-decoration="none" x="173" y="74">Server-rest</text></g></g><g transform="translate(-94,-22) scale(1,1)"><rect fill="#C0C0C0" stroke="none" x="383" y="351" width="146.2109375" height="44" opacity="0.2"/></g><g transform="translate(-94,-22) scale(1,1)"><rect fill="#ffffff" stroke="none" x="376" y="344" width="146.2109375" height="44"/></g><g transform="translate(-94,-22) scale(1,1)"><path fill="none" stroke="#000000" d="M 376 344 L 522.2109375 344 L 522.2109375 388 L 376 388 L 376 344 Z Z" stroke-miterlimit="10"/></g><g transform="translate(-94,-22) scale(1,1)"><path fill="none" stroke="#000000" d="M 376 369 L 522.2109375 369" stroke-miterlimit="10"/></g><g transform="translate(-94,-22) scale(1,1)"><path fill="none" stroke="#000000" d="M 376 379 L 522.2109375 379" stroke-miterlimit="10"/></g><g transform="translate(-94,-22) scale(1,1)"><g><path fill="none" stroke="none"/><text fill="#000000" stroke="none" font-family="Arial" font-size="13px" font-style="normal" font-weight="bold" text-decoration="none" x="384.791015625" y="363.5">MongoDataStoreCnfig</text></g></g><g transform="translate(-94,-22) scale(1,1)"><rect fill="#C0C0C0" stroke="none" x="711" y="271" width="59.5654296875" height="44" opacity="0.2"/></g><g transform="translate(-94,-22) scale(1,1)"><rect fill="#ffffff" stroke="none" x="704" y="264" width="59.5654296875" height="44"/></g><g transform="translate(-94,-22) scale(1,1)"><path fill="none" stroke="#000000" d="M 704 264 L 763.5654296875 264 L 763.5654296875 308 L 704 308 L 704 264 Z Z" stroke-miterlimit="10"/></g><g transform="translate(-94,-22) scale(1,1)"><path fill="none" stroke="#000000" d="M 704 289 L 763.5654296875 289" stroke-miterlimit="10"/></g><g transform="translate(-94,-22) scale(1,1)"><path fill="none" stroke="#000000" d="M 704 299 L 763.5654296875 299" stroke-miterlimit="10"/></g><g transform="translate(-94,-22) scale(1,1)"><g><path fill="none" stroke="none"/><text fill="#000000" stroke="none" font-family="Arial" font-size="13px" font-style="normal" font-weight="bold" text-decoration="none" x="709.2236328125" y="283.5">CraDAO</text></g></g><g transform="translate(-94,-22) scale(1,1)"><rect fill="#C0C0C0" stroke="none" x="111" y="151" width="139.025390625" height="44" opacity="0.2"/></g><g transform="translate(-94,-22) scale(1,1)"><rect fill="#ffffff" stroke="none" x="104" y="144" width="139.025390625" height="44"/></g><g transform="translate(-94,-22) scale(1,1)"><path fill="none" stroke="#000000" d="M 104 144 L 243.025390625 144 L 243.025390625 188 L 104 188 L 104 144 Z Z" stroke-miterlimit="10"/></g><g transform="translate(-94,-22) scale(1,1)"><path fill="none" stroke="#000000" d="M 104 169 L 243.025390625 169" stroke-miterlimit="10"/></g><g transform="translate(-94,-22) scale(1,1)"><path fill="none" stroke="#000000" d="M 104 179 L 243.025390625 179" stroke-miterlimit="10"/></g><g transform="translate(-94,-22) scale(1,1)"><g><path fill="none" stroke="none"/><text fill="#000000" stroke="none" font-family="Arial" font-size="13px" font-style="normal" font-weight="bold" text-decoration="none" x="114.27001953125" y="163.5">org.springframework</text></g></g><g transform="translate(-94,-22) scale(1,1)"><rect fill="#C0C0C0" stroke="none" x="351" y="143" width="59.5654296875" height="44" opacity="0.2"/></g><g transform="translate(-94,-22) scale(1,1)"><rect fill="#ffffff" stroke="none" x="344" y="136" width="59.5654296875" height="44"/></g><g transform="translate(-94,-22) scale(1,1)"><path fill="none" stroke="#000000" d="M 344 136 L 403.5654296875 136 L 403.5654296875 180 L 344 180 L 344 136 Z Z" stroke-miterlimit="10"/></g><g transform="translate(-94,-22) scale(1,1)"><path fill="none" stroke="#000000" d="M 344 161 L 403.5654296875 161" stroke-miterlimit="10"/></g><g transform="translate(-94,-22) scale(1,1)"><path fill="none" stroke="#000000" d="M 344 171 L 403.5654296875 171" stroke-miterlimit="10"/></g><g transform="translate(-94,-22) scale(1,1)"><g><path fill="none" stroke="none"/><text fill="#000000" stroke="none" font-family="Arial" font-size="13px" font-style="normal" font-weight="bold" text-decoration="none" x="351.023193359375" y="155.5">org.slf4j</text></g></g><g transform="translate(-94,-22) scale(1,1)"><path fill="none" stroke="#000000" d="M 239 325 L 233 583" stroke-miterlimit="10" stroke-dasharray="3"/></g><g transform="translate(-94,-22) scale(1,1)"><path fill="none" stroke="#000000" d="M 229.02789749637546 572.7422028826506 L 233 583 L 237.44465728583253 572.9379414824056" stroke-miterlimit="10"/></g><g transform="translate(-94,-22) scale(1,1)"><path fill="none" stroke="#000000" d="M 260 279 L 352 181" stroke-miterlimit="10" stroke-dasharray="3"/></g><g transform="translate(-94,-22) scale(1,1)"><path fill="none" stroke="#000000" d="M 348.1133462792157 191.2904772899372 L 352 181 L 341.97525452454875 185.52818707127025" stroke-miterlimit="10"/></g><g transform="translate(-94,-22) scale(1,1)"><path fill="none" stroke="#000000" d="M 703 294 L 523 345" stroke-miterlimit="10" stroke-dasharray="3"/></g><g transform="translate(-94,-22) scale(1,1)"><path fill="none" stroke="#000000" d="M 531.6302557222843 338.1795391528153 L 523 345 L 533.9253064604628 346.2797182287396" stroke-miterlimit="10"/></g><g transform="translate(-94,-22) scale(1,1)"><path fill="none" stroke="#000000" d="M 703 275 L 405 169" stroke-miterlimit="10" stroke-dasharray="3"/></g><g transform="translate(-94,-22) scale(1,1)"><path fill="none" stroke="#000000" d="M 415.9857249560384 168.43977933787156 L 405 169 L 413.16421644181685 176.3719447835132" stroke-miterlimit="10"/></g><g transform="translate(-94,-22) scale(1,1)"><rect fill="#C0C0C0" stroke="none" x="319" y="39" width="57.4072265625" height="44" opacity="0.2"/></g><g transform="translate(-94,-22) scale(1,1)"><rect fill="#ffffff" stroke="none" x="312" y="32" width="57.4072265625" height="44"/></g><g transform="translate(-94,-22) scale(1,1)"><path fill="none" stroke="#000000" d="M 312 32 L 369.4072265625 32 L 369.4072265625 76 L 312 76 L 312 32 Z Z" stroke-miterlimit="10"/></g><g transform="translate(-94,-22) scale(1,1)"><path fill="none" stroke="#000000" d="M 312 57 L 369.4072265625 57" stroke-miterlimit="10"/></g><g transform="translate(-94,-22) scale(1,1)"><path fill="none" stroke="#000000" d="M 312 67 L 369.4072265625 67" stroke-miterlimit="10"/></g><g transform="translate(-94,-22) scale(1,1)"><g><path fill="none" stroke="none"/><text fill="#000000" stroke="none" font-family="Arial" font-size="13px" font-style="normal" font-weight="bold" text-decoration="none" x="318.66455078125" y="51.5">java.util</text></g></g><g transform="translate(-94,-22) scale(1,1)"><path fill="none" stroke="#000000" d="M 228 279 L 184 189" stroke-miterlimit="10" stroke-dasharray="3"/></g><g transform="translate(-94,-22) scale(1,1)"><path fill="none" stroke="#000000" d="M 192.24531468475686 196.28112530789937 L 184 189 L 184.68178484672396 199.97885100649324" stroke-miterlimit="10"/></g><g transform="translate(-94,-22) scale(1,1)"><path fill="none" stroke="#000000" d="M 303 300 L 703 287" stroke-miterlimit="10"/></g><g transform="translate(-94,-22) scale(1,1)"><path fill="none" stroke="#000000" d="M 692.9794251888067 291.53740900220356 L 703 287 L 692.705950925143 283.1228162740931" stroke-miterlimit="10"/></g><g transform="translate(-94,-22) scale(1,1)"><path fill="none" stroke="#000000" d="M 248 279 L 331 77" stroke-miterlimit="10" stroke-dasharray="3"/></g><g transform="translate(-94,-22) scale(1,1)"><path fill="none" stroke="#000000" d="M 331.031231552603 87.999955663098 L 331 77 L 323.2439408005046 84.80022728476055" stroke-miterlimit="10"/></g><g transform="translate(-94,-22) scale(1,1)"><path fill="none" stroke="#000000" d="M 703 268 L 370 72" stroke-miterlimit="10" stroke-dasharray="3"/></g><g transform="translate(-94,-22) scale(1,1)"><path fill="none" stroke="#000000" d="M 380.89346698738086 73.52721216431875 L 370 72 L 376.6229422997084 80.78274645510918" stroke-miterlimit="10"/></g><g transform="translate(-94,-22) scale(1,1)"><rect fill="#C0C0C0" stroke="none" x="735" y="151" width="72.578125" height="44" opacity="0.2"/></g><g transform="translate(-94,-22) scale(1,1)"><rect fill="#ff0000" stroke="none" x="728" y="144" width="72.578125" height="44"/></g><g transform="translate(-94,-22) scale(1,1)"><path fill="none" stroke="#000000" d="M 728 144 L 800.578125 144 L 800.578125 188 L 728 188 L 728 144 Z Z" stroke-miterlimit="10"/></g><g transform="translate(-94,-22) scale(1,1)"><path fill="none" stroke="#000000" d="M 728 169 L 800.578125 169" stroke-miterlimit="10"/></g><g transform="translate(-94,-22) scale(1,1)"><path fill="none" stroke="#000000" d="M 728 179 L 800.578125 179" stroke-miterlimit="10"/></g><g transform="translate(-94,-22) scale(1,1)"><g><path fill="none" stroke="none"/><text fill="#000000" stroke="none" font-family="Arial" font-size="13px" font-style="normal" font-weight="bold" text-decoration="none" x="734.30908203125" y="163.5">BasicDAO</text></g></g><g transform="translate(-94,-22) scale(1,1)"><path fill="none" stroke="#000000" d="M 739 263 L 758 189" stroke-miterlimit="10"/></g><g transform="translate(-94,-22) scale(1,1)"><path fill="#FFFFFF" stroke="none" d="M 761.0998190030248 210.7805216225068 L 758 189 L 744.790748500435 206.59305757454456"/></g><g transform="translate(-94,-22) scale(1,1)"><path fill="none" stroke="#000000" d="M 761.0998190030248 210.7805216225068 L 758 189 L 744.790748500435 206.59305757454456 L 761.0998190030248 210.7805216225068" stroke-miterlimit="10"/></g><g transform="translate(-94,-22) scale(1,1)"><rect fill="#C0C0C0" stroke="none" x="287" y="439" width="92.75732421875" height="44" opacity="0.2"/></g><g transform="translate(-94,-22) scale(1,1)"><rect fill="#ffffff" stroke="none" x="280" y="432" width="92.75732421875" height="44"/></g><g transform="translate(-94,-22) scale(1,1)"><path fill="none" stroke="#000000" d="M 280 432 L 372.75732421875 432 L 372.75732421875 476 L 280 476 L 280 432 Z Z" stroke-miterlimit="10"/></g><g transform="translate(-94,-22) scale(1,1)"><path fill="none" stroke="#000000" d="M 280 457 L 372.75732421875 457" stroke-miterlimit="10"/></g><g transform="translate(-94,-22) scale(1,1)"><path fill="none" stroke="#000000" d="M 280 467 L 372.75732421875 467" stroke-miterlimit="10"/></g><g transform="translate(-94,-22) scale(1,1)"><g><path fill="none" stroke="none"/><text fill="#000000" stroke="none" font-family="Arial" font-size="13px" font-style="normal" font-weight="bold" text-decoration="none" x="288.07373046875" y="451.5">org.mongodb</text></g></g><g transform="translate(-94,-22) scale(1,1)"><path fill="none" stroke="#000000" d="M 417 389 L 358 431" stroke-miterlimit="10" stroke-dasharray="3"/></g><g transform="translate(-94,-22) scale(1,1)"><path fill="none" stroke="#000000" d="M 363.83794838259473 421.676998408122 L 358 431 L 368.72041053617966 428.53569524291987" stroke-miterlimit="10"/></g><g transform="translate(-94,-22) scale(1,1)"><rect fill="#C0C0C0" stroke="none" x="527" y="575" width="60.28271484375" height="44" opacity="0.2"/></g><g transform="translate(-94,-22) scale(1,1)"><rect fill="#ffffff" stroke="none" x="520" y="568" width="60.28271484375" height="44"/></g><g transform="translate(-94,-22) scale(1,1)"><path fill="none" stroke="#000000" d="M 520 568 L 580.28271484375 568 L 580.28271484375 612 L 520 612 L 520 568 Z Z" stroke-miterlimit="10"/></g><g transform="translate(-94,-22) scale(1,1)"><path fill="none" stroke="#000000" d="M 520 593 L 580.28271484375 593" stroke-miterlimit="10"/></g><g transform="translate(-94,-22) scale(1,1)"><path fill="none" stroke="#000000" d="M 520 603 L 580.28271484375 603" stroke-miterlimit="10"/></g><g transform="translate(-94,-22) scale(1,1)"><g><path fill="none" stroke="none"/><text fill="#000000" stroke="none" font-family="Arial" font-size="13px" font-style="normal" font-weight="bold" text-decoration="none" x="526.658203125" y="587.5">morphia</text></g></g><g transform="translate(-94,-22) scale(1,1)"><path fill="none" stroke="#000000" d="M 260 605 L 519 592" stroke-miterlimit="10" stroke-dasharray="3"/></g><g transform="translate(-94,-22) scale(1,1)"><path fill="none" stroke="#000000" d="M 509.06112551633794 596.7136794543128 L 519 592 L 508.6390797487563 588.3052291617249" stroke-miterlimit="10"/></g><g transform="translate(-94,-22) scale(1,1)"><path fill="none" stroke="#000000" d="M 719 309 L 564 567" stroke-miterlimit="10" stroke-dasharray="3"/></g><g transform="translate(-94,-22) scale(1,1)"><path fill="none" stroke="#000000" d="M 565.625220662384 556.1207234708111 L 564 567 L 572.8420147594893 560.456394343103" stroke-miterlimit="10"/></g><g transform="translate(-94,-22) scale(1,1)"><rect fill="#C0C0C0" stroke="none" x="647" y="103" width="50.919921875" height="44" opacity="0.2"/></g><g transform="translate(-94,-22) scale(1,1)"><rect fill="#ffffff" stroke="none" x="640" y="96" width="50.919921875" height="44"/></g><g transform="translate(-94,-22) scale(1,1)"><path fill="none" stroke="#000000" d="M 640 96 L 690.919921875 96 L 690.919921875 140 L 640 140 L 640 96 Z Z" stroke-miterlimit="10"/></g><g transform="translate(-94,-22) scale(1,1)"><path fill="none" stroke="#000000" d="M 640 121 L 690.919921875 121" stroke-miterlimit="10"/></g><g transform="translate(-94,-22) scale(1,1)"><path fill="none" stroke="#000000" d="M 640 131 L 690.919921875 131" stroke-miterlimit="10"/></g><g transform="translate(-94,-22) scale(1,1)"><g><path fill="none" stroke="none"/><text fill="#000000" stroke="none" font-family="Arial" font-size="13px" font-style="normal" font-weight="bold" text-decoration="none" x="651.736328125" y="115.5">User</text></g></g><g transform="translate(-94,-22) scale(1,1)"><path fill="none" stroke="#000000" d="M 724 263 L 674 141" stroke-miterlimit="10" stroke-dasharray="3"/></g><g transform="translate(-94,-22) scale(1,1)"><path fill="none" stroke="#000000" d="M 681.7490127012107 148.8072275589018 L 674 141 L 673.9588358793608 151.9999229776927" stroke-miterlimit="10"/></g><g transform="translate(-94,-22) scale(1,1)"><path fill="none" stroke="#000000" d="M 703 305 L 260 589" stroke-miterlimit="10" stroke-dasharray="3"/></g><g transform="translate(-94,-22) scale(1,1)"><path fill="none" stroke="#000000" d="M 266.28363949746193 579.9713857837464 L 260 589 L 270.82739843621715 587.0590097621568" stroke-miterlimit="10"/></g><g transform="translate(-94,-22) scale(1,1)"><rect fill="#C0C0C0" stroke="none" x="727" y="471" width="150.54638671875" height="44" opacity="0.2"/></g><g transform="translate(-94,-22) scale(1,1)"><rect fill="#ffffff" stroke="none" x="720" y="464" width="150.54638671875" height="44"/></g><g transform="translate(-94,-22) scale(1,1)"><path fill="none" stroke="#000000" d="M 720 464 L 870.54638671875 464 L 870.54638671875 508 L 720 508 L 720 464 Z Z" stroke-miterlimit="10"/></g><g transform="translate(-94,-22) scale(1,1)"><path fill="none" stroke="#000000" d="M 720 489 L 870.54638671875 489" stroke-miterlimit="10"/></g><g transform="translate(-94,-22) scale(1,1)"><path fill="none" stroke="#000000" d="M 720 499 L 870.54638671875 499" stroke-miterlimit="10"/></g><g transform="translate(-94,-22) scale(1,1)"><g><path fill="none" stroke="none"/><text fill="#000000" stroke="none" font-family="Arial" font-size="13px" font-style="normal" font-weight="bold" text-decoration="none" x="730.596923828125" y="483.5">LoggingRestController</text></g></g><g transform="translate(-94,-22) scale(1,1)"><path fill="none" stroke="#000000" d="M 740 309 L 788 463" stroke-miterlimit="10" stroke-dasharray="3"/></g><g transform="translate(-94,-22) scale(1,1)"><path fill="none" stroke="#000000" d="M 780.9570756518513 454.55031263144883 L 788 463 L 788.994731671249 452.0450691968313" stroke-miterlimit="10"/></g></g></svg>