<svg version="1.1" xmlns="http://www.w3.org/2000/svg" xmlns:xlink="http://www.w3.org/1999/xlink" width="1124" height="932"><defs/><g><g transform="translate(10,10) scale(1,1)"><rect fill="#ffffff" stroke="none" x="0" y="0" width="1104" height="912"/></g><g transform="translate(10,10) scale(1,1)"><path fill="none" stroke="#000000" d="M 0 0 L 1104 0 L 1104 912 L 0 912 L 0 0 Z Z" stroke-miterlimit="10"/></g><g transform="translate(10,10) scale(1,1)"><rect fill="#C0C0C0" stroke="none" x="239" y="31" width="158.5380859375" height="44" opacity="0.2"/></g><g transform="translate(10,10) scale(1,1)"><rect fill="#ffffff" stroke="none" x="232" y="24" width="158.5380859375" height="44"/></g><g transform="translate(10,10) scale(1,1)"><path fill="none" stroke="#000000" d="M 232 24 L 390.5380859375 24 L 390.5380859375 68 L 232 68 L 232 24 Z Z" stroke-miterlimit="10"/></g><g transform="translate(10,10) scale(1,1)"><path fill="none" stroke="#000000" d="M 232 49 L 390.5380859375 49" stroke-miterlimit="10"/></g><g transform="translate(10,10) scale(1,1)"><path fill="none" stroke="#000000" d="M 232 59 L 390.5380859375 59" stroke-miterlimit="10"/></g><g transform="translate(10,10) scale(1,1)"><g><path fill="none" stroke="none"/><text fill="#000000" stroke="none" font-family="Arial" font-size="13px" font-style="normal" font-weight="bold" text-decoration="none" x="241.530517578125" y="43.5">ListenerCallEndedEvent</text></g></g><g transform="translate(10,10) scale(1,1)"><rect fill="#C0C0C0" stroke="none" x="111" y="31" width="55.26171875" height="44" opacity="0.2"/></g><g transform="translate(10,10) scale(1,1)"><rect fill="#ff0000" stroke="none" x="104" y="24" width="55.26171875" height="44"/></g><g transform="translate(10,10) scale(1,1)"><path fill="none" stroke="#000000" d="M 104 24 L 159.26171875 24 L 159.26171875 68 L 104 68 L 104 24 Z Z" stroke-miterlimit="10"/></g><g transform="translate(10,10) scale(1,1)"><path fill="none" stroke="#000000" d="M 104 49 L 159.26171875 49" stroke-miterlimit="10"/></g><g transform="translate(10,10) scale(1,1)"><path fill="none" stroke="#000000" d="M 104 59 L 159.26171875 59" stroke-miterlimit="10"/></g><g transform="translate(10,10) scale(1,1)"><g><path fill="none" stroke="none"/><text fill="#000000" stroke="none" font-family="Arial" font-size="13px" font-style="normal" font-weight="bold" text-decoration="none" x="109.956787109375" y="43.5">Service</text></g></g><g transform="translate(10,10) scale(1,1)"><path fill="none" stroke="#000000" d="M 231 46 L 160 46" stroke-miterlimit="10"/></g><g transform="translate(10,10) scale(1,1)"><path fill="#FFFFFF" stroke="none" d="M 180.3253497152483 37.580964487968025 L 160 46 L 180.3253497152483 54.419035512031975"/></g><g transform="translate(10,10) scale(1,1)"><path fill="none" stroke="#000000" d="M 180.3253497152483 37.580964487968025 L 160 46 L 180.3253497152483 54.419035512031975 L 180.3253497152483 37.580964487968025" stroke-miterlimit="10"/></g><g transform="translate(10,10) scale(1,1)"><rect fill="#C0C0C0" stroke="none" x="39" y="31" width="50.919921875" height="44" opacity="0.2"/></g><g transform="translate(10,10) scale(1,1)"><rect fill="#ff0000" stroke="none" x="32" y="24" width="50.919921875" height="44"/></g><g transform="translate(10,10) scale(1,1)"><path fill="none" stroke="#000000" d="M 32 24 L 82.919921875 24 L 82.919921875 68 L 32 68 L 32 24 Z Z" stroke-miterlimit="10"/></g><g transform="translate(10,10) scale(1,1)"><path fill="none" stroke="#000000" d="M 32 49 L 82.919921875 49" stroke-miterlimit="10"/></g><g transform="translate(10,10) scale(1,1)"><path fill="none" stroke="#000000" d="M 32 59 L 82.919921875 59" stroke-miterlimit="10"/></g><g transform="translate(10,10) scale(1,1)"><g><path fill="none" stroke="none"/><text fill="#000000" stroke="none" font-family="Arial" font-size="13px" font-style="normal" font-weight="bold" text-decoration="none" x="46.259521484375" y="43.5">Bus</text></g></g><g transform="translate(10,10) scale(1,1)"><rect fill="#C0C0C0" stroke="none" x="23" y="127" width="83.3818359375" height="44" opacity="0.2"/></g><g transform="translate(10,10) scale(1,1)"><rect fill="#ffffff" stroke="none" x="16" y="120" width="83.3818359375" height="44"/></g><g transform="translate(10,10) scale(1,1)"><path fill="none" stroke="#000000" d="M 16 120 L 99.3818359375 120 L 99.3818359375 164 L 16 164 L 16 120 Z Z" stroke-miterlimit="10"/></g><g transform="translate(10,10) scale(1,1)"><path fill="none" stroke="#000000" d="M 16 145 L 99.3818359375 145" stroke-miterlimit="10"/></g><g transform="translate(10,10) scale(1,1)"><path fill="none" stroke="#000000" d="M 16 155 L 99.3818359375 155" stroke-miterlimit="10"/></g><g transform="translate(10,10) scale(1,1)"><g><path fill="none" stroke="none"/><text fill="#000000" stroke="none" font-family="Arial" font-size="13px" font-style="normal" font-weight="bold" text-decoration="none" x="24.08642578125" y="139.5">AndroidBus</text></g></g><g transform="translate(10,10) scale(1,1)"><rect fill="#C0C0C0" stroke="none" x="711" y="503" width="112.99365234375" height="44" opacity="0.2"/></g><g transform="translate(10,10) scale(1,1)"><rect fill="#ffffff" stroke="none" x="704" y="496" width="112.99365234375" height="44"/></g><g transform="translate(10,10) scale(1,1)"><path fill="none" stroke="#000000" d="M 704 496 L 816.99365234375 496 L 816.99365234375 540 L 704 540 L 704 496 Z Z" stroke-miterlimit="10"/></g><g transform="translate(10,10) scale(1,1)"><path fill="none" stroke="#000000" d="M 704 521 L 816.99365234375 521" stroke-miterlimit="10"/></g><g transform="translate(10,10) scale(1,1)"><path fill="none" stroke="#000000" d="M 704 531 L 816.99365234375 531" stroke-miterlimit="10"/></g><g transform="translate(10,10) scale(1,1)"><g><path fill="none" stroke="none"/><text fill="#000000" stroke="none" font-family="Arial" font-size="13px" font-style="normal" font-weight="bold" text-decoration="none" x="712.44189453125" y="515.5">AddlogFragment</text></g></g><g transform="translate(10,10) scale(1,1)"><rect fill="#C0C0C0" stroke="none" x="23" y="279" width="108.66455078125" height="44" opacity="0.2"/></g><g transform="translate(10,10) scale(1,1)"><rect fill="#ffffff" stroke="none" x="16" y="272" width="108.66455078125" height="44"/></g><g transform="translate(10,10) scale(1,1)"><path fill="none" stroke="#000000" d="M 16 272 L 124.66455078125 272 L 124.66455078125 316 L 16 316 L 16 272 Z Z" stroke-miterlimit="10"/></g><g transform="translate(10,10) scale(1,1)"><path fill="none" stroke="#000000" d="M 16 297 L 124.66455078125 297" stroke-miterlimit="10"/></g><g transform="translate(10,10) scale(1,1)"><path fill="none" stroke="#000000" d="M 16 307 L 124.66455078125 307" stroke-miterlimit="10"/></g><g transform="translate(10,10) scale(1,1)"><g><path fill="none" stroke="none"/><text fill="#000000" stroke="none" font-family="Arial" font-size="13px" font-style="normal" font-weight="bold" text-decoration="none" x="23.721435546875" y="291.5">PopupFragment</text></g></g><g transform="translate(10,10) scale(1,1)"><path fill="none" stroke="#000000" d="M 703 505 L 437 446" stroke-miterlimit="10"/></g><g transform="translate(10,10) scale(1,1)"><path fill="#FFFFFF" stroke="none" d="M 458.6661704295833 442.18200852328755 L 437 446 L 455.02002369679764 458.620568369406"/></g><g transform="translate(10,10) scale(1,1)"><path fill="none" stroke="#000000" d="M 458.6661704295833 442.18200852328755 L 437 446 L 455.02002369679764 458.620568369406 L 458.6661704295833 442.18200852328755" stroke-miterlimit="10"/></g><g transform="translate(10,10) scale(1,1)"><path fill="none" stroke="#000000" d="M 75 317 L 96 415" stroke-miterlimit="10"/></g><g transform="translate(10,10) scale(1,1)"><path fill="#FFFFFF" stroke="none" d="M 83.50909474815941 396.8898568202915 L 96 415 L 99.973401243896 393.3617911426337"/></g><g transform="translate(10,10) scale(1,1)"><path fill="none" stroke="#000000" d="M 83.50909474815941 396.8898568202915 L 96 415 L 99.973401243896 393.3617911426337 L 83.50909474815941 396.8898568202915" stroke-miterlimit="10"/></g><g transform="translate(10,10) scale(1,1)"><rect fill="#C0C0C0" stroke="none" x="367" y="687" width="50.919921875" height="44" opacity="0.2"/></g><g transform="translate(10,10) scale(1,1)"><rect fill="#ffffff" stroke="none" x="360" y="680" width="50.919921875" height="44"/></g><g transform="translate(10,10) scale(1,1)"><path fill="none" stroke="#000000" d="M 360 680 L 410.919921875 680 L 410.919921875 724 L 360 724 L 360 680 Z Z" stroke-miterlimit="10"/></g><g transform="translate(10,10) scale(1,1)"><path fill="none" stroke="#000000" d="M 360 705 L 410.919921875 705" stroke-miterlimit="10"/></g><g transform="translate(10,10) scale(1,1)"><path fill="none" stroke="#000000" d="M 360 715 L 410.919921875 715" stroke-miterlimit="10"/></g><g transform="translate(10,10) scale(1,1)"><g><path fill="none" stroke="none"/><text fill="#000000" stroke="none" font-family="Arial" font-size="13px" font-style="normal" font-weight="bold" text-decoration="none" x="374.986328125" y="699.5">Cra</text></g></g><g transform="translate(10,10) scale(1,1)"><rect fill="#C0C0C0" stroke="none" x="63" y="591" width="134.70263671875" height="44" opacity="0.2"/></g><g transform="translate(10,10) scale(1,1)"><rect fill="#ffffff" stroke="none" x="56" y="584" width="134.70263671875" height="44"/></g><g transform="translate(10,10) scale(1,1)"><path fill="none" stroke="#000000" d="M 56 584 L 190.70263671875 584 L 190.70263671875 628 L 56 628 L 56 584 Z Z" stroke-miterlimit="10"/></g><g transform="translate(10,10) scale(1,1)"><path fill="none" stroke="#000000" d="M 56 609 L 190.70263671875 609" stroke-miterlimit="10"/></g><g transform="translate(10,10) scale(1,1)"><path fill="none" stroke="#000000" d="M 56 619 L 190.70263671875 619" stroke-miterlimit="10"/></g><g transform="translate(10,10) scale(1,1)"><g><path fill="none" stroke="none"/><text fill="#000000" stroke="none" font-family="Arial" font-size="13px" font-style="normal" font-weight="bold" text-decoration="none" x="64.470458984375" y="603.5">CallDetailsFragment</text></g></g><g transform="translate(10,10) scale(1,1)"><rect fill="#C0C0C0" stroke="none" x="559" y="335" width="162.13720703125" height="44" opacity="0.2"/></g><g transform="translate(10,10) scale(1,1)"><rect fill="#ffffff" stroke="none" x="552" y="328" width="162.13720703125" height="44"/></g><g transform="translate(10,10) scale(1,1)"><path fill="none" stroke="#000000" d="M 552 328 L 714.13720703125 328 L 714.13720703125 372 L 552 372 L 552 328 Z Z" stroke-miterlimit="10"/></g><g transform="translate(10,10) scale(1,1)"><path fill="none" stroke="#000000" d="M 552 353 L 714.13720703125 353" stroke-miterlimit="10"/></g><g transform="translate(10,10) scale(1,1)"><path fill="none" stroke="#000000" d="M 552 363 L 714.13720703125 363" stroke-miterlimit="10"/></g><g transform="translate(10,10) scale(1,1)"><g><path fill="none" stroke="none"/><text fill="#000000" stroke="none" font-family="Arial" font-size="13px" font-style="normal" font-weight="bold" text-decoration="none" x="561.898681640625" y="347.5">DisplayCallLogFragment</text></g></g><g transform="translate(10,10) scale(1,1)"><rect fill="#C0C0C0" stroke="none" x="375" y="423" width="68.22998046875" height="44" opacity="0.2"/></g><g transform="translate(10,10) scale(1,1)"><rect fill="#ff0000" stroke="none" x="368" y="416" width="68.22998046875" height="44"/></g><g transform="translate(10,10) scale(1,1)"><path fill="none" stroke="#000000" d="M 368 416 L 436.22998046875 416 L 436.22998046875 460 L 368 460 L 368 416 Z Z" stroke-miterlimit="10"/></g><g transform="translate(10,10) scale(1,1)"><path fill="none" stroke="#000000" d="M 368 441 L 436.22998046875 441" stroke-miterlimit="10"/></g><g transform="translate(10,10) scale(1,1)"><path fill="none" stroke="#000000" d="M 368 451 L 436.22998046875 451" stroke-miterlimit="10"/></g><g transform="translate(10,10) scale(1,1)"><g><path fill="none" stroke="none"/><text fill="#000000" stroke="none" font-family="Arial" font-size="13px" font-style="normal" font-weight="bold" text-decoration="none" x="374.299560546875" y="435.5">Fragment</text></g></g><g transform="translate(10,10) scale(1,1)"><path fill="none" stroke="#000000" d="M 573 373 L 437 425" stroke-miterlimit="10"/></g><g transform="translate(10,10) scale(1,1)"><path fill="#FFFFFF" stroke="none" d="M 452.97817718434214 409.87724053402394 L 437 425 L 458.9916832066932 425.60487166940374"/></g><g transform="translate(10,10) scale(1,1)"><path fill="none" stroke="#000000" d="M 452.97817718434214 409.87724053402394 L 437 425 L 458.9916832066932 425.60487166940374 L 452.97817718434214 409.87724053402394" stroke-miterlimit="10"/></g><g transform="translate(10,10) scale(1,1)"><path fill="none" stroke="#000000" d="M 161 583 L 367 459" stroke-miterlimit="10"/></g><g transform="translate(10,10) scale(1,1)"><path fill="#FFFFFF" stroke="none" d="M 353.9279439621144 476.6952352610068 L 367 459 L 345.2442396838113 462.26908137930974"/></g><g transform="translate(10,10) scale(1,1)"><path fill="none" stroke="#000000" d="M 353.9279439621144 476.6952352610068 L 367 459 L 345.2442396838113 462.26908137930974 L 353.9279439621144 476.6952352610068" stroke-miterlimit="10"/></g><g transform="translate(10,10) scale(1,1)"><rect fill="#C0C0C0" stroke="none" x="55" y="423" width="107.95361328125" height="44" opacity="0.2"/></g><g transform="translate(10,10) scale(1,1)"><rect fill="#f00000" stroke="none" x="48" y="416" width="107.95361328125" height="44"/></g><g transform="translate(10,10) scale(1,1)"><path fill="none" stroke="#000000" d="M 48 416 L 155.95361328125 416 L 155.95361328125 460 L 48 460 L 48 416 Z Z" stroke-miterlimit="10"/></g><g transform="translate(10,10) scale(1,1)"><path fill="none" stroke="#000000" d="M 48 441 L 155.95361328125 441" stroke-miterlimit="10"/></g><g transform="translate(10,10) scale(1,1)"><path fill="none" stroke="#000000" d="M 48 451 L 155.95361328125 451" stroke-miterlimit="10"/></g><g transform="translate(10,10) scale(1,1)"><g><path fill="none" stroke="none"/><text fill="#000000" stroke="none" font-family="Arial" font-size="13px" font-style="normal" font-weight="bold" text-decoration="none" x="55.734130859375" y="435.5">DialogFragment</text></g></g><g transform="translate(10,10) scale(1,1)"><path fill="none" stroke="#000000" d="M 157 438 L 367 438" stroke-miterlimit="10"/></g><g transform="translate(10,10) scale(1,1)"><path fill="#FFFFFF" stroke="none" d="M 346.6746502847517 446.419035512032 L 367 438 L 346.6746502847517 429.580964487968"/></g><g transform="translate(10,10) scale(1,1)"><path fill="none" stroke="#000000" d="M 346.6746502847517 446.419035512032 L 367 438 L 346.6746502847517 429.580964487968 L 346.6746502847517 446.419035512032" stroke-miterlimit="10"/></g><g transform="translate(10,10) scale(1,1)"><rect fill="#C0C0C0" stroke="none" x="343" y="527" width="157.0654296875" height="44" opacity="0.2"/></g><g transform="translate(10,10) scale(1,1)"><rect fill="#ffffff" stroke="none" x="336" y="520" width="157.0654296875" height="44"/></g><g transform="translate(10,10) scale(1,1)"><path fill="none" stroke="#000000" d="M 336 520 L 493.0654296875 520 L 493.0654296875 564 L 336 564 L 336 520 Z Z" stroke-miterlimit="10"/></g><g transform="translate(10,10) scale(1,1)"><path fill="none" stroke="#000000" d="M 336 545 L 493.0654296875 545" stroke-miterlimit="10"/></g><g transform="translate(10,10) scale(1,1)"><path fill="none" stroke="#000000" d="M 336 555 L 493.0654296875 555" stroke-miterlimit="10"/></g><g transform="translate(10,10) scale(1,1)"><g><path fill="none" stroke="none"/><text fill="#000000" stroke="none" font-family="Arial" font-size="13px" font-style="normal" font-weight="bold" text-decoration="none" x="348.767822265625" y="539.5">PendingLogsFragment</text></g></g><g transform="translate(10,10) scale(1,1)"><path fill="none" stroke="#000000" d="M 411 519 L 405 461" stroke-miterlimit="10"/></g><g transform="translate(10,10) scale(1,1)"><path fill="#FFFFFF" stroke="none" d="M 415.4658067669676 480.3511469612655 L 405 461 L 398.71711569546255 482.08377017555915"/></g><g transform="translate(10,10) scale(1,1)"><path fill="none" stroke="#000000" d="M 415.4658067669676 480.3511469612655 L 405 461 L 398.71711569546255 482.08377017555915 L 415.4658067669676 480.3511469612655" stroke-miterlimit="10"/></g><g transform="translate(10,10) scale(1,1)"><rect fill="#C0C0C0" stroke="none" x="47" y="647" width="117.392578125" height="57" opacity="0.2"/></g><g transform="translate(10,10) scale(1,1)"><rect fill="#ffffff" stroke="none" x="40" y="640" width="117.392578125" height="57"/></g><g transform="translate(10,10) scale(1,1)"><path fill="none" stroke="#000000" d="M 40 640 L 157.392578125 640 L 157.392578125 697 L 40 697 L 40 640 Z Z" stroke-miterlimit="10"/></g><g transform="translate(10,10) scale(1,1)"><path fill="none" stroke="#000000" d="M 40 678 L 157.392578125 678" stroke-miterlimit="10"/></g><g transform="translate(10,10) scale(1,1)"><path fill="none" stroke="#000000" d="M 40 688 L 157.392578125 688" stroke-miterlimit="10"/></g><g transform="translate(10,10) scale(1,1)"><g><path fill="none" stroke="none"/><text fill="#000000" stroke="none" font-family="Arial" font-size="13px" font-style="normal" font-weight="normal" text-decoration="none" x="66.535888671875" y="657.5">«interface»</text></g></g><g transform="translate(10,10) scale(1,1)"><g><path fill="none" stroke="none"/><text fill="#000000" stroke="none" font-family="Arial" font-size="13px" font-style="normal" font-weight="bold" text-decoration="none" x="47.75634765625" y="672.5">ServiceGenerator</text></g></g><g transform="translate(10,10) scale(1,1)"><g><path fill="none" stroke="none"/><text fill="#000000" stroke="none" font-family="Arial" font-size="13px" font-style="normal" font-weight="normal" text-decoration="none" x="693" y="26">CRMTAB</text></g></g><g transform="translate(10,10) scale(1,1)"><rect fill="#C0C0C0" stroke="none" x="167" y="319" width="85.57177734375" height="44" opacity="0.2"/></g><g transform="translate(10,10) scale(1,1)"><rect fill="#ffffff" stroke="none" x="160" y="312" width="85.57177734375" height="44"/></g><g transform="translate(10,10) scale(1,1)"><path fill="none" stroke="#000000" d="M 160 312 L 245.57177734375 312 L 245.57177734375 356 L 160 356 L 160 312 Z Z" stroke-miterlimit="10"/></g><g transform="translate(10,10) scale(1,1)"><path fill="none" stroke="#000000" d="M 160 337 L 245.57177734375 337" stroke-miterlimit="10"/></g><g transform="translate(10,10) scale(1,1)"><path fill="none" stroke="#000000" d="M 160 347 L 245.57177734375 347" stroke-miterlimit="10"/></g><g transform="translate(10,10) scale(1,1)"><g><path fill="none" stroke="none"/><text fill="#000000" stroke="none" font-family="Arial" font-size="13px" font-style="normal" font-weight="bold" text-decoration="none" x="168.11181640625" y="331.5">MainActivity</text></g></g><g transform="translate(10,10) scale(1,1)"><path fill="none" stroke="#000000" d="M 57 119 L 57 69" stroke-miterlimit="10"/></g><g transform="translate(10,10) scale(1,1)"><path fill="#FFFFFF" stroke="none" d="M 65.41903551203198 89.32534971524831 L 57 69 L 48.580964487968025 89.32534971524831"/></g><g transform="translate(10,10) scale(1,1)"><path fill="none" stroke="#000000" d="M 65.41903551203198 89.32534971524831 L 57 69 L 48.580964487968025 89.32534971524831 L 65.41903551203198 89.32534971524831" stroke-miterlimit="10"/></g><g transform="translate(10,10) scale(1,1)"><rect fill="#C0C0C0" stroke="none" x="599" y="631" width="224.28076171875" height="44" opacity="0.2"/></g><g transform="translate(10,10) scale(1,1)"><rect fill="#ffffff" stroke="none" x="592" y="624" width="224.28076171875" height="44"/></g><g transform="translate(10,10) scale(1,1)"><path fill="none" stroke="#000000" d="M 592 624 L 816.28076171875 624 L 816.28076171875 668 L 592 668 L 592 624 Z Z" stroke-miterlimit="10"/></g><g transform="translate(10,10) scale(1,1)"><path fill="none" stroke="#000000" d="M 592 649 L 816.28076171875 649" stroke-miterlimit="10"/></g><g transform="translate(10,10) scale(1,1)"><path fill="none" stroke="#000000" d="M 592 659 L 816.28076171875 659" stroke-miterlimit="10"/></g><g transform="translate(10,10) scale(1,1)"><g><path fill="none" stroke="none"/><text fill="#000000" stroke="none" font-family="Arial" font-size="13px" font-style="normal" font-weight="bold" text-decoration="none" x="604.0537109375" y="643.5">PendingLogsRecyclerViewAdapter</text></g></g><g transform="translate(10,10) scale(1,1)"><rect fill="#C0C0C0" stroke="none" x="631" y="431" width="189.6162109375" height="44" opacity="0.2"/></g><g transform="translate(10,10) scale(1,1)"><rect fill="#ffffff" stroke="none" x="624" y="424" width="189.6162109375" height="44"/></g><g transform="translate(10,10) scale(1,1)"><path fill="none" stroke="#000000" d="M 624 424 L 813.6162109375 424 L 813.6162109375 468 L 624 468 L 624 424 Z Z" stroke-miterlimit="10"/></g><g transform="translate(10,10) scale(1,1)"><path fill="none" stroke="#000000" d="M 624 449 L 813.6162109375 449" stroke-miterlimit="10"/></g><g transform="translate(10,10) scale(1,1)"><path fill="none" stroke="#000000" d="M 624 459 L 813.6162109375 459" stroke-miterlimit="10"/></g><g transform="translate(10,10) scale(1,1)"><g><path fill="none" stroke="none"/><text fill="#000000" stroke="none" font-family="Arial" font-size="13px" font-style="normal" font-weight="bold" text-decoration="none" x="634.628662109375" y="443.5">CallLogRecyclerViewAdapter</text></g></g><g transform="translate(10,10) scale(1,1)"><path fill="none" stroke="#000000" d="M 653 373 L 698 423" stroke-miterlimit="10"/></g><g transform="translate(10,10) scale(1,1)"><path fill="none" stroke="#000000" d="M 688.0726190347331 418.2621621840279 L 698 423 L 694.3304388478734 412.63012435220156" stroke-miterlimit="10"/></g><g transform="translate(10,10) scale(1,1)"><rect fill="#C0C0C0" stroke="none" x="23" y="815" width="92.7890625" height="44" opacity="0.2"/></g><g transform="translate(10,10) scale(1,1)"><rect fill="#ffffff" stroke="none" x="16" y="808" width="92.7890625" height="44"/></g><g transform="translate(10,10) scale(1,1)"><path fill="none" stroke="#000000" d="M 16 808 L 108.7890625 808 L 108.7890625 852 L 16 852 L 16 808 Z Z" stroke-miterlimit="10"/></g><g transform="translate(10,10) scale(1,1)"><path fill="none" stroke="#000000" d="M 16 833 L 108.7890625 833" stroke-miterlimit="10"/></g><g transform="translate(10,10) scale(1,1)"><path fill="none" stroke="#000000" d="M 16 843 L 108.7890625 843" stroke-miterlimit="10"/></g><g transform="translate(10,10) scale(1,1)"><g><path fill="none" stroke="none"/><text fill="#000000" stroke="none" font-family="Arial" font-size="13px" font-style="normal" font-weight="bold" text-decoration="none" x="23.74365234375" y="827.5">ControllerCra</text></g></g><g transform="translate(10,10) scale(1,1)"><path fill="none" stroke="#000000" d="M 67 807 L 91 698" stroke-miterlimit="10" stroke-dasharray="3"/></g><g transform="translate(10,10) scale(1,1)"><path fill="none" stroke="#000000" d="M 92.92573645068218 708.8301218424593 L 91 698 L 84.70364870717596 707.019753898935" stroke-miterlimit="10"/></g><g transform="translate(10,10) scale(1,1)"><path fill="none" stroke="#000000" d="M 110 811 L 359 712" stroke-miterlimit="10" stroke-dasharray="3"/></g><g transform="translate(10,10) scale(1,1)"><path fill="none" stroke="#000000" d="M 351.1116134941855 719.6663784367121 L 359 712 L 348.0011202293767 711.8430165888595" stroke-miterlimit="10"/></g><g transform="translate(10,10) scale(1,1)"><path fill="none" stroke="#000000" d="M 186 629 L 359 692" stroke-miterlimit="10" stroke-dasharray="3"/></g><g transform="translate(10,10) scale(1,1)"><path fill="none" stroke="#000000" d="M 348.01038854015206 692.4779539324866 L 359 692 L 350.8912067473801 684.5671356808922" stroke-miterlimit="10"/></g><g transform="translate(10,10) scale(1,1)"><path fill="none" stroke="#000000" d="M 713 541 L 412 689" stroke-miterlimit="10" stroke-dasharray="3"/></g><g transform="translate(10,10) scale(1,1)"><path fill="none" stroke="#000000" d="M 419.2624577255048 680.7382382154134 L 412 689 L 422.9772808882141 688.293385323356" stroke-miterlimit="10"/></g><g transform="translate(10,10) scale(1,1)"><path fill="none" stroke="#000000" d="M 410 565 L 389 679" stroke-miterlimit="10" stroke-dasharray="3"/></g><g transform="translate(10,10) scale(1,1)"><path fill="none" stroke="#000000" d="M 386.70123120761514 668.2428785430694 L 389 679 L 394.9809585267676 669.7680914702817" stroke-miterlimit="10"/></g><g transform="translate(10,10) scale(1,1)"><rect fill="#C0C0C0" stroke="none" x="535" y="55" width="198.96630859375" height="44" opacity="0.2"/></g><g transform="translate(10,10) scale(1,1)"><rect fill="#ffffff" stroke="none" x="528" y="48" width="198.96630859375" height="44"/></g><g transform="translate(10,10) scale(1,1)"><path fill="none" stroke="#000000" d="M 528 48 L 726.96630859375 48 L 726.96630859375 92 L 528 92 L 528 48 Z Z" stroke-miterlimit="10"/></g><g transform="translate(10,10) scale(1,1)"><path fill="none" stroke="#000000" d="M 528 73 L 726.96630859375 73" stroke-miterlimit="10"/></g><g transform="translate(10,10) scale(1,1)"><path fill="none" stroke="#000000" d="M 528 83 L 726.96630859375 83" stroke-miterlimit="10"/></g><g transform="translate(10,10) scale(1,1)"><g><path fill="none" stroke="none"/><text fill="#000000" stroke="none" font-family="Arial" font-size="13px" font-style="normal" font-weight="bold" text-decoration="none" x="539.32373046875" y="67.5">DisplayAddLogFragmentEvent</text></g></g><g transform="translate(10,10) scale(1,1)"><rect fill="#C0C0C0" stroke="none" x="535" y="111" width="191.75537109375" height="44" opacity="0.2"/></g><g transform="translate(10,10) scale(1,1)"><rect fill="#ffffff" stroke="none" x="528" y="104" width="191.75537109375" height="44"/></g><g transform="translate(10,10) scale(1,1)"><path fill="none" stroke="#000000" d="M 528 104 L 719.75537109375 104 L 719.75537109375 148 L 528 148 L 528 104 Z Z" stroke-miterlimit="10"/></g><g transform="translate(10,10) scale(1,1)"><path fill="none" stroke="#000000" d="M 528 129 L 719.75537109375 129" stroke-miterlimit="10"/></g><g transform="translate(10,10) scale(1,1)"><path fill="none" stroke="#000000" d="M 528 139 L 719.75537109375 139" stroke-miterlimit="10"/></g><g transform="translate(10,10) scale(1,1)"><g><path fill="none" stroke="none"/><text fill="#000000" stroke="none" font-family="Arial" font-size="13px" font-style="normal" font-weight="bold" text-decoration="none" x="538.254150390625" y="123.5">DisplayPopUpFragmentEvent</text></g></g><g transform="translate(10,10) scale(1,1)"><rect fill="#C0C0C0" stroke="none" x="535" y="167" width="119.5" height="44" opacity="0.2"/></g><g transform="translate(10,10) scale(1,1)"><rect fill="#ffffff" stroke="none" x="528" y="160" width="119.5" height="44"/></g><g transform="translate(10,10) scale(1,1)"><path fill="none" stroke="#000000" d="M 528 160 L 647.5 160 L 647.5 204 L 528 204 L 528 160 Z Z" stroke-miterlimit="10"/></g><g transform="translate(10,10) scale(1,1)"><path fill="none" stroke="#000000" d="M 528 185 L 647.5 185" stroke-miterlimit="10"/></g><g transform="translate(10,10) scale(1,1)"><path fill="none" stroke="#000000" d="M 528 195 L 647.5 195" stroke-miterlimit="10"/></g><g transform="translate(10,10) scale(1,1)"><g><path fill="none" stroke="none"/><text fill="#000000" stroke="none" font-family="Arial" font-size="13px" font-style="normal" font-weight="bold" text-decoration="none" x="536.42919921875" y="179.5">PendingLogEvent</text></g></g><g transform="translate(10,10) scale(1,1)"><rect fill="#C0C0C0" stroke="none" x="559" y="271" width="175.84814453125" height="44" opacity="0.2"/></g><g transform="translate(10,10) scale(1,1)"><rect fill="#ffffff" stroke="none" x="552" y="264" width="175.84814453125" height="44"/></g><g transform="translate(10,10) scale(1,1)"><path fill="none" stroke="#000000" d="M 552 264 L 727.84814453125 264 L 727.84814453125 308 L 552 308 L 552 264 Z Z" stroke-miterlimit="10"/></g><g transform="translate(10,10) scale(1,1)"><path fill="none" stroke="#000000" d="M 552 289 L 727.84814453125 289" stroke-miterlimit="10"/></g><g transform="translate(10,10) scale(1,1)"><path fill="none" stroke="#000000" d="M 552 299 L 727.84814453125 299" stroke-miterlimit="10"/></g><g transform="translate(10,10) scale(1,1)"><g><path fill="none" stroke="none"/><text fill="#000000" stroke="none" font-family="Arial" font-size="13px" font-style="normal" font-weight="bold" text-decoration="none" x="562.971435546875" y="283.5">OnListFragmentInteraction</text></g></g><g transform="translate(10,10) scale(1,1)"><rect fill="#C0C0C0" stroke="none" x="439" y="215" width="136.8544921875" height="44" opacity="0.2"/></g><g transform="translate(10,10) scale(1,1)"><rect fill="#ffffff" stroke="none" x="432" y="208" width="136.8544921875" height="44"/></g><g transform="translate(10,10) scale(1,1)"><path fill="none" stroke="#000000" d="M 432 208 L 568.8544921875 208 L 568.8544921875 252 L 432 252 L 432 208 Z Z" stroke-miterlimit="10"/></g><g transform="translate(10,10) scale(1,1)"><path fill="none" stroke="#000000" d="M 432 233 L 568.8544921875 233" stroke-miterlimit="10"/></g><g transform="translate(10,10) scale(1,1)"><path fill="none" stroke="#000000" d="M 432 243 L 568.8544921875 243" stroke-miterlimit="10"/></g><g transform="translate(10,10) scale(1,1)"><g><path fill="none" stroke="none"/><text fill="#000000" stroke="none" font-family="Arial" font-size="13px" font-style="normal" font-weight="bold" text-decoration="none" x="439.727783203125" y="227.5">CallEndedEventDAO</text></g></g><g transform="translate(10,10) scale(1,1)"><rect fill="#C0C0C0" stroke="none" x="375" y="151" width="107.96630859375" height="44" opacity="0.2"/></g><g transform="translate(10,10) scale(1,1)"><rect fill="#ffffff" stroke="none" x="368" y="144" width="107.96630859375" height="44"/></g><g transform="translate(10,10) scale(1,1)"><path fill="none" stroke="#000000" d="M 368 144 L 475.96630859375 144 L 475.96630859375 188 L 368 188 L 368 144 Z Z" stroke-miterlimit="10"/></g><g transform="translate(10,10) scale(1,1)"><path fill="none" stroke="#000000" d="M 368 169 L 475.96630859375 169" stroke-miterlimit="10"/></g><g transform="translate(10,10) scale(1,1)"><path fill="none" stroke="#000000" d="M 368 179 L 475.96630859375 179" stroke-miterlimit="10"/></g><g transform="translate(10,10) scale(1,1)"><g><path fill="none" stroke="none"/><text fill="#000000" stroke="none" font-family="Arial" font-size="13px" font-style="normal" font-weight="bold" text-decoration="none" x="375.369140625" y="163.5">CallEndedEvent</text></g></g><g transform="translate(10,10) scale(1,1)"><path fill="none" stroke="#000000" d="M 472 207 L 449 189" stroke-miterlimit="10" stroke-dasharray="3"/></g><g transform="translate(10,10) scale(1,1)"><path fill="none" stroke="#000000" d="M 459.59751784462225 191.94832419060612 L 449 189 L 454.4087967033639 198.57835675999175" stroke-miterlimit="10"/></g><g transform="translate(10,10) scale(1,1)"><rect fill="#C0C0C0" stroke="none" x="295" y="199" width="54.4873046875" height="44" opacity="0.2"/></g><g transform="translate(10,10) scale(1,1)"><rect fill="#ffffff" stroke="none" x="288" y="192" width="54.4873046875" height="44"/></g><g transform="translate(10,10) scale(1,1)"><path fill="none" stroke="#000000" d="M 288 192 L 342.4873046875 192 L 342.4873046875 236 L 288 236 L 288 192 Z Z" stroke-miterlimit="10"/></g><g transform="translate(10,10) scale(1,1)"><path fill="none" stroke="#000000" d="M 288 217 L 342.4873046875 217" stroke-miterlimit="10"/></g><g transform="translate(10,10) scale(1,1)"><path fill="none" stroke="#000000" d="M 288 227 L 342.4873046875 227" stroke-miterlimit="10"/></g><g transform="translate(10,10) scale(1,1)"><g><path fill="none" stroke="none"/><text fill="#000000" stroke="none" font-family="Arial" font-size="13px" font-style="normal" font-weight="bold" text-decoration="none" x="294.2900390625" y="211.5">dbFlow</text></g></g><g transform="translate(10,10) scale(1,1)"><path fill="none" stroke="#000000" d="M 431 224 L 343 216" stroke-miterlimit="10" stroke-dasharray="3"/></g><g transform="translate(10,10) scale(1,1)"><path fill="none" stroke="#000000" d="M 353.50205068076815 212.72785521430106 L 343 216 L 352.7398270197279 221.11231548574403" stroke-miterlimit="10"/></g><g transform="translate(10,10) scale(1,1)"><path fill="none" stroke="#000000" d="M 195 357 L 130 583" stroke-miterlimit="10" stroke-dasharray="3"/></g><g transform="translate(10,10) scale(1,1)"><path fill="none" stroke="#000000" d="M 128.76350097304862 572.069717745806 L 130 583 L 136.85453985533567 574.3967864508886" stroke-miterlimit="10"/></g><g transform="translate(10,10) scale(1,1)"><path fill="none" stroke="#000000" d="M 225 357 L 391 519" stroke-miterlimit="10" stroke-dasharray="3"/></g><g transform="translate(10,10) scale(1,1)"><path fill="none" stroke="#000000" d="M 380.7867489941989 514.9147210753117 L 391 519 L 386.6668693865233 508.8894125251521" stroke-miterlimit="10"/></g><g transform="translate(10,10) scale(1,1)"><path fill="none" stroke="#000000" d="M 247 349 L 703 499" stroke-miterlimit="10" stroke-dasharray="3"/></g><g transform="translate(10,10) scale(1,1)"><path fill="none" stroke="#000000" d="M 692.0308415185358 499.82314166977653 L 703 499 L 694.6615845972706 491.82568271042294" stroke-miterlimit="10"/></g><g transform="translate(10,10) scale(1,1)"><path fill="none" stroke="#000000" d="M 159 321 L 126 311" stroke-miterlimit="10" stroke-dasharray="3"/></g><g transform="translate(10,10) scale(1,1)"><path fill="none" stroke="#000000" d="M 136.94671913288798 309.91863964116294 L 126 311 L 134.50513657324962 317.97586208796963" stroke-miterlimit="10"/></g><g transform="translate(10,10) scale(1,1)"><rect fill="#C0C0C0" stroke="none" x="207" y="687" width="55.21728515625" height="44" opacity="0.2"/></g><g transform="translate(10,10) scale(1,1)"><rect fill="#ffffff" stroke="none" x="200" y="680" width="55.21728515625" height="44"/></g><g transform="translate(10,10) scale(1,1)"><path fill="none" stroke="#000000" d="M 200 680 L 255.21728515625 680 L 255.21728515625 724 L 200 724 L 200 680 Z Z" stroke-miterlimit="10"/></g><g transform="translate(10,10) scale(1,1)"><path fill="none" stroke="#000000" d="M 200 705 L 255.21728515625 705" stroke-miterlimit="10"/></g><g transform="translate(10,10) scale(1,1)"><path fill="none" stroke="#000000" d="M 200 715 L 255.21728515625 715" stroke-miterlimit="10"/></g><g transform="translate(10,10) scale(1,1)"><g><path fill="none" stroke="none"/><text fill="#000000" stroke="none" font-family="Arial" font-size="13px" font-style="normal" font-weight="bold" text-decoration="none" x="206.658203125" y="699.5">Retrofit</text></g></g><g transform="translate(10,10) scale(1,1)"><rect fill="#C0C0C0" stroke="none" x="471" y="735" width="50.919921875" height="44" opacity="0.2"/></g><g transform="translate(10,10) scale(1,1)"><rect fill="#ffffff" stroke="none" x="464" y="728" width="50.919921875" height="44"/></g><g transform="translate(10,10) scale(1,1)"><path fill="none" stroke="#000000" d="M 464 728 L 514.919921875 728 L 514.919921875 772 L 464 772 L 464 728 Z Z" stroke-miterlimit="10"/></g><g transform="translate(10,10) scale(1,1)"><path fill="none" stroke="#000000" d="M 464 753 L 514.919921875 753" stroke-miterlimit="10"/></g><g transform="translate(10,10) scale(1,1)"><path fill="none" stroke="#000000" d="M 464 763 L 514.919921875 763" stroke-miterlimit="10"/></g><g transform="translate(10,10) scale(1,1)"><g><path fill="none" stroke="none"/><text fill="#000000" stroke="none" font-family="Arial" font-size="13px" font-style="normal" font-weight="bold" text-decoration="none" x="475.364990234375" y="747.5">gson</text></g></g><g transform="translate(10,10) scale(1,1)"><rect fill="#C0C0C0" stroke="none" x="319" y="807" width="50.919921875" height="44" opacity="0.2"/></g><g transform="translate(10,10) scale(1,1)"><rect fill="#ffffff" stroke="none" x="312" y="800" width="50.919921875" height="44"/></g><g transform="translate(10,10) scale(1,1)"><path fill="none" stroke="#000000" d="M 312 800 L 362.919921875 800 L 362.919921875 844 L 312 844 L 312 800 Z Z" stroke-miterlimit="10"/></g><g transform="translate(10,10) scale(1,1)"><path fill="none" stroke="#000000" d="M 312 825 L 362.919921875 825" stroke-miterlimit="10"/></g><g transform="translate(10,10) scale(1,1)"><path fill="none" stroke="#000000" d="M 312 835 L 362.919921875 835" stroke-miterlimit="10"/></g><g transform="translate(10,10) scale(1,1)"><g><path fill="none" stroke="none"/><text fill="#000000" stroke="none" font-family="Arial" font-size="13px" font-style="normal" font-weight="bold" text-decoration="none" x="319.753173828125" y="819.5">okhttp</text></g></g><g transform="translate(10,10) scale(1,1)"><rect fill="#C0C0C0" stroke="none" x="167" y="223" width="55.9599609375" height="44" opacity="0.2"/></g><g transform="translate(10,10) scale(1,1)"><rect fill="#ff0000" stroke="none" x="160" y="216" width="55.9599609375" height="44"/></g><g transform="translate(10,10) scale(1,1)"><path fill="none" stroke="#000000" d="M 160 216 L 215.9599609375 216 L 215.9599609375 260 L 160 260 L 160 216 Z Z" stroke-miterlimit="10"/></g><g transform="translate(10,10) scale(1,1)"><path fill="none" stroke="#000000" d="M 160 241 L 215.9599609375 241" stroke-miterlimit="10"/></g><g transform="translate(10,10) scale(1,1)"><path fill="none" stroke="#000000" d="M 160 251 L 215.9599609375 251" stroke-miterlimit="10"/></g><g transform="translate(10,10) scale(1,1)"><g><path fill="none" stroke="none"/><text fill="#000000" stroke="none" font-family="Arial" font-size="13px" font-style="normal" font-weight="bold" text-decoration="none" x="167.39453125" y="235.5">Activity</text></g></g><g transform="translate(10,10) scale(1,1)"><path fill="none" stroke="#000000" d="M 198 311 L 191 261" stroke-miterlimit="10"/></g><g transform="translate(10,10) scale(1,1)"><path fill="#FFFFFF" stroke="none" d="M 202.15578826172614 279.96176121196373 L 191 261 L 185.48034359312823 282.29632346556747"/></g><g transform="translate(10,10) scale(1,1)"><path fill="none" stroke="#000000" d="M 202.15578826172614 279.96176121196373 L 191 261 L 185.48034359312823 282.29632346556747 L 202.15578826172614 279.96176121196373" stroke-miterlimit="10"/></g><g transform="translate(10,10) scale(1,1)"><path fill="none" stroke="#000000" d="M 158 684 L 199 695" stroke-miterlimit="10" stroke-dasharray="3"/></g><g transform="translate(10,10) scale(1,1)"><path fill="none" stroke="#000000" d="M 188.0936469815832 696.4322932093921 L 199 695 L 190.27525958165452 688.3008280636717" stroke-miterlimit="10"/></g><g transform="translate(10,10) scale(1,1)"><path fill="none" stroke="#000000" d="M 110 829 L 311 823" stroke-miterlimit="10" stroke-dasharray="3"/></g><g transform="translate(10,10) scale(1,1)"><path fill="none" stroke="#000000" d="M 300.96745123036845 827.5108718874476 L 311 823 L 300.7162486317308 819.0955848330867" stroke-miterlimit="10"/></g><g transform="translate(10,10) scale(1,1)"><path fill="none" stroke="#000000" d="M 110 821 L 463 755" stroke-miterlimit="10" stroke-dasharray="3"/></g><g transform="translate(10,10) scale(1,1)"><path fill="none" stroke="#000000" d="M 453.7840723065709 761.005553825376 L 463 755 L 452.2367871983473 752.7299228677555" stroke-miterlimit="10"/></g><g transform="translate(10,10) scale(1,1)"><path fill="none" stroke="#000000" d="M 412 714 L 463 738" stroke-miterlimit="10" stroke-dasharray="3"/></g><g transform="translate(10,10) scale(1,1)"><path fill="none" stroke="#000000" d="M 452.0122215395442 737.4816135573299 L 463 738 L 455.5970219093235 729.863912771549" stroke-miterlimit="10"/></g><g transform="translate(10,10) scale(1,1)"><rect fill="#C0C0C0" stroke="none" x="311" y="279" width="76.1708984375" height="44" opacity="0.2"/></g><g transform="translate(10,10) scale(1,1)"><rect fill="#ffffff" stroke="none" x="304" y="272" width="76.1708984375" height="44"/></g><g transform="translate(10,10) scale(1,1)"><path fill="none" stroke="#000000" d="M 304 272 L 380.1708984375 272 L 380.1708984375 316 L 304 316 L 304 272 Z Z" stroke-miterlimit="10"/></g><g transform="translate(10,10) scale(1,1)"><path fill="none" stroke="#000000" d="M 304 297 L 380.1708984375 297" stroke-miterlimit="10"/></g><g transform="translate(10,10) scale(1,1)"><path fill="none" stroke="#000000" d="M 304 307 L 380.1708984375 307" stroke-miterlimit="10"/></g><g transform="translate(10,10) scale(1,1)"><g><path fill="none" stroke="none"/><text fill="#000000" stroke="none" font-family="Arial" font-size="13px" font-style="normal" font-weight="bold" text-decoration="none" x="311.734130859375" y="291.5">butterknife</text></g></g><g transform="translate(10,10) scale(1,1)"><path fill="none" stroke="#000000" d="M 247 321 L 303 305" stroke-miterlimit="10" stroke-dasharray="3"/></g><g transform="translate(10,10) scale(1,1)"><path fill="none" stroke="#000000" d="M 294.38478821814385 311.8394536297695 L 303 305 L 292.07190128647034 303.7443493689122" stroke-miterlimit="10"/></g><g transform="translate(10,10) scale(1,1)"><path fill="none" stroke="#000000" d="M 717 495 L 381 315" stroke-miterlimit="10" stroke-dasharray="3"/></g><g transform="translate(10,10) scale(1,1)"><path fill="none" stroke="#000000" d="M 391.9460187496654 316.08842709079363 L 381 315 L 387.9703699081562 323.5096382616108" stroke-miterlimit="10"/></g><g transform="translate(10,10) scale(1,1)"><path fill="none" stroke="#000000" d="M 551 334 L 381 302" stroke-miterlimit="10" stroke-dasharray="3"/></g><g transform="translate(10,10) scale(1,1)"><path fill="none" stroke="#000000" d="M 391.76598195526515 299.74309226176484 L 381 302 L 390.2085736129185 308.0168240804815" stroke-miterlimit="10"/></g><g transform="translate(10,10) scale(1,1)"><path fill="none" stroke="#000000" d="M 551 347 L 247 336" stroke-miterlimit="10" stroke-dasharray="3"/></g><g transform="translate(10,10) scale(1,1)"><path fill="none" stroke="#000000" d="M 257.3082468629351 332.16072316538794 L 247 336 L 257.003809943533 340.57425257431976" stroke-miterlimit="10"/></g><g transform="translate(10,10) scale(1,1)"><rect fill="#C0C0C0" stroke="none" x="631" y="735" width="72.55908203125" height="44" opacity="0.2"/></g><g transform="translate(10,10) scale(1,1)"><rect fill="#ffffff" stroke="none" x="624" y="728" width="72.55908203125" height="44"/></g><g transform="translate(10,10) scale(1,1)"><path fill="none" stroke="#000000" d="M 624 728 L 696.55908203125 728 L 696.55908203125 772 L 624 772 L 624 728 Z Z" stroke-miterlimit="10"/></g><g transform="translate(10,10) scale(1,1)"><path fill="none" stroke="#000000" d="M 624 753 L 696.55908203125 753" stroke-miterlimit="10"/></g><g transform="translate(10,10) scale(1,1)"><path fill="none" stroke="#000000" d="M 624 763 L 696.55908203125 763" stroke-miterlimit="10"/></g><g transform="translate(10,10) scale(1,1)"><g><path fill="none" stroke="none"/><text fill="#000000" stroke="none" font-family="Arial" font-size="13px" font-style="normal" font-weight="bold" text-decoration="none" x="631.013671875" y="747.5">Constants</text></g></g><g transform="translate(10,10) scale(1,1)"><path fill="none" stroke="#000000" d="M 694 669 L 670 727" stroke-miterlimit="10" stroke-dasharray="3"/></g><g transform="translate(10,10) scale(1,1)"><path fill="none" stroke="#000000" d="M 669.9960516877695 716.0000007085987 L 670 727 L 677.7753822136447 719.2190340296504" stroke-miterlimit="10"/></g><g transform="translate(10,10) scale(1,1)"><path fill="none" stroke="#000000" d="M 578 93 L 470 143" stroke-miterlimit="10" stroke-dasharray="3"/></g><g transform="translate(10,10) scale(1,1)"><path fill="none" stroke="#000000" d="M 477.45377350142854 134.91042271874474 L 470 143 L 480.990808740797 142.5504188357805" stroke-miterlimit="10"/></g><g transform="translate(10,10) scale(1,1)"><path fill="none" stroke="#000000" d="M 527 145 L 477 155" stroke-miterlimit="10" stroke-dasharray="3"/></g><g transform="translate(10,10) scale(1,1)"><path fill="none" stroke="#000000" d="M 486.1397682256108 148.87916371872967 L 477 155 L 487.79087693182163 157.13470724978384" stroke-miterlimit="10"/></g><g transform="translate(10,10) scale(1,1)"><rect fill="#C0C0C0" stroke="none" x="247" y="135" width="50.919921875" height="44" opacity="0.2"/></g><g transform="translate(10,10) scale(1,1)"><rect fill="#ffffff" stroke="none" x="240" y="128" width="50.919921875" height="44"/></g><g transform="translate(10,10) scale(1,1)"><path fill="none" stroke="#000000" d="M 240 128 L 290.919921875 128 L 290.919921875 172 L 240 172 L 240 128 Z Z" stroke-miterlimit="10"/></g><g transform="translate(10,10) scale(1,1)"><path fill="none" stroke="#000000" d="M 240 153 L 290.919921875 153" stroke-miterlimit="10"/></g><g transform="translate(10,10) scale(1,1)"><path fill="none" stroke="#000000" d="M 240 163 L 290.919921875 163" stroke-miterlimit="10"/></g><g transform="translate(10,10) scale(1,1)"><g><path fill="none" stroke="none"/><text fill="#000000" stroke="none" font-family="Arial" font-size="13px" font-style="normal" font-weight="bold" text-decoration="none" x="254.6181640625" y="147.5">otto</text></g></g><g transform="translate(10,10) scale(1,1)"><path fill="none" stroke="#000000" d="M 301 69 L 275 127" stroke-miterlimit="10" stroke-dasharray="3"/></g><g transform="translate(10,10) scale(1,1)"><path fill="none" stroke="#000000" d="M 275.3158779478119 116.00453633892204 L 275 127 L 282.99832635596357 119.44839252188657" stroke-miterlimit="10"/></g><g transform="translate(10,10) scale(1,1)"><path fill="none" stroke="#000000" d="M 100 144 L 239 149" stroke-miterlimit="10" stroke-dasharray="3"/></g><g transform="translate(10,10) scale(1,1)"><path fill="none" stroke="#000000" d="M 228.69257002529164 152.84146942152137 L 239 149 L 228.99521729059973 144.42787544595674" stroke-miterlimit="10"/></g><g transform="translate(10,10) scale(1,1)"><path fill="none" stroke="#000000" d="M 210 311 L 257 173" stroke-miterlimit="10" stroke-dasharray="3"/></g><g transform="translate(10,10) scale(1,1)"><path fill="none" stroke="#000000" d="M 257.7083607971311 183.97716834985636 L 257 173 L 249.73885654476834 181.26291690158786" stroke-miterlimit="10"/></g><g transform="translate(10,10) scale(1,1)"><path fill="none" stroke="#000000" d="M 92 807 L 199 724" stroke-miterlimit="10" stroke-dasharray="3"/></g><g transform="translate(10,10) scale(1,1)"><path fill="none" stroke="#000000" d="M 193.5500824502425 733.555019555231 L 199 724 L 188.38990722178505 726.9027454655328" stroke-miterlimit="10"/></g><g transform="translate(10,10) scale(1,1)"><path fill="none" stroke="#000000" d="M 478 565 L 640 623" stroke-miterlimit="10" stroke-dasharray="3"/></g><g transform="translate(10,10) scale(1,1)"><path fill="none" stroke="#000000" d="M 629.0131454218391 623.5376118286881 L 640 623 L 631.8509716541605 615.6112695935834" stroke-miterlimit="10"/></g></g></svg>