<svg version="1.1" xmlns="http://www.w3.org/2000/svg" xmlns:xlink="http://www.w3.org/1999/xlink" width="767" height="663"><defs/><g><g transform="translate(2,2) scale(1,1)"><path fill="none" stroke="#000000" d="M 8 8 L 755 8 L 755 651 L 8 651 L 8 8" stroke-miterlimit="10"/></g><g transform="translate(2,2) scale(1,1)"><path fill="#ffffff" stroke="none" d="M 8 8 L 8 30 L 226.6298828125 30 L 237.6298828125 19 L 237.6298828125 8 L 8 8"/></g><g transform="translate(2,2) scale(1,1)"><path fill="none" stroke="#000000" d="M 8 8 L 8 30 L 226.6298828125 30 L 237.6298828125 19 L 237.6298828125 8 L 8 8 L 8 8" stroke-miterlimit="10"/></g><g transform="translate(2,2) scale(1,1)"><g><path fill="none" stroke="none"/><text fill="#000000" stroke="none" font-family="Arial" font-size="13px" font-style="normal" font-weight="normal" text-decoration="none" x="78.97900390625" y="25.5">show a user's call log list</text></g></g><g transform="translate(2,2) scale(1,1)"><g><path fill="none" stroke="none"/><text fill="#000000" stroke="none" font-family="Arial" font-size="13px" font-style="normal" font-weight="bold" text-decoration="none" x="13" y="25.5">interaction</text></g></g><g transform="translate(2,2) scale(1,1)"><path fill="#ffffff" stroke="none" d="M 136.9981551846591 47.3 C 136.9981551846591 43.82060576 139.8765569068409 41 143.42724609375 41 C 146.9779352806591 41 149.85633700284092 43.82060576 149.85633700284092 47.3 C 149.85633700284092 50.779394239999995 146.9779352806591 53.6 143.42724609375 53.6 C 139.8765569068409 53.6 136.9981551846591 50.779394239999995 136.9981551846591 47.3 Z"/></g><g transform="translate(2,2) scale(1,1)"><path fill="none" stroke="#000000" d="M 136.9981551846591 47.3 C 136.9981551846591 43.82060576 139.8765569068409 41 143.42724609375 41 C 146.9779352806591 41 149.85633700284092 43.82060576 149.85633700284092 47.3 C 149.85633700284092 50.779394239999995 146.9779352806591 53.6 143.42724609375 53.6 C 139.8765569068409 53.6 136.9981551846591 50.779394239999995 136.9981551846591 47.3 Z" stroke-miterlimit="10"/></g><g transform="translate(2,2) scale(1,1)"><path fill="none" stroke="#000000" d="M 143.42724609375 53.6 L 143.42724609375 66.4" stroke-miterlimit="10"/></g><g transform="translate(2,2) scale(1,1)"><path fill="none" stroke="#000000" d="M 136.6199733664773 58.4 L 150.23451882102273 58.4" stroke-miterlimit="10"/></g><g transform="translate(2,2) scale(1,1)"><path fill="none" stroke="#000000" d="M 143.42724609375 66.4 L 133.97270063920456 79" stroke-miterlimit="10"/></g><g transform="translate(2,2) scale(1,1)"><path fill="none" stroke="#000000" d="M 143.42724609375 66.4 L 152.88179154829547 79" stroke-miterlimit="10"/></g><g transform="translate(2,2) scale(1,1)"><g><path fill="none" stroke="none"/><text fill="#000000" stroke="none" font-family="Arial" font-size="13px" font-style="normal" font-weight="bold" text-decoration="none" x="112.3681640625" y="99.5">User: User</text></g></g><g transform="translate(2,2) scale(1,1)"><path fill="none" stroke="#000000" d="M 144.5 105 L 144.5 262" stroke-miterlimit="10" stroke-dasharray="3"/></g><g transform="translate(2,2) scale(1,1)"><rect fill="#C0C0C0" stroke="none" x="335" y="47" width="71.736328125" height="39" opacity="0.2"/></g><g transform="translate(2,2) scale(1,1)"><rect fill="#ffffff" stroke="none" x="328" y="40" width="71.736328125" height="39"/></g><g transform="translate(2,2) scale(1,1)"><path fill="none" stroke="#000000" d="M 328 40 L 399.736328125 40 L 399.736328125 79 L 328 79 L 328 40 Z Z" stroke-miterlimit="10"/></g><g transform="translate(2,2) scale(1,1)"><g><path fill="none" stroke="none"/><text fill="#000000" stroke="none" font-family="Arial" font-size="13px" font-style="normal" font-weight="bold" text-decoration="none" x="341.838623046875" y="59.5">crm-tab</text></g></g><g transform="translate(2,2) scale(1,1)"><path fill="none" stroke="#000000" d="M 364.5 80 L 364.5 278" stroke-miterlimit="10" stroke-dasharray="3"/></g><g transform="translate(2,2) scale(1,1)"><path fill="none" stroke="#000000" d="M 144 136 L 357 136" stroke-miterlimit="10"/></g><g transform="translate(2,2) scale(1,1)"><path fill="#000000" stroke="none" d="M 346.83732514237585 140.209517756016 L 357 136 L 346.83732514237585 131.790482243984"/></g><g transform="translate(2,2) scale(1,1)"><path fill="none" stroke="#000000" d="M 346.83732514237585 140.209517756016 L 357 136 L 346.83732514237585 131.790482243984 L 346.83732514237585 140.209517756016" stroke-miterlimit="10"/></g><g transform="translate(2,2) scale(1,1)"><g><path fill="none" stroke="none"/><text fill="#000000" stroke="none" font-family="Arial" font-size="13px" font-style="normal" font-weight="normal" text-decoration="none" x="157" y="133">1 : press button show call log list</text></g></g><g transform="translate(2,2) scale(1,1)"><rect fill="#ffffff" stroke="none" x="357" y="136" width="13" height="28"/></g><g transform="translate(2,2) scale(1,1)"><path fill="none" stroke="#000000" d="M 357 136 L 370 136 L 370 164 L 357 164 L 357 136 Z Z" stroke-miterlimit="10"/></g><g transform="translate(2,2) scale(1,1)"><path fill="none" stroke="#000000" d="M 364 216 L 144 216" stroke-miterlimit="10" stroke-dasharray="3"/></g><g transform="translate(2,2) scale(1,1)"><path fill="none" stroke="#000000" d="M 154.16267485762415 211.790482243984 L 144 216 L 154.16267485762415 220.209517756016" stroke-miterlimit="10"/></g><g transform="translate(2,2) scale(1,1)"><g><path fill="none" stroke="none"/><text fill="#000000" stroke="none" font-family="Arial" font-size="13px" font-style="normal" font-weight="normal" text-decoration="none" x="198" y="233">3 : show call log list</text></g></g><g transform="translate(2,2) scale(1,1)"><path fill="none" stroke="#000000" d="M 370 152 L 400 152 L 400 172 L 370 172" stroke-miterlimit="10"/></g><g transform="translate(2,2) scale(1,1)"><path fill="#000000" stroke="none" d="M 380.16267485762415 167.790482243984 L 370 172 L 380.16267485762415 176.209517756016"/></g><g transform="translate(2,2) scale(1,1)"><path fill="none" stroke="#000000" d="M 380.16267485762415 167.790482243984 L 370 172 L 380.16267485762415 176.209517756016 L 380.16267485762415 167.790482243984" stroke-miterlimit="10"/></g><g transform="translate(2,2) scale(1,1)"><g><path fill="none" stroke="none"/><text fill="#000000" stroke="none" font-family="Arial" font-size="13px" font-style="normal" font-weight="normal" text-decoration="none" x="398" y="173">2 : search user's logs</text></g></g><g transform="translate(2,2) scale(1,1)"><rect fill="#ffffff" stroke="none" x="357" y="172" width="13" height="28"/></g><g transform="translate(2,2) scale(1,1)"><path fill="none" stroke="#000000" d="M 357 172 L 370 172 L 370 200 L 357 200 L 357 172 Z Z" stroke-miterlimit="10"/></g></g></svg>