<svg version="1.1" xmlns="http://www.w3.org/2000/svg" xmlns:xlink="http://www.w3.org/1999/xlink" width="1014" height="731"><defs/><g><g transform="translate(-4,-7) scale(1,1)"><rect fill="#C0C0C0" stroke="none" x="21" y="24" width="397.6" height="15" opacity="0.2"/></g><g transform="translate(-4,-7) scale(1,1)"><rect fill="#C0C0C0" stroke="none" x="21" y="38" width="994" height="697" opacity="0.2"/></g><g transform="translate(-4,-7) scale(1,1)"><rect fill="#ffffff" stroke="none" x="14" y="32" width="994" height="696"/></g><g transform="translate(-4,-7) scale(1,1)"><path fill="none" stroke="#000000" d="M 14 32 L 1008 32 L 1008 728 L 14 728 L 14 32 Z Z" stroke-miterlimit="10"/></g><g transform="translate(-4,-7) scale(1,1)"><rect fill="#ffffff" stroke="none" x="14" y="17" width="397.6" height="15"/></g><g transform="translate(-4,-7) scale(1,1)"><path fill="none" stroke="#000000" d="M 14 17 L 411.6 17 L 411.6 32 L 14 32 L 14 17 Z Z" stroke-miterlimit="10"/></g><g transform="translate(-4,-7) scale(1,1)"><rect fill="#ffffff" stroke="none" x="14" y="31" width="994" height="697"/></g><g transform="translate(-4,-7) scale(1,1)"><path fill="none" stroke="#000000" d="M 14 31 L 1008 31 L 1008 728 L 14 728 L 14 31 Z Z" stroke-miterlimit="10"/></g><g transform="translate(-4,-7) scale(1,1)"><g><path fill="none" stroke="none"/><text fill="#000000" stroke="none" font-family="Arial" font-size="13px" font-style="normal" font-weight="bold" text-decoration="none" x="479.94091796875" y="51.5">server-rest</text></g></g><g transform="translate(-4,-7) scale(1,1)"><rect fill="#C0C0C0" stroke="none" x="71" y="103" width="122.4" height="15" opacity="0.2"/></g><g transform="translate(-4,-7) scale(1,1)"><rect fill="#C0C0C0" stroke="none" x="71" y="117" width="306" height="233" opacity="0.2"/></g><g transform="translate(-4,-7) scale(1,1)"><rect fill="#ffffff" stroke="none" x="64" y="111" width="306" height="232"/></g><g transform="translate(-4,-7) scale(1,1)"><path fill="none" stroke="#000000" d="M 64 111 L 370 111 L 370 343 L 64 343 L 64 111 Z Z" stroke-miterlimit="10"/></g><g transform="translate(-4,-7) scale(1,1)"><rect fill="#ffffff" stroke="none" x="64" y="96" width="122.4" height="15"/></g><g transform="translate(-4,-7) scale(1,1)"><path fill="none" stroke="#000000" d="M 64 96 L 186.4 96 L 186.4 111 L 64 111 L 64 96 Z Z" stroke-miterlimit="10"/></g><g transform="translate(-4,-7) scale(1,1)"><rect fill="#ffffff" stroke="none" x="64" y="110" width="306" height="233"/></g><g transform="translate(-4,-7) scale(1,1)"><path fill="none" stroke="#000000" d="M 64 110 L 370 110 L 370 343 L 64 343 L 64 110 Z Z" stroke-miterlimit="10"/></g><g transform="translate(-4,-7) scale(1,1)"><g><path fill="none" stroke="none"/><text fill="#000000" stroke="none" font-family="Arial" font-size="13px" font-style="normal" font-weight="bold" text-decoration="none" x="190.266845703125" y="130.5">controller</text></g></g><g transform="translate(-4,-7) scale(1,1)"><rect fill="#C0C0C0" stroke="none" x="95" y="183" width="178.076171875" height="72" opacity="0.2"/></g><g transform="translate(-4,-7) scale(1,1)"><rect fill="#ffffff" stroke="none" x="88" y="176" width="178.076171875" height="72"/></g><g transform="translate(-4,-7) scale(1,1)"><path fill="none" stroke="#000000" d="M 88 176 L 266.076171875 176 L 266.076171875 248 L 88 248 L 88 176 Z Z" stroke-miterlimit="10"/></g><g transform="translate(-4,-7) scale(1,1)"><path fill="none" stroke="#000000" d="M 88 216 L 266.076171875 216" stroke-miterlimit="10"/></g><g transform="translate(-4,-7) scale(1,1)"><path fill="none" stroke="#000000" d="M 88 226 L 266.076171875 226" stroke-miterlimit="10"/></g><g transform="translate(-4,-7) scale(1,1)"><g><path fill="none" stroke="none"/><text fill="#000000" stroke="none" font-family="Arial" font-size="13px" font-style="normal" font-weight="bold" text-decoration="none" x="123.2099609375" y="195.5">ProspectController</text></g></g><g transform="translate(-4,-7) scale(1,1)"><g><path fill="none" stroke="none"/><text fill="#000000" stroke="none" font-family="Arial" font-size="13px" font-style="normal" font-weight="normal" text-decoration="none" x="131.169921875" y="210.5">(from controller)</text></g></g><g transform="translate(-4,-7) scale(1,1)"><g><path fill="none" stroke="none"/><text fill="#000000" stroke="none" font-family="Arial" font-size="13px" font-style="normal" font-weight="normal" text-decoration="none" x="93" y="243.5">-getProspectByRelationship()</text></g></g><g transform="translate(-4,-7) scale(1,1)"><rect fill="#C0C0C0" stroke="none" x="463" y="103" width="62.955273437499955" height="15" opacity="0.2"/></g><g transform="translate(-4,-7) scale(1,1)"><rect fill="#C0C0C0" stroke="none" x="463" y="117" width="157.38818359375" height="162" opacity="0.2"/></g><g transform="translate(-4,-7) scale(1,1)"><rect fill="#ffffff" stroke="none" x="456" y="111" width="157.38818359375" height="161"/></g><g transform="translate(-4,-7) scale(1,1)"><path fill="none" stroke="#000000" d="M 456 111 L 613.38818359375 111 L 613.38818359375 272 L 456 272 L 456 111 Z Z" stroke-miterlimit="10"/></g><g transform="translate(-4,-7) scale(1,1)"><rect fill="#ffffff" stroke="none" x="456" y="96" width="62.955273437499955" height="15"/></g><g transform="translate(-4,-7) scale(1,1)"><path fill="none" stroke="#000000" d="M 456 96 L 518.9552734375 96 L 518.9552734375 111 L 456 111 L 456 96 Z Z" stroke-miterlimit="10"/></g><g transform="translate(-4,-7) scale(1,1)"><rect fill="#ffffff" stroke="none" x="456" y="110" width="157.38818359375" height="162"/></g><g transform="translate(-4,-7) scale(1,1)"><path fill="none" stroke="#000000" d="M 456 110 L 613.38818359375 110 L 613.38818359375 272 L 456 272 L 456 110 Z Z" stroke-miterlimit="10"/></g><g transform="translate(-4,-7) scale(1,1)"><g><path fill="none" stroke="none"/><text fill="#000000" stroke="none" font-family="Arial" font-size="13px" font-style="normal" font-weight="bold" text-decoration="none" x="514.10546875" y="130.5">service</text></g></g><g transform="translate(-4,-7) scale(1,1)"><g><path fill="none" stroke="none"/><text fill="#000000" stroke="none" font-family="Arial" font-size="13px" font-style="normal" font-weight="normal" text-decoration="none" x="484.5" y="145.5">(from server-rest)</text></g></g><g transform="translate(-4,-7) scale(1,1)"><rect fill="#C0C0C0" stroke="none" x="493" y="180" width="109.38818359375" height="59" opacity="0.2"/></g><g transform="translate(-4,-7) scale(1,1)"><rect fill="#ffffff" stroke="none" x="486" y="173" width="109.38818359375" height="59"/></g><g transform="translate(-4,-7) scale(1,1)"><path fill="none" stroke="#000000" d="M 486 173 L 595.38818359375 173 L 595.38818359375 232 L 486 232 L 486 173 Z Z" stroke-miterlimit="10"/></g><g transform="translate(-4,-7) scale(1,1)"><path fill="none" stroke="#000000" d="M 486 213 L 595.38818359375 213" stroke-miterlimit="10"/></g><g transform="translate(-4,-7) scale(1,1)"><path fill="none" stroke="#000000" d="M 486 223 L 595.38818359375 223" stroke-miterlimit="10"/></g><g transform="translate(-4,-7) scale(1,1)"><g><path fill="none" stroke="none"/><text fill="#000000" stroke="none" font-family="Arial" font-size="13px" font-style="normal" font-weight="bold" text-decoration="none" x="499.1455078125" y="192.5">MongoService</text></g></g><g transform="translate(-4,-7) scale(1,1)"><g><path fill="none" stroke="none"/><text fill="#000000" stroke="none" font-family="Arial" font-size="13px" font-style="normal" font-weight="normal" text-decoration="none" x="490.5" y="207.5">(from server-rest)</text></g></g><g transform="translate(-4,-7) scale(1,1)"><path fill="#C0C0C0" stroke="none" d="M 403.8681640625 209.5 C 403.8681640625 203.1487248 409.0168888625 198 415.3681640625 198 C 421.7194392625 198 426.8681640625 203.1487248 426.8681640625 209.5 C 426.8681640625 215.8512752 421.7194392625 221 415.3681640625 221 C 409.0168888625 221 403.8681640625 215.8512752 403.8681640625 209.5 Z" opacity="0.2"/></g><g transform="translate(-4,-7) scale(1,1)"><path fill="none" stroke="#000000" d="M 411.82743135395407 212.84438883620322 A 11.5 11.5 0 0 1 404.17256864604593 191.15561116379678" stroke-miterlimit="10"/></g><g transform="translate(-4,-7) scale(1,1)"><path fill="#ffffff" stroke="none" d="M 399.8681640625 202.5 C 399.8681640625 197.8055792 403.6737432625 194 408.3681640625 194 C 413.0625848625 194 416.8681640625 197.8055792 416.8681640625 202.5 C 416.8681640625 207.1944208 413.0625848625 211 408.3681640625 211 C 403.6737432625 211 399.8681640625 207.1944208 399.8681640625 202.5 Z"/></g><g transform="translate(-4,-7) scale(1,1)"><path fill="none" stroke="#000000" d="M 399.8681640625 202.5 C 399.8681640625 197.8055792 403.6737432625 194 408.3681640625 194 C 413.0625848625 194 416.8681640625 197.8055792 416.8681640625 202.5 C 416.8681640625 207.1944208 413.0625848625 211 408.3681640625 211 C 403.6737432625 211 399.8681640625 207.1944208 399.8681640625 202.5 Z" stroke-miterlimit="10"/></g><g transform="translate(-4,-7) scale(1,1)"><g><path fill="none" stroke="none"/><text fill="#000000" stroke="none" font-family="Arial" font-size="13px" font-style="normal" font-weight="bold" text-decoration="none" x="366.095947265625" y="233.5">MorphiaConfig</text></g></g><g transform="translate(-4,-7) scale(1,1)"><g><path fill="none" stroke="none"/><text fill="#000000" stroke="none" font-family="Arial" font-size="13px" font-style="normal" font-weight="normal" text-decoration="none" x="362.5" y="248.5">(from controller)</text></g></g><g transform="translate(-4,-7) scale(1,1)"><path fill="none" stroke="#000000" d="M 485 210 L 419.8681640625 204.73880709134616" stroke-miterlimit="10"/></g><g transform="translate(-4,-7) scale(1,1)"><path fill="none" stroke="#000000" d="M 267 216 L 396.8681640625 205.9288832720588" stroke-miterlimit="10"/></g><g transform="translate(-4,-7) scale(1,1)"><rect fill="#C0C0C0" stroke="none" x="647" y="199" width="131.20000000000005" height="15" opacity="0.2"/></g><g transform="translate(-4,-7) scale(1,1)"><rect fill="#C0C0C0" stroke="none" x="647" y="213" width="328" height="410" opacity="0.2"/></g><g transform="translate(-4,-7) scale(1,1)"><rect fill="#ffffff" stroke="none" x="640" y="207" width="328" height="409"/></g><g transform="translate(-4,-7) scale(1,1)"><path fill="none" stroke="#000000" d="M 640 207 L 968 207 L 968 616 L 640 616 L 640 207 Z Z" stroke-miterlimit="10"/></g><g transform="translate(-4,-7) scale(1,1)"><rect fill="#ffffff" stroke="none" x="640" y="192" width="131.20000000000005" height="15"/></g><g transform="translate(-4,-7) scale(1,1)"><path fill="none" stroke="#000000" d="M 640 192 L 771.2 192 L 771.2 207 L 640 207 L 640 192 Z Z" stroke-miterlimit="10"/></g><g transform="translate(-4,-7) scale(1,1)"><rect fill="#ffffff" stroke="none" x="640" y="206" width="328" height="410"/></g><g transform="translate(-4,-7) scale(1,1)"><path fill="none" stroke="#000000" d="M 640 206 L 968 206 L 968 616 L 640 616 L 640 206 Z Z" stroke-miterlimit="10"/></g><g transform="translate(-4,-7) scale(1,1)"><path fill="none" stroke="#000000" d="M 762.2 195 L 756.2 202 L 768.2 202 L 762.2 195" stroke-miterlimit="10"/></g><g transform="translate(-4,-7) scale(1,1)"><g><path fill="none" stroke="none"/><text fill="#000000" stroke="none" font-family="Arial" font-size="13px" font-style="normal" font-weight="bold" text-decoration="none" x="786.29638671875" y="226.5">model</text></g></g><g transform="translate(-4,-7) scale(1,1)"><g><path fill="none" stroke="none"/><text fill="#000000" stroke="none" font-family="Arial" font-size="13px" font-style="normal" font-weight="normal" text-decoration="none" x="753.805908203125" y="241.5">(from server-rest)</text></g></g><g transform="translate(-4,-7) scale(1,1)"><rect fill="#C0C0C0" stroke="none" x="87" y="383" width="198.39999999999998" height="15" opacity="0.2"/></g><g transform="translate(-4,-7) scale(1,1)"><rect fill="#C0C0C0" stroke="none" x="87" y="397" width="496" height="274" opacity="0.2"/></g><g transform="translate(-4,-7) scale(1,1)"><rect fill="#ffffff" stroke="none" x="80" y="391" width="496" height="273"/></g><g transform="translate(-4,-7) scale(1,1)"><path fill="none" stroke="#000000" d="M 80 391 L 576 391 L 576 664 L 80 664 L 80 391 Z Z" stroke-miterlimit="10"/></g><g transform="translate(-4,-7) scale(1,1)"><rect fill="#ffffff" stroke="none" x="80" y="376" width="198.39999999999998" height="15"/></g><g transform="translate(-4,-7) scale(1,1)"><path fill="none" stroke="#000000" d="M 80 376 L 278.4 376 L 278.4 391 L 80 391 L 80 376 Z Z" stroke-miterlimit="10"/></g><g transform="translate(-4,-7) scale(1,1)"><rect fill="#ffffff" stroke="none" x="80" y="390" width="496" height="274"/></g><g transform="translate(-4,-7) scale(1,1)"><path fill="none" stroke="#000000" d="M 80 390 L 576 390 L 576 664 L 80 664 L 80 390 Z Z" stroke-miterlimit="10"/></g><g transform="translate(-4,-7) scale(1,1)"><g><path fill="none" stroke="none"/><text fill="#000000" stroke="none" font-family="Arial" font-size="13px" font-style="normal" font-weight="bold" text-decoration="none" x="317.155029296875" y="410.5">dao</text></g></g><g transform="translate(-4,-7) scale(1,1)"><g><path fill="none" stroke="none"/><text fill="#000000" stroke="none" font-family="Arial" font-size="13px" font-style="normal" font-weight="normal" text-decoration="none" x="277.805908203125" y="425.5">(from server-rest)</text></g></g><g transform="translate(-4,-7) scale(1,1)"><rect fill="#C0C0C0" stroke="none" x="680" y="650" width="156.32275390625" height="59" opacity="0.2"/></g><g transform="translate(-4,-7) scale(1,1)"><rect fill="#ffffff" stroke="none" x="673" y="643" width="156.32275390625" height="59"/></g><g transform="translate(-4,-7) scale(1,1)"><path fill="none" stroke="#000000" d="M 673 643 L 829.32275390625 643 L 829.32275390625 702 L 673 702 L 673 643 Z Z" stroke-miterlimit="10"/></g><g transform="translate(-4,-7) scale(1,1)"><path fill="none" stroke="#000000" d="M 673 683 L 829.32275390625 683" stroke-miterlimit="10"/></g><g transform="translate(-4,-7) scale(1,1)"><path fill="none" stroke="#000000" d="M 673 693 L 829.32275390625 693" stroke-miterlimit="10"/></g><g transform="translate(-4,-7) scale(1,1)"><g><path fill="none" stroke="none"/><text fill="#000000" stroke="none" font-family="Arial" font-size="13px" font-style="normal" font-weight="bold" text-decoration="none" x="683.23193359375" y="662.5">org.mongodb.morphia.*</text></g></g><g transform="translate(-4,-7) scale(1,1)"><g><path fill="none" stroke="none"/><text fill="#000000" stroke="none" font-family="Arial" font-size="13px" font-style="normal" font-weight="normal" text-decoration="none" x="700.96728515625" y="677.5">(from server-rest)</text></g></g><g transform="translate(-4,-7) scale(1,1)"><rect fill="#C0C0C0" stroke="none" x="670" y="277" width="125.3271484375" height="207" opacity="0.2"/></g><g transform="translate(-4,-7) scale(1,1)"><rect fill="#ffffff" stroke="none" x="663" y="270" width="125.3271484375" height="207"/></g><g transform="translate(-4,-7) scale(1,1)"><path fill="none" stroke="#000000" d="M 663 270 L 788.3271484375 270 L 788.3271484375 477 L 663 477 L 663 270 Z Z" stroke-miterlimit="10"/></g><g transform="translate(-4,-7) scale(1,1)"><path fill="none" stroke="#000000" d="M 663 310 L 788.3271484375 310" stroke-miterlimit="10"/></g><g transform="translate(-4,-7) scale(1,1)"><path fill="none" stroke="#000000" d="M 663 468 L 788.3271484375 468" stroke-miterlimit="10"/></g><g transform="translate(-4,-7) scale(1,1)"><g><path fill="none" stroke="none"/><text fill="#000000" stroke="none" font-family="Arial" font-size="13px" font-style="normal" font-weight="bold" text-decoration="none" x="700.733154296875" y="289.5">prospect</text></g></g><g transform="translate(-4,-7) scale(1,1)"><g><path fill="none" stroke="none"/><text fill="#000000" stroke="none" font-family="Arial" font-size="13px" font-style="normal" font-weight="normal" text-decoration="none" x="688.824951171875" y="304.5">(from model)</text></g></g><g transform="translate(-4,-7) scale(1,1)"><g><path fill="none" stroke="none"/><text fill="#000000" stroke="none" font-family="Arial" font-size="13px" font-style="normal" font-weight="normal" text-decoration="none" x="668" y="327.5">-id: int</text></g></g><g transform="translate(-4,-7) scale(1,1)"><g><path fill="none" stroke="none"/><text fill="#000000" stroke="none" font-family="Arial" font-size="13px" font-style="normal" font-weight="normal" text-decoration="none" x="668" y="342.5">-name: String</text></g></g><g transform="translate(-4,-7) scale(1,1)"><g><path fill="none" stroke="none"/><text fill="#000000" stroke="none" font-family="Arial" font-size="13px" font-style="normal" font-weight="normal" text-decoration="none" x="668" y="357.5">-finessNumber: long</text></g></g><g transform="translate(-4,-7) scale(1,1)"><g><path fill="none" stroke="none"/><text fill="#000000" stroke="none" font-family="Arial" font-size="13px" font-style="normal" font-weight="normal" text-decoration="none" x="668" y="372.5">-siretNumber: long</text></g></g><g transform="translate(-4,-7) scale(1,1)"><g><path fill="none" stroke="none"/><text fill="#000000" stroke="none" font-family="Arial" font-size="13px" font-style="normal" font-weight="normal" text-decoration="none" x="668" y="387.5">-streetNumber: int</text></g></g><g transform="translate(-4,-7) scale(1,1)"><g><path fill="none" stroke="none"/><text fill="#000000" stroke="none" font-family="Arial" font-size="13px" font-style="normal" font-weight="normal" text-decoration="none" x="668" y="402.5">-streetName: String</text></g></g><g transform="translate(-4,-7) scale(1,1)"><g><path fill="none" stroke="none"/><text fill="#000000" stroke="none" font-family="Arial" font-size="13px" font-style="normal" font-weight="normal" text-decoration="none" x="668" y="417.5">-zipCode: int</text></g></g><g transform="translate(-4,-7) scale(1,1)"><g><path fill="none" stroke="none"/><text fill="#000000" stroke="none" font-family="Arial" font-size="13px" font-style="normal" font-weight="normal" text-decoration="none" x="668" y="432.5">-city: String</text></g></g><g transform="translate(-4,-7) scale(1,1)"><g><path fill="none" stroke="none"/><text fill="#000000" stroke="none" font-family="Arial" font-size="13px" font-style="normal" font-weight="normal" text-decoration="none" x="668" y="447.5">-bedNumber: int</text></g></g><g transform="translate(-4,-7) scale(1,1)"><g><path fill="none" stroke="none"/><text fill="#000000" stroke="none" font-family="Arial" font-size="13px" font-style="normal" font-weight="normal" text-decoration="none" x="668" y="462.5">-website: String</text></g></g><g transform="translate(-4,-7) scale(1,1)"><path fill="none" stroke="#000000" d="M 267 238 L 662 354" stroke-miterlimit="10"/></g><g transform="translate(-4,-7) scale(1,1)"><path fill="none" stroke="#000000" d="M 821 495 L 789 455" stroke-miterlimit="10"/></g><g transform="translate(-4,-7) scale(1,1)"><path fill="#000000" stroke="none" d="M 798.6356537719332 460.306050922054 L 789 455 L 792.0614915349942 465.5653807116052 L 802.7432910461973 472.17911380774666"/></g><g transform="translate(-4,-7) scale(1,1)"><path fill="none" stroke="#000000" d="M 798.6356537719332 460.306050922054 L 789 455 L 792.0614915349942 465.5653807116052 L 802.7432910461973 472.17911380774666 L 798.6356537719332 460.306050922054" stroke-miterlimit="10"/></g><g transform="translate(-4,-7) scale(1,1)"><rect fill="#C0C0C0" stroke="none" x="815" y="503" width="96.39453125" height="87" opacity="0.2"/></g><g transform="translate(-4,-7) scale(1,1)"><rect fill="#ffffff" stroke="none" x="808" y="496" width="96.39453125" height="87"/></g><g transform="translate(-4,-7) scale(1,1)"><path fill="none" stroke="#000000" d="M 808 496 L 904.39453125 496 L 904.39453125 583 L 808 583 L 808 496 Z Z" stroke-miterlimit="10"/></g><g transform="translate(-4,-7) scale(1,1)"><path fill="none" stroke="#000000" d="M 808 521 L 904.39453125 521" stroke-miterlimit="10"/></g><g transform="translate(-4,-7) scale(1,1)"><path fill="none" stroke="#000000" d="M 808 574 L 904.39453125 574" stroke-miterlimit="10"/></g><g transform="translate(-4,-7) scale(1,1)"><g><path fill="none" stroke="none"/><text fill="#000000" stroke="none" font-family="Arial" font-size="13px" font-style="normal" font-weight="bold" text-decoration="none" x="815.73095703125" y="515.5">RelationClient</text></g></g><g transform="translate(-4,-7) scale(1,1)"><g><path fill="none" stroke="none"/><text fill="#000000" stroke="none" font-family="Arial" font-size="13px" font-style="normal" font-weight="normal" text-decoration="none" x="813" y="538.5">-id: String</text></g></g><g transform="translate(-4,-7) scale(1,1)"><g><path fill="none" stroke="none"/><text fill="#000000" stroke="none" font-family="Arial" font-size="13px" font-style="normal" font-weight="normal" text-decoration="none" x="813" y="553.5">-idClient: int</text></g></g><g transform="translate(-4,-7) scale(1,1)"><g><path fill="none" stroke="none"/><text fill="#000000" stroke="none" font-family="Arial" font-size="13px" font-style="normal" font-weight="normal" text-decoration="none" x="813" y="568.5">-idProspect: int</text></g></g><g transform="translate(-4,-7) scale(1,1)"><rect fill="#C0C0C0" stroke="none" x="213" y="511" width="166.142578125" height="72" opacity="0.2"/></g><g transform="translate(-4,-7) scale(1,1)"><rect fill="#ffffff" stroke="none" x="206" y="504" width="166.142578125" height="72"/></g><g transform="translate(-4,-7) scale(1,1)"><path fill="none" stroke="#000000" d="M 206 504 L 372.142578125 504 L 372.142578125 576 L 206 576 L 206 504 Z Z" stroke-miterlimit="10"/></g><g transform="translate(-4,-7) scale(1,1)"><path fill="none" stroke="#000000" d="M 206 544 L 372.142578125 544" stroke-miterlimit="10"/></g><g transform="translate(-4,-7) scale(1,1)"><path fill="none" stroke="#000000" d="M 206 554 L 372.142578125 554" stroke-miterlimit="10"/></g><g transform="translate(-4,-7) scale(1,1)"><g><path fill="none" stroke="none"/><text fill="#000000" stroke="none" font-family="Arial" font-size="13px" font-style="normal" font-weight="bold" text-decoration="none" x="222.239990234375" y="523.5">RelationClientDAOImpl</text></g></g><g transform="translate(-4,-7) scale(1,1)"><g><path fill="none" stroke="none"/><text fill="#000000" stroke="none" font-family="Arial" font-size="13px" font-style="normal" font-weight="normal" text-decoration="none" x="259.09130859375" y="538.5">(from dao)</text></g></g><g transform="translate(-4,-7) scale(1,1)"><g><path fill="none" stroke="none"/><text fill="#000000" stroke="none" font-family="Arial" font-size="13px" font-style="normal" font-weight="normal" text-decoration="none" x="211" y="571.5">+checkRelationWithClient()</text></g></g><g transform="translate(-4,-7) scale(1,1)"><path fill="#C0C0C0" stroke="none" d="M 170.141357421875 418.5 C 170.141357421875 412.1487248 175.290082221875 407 181.641357421875 407 C 187.992632621875 407 193.141357421875 412.1487248 193.141357421875 418.5 C 193.141357421875 424.8512752 187.992632621875 430 181.641357421875 430 C 175.290082221875 430 170.141357421875 424.8512752 170.141357421875 418.5 Z" opacity="0.2"/></g><g transform="translate(-4,-7) scale(1,1)"><path fill="none" stroke="#000000" d="M 162.5 411 A 11.5 11.5 0 0 1 185.5 411" stroke-miterlimit="10"/></g><g transform="translate(-4,-7) scale(1,1)"><path fill="#ffffff" stroke="none" d="M 166.141357421875 411.5 C 166.141357421875 406.8055792 169.946936621875 403 174.641357421875 403 C 179.335778221875 403 183.141357421875 406.8055792 183.141357421875 411.5 C 183.141357421875 416.1944208 179.335778221875 420 174.641357421875 420 C 169.946936621875 420 166.141357421875 416.1944208 166.141357421875 411.5 Z"/></g><g transform="translate(-4,-7) scale(1,1)"><path fill="none" stroke="#000000" d="M 166.141357421875 411.5 C 166.141357421875 406.8055792 169.946936621875 403 174.641357421875 403 C 179.335778221875 403 183.141357421875 406.8055792 183.141357421875 411.5 C 183.141357421875 416.1944208 179.335778221875 420 174.641357421875 420 C 169.946936621875 420 166.141357421875 416.1944208 166.141357421875 411.5 Z" stroke-miterlimit="10"/></g><g transform="translate(-4,-7) scale(1,1)"><g><path fill="none" stroke="none"/><text fill="#000000" stroke="none" font-family="Arial" font-size="13px" font-style="normal" font-weight="bold" text-decoration="none" x="120.089599609375" y="442.5">RelationClientDAO</text></g></g><g transform="translate(-4,-7) scale(1,1)"><g><path fill="none" stroke="none"/><text fill="#000000" stroke="none" font-family="Arial" font-size="13px" font-style="normal" font-weight="normal" text-decoration="none" x="144.661376953125" y="457.5">(from dao)</text></g></g><g transform="translate(-4,-7) scale(1,1)"><path fill="none" stroke="#000000" d="M 250 503 L 181.9245283018868 423" stroke-miterlimit="10"/></g><g transform="translate(-4,-7) scale(1,1)"><path fill="none" stroke="#000000" d="M 176 249 L 174 400" stroke-miterlimit="10"/></g><g transform="translate(-4,-7) scale(1,1)"><path fill="none" stroke="#000000" d="M 373 564 L 672 649" stroke-miterlimit="10" stroke-dasharray="3"/></g><g transform="translate(-4,-7) scale(1,1)"><path fill="none" stroke="#000000" d="M 661.0735754708261 650.2701366100808 L 672 649 L 663.3757289112766 642.1719733313196" stroke-miterlimit="10"/></g></g></svg>