<svg version="1.1" xmlns="http://www.w3.org/2000/svg" xmlns:xlink="http://www.w3.org/1999/xlink" width="2876" height="1148"><defs/><g><g transform="translate(-14,-6) scale(1,1)"><path fill="none" stroke="#000000" d="M 24 16 L 2880 16 L 2880 1144 L 24 1144 L 24 16" stroke-miterlimit="10"/></g><g transform="translate(-14,-6) scale(1,1)"><path fill="#ffffff" stroke="none" d="M 24 16 L 24 38 L 278.443359375 38 L 289.443359375 27 L 289.443359375 16 L 24 16"/></g><g transform="translate(-14,-6) scale(1,1)"><path fill="none" stroke="#000000" d="M 24 16 L 24 38 L 278.443359375 38 L 289.443359375 27 L 289.443359375 16 L 24 16 L 24 16" stroke-miterlimit="10"/></g><g transform="translate(-14,-6) scale(1,1)"><g><path fill="none" stroke="none"/><text fill="#000000" stroke="none" font-family="Arial" font-size="13px" font-style="normal" font-weight="normal" text-decoration="none" x="94.97900390625" y="33.5">DS détaillé : Afficher liste client</text></g></g><g transform="translate(-14,-6) scale(1,1)"><g><path fill="none" stroke="none"/><text fill="#000000" stroke="none" font-family="Arial" font-size="13px" font-style="normal" font-weight="bold" text-decoration="none" x="29" y="33.5">interaction</text></g></g><g transform="translate(-14,-6) scale(1,1)"><path fill="none" stroke="#000000" d="M 24 264 L 2824 264 L 2824 1080 L 24 1080 L 24 264" stroke-miterlimit="10"/></g><g transform="translate(-14,-6) scale(1,1)"><path fill="#ffffff" stroke="none" d="M 24 264 L 24 286 L 184.54248046875 286 L 195.54248046875 275 L 195.54248046875 264 L 24 264"/></g><g transform="translate(-14,-6) scale(1,1)"><path fill="none" stroke="#000000" d="M 24 264 L 24 286 L 184.54248046875 286 L 195.54248046875 275 L 195.54248046875 264 L 24 264 L 24 264" stroke-miterlimit="10"/></g><g transform="translate(-14,-6) scale(1,1)"><g><path fill="none" stroke="none"/><text fill="#000000" stroke="none" font-family="Arial" font-size="13px" font-style="normal" font-weight="normal" text-decoration="none" x="48.72998046875" y="281.5">has internet connexion</text></g></g><g transform="translate(-14,-6) scale(1,1)"><g><path fill="none" stroke="none"/><text fill="#000000" stroke="none" font-family="Arial" font-size="13px" font-style="normal" font-weight="bold" text-decoration="none" x="29" y="281.5">alt</text></g></g><g transform="translate(-14,-6) scale(1,1)"><path fill="none" stroke="#000000" d="M 24 921 L 2824 921" stroke-miterlimit="10" stroke-dasharray="10,3"/></g><g transform="translate(-14,-6) scale(1,1)"><rect fill="#C0C0C0" stroke="none" x="335" y="47" width="162.01904296875" height="39" opacity="0.2"/></g><g transform="translate(-14,-6) scale(1,1)"><rect fill="#ffffff" stroke="none" x="328" y="40" width="162.01904296875" height="39"/></g><g transform="translate(-14,-6) scale(1,1)"><path fill="none" stroke="#000000" d="M 328 40 L 490.01904296875 40 L 490.01904296875 79 L 328 79 L 328 40 Z Z" stroke-miterlimit="10"/></g><g transform="translate(-14,-6) scale(1,1)"><g><path fill="none" stroke="none"/><text fill="#000000" stroke="none" font-family="Arial" font-size="13px" font-style="normal" font-weight="bold" text-decoration="none" x="342.905029296875" y="59.5">ListCustomerFragment</text></g></g><g transform="translate(-14,-6) scale(1,1)"><path fill="none" stroke="#000000" d="M 410.5 80 L 410.5 1136" stroke-miterlimit="10" stroke-dasharray="3"/></g><g transform="translate(-14,-6) scale(1,1)"><rect fill="#C0C0C0" stroke="none" x="687" y="47" width="99.9072265625" height="39" opacity="0.2"/></g><g transform="translate(-14,-6) scale(1,1)"><rect fill="#ffffff" stroke="none" x="680" y="40" width="99.9072265625" height="39"/></g><g transform="translate(-14,-6) scale(1,1)"><path fill="none" stroke="#000000" d="M 680 40 L 779.9072265625 40 L 779.9072265625 79 L 680 79 L 680 40 Z Z" stroke-miterlimit="10"/></g><g transform="translate(-14,-6) scale(1,1)"><g><path fill="none" stroke="none"/><text fill="#000000" stroke="none" font-family="Arial" font-size="13px" font-style="normal" font-weight="bold" text-decoration="none" x="711.88818359375" y="59.5">Select</text></g></g><g transform="translate(-14,-6) scale(1,1)"><path fill="none" stroke="#000000" d="M 730.5 80 L 730.5 264" stroke-miterlimit="10" stroke-dasharray="3"/></g><g transform="translate(-14,-6) scale(1,1)"><rect fill="#C0C0C0" stroke="none" x="1887" y="47" width="182.25537109375" height="39" opacity="0.2"/></g><g transform="translate(-14,-6) scale(1,1)"><rect fill="#ffffff" stroke="none" x="1880" y="40" width="182.25537109375" height="39"/></g><g transform="translate(-14,-6) scale(1,1)"><path fill="none" stroke="#000000" d="M 1880 40 L 2062.25537109375 40 L 2062.25537109375 79 L 1880 79 L 1880 40 Z Z" stroke-miterlimit="10"/></g><g transform="translate(-14,-6) scale(1,1)"><g><path fill="none" stroke="none"/><text fill="#000000" stroke="none" font-family="Arial" font-size="13px" font-style="normal" font-weight="bold" text-decoration="none" x="1895.266845703125" y="59.5">CreateCustomerController</text></g></g><g transform="translate(-14,-6) scale(1,1)"><path fill="none" stroke="#000000" d="M 1972.5 80 L 1972.5 1032" stroke-miterlimit="10" stroke-dasharray="3"/></g><g transform="translate(-14,-6) scale(1,1)"><path fill="#ffffff" stroke="none" d="M 119.0372176846591 47.3 C 119.0372176846591 43.82060576 121.9156194068409 41 125.46630859375 41 C 129.0169977806591 41 131.89539950284092 43.82060576 131.89539950284092 47.3 C 131.89539950284092 50.779394239999995 129.0169977806591 53.6 125.46630859375 53.6 C 121.9156194068409 53.6 119.0372176846591 50.779394239999995 119.0372176846591 47.3 Z"/></g><g transform="translate(-14,-6) scale(1,1)"><path fill="none" stroke="#000000" d="M 119.0372176846591 47.3 C 119.0372176846591 43.82060576 121.9156194068409 41 125.46630859375 41 C 129.0169977806591 41 131.89539950284092 43.82060576 131.89539950284092 47.3 C 131.89539950284092 50.779394239999995 129.0169977806591 53.6 125.46630859375 53.6 C 121.9156194068409 53.6 119.0372176846591 50.779394239999995 119.0372176846591 47.3 Z" stroke-miterlimit="10"/></g><g transform="translate(-14,-6) scale(1,1)"><path fill="none" stroke="#000000" d="M 125.46630859375 53.6 L 125.46630859375 66.4" stroke-miterlimit="10"/></g><g transform="translate(-14,-6) scale(1,1)"><path fill="none" stroke="#000000" d="M 118.65903586647728 58.4 L 132.27358132102273 58.4" stroke-miterlimit="10"/></g><g transform="translate(-14,-6) scale(1,1)"><path fill="none" stroke="#000000" d="M 125.46630859375 66.4 L 116.01176313920455 79" stroke-miterlimit="10"/></g><g transform="translate(-14,-6) scale(1,1)"><path fill="none" stroke="#000000" d="M 125.46630859375 66.4 L 134.92085404829547 79" stroke-miterlimit="10"/></g><g transform="translate(-14,-6) scale(1,1)"><g><path fill="none" stroke="none"/><text fill="#000000" stroke="none" font-family="Arial" font-size="13px" font-style="normal" font-weight="bold" text-decoration="none" x="58.285888671875" y="99.5">Utilisateur: Commercial</text></g></g><g transform="translate(-14,-6) scale(1,1)"><path fill="none" stroke="#000000" d="M 126.5 105 L 126.5 1144" stroke-miterlimit="10" stroke-dasharray="3"/></g><g transform="translate(-14,-6) scale(1,1)"><rect fill="#C0C0C0" stroke="none" x="799" y="47" width="151.9072265625" height="39" opacity="0.2"/></g><g transform="translate(-14,-6) scale(1,1)"><rect fill="#ffffff" stroke="none" x="792" y="40" width="151.9072265625" height="39"/></g><g transform="translate(-14,-6) scale(1,1)"><path fill="none" stroke="#000000" d="M 792 40 L 943.9072265625 40 L 943.9072265625 79 L 792 79 L 792 40 Z Z" stroke-miterlimit="10"/></g><g transform="translate(-14,-6) scale(1,1)"><g><path fill="none" stroke="none"/><text fill="#000000" stroke="none" font-family="Arial" font-size="13px" font-style="normal" font-weight="bold" text-decoration="none" x="806.898681640625" y="59.5">ListCustomerAdapter</text></g></g><g transform="translate(-14,-6) scale(1,1)"><path fill="none" stroke="#000000" d="M 868.5 80 L 868.5 1064" stroke-miterlimit="10" stroke-dasharray="3"/></g><g transform="translate(-14,-6) scale(1,1)"><path fill="#ffffff" stroke="none" d="M 1064 392 L 1317.64794921875 392 L 1327.64794921875 402 L 1327.64794921875 490 L 1064 490 L 1064 392"/></g><g transform="translate(-14,-6) scale(1,1)"><path fill="none" stroke="#000000" d="M 1064 392 L 1317.64794921875 392 L 1327.64794921875 402 L 1327.64794921875 490 L 1064 490 L 1064 392 L 1064 392" stroke-miterlimit="10"/></g><g transform="translate(-14,-6) scale(1,1)"><path fill="none" stroke="#000000" d="M 1317.64794921875 392 L 1317.64794921875 402 L 1327.64794921875 402 L 1317.64794921875 392" stroke-miterlimit="10"/></g><g transform="translate(-14,-6) scale(1,1)"><g><path fill="none" stroke="none"/><text fill="#000000" stroke="none" font-family="Arial" font-size="13px" font-style="normal" font-weight="normal" text-decoration="none" x="1069" y="410">@GET</text></g></g><g transform="translate(-14,-6) scale(1,1)"><g><path fill="none" stroke="none"/><text fill="#000000" stroke="none" font-family="Arial" font-size="13px" font-style="normal" font-weight="normal" text-decoration="none" x="1069" y="425">@Path(‘’/customer/{iduser}’’)</text></g></g><g transform="translate(-14,-6) scale(1,1)"><g><path fill="none" stroke="none"/><text fill="#000000" stroke="none" font-family="Arial" font-size="13px" font-style="normal" font-weight="normal" text-decoration="none" x="1069" y="440">@Consumes</text></g></g><g transform="translate(-14,-6) scale(1,1)"><g><path fill="none" stroke="none"/><text fill="#000000" stroke="none" font-family="Arial" font-size="13px" font-style="normal" font-weight="normal" text-decoration="none" x="1069" y="455">MediaType.APPLICATION_JSON_VALUE</text></g></g><g transform="translate(-14,-6) scale(1,1)"><g><path fill="none" stroke="none"/><text fill="#000000" stroke="none" font-family="Arial" font-size="13px" font-style="normal" font-weight="normal" text-decoration="none" x="1069" y="470">@Produces</text></g></g><g transform="translate(-14,-6) scale(1,1)"><g><path fill="none" stroke="none"/><text fill="#000000" stroke="none" font-family="Arial" font-size="13px" font-style="normal" font-weight="normal" text-decoration="none" x="1069" y="485">MediaType.APPLICATION_JSON_VALUE</text></g></g><g transform="translate(-14,-6) scale(1,1)"><path fill="none" stroke="#000000" d="M 1195 492 L 1194 544" stroke-miterlimit="10" stroke-dasharray="3"/></g><g transform="translate(-14,-6) scale(1,1)"><rect fill="#C0C0C0" stroke="none" x="2223" y="47" width="169.9853515625" height="39" opacity="0.2"/></g><g transform="translate(-14,-6) scale(1,1)"><rect fill="#ffffff" stroke="none" x="2216" y="40" width="169.9853515625" height="39"/></g><g transform="translate(-14,-6) scale(1,1)"><path fill="none" stroke="#000000" d="M 2216 40 L 2385.9853515625 40 L 2385.9853515625 79 L 2216 79 L 2216 40 Z Z" stroke-miterlimit="10"/></g><g transform="translate(-14,-6) scale(1,1)"><g><path fill="none" stroke="none"/><text fill="#000000" stroke="none" font-family="Arial" font-size="13px" font-style="normal" font-weight="bold" text-decoration="none" x="2230.1845703125" y="59.5">ResponseRestCustomer</text></g></g><g transform="translate(-14,-6) scale(1,1)"><path fill="none" stroke="#000000" d="M 2301.5 80 L 2301.5 1041" stroke-miterlimit="10" stroke-dasharray="3"/></g><g transform="translate(-14,-6) scale(1,1)"><rect fill="#C0C0C0" stroke="none" x="1207" y="47" width="154.79541015625" height="39" opacity="0.2"/></g><g transform="translate(-14,-6) scale(1,1)"><rect fill="#ffffff" stroke="none" x="1200" y="40" width="154.79541015625" height="39"/></g><g transform="translate(-14,-6) scale(1,1)"><path fill="none" stroke="#000000" d="M 1200 40 L 1354.79541015625 40 L 1354.79541015625 79 L 1200 79 L 1200 40 Z Z" stroke-miterlimit="10"/></g><g transform="translate(-14,-6) scale(1,1)"><g><path fill="none" stroke="none"/><text fill="#000000" stroke="none" font-family="Arial" font-size="13px" font-style="normal" font-weight="bold" text-decoration="none" x="1214.16552734375" y="59.5">RestHandlerSingleton</text></g></g><g transform="translate(-14,-6) scale(1,1)"><path fill="none" stroke="#000000" d="M 1278.5 80 L 1278.5 520" stroke-miterlimit="10" stroke-dasharray="3"/></g><g transform="translate(-14,-6) scale(1,1)"><rect fill="#C0C0C0" stroke="none" x="1399" y="47" width="97.00634765625" height="39" opacity="0.2"/></g><g transform="translate(-14,-6) scale(1,1)"><rect fill="#ffffff" stroke="none" x="1392" y="40" width="97.00634765625" height="39"/></g><g transform="translate(-14,-6) scale(1,1)"><path fill="none" stroke="#000000" d="M 1392 40 L 1489.00634765625 40 L 1489.00634765625 79 L 1392 79 L 1392 40 Z Z" stroke-miterlimit="10"/></g><g transform="translate(-14,-6) scale(1,1)"><g><path fill="none" stroke="none"/><text fill="#000000" stroke="none" font-family="Arial" font-size="13px" font-style="normal" font-weight="bold" text-decoration="none" x="1404.734130859375" y="59.5">GsonBuilder</text></g></g><g transform="translate(-14,-6) scale(1,1)"><path fill="none" stroke="#000000" d="M 1441.5 80 L 1441.5 552" stroke-miterlimit="10" stroke-dasharray="3"/></g><g transform="translate(-14,-6) scale(1,1)"><rect fill="#C0C0C0" stroke="none" x="1583" y="47" width="71.736328125" height="39" opacity="0.2"/></g><g transform="translate(-14,-6) scale(1,1)"><rect fill="#ffffff" stroke="none" x="1576" y="40" width="71.736328125" height="39"/></g><g transform="translate(-14,-6) scale(1,1)"><path fill="none" stroke="#000000" d="M 1576 40 L 1647.736328125 40 L 1647.736328125 79 L 1576 79 L 1576 40 Z Z" stroke-miterlimit="10"/></g><g transform="translate(-14,-6) scale(1,1)"><g><path fill="none" stroke="none"/><text fill="#000000" stroke="none" font-family="Arial" font-size="13px" font-style="normal" font-weight="bold" text-decoration="none" x="1590.917724609375" y="59.5">Retrofit</text></g></g><g transform="translate(-14,-6) scale(1,1)"><path fill="none" stroke="#000000" d="M 1612.5 80 L 1612.5 536" stroke-miterlimit="10" stroke-dasharray="3"/></g><g transform="translate(-14,-6) scale(1,1)"><g><path fill="none" stroke="none"/><text fill="#000000" stroke="none" font-family="Arial" font-size="13px" font-style="normal" font-weight="normal" text-decoration="none" x="53" y="434">has</text><text fill="#000000" stroke="none" font-family="Arial" font-size="13px" font-style="normal" font-weight="normal" text-decoration="none" x="53" y="447">internet</text><text fill="#000000" stroke="none" font-family="Arial" font-size="13px" font-style="normal" font-weight="normal" text-decoration="none" x="53" y="460">connexion</text></g></g><g transform="translate(-14,-6) scale(1,1)"><g><path fill="none" stroke="none"/><text fill="#000000" stroke="none" font-family="Arial" font-size="13px" font-style="normal" font-weight="normal" text-decoration="none" x="45" y="1002">do not</text><text fill="#000000" stroke="none" font-family="Arial" font-size="13px" font-style="normal" font-weight="normal" text-decoration="none" x="45" y="1015">have</text><text fill="#000000" stroke="none" font-family="Arial" font-size="13px" font-style="normal" font-weight="normal" text-decoration="none" x="45" y="1028">internet</text><text fill="#000000" stroke="none" font-family="Arial" font-size="13px" font-style="normal" font-weight="normal" text-decoration="none" x="45" y="1041">connexion</text></g></g><g transform="translate(-14,-6) scale(1,1)"><rect fill="#C0C0C0" stroke="none" x="1015" y="47" width="173.58447265625" height="39" opacity="0.2"/></g><g transform="translate(-14,-6) scale(1,1)"><rect fill="#ffffff" stroke="none" x="1008" y="40" width="173.58447265625" height="39"/></g><g transform="translate(-14,-6) scale(1,1)"><path fill="none" stroke="#000000" d="M 1008 40 L 1181.58447265625 40 L 1181.58447265625 79 L 1008 79 L 1008 40 Z Z" stroke-miterlimit="10"/></g><g transform="translate(-14,-6) scale(1,1)"><g><path fill="none" stroke="none"/><text fill="#000000" stroke="none" font-family="Arial" font-size="13px" font-style="normal" font-weight="bold" text-decoration="none" x="1023.266845703125" y="59.5">CustomerListViewHolder</text></g></g><g transform="translate(-14,-6) scale(1,1)"><path fill="none" stroke="#000000" d="M 1095.5 80 L 1095.5 1064" stroke-miterlimit="10" stroke-dasharray="3"/></g><g transform="translate(-14,-6) scale(1,1)"><rect fill="#C0C0C0" stroke="none" x="2407" y="47" width="128.79541015625" height="39" opacity="0.2"/></g><g transform="translate(-14,-6) scale(1,1)"><rect fill="#ffffff" stroke="none" x="2400" y="40" width="128.79541015625" height="39"/></g><g transform="translate(-14,-6) scale(1,1)"><path fill="none" stroke="#000000" d="M 2400 40 L 2528.79541015625 40 L 2528.79541015625 79 L 2400 79 L 2400 40 Z Z" stroke-miterlimit="10"/></g><g transform="translate(-14,-6) scale(1,1)"><g><path fill="none" stroke="none"/><text fill="#000000" stroke="none" font-family="Arial" font-size="13px" font-style="normal" font-weight="bold" text-decoration="none" x="2412.013671875" y="59.5">HealthCenterDAO</text></g></g><g transform="translate(-14,-6) scale(1,1)"><path fill="none" stroke="#000000" d="M 2465.5 80 L 2465.5 816" stroke-miterlimit="10" stroke-dasharray="3"/></g><g transform="translate(-14,-6) scale(1,1)"><rect fill="#C0C0C0" stroke="none" x="2607" y="47" width="125.16455078125" height="39" opacity="0.2"/></g><g transform="translate(-14,-6) scale(1,1)"><rect fill="#ffffff" stroke="none" x="2600" y="40" width="125.16455078125" height="39"/></g><g transform="translate(-14,-6) scale(1,1)"><path fill="none" stroke="#000000" d="M 2600 40 L 2725.16455078125 40 L 2725.16455078125 79 L 2600 79 L 2600 40 Z Z" stroke-miterlimit="10"/></g><g transform="translate(-14,-6) scale(1,1)"><g><path fill="none" stroke="none"/><text fill="#000000" stroke="none" font-family="Arial" font-size="13px" font-style="normal" font-weight="bold" text-decoration="none" x="2612.35009765625" y="59.5">IndependantDAO</text></g></g><g transform="translate(-14,-6) scale(1,1)"><path fill="none" stroke="#000000" d="M 2663.5 80 L 2663.5 816" stroke-miterlimit="10" stroke-dasharray="3"/></g><g transform="translate(-14,-6) scale(1,1)"><path fill="none" stroke="#000000" d="M 126 154 L 403 154" stroke-miterlimit="10"/></g><g transform="translate(-14,-6) scale(1,1)"><path fill="#000000" stroke="none" d="M 392.83732514237585 158.209517756016 L 403 154 L 392.83732514237585 149.790482243984"/></g><g transform="translate(-14,-6) scale(1,1)"><path fill="none" stroke="#000000" d="M 392.83732514237585 158.209517756016 L 403 154 L 392.83732514237585 149.790482243984 L 392.83732514237585 158.209517756016" stroke-miterlimit="10"/></g><g transform="translate(-14,-6) scale(1,1)"><g><path fill="none" stroke="none"/><text fill="#000000" stroke="none" font-family="Arial" font-size="13px" font-style="normal" font-weight="normal" text-decoration="none" x="194" y="151">1 : DislplayCustomerList</text></g></g><g transform="translate(-14,-6) scale(1,1)"><rect fill="#ffffff" stroke="none" x="403" y="154" width="13" height="905"/></g><g transform="translate(-14,-6) scale(1,1)"><path fill="none" stroke="#000000" d="M 403 154 L 416 154 L 416 1059 L 403 1059 L 403 154 Z Z" stroke-miterlimit="10"/></g><g transform="translate(-14,-6) scale(1,1)"><path fill="none" stroke="#000000" d="M 416 160 L 723 160" stroke-miterlimit="10"/></g><g transform="translate(-14,-6) scale(1,1)"><path fill="#000000" stroke="none" d="M 712.8373251423759 164.209517756016 L 723 160 L 712.8373251423758 155.790482243984"/></g><g transform="translate(-14,-6) scale(1,1)"><path fill="none" stroke="#000000" d="M 712.8373251423759 164.209517756016 L 723 160 L 712.8373251423758 155.790482243984 L 712.8373251423759 164.209517756016" stroke-miterlimit="10"/></g><g transform="translate(-14,-6) scale(1,1)"><g><path fill="none" stroke="none"/><text fill="#000000" stroke="none" font-family="Arial" font-size="13px" font-style="normal" font-weight="normal" text-decoration="none" x="418" y="157">2 : new Select().from(HealthCenter.class).queryList()</text></g></g><g transform="translate(-14,-6) scale(1,1)"><rect fill="#ffffff" stroke="none" x="723" y="160" width="13" height="28"/></g><g transform="translate(-14,-6) scale(1,1)"><path fill="none" stroke="#000000" d="M 723 160 L 736 160 L 736 188 L 723 188 L 723 160 Z Z" stroke-miterlimit="10"/></g><g transform="translate(-14,-6) scale(1,1)"><path fill="none" stroke="#000000" d="M 723 176 L 416 176" stroke-miterlimit="10" stroke-dasharray="3"/></g><g transform="translate(-14,-6) scale(1,1)"><path fill="none" stroke="#000000" d="M 426.16267485762415 171.790482243984 L 416 176 L 426.16267485762415 180.209517756016" stroke-miterlimit="10"/></g><g transform="translate(-14,-6) scale(1,1)"><g><path fill="none" stroke="none"/><text fill="#000000" stroke="none" font-family="Arial" font-size="13px" font-style="normal" font-weight="normal" text-decoration="none" x="503" y="193">3 : List&lt;HealthCenter&gt;</text></g></g><g transform="translate(-14,-6) scale(1,1)"><path fill="none" stroke="#000000" d="M 416 216 L 723 216" stroke-miterlimit="10"/></g><g transform="translate(-14,-6) scale(1,1)"><path fill="#000000" stroke="none" d="M 712.8373251423759 220.209517756016 L 723 216 L 712.8373251423758 211.790482243984"/></g><g transform="translate(-14,-6) scale(1,1)"><path fill="none" stroke="#000000" d="M 712.8373251423759 220.209517756016 L 723 216 L 712.8373251423758 211.790482243984 L 712.8373251423759 220.209517756016" stroke-miterlimit="10"/></g><g transform="translate(-14,-6) scale(1,1)"><g><path fill="none" stroke="none"/><text fill="#000000" stroke="none" font-family="Arial" font-size="13px" font-style="normal" font-weight="normal" text-decoration="none" x="420" y="213">4 : new Select().from(Independant.class).queryList()</text></g></g><g transform="translate(-14,-6) scale(1,1)"><rect fill="#ffffff" stroke="none" x="723" y="216" width="13" height="28"/></g><g transform="translate(-14,-6) scale(1,1)"><path fill="none" stroke="#000000" d="M 723 216 L 736 216 L 736 244 L 723 244 L 723 216 Z Z" stroke-miterlimit="10"/></g><g transform="translate(-14,-6) scale(1,1)"><path fill="none" stroke="#000000" d="M 723 240 L 416 240" stroke-miterlimit="10" stroke-dasharray="3"/></g><g transform="translate(-14,-6) scale(1,1)"><path fill="none" stroke="#000000" d="M 426.16267485762415 235.790482243984 L 416 240 L 426.16267485762415 244.209517756016" stroke-miterlimit="10"/></g><g transform="translate(-14,-6) scale(1,1)"><g><path fill="none" stroke="none"/><text fill="#000000" stroke="none" font-family="Arial" font-size="13px" font-style="normal" font-weight="normal" text-decoration="none" x="506" y="236">5 : List&lt;Independant&gt;</text></g></g><g transform="translate(-14,-6) scale(1,1)"><path fill="none" stroke="#000000" d="M 416 313 L 1271 313" stroke-miterlimit="10"/></g><g transform="translate(-14,-6) scale(1,1)"><path fill="#000000" stroke="none" d="M 1260.837325142376 317.209517756016 L 1271 313 L 1260.837325142376 308.790482243984"/></g><g transform="translate(-14,-6) scale(1,1)"><path fill="none" stroke="#000000" d="M 1260.837325142376 317.209517756016 L 1271 313 L 1260.837325142376 308.790482243984 L 1260.837325142376 317.209517756016" stroke-miterlimit="10"/></g><g transform="translate(-14,-6) scale(1,1)"><g><path fill="none" stroke="none"/><text fill="#000000" stroke="none" font-family="Arial" font-size="13px" font-style="normal" font-weight="normal" text-decoration="none" x="801" y="310">6 : getInstance</text></g></g><g transform="translate(-14,-6) scale(1,1)"><rect fill="#ffffff" stroke="none" x="1271" y="313" width="13" height="79"/></g><g transform="translate(-14,-6) scale(1,1)"><path fill="none" stroke="#000000" d="M 1271 313 L 1284 313 L 1284 392 L 1271 392 L 1271 313 Z Z" stroke-miterlimit="10"/></g><g transform="translate(-14,-6) scale(1,1)"><path fill="none" stroke="#000000" d="M 1284 320 L 1434 320" stroke-miterlimit="10"/></g><g transform="translate(-14,-6) scale(1,1)"><path fill="#000000" stroke="none" d="M 1423.837325142376 324.209517756016 L 1434 320 L 1423.837325142376 315.790482243984"/></g><g transform="translate(-14,-6) scale(1,1)"><path fill="none" stroke="#000000" d="M 1423.837325142376 324.209517756016 L 1434 320 L 1423.837325142376 315.790482243984 L 1423.837325142376 324.209517756016" stroke-miterlimit="10"/></g><g transform="translate(-14,-6) scale(1,1)"><g><path fill="none" stroke="none"/><text fill="#000000" stroke="none" font-family="Arial" font-size="13px" font-style="normal" font-weight="normal" text-decoration="none" x="1301" y="317">7 : new GsonBuilder</text></g></g><g transform="translate(-14,-6) scale(1,1)"><rect fill="#ffffff" stroke="none" x="1434" y="320" width="13" height="28"/></g><g transform="translate(-14,-6) scale(1,1)"><path fill="none" stroke="#000000" d="M 1434 320 L 1447 320 L 1447 348 L 1434 348 L 1434 320 Z Z" stroke-miterlimit="10"/></g><g transform="translate(-14,-6) scale(1,1)"><path fill="none" stroke="#000000" d="M 1434 336 L 1284 336" stroke-miterlimit="10" stroke-dasharray="3"/></g><g transform="translate(-14,-6) scale(1,1)"><path fill="none" stroke="#000000" d="M 1294.162674857624 331.790482243984 L 1284 336 L 1294.162674857624 340.209517756016" stroke-miterlimit="10"/></g><g transform="translate(-14,-6) scale(1,1)"><g><path fill="none" stroke="none"/><text fill="#000000" stroke="none" font-family="Arial" font-size="13px" font-style="normal" font-weight="normal" text-decoration="none" x="1334" y="353">8 : Gson</text></g></g><g transform="translate(-14,-6) scale(1,1)"><path fill="none" stroke="#000000" d="M 1284 368 L 1605 368" stroke-miterlimit="10"/></g><g transform="translate(-14,-6) scale(1,1)"><path fill="#000000" stroke="none" d="M 1594.837325142376 372.209517756016 L 1605 368 L 1594.837325142376 363.790482243984"/></g><g transform="translate(-14,-6) scale(1,1)"><path fill="none" stroke="#000000" d="M 1594.837325142376 372.209517756016 L 1605 368 L 1594.837325142376 363.790482243984 L 1594.837325142376 372.209517756016" stroke-miterlimit="10"/></g><g transform="translate(-14,-6) scale(1,1)"><g><path fill="none" stroke="none"/><text fill="#000000" stroke="none" font-family="Arial" font-size="13px" font-style="normal" font-weight="normal" text-decoration="none" x="1379" y="365">9 : new Retrofit.Builder</text></g></g><g transform="translate(-14,-6) scale(1,1)"><rect fill="#ffffff" stroke="none" x="1605" y="368" width="13" height="28"/></g><g transform="translate(-14,-6) scale(1,1)"><path fill="none" stroke="#000000" d="M 1605 368 L 1618 368 L 1618 396 L 1605 396 L 1605 368 Z Z" stroke-miterlimit="10"/></g><g transform="translate(-14,-6) scale(1,1)"><path fill="none" stroke="#000000" d="M 1271 384 L 416 384" stroke-miterlimit="10" stroke-dasharray="3"/></g><g transform="translate(-14,-6) scale(1,1)"><path fill="none" stroke="#000000" d="M 426.16267485762415 379.790482243984 L 416 384 L 426.16267485762415 388.209517756016" stroke-miterlimit="10"/></g><g transform="translate(-14,-6) scale(1,1)"><g><path fill="none" stroke="none"/><text fill="#000000" stroke="none" font-family="Arial" font-size="13px" font-style="normal" font-weight="normal" text-decoration="none" x="809" y="401">10 : Retrofit</text></g></g><g transform="translate(-14,-6) scale(1,1)"><path fill="none" stroke="#000000" d="M 1605 384 L 1284 384" stroke-miterlimit="10" stroke-dasharray="3"/></g><g transform="translate(-14,-6) scale(1,1)"><path fill="none" stroke="#000000" d="M 1294.162674857624 379.790482243984 L 1284 384 L 1294.162674857624 388.209517756016" stroke-miterlimit="10"/></g><g transform="translate(-14,-6) scale(1,1)"><g><path fill="none" stroke="none"/><text fill="#000000" stroke="none" font-family="Arial" font-size="13px" font-style="normal" font-weight="normal" text-decoration="none" x="1410" y="380">11 : Retrofit</text></g></g><g transform="translate(-14,-6) scale(1,1)"><path fill="none" stroke="#000000" d="M 416 400 L 446 400 L 446 420 L 423 420" stroke-miterlimit="10"/></g><g transform="translate(-14,-6) scale(1,1)"><path fill="#000000" stroke="none" d="M 433.16267485762415 415.790482243984 L 423 420 L 433.16267485762415 424.209517756016"/></g><g transform="translate(-14,-6) scale(1,1)"><path fill="none" stroke="#000000" d="M 433.16267485762415 415.790482243984 L 423 420 L 433.16267485762415 424.209517756016 L 433.16267485762415 415.790482243984" stroke-miterlimit="10"/></g><g transform="translate(-14,-6) scale(1,1)"><g><path fill="none" stroke="none"/><text fill="#000000" stroke="none" font-family="Arial" font-size="13px" font-style="normal" font-weight="normal" text-decoration="none" x="456" y="416">12 : callRest(customers: List&lt;Customer&gt;)</text></g></g><g transform="translate(-14,-6) scale(1,1)"><rect fill="#ffffff" stroke="none" x="410" y="420" width="13" height="476"/></g><g transform="translate(-14,-6) scale(1,1)"><path fill="none" stroke="#000000" d="M 410 420 L 423 420 L 423 896 L 410 896 L 410 420 Z Z" stroke-miterlimit="10"/></g><g transform="translate(-14,-6) scale(1,1)"><path fill="none" stroke="#000000" d="M 423 544 L 1965 544" stroke-miterlimit="10"/></g><g transform="translate(-14,-6) scale(1,1)"><path fill="none" stroke="#000000" d="M 1954.837325142376 548.209517756016 L 1965 544 L 1954.837325142376 539.790482243984" stroke-miterlimit="10"/></g><g transform="translate(-14,-6) scale(1,1)"><g><path fill="none" stroke="none"/><text fill="#000000" stroke="none" font-family="Arial" font-size="13px" font-style="normal" font-weight="normal" text-decoration="none" x="1141" y="541">13 : getCustomers</text></g></g><g transform="translate(-14,-6) scale(1,1)"><rect fill="#ffffff" stroke="none" x="1965" y="544" width="13" height="248"/></g><g transform="translate(-14,-6) scale(1,1)"><path fill="none" stroke="#000000" d="M 1965 544 L 1978 544 L 1978 792 L 1965 792 L 1965 544 Z Z" stroke-miterlimit="10"/></g><g transform="translate(-14,-6) scale(1,1)"><path fill="none" stroke="#000000" d="M 1978 558 L 2656 558" stroke-miterlimit="10"/></g><g transform="translate(-14,-6) scale(1,1)"><path fill="#000000" stroke="none" d="M 2645.837325142376 562.209517756016 L 2656 558 L 2645.837325142376 553.790482243984"/></g><g transform="translate(-14,-6) scale(1,1)"><path fill="none" stroke="#000000" d="M 2645.837325142376 562.209517756016 L 2656 558 L 2645.837325142376 553.790482243984 L 2645.837325142376 562.209517756016" stroke-miterlimit="10"/></g><g transform="translate(-14,-6) scale(1,1)"><g><path fill="none" stroke="none"/><text fill="#000000" stroke="none" font-family="Arial" font-size="13px" font-style="normal" font-weight="normal" text-decoration="none" x="2124" y="555">14 : new IndependantDAO(MongoDataStoreConfig.getDataStore())</text></g></g><g transform="translate(-14,-6) scale(1,1)"><rect fill="#ffffff" stroke="none" x="2656" y="558" width="13" height="28"/></g><g transform="translate(-14,-6) scale(1,1)"><path fill="none" stroke="#000000" d="M 2656 558 L 2669 558 L 2669 586 L 2656 586 L 2656 558 Z Z" stroke-miterlimit="10"/></g><g transform="translate(-14,-6) scale(1,1)"><path fill="none" stroke="#000000" d="M 2663 586 L 1978 586" stroke-miterlimit="10" stroke-dasharray="3"/></g><g transform="translate(-14,-6) scale(1,1)"><path fill="none" stroke="#000000" d="M 1988.162674857624 581.790482243984 L 1978 586 L 1988.162674857624 590.209517756016" stroke-miterlimit="10"/></g><g transform="translate(-14,-6) scale(1,1)"><g><path fill="none" stroke="none"/><text fill="#000000" stroke="none" font-family="Arial" font-size="13px" font-style="normal" font-weight="normal" text-decoration="none" x="2240" y="579">15 : independantDAO</text></g></g><g transform="translate(-14,-6) scale(1,1)"><path fill="none" stroke="#000000" d="M 1978 604 L 2458 604" stroke-miterlimit="10"/></g><g transform="translate(-14,-6) scale(1,1)"><path fill="#000000" stroke="none" d="M 2447.837325142376 608.209517756016 L 2458 604 L 2447.837325142376 599.790482243984"/></g><g transform="translate(-14,-6) scale(1,1)"><path fill="none" stroke="#000000" d="M 2447.837325142376 608.209517756016 L 2458 604 L 2447.837325142376 599.790482243984 L 2447.837325142376 608.209517756016" stroke-miterlimit="10"/></g><g transform="translate(-14,-6) scale(1,1)"><g><path fill="none" stroke="none"/><text fill="#000000" stroke="none" font-family="Arial" font-size="13px" font-style="normal" font-weight="normal" text-decoration="none" x="2023" y="601">16 : new HealthCenterDAO(MongoDataStoreConfig.getDataStore())</text></g></g><g transform="translate(-14,-6) scale(1,1)"><rect fill="#ffffff" stroke="none" x="2458" y="604" width="13" height="28"/></g><g transform="translate(-14,-6) scale(1,1)"><path fill="none" stroke="#000000" d="M 2458 604 L 2471 604 L 2471 632 L 2458 632 L 2458 604 Z Z" stroke-miterlimit="10"/></g><g transform="translate(-14,-6) scale(1,1)"><path fill="none" stroke="#000000" d="M 2458 627 L 1978 627" stroke-miterlimit="10" stroke-dasharray="3"/></g><g transform="translate(-14,-6) scale(1,1)"><path fill="none" stroke="#000000" d="M 1988.162674857624 622.790482243984 L 1978 627 L 1988.162674857624 631.209517756016" stroke-miterlimit="10"/></g><g transform="translate(-14,-6) scale(1,1)"><g><path fill="none" stroke="none"/><text fill="#000000" stroke="none" font-family="Arial" font-size="13px" font-style="normal" font-weight="normal" text-decoration="none" x="2145" y="620">17 : healthCenterDAO</text></g></g><g transform="translate(-14,-6) scale(1,1)"><path fill="none" stroke="#000000" d="M 1978 660 L 2294 660" stroke-miterlimit="10"/></g><g transform="translate(-14,-6) scale(1,1)"><path fill="none" stroke="#000000" d="M 2283.837325142376 664.209517756016 L 2294 660 L 2283.837325142376 655.790482243984" stroke-miterlimit="10"/></g><g transform="translate(-14,-6) scale(1,1)"><g><path fill="none" stroke="none"/><text fill="#000000" stroke="none" font-family="Arial" font-size="13px" font-style="normal" font-weight="normal" text-decoration="none" x="2039" y="657">18 : new ResponseRestCustomer</text></g></g><g transform="translate(-14,-6) scale(1,1)"><rect fill="#ffffff" stroke="none" x="2294" y="660" width="13" height="140"/></g><g transform="translate(-14,-6) scale(1,1)"><path fill="none" stroke="#000000" d="M 2294 660 L 2307 660 L 2307 800 L 2294 800 L 2294 660 Z Z" stroke-miterlimit="10"/></g><g transform="translate(-14,-6) scale(1,1)"><path fill="none" stroke="#000000" d="M 2294 683 L 1978 683" stroke-miterlimit="10" stroke-dasharray="3"/></g><g transform="translate(-14,-6) scale(1,1)"><path fill="none" stroke="#000000" d="M 1988.162674857624 678.790482243984 L 1978 683 L 1988.162674857624 687.209517756016" stroke-miterlimit="10"/></g><g transform="translate(-14,-6) scale(1,1)"><g><path fill="none" stroke="none"/><text fill="#000000" stroke="none" font-family="Arial" font-size="13px" font-style="normal" font-weight="normal" text-decoration="none" x="2055" y="700">19 : responseRestCustomer</text></g></g><g transform="translate(-14,-6) scale(1,1)"><path fill="none" stroke="#000000" d="M 1978 720 L 2301 720" stroke-miterlimit="10"/></g><g transform="translate(-14,-6) scale(1,1)"><path fill="#000000" stroke="none" d="M 2290.837325142376 724.209517756016 L 2301 720 L 2290.837325142376 715.790482243984"/></g><g transform="translate(-14,-6) scale(1,1)"><path fill="none" stroke="#000000" d="M 2290.837325142376 724.209517756016 L 2301 720 L 2290.837325142376 715.790482243984 L 2290.837325142376 724.209517756016" stroke-miterlimit="10"/></g><g transform="translate(-14,-6) scale(1,1)"><g><path fill="none" stroke="none"/><text fill="#000000" stroke="none" font-family="Arial" font-size="13px" font-style="normal" font-weight="normal" text-decoration="none" x="1984" y="717">20 : setIndependants(independantDAO.findAllWithoutUserId(iduser): List&lt;Independant&gt; )</text></g></g><g transform="translate(-14,-6) scale(1,1)"><rect fill="#ffffff" stroke="none" x="2301" y="720" width="13" height="28"/></g><g transform="translate(-14,-6) scale(1,1)"><path fill="none" stroke="#000000" d="M 2301 720 L 2314 720 L 2314 748 L 2301 748 L 2301 720 Z Z" stroke-miterlimit="10"/></g><g transform="translate(-14,-6) scale(1,1)"><path fill="none" stroke="#000000" d="M 1978 767 L 2301 767" stroke-miterlimit="10"/></g><g transform="translate(-14,-6) scale(1,1)"><path fill="#000000" stroke="none" d="M 2290.837325142376 771.209517756016 L 2301 767 L 2290.837325142376 762.790482243984"/></g><g transform="translate(-14,-6) scale(1,1)"><path fill="none" stroke="#000000" d="M 2290.837325142376 771.209517756016 L 2301 767 L 2290.837325142376 762.790482243984 L 2290.837325142376 771.209517756016" stroke-miterlimit="10"/></g><g transform="translate(-14,-6) scale(1,1)"><g><path fill="none" stroke="none"/><text fill="#000000" stroke="none" font-family="Arial" font-size="13px" font-style="normal" font-weight="normal" text-decoration="none" x="1985" y="765">21 : setHealthCenters(healthCenterDAO.findAllWithoutUserId(iduser) :List&lt;HealthCenter&gt;)</text></g></g><g transform="translate(-14,-6) scale(1,1)"><rect fill="#ffffff" stroke="none" x="2301" y="767" width="13" height="28"/></g><g transform="translate(-14,-6) scale(1,1)"><path fill="none" stroke="#000000" d="M 2301 767 L 2314 767 L 2314 795 L 2301 795 L 2301 767 Z Z" stroke-miterlimit="10"/></g><g transform="translate(-14,-6) scale(1,1)"><path fill="none" stroke="#000000" d="M 1972 792 L 423 792" stroke-miterlimit="10" stroke-dasharray="3"/></g><g transform="translate(-14,-6) scale(1,1)"><path fill="none" stroke="#000000" d="M 433.16267485762415 787.790482243984 L 423 792 L 433.16267485762415 796.209517756016" stroke-miterlimit="10"/></g><g transform="translate(-14,-6) scale(1,1)"><g><path fill="none" stroke="none"/><text fill="#000000" stroke="none" font-family="Arial" font-size="13px" font-style="normal" font-weight="normal" text-decoration="none" x="1115" y="788">22 : responseRestCustomer</text></g></g><g transform="translate(-14,-6) scale(1,1)"><path fill="none" stroke="#000000" d="M 423 800 L 453 800 L 453 820 L 430 820" stroke-miterlimit="10"/></g><g transform="translate(-14,-6) scale(1,1)"><path fill="#000000" stroke="none" d="M 440.16267485762415 815.790482243984 L 430 820 L 440.16267485762415 824.209517756016"/></g><g transform="translate(-14,-6) scale(1,1)"><path fill="none" stroke="#000000" d="M 440.16267485762415 815.790482243984 L 430 820 L 440.16267485762415 824.209517756016 L 440.16267485762415 815.790482243984" stroke-miterlimit="10"/></g><g transform="translate(-14,-6) scale(1,1)"><g><path fill="none" stroke="none"/><text fill="#000000" stroke="none" font-family="Arial" font-size="13px" font-style="normal" font-weight="normal" text-decoration="none" x="504" y="816">23 : initAdapter(customers: List&lt;Customer&gt;)</text></g></g><g transform="translate(-14,-6) scale(1,1)"><rect fill="#ffffff" stroke="none" x="417" y="820" width="13" height="68"/></g><g transform="translate(-14,-6) scale(1,1)"><path fill="none" stroke="#000000" d="M 417 820 L 430 820 L 430 888 L 417 888 L 417 820 Z Z" stroke-miterlimit="10"/></g><g transform="translate(-14,-6) scale(1,1)"><path fill="none" stroke="#000000" d="M 430 848 L 861 848" stroke-miterlimit="10"/></g><g transform="translate(-14,-6) scale(1,1)"><path fill="#000000" stroke="none" d="M 850.8373251423759 852.209517756016 L 861 848 L 850.8373251423758 843.790482243984"/></g><g transform="translate(-14,-6) scale(1,1)"><path fill="none" stroke="#000000" d="M 850.8373251423759 852.209517756016 L 861 848 L 850.8373251423758 843.790482243984 L 850.8373251423759 852.209517756016" stroke-miterlimit="10"/></g><g transform="translate(-14,-6) scale(1,1)"><g><path fill="none" stroke="none"/><text fill="#000000" stroke="none" font-family="Arial" font-size="13px" font-style="normal" font-weight="normal" text-decoration="none" x="533" y="845">24 : new ListCustomerAdapter(customers,context)</text></g></g><g transform="translate(-14,-6) scale(1,1)"><rect fill="#ffffff" stroke="none" x="861" y="848" width="13" height="48"/></g><g transform="translate(-14,-6) scale(1,1)"><path fill="none" stroke="#000000" d="M 861 848 L 874 848 L 874 896 L 861 896 L 861 848 Z Z" stroke-miterlimit="10"/></g><g transform="translate(-14,-6) scale(1,1)"><path fill="none" stroke="#000000" d="M 874 856 L 1088 856" stroke-miterlimit="10"/></g><g transform="translate(-14,-6) scale(1,1)"><path fill="#000000" stroke="none" d="M 1077.837325142376 860.209517756016 L 1088 856 L 1077.837325142376 851.790482243984"/></g><g transform="translate(-14,-6) scale(1,1)"><path fill="none" stroke="#000000" d="M 1077.837325142376 860.209517756016 L 1088 856 L 1077.837325142376 851.790482243984 L 1077.837325142376 860.209517756016" stroke-miterlimit="10"/></g><g transform="translate(-14,-6) scale(1,1)"><g><path fill="none" stroke="none"/><text fill="#000000" stroke="none" font-family="Arial" font-size="13px" font-style="normal" font-weight="normal" text-decoration="none" x="880" y="853">25 : new CustomerListViewHolder(view, this)</text></g></g><g transform="translate(-14,-6) scale(1,1)"><rect fill="#ffffff" stroke="none" x="1088" y="856" width="13" height="28"/></g><g transform="translate(-14,-6) scale(1,1)"><path fill="none" stroke="#000000" d="M 1088 856 L 1101 856 L 1101 884 L 1088 884 L 1088 856 Z Z" stroke-miterlimit="10"/></g><g transform="translate(-14,-6) scale(1,1)"><path fill="none" stroke="#000000" d="M 1088 877 L 874 877" stroke-miterlimit="10" stroke-dasharray="3"/></g><g transform="translate(-14,-6) scale(1,1)"><path fill="none" stroke="#000000" d="M 884.1626748576241 872.790482243984 L 874 877 L 884.1626748576241 881.209517756016" stroke-miterlimit="10"/></g><g transform="translate(-14,-6) scale(1,1)"><g><path fill="none" stroke="none"/><text fill="#000000" stroke="none" font-family="Arial" font-size="13px" font-style="normal" font-weight="normal" text-decoration="none" x="896" y="894">26 : CustomerListViewHolder</text></g></g><g transform="translate(-14,-6) scale(1,1)"><path fill="none" stroke="#000000" d="M 861 888 L 430 888" stroke-miterlimit="10" stroke-dasharray="3"/></g><g transform="translate(-14,-6) scale(1,1)"><path fill="none" stroke="#000000" d="M 440.16267485762415 883.790482243984 L 430 888 L 440.16267485762415 892.209517756016" stroke-miterlimit="10"/></g><g transform="translate(-14,-6) scale(1,1)"><g><path fill="none" stroke="none"/><text fill="#000000" stroke="none" font-family="Arial" font-size="13px" font-style="normal" font-weight="normal" text-decoration="none" x="571" y="905">27 : ListCustomerAdapter</text></g></g><g transform="translate(-14,-6) scale(1,1)"><path fill="none" stroke="#000000" d="M 416 936 L 446 936 L 446 956 L 423 956" stroke-miterlimit="10"/></g><g transform="translate(-14,-6) scale(1,1)"><path fill="#000000" stroke="none" d="M 433.16267485762415 951.790482243984 L 423 956 L 433.16267485762415 960.209517756016"/></g><g transform="translate(-14,-6) scale(1,1)"><path fill="none" stroke="#000000" d="M 433.16267485762415 951.790482243984 L 423 956 L 433.16267485762415 960.209517756016 L 433.16267485762415 951.790482243984" stroke-miterlimit="10"/></g><g transform="translate(-14,-6) scale(1,1)"><g><path fill="none" stroke="none"/><text fill="#000000" stroke="none" font-family="Arial" font-size="13px" font-style="normal" font-weight="normal" text-decoration="none" x="488" y="949">28 : initAdapter(customers: List&lt;Customer&gt;)</text></g></g><g transform="translate(-14,-6) scale(1,1)"><rect fill="#ffffff" stroke="none" x="410" y="956" width="13" height="100"/></g><g transform="translate(-14,-6) scale(1,1)"><path fill="none" stroke="#000000" d="M 410 956 L 423 956 L 423 1056 L 410 1056 L 410 956 Z Z" stroke-miterlimit="10"/></g><g transform="translate(-14,-6) scale(1,1)"><path fill="none" stroke="#000000" d="M 423 1002 L 861 1002" stroke-miterlimit="10"/></g><g transform="translate(-14,-6) scale(1,1)"><path fill="#000000" stroke="none" d="M 850.8373251423759 1006.209517756016 L 861 1002 L 850.8373251423758 997.790482243984"/></g><g transform="translate(-14,-6) scale(1,1)"><path fill="none" stroke="#000000" d="M 850.8373251423759 1006.209517756016 L 861 1002 L 850.8373251423758 997.790482243984 L 850.8373251423759 1006.209517756016" stroke-miterlimit="10"/></g><g transform="translate(-14,-6) scale(1,1)"><g><path fill="none" stroke="none"/><text fill="#000000" stroke="none" font-family="Arial" font-size="13px" font-style="normal" font-weight="normal" text-decoration="none" x="497" y="998">29 : new ListCustomerAdapter(customers,context)</text></g></g><g transform="translate(-14,-6) scale(1,1)"><rect fill="#ffffff" stroke="none" x="861" y="1002" width="13" height="46"/></g><g transform="translate(-14,-6) scale(1,1)"><path fill="none" stroke="#000000" d="M 861 1002 L 874 1002 L 874 1048 L 861 1048 L 861 1002 Z Z" stroke-miterlimit="10"/></g><g transform="translate(-14,-6) scale(1,1)"><path fill="none" stroke="#000000" d="M 874 1010 L 1088 1010" stroke-miterlimit="10"/></g><g transform="translate(-14,-6) scale(1,1)"><path fill="#000000" stroke="none" d="M 1077.837325142376 1014.209517756016 L 1088 1010 L 1077.837325142376 1005.790482243984"/></g><g transform="translate(-14,-6) scale(1,1)"><path fill="none" stroke="#000000" d="M 1077.837325142376 1014.209517756016 L 1088 1010 L 1077.837325142376 1005.790482243984 L 1077.837325142376 1014.209517756016" stroke-miterlimit="10"/></g><g transform="translate(-14,-6) scale(1,1)"><g><path fill="none" stroke="none"/><text fill="#000000" stroke="none" font-family="Arial" font-size="13px" font-style="normal" font-weight="normal" text-decoration="none" x="859" y="1005">30 : new CustomerListViewHolder(view,this)</text></g></g><g transform="translate(-14,-6) scale(1,1)"><rect fill="#ffffff" stroke="none" x="1088" y="1010" width="13" height="28"/></g><g transform="translate(-14,-6) scale(1,1)"><path fill="none" stroke="#000000" d="M 1088 1010 L 1101 1010 L 1101 1038 L 1088 1038 L 1088 1010 Z Z" stroke-miterlimit="10"/></g><g transform="translate(-14,-6) scale(1,1)"><path fill="none" stroke="#000000" d="M 1088 1028 L 874 1028" stroke-miterlimit="10" stroke-dasharray="3"/></g><g transform="translate(-14,-6) scale(1,1)"><path fill="none" stroke="#000000" d="M 884.1626748576241 1023.790482243984 L 874 1028 L 884.1626748576241 1032.2095177560159" stroke-miterlimit="10"/></g><g transform="translate(-14,-6) scale(1,1)"><g><path fill="none" stroke="none"/><text fill="#000000" stroke="none" font-family="Arial" font-size="13px" font-style="normal" font-weight="normal" text-decoration="none" x="896" y="1045">31 : CustomerListViewHolder</text></g></g><g transform="translate(-14,-6) scale(1,1)"><path fill="none" stroke="#000000" d="M 861 1040 L 423 1040" stroke-miterlimit="10" stroke-dasharray="3"/></g><g transform="translate(-14,-6) scale(1,1)"><path fill="none" stroke="#000000" d="M 433.16267485762415 1035.7904822439841 L 423 1040 L 433.16267485762415 1044.2095177560159" stroke-miterlimit="10"/></g><g transform="translate(-14,-6) scale(1,1)"><g><path fill="none" stroke="none"/><text fill="#000000" stroke="none" font-family="Arial" font-size="13px" font-style="normal" font-weight="normal" text-decoration="none" x="564" y="1036">32 : ListCustomerAdapter</text></g></g><g transform="translate(-14,-6) scale(1,1)"><path fill="none" stroke="#000000" d="M 410 1104 L 126 1104" stroke-miterlimit="10" stroke-dasharray="3"/></g><g transform="translate(-14,-6) scale(1,1)"><path fill="none" stroke="#000000" d="M 136.16267485762415 1099.7904822439841 L 126 1104 L 136.16267485762415 1108.2095177560159" stroke-miterlimit="10"/></g><g transform="translate(-14,-6) scale(1,1)"><g><path fill="none" stroke="none"/><text fill="#000000" stroke="none" font-family="Arial" font-size="13px" font-style="normal" font-weight="normal" text-decoration="none" x="217" y="1121">33 : ListCustomer</text></g></g></g></svg>