<svg version="1.1" xmlns="http://www.w3.org/2000/svg" xmlns:xlink="http://www.w3.org/1999/xlink" width="697.64990234375" height="312"><defs/><g><g transform="translate(-38,-46) scale(1,1)"><rect fill="#C0C0C0" stroke="none" x="143" y="183" width="127.45361328125" height="44" opacity="0.2"/></g><g transform="translate(-38,-46) scale(1,1)"><rect fill="#ffffff" stroke="none" x="136" y="176" width="127.45361328125" height="44"/></g><g transform="translate(-38,-46) scale(1,1)"><path fill="none" stroke="#000000" d="M 136 176 L 263.45361328125 176 L 263.45361328125 220 L 136 220 L 136 176 Z Z" stroke-miterlimit="10"/></g><g transform="translate(-38,-46) scale(1,1)"><path fill="none" stroke="#000000" d="M 136 201 L 263.45361328125 201" stroke-miterlimit="10"/></g><g transform="translate(-38,-46) scale(1,1)"><path fill="none" stroke="#000000" d="M 136 211 L 263.45361328125 211" stroke-miterlimit="10"/></g><g transform="translate(-38,-46) scale(1,1)"><g><path fill="none" stroke="none"/><text fill="#000000" stroke="none" font-family="Arial" font-size="13px" font-style="normal" font-weight="bold" text-decoration="none" x="145.17822265625" y="195.5">ClientListFragment</text></g></g><g transform="translate(-38,-46) scale(1,1)"><rect fill="#C0C0C0" stroke="none" x="327" y="183" width="113.75537109375" height="44" opacity="0.2"/></g><g transform="translate(-38,-46) scale(1,1)"><rect fill="#ffffff" stroke="none" x="320" y="176" width="113.75537109375" height="44"/></g><g transform="translate(-38,-46) scale(1,1)"><path fill="none" stroke="#000000" d="M 320 176 L 433.75537109375 176 L 433.75537109375 220 L 320 220 L 320 176 Z Z" stroke-miterlimit="10"/></g><g transform="translate(-38,-46) scale(1,1)"><path fill="none" stroke="#000000" d="M 320 201 L 433.75537109375 201" stroke-miterlimit="10"/></g><g transform="translate(-38,-46) scale(1,1)"><path fill="none" stroke="#000000" d="M 320 211 L 433.75537109375 211" stroke-miterlimit="10"/></g><g transform="translate(-38,-46) scale(1,1)"><g><path fill="none" stroke="none"/><text fill="#000000" stroke="none" font-family="Arial" font-size="13px" font-style="normal" font-weight="bold" text-decoration="none" x="328.844970703125" y="195.5">CrvHomeActivity</text></g></g><g transform="translate(-38,-46) scale(1,1)"><rect fill="#C0C0C0" stroke="none" x="463" y="183" width="118.103515625" height="44" opacity="0.2"/></g><g transform="translate(-38,-46) scale(1,1)"><rect fill="#ffffff" stroke="none" x="456" y="176" width="118.103515625" height="44"/></g><g transform="translate(-38,-46) scale(1,1)"><path fill="none" stroke="#000000" d="M 456 176 L 574.103515625 176 L 574.103515625 220 L 456 220 L 456 176 Z Z" stroke-miterlimit="10"/></g><g transform="translate(-38,-46) scale(1,1)"><path fill="none" stroke="#000000" d="M 456 201 L 574.103515625 201" stroke-miterlimit="10"/></g><g transform="translate(-38,-46) scale(1,1)"><path fill="none" stroke="#000000" d="M 456 211 L 574.103515625 211" stroke-miterlimit="10"/></g><g transform="translate(-38,-46) scale(1,1)"><g><path fill="none" stroke="none"/><text fill="#000000" stroke="none" font-family="Arial" font-size="13px" font-style="normal" font-weight="bold" text-decoration="none" x="464.84814453125" y="195.5">CreateCrvActivity</text></g></g><g transform="translate(-38,-46) scale(1,1)"><rect fill="#C0C0C0" stroke="none" x="175" y="63" width="68.22998046875" height="44" opacity="0.2"/></g><g transform="translate(-38,-46) scale(1,1)"><rect fill="#ffffff" stroke="none" x="168" y="56" width="68.22998046875" height="44"/></g><g transform="translate(-38,-46) scale(1,1)"><path fill="none" stroke="#000000" d="M 168 56 L 236.22998046875 56 L 236.22998046875 100 L 168 100 L 168 56 Z Z" stroke-miterlimit="10"/></g><g transform="translate(-38,-46) scale(1,1)"><path fill="none" stroke="#000000" d="M 168 81 L 236.22998046875 81" stroke-miterlimit="10"/></g><g transform="translate(-38,-46) scale(1,1)"><path fill="none" stroke="#000000" d="M 168 91 L 236.22998046875 91" stroke-miterlimit="10"/></g><g transform="translate(-38,-46) scale(1,1)"><g><path fill="none" stroke="none"/><text fill="#000000" stroke="none" font-family="Arial" font-size="13px" font-style="normal" font-weight="bold" text-decoration="none" x="174.299560546875" y="75.5">Fragment</text></g></g><g transform="translate(-38,-46) scale(1,1)"><rect fill="#C0C0C0" stroke="none" x="423" y="63" width="55.9599609375" height="44" opacity="0.2"/></g><g transform="translate(-38,-46) scale(1,1)"><rect fill="#ffffff" stroke="none" x="416" y="56" width="55.9599609375" height="44"/></g><g transform="translate(-38,-46) scale(1,1)"><path fill="none" stroke="#000000" d="M 416 56 L 471.9599609375 56 L 471.9599609375 100 L 416 100 L 416 56 Z Z" stroke-miterlimit="10"/></g><g transform="translate(-38,-46) scale(1,1)"><path fill="none" stroke="#000000" d="M 416 81 L 471.9599609375 81" stroke-miterlimit="10"/></g><g transform="translate(-38,-46) scale(1,1)"><path fill="none" stroke="#000000" d="M 416 91 L 471.9599609375 91" stroke-miterlimit="10"/></g><g transform="translate(-38,-46) scale(1,1)"><g><path fill="none" stroke="none"/><text fill="#000000" stroke="none" font-family="Arial" font-size="13px" font-style="normal" font-weight="bold" text-decoration="none" x="423.39453125" y="75.5">Activity</text></g></g><g transform="translate(-38,-46) scale(1,1)"><path fill="none" stroke="#000000" d="M 389 175 L 430 101" stroke-miterlimit="10"/></g><g transform="translate(-38,-46) scale(1,1)"><path fill="#FFFFFF" stroke="none" d="M 427.51379359963886 122.85906625944492 L 430 101 L 412.7852926124157 114.69868057733478"/></g><g transform="translate(-38,-46) scale(1,1)"><path fill="none" stroke="#000000" d="M 427.51379359963886 122.85906625944492 L 430 101 L 412.7852926124157 114.69868057733478 L 427.51379359963886 122.85906625944492" stroke-miterlimit="10"/></g><g transform="translate(-38,-46) scale(1,1)"><path fill="none" stroke="#000000" d="M 501 175 L 457 101" stroke-miterlimit="10"/></g><g transform="translate(-38,-46) scale(1,1)"><path fill="#FFFFFF" stroke="none" d="M 474.6242492561979 114.16760563486802 L 457 101 L 460.1513229259741 122.77312939878487"/></g><g transform="translate(-38,-46) scale(1,1)"><path fill="none" stroke="#000000" d="M 474.6242492561979 114.16760563486802 L 457 101 L 460.1513229259741 122.77312939878487 L 474.6242492561979 114.16760563486802" stroke-miterlimit="10"/></g><g transform="translate(-38,-46) scale(1,1)"><path fill="none" stroke="#000000" d="M 200 175 L 201 101" stroke-miterlimit="10"/></g><g transform="translate(-38,-46) scale(1,1)"><path fill="#FFFFFF" stroke="none" d="M 209.1436250836913 121.43725447549826 L 201 101 L 192.30709129165902 121.20973374857891"/></g><g transform="translate(-38,-46) scale(1,1)"><path fill="none" stroke="#000000" d="M 209.1436250836913 121.43725447549826 L 201 101 L 192.30709129165902 121.20973374857891 L 209.1436250836913 121.43725447549826" stroke-miterlimit="10"/></g><g transform="translate(-38,-46) scale(1,1)"><path fill="none" stroke="#000000" d="M 264 198 L 319 198" stroke-miterlimit="10"/></g><g transform="translate(-38,-46) scale(1,1)"><rect fill="#C0C0C0" stroke="none" x="463" y="311" width="115.9072265625" height="44" opacity="0.2"/></g><g transform="translate(-38,-46) scale(1,1)"><rect fill="#ffffff" stroke="none" x="456" y="304" width="115.9072265625" height="44"/></g><g transform="translate(-38,-46) scale(1,1)"><path fill="none" stroke="#000000" d="M 456 304 L 571.9072265625 304 L 571.9072265625 348 L 456 348 L 456 304 Z Z" stroke-miterlimit="10"/></g><g transform="translate(-38,-46) scale(1,1)"><path fill="none" stroke="#000000" d="M 456 329 L 571.9072265625 329" stroke-miterlimit="10"/></g><g transform="translate(-38,-46) scale(1,1)"><path fill="none" stroke="#000000" d="M 456 339 L 571.9072265625 339" stroke-miterlimit="10"/></g><g transform="translate(-38,-46) scale(1,1)"><g><path fill="none" stroke="none"/><text fill="#000000" stroke="none" font-family="Arial" font-size="13px" font-style="normal" font-weight="bold" text-decoration="none" x="463.7373046875" y="323.5">HttpRequestTask</text></g></g><g transform="translate(-38,-46) scale(1,1)"><rect fill="#C0C0C0" stroke="none" x="55" y="295" width="50.919921875" height="44" opacity="0.2"/></g><g transform="translate(-38,-46) scale(1,1)"><rect fill="#ffffff" stroke="none" x="48" y="288" width="50.919921875" height="44"/></g><g transform="translate(-38,-46) scale(1,1)"><path fill="none" stroke="#000000" d="M 48 288 L 98.919921875 288 L 98.919921875 332 L 48 332 L 48 288 Z Z" stroke-miterlimit="10"/></g><g transform="translate(-38,-46) scale(1,1)"><path fill="none" stroke="#000000" d="M 48 313 L 98.919921875 313" stroke-miterlimit="10"/></g><g transform="translate(-38,-46) scale(1,1)"><path fill="none" stroke="#000000" d="M 48 323 L 98.919921875 323" stroke-miterlimit="10"/></g><g transform="translate(-38,-46) scale(1,1)"><g><path fill="none" stroke="none"/><text fill="#000000" stroke="none" font-family="Arial" font-size="13px" font-style="normal" font-weight="bold" text-decoration="none" x="56.841796875" y="307.5">Client</text></g></g><g transform="translate(-38,-46) scale(1,1)"><rect fill="#C0C0C0" stroke="none" x="167" y="295" width="78.341796875" height="44" opacity="0.2"/></g><g transform="translate(-38,-46) scale(1,1)"><rect fill="#ffffff" stroke="none" x="160" y="288" width="78.341796875" height="44"/></g><g transform="translate(-38,-46) scale(1,1)"><path fill="none" stroke="#000000" d="M 160 288 L 238.341796875 288 L 238.341796875 332 L 160 332 L 160 288 Z Z" stroke-miterlimit="10"/></g><g transform="translate(-38,-46) scale(1,1)"><path fill="none" stroke="#000000" d="M 160 313 L 238.341796875 313" stroke-miterlimit="10"/></g><g transform="translate(-38,-46) scale(1,1)"><path fill="none" stroke="#000000" d="M 160 323 L 238.341796875 323" stroke-miterlimit="10"/></g><g transform="translate(-38,-46) scale(1,1)"><g><path fill="none" stroke="none"/><text fill="#000000" stroke="none" font-family="Arial" font-size="13px" font-style="normal" font-weight="bold" text-decoration="none" x="167.023193359375" y="307.5">MockClient</text></g></g><g transform="translate(-38,-46) scale(1,1)"><path fill="none" stroke="#000000" d="M 513 303 L 515 221" stroke-miterlimit="10"/></g><g transform="translate(-38,-46) scale(1,1)"><path fill="none" stroke="#000000" d="M 518.9604698026258 231.26229403898023 L 515 221 L 510.543937348628 231.05701275961445" stroke-miterlimit="10"/></g><g transform="translate(-38,-46) scale(1,1)"><path fill="none" stroke="#000000" d="M 199 287 L 199 221" stroke-miterlimit="10"/></g><g transform="translate(-38,-46) scale(1,1)"><path fill="none" stroke="#000000" d="M 203.209517756016 231.16267485762415 L 199 221 L 194.790482243984 231.16267485762415" stroke-miterlimit="10"/></g><g transform="translate(-38,-46) scale(1,1)"><path fill="none" stroke="#000000" d="M 99 287 L 173 221" stroke-miterlimit="10"/></g><g transform="translate(-38,-46) scale(1,1)"><path fill="none" stroke="#000000" d="M 168.21755966870643 230.90597115267437 L 173 221 L 162.61372463482792 224.62288338741664" stroke-miterlimit="10"/></g><g transform="translate(-38,-46) scale(1,1)"><path fill="none" stroke="#000000" d="M 100 310 L 159 310" stroke-miterlimit="10"/></g><g transform="translate(-38,-46) scale(1,1)"><path fill="none" stroke="#000000" d="M 148.83732514237585 314.209517756016 L 159 310 L 148.83732514237585 305.790482243984" stroke-miterlimit="10"/></g><g transform="translate(-38,-46) scale(1,1)"><rect fill="#C0C0C0" stroke="none" x="655" y="311" width="77.64990234375" height="44" opacity="0.2"/></g><g transform="translate(-38,-46) scale(1,1)"><rect fill="#ffffff" stroke="none" x="648" y="304" width="77.64990234375" height="44"/></g><g transform="translate(-38,-46) scale(1,1)"><path fill="none" stroke="#000000" d="M 648 304 L 725.64990234375 304 L 725.64990234375 348 L 648 348 L 648 304 Z Z" stroke-miterlimit="10"/></g><g transform="translate(-38,-46) scale(1,1)"><path fill="none" stroke="#000000" d="M 648 329 L 725.64990234375 329" stroke-miterlimit="10"/></g><g transform="translate(-38,-46) scale(1,1)"><path fill="none" stroke="#000000" d="M 648 339 L 725.64990234375 339" stroke-miterlimit="10"/></g><g transform="translate(-38,-46) scale(1,1)"><g><path fill="none" stroke="none"/><text fill="#000000" stroke="none" font-family="Arial" font-size="13px" font-style="normal" font-weight="bold" text-decoration="none" x="655.0390625" y="323.5">AsyncTask</text></g></g><g transform="translate(-38,-46) scale(1,1)"><path fill="none" stroke="#000000" d="M 573 326 L 647 326" stroke-miterlimit="10"/></g><g transform="translate(-38,-46) scale(1,1)"><path fill="#FFFFFF" stroke="none" d="M 626.6746502847517 334.419035512032 L 647 326 L 626.6746502847517 317.580964487968"/></g><g transform="translate(-38,-46) scale(1,1)"><path fill="none" stroke="#000000" d="M 626.6746502847517 334.419035512032 L 647 326 L 626.6746502847517 317.580964487968 L 626.6746502847517 334.419035512032" stroke-miterlimit="10"/></g></g></svg>