<svg version="1.1" xmlns="http://www.w3.org/2000/svg" xmlns:xlink="http://www.w3.org/1999/xlink" width="454.11181640625" height="392"><defs/><g><g transform="translate(-142,-54) scale(1,1)"><rect fill="#C0C0C0" stroke="none" x="159" y="279" width="99.2890625" height="44" opacity="0.2"/></g><g transform="translate(-142,-54) scale(1,1)"><rect fill="#ffffff" stroke="none" x="152" y="272" width="99.2890625" height="44"/></g><g transform="translate(-142,-54) scale(1,1)"><path fill="none" stroke="#000000" d="M 152 272 L 251.2890625 272 L 251.2890625 316 L 152 316 L 152 272 Z Z" stroke-miterlimit="10"/></g><g transform="translate(-142,-54) scale(1,1)"><path fill="none" stroke="#000000" d="M 152 297 L 251.2890625 297" stroke-miterlimit="10"/></g><g transform="translate(-142,-54) scale(1,1)"><path fill="none" stroke="#000000" d="M 152 307 L 251.2890625 307" stroke-miterlimit="10"/></g><g transform="translate(-142,-54) scale(1,1)"><g><path fill="none" stroke="none"/><text fill="#000000" stroke="none" font-family="Arial" font-size="13px" font-style="normal" font-weight="bold" text-decoration="none" x="160.102294921875" y="291.5">RestController</text></g></g><g transform="translate(-142,-54) scale(1,1)"><rect fill="#C0C0C0" stroke="none" x="471" y="279" width="105.7890625" height="44" opacity="0.2"/></g><g transform="translate(-142,-54) scale(1,1)"><rect fill="#ffffff" stroke="none" x="464" y="272" width="105.7890625" height="44"/></g><g transform="translate(-142,-54) scale(1,1)"><path fill="none" stroke="#000000" d="M 464 272 L 569.7890625 272 L 569.7890625 316 L 464 316 L 464 272 Z Z" stroke-miterlimit="10"/></g><g transform="translate(-142,-54) scale(1,1)"><path fill="none" stroke="#000000" d="M 464 297 L 569.7890625 297" stroke-miterlimit="10"/></g><g transform="translate(-142,-54) scale(1,1)"><path fill="none" stroke="#000000" d="M 464 307 L 569.7890625 307" stroke-miterlimit="10"/></g><g transform="translate(-142,-54) scale(1,1)"><g><path fill="none" stroke="none"/><text fill="#000000" stroke="none" font-family="Arial" font-size="13px" font-style="normal" font-weight="bold" text-decoration="none" x="471.378662109375" y="291.5">CrvMorphiaDao</text></g></g><g transform="translate(-142,-54) scale(1,1)"><path fill="#C0C0C0" stroke="none" d="M 398.7099609375 186.5 C 398.7099609375 180.1487248 403.8586857375 175 410.2099609375 175 C 416.5612361375 175 421.7099609375 180.1487248 421.7099609375 186.5 C 421.7099609375 192.8512752 416.5612361375 198 410.2099609375 198 C 403.8586857375 198 398.7099609375 192.8512752 398.7099609375 186.5 Z" opacity="0.2"/></g><g transform="translate(-142,-54) scale(1,1)"><path fill="#ffffff" stroke="none" d="M 391.7099609375 179.5 C 391.7099609375 173.1487248 396.8586857375 168 403.2099609375 168 C 409.5612361375 168 414.7099609375 173.1487248 414.7099609375 179.5 C 414.7099609375 185.8512752 409.5612361375 191 403.2099609375 191 C 396.8586857375 191 391.7099609375 185.8512752 391.7099609375 179.5 Z"/></g><g transform="translate(-142,-54) scale(1,1)"><path fill="none" stroke="#000000" d="M 391.7099609375 179.5 C 391.7099609375 173.1487248 396.8586857375 168 403.2099609375 168 C 409.5612361375 168 414.7099609375 173.1487248 414.7099609375 179.5 C 414.7099609375 185.8512752 409.5612361375 191 403.2099609375 191 C 396.8586857375 191 391.7099609375 185.8512752 391.7099609375 179.5 Z" stroke-miterlimit="10"/></g><g transform="translate(-142,-54) scale(1,1)"><g><path fill="none" stroke="none"/><text fill="#000000" stroke="none" font-family="Arial" font-size="13px" font-style="normal" font-weight="bold" text-decoration="none" x="384.4208984375" y="210.5">Config</text></g></g><g transform="translate(-142,-54) scale(1,1)"><rect fill="#C0C0C0" stroke="none" x="479" y="399" width="87.70458984375" height="44" opacity="0.2"/></g><g transform="translate(-142,-54) scale(1,1)"><rect fill="#a00000" stroke="none" x="472" y="392" width="87.70458984375" height="44"/></g><g transform="translate(-142,-54) scale(1,1)"><path fill="none" stroke="#000000" d="M 472 392 L 559.70458984375 392 L 559.70458984375 436 L 472 436 L 472 392 Z Z" stroke-miterlimit="10"/></g><g transform="translate(-142,-54) scale(1,1)"><path fill="none" stroke="#000000" d="M 472 417 L 559.70458984375 417" stroke-miterlimit="10"/></g><g transform="translate(-142,-54) scale(1,1)"><path fill="none" stroke="#000000" d="M 472 427 L 559.70458984375 427" stroke-miterlimit="10"/></g><g transform="translate(-142,-54) scale(1,1)"><g><path fill="none" stroke="none"/><text fill="#000000" stroke="none" font-family="Arial" font-size="13px" font-style="normal" font-weight="bold" text-decoration="none" x="487.671875" y="411.5">Datastore</text></g></g><g transform="translate(-142,-54) scale(1,1)"><rect fill="#C0C0C0" stroke="none" x="535" y="71" width="58.11181640625" height="44" opacity="0.2"/></g><g transform="translate(-142,-54) scale(1,1)"><rect fill="#ffffff" stroke="none" x="528" y="64" width="58.11181640625" height="44"/></g><g transform="translate(-142,-54) scale(1,1)"><path fill="none" stroke="#000000" d="M 528 64 L 586.11181640625 64 L 586.11181640625 108 L 528 108 L 528 64 Z Z" stroke-miterlimit="10"/></g><g transform="translate(-142,-54) scale(1,1)"><path fill="none" stroke="#000000" d="M 528 89 L 586.11181640625 89" stroke-miterlimit="10"/></g><g transform="translate(-142,-54) scale(1,1)"><path fill="none" stroke="#000000" d="M 528 99 L 586.11181640625 99" stroke-miterlimit="10"/></g><g transform="translate(-142,-54) scale(1,1)"><g><path fill="none" stroke="none"/><text fill="#000000" stroke="none" font-family="Arial" font-size="13px" font-style="normal" font-weight="bold" text-decoration="none" x="534.655029296875" y="83.5">Product</text></g></g><g transform="translate(-142,-54) scale(1,1)"><rect fill="#C0C0C0" stroke="none" x="391" y="71" width="50.919921875" height="44" opacity="0.2"/></g><g transform="translate(-142,-54) scale(1,1)"><rect fill="#ffffff" stroke="none" x="384" y="64" width="50.919921875" height="44"/></g><g transform="translate(-142,-54) scale(1,1)"><path fill="none" stroke="#000000" d="M 384 64 L 434.919921875 64 L 434.919921875 108 L 384 108 L 384 64 Z Z" stroke-miterlimit="10"/></g><g transform="translate(-142,-54) scale(1,1)"><path fill="none" stroke="#000000" d="M 384 89 L 434.919921875 89" stroke-miterlimit="10"/></g><g transform="translate(-142,-54) scale(1,1)"><path fill="none" stroke="#000000" d="M 384 99 L 434.919921875 99" stroke-miterlimit="10"/></g><g transform="translate(-142,-54) scale(1,1)"><g><path fill="none" stroke="none"/><text fill="#000000" stroke="none" font-family="Arial" font-size="13px" font-style="normal" font-weight="bold" text-decoration="none" x="389.950439453125" y="83.5">Report</text></g></g><g transform="translate(-142,-54) scale(1,1)"><rect fill="#C0C0C0" stroke="none" x="223" y="71" width="70.3818359375" height="44" opacity="0.2"/></g><g transform="translate(-142,-54) scale(1,1)"><rect fill="#ffffff" stroke="none" x="216" y="64" width="70.3818359375" height="44"/></g><g transform="translate(-142,-54) scale(1,1)"><path fill="none" stroke="#000000" d="M 216 64 L 286.3818359375 64 L 286.3818359375 108 L 216 108 L 216 64 Z Z" stroke-miterlimit="10"/></g><g transform="translate(-142,-54) scale(1,1)"><path fill="none" stroke="#000000" d="M 216 89 L 286.3818359375 89" stroke-miterlimit="10"/></g><g transform="translate(-142,-54) scale(1,1)"><path fill="none" stroke="#000000" d="M 216 99 L 286.3818359375 99" stroke-miterlimit="10"/></g><g transform="translate(-142,-54) scale(1,1)"><g><path fill="none" stroke="none"/><text fill="#000000" stroke="none" font-family="Arial" font-size="13px" font-style="normal" font-weight="bold" text-decoration="none" x="223.00732421875" y="83.5">Reporting</text></g></g><g transform="translate(-142,-54) scale(1,1)"><path fill="none" stroke="#000000" d="M 287 86 L 383 86" stroke-miterlimit="10"/></g><g transform="translate(-142,-54) scale(1,1)"><path fill="none" stroke="#000000" d="M 372.83732514237585 90.20951775601598 L 383 86 L 372.83732514237585 81.79048224398402" stroke-miterlimit="10"/></g><g transform="translate(-142,-54) scale(1,1)"><path fill="none" stroke="#000000" d="M 207 271 L 245 109" stroke-miterlimit="10"/></g><g transform="translate(-142,-54) scale(1,1)"><path fill="none" stroke="#000000" d="M 246.7774360525763 119.8554466089149 L 245 109 L 238.5808771759299 117.93279699587438" stroke-miterlimit="10"/></g><g transform="translate(-142,-54) scale(1,1)"><path fill="none" stroke="#000000" d="M 252 294 L 463 294" stroke-miterlimit="10"/></g><g transform="translate(-142,-54) scale(1,1)"><path fill="none" stroke="#000000" d="M 452.83732514237585 298.209517756016 L 463 294 L 452.83732514237585 289.790482243984" stroke-miterlimit="10"/></g><g transform="translate(-142,-54) scale(1,1)"><path fill="none" stroke="#000000" d="M 491 271 L 431 217" stroke-miterlimit="10"/></g><g transform="translate(-142,-54) scale(1,1)"><path fill="none" stroke="#000000" d="M 516 317 L 515 391" stroke-miterlimit="10"/></g><g transform="translate(-142,-54) scale(1,1)"><path fill="none" stroke="#000000" d="M 510.92818745815435 380.78137276225084 L 515 391 L 519.3464543541705 380.8951331257105" stroke-miterlimit="10"/></g></g></svg>