<svg version="1.1" xmlns="http://www.w3.org/2000/svg" xmlns:xlink="http://www.w3.org/1999/xlink" width="729.80810546875" height="376"><defs/><g><g transform="translate(-62,-70) scale(1,1)"><rect fill="#C0C0C0" stroke="none" x="353" y="247" width="98.44091796875" height="44" opacity="0.2"/></g><g transform="translate(-62,-70) scale(1,1)"><rect fill="#00d600" stroke="none" x="346" y="240" width="98.44091796875" height="44"/></g><g transform="translate(-62,-70) scale(1,1)"><path fill="none" stroke="#000000" d="M 346 240 L 444.44091796875 240 L 444.44091796875 284 L 346 284 L 346 240 Z Z" stroke-miterlimit="10"/></g><g transform="translate(-62,-70) scale(1,1)"><rect fill="#00d600" stroke="none" x="336" y="247" width="20" height="10"/></g><g transform="translate(-62,-70) scale(1,1)"><path fill="none" stroke="#000000" d="M 336 247 L 356 247 L 356 257 L 336 257 L 336 247 Z Z" stroke-miterlimit="10"/></g><g transform="translate(-62,-70) scale(1,1)"><rect fill="#00d600" stroke="none" x="336" y="267" width="20" height="10"/></g><g transform="translate(-62,-70) scale(1,1)"><path fill="none" stroke="#000000" d="M 336 267 L 356 267 L 356 277 L 336 277 L 336 267 Z Z" stroke-miterlimit="10"/></g><g transform="translate(-62,-70) scale(1,1)"><g><path fill="none" stroke="none"/><text fill="#000000" stroke="none" font-family="Arial" font-size="13px" font-style="normal" font-weight="normal" text-decoration="none" x="382.510498046875" y="257.5">«apk»</text></g></g><g transform="translate(-62,-70) scale(1,1)"><g><path fill="none" stroke="none"/><text fill="#000000" stroke="none" font-family="Arial" font-size="13px" font-style="normal" font-weight="bold" text-decoration="none" x="371.325927734375" y="272.5">CRM v2.0</text></g></g><g transform="translate(-62,-70) scale(1,1)"><rect fill="#C0C0C0" stroke="none" x="89" y="375" width="98.44091796875" height="44" opacity="0.2"/></g><g transform="translate(-62,-70) scale(1,1)"><rect fill="#ff2b2b" stroke="none" x="82" y="368" width="98.44091796875" height="44"/></g><g transform="translate(-62,-70) scale(1,1)"><path fill="none" stroke="#000000" d="M 82 368 L 180.44091796875 368 L 180.44091796875 412 L 82 412 L 82 368 Z Z" stroke-miterlimit="10"/></g><g transform="translate(-62,-70) scale(1,1)"><rect fill="#ff2b2b" stroke="none" x="72" y="375" width="20" height="10"/></g><g transform="translate(-62,-70) scale(1,1)"><path fill="none" stroke="#000000" d="M 72 375 L 92 375 L 92 385 L 72 385 L 72 375 Z Z" stroke-miterlimit="10"/></g><g transform="translate(-62,-70) scale(1,1)"><rect fill="#ff2b2b" stroke="none" x="72" y="395" width="20" height="10"/></g><g transform="translate(-62,-70) scale(1,1)"><path fill="none" stroke="#000000" d="M 72 395 L 92 395 L 92 405 L 72 405 L 72 395 Z Z" stroke-miterlimit="10"/></g><g transform="translate(-62,-70) scale(1,1)"><g><path fill="none" stroke="none"/><text fill="#000000" stroke="none" font-family="Arial" font-size="13px" font-style="normal" font-weight="normal" text-decoration="none" x="121.766845703125" y="385.5">«jar»</text></g></g><g transform="translate(-62,-70) scale(1,1)"><g><path fill="none" stroke="none"/><text fill="#000000" stroke="none" font-family="Arial" font-size="13px" font-style="normal" font-weight="bold" text-decoration="none" x="113.819580078125" y="400.5">SDK 19</text></g></g><g transform="translate(-62,-70) scale(1,1)"><rect fill="#C0C0C0" stroke="none" x="425" y="399" width="98.44091796875" height="44" opacity="0.2"/></g><g transform="translate(-62,-70) scale(1,1)"><rect fill="#ff2b2b" stroke="none" x="418" y="392" width="98.44091796875" height="44"/></g><g transform="translate(-62,-70) scale(1,1)"><path fill="none" stroke="#000000" d="M 418 392 L 516.44091796875 392 L 516.44091796875 436 L 418 436 L 418 392 Z Z" stroke-miterlimit="10"/></g><g transform="translate(-62,-70) scale(1,1)"><rect fill="#ff2b2b" stroke="none" x="408" y="399" width="20" height="10"/></g><g transform="translate(-62,-70) scale(1,1)"><path fill="none" stroke="#000000" d="M 408 399 L 428 399 L 428 409 L 408 409 L 408 399 Z Z" stroke-miterlimit="10"/></g><g transform="translate(-62,-70) scale(1,1)"><rect fill="#ff2b2b" stroke="none" x="408" y="419" width="20" height="10"/></g><g transform="translate(-62,-70) scale(1,1)"><path fill="none" stroke="#000000" d="M 408 419 L 428 419 L 428 429 L 408 429 L 408 419 Z Z" stroke-miterlimit="10"/></g><g transform="translate(-62,-70) scale(1,1)"><g><path fill="none" stroke="none"/><text fill="#000000" stroke="none" font-family="Arial" font-size="13px" font-style="normal" font-weight="normal" text-decoration="none" x="457.766845703125" y="409.5">«jar»</text></g></g><g transform="translate(-62,-70) scale(1,1)"><g><path fill="none" stroke="none"/><text fill="#000000" stroke="none" font-family="Arial" font-size="13px" font-style="normal" font-weight="bold" text-decoration="none" x="456.6845703125" y="424.5">Gson</text></g></g><g transform="translate(-62,-70) scale(1,1)"><rect fill="#C0C0C0" stroke="none" x="625" y="287" width="123.0380859375" height="44" opacity="0.2"/></g><g transform="translate(-62,-70) scale(1,1)"><rect fill="#8e8e8e" stroke="none" x="618" y="280" width="123.0380859375" height="44"/></g><g transform="translate(-62,-70) scale(1,1)"><path fill="none" stroke="#000000" d="M 618 280 L 741.0380859375 280 L 741.0380859375 324 L 618 324 L 618 280 Z Z" stroke-miterlimit="10"/></g><g transform="translate(-62,-70) scale(1,1)"><rect fill="#8e8e8e" stroke="none" x="608" y="287" width="20" height="10"/></g><g transform="translate(-62,-70) scale(1,1)"><path fill="none" stroke="#000000" d="M 608 287 L 628 287 L 628 297 L 608 297 L 608 287 Z Z" stroke-miterlimit="10"/></g><g transform="translate(-62,-70) scale(1,1)"><rect fill="#8e8e8e" stroke="none" x="608" y="307" width="20" height="10"/></g><g transform="translate(-62,-70) scale(1,1)"><path fill="none" stroke="#000000" d="M 608 307 L 628 307 L 628 317 L 608 317 L 608 307 Z Z" stroke-miterlimit="10"/></g><g transform="translate(-62,-70) scale(1,1)"><g><path fill="none" stroke="none"/><text fill="#000000" stroke="none" font-family="Arial" font-size="13px" font-style="normal" font-weight="normal" text-decoration="none" x="670.0654296875" y="297.5">«jar»</text></g></g><g transform="translate(-62,-70) scale(1,1)"><g><path fill="none" stroke="none"/><text fill="#000000" stroke="none" font-family="Arial" font-size="13px" font-style="normal" font-weight="bold" text-decoration="none" x="635.02001953125" y="312.5">API Facebook v4</text></g></g><g transform="translate(-62,-70) scale(1,1)"><rect fill="#C0C0C0" stroke="none" x="673" y="183" width="115.80810546875" height="44" opacity="0.2"/></g><g transform="translate(-62,-70) scale(1,1)"><rect fill="#8e8e8e" stroke="none" x="666" y="176" width="115.80810546875" height="44"/></g><g transform="translate(-62,-70) scale(1,1)"><path fill="none" stroke="#000000" d="M 666 176 L 781.80810546875 176 L 781.80810546875 220 L 666 220 L 666 176 Z Z" stroke-miterlimit="10"/></g><g transform="translate(-62,-70) scale(1,1)"><rect fill="#8e8e8e" stroke="none" x="656" y="183" width="20" height="10"/></g><g transform="translate(-62,-70) scale(1,1)"><path fill="none" stroke="#000000" d="M 656 183 L 676 183 L 676 193 L 656 193 L 656 183 Z Z" stroke-miterlimit="10"/></g><g transform="translate(-62,-70) scale(1,1)"><rect fill="#8e8e8e" stroke="none" x="656" y="203" width="20" height="10"/></g><g transform="translate(-62,-70) scale(1,1)"><path fill="none" stroke="#000000" d="M 656 203 L 676 203 L 676 213 L 656 213 L 656 203 Z Z" stroke-miterlimit="10"/></g><g transform="translate(-62,-70) scale(1,1)"><g><path fill="none" stroke="none"/><text fill="#000000" stroke="none" font-family="Arial" font-size="13px" font-style="normal" font-weight="normal" text-decoration="none" x="714.450439453125" y="193.5">«jar»</text></g></g><g transform="translate(-62,-70) scale(1,1)"><g><path fill="none" stroke="none"/><text fill="#000000" stroke="none" font-family="Arial" font-size="13px" font-style="normal" font-weight="bold" text-decoration="none" x="683.029541015625" y="208.5">API Twitter v1.1</text></g></g><g transform="translate(-62,-70) scale(1,1)"><rect fill="#C0C0C0" stroke="none" x="545" y="87" width="98.44091796875" height="44" opacity="0.2"/></g><g transform="translate(-62,-70) scale(1,1)"><rect fill="#ff2b2b" stroke="none" x="538" y="80" width="98.44091796875" height="44"/></g><g transform="translate(-62,-70) scale(1,1)"><path fill="none" stroke="#000000" d="M 538 80 L 636.44091796875 80 L 636.44091796875 124 L 538 124 L 538 80 Z Z" stroke-miterlimit="10"/></g><g transform="translate(-62,-70) scale(1,1)"><rect fill="#ff2b2b" stroke="none" x="528" y="87" width="20" height="10"/></g><g transform="translate(-62,-70) scale(1,1)"><path fill="none" stroke="#000000" d="M 528 87 L 548 87 L 548 97 L 528 97 L 528 87 Z Z" stroke-miterlimit="10"/></g><g transform="translate(-62,-70) scale(1,1)"><rect fill="#ff2b2b" stroke="none" x="528" y="107" width="20" height="10"/></g><g transform="translate(-62,-70) scale(1,1)"><path fill="none" stroke="#000000" d="M 528 107 L 548 107 L 548 117 L 528 117 L 528 107 Z Z" stroke-miterlimit="10"/></g><g transform="translate(-62,-70) scale(1,1)"><g><path fill="none" stroke="none"/><text fill="#000000" stroke="none" font-family="Arial" font-size="13px" font-style="normal" font-weight="normal" text-decoration="none" x="577.766845703125" y="97.5">«jar»</text></g></g><g transform="translate(-62,-70) scale(1,1)"><g><path fill="none" stroke="none"/><text fill="#000000" stroke="none" font-family="Arial" font-size="13px" font-style="normal" font-weight="bold" text-decoration="none" x="569.46728515625" y="112.5">DBFlow</text></g></g><g transform="translate(-62,-70) scale(1,1)"><path fill="none" stroke="#000000" d="M 343 285 L 173 367" stroke-miterlimit="10" stroke-dasharray="3"/></g><g transform="translate(-62,-70) scale(1,1)"><path fill="none" stroke="#000000" d="M 180.3246304152065 358.7933082621173 L 173 367 L 183.9823032152422 366.3762884573133" stroke-miterlimit="10"/></g><g transform="translate(-62,-70) scale(1,1)"><path fill="none" stroke="#000000" d="M 401 285 L 451 391" stroke-miterlimit="10" stroke-dasharray="3"/></g><g transform="translate(-62,-70) scale(1,1)"><path fill="none" stroke="#000000" d="M 442.8571922627598 383.6044146848041 L 451 391 L 450.47163395831785 380.0126969038805" stroke-miterlimit="10"/></g><g transform="translate(-62,-70) scale(1,1)"><path fill="none" stroke="#000000" d="M 445 270 L 607 293" stroke-miterlimit="10" stroke-dasharray="3"/></g><g transform="translate(-62,-70) scale(1,1)"><path fill="none" stroke="#000000" d="M 596.3465129820162 295.7391995833909 L 607 293 L 597.5299404858616 287.40375368673983" stroke-miterlimit="10"/></g><g transform="translate(-62,-70) scale(1,1)"><path fill="none" stroke="#000000" d="M 445 251 L 655 210" stroke-miterlimit="10" stroke-dasharray="3"/></g><g transform="translate(-62,-70) scale(1,1)"><path fill="none" stroke="#000000" d="M 645.8322765554342 216.07888532906802 L 655 210 L 644.2190195460652 207.81586162254402" stroke-miterlimit="10"/></g><g transform="translate(-62,-70) scale(1,1)"><path fill="none" stroke="#000000" d="M 418 239 L 554 125" stroke-miterlimit="10" stroke-dasharray="3"/></g><g transform="translate(-62,-70) scale(1,1)"><path fill="none" stroke="#000000" d="M 548.9158148562212 134.75454055421264 L 554 125 L 543.5074364347831 128.30243998126903" stroke-miterlimit="10"/></g></g></svg>