<svg version="1.1" xmlns="http://www.w3.org/2000/svg" xmlns:xlink="http://www.w3.org/1999/xlink" width="936.1181640625" height="760"><defs/><g><g transform="translate(-14,2) scale(1,1)"><rect fill="#C0C0C0" stroke="none" x="607" y="535" width="170.80810546875" height="44" opacity="0.2"/></g><g transform="translate(-14,2) scale(1,1)"><rect fill="#00ad00" stroke="none" x="600" y="528" width="170.80810546875" height="44"/></g><g transform="translate(-14,2) scale(1,1)"><path fill="none" stroke="#000000" d="M 600 528 L 770.80810546875 528 L 770.80810546875 572 L 600 572 L 600 528 Z Z" stroke-miterlimit="10"/></g><g transform="translate(-14,2) scale(1,1)"><path fill="none" stroke="#000000" d="M 600 553 L 770.80810546875 553" stroke-miterlimit="10"/></g><g transform="translate(-14,2) scale(1,1)"><path fill="none" stroke="#000000" d="M 600 563 L 770.80810546875 563" stroke-miterlimit="10"/></g><g transform="translate(-14,2) scale(1,1)"><g><path fill="none" stroke="none"/><text fill="#000000" stroke="none" font-family="Arial" font-size="13px" font-style="normal" font-weight="bold" text-decoration="none" x="612.42822265625" y="547.5">EventSubscriptionActivity</text></g></g><g transform="translate(-14,2) scale(1,1)"><rect fill="#C0C0C0" stroke="none" x="863" y="463" width="84.1181640625" height="44" opacity="0.2"/></g><g transform="translate(-14,2) scale(1,1)"><rect fill="#ffffff" stroke="none" x="856" y="456" width="84.1181640625" height="44"/></g><g transform="translate(-14,2) scale(1,1)"><path fill="none" stroke="#000000" d="M 856 456 L 940.1181640625 456 L 940.1181640625 500 L 856 500 L 856 456 Z Z" stroke-miterlimit="10"/></g><g transform="translate(-14,2) scale(1,1)"><path fill="none" stroke="#000000" d="M 856 481 L 940.1181640625 481" stroke-miterlimit="10"/></g><g transform="translate(-14,2) scale(1,1)"><path fill="none" stroke="#000000" d="M 856 491 L 940.1181640625 491" stroke-miterlimit="10"/></g><g transform="translate(-14,2) scale(1,1)"><g><path fill="none" stroke="none"/><text fill="#000000" stroke="none" font-family="Arial" font-size="13px" font-style="normal" font-weight="bold" text-decoration="none" x="862.29638671875" y="475.5">FbDBHelper</text></g></g><g transform="translate(-14,2) scale(1,1)"><rect fill="#C0C0C0" stroke="none" x="375" y="383" width="50.919921875" height="44" opacity="0.2"/></g><g transform="translate(-14,2) scale(1,1)"><rect fill="#ffffff" stroke="none" x="368" y="376" width="50.919921875" height="44"/></g><g transform="translate(-14,2) scale(1,1)"><path fill="none" stroke="#000000" d="M 368 376 L 418.919921875 376 L 418.919921875 420 L 368 420 L 368 376 Z Z" stroke-miterlimit="10"/></g><g transform="translate(-14,2) scale(1,1)"><path fill="none" stroke="#000000" d="M 368 401 L 418.919921875 401" stroke-miterlimit="10"/></g><g transform="translate(-14,2) scale(1,1)"><path fill="none" stroke="#000000" d="M 368 411 L 418.919921875 411" stroke-miterlimit="10"/></g><g transform="translate(-14,2) scale(1,1)"><g><path fill="none" stroke="none"/><text fill="#000000" stroke="none" font-family="Arial" font-size="13px" font-style="normal" font-weight="bold" text-decoration="none" x="379.72998046875" y="395.5">Data</text></g></g><g transform="translate(-14,2) scale(1,1)"><rect fill="#C0C0C0" stroke="none" x="295" y="543" width="60.28271484375" height="44" opacity="0.2"/></g><g transform="translate(-14,2) scale(1,1)"><rect fill="#ffffff" stroke="none" x="288" y="536" width="60.28271484375" height="44"/></g><g transform="translate(-14,2) scale(1,1)"><path fill="none" stroke="#000000" d="M 288 536 L 348.28271484375 536 L 348.28271484375 580 L 288 580 L 288 536 Z Z" stroke-miterlimit="10"/></g><g transform="translate(-14,2) scale(1,1)"><path fill="none" stroke="#000000" d="M 288 561 L 348.28271484375 561" stroke-miterlimit="10"/></g><g transform="translate(-14,2) scale(1,1)"><path fill="none" stroke="#000000" d="M 288 571 L 348.28271484375 571" stroke-miterlimit="10"/></g><g transform="translate(-14,2) scale(1,1)"><g><path fill="none" stroke="none"/><text fill="#000000" stroke="none" font-family="Arial" font-size="13px" font-style="normal" font-weight="bold" text-decoration="none" x="293.9345703125" y="555.5">FbEvent</text></g></g><g transform="translate(-14,2) scale(1,1)"><rect fill="#C0C0C0" stroke="none" x="455" y="335" width="55.9599609375" height="44" opacity="0.2"/></g><g transform="translate(-14,2) scale(1,1)"><rect fill="#d10000" stroke="none" x="448" y="328" width="55.9599609375" height="44"/></g><g transform="translate(-14,2) scale(1,1)"><path fill="none" stroke="#000000" d="M 448 328 L 503.9599609375 328 L 503.9599609375 372 L 448 372 L 448 328 Z Z" stroke-miterlimit="10"/></g><g transform="translate(-14,2) scale(1,1)"><path fill="none" stroke="#000000" d="M 448 353 L 503.9599609375 353" stroke-miterlimit="10"/></g><g transform="translate(-14,2) scale(1,1)"><path fill="none" stroke="#000000" d="M 448 363 L 503.9599609375 363" stroke-miterlimit="10"/></g><g transform="translate(-14,2) scale(1,1)"><g><path fill="none" stroke="none"/><text fill="#000000" stroke="none" font-family="Arial" font-size="13px" font-style="normal" font-weight="bold" text-decoration="none" x="455.39453125" y="347.5">Activity</text></g></g><g transform="translate(-14,2) scale(1,1)"><rect fill="#C0C0C0" stroke="none" x="815" y="631" width="50.919921875" height="44" opacity="0.2"/></g><g transform="translate(-14,2) scale(1,1)"><rect fill="#ffffff" stroke="none" x="808" y="624" width="50.919921875" height="44"/></g><g transform="translate(-14,2) scale(1,1)"><path fill="none" stroke="#000000" d="M 808 624 L 858.919921875 624 L 858.919921875 668 L 808 668 L 808 624 Z Z" stroke-miterlimit="10"/></g><g transform="translate(-14,2) scale(1,1)"><path fill="none" stroke="#000000" d="M 808 649 L 858.919921875 649" stroke-miterlimit="10"/></g><g transform="translate(-14,2) scale(1,1)"><path fill="none" stroke="#000000" d="M 808 659 L 858.919921875 659" stroke-miterlimit="10"/></g><g transform="translate(-14,2) scale(1,1)"><g><path fill="none" stroke="none"/><text fill="#000000" stroke="none" font-family="Arial" font-size="13px" font-style="normal" font-weight="bold" text-decoration="none" x="816.851318359375" y="643.5">Timer</text></g></g><g transform="translate(-14,2) scale(1,1)"><rect fill="#C0C0C0" stroke="none" x="527" y="703" width="74.03173828125" height="44" opacity="0.2"/></g><g transform="translate(-14,2) scale(1,1)"><rect fill="#ffffff" stroke="none" x="520" y="696" width="74.03173828125" height="44"/></g><g transform="translate(-14,2) scale(1,1)"><path fill="none" stroke="#000000" d="M 520 696 L 594.03173828125 696 L 594.03173828125 740 L 520 740 L 520 696 Z Z" stroke-miterlimit="10"/></g><g transform="translate(-14,2) scale(1,1)"><path fill="none" stroke="#000000" d="M 520 721 L 594.03173828125 721" stroke-miterlimit="10"/></g><g transform="translate(-14,2) scale(1,1)"><path fill="none" stroke="#000000" d="M 520 731 L 594.03173828125 731" stroke-miterlimit="10"/></g><g transform="translate(-14,2) scale(1,1)"><g><path fill="none" stroke="none"/><text fill="#000000" stroke="none" font-family="Arial" font-size="13px" font-style="normal" font-weight="bold" text-decoration="none" x="526.32177734375" y="715.5">TimerTask</text></g></g><g transform="translate(-14,2) scale(1,1)"><rect fill="#C0C0C0" stroke="none" x="663" y="319" width="50.919921875" height="44" opacity="0.2"/></g><g transform="translate(-14,2) scale(1,1)"><rect fill="#ffffff" stroke="none" x="656" y="312" width="50.919921875" height="44"/></g><g transform="translate(-14,2) scale(1,1)"><path fill="none" stroke="#000000" d="M 656 312 L 706.919921875 312 L 706.919921875 356 L 656 356 L 656 312 Z Z" stroke-miterlimit="10"/></g><g transform="translate(-14,2) scale(1,1)"><path fill="none" stroke="#000000" d="M 656 337 L 706.919921875 337" stroke-miterlimit="10"/></g><g transform="translate(-14,2) scale(1,1)"><path fill="none" stroke="#000000" d="M 656 347 L 706.919921875 347" stroke-miterlimit="10"/></g><g transform="translate(-14,2) scale(1,1)"><g><path fill="none" stroke="none"/><text fill="#000000" stroke="none" font-family="Arial" font-size="13px" font-style="normal" font-weight="bold" text-decoration="none" x="665.924072265625" y="331.5">Gson</text></g></g><g transform="translate(-14,2) scale(1,1)"><rect fill="#C0C0C0" stroke="none" x="311" y="431" width="50.919921875" height="44" opacity="0.2"/></g><g transform="translate(-14,2) scale(1,1)"><rect fill="#ffffff" stroke="none" x="304" y="424" width="50.919921875" height="44"/></g><g transform="translate(-14,2) scale(1,1)"><path fill="none" stroke="#000000" d="M 304 424 L 354.919921875 424 L 354.919921875 468 L 304 468 L 304 424 Z Z" stroke-miterlimit="10"/></g><g transform="translate(-14,2) scale(1,1)"><path fill="none" stroke="#000000" d="M 304 449 L 354.919921875 449" stroke-miterlimit="10"/></g><g transform="translate(-14,2) scale(1,1)"><path fill="none" stroke="#000000" d="M 304 459 L 354.919921875 459" stroke-miterlimit="10"/></g><g transform="translate(-14,2) scale(1,1)"><g><path fill="none" stroke="none"/><text fill="#000000" stroke="none" font-family="Arial" font-size="13px" font-style="normal" font-weight="bold" text-decoration="none" x="324.765869140625" y="443.5">R</text></g></g><g transform="translate(-14,2) scale(1,1)"><rect fill="#C0C0C0" stroke="none" x="767" y="327" width="66.07177734375" height="44" opacity="0.2"/></g><g transform="translate(-14,2) scale(1,1)"><rect fill="#ffffff" stroke="none" x="760" y="320" width="66.07177734375" height="44"/></g><g transform="translate(-14,2) scale(1,1)"><path fill="none" stroke="#000000" d="M 760 320 L 826.07177734375 320 L 826.07177734375 364 L 760 364 L 760 320 Z Z" stroke-miterlimit="10"/></g><g transform="translate(-14,2) scale(1,1)"><path fill="none" stroke="#000000" d="M 760 345 L 826.07177734375 345" stroke-miterlimit="10"/></g><g transform="translate(-14,2) scale(1,1)"><path fill="none" stroke="#000000" d="M 760 355 L 826.07177734375 355" stroke-miterlimit="10"/></g><g transform="translate(-14,2) scale(1,1)"><g><path fill="none" stroke="none"/><text fill="#000000" stroke="none" font-family="Arial" font-size="13px" font-style="normal" font-weight="bold" text-decoration="none" x="766.655029296875" y="339.5">facebook</text></g></g><g transform="translate(-14,2) scale(1,1)"><rect fill="#C0C0C0" stroke="none" x="679" y="711" width="65.3544921875" height="44" opacity="0.2"/></g><g transform="translate(-14,2) scale(1,1)"><rect fill="#ffffff" stroke="none" x="672" y="704" width="65.3544921875" height="44"/></g><g transform="translate(-14,2) scale(1,1)"><path fill="none" stroke="#000000" d="M 672 704 L 737.3544921875 704 L 737.3544921875 748 L 672 748 L 672 704 Z Z" stroke-miterlimit="10"/></g><g transform="translate(-14,2) scale(1,1)"><path fill="none" stroke="#000000" d="M 672 729 L 737.3544921875 729" stroke-miterlimit="10"/></g><g transform="translate(-14,2) scale(1,1)"><path fill="none" stroke="#000000" d="M 672 739 L 737.3544921875 739" stroke-miterlimit="10"/></g><g transform="translate(-14,2) scale(1,1)"><g><path fill="none" stroke="none"/><text fill="#000000" stroke="none" font-family="Arial" font-size="13px" font-style="normal" font-weight="bold" text-decoration="none" x="677.947265625" y="723.5">TextView</text></g></g><g transform="translate(-14,2) scale(1,1)"><rect fill="#C0C0C0" stroke="none" x="327" y="671" width="133.95361328125" height="44" opacity="0.2"/></g><g transform="translate(-14,2) scale(1,1)"><rect fill="#ffffff" stroke="none" x="320" y="664" width="133.95361328125" height="44"/></g><g transform="translate(-14,2) scale(1,1)"><path fill="none" stroke="#000000" d="M 320 664 L 453.95361328125 664 L 453.95361328125 708 L 320 708 L 320 664 Z Z" stroke-miterlimit="10"/></g><g transform="translate(-14,2) scale(1,1)"><path fill="none" stroke="#000000" d="M 320 689 L 453.95361328125 689" stroke-miterlimit="10"/></g><g transform="translate(-14,2) scale(1,1)"><path fill="none" stroke="#000000" d="M 320 699 L 453.95361328125 699" stroke-miterlimit="10"/></g><g transform="translate(-14,2) scale(1,1)"><g><path fill="none" stroke="none"/><text fill="#000000" stroke="none" font-family="Arial" font-size="13px" font-style="normal" font-weight="bold" text-decoration="none" x="329.168701171875" y="683.5">NotificationManager</text></g></g><g transform="translate(-14,2) scale(1,1)"><path fill="none" stroke="#000000" d="M 685 527 L 681 357" stroke-miterlimit="10" stroke-dasharray="3"/></g><g transform="translate(-14,2) scale(1,1)"><path fill="none" stroke="#000000" d="M 685.447408571162 367.0608427579977 L 681 357 L 677.030702620744 367.2588828980075" stroke-miterlimit="10"/></g><g transform="translate(-14,2) scale(1,1)"><path fill="none" stroke="#000000" d="M 667 573 L 575 695" stroke-miterlimit="10" stroke-dasharray="3"/></g><g transform="translate(-14,2) scale(1,1)"><path fill="none" stroke="#000000" d="M 577.7578761567784 684.3513325197998 L 575 695 L 584.4798579179809 689.4203679462804" stroke-miterlimit="10"/></g><g transform="translate(-14,2) scale(1,1)"><path fill="none" stroke="#000000" d="M 720 573 L 807 629" stroke-miterlimit="10" stroke-dasharray="3"/></g><g transform="translate(-14,2) scale(1,1)"><path fill="none" stroke="#000000" d="M 796.1761848687079 627.0391262142577 L 807 629 L 800.7329540733031 619.9598597714045" stroke-miterlimit="10"/></g><g transform="translate(-14,2) scale(1,1)"><path fill="none" stroke="#000000" d="M 634 573 L 437 663" stroke-miterlimit="10" stroke-dasharray="3"/></g><g transform="translate(-14,2) scale(1,1)"><path fill="none" stroke="#000000" d="M 444.49447757460035 654.9481178669946 L 437 663 L 447.9929363720134 662.6058554568875" stroke-miterlimit="10"/></g><g transform="translate(-14,2) scale(1,1)"><path fill="none" stroke="#000000" d="M 687 573 L 702 703" stroke-miterlimit="10" stroke-dasharray="3"/></g><g transform="translate(-14,2) scale(1,1)"><path fill="none" stroke="#000000" d="M 696.6533399051674 693.3868202019142 L 702 703 L 705.0168850142364 692.4217957662524" stroke-miterlimit="10"/></g><g transform="translate(-14,2) scale(1,1)"><path fill="none" stroke="#000000" d="M 606 527 L 356 454" stroke-miterlimit="10" stroke-dasharray="3"/></g><g transform="translate(-14,2) scale(1,1)"><path fill="none" stroke="#000000" d="M 366.93519957086284 452.80777085029706 L 356 454 L 364.57538708666857 460.8893204537021" stroke-miterlimit="10"/></g><g transform="translate(-14,2) scale(1,1)"><path fill="none" stroke="#000000" d="M 697 527 L 781 365" stroke-miterlimit="10" stroke-dasharray="3"/></g><g transform="translate(-14,2) scale(1,1)"><path fill="none" stroke="#000000" d="M 780.0589647893783 375.9596739336702 L 781 365 L 772.5849278631424 372.0842473793257" stroke-miterlimit="10"/></g><g transform="translate(-14,2) scale(1,1)"><path fill="none" stroke="#000000" d="M 661 527 L 499 373" stroke-miterlimit="10"/></g><g transform="translate(-14,2) scale(1,1)"><path fill="#FFFFFF" stroke="none" d="M 519.5319112223842 380.9019378355018 L 499 373 L 507.93073982807016 393.1057674840659"/></g><g transform="translate(-14,2) scale(1,1)"><path fill="none" stroke="#000000" d="M 519.5319112223842 380.9019378355018 L 499 373 L 507.93073982807016 393.1057674840659 L 519.5319112223842 380.9019378355018" stroke-miterlimit="10"/></g><g transform="translate(-14,2) scale(1,1)"><path fill="none" stroke="#000000" d="M 641 527 L 420 412" stroke-miterlimit="10"/></g><g transform="translate(-14,2) scale(1,1)"><path fill="none" stroke="#000000" d="M 430.9582962266787 412.9569450393619 L 420 412 L 427.0720232455798 420.42534789869114" stroke-miterlimit="10"/></g><g transform="translate(-14,2) scale(1,1)"><path fill="none" stroke="#000000" d="M 753 527 L 855 493" stroke-miterlimit="10"/></g><g transform="translate(-14,2) scale(1,1)"><path fill="none" stroke="#000000" d="M 846.6900064950472 500.2072191549614 L 855 493 L 844.0276737030609 492.22022077900255" stroke-miterlimit="10"/></g><g transform="translate(-14,2) scale(1,1)"><path fill="none" stroke="#000000" d="M 599 552 L 349 557" stroke-miterlimit="10"/></g><g transform="translate(-14,2) scale(1,1)"><path fill="none" stroke="#000000" d="M 359.0764694101109 552.5881110364041 L 349 557 L 359.244816454309 561.0054632463075" stroke-miterlimit="10"/></g><g transform="translate(-14,2) scale(1,1)"><rect fill="#C0C0C0" stroke="none" x="143" y="335" width="107.24267578125" height="44" opacity="0.2"/></g><g transform="translate(-14,2) scale(1,1)"><rect fill="#00ad00" stroke="none" x="136" y="328" width="107.24267578125" height="44"/></g><g transform="translate(-14,2) scale(1,1)"><path fill="none" stroke="#000000" d="M 136 328 L 243.24267578125 328 L 243.24267578125 372 L 136 372 L 136 328 Z Z" stroke-miterlimit="10"/></g><g transform="translate(-14,2) scale(1,1)"><path fill="none" stroke="#000000" d="M 136 353 L 243.24267578125 353" stroke-miterlimit="10"/></g><g transform="translate(-14,2) scale(1,1)"><path fill="none" stroke="#000000" d="M 136 363 L 243.24267578125 363" stroke-miterlimit="10"/></g><g transform="translate(-14,2) scale(1,1)"><g><path fill="none" stroke="none"/><text fill="#000000" stroke="none" font-family="Arial" font-size="13px" font-style="normal" font-weight="bold" text-decoration="none" x="144.8291015625" y="347.5">FbEventActivity</text></g></g><g transform="translate(-14,2) scale(1,1)"><rect fill="#C0C0C0" stroke="none" x="159" y="511" width="52.36083984375" height="44" opacity="0.2"/></g><g transform="translate(-14,2) scale(1,1)"><rect fill="#ffffff" stroke="none" x="152" y="504" width="52.36083984375" height="44"/></g><g transform="translate(-14,2) scale(1,1)"><path fill="none" stroke="#000000" d="M 152 504 L 204.36083984375 504 L 204.36083984375 548 L 152 548 L 152 504 Z Z" stroke-miterlimit="10"/></g><g transform="translate(-14,2) scale(1,1)"><path fill="none" stroke="#000000" d="M 152 529 L 204.36083984375 529" stroke-miterlimit="10"/></g><g transform="translate(-14,2) scale(1,1)"><path fill="none" stroke="#000000" d="M 152 539 L 204.36083984375 539" stroke-miterlimit="10"/></g><g transform="translate(-14,2) scale(1,1)"><g><path fill="none" stroke="none"/><text fill="#000000" stroke="none" font-family="Arial" font-size="13px" font-style="normal" font-weight="bold" text-decoration="none" x="157.58544921875" y="523.5">Search</text></g></g><g transform="translate(-14,2) scale(1,1)"><rect fill="#C0C0C0" stroke="none" x="63" y="447" width="50.919921875" height="44" opacity="0.2"/></g><g transform="translate(-14,2) scale(1,1)"><rect fill="#ffffff" stroke="none" x="56" y="440" width="50.919921875" height="44"/></g><g transform="translate(-14,2) scale(1,1)"><path fill="none" stroke="#000000" d="M 56 440 L 106.919921875 440 L 106.919921875 484 L 56 484 L 56 440 Z Z" stroke-miterlimit="10"/></g><g transform="translate(-14,2) scale(1,1)"><path fill="none" stroke="#000000" d="M 56 465 L 106.919921875 465" stroke-miterlimit="10"/></g><g transform="translate(-14,2) scale(1,1)"><path fill="none" stroke="#000000" d="M 56 475 L 106.919921875 475" stroke-miterlimit="10"/></g><g transform="translate(-14,2) scale(1,1)"><g><path fill="none" stroke="none"/><text fill="#000000" stroke="none" font-family="Arial" font-size="13px" font-style="normal" font-weight="bold" text-decoration="none" x="64.838623046875" y="459.5">Event</text></g></g><g transform="translate(-14,2) scale(1,1)"><rect fill="#C0C0C0" stroke="none" x="31" y="559" width="78.341796875" height="44" opacity="0.2"/></g><g transform="translate(-14,2) scale(1,1)"><rect fill="#ffffff" stroke="none" x="24" y="552" width="78.341796875" height="44"/></g><g transform="translate(-14,2) scale(1,1)"><path fill="none" stroke="#000000" d="M 24 552 L 102.341796875 552 L 102.341796875 596 L 24 596 L 24 552 Z Z" stroke-miterlimit="10"/></g><g transform="translate(-14,2) scale(1,1)"><path fill="none" stroke="#000000" d="M 24 577 L 102.341796875 577" stroke-miterlimit="10"/></g><g transform="translate(-14,2) scale(1,1)"><path fill="none" stroke="#000000" d="M 24 587 L 102.341796875 587" stroke-miterlimit="10"/></g><g transform="translate(-14,2) scale(1,1)"><g><path fill="none" stroke="none"/><text fill="#000000" stroke="none" font-family="Arial" font-size="13px" font-style="normal" font-weight="bold" text-decoration="none" x="31.378662109375" y="571.5">AlertDialog</text></g></g><g transform="translate(-14,2) scale(1,1)"><path fill="none" stroke="#000000" d="M 244 350 L 447 350" stroke-miterlimit="10"/></g><g transform="translate(-14,2) scale(1,1)"><path fill="#FFFFFF" stroke="none" d="M 426.6746502847517 358.419035512032 L 447 350 L 426.6746502847517 341.580964487968"/></g><g transform="translate(-14,2) scale(1,1)"><path fill="none" stroke="#000000" d="M 426.6746502847517 358.419035512032 L 447 350 L 426.6746502847517 341.580964487968 L 426.6746502847517 358.419035512032" stroke-miterlimit="10"/></g><g transform="translate(-14,2) scale(1,1)"><path fill="none" stroke="#000000" d="M 188 373 L 179 503" stroke-miterlimit="10"/></g><g transform="translate(-14,2) scale(1,1)"><path fill="none" stroke="#000000" d="M 175.50242378805441 492.5708600238739 L 179 503 L 183.90135574187903 493.15232454375405" stroke-miterlimit="10"/></g><g transform="translate(-14,2) scale(1,1)"><path fill="none" stroke="#000000" d="M 167 373 L 103 439" stroke-miterlimit="10"/></g><g transform="translate(-14,2) scale(1,1)"><path fill="none" stroke="#000000" d="M 107.05268933222337 428.7737734634674 L 103 439 L 113.09671823878952 434.6346499789255" stroke-miterlimit="10"/></g><g transform="translate(-14,2) scale(1,1)"><path fill="none" stroke="#000000" d="M 176 373 L 76 551" stroke-miterlimit="10" stroke-dasharray="3"/></g><g transform="translate(-14,2) scale(1,1)"><path fill="none" stroke="#000000" d="M 77.30762488561139 540.0779984820305 L 76 551 L 84.64765176135015 544.2016090863781" stroke-miterlimit="10"/></g><g transform="translate(-14,2) scale(1,1)"><path fill="none" stroke="#000000" d="M 223 373 L 303 428" stroke-miterlimit="10" stroke-dasharray="3"/></g><g transform="translate(-14,2) scale(1,1)"><path fill="none" stroke="#000000" d="M 292.24071671607294 425.71137088714505 L 303 428 L 297.0103429945488 418.77373266390737" stroke-miterlimit="10"/></g><g transform="translate(-14,2) scale(1,1)"><path fill="none" stroke="#000000" d="M 244 363 L 367 392" stroke-miterlimit="10"/></g><g transform="translate(-14,2) scale(1,1)"><path fill="none" stroke="#000000" d="M 356.1425318121826 393.76504519787267 L 367 392 L 358.0745351893606 385.57068604639363" stroke-miterlimit="10"/></g><g transform="translate(-14,2) scale(1,1)"><path fill="none" stroke="#000000" d="M 203 373 L 304 535" stroke-miterlimit="10"/></g><g transform="translate(-14,2) scale(1,1)"><path fill="none" stroke="#000000" d="M 295.05122730320545 528.6031674071378 L 304 535 L 302.1955058473275 524.1490184382716" stroke-miterlimit="10"/></g><g transform="translate(-14,2) scale(1,1)"><rect fill="#C0C0C0" stroke="none" x="431" y="127" width="98.57177734375" height="44" opacity="0.2"/></g><g transform="translate(-14,2) scale(1,1)"><rect fill="#00ad00" stroke="none" x="424" y="120" width="98.57177734375" height="44"/></g><g transform="translate(-14,2) scale(1,1)"><path fill="none" stroke="#000000" d="M 424 120 L 522.57177734375 120 L 522.57177734375 164 L 424 164 L 424 120 Z Z" stroke-miterlimit="10"/></g><g transform="translate(-14,2) scale(1,1)"><path fill="none" stroke="#000000" d="M 424 145 L 522.57177734375 145" stroke-miterlimit="10"/></g><g transform="translate(-14,2) scale(1,1)"><path fill="none" stroke="#000000" d="M 424 155 L 522.57177734375 155" stroke-miterlimit="10"/></g><g transform="translate(-14,2) scale(1,1)"><g><path fill="none" stroke="none"/><text fill="#000000" stroke="none" font-family="Arial" font-size="13px" font-style="normal" font-weight="bold" text-decoration="none" x="433.200439453125" y="139.5">TwitterActivity</text></g></g><g transform="translate(-14,2) scale(1,1)"><path fill="none" stroke="#000000" d="M 473 165 L 475 327" stroke-miterlimit="10"/></g><g transform="translate(-14,2) scale(1,1)"><path fill="#FFFFFF" stroke="none" d="M 466.3306948888925 306.78012984981046 L 475 327 L 483.16748286567116 306.5722682698502"/></g><g transform="translate(-14,2) scale(1,1)"><path fill="none" stroke="#000000" d="M 466.3306948888925 306.78012984981046 L 475 327 L 483.16748286567116 306.5722682698502 L 466.3306948888925 306.78012984981046" stroke-miterlimit="10"/></g><g transform="translate(-14,2) scale(1,1)"><rect fill="#C0C0C0" stroke="none" x="247" y="215" width="50.919921875" height="44" opacity="0.2"/></g><g transform="translate(-14,2) scale(1,1)"><rect fill="#ffffff" stroke="none" x="240" y="208" width="50.919921875" height="44"/></g><g transform="translate(-14,2) scale(1,1)"><path fill="none" stroke="#000000" d="M 240 208 L 290.919921875 208 L 290.919921875 252 L 240 252 L 240 208 Z Z" stroke-miterlimit="10"/></g><g transform="translate(-14,2) scale(1,1)"><path fill="none" stroke="#000000" d="M 240 233 L 290.919921875 233" stroke-miterlimit="10"/></g><g transform="translate(-14,2) scale(1,1)"><path fill="none" stroke="#000000" d="M 240 243 L 290.919921875 243" stroke-miterlimit="10"/></g><g transform="translate(-14,2) scale(1,1)"><g><path fill="none" stroke="none"/><text fill="#000000" stroke="none" font-family="Arial" font-size="13px" font-style="normal" font-weight="bold" text-decoration="none" x="248.12451171875" y="227.5">twitter</text></g></g><g transform="translate(-14,2) scale(1,1)"><rect fill="#C0C0C0" stroke="none" x="519" y="23" width="50.919921875" height="44" opacity="0.2"/></g><g transform="translate(-14,2) scale(1,1)"><rect fill="#ffffff" stroke="none" x="512" y="16" width="50.919921875" height="44"/></g><g transform="translate(-14,2) scale(1,1)"><path fill="none" stroke="#000000" d="M 512 16 L 562.919921875 16 L 562.919921875 60 L 512 60 L 512 16 Z Z" stroke-miterlimit="10"/></g><g transform="translate(-14,2) scale(1,1)"><path fill="none" stroke="#000000" d="M 512 41 L 562.919921875 41" stroke-miterlimit="10"/></g><g transform="translate(-14,2) scale(1,1)"><path fill="none" stroke="#000000" d="M 512 51 L 562.919921875 51" stroke-miterlimit="10"/></g><g transform="translate(-14,2) scale(1,1)"><g><path fill="none" stroke="none"/><text fill="#000000" stroke="none" font-family="Arial" font-size="13px" font-style="normal" font-weight="bold" text-decoration="none" x="532.40087890625" y="35.5">io</text></g></g><g transform="translate(-14,2) scale(1,1)"><rect fill="#C0C0C0" stroke="none" x="223" y="111" width="87.72998046875" height="44" opacity="0.2"/></g><g transform="translate(-14,2) scale(1,1)"><rect fill="#ffffff" stroke="none" x="216" y="104" width="87.72998046875" height="44"/></g><g transform="translate(-14,2) scale(1,1)"><path fill="none" stroke="#000000" d="M 216 104 L 303.72998046875 104 L 303.72998046875 148 L 216 148 L 216 104 Z Z" stroke-miterlimit="10"/></g><g transform="translate(-14,2) scale(1,1)"><path fill="none" stroke="#000000" d="M 216 129 L 303.72998046875 129" stroke-miterlimit="10"/></g><g transform="translate(-14,2) scale(1,1)"><path fill="none" stroke="#000000" d="M 216 139 L 303.72998046875 139" stroke-miterlimit="10"/></g><g transform="translate(-14,2) scale(1,1)"><g><path fill="none" stroke="none"/><text fill="#000000" stroke="none" font-family="Arial" font-size="13px" font-style="normal" font-weight="bold" text-decoration="none" x="222.65185546875" y="123.5">URLEncoder</text></g></g><g transform="translate(-14,2) scale(1,1)"><rect fill="#C0C0C0" stroke="none" x="335" y="15" width="50.919921875" height="44" opacity="0.2"/></g><g transform="translate(-14,2) scale(1,1)"><rect fill="#ffffff" stroke="none" x="328" y="8" width="50.919921875" height="44"/></g><g transform="translate(-14,2) scale(1,1)"><path fill="none" stroke="#000000" d="M 328 8 L 378.919921875 8 L 378.919921875 52 L 328 52 L 328 8 Z Z" stroke-miterlimit="10"/></g><g transform="translate(-14,2) scale(1,1)"><path fill="none" stroke="#000000" d="M 328 33 L 378.919921875 33" stroke-miterlimit="10"/></g><g transform="translate(-14,2) scale(1,1)"><path fill="none" stroke="#000000" d="M 328 43 L 378.919921875 43" stroke-miterlimit="10"/></g><g transform="translate(-14,2) scale(1,1)"><g><path fill="none" stroke="none"/><text fill="#000000" stroke="none" font-family="Arial" font-size="13px" font-style="normal" font-weight="bold" text-decoration="none" x="344.424072265625" y="27.5">net</text></g></g><g transform="translate(-14,2) scale(1,1)"><rect fill="#C0C0C0" stroke="none" x="663" y="151" width="77.64990234375" height="44" opacity="0.2"/></g><g transform="translate(-14,2) scale(1,1)"><rect fill="#ffffff" stroke="none" x="656" y="144" width="77.64990234375" height="44"/></g><g transform="translate(-14,2) scale(1,1)"><path fill="none" stroke="#000000" d="M 656 144 L 733.64990234375 144 L 733.64990234375 188 L 656 188 L 656 144 Z Z" stroke-miterlimit="10"/></g><g transform="translate(-14,2) scale(1,1)"><path fill="none" stroke="#000000" d="M 656 169 L 733.64990234375 169" stroke-miterlimit="10"/></g><g transform="translate(-14,2) scale(1,1)"><path fill="none" stroke="#000000" d="M 656 179 L 733.64990234375 179" stroke-miterlimit="10"/></g><g transform="translate(-14,2) scale(1,1)"><g><path fill="none" stroke="none"/><text fill="#000000" stroke="none" font-family="Arial" font-size="13px" font-style="normal" font-weight="bold" text-decoration="none" x="663.0390625" y="163.5">AsyncTask</text></g></g><g transform="translate(-14,2) scale(1,1)"><path fill="none" stroke="#000000" d="M 423 163 L 292 219" stroke-miterlimit="10" stroke-dasharray="3"/></g><g transform="translate(-14,2) scale(1,1)"><path fill="none" stroke="#000000" d="M 299.6900142359515 211.13465315126768 L 292 219 L 302.99930130678524 218.87602112053952" stroke-miterlimit="10"/></g><g transform="translate(-14,2) scale(1,1)"><path fill="none" stroke="#000000" d="M 423 138 L 305 129" stroke-miterlimit="10" stroke-dasharray="3"/></g><g transform="translate(-14,2) scale(1,1)"><path fill="none" stroke="#000000" d="M 315.4533786741465 125.57554759196466 L 305 129 L 314.8131084663722 133.97020142722744" stroke-miterlimit="10"/></g><g transform="translate(-14,2) scale(1,1)"><path fill="none" stroke="#000000" d="M 448 119 L 378 53" stroke-miterlimit="10" stroke-dasharray="3"/></g><g transform="translate(-14,2) scale(1,1)"><path fill="none" stroke="#000000" d="M 388.2820379165149 56.90892520820617 L 378 53 L 382.5064712133113 63.034526257058516" stroke-miterlimit="10"/></g><g transform="translate(-14,2) scale(1,1)"><path fill="none" stroke="#000000" d="M 487 119 L 523 61" stroke-miterlimit="10" stroke-dasharray="3"/></g><g transform="translate(-14,2) scale(1,1)"><path fill="none" stroke="#000000" d="M 521.2171580695979 71.85456008556773 L 523 61 L 514.0640073379271 67.41467342453073" stroke-miterlimit="10"/></g><g transform="translate(-14,2) scale(1,1)"><path fill="none" stroke="#000000" d="M 524 147 L 655 162" stroke-miterlimit="10" stroke-dasharray="3"/></g><g transform="translate(-14,2) scale(1,1)"><path fill="none" stroke="#000000" d="M 644.4244223803569 165.02607964384674 L 655 162 L 645.382175913611 156.66169878676027" stroke-miterlimit="10"/></g></g></svg>