<svg version="1.1" xmlns="http://www.w3.org/2000/svg" xmlns:xlink="http://www.w3.org/1999/xlink" width="977.01904296875" height="760"><defs/><g><g transform="translate(-10,-34) scale(1,1)"><rect fill="#C0C0C0" stroke="none" x="627" y="491" width="181.66259765625" height="44" opacity="0.2"/></g><g transform="translate(-10,-34) scale(1,1)"><rect fill="#ffffff" stroke="none" x="620" y="484" width="181.66259765625" height="44"/></g><g transform="translate(-10,-34) scale(1,1)"><path fill="none" stroke="#000000" d="M 620 484 L 801.66259765625 484 L 801.66259765625 528 L 620 528 L 620 484 Z Z" stroke-miterlimit="10"/></g><g transform="translate(-10,-34) scale(1,1)"><path fill="none" stroke="#000000" d="M 620 509 L 801.66259765625 509" stroke-miterlimit="10"/></g><g transform="translate(-10,-34) scale(1,1)"><path fill="none" stroke="#000000" d="M 620 519 L 801.66259765625 519" stroke-miterlimit="10"/></g><g transform="translate(-10,-34) scale(1,1)"><g><path fill="none" stroke="none"/><text fill="#000000" stroke="none" font-family="Arial" font-size="13px" font-style="normal" font-weight="bold" text-decoration="none" x="629.90185546875" y="503.5">CalendarMessageController</text></g></g><g transform="translate(-10,-34) scale(1,1)"><rect fill="#C0C0C0" stroke="none" x="243" y="491" width="82.67724609375" height="44" opacity="0.2"/></g><g transform="translate(-10,-34) scale(1,1)"><rect fill="#ffffff" stroke="none" x="236" y="484" width="82.67724609375" height="44"/></g><g transform="translate(-10,-34) scale(1,1)"><path fill="none" stroke="#000000" d="M 236 484 L 318.67724609375 484 L 318.67724609375 528 L 236 528 L 236 484 Z Z" stroke-miterlimit="10"/></g><g transform="translate(-10,-34) scale(1,1)"><path fill="none" stroke="#000000" d="M 236 509 L 318.67724609375 509" stroke-miterlimit="10"/></g><g transform="translate(-10,-34) scale(1,1)"><path fill="none" stroke="#000000" d="M 236 519 L 318.67724609375 519" stroke-miterlimit="10"/></g><g transform="translate(-10,-34) scale(1,1)"><g><path fill="none" stroke="none"/><text fill="#000000" stroke="none" font-family="Arial" font-size="13px" font-style="normal" font-weight="bold" text-decoration="none" x="243.372314453125" y="503.5">SessionInfo</text></g></g><g transform="translate(-10,-34) scale(1,1)"><rect fill="#C0C0C0" stroke="none" x="219" y="563" width="120.26806640625" height="44" opacity="0.2"/></g><g transform="translate(-10,-34) scale(1,1)"><rect fill="#ffffff" stroke="none" x="212" y="556" width="120.26806640625" height="44"/></g><g transform="translate(-10,-34) scale(1,1)"><path fill="none" stroke="#000000" d="M 212 556 L 332.26806640625 556 L 332.26806640625 600 L 212 600 L 212 556 Z Z" stroke-miterlimit="10"/></g><g transform="translate(-10,-34) scale(1,1)"><path fill="none" stroke="#000000" d="M 212 581 L 332.26806640625 581" stroke-miterlimit="10"/></g><g transform="translate(-10,-34) scale(1,1)"><path fill="none" stroke="#000000" d="M 212 591 L 332.26806640625 591" stroke-miterlimit="10"/></g><g transform="translate(-10,-34) scale(1,1)"><g><path fill="none" stroke="none"/><text fill="#000000" stroke="none" font-family="Arial" font-size="13px" font-style="normal" font-weight="bold" text-decoration="none" x="234.917724609375" y="575.5">MessageInfo</text></g></g><g transform="translate(-10,-34) scale(1,1)"><rect fill="#C0C0C0" stroke="none" x="427" y="491" width="63.919921875" height="44" opacity="0.2"/></g><g transform="translate(-10,-34) scale(1,1)"><rect fill="#ffffff" stroke="none" x="420" y="484" width="63.919921875" height="44"/></g><g transform="translate(-10,-34) scale(1,1)"><path fill="none" stroke="#000000" d="M 420 484 L 483.919921875 484 L 483.919921875 528 L 420 528 L 420 484 Z Z" stroke-miterlimit="10"/></g><g transform="translate(-10,-34) scale(1,1)"><path fill="none" stroke="#000000" d="M 420 509 L 483.919921875 509" stroke-miterlimit="10"/></g><g transform="translate(-10,-34) scale(1,1)"><path fill="none" stroke="#000000" d="M 420 519 L 483.919921875 519" stroke-miterlimit="10"/></g><g transform="translate(-10,-34) scale(1,1)"><g><path fill="none" stroke="none"/><text fill="#000000" stroke="none" font-family="Arial" font-size="13px" font-style="normal" font-weight="bold" text-decoration="none" x="425.58544921875" y="503.5">Message</text></g></g><g transform="translate(-10,-34) scale(1,1)"><rect fill="#C0C0C0" stroke="none" x="315" y="243" width="183.103515625" height="44" opacity="0.2"/></g><g transform="translate(-10,-34) scale(1,1)"><rect fill="#ffffff" stroke="none" x="308" y="236" width="183.103515625" height="44"/></g><g transform="translate(-10,-34) scale(1,1)"><path fill="none" stroke="#000000" d="M 308 236 L 491.103515625 236 L 491.103515625 280 L 308 280 L 308 236 Z Z" stroke-miterlimit="10"/></g><g transform="translate(-10,-34) scale(1,1)"><path fill="none" stroke="#000000" d="M 308 261 L 491.103515625 261" stroke-miterlimit="10"/></g><g transform="translate(-10,-34) scale(1,1)"><path fill="none" stroke="#000000" d="M 308 271 L 491.103515625 271" stroke-miterlimit="10"/></g><g transform="translate(-10,-34) scale(1,1)"><g><path fill="none" stroke="none"/><text fill="#000000" stroke="none" font-family="Arial" font-size="13px" font-style="normal" font-weight="bold" text-decoration="none" x="317.175048828125" y="255.5">CalendarWebSocketHandler</text></g></g><g transform="translate(-10,-34) scale(1,1)"><rect fill="#C0C0C0" stroke="none" x="59" y="251" width="206.1962890625" height="44" opacity="0.2"/></g><g transform="translate(-10,-34) scale(1,1)"><rect fill="#568eff" stroke="none" x="52" y="244" width="206.1962890625" height="44"/></g><g transform="translate(-10,-34) scale(1,1)"><path fill="none" stroke="#000000" d="M 52 244 L 258.1962890625 244 L 258.1962890625 288 L 52 288 L 52 244 Z Z" stroke-miterlimit="10"/></g><g transform="translate(-10,-34) scale(1,1)"><path fill="none" stroke="#000000" d="M 52 269 L 258.1962890625 269" stroke-miterlimit="10"/></g><g transform="translate(-10,-34) scale(1,1)"><path fill="none" stroke="#000000" d="M 52 279 L 258.1962890625 279" stroke-miterlimit="10"/></g><g transform="translate(-10,-34) scale(1,1)"><g><path fill="none" stroke="none"/><text fill="#000000" stroke="none" font-family="Arial" font-size="13px" font-style="normal" font-weight="bold" text-decoration="none" x="88.977783203125" y="263.5">WebSocketConnection</text></g></g><g transform="translate(-10,-34) scale(1,1)"><rect fill="#C0C0C0" stroke="none" x="27" y="363" width="258.18359375" height="44" opacity="0.2"/></g><g transform="translate(-10,-34) scale(1,1)"><rect fill="#ffffff" stroke="none" x="20" y="356" width="258.18359375" height="44"/></g><g transform="translate(-10,-34) scale(1,1)"><path fill="none" stroke="#000000" d="M 20 356 L 278.18359375 356 L 278.18359375 400 L 20 400 L 20 356 Z Z" stroke-miterlimit="10"/></g><g transform="translate(-10,-34) scale(1,1)"><path fill="none" stroke="#000000" d="M 20 381 L 278.18359375 381" stroke-miterlimit="10"/></g><g transform="translate(-10,-34) scale(1,1)"><path fill="none" stroke="#000000" d="M 20 391 L 278.18359375 391" stroke-miterlimit="10"/></g><g transform="translate(-10,-34) scale(1,1)"><g><path fill="none" stroke="none"/><text fill="#000000" stroke="none" font-family="Arial" font-size="13px" font-style="normal" font-weight="bold" text-decoration="none" x="33.104248046875" y="375.5">WebSocketConnectionHandlerSingleton</text></g></g><g transform="translate(-10,-34) scale(1,1)"><rect fill="#C0C0C0" stroke="none" x="347" y="131" width="127.47265625" height="44" opacity="0.2"/></g><g transform="translate(-10,-34) scale(1,1)"><rect fill="#568eff" stroke="none" x="340" y="124" width="127.47265625" height="44"/></g><g transform="translate(-10,-34) scale(1,1)"><path fill="none" stroke="#000000" d="M 340 124 L 467.47265625 124 L 467.47265625 168 L 340 168 L 340 124 Z Z" stroke-miterlimit="10"/></g><g transform="translate(-10,-34) scale(1,1)"><path fill="none" stroke="#000000" d="M 340 149 L 467.47265625 149" stroke-miterlimit="10"/></g><g transform="translate(-10,-34) scale(1,1)"><path fill="none" stroke="#000000" d="M 340 159 L 467.47265625 159" stroke-miterlimit="10"/></g><g transform="translate(-10,-34) scale(1,1)"><g><path fill="none" stroke="none"/><text fill="#000000" stroke="none" font-family="Arial" font-size="13px" font-style="normal" font-weight="bold" text-decoration="none" x="347.7373046875" y="143.5">WebSocketHandler</text></g></g><g transform="translate(-10,-34) scale(1,1)"><path fill="none" stroke="#000000" d="M 400 235 L 402 169" stroke-miterlimit="10"/></g><g transform="translate(-10,-34) scale(1,1)"><path fill="#FFFFFF" stroke="none" d="M 409.7995355914202 189.5710292537386 L 402 169 L 392.96919022549366 189.06101878810446"/></g><g transform="translate(-10,-34) scale(1,1)"><path fill="none" stroke="#000000" d="M 409.7995355914202 189.5710292537386 L 402 169 L 392.96919022549366 189.06101878810446 L 409.7995355914202 189.5710292537386" stroke-miterlimit="10"/></g><g transform="translate(-10,-34) scale(1,1)"><rect fill="#C0C0C0" stroke="none" x="403" y="595" width="119.55078125" height="44" opacity="0.2"/></g><g transform="translate(-10,-34) scale(1,1)"><rect fill="#ffffff" stroke="none" x="396" y="588" width="119.55078125" height="44"/></g><g transform="translate(-10,-34) scale(1,1)"><path fill="none" stroke="#000000" d="M 396 588 L 515.55078125 588 L 515.55078125 632 L 396 632 L 396 588 Z Z" stroke-miterlimit="10"/></g><g transform="translate(-10,-34) scale(1,1)"><path fill="none" stroke="#000000" d="M 396 613 L 515.55078125 613" stroke-miterlimit="10"/></g><g transform="translate(-10,-34) scale(1,1)"><path fill="none" stroke="#000000" d="M 396 623 L 515.55078125 623" stroke-miterlimit="10"/></g><g transform="translate(-10,-34) scale(1,1)"><g><path fill="none" stroke="none"/><text fill="#000000" stroke="none" font-family="Arial" font-size="13px" font-style="normal" font-weight="bold" text-decoration="none" x="403.023193359375" y="607.5">CalendarMessage</text></g></g><g transform="translate(-10,-34) scale(1,1)"><rect fill="#C0C0C0" stroke="none" x="427" y="747" width="50.919921875" height="44" opacity="0.2"/></g><g transform="translate(-10,-34) scale(1,1)"><rect fill="#ffffff" stroke="none" x="420" y="740" width="50.919921875" height="44"/></g><g transform="translate(-10,-34) scale(1,1)"><path fill="none" stroke="#000000" d="M 420 740 L 470.919921875 740 L 470.919921875 784 L 420 784 L 420 740 Z Z" stroke-miterlimit="10"/></g><g transform="translate(-10,-34) scale(1,1)"><path fill="none" stroke="#000000" d="M 420 765 L 470.919921875 765" stroke-miterlimit="10"/></g><g transform="translate(-10,-34) scale(1,1)"><path fill="none" stroke="#000000" d="M 420 775 L 470.919921875 775" stroke-miterlimit="10"/></g><g transform="translate(-10,-34) scale(1,1)"><g><path fill="none" stroke="none"/><text fill="#000000" stroke="none" font-family="Arial" font-size="13px" font-style="normal" font-weight="bold" text-decoration="none" x="428.838623046875" y="759.5">Event</text></g></g><g transform="translate(-10,-34) scale(1,1)"><path fill="none" stroke="#000000" d="M 419 506 L 320 506" stroke-miterlimit="10"/></g><g transform="translate(-10,-34) scale(1,1)"><path fill="#000000" stroke="none" d="M 330.16267485762415 501.790482243984 L 320 506 L 330.16267485762415 510.209517756016 L 342 506"/></g><g transform="translate(-10,-34) scale(1,1)"><path fill="none" stroke="#000000" d="M 330.16267485762415 501.790482243984 L 320 506 L 330.16267485762415 510.209517756016 L 342 506 L 330.16267485762415 501.790482243984" stroke-miterlimit="10"/></g><g transform="translate(-10,-34) scale(1,1)"><path fill="none" stroke="#000000" d="M 419 519 L 329 555" stroke-miterlimit="10"/></g><g transform="translate(-10,-34) scale(1,1)"><path fill="#000000" stroke="none" d="M 336.8724310758183 547.3172381947317 L 329 555 L 339.99918236888107 555.1341164273886 L 349.42648719947573 546.8294051202097"/></g><g transform="translate(-10,-34) scale(1,1)"><path fill="none" stroke="#000000" d="M 336.8724310758183 547.3172381947317 L 329 555 L 339.99918236888107 555.1341164273886 L 349.42648719947573 546.8294051202097 L 336.8724310758183 547.3172381947317" stroke-miterlimit="10"/></g><g transform="translate(-10,-34) scale(1,1)"><path fill="none" stroke="#000000" d="M 454 587 L 452 529" stroke-miterlimit="10"/></g><g transform="translate(-10,-34) scale(1,1)"><path fill="#FFFFFF" stroke="none" d="M 461.1144924079225 549.0231373202583 L 452 529 L 444.2864232089312 549.6034155684995"/></g><g transform="translate(-10,-34) scale(1,1)"><path fill="none" stroke="#000000" d="M 461.1144924079225 549.0231373202583 L 452 529 L 444.2864232089312 549.6034155684995 L 461.1144924079225 549.0231373202583" stroke-miterlimit="10"/></g><g transform="translate(-10,-34) scale(1,1)"><path fill="none" stroke="#000000" d="M 453 633 L 447 739" stroke-miterlimit="10"/></g><g transform="translate(-10,-34) scale(1,1)"><path fill="#000000" stroke="none" d="M 443.37153611795907 728.6156728741471 L 447 739 L 451.7771167124684 729.0914604549683 L 448.2432928644984 717.0351593938611"/></g><g transform="translate(-10,-34) scale(1,1)"><path fill="none" stroke="#000000" d="M 443.37153611795907 728.6156728741471 L 447 739 L 451.7771167124684 729.0914604549683 L 448.2432928644984 717.0351593938611 L 443.37153611795907 728.6156728741471" stroke-miterlimit="10"/></g><g transform="translate(-10,-34) scale(1,1)"><g><path fill="none" stroke="none"/><text fill="#000000" stroke="none" font-family="Arial" font-size="13px" font-style="normal" font-weight="normal" text-decoration="none" x="436" y="660">1</text></g></g><g transform="translate(-10,-34) scale(1,1)"><g><path fill="none" stroke="none"/><text fill="#000000" stroke="none" font-family="Arial" font-size="13px" font-style="normal" font-weight="normal" text-decoration="none" x="432" y="723">n</text></g></g><g transform="translate(-10,-34) scale(1,1)"><path fill="none" stroke="#000000" d="M 654 529 L 511 587" stroke-miterlimit="10" stroke-dasharray="3"/></g><g transform="translate(-10,-34) scale(1,1)"><path fill="none" stroke="#000000" d="M 518.8353595024835 579.2794338635796 L 511 587 L 521.9997005069026 587.0811711675784" stroke-miterlimit="10"/></g><g transform="translate(-10,-34) scale(1,1)"><path fill="none" stroke="#000000" d="M 150 355 L 154 289" stroke-miterlimit="10"/></g><g transform="translate(-10,-34) scale(1,1)"><path fill="#000000" stroke="none" d="M 157.58701638070804 299.3987169152993 L 154 289 L 149.18340036057847 298.8894068534733 L 152.66910867115843 310.9597069258862"/></g><g transform="translate(-10,-34) scale(1,1)"><path fill="none" stroke="#000000" d="M 157.58701638070804 299.3987169152993 L 154 289 L 149.18340036057847 298.8894068534733 L 152.66910867115843 310.9597069258862 L 157.58701638070804 299.3987169152993" stroke-miterlimit="10"/></g><g transform="translate(-10,-34) scale(1,1)"><path fill="none" stroke="#000000" d="M 259 263 L 307 261" stroke-miterlimit="10"/></g><g transform="translate(-10,-34) scale(1,1)"><path fill="#000000" stroke="none" d="M 297.02137995582217 265.6289461018608 L 307 261 L 296.6708909215051 257.2172092782506 L 285.0190723919683 261.915871983668"/></g><g transform="translate(-10,-34) scale(1,1)"><path fill="none" stroke="#000000" d="M 297.02137995582217 265.6289461018608 L 307 261 L 296.6708909215051 257.2172092782506 L 285.0190723919683 261.915871983668 L 297.02137995582217 265.6289461018608" stroke-miterlimit="10"/></g><g transform="translate(-10,-34) scale(1,1)"><path fill="none" stroke="#000000" d="M 428 281 L 681 483" stroke-miterlimit="10" stroke-dasharray="3"/></g><g transform="translate(-10,-34) scale(1,1)"><path fill="none" stroke="#000000" d="M 670.431670524814 479.94870320946745 L 681 483 L 675.6846552142806 473.36946991028395" stroke-miterlimit="10"/></g><g transform="translate(-10,-34) scale(1,1)"><rect fill="#C0C0C0" stroke="none" x="875" y="491" width="73.2890625" height="44" opacity="0.2"/></g><g transform="translate(-10,-34) scale(1,1)"><rect fill="#ffffff" stroke="none" x="868" y="484" width="73.2890625" height="44"/></g><g transform="translate(-10,-34) scale(1,1)"><path fill="none" stroke="#000000" d="M 868 484 L 941.2890625 484 L 941.2890625 528 L 868 528 L 868 484 Z Z" stroke-miterlimit="10"/></g><g transform="translate(-10,-34) scale(1,1)"><path fill="none" stroke="#000000" d="M 868 509 L 941.2890625 509" stroke-miterlimit="10"/></g><g transform="translate(-10,-34) scale(1,1)"><path fill="none" stroke="#000000" d="M 868 519 L 941.2890625 519" stroke-miterlimit="10"/></g><g transform="translate(-10,-34) scale(1,1)"><g><path fill="none" stroke="none"/><text fill="#000000" stroke="none" font-family="Arial" font-size="13px" font-style="normal" font-weight="bold" text-decoration="none" x="873.937744140625" y="503.5">EventDAO</text></g></g><g transform="translate(-10,-34) scale(1,1)"><path fill="none" stroke="#000000" d="M 867 527 L 472 747" stroke-miterlimit="10" stroke-dasharray="3"/></g><g transform="translate(-10,-34) scale(1,1)"><path fill="none" stroke="#000000" d="M 478.83019597135393 738.3774468402393 L 472 747 L 482.9267436985857 745.7326120777691" stroke-miterlimit="10"/></g><g transform="translate(-10,-34) scale(1,1)"><rect fill="#C0C0C0" stroke="none" x="323" y="403" width="110.892578125" height="44" opacity="0.2"/></g><g transform="translate(-10,-34) scale(1,1)"><rect fill="#ffffff" stroke="none" x="316" y="396" width="110.892578125" height="44"/></g><g transform="translate(-10,-34) scale(1,1)"><path fill="none" stroke="#000000" d="M 316 396 L 426.892578125 396 L 426.892578125 440 L 316 440 L 316 396 Z Z" stroke-miterlimit="10"/></g><g transform="translate(-10,-34) scale(1,1)"><path fill="none" stroke="#000000" d="M 316 421 L 426.892578125 421" stroke-miterlimit="10"/></g><g transform="translate(-10,-34) scale(1,1)"><path fill="none" stroke="#000000" d="M 316 431 L 426.892578125 431" stroke-miterlimit="10"/></g><g transform="translate(-10,-34) scale(1,1)"><g><path fill="none" stroke="none"/><text fill="#000000" stroke="none" font-family="Arial" font-size="13px" font-style="normal" font-weight="bold" text-decoration="none" x="323.39453125" y="415.5">CalendarService</text></g></g><g transform="translate(-10,-34) scale(1,1)"><rect fill="#C0C0C0" stroke="none" x="355" y="323" width="55.26171875" height="44" opacity="0.2"/></g><g transform="translate(-10,-34) scale(1,1)"><rect fill="#568eff" stroke="none" x="348" y="316" width="55.26171875" height="44"/></g><g transform="translate(-10,-34) scale(1,1)"><path fill="none" stroke="#000000" d="M 348 316 L 403.26171875 316 L 403.26171875 360 L 348 360 L 348 316 Z Z" stroke-miterlimit="10"/></g><g transform="translate(-10,-34) scale(1,1)"><path fill="none" stroke="#000000" d="M 348 341 L 403.26171875 341" stroke-miterlimit="10"/></g><g transform="translate(-10,-34) scale(1,1)"><path fill="none" stroke="#000000" d="M 348 351 L 403.26171875 351" stroke-miterlimit="10"/></g><g transform="translate(-10,-34) scale(1,1)"><g><path fill="none" stroke="none"/><text fill="#000000" stroke="none" font-family="Arial" font-size="13px" font-style="normal" font-weight="bold" text-decoration="none" x="353.956787109375" y="335.5">Service</text></g></g><g transform="translate(-10,-34) scale(1,1)"><path fill="none" stroke="#000000" d="M 372 395 L 374 361" stroke-miterlimit="10"/></g><g transform="translate(-10,-34) scale(1,1)"><path fill="#FFFFFF" stroke="none" d="M 381.2109617663616 381.7846585346998 L 374 361 L 364.40194696933816 380.79589295840435"/></g><g transform="translate(-10,-34) scale(1,1)"><path fill="none" stroke="#000000" d="M 381.2109617663616 381.7846585346998 L 374 361 L 364.40194696933816 380.79589295840435 L 381.2109617663616 381.7846585346998" stroke-miterlimit="10"/></g><g transform="translate(-10,-34) scale(1,1)"><path fill="none" stroke="#000000" d="M 428 433 L 621 483" stroke-miterlimit="10" stroke-dasharray="3"/></g><g transform="translate(-10,-34) scale(1,1)"><path fill="none" stroke="#000000" d="M 610.1064068883579 484.5263122609687 L 621 483 L 612.2178006893316 476.37633218920996" stroke-miterlimit="10"/></g><g transform="translate(-10,-34) scale(1,1)"><rect fill="#C0C0C0" stroke="none" x="179" y="67" width="50.919921875" height="44" opacity="0.2"/></g><g transform="translate(-10,-34) scale(1,1)"><rect fill="#568eff" stroke="none" x="172" y="60" width="50.919921875" height="44"/></g><g transform="translate(-10,-34) scale(1,1)"><path fill="none" stroke="#000000" d="M 172 60 L 222.919921875 60 L 222.919921875 104 L 172 104 L 172 60 Z Z" stroke-miterlimit="10"/></g><g transform="translate(-10,-34) scale(1,1)"><path fill="none" stroke="#000000" d="M 172 85 L 222.919921875 85" stroke-miterlimit="10"/></g><g transform="translate(-10,-34) scale(1,1)"><path fill="none" stroke="#000000" d="M 172 95 L 222.919921875 95" stroke-miterlimit="10"/></g><g transform="translate(-10,-34) scale(1,1)"><g><path fill="none" stroke="none"/><text fill="#000000" stroke="none" font-family="Arial" font-size="13px" font-style="normal" font-weight="bold" text-decoration="none" x="186.259521484375" y="79.5">Bus</text></g></g><g transform="translate(-10,-34) scale(1,1)"><rect fill="#C0C0C0" stroke="none" x="283" y="51" width="141.17724609375" height="44" opacity="0.2"/></g><g transform="translate(-10,-34) scale(1,1)"><rect fill="#ffffff" stroke="none" x="276" y="44" width="141.17724609375" height="44"/></g><g transform="translate(-10,-34) scale(1,1)"><path fill="none" stroke="#000000" d="M 276 44 L 417.17724609375 44 L 417.17724609375 88 L 276 88 L 276 44 Z Z" stroke-miterlimit="10"/></g><g transform="translate(-10,-34) scale(1,1)"><path fill="none" stroke="#000000" d="M 276 69 L 417.17724609375 69" stroke-miterlimit="10"/></g><g transform="translate(-10,-34) scale(1,1)"><path fill="none" stroke="#000000" d="M 276 79 L 417.17724609375 79" stroke-miterlimit="10"/></g><g transform="translate(-10,-34) scale(1,1)"><g><path fill="none" stroke="none"/><text fill="#000000" stroke="none" font-family="Arial" font-size="13px" font-style="normal" font-weight="bold" text-decoration="none" x="285.52099609375" y="63.5">BusHandlerSingleton</text></g></g><g transform="translate(-10,-34) scale(1,1)"><path fill="none" stroke="#000000" d="M 275 74 L 224 79" stroke-miterlimit="10"/></g><g transform="translate(-10,-34) scale(1,1)"><path fill="#000000" stroke="none" d="M 233.70345526788736 73.81898119438765 L 224 79 L 234.52491255176702 82.19784548995996 L 245.89502755263956 76.85342867130984"/></g><g transform="translate(-10,-34) scale(1,1)"><path fill="none" stroke="#000000" d="M 233.70345526788736 73.81898119438765 L 224 79 L 234.52491255176702 82.19784548995996 L 245.89502755263956 76.85342867130984 L 233.70345526788736 73.81898119438765" stroke-miterlimit="10"/></g><g transform="translate(-10,-34) scale(1,1)"><rect fill="#C0C0C0" stroke="none" x="35" y="139" width="98.578125" height="44" opacity="0.2"/></g><g transform="translate(-10,-34) scale(1,1)"><rect fill="#ffffff" stroke="none" x="28" y="132" width="98.578125" height="44"/></g><g transform="translate(-10,-34) scale(1,1)"><path fill="none" stroke="#000000" d="M 28 132 L 126.578125 132 L 126.578125 176 L 28 176 L 28 132 Z Z" stroke-miterlimit="10"/></g><g transform="translate(-10,-34) scale(1,1)"><path fill="none" stroke="#000000" d="M 28 157 L 126.578125 157" stroke-miterlimit="10"/></g><g transform="translate(-10,-34) scale(1,1)"><path fill="none" stroke="#000000" d="M 28 167 L 126.578125 167" stroke-miterlimit="10"/></g><g transform="translate(-10,-34) scale(1,1)"><g><path fill="none" stroke="none"/><text fill="#000000" stroke="none" font-family="Arial" font-size="13px" font-style="normal" font-weight="bold" text-decoration="none" x="35.74365234375" y="151.5">FullSyncEvent</text></g></g><g transform="translate(-10,-34) scale(1,1)"><path fill="none" stroke="#000000" d="M 171 98 L 115 131" stroke-miterlimit="10"/></g><g transform="translate(-10,-34) scale(1,1)"><path fill="#FFFFFF" stroke="none" d="M 121.61839547812961 122.21382669786935 L 115 131 L 125.89267504577661 129.46714960054305 L 133.95384615384614 119.83076923076923"/></g><g transform="translate(-10,-34) scale(1,1)"><path fill="none" stroke="#000000" d="M 121.61839547812961 122.21382669786935 L 115 131 L 125.89267504577661 129.46714960054305 L 133.95384615384614 119.83076923076923 L 121.61839547812961 122.21382669786935" stroke-miterlimit="10"/></g><g transform="translate(-10,-34) scale(1,1)"><rect fill="#C0C0C0" stroke="none" x="655" y="247" width="117.37353515625" height="44" opacity="0.2"/></g><g transform="translate(-10,-34) scale(1,1)"><rect fill="#ffffff" stroke="none" x="648" y="240" width="117.37353515625" height="44"/></g><g transform="translate(-10,-34) scale(1,1)"><path fill="none" stroke="#000000" d="M 648 240 L 765.37353515625 240 L 765.37353515625 284 L 648 284 L 648 240 Z Z" stroke-miterlimit="10"/></g><g transform="translate(-10,-34) scale(1,1)"><path fill="none" stroke="#000000" d="M 648 265 L 765.37353515625 265" stroke-miterlimit="10"/></g><g transform="translate(-10,-34) scale(1,1)"><path fill="none" stroke="#000000" d="M 648 275 L 765.37353515625 275" stroke-miterlimit="10"/></g><g transform="translate(-10,-34) scale(1,1)"><g><path fill="none" stroke="none"/><text fill="#000000" stroke="none" font-family="Arial" font-size="13px" font-style="normal" font-weight="bold" text-decoration="none" x="656.10546875" y="259.5">CalendarProvider</text></g></g><g transform="translate(-10,-34) scale(1,1)"><rect fill="#C0C0C0" stroke="none" x="871" y="183" width="113.01904296875" height="44" opacity="0.2"/></g><g transform="translate(-10,-34) scale(1,1)"><rect fill="#568eff" stroke="none" x="864" y="176" width="113.01904296875" height="44"/></g><g transform="translate(-10,-34) scale(1,1)"><path fill="none" stroke="#000000" d="M 864 176 L 977.01904296875 176 L 977.01904296875 220 L 864 220 L 864 176 Z Z" stroke-miterlimit="10"/></g><g transform="translate(-10,-34) scale(1,1)"><path fill="none" stroke="#000000" d="M 864 201 L 977.01904296875 201" stroke-miterlimit="10"/></g><g transform="translate(-10,-34) scale(1,1)"><path fill="none" stroke="#000000" d="M 864 211 L 977.01904296875 211" stroke-miterlimit="10"/></g><g transform="translate(-10,-34) scale(1,1)"><g><path fill="none" stroke="none"/><text fill="#000000" stroke="none" font-family="Arial" font-size="13px" font-style="normal" font-weight="bold" text-decoration="none" x="872.095947265625" y="195.5">ContentResolver</text></g></g><g transform="translate(-10,-34) scale(1,1)"><rect fill="#C0C0C0" stroke="none" x="871" y="287" width="51.6181640625" height="44" opacity="0.2"/></g><g transform="translate(-10,-34) scale(1,1)"><rect fill="#568eff" stroke="none" x="864" y="280" width="51.6181640625" height="44"/></g><g transform="translate(-10,-34) scale(1,1)"><path fill="none" stroke="#000000" d="M 864 280 L 915.6181640625 280 L 915.6181640625 324 L 864 324 L 864 280 Z Z" stroke-miterlimit="10"/></g><g transform="translate(-10,-34) scale(1,1)"><path fill="none" stroke="#000000" d="M 864 305 L 915.6181640625 305" stroke-miterlimit="10"/></g><g transform="translate(-10,-34) scale(1,1)"><path fill="none" stroke="#000000" d="M 864 315 L 915.6181640625 315" stroke-miterlimit="10"/></g><g transform="translate(-10,-34) scale(1,1)"><g><path fill="none" stroke="none"/><text fill="#000000" stroke="none" font-family="Arial" font-size="13px" font-style="normal" font-weight="bold" text-decoration="none" x="870.305908203125" y="299.5">Cursor</text></g></g><g transform="translate(-10,-34) scale(1,1)"><rect fill="#C0C0C0" stroke="none" x="871" y="383" width="56.6708984375" height="44" opacity="0.2"/></g><g transform="translate(-10,-34) scale(1,1)"><rect fill="#ffffff" stroke="none" x="864" y="376" width="56.6708984375" height="44"/></g><g transform="translate(-10,-34) scale(1,1)"><path fill="none" stroke="#000000" d="M 864 376 L 920.6708984375 376 L 920.6708984375 420 L 864 420 L 864 376 Z Z" stroke-miterlimit="10"/></g><g transform="translate(-10,-34) scale(1,1)"><path fill="none" stroke="#000000" d="M 864 401 L 920.6708984375 401" stroke-miterlimit="10"/></g><g transform="translate(-10,-34) scale(1,1)"><path fill="none" stroke="#000000" d="M 864 411 L 920.6708984375 411" stroke-miterlimit="10"/></g><g transform="translate(-10,-34) scale(1,1)"><g><path fill="none" stroke="none"/><text fill="#000000" stroke="none" font-family="Arial" font-size="13px" font-style="normal" font-weight="bold" text-decoration="none" x="869.925048828125" y="395.5">Agenda</text></g></g><g transform="translate(-10,-34) scale(1,1)"><path fill="none" stroke="#000000" d="M 737 285 L 863 377" stroke-miterlimit="10" stroke-dasharray="3"/></g><g transform="translate(-10,-34) scale(1,1)"><path fill="none" stroke="#000000" d="M 852.3100280748516 374.40683586336314 L 863 377 L 857.2746923067795 367.6074044152881" stroke-miterlimit="10"/></g><g transform="translate(-10,-34) scale(1,1)"><path fill="none" stroke="#000000" d="M 766 275 L 863 296" stroke-miterlimit="10" stroke-dasharray="3"/></g><g transform="translate(-10,-34) scale(1,1)"><path fill="none" stroke="#000000" d="M 852.1767253905064 297.9638550678426 L 863 296 L 853.9581338932438 289.7354443647219" stroke-miterlimit="10"/></g><g transform="translate(-10,-34) scale(1,1)"><path fill="none" stroke="#000000" d="M 766 244 L 863 215" stroke-miterlimit="10" stroke-dasharray="3"/></g><g transform="translate(-10,-34) scale(1,1)"><path fill="none" stroke="#000000" d="M 854.4689454339573 221.94414199100237 L 863 215 L 852.0573835743187 213.8778833570388" stroke-miterlimit="10"/></g><g transform="translate(-10,-34) scale(1,1)"><path fill="none" stroke="#000000" d="M 710 483 L 706 285" stroke-miterlimit="10" stroke-dasharray="3"/></g><g transform="translate(-10,-34) scale(1,1)"><path fill="none" stroke="#000000" d="M 710.4139237018308 295.0755782739462 L 706 285 L 701.9966056593214 295.2456251030878" stroke-miterlimit="10"/></g></g></svg>