<svg version="1.1" xmlns="http://www.w3.org/2000/svg" xmlns:xlink="http://www.w3.org/1999/xlink" width="941.2890625" height="784"><defs/><g><g transform="translate(-30,-14) scale(1,1)"><rect fill="#C0C0C0" stroke="none" x="647" y="495" width="181.66259765625" height="44" opacity="0.2"/></g><g transform="translate(-30,-14) scale(1,1)"><rect fill="#ffffff" stroke="none" x="640" y="488" width="181.66259765625" height="44"/></g><g transform="translate(-30,-14) scale(1,1)"><path fill="none" stroke="#000000" d="M 640 488 L 821.66259765625 488 L 821.66259765625 532 L 640 532 L 640 488 Z Z" stroke-miterlimit="10"/></g><g transform="translate(-30,-14) scale(1,1)"><path fill="none" stroke="#000000" d="M 640 513 L 821.66259765625 513" stroke-miterlimit="10"/></g><g transform="translate(-30,-14) scale(1,1)"><path fill="none" stroke="#000000" d="M 640 523 L 821.66259765625 523" stroke-miterlimit="10"/></g><g transform="translate(-30,-14) scale(1,1)"><g><path fill="none" stroke="none"/><text fill="#000000" stroke="none" font-family="Arial" font-size="13px" font-style="normal" font-weight="bold" text-decoration="none" x="649.90185546875" y="507.5">CalendarMessageController</text></g></g><g transform="translate(-30,-14) scale(1,1)"><rect fill="#C0C0C0" stroke="none" x="263" y="495" width="82.67724609375" height="44" opacity="0.2"/></g><g transform="translate(-30,-14) scale(1,1)"><rect fill="#ffffff" stroke="none" x="256" y="488" width="82.67724609375" height="44"/></g><g transform="translate(-30,-14) scale(1,1)"><path fill="none" stroke="#000000" d="M 256 488 L 338.67724609375 488 L 338.67724609375 532 L 256 532 L 256 488 Z Z" stroke-miterlimit="10"/></g><g transform="translate(-30,-14) scale(1,1)"><path fill="none" stroke="#000000" d="M 256 513 L 338.67724609375 513" stroke-miterlimit="10"/></g><g transform="translate(-30,-14) scale(1,1)"><path fill="none" stroke="#000000" d="M 256 523 L 338.67724609375 523" stroke-miterlimit="10"/></g><g transform="translate(-30,-14) scale(1,1)"><g><path fill="none" stroke="none"/><text fill="#000000" stroke="none" font-family="Arial" font-size="13px" font-style="normal" font-weight="bold" text-decoration="none" x="263.372314453125" y="507.5">SessionInfo</text></g></g><g transform="translate(-30,-14) scale(1,1)"><rect fill="#C0C0C0" stroke="none" x="239" y="567" width="120.26806640625" height="44" opacity="0.2"/></g><g transform="translate(-30,-14) scale(1,1)"><rect fill="#ffffff" stroke="none" x="232" y="560" width="120.26806640625" height="44"/></g><g transform="translate(-30,-14) scale(1,1)"><path fill="none" stroke="#000000" d="M 232 560 L 352.26806640625 560 L 352.26806640625 604 L 232 604 L 232 560 Z Z" stroke-miterlimit="10"/></g><g transform="translate(-30,-14) scale(1,1)"><path fill="none" stroke="#000000" d="M 232 585 L 352.26806640625 585" stroke-miterlimit="10"/></g><g transform="translate(-30,-14) scale(1,1)"><path fill="none" stroke="#000000" d="M 232 595 L 352.26806640625 595" stroke-miterlimit="10"/></g><g transform="translate(-30,-14) scale(1,1)"><g><path fill="none" stroke="none"/><text fill="#000000" stroke="none" font-family="Arial" font-size="13px" font-style="normal" font-weight="bold" text-decoration="none" x="254.917724609375" y="579.5">MessageInfo</text></g></g><g transform="translate(-30,-14) scale(1,1)"><rect fill="#C0C0C0" stroke="none" x="447" y="495" width="63.919921875" height="44" opacity="0.2"/></g><g transform="translate(-30,-14) scale(1,1)"><rect fill="#ffffff" stroke="none" x="440" y="488" width="63.919921875" height="44"/></g><g transform="translate(-30,-14) scale(1,1)"><path fill="none" stroke="#000000" d="M 440 488 L 503.919921875 488 L 503.919921875 532 L 440 532 L 440 488 Z Z" stroke-miterlimit="10"/></g><g transform="translate(-30,-14) scale(1,1)"><path fill="none" stroke="#000000" d="M 440 513 L 503.919921875 513" stroke-miterlimit="10"/></g><g transform="translate(-30,-14) scale(1,1)"><path fill="none" stroke="#000000" d="M 440 523 L 503.919921875 523" stroke-miterlimit="10"/></g><g transform="translate(-30,-14) scale(1,1)"><g><path fill="none" stroke="none"/><text fill="#000000" stroke="none" font-family="Arial" font-size="13px" font-style="normal" font-weight="bold" text-decoration="none" x="445.58544921875" y="507.5">Message</text></g></g><g transform="translate(-30,-14) scale(1,1)"><rect fill="#C0C0C0" stroke="none" x="335" y="247" width="183.103515625" height="44" opacity="0.2"/></g><g transform="translate(-30,-14) scale(1,1)"><rect fill="#ffffff" stroke="none" x="328" y="240" width="183.103515625" height="44"/></g><g transform="translate(-30,-14) scale(1,1)"><path fill="none" stroke="#000000" d="M 328 240 L 511.103515625 240 L 511.103515625 284 L 328 284 L 328 240 Z Z" stroke-miterlimit="10"/></g><g transform="translate(-30,-14) scale(1,1)"><path fill="none" stroke="#000000" d="M 328 265 L 511.103515625 265" stroke-miterlimit="10"/></g><g transform="translate(-30,-14) scale(1,1)"><path fill="none" stroke="#000000" d="M 328 275 L 511.103515625 275" stroke-miterlimit="10"/></g><g transform="translate(-30,-14) scale(1,1)"><g><path fill="none" stroke="none"/><text fill="#000000" stroke="none" font-family="Arial" font-size="13px" font-style="normal" font-weight="bold" text-decoration="none" x="337.175048828125" y="259.5">CalendarWebSocketHandler</text></g></g><g transform="translate(-30,-14) scale(1,1)"><rect fill="#C0C0C0" stroke="none" x="79" y="255" width="206.1962890625" height="44" opacity="0.2"/></g><g transform="translate(-30,-14) scale(1,1)"><rect fill="#568eff" stroke="none" x="72" y="248" width="206.1962890625" height="44"/></g><g transform="translate(-30,-14) scale(1,1)"><path fill="none" stroke="#000000" d="M 72 248 L 278.1962890625 248 L 278.1962890625 292 L 72 292 L 72 248 Z Z" stroke-miterlimit="10"/></g><g transform="translate(-30,-14) scale(1,1)"><path fill="none" stroke="#000000" d="M 72 273 L 278.1962890625 273" stroke-miterlimit="10"/></g><g transform="translate(-30,-14) scale(1,1)"><path fill="none" stroke="#000000" d="M 72 283 L 278.1962890625 283" stroke-miterlimit="10"/></g><g transform="translate(-30,-14) scale(1,1)"><g><path fill="none" stroke="none"/><text fill="#000000" stroke="none" font-family="Arial" font-size="13px" font-style="normal" font-weight="bold" text-decoration="none" x="108.977783203125" y="267.5">WebSocketConnection</text></g></g><g transform="translate(-30,-14) scale(1,1)"><rect fill="#C0C0C0" stroke="none" x="47" y="367" width="258.18359375" height="44" opacity="0.2"/></g><g transform="translate(-30,-14) scale(1,1)"><rect fill="#ffffff" stroke="none" x="40" y="360" width="258.18359375" height="44"/></g><g transform="translate(-30,-14) scale(1,1)"><path fill="none" stroke="#000000" d="M 40 360 L 298.18359375 360 L 298.18359375 404 L 40 404 L 40 360 Z Z" stroke-miterlimit="10"/></g><g transform="translate(-30,-14) scale(1,1)"><path fill="none" stroke="#000000" d="M 40 385 L 298.18359375 385" stroke-miterlimit="10"/></g><g transform="translate(-30,-14) scale(1,1)"><path fill="none" stroke="#000000" d="M 40 395 L 298.18359375 395" stroke-miterlimit="10"/></g><g transform="translate(-30,-14) scale(1,1)"><g><path fill="none" stroke="none"/><text fill="#000000" stroke="none" font-family="Arial" font-size="13px" font-style="normal" font-weight="bold" text-decoration="none" x="53.104248046875" y="379.5">WebSocketConnectionHandlerSingleton</text></g></g><g transform="translate(-30,-14) scale(1,1)"><rect fill="#C0C0C0" stroke="none" x="631" y="143" width="103.630859375" height="44" opacity="0.2"/></g><g transform="translate(-30,-14) scale(1,1)"><rect fill="#ffffff" stroke="none" x="624" y="136" width="103.630859375" height="44"/></g><g transform="translate(-30,-14) scale(1,1)"><path fill="none" stroke="#000000" d="M 624 136 L 727.630859375 136 L 727.630859375 180 L 624 180 L 624 136 Z Z" stroke-miterlimit="10"/></g><g transform="translate(-30,-14) scale(1,1)"><path fill="none" stroke="#000000" d="M 624 161 L 727.630859375 161" stroke-miterlimit="10"/></g><g transform="translate(-30,-14) scale(1,1)"><path fill="none" stroke="#000000" d="M 624 171 L 727.630859375 171" stroke-miterlimit="10"/></g><g transform="translate(-30,-14) scale(1,1)"><g><path fill="none" stroke="none"/><text fill="#000000" stroke="none" font-family="Arial" font-size="13px" font-style="normal" font-weight="bold" text-decoration="none" x="632.819580078125" y="155.5">AgendaActivity</text></g></g><g transform="translate(-30,-14) scale(1,1)"><rect fill="#C0C0C0" stroke="none" x="639" y="31" width="55.9599609375" height="44" opacity="0.2"/></g><g transform="translate(-30,-14) scale(1,1)"><rect fill="#568eff" stroke="none" x="632" y="24" width="55.9599609375" height="44"/></g><g transform="translate(-30,-14) scale(1,1)"><path fill="none" stroke="#000000" d="M 632 24 L 687.9599609375 24 L 687.9599609375 68 L 632 68 L 632 24 Z Z" stroke-miterlimit="10"/></g><g transform="translate(-30,-14) scale(1,1)"><path fill="none" stroke="#000000" d="M 632 49 L 687.9599609375 49" stroke-miterlimit="10"/></g><g transform="translate(-30,-14) scale(1,1)"><path fill="none" stroke="#000000" d="M 632 59 L 687.9599609375 59" stroke-miterlimit="10"/></g><g transform="translate(-30,-14) scale(1,1)"><g><path fill="none" stroke="none"/><text fill="#000000" stroke="none" font-family="Arial" font-size="13px" font-style="normal" font-weight="bold" text-decoration="none" x="639.39453125" y="43.5">Activity</text></g></g><g transform="translate(-30,-14) scale(1,1)"><path fill="none" stroke="#000000" d="M 672 135 L 662 69" stroke-miterlimit="10"/></g><g transform="translate(-30,-14) scale(1,1)"><path fill="#FFFFFF" stroke="none" d="M 673.3688776674644 87.83477158295874 L 662 69 L 656.7208157847346 90.35720520155417"/></g><g transform="translate(-30,-14) scale(1,1)"><path fill="none" stroke="#000000" d="M 673.3688776674644 87.83477158295874 L 662 69 L 656.7208157847346 90.35720520155417 L 673.3688776674644 87.83477158295874" stroke-miterlimit="10"/></g><g transform="translate(-30,-14) scale(1,1)"><rect fill="#C0C0C0" stroke="none" x="367" y="135" width="127.47265625" height="44" opacity="0.2"/></g><g transform="translate(-30,-14) scale(1,1)"><rect fill="#568eff" stroke="none" x="360" y="128" width="127.47265625" height="44"/></g><g transform="translate(-30,-14) scale(1,1)"><path fill="none" stroke="#000000" d="M 360 128 L 487.47265625 128 L 487.47265625 172 L 360 172 L 360 128 Z Z" stroke-miterlimit="10"/></g><g transform="translate(-30,-14) scale(1,1)"><path fill="none" stroke="#000000" d="M 360 153 L 487.47265625 153" stroke-miterlimit="10"/></g><g transform="translate(-30,-14) scale(1,1)"><path fill="none" stroke="#000000" d="M 360 163 L 487.47265625 163" stroke-miterlimit="10"/></g><g transform="translate(-30,-14) scale(1,1)"><g><path fill="none" stroke="none"/><text fill="#000000" stroke="none" font-family="Arial" font-size="13px" font-style="normal" font-weight="bold" text-decoration="none" x="367.7373046875" y="147.5">WebSocketHandler</text></g></g><g transform="translate(-30,-14) scale(1,1)"><path fill="none" stroke="#000000" d="M 420 239 L 422 173" stroke-miterlimit="10"/></g><g transform="translate(-30,-14) scale(1,1)"><path fill="#FFFFFF" stroke="none" d="M 429.7995355914202 193.5710292537386 L 422 173 L 412.96919022549366 193.06101878810446"/></g><g transform="translate(-30,-14) scale(1,1)"><path fill="none" stroke="#000000" d="M 429.7995355914202 193.5710292537386 L 422 173 L 412.96919022549366 193.06101878810446 L 429.7995355914202 193.5710292537386" stroke-miterlimit="10"/></g><g transform="translate(-30,-14) scale(1,1)"><rect fill="#C0C0C0" stroke="none" x="423" y="599" width="119.55078125" height="44" opacity="0.2"/></g><g transform="translate(-30,-14) scale(1,1)"><rect fill="#ffffff" stroke="none" x="416" y="592" width="119.55078125" height="44"/></g><g transform="translate(-30,-14) scale(1,1)"><path fill="none" stroke="#000000" d="M 416 592 L 535.55078125 592 L 535.55078125 636 L 416 636 L 416 592 Z Z" stroke-miterlimit="10"/></g><g transform="translate(-30,-14) scale(1,1)"><path fill="none" stroke="#000000" d="M 416 617 L 535.55078125 617" stroke-miterlimit="10"/></g><g transform="translate(-30,-14) scale(1,1)"><path fill="none" stroke="#000000" d="M 416 627 L 535.55078125 627" stroke-miterlimit="10"/></g><g transform="translate(-30,-14) scale(1,1)"><g><path fill="none" stroke="none"/><text fill="#000000" stroke="none" font-family="Arial" font-size="13px" font-style="normal" font-weight="bold" text-decoration="none" x="423.023193359375" y="611.5">CalendarMessage</text></g></g><g transform="translate(-30,-14) scale(1,1)"><rect fill="#C0C0C0" stroke="none" x="447" y="751" width="50.919921875" height="44" opacity="0.2"/></g><g transform="translate(-30,-14) scale(1,1)"><rect fill="#ffffff" stroke="none" x="440" y="744" width="50.919921875" height="44"/></g><g transform="translate(-30,-14) scale(1,1)"><path fill="none" stroke="#000000" d="M 440 744 L 490.919921875 744 L 490.919921875 788 L 440 788 L 440 744 Z Z" stroke-miterlimit="10"/></g><g transform="translate(-30,-14) scale(1,1)"><path fill="none" stroke="#000000" d="M 440 769 L 490.919921875 769" stroke-miterlimit="10"/></g><g transform="translate(-30,-14) scale(1,1)"><path fill="none" stroke="#000000" d="M 440 779 L 490.919921875 779" stroke-miterlimit="10"/></g><g transform="translate(-30,-14) scale(1,1)"><g><path fill="none" stroke="none"/><text fill="#000000" stroke="none" font-family="Arial" font-size="13px" font-style="normal" font-weight="bold" text-decoration="none" x="448.838623046875" y="763.5">Event</text></g></g><g transform="translate(-30,-14) scale(1,1)"><path fill="none" stroke="#000000" d="M 439 510 L 340 510" stroke-miterlimit="10"/></g><g transform="translate(-30,-14) scale(1,1)"><path fill="#000000" stroke="none" d="M 350.16267485762415 505.790482243984 L 340 510 L 350.16267485762415 514.209517756016 L 362 510"/></g><g transform="translate(-30,-14) scale(1,1)"><path fill="none" stroke="#000000" d="M 350.16267485762415 505.790482243984 L 340 510 L 350.16267485762415 514.209517756016 L 362 510 L 350.16267485762415 505.790482243984" stroke-miterlimit="10"/></g><g transform="translate(-30,-14) scale(1,1)"><path fill="none" stroke="#000000" d="M 439 523 L 349 559" stroke-miterlimit="10"/></g><g transform="translate(-30,-14) scale(1,1)"><path fill="#000000" stroke="none" d="M 356.8724310758183 551.3172381947317 L 349 559 L 359.99918236888107 559.1341164273886 L 369.42648719947573 550.8294051202097"/></g><g transform="translate(-30,-14) scale(1,1)"><path fill="none" stroke="#000000" d="M 356.8724310758183 551.3172381947317 L 349 559 L 359.99918236888107 559.1341164273886 L 369.42648719947573 550.8294051202097 L 356.8724310758183 551.3172381947317" stroke-miterlimit="10"/></g><g transform="translate(-30,-14) scale(1,1)"><path fill="none" stroke="#000000" d="M 474 591 L 472 533" stroke-miterlimit="10"/></g><g transform="translate(-30,-14) scale(1,1)"><path fill="#FFFFFF" stroke="none" d="M 481.1144924079225 553.0231373202583 L 472 533 L 464.2864232089312 553.6034155684995"/></g><g transform="translate(-30,-14) scale(1,1)"><path fill="none" stroke="#000000" d="M 481.1144924079225 553.0231373202583 L 472 533 L 464.2864232089312 553.6034155684995 L 481.1144924079225 553.0231373202583" stroke-miterlimit="10"/></g><g transform="translate(-30,-14) scale(1,1)"><path fill="none" stroke="#000000" d="M 473 637 L 467 743" stroke-miterlimit="10"/></g><g transform="translate(-30,-14) scale(1,1)"><path fill="#000000" stroke="none" d="M 463.37153611795907 732.6156728741471 L 467 743 L 471.7771167124684 733.0914604549683 L 468.2432928644984 721.0351593938611"/></g><g transform="translate(-30,-14) scale(1,1)"><path fill="none" stroke="#000000" d="M 463.37153611795907 732.6156728741471 L 467 743 L 471.7771167124684 733.0914604549683 L 468.2432928644984 721.0351593938611 L 463.37153611795907 732.6156728741471" stroke-miterlimit="10"/></g><g transform="translate(-30,-14) scale(1,1)"><g><path fill="none" stroke="none"/><text fill="#000000" stroke="none" font-family="Arial" font-size="13px" font-style="normal" font-weight="normal" text-decoration="none" x="456" y="664">1</text></g></g><g transform="translate(-30,-14) scale(1,1)"><g><path fill="none" stroke="none"/><text fill="#000000" stroke="none" font-family="Arial" font-size="13px" font-style="normal" font-weight="normal" text-decoration="none" x="452" y="727">n</text></g></g><g transform="translate(-30,-14) scale(1,1)"><path fill="none" stroke="#000000" d="M 674 533 L 531 591" stroke-miterlimit="10" stroke-dasharray="3"/></g><g transform="translate(-30,-14) scale(1,1)"><path fill="none" stroke="#000000" d="M 538.8353595024835 583.2794338635796 L 531 591 L 541.9997005069026 591.0811711675784" stroke-miterlimit="10"/></g><g transform="translate(-30,-14) scale(1,1)"><path fill="none" stroke="#000000" d="M 170 359 L 174 293" stroke-miterlimit="10"/></g><g transform="translate(-30,-14) scale(1,1)"><path fill="#000000" stroke="none" d="M 177.58701638070804 303.3987169152993 L 174 293 L 169.18340036057847 302.8894068534733 L 172.66910867115843 314.9597069258862"/></g><g transform="translate(-30,-14) scale(1,1)"><path fill="none" stroke="#000000" d="M 177.58701638070804 303.3987169152993 L 174 293 L 169.18340036057847 302.8894068534733 L 172.66910867115843 314.9597069258862 L 177.58701638070804 303.3987169152993" stroke-miterlimit="10"/></g><g transform="translate(-30,-14) scale(1,1)"><path fill="none" stroke="#000000" d="M 279 267 L 327 265" stroke-miterlimit="10"/></g><g transform="translate(-30,-14) scale(1,1)"><path fill="#000000" stroke="none" d="M 317.02137995582217 269.6289461018608 L 327 265 L 316.6708909215051 261.2172092782506 L 305.0190723919683 265.915871983668"/></g><g transform="translate(-30,-14) scale(1,1)"><path fill="none" stroke="#000000" d="M 317.02137995582217 269.6289461018608 L 327 265 L 316.6708909215051 261.2172092782506 L 305.0190723919683 265.915871983668 L 317.02137995582217 269.6289461018608" stroke-miterlimit="10"/></g><g transform="translate(-30,-14) scale(1,1)"><path fill="none" stroke="#000000" d="M 448 285 L 701 487" stroke-miterlimit="10" stroke-dasharray="3"/></g><g transform="translate(-30,-14) scale(1,1)"><path fill="none" stroke="#000000" d="M 690.431670524814 483.94870320946745 L 701 487 L 695.6846552142806 477.36946991028395" stroke-miterlimit="10"/></g><g transform="translate(-30,-14) scale(1,1)"><path fill="none" stroke="#000000" d="M 679 181 L 726 487" stroke-miterlimit="10" stroke-dasharray="3"/></g><g transform="translate(-30,-14) scale(1,1)"><path fill="none" stroke="#000000" d="M 720.2964337694734 477.5941862524289 L 726 487 L 728.6178843249331 476.3160549579629" stroke-miterlimit="10"/></g><g transform="translate(-30,-14) scale(1,1)"><rect fill="#C0C0C0" stroke="none" x="895" y="495" width="73.2890625" height="44" opacity="0.2"/></g><g transform="translate(-30,-14) scale(1,1)"><rect fill="#ffffff" stroke="none" x="888" y="488" width="73.2890625" height="44"/></g><g transform="translate(-30,-14) scale(1,1)"><path fill="none" stroke="#000000" d="M 888 488 L 961.2890625 488 L 961.2890625 532 L 888 532 L 888 488 Z Z" stroke-miterlimit="10"/></g><g transform="translate(-30,-14) scale(1,1)"><path fill="none" stroke="#000000" d="M 888 513 L 961.2890625 513" stroke-miterlimit="10"/></g><g transform="translate(-30,-14) scale(1,1)"><path fill="none" stroke="#000000" d="M 888 523 L 961.2890625 523" stroke-miterlimit="10"/></g><g transform="translate(-30,-14) scale(1,1)"><g><path fill="none" stroke="none"/><text fill="#000000" stroke="none" font-family="Arial" font-size="13px" font-style="normal" font-weight="bold" text-decoration="none" x="893.937744140625" y="507.5">EventDAO</text></g></g><g transform="translate(-30,-14) scale(1,1)"><path fill="none" stroke="#000000" d="M 887 531 L 492 751" stroke-miterlimit="10" stroke-dasharray="3"/></g><g transform="translate(-30,-14) scale(1,1)"><path fill="none" stroke="#000000" d="M 498.83019597135393 742.3774468402393 L 492 751 L 502.9267436985857 749.7326120777691" stroke-miterlimit="10"/></g><g transform="translate(-30,-14) scale(1,1)"><path fill="none" stroke="#000000" d="M 691 181 L 908 487" stroke-miterlimit="10" stroke-dasharray="3"/></g><g transform="translate(-30,-14) scale(1,1)"><path fill="none" stroke="#000000" d="M 898.6875428342636 481.145246244604 L 908 487 L 905.5550344712163 476.2751623059806" stroke-miterlimit="10"/></g><g transform="translate(-30,-14) scale(1,1)"><rect fill="#C0C0C0" stroke="none" x="343" y="407" width="110.892578125" height="44" opacity="0.2"/></g><g transform="translate(-30,-14) scale(1,1)"><rect fill="#ffffff" stroke="none" x="336" y="400" width="110.892578125" height="44"/></g><g transform="translate(-30,-14) scale(1,1)"><path fill="none" stroke="#000000" d="M 336 400 L 446.892578125 400 L 446.892578125 444 L 336 444 L 336 400 Z Z" stroke-miterlimit="10"/></g><g transform="translate(-30,-14) scale(1,1)"><path fill="none" stroke="#000000" d="M 336 425 L 446.892578125 425" stroke-miterlimit="10"/></g><g transform="translate(-30,-14) scale(1,1)"><path fill="none" stroke="#000000" d="M 336 435 L 446.892578125 435" stroke-miterlimit="10"/></g><g transform="translate(-30,-14) scale(1,1)"><g><path fill="none" stroke="none"/><text fill="#000000" stroke="none" font-family="Arial" font-size="13px" font-style="normal" font-weight="bold" text-decoration="none" x="343.39453125" y="419.5">CalendarService</text></g></g><g transform="translate(-30,-14) scale(1,1)"><rect fill="#C0C0C0" stroke="none" x="375" y="327" width="55.26171875" height="44" opacity="0.2"/></g><g transform="translate(-30,-14) scale(1,1)"><rect fill="#568eff" stroke="none" x="368" y="320" width="55.26171875" height="44"/></g><g transform="translate(-30,-14) scale(1,1)"><path fill="none" stroke="#000000" d="M 368 320 L 423.26171875 320 L 423.26171875 364 L 368 364 L 368 320 Z Z" stroke-miterlimit="10"/></g><g transform="translate(-30,-14) scale(1,1)"><path fill="none" stroke="#000000" d="M 368 345 L 423.26171875 345" stroke-miterlimit="10"/></g><g transform="translate(-30,-14) scale(1,1)"><path fill="none" stroke="#000000" d="M 368 355 L 423.26171875 355" stroke-miterlimit="10"/></g><g transform="translate(-30,-14) scale(1,1)"><g><path fill="none" stroke="none"/><text fill="#000000" stroke="none" font-family="Arial" font-size="13px" font-style="normal" font-weight="bold" text-decoration="none" x="373.956787109375" y="339.5">Service</text></g></g><g transform="translate(-30,-14) scale(1,1)"><path fill="none" stroke="#000000" d="M 392 399 L 394 365" stroke-miterlimit="10"/></g><g transform="translate(-30,-14) scale(1,1)"><path fill="#FFFFFF" stroke="none" d="M 401.2109617663616 385.7846585346998 L 394 365 L 384.40194696933816 384.79589295840435"/></g><g transform="translate(-30,-14) scale(1,1)"><path fill="none" stroke="#000000" d="M 401.2109617663616 385.7846585346998 L 394 365 L 384.40194696933816 384.79589295840435 L 401.2109617663616 385.7846585346998" stroke-miterlimit="10"/></g><g transform="translate(-30,-14) scale(1,1)"><path fill="none" stroke="#000000" d="M 448 437 L 641 487" stroke-miterlimit="10" stroke-dasharray="3"/></g><g transform="translate(-30,-14) scale(1,1)"><path fill="none" stroke="#000000" d="M 630.1064068883579 488.5263122609687 L 641 487 L 632.2178006893316 480.37633218920996" stroke-miterlimit="10"/></g><g transform="translate(-30,-14) scale(1,1)"><rect fill="#C0C0C0" stroke="none" x="199" y="71" width="50.919921875" height="44" opacity="0.2"/></g><g transform="translate(-30,-14) scale(1,1)"><rect fill="#568eff" stroke="none" x="192" y="64" width="50.919921875" height="44"/></g><g transform="translate(-30,-14) scale(1,1)"><path fill="none" stroke="#000000" d="M 192 64 L 242.919921875 64 L 242.919921875 108 L 192 108 L 192 64 Z Z" stroke-miterlimit="10"/></g><g transform="translate(-30,-14) scale(1,1)"><path fill="none" stroke="#000000" d="M 192 89 L 242.919921875 89" stroke-miterlimit="10"/></g><g transform="translate(-30,-14) scale(1,1)"><path fill="none" stroke="#000000" d="M 192 99 L 242.919921875 99" stroke-miterlimit="10"/></g><g transform="translate(-30,-14) scale(1,1)"><g><path fill="none" stroke="none"/><text fill="#000000" stroke="none" font-family="Arial" font-size="13px" font-style="normal" font-weight="bold" text-decoration="none" x="206.259521484375" y="83.5">Bus</text></g></g><g transform="translate(-30,-14) scale(1,1)"><rect fill="#C0C0C0" stroke="none" x="303" y="55" width="141.17724609375" height="44" opacity="0.2"/></g><g transform="translate(-30,-14) scale(1,1)"><rect fill="#ffffff" stroke="none" x="296" y="48" width="141.17724609375" height="44"/></g><g transform="translate(-30,-14) scale(1,1)"><path fill="none" stroke="#000000" d="M 296 48 L 437.17724609375 48 L 437.17724609375 92 L 296 92 L 296 48 Z Z" stroke-miterlimit="10"/></g><g transform="translate(-30,-14) scale(1,1)"><path fill="none" stroke="#000000" d="M 296 73 L 437.17724609375 73" stroke-miterlimit="10"/></g><g transform="translate(-30,-14) scale(1,1)"><path fill="none" stroke="#000000" d="M 296 83 L 437.17724609375 83" stroke-miterlimit="10"/></g><g transform="translate(-30,-14) scale(1,1)"><g><path fill="none" stroke="none"/><text fill="#000000" stroke="none" font-family="Arial" font-size="13px" font-style="normal" font-weight="bold" text-decoration="none" x="305.52099609375" y="67.5">BusHandlerSingleton</text></g></g><g transform="translate(-30,-14) scale(1,1)"><path fill="none" stroke="#000000" d="M 295 78 L 244 83" stroke-miterlimit="10"/></g><g transform="translate(-30,-14) scale(1,1)"><path fill="#000000" stroke="none" d="M 253.70345526788736 77.81898119438765 L 244 83 L 254.52491255176702 86.19784548995996 L 265.89502755263953 80.85342867130984"/></g><g transform="translate(-30,-14) scale(1,1)"><path fill="none" stroke="#000000" d="M 253.70345526788736 77.81898119438765 L 244 83 L 254.52491255176702 86.19784548995996 L 265.89502755263953 80.85342867130984 L 253.70345526788736 77.81898119438765" stroke-miterlimit="10"/></g><g transform="translate(-30,-14) scale(1,1)"><rect fill="#C0C0C0" stroke="none" x="55" y="143" width="98.578125" height="44" opacity="0.2"/></g><g transform="translate(-30,-14) scale(1,1)"><rect fill="#ffffff" stroke="none" x="48" y="136" width="98.578125" height="44"/></g><g transform="translate(-30,-14) scale(1,1)"><path fill="none" stroke="#000000" d="M 48 136 L 146.578125 136 L 146.578125 180 L 48 180 L 48 136 Z Z" stroke-miterlimit="10"/></g><g transform="translate(-30,-14) scale(1,1)"><path fill="none" stroke="#000000" d="M 48 161 L 146.578125 161" stroke-miterlimit="10"/></g><g transform="translate(-30,-14) scale(1,1)"><path fill="none" stroke="#000000" d="M 48 171 L 146.578125 171" stroke-miterlimit="10"/></g><g transform="translate(-30,-14) scale(1,1)"><g><path fill="none" stroke="none"/><text fill="#000000" stroke="none" font-family="Arial" font-size="13px" font-style="normal" font-weight="bold" text-decoration="none" x="55.74365234375" y="155.5">FullSyncEvent</text></g></g><g transform="translate(-30,-14) scale(1,1)"><path fill="none" stroke="#000000" d="M 623 143 L 438 91" stroke-miterlimit="10" stroke-dasharray="3"/></g><g transform="translate(-30,-14) scale(1,1)"><path fill="none" stroke="#000000" d="M 448.9226130544031 89.6974931617132 L 438 91 L 446.64446517693955 97.80244234115067" stroke-miterlimit="10"/></g><g transform="translate(-30,-14) scale(1,1)"><path fill="none" stroke="#000000" d="M 191 102 L 135 135" stroke-miterlimit="10"/></g><g transform="translate(-30,-14) scale(1,1)"><path fill="#FFFFFF" stroke="none" d="M 141.61839547812963 126.21382669786935 L 135 135 L 145.89267504577663 133.46714960054305 L 153.95384615384614 123.83076923076923"/></g><g transform="translate(-30,-14) scale(1,1)"><path fill="none" stroke="#000000" d="M 141.61839547812963 126.21382669786935 L 135 135 L 145.89267504577663 133.46714960054305 L 153.95384615384614 123.83076923076923 L 141.61839547812963 126.21382669786935" stroke-miterlimit="10"/></g></g></svg>