<svg version="1.1" xmlns="http://www.w3.org/2000/svg" xmlns:xlink="http://www.w3.org/1999/xlink" width="2660" height="3045"><defs/><g><g transform="translate(10,10) scale(1,1)"><path fill="none" stroke="#000000" d="M 0 0 L 2640 0 L 2640 2160 L 0 2160 L 0 0" stroke-miterlimit="10"/></g><g transform="translate(10,10) scale(1,1)"><path fill="#ffffff" stroke="none" d="M 0 0 L 0 22 L 365.755859375 22 L 376.755859375 11 L 376.755859375 0 L 0 0"/></g><g transform="translate(10,10) scale(1,1)"><path fill="none" stroke="#000000" d="M 0 0 L 0 22 L 365.755859375 22 L 376.755859375 11 L 376.755859375 0 L 0 0 L 0 0" stroke-miterlimit="10"/></g><g transform="translate(10,10) scale(1,1)"><g><path fill="none" stroke="none"/><text fill="#000000" stroke="none" font-family="Arial" font-size="13px" font-style="normal" font-weight="normal" text-decoration="none" x="70.97900390625" y="17.5">DS détailler carte en ligne  établissement de santé</text></g></g><g transform="translate(10,10) scale(1,1)"><g><path fill="none" stroke="none"/><text fill="#000000" stroke="none" font-family="Arial" font-size="13px" font-style="normal" font-weight="bold" text-decoration="none" x="5" y="17.5">interaction</text></g></g><g transform="translate(10,10) scale(1,1)"><path fill="#ffffff" stroke="none" d="M 113.6194930752841 47.3 C 113.6194930752841 43.82060576 116.4978947974659 41 120.048583984375 41 C 123.5992731712841 41 126.47767489346592 43.82060576 126.47767489346592 47.3 C 126.47767489346592 50.779394239999995 123.5992731712841 53.6 120.048583984375 53.6 C 116.4978947974659 53.6 113.6194930752841 50.779394239999995 113.6194930752841 47.3 Z"/></g><g transform="translate(10,10) scale(1,1)"><path fill="none" stroke="#000000" d="M 113.6194930752841 47.3 C 113.6194930752841 43.82060576 116.4978947974659 41 120.048583984375 41 C 123.5992731712841 41 126.47767489346592 43.82060576 126.47767489346592 47.3 C 126.47767489346592 50.779394239999995 123.5992731712841 53.6 120.048583984375 53.6 C 116.4978947974659 53.6 113.6194930752841 50.779394239999995 113.6194930752841 47.3 Z" stroke-miterlimit="10"/></g><g transform="translate(10,10) scale(1,1)"><path fill="none" stroke="#000000" d="M 120.048583984375 53.6 L 120.048583984375 66.4" stroke-miterlimit="10"/></g><g transform="translate(10,10) scale(1,1)"><path fill="none" stroke="#000000" d="M 113.24131125710228 58.4 L 126.85585671164773 58.4" stroke-miterlimit="10"/></g><g transform="translate(10,10) scale(1,1)"><path fill="none" stroke="#000000" d="M 120.048583984375 66.4 L 110.59403852982955 79" stroke-miterlimit="10"/></g><g transform="translate(10,10) scale(1,1)"><path fill="none" stroke="#000000" d="M 120.048583984375 66.4 L 129.50312943892047 79" stroke-miterlimit="10"/></g><g transform="translate(10,10) scale(1,1)"><g><path fill="none" stroke="none"/><text fill="#000000" stroke="none" font-family="Arial" font-size="13px" font-style="normal" font-weight="bold" text-decoration="none" x="81.765869140625" y="99.5">: Commercial</text></g></g><g transform="translate(10,10) scale(1,1)"><path fill="none" stroke="#000000" d="M 121.5 105 L 121.5 2804" stroke-miterlimit="10" stroke-dasharray="3"/></g><g transform="translate(10,10) scale(1,1)"><rect fill="#C0C0C0" stroke="none" x="223" y="47" width="173.58447265625" height="39" opacity="0.2"/></g><g transform="translate(10,10) scale(1,1)"><rect fill="#ffffff" stroke="none" x="216" y="40" width="173.58447265625" height="39"/></g><g transform="translate(10,10) scale(1,1)"><path fill="none" stroke="#000000" d="M 216 40 L 389.58447265625 40 L 389.58447265625 79 L 216 79 L 216 40 Z Z" stroke-miterlimit="10"/></g><g transform="translate(10,10) scale(1,1)"><g><path fill="none" stroke="none"/><text fill="#000000" stroke="none" font-family="Arial" font-size="13px" font-style="normal" font-weight="bold" text-decoration="none" x="231.266845703125" y="59.5">CustomerListViewHolder</text></g></g><g transform="translate(10,10) scale(1,1)"><path fill="none" stroke="#000000" d="M 303.5 80 L 303.5 3025" stroke-miterlimit="10" stroke-dasharray="3"/></g><g transform="translate(10,10) scale(1,1)"><rect fill="#C0C0C0" stroke="none" x="463" y="47" width="176" height="39" opacity="0.2"/></g><g transform="translate(10,10) scale(1,1)"><rect fill="#ffffff" stroke="none" x="456" y="40" width="176" height="39"/></g><g transform="translate(10,10) scale(1,1)"><path fill="none" stroke="#000000" d="M 456 40 L 632 40 L 632 79 L 456 79 L 456 40 Z Z" stroke-miterlimit="10"/></g><g transform="translate(10,10) scale(1,1)"><g><path fill="none" stroke="none"/><text fill="#000000" stroke="none" font-family="Arial" font-size="13px" font-style="normal" font-weight="bold" text-decoration="none" x="490.17822265625" y="59.5">DetailHCFragment</text></g></g><g transform="translate(10,10) scale(1,1)"><path fill="none" stroke="#000000" d="M 545.5 80 L 545.5 2048" stroke-miterlimit="10" stroke-dasharray="3"/></g><g transform="translate(10,10) scale(1,1)"><rect fill="#C0C0C0" stroke="none" x="703" y="47" width="148.29541015625" height="39" opacity="0.2"/></g><g transform="translate(10,10) scale(1,1)"><rect fill="#ffffff" stroke="none" x="696" y="40" width="148.29541015625" height="39"/></g><g transform="translate(10,10) scale(1,1)"><path fill="none" stroke="#000000" d="M 696 40 L 844.29541015625 40 L 844.29541015625 79 L 696 79 L 696 40 Z Z" stroke-miterlimit="10"/></g><g transform="translate(10,10) scale(1,1)"><g><path fill="none" stroke="none"/><text fill="#000000" stroke="none" font-family="Arial" font-size="13px" font-style="normal" font-weight="bold" text-decoration="none" x="709.4482421875" y="59.5">DetailIndepFragment</text></g></g><g transform="translate(10,10) scale(1,1)"><path fill="none" stroke="#000000" d="M 771.5 80 L 771.5 3025" stroke-miterlimit="10" stroke-dasharray="3"/></g><g transform="translate(10,10) scale(1,1)"><rect fill="#C0C0C0" stroke="none" x="1279" y="47" width="71.736328125" height="39" opacity="0.2"/></g><g transform="translate(10,10) scale(1,1)"><rect fill="#ffffff" stroke="none" x="1272" y="40" width="71.736328125" height="39"/></g><g transform="translate(10,10) scale(1,1)"><path fill="none" stroke="#000000" d="M 1272 40 L 1343.736328125 40 L 1343.736328125 79 L 1272 79 L 1272 40 Z Z" stroke-miterlimit="10"/></g><g transform="translate(10,10) scale(1,1)"><g><path fill="none" stroke="none"/><text fill="#000000" stroke="none" font-family="Arial" font-size="13px" font-style="normal" font-weight="bold" text-decoration="none" x="1287.628662109375" y="59.5">Bundle</text></g></g><g transform="translate(10,10) scale(1,1)"><path fill="none" stroke="#000000" d="M 1308.5 80 L 1308.5 2885" stroke-miterlimit="10" stroke-dasharray="3"/></g><g transform="translate(10,10) scale(1,1)"><rect fill="#C0C0C0" stroke="none" x="887" y="47" width="124.498046875" height="39" opacity="0.2"/></g><g transform="translate(10,10) scale(1,1)"><rect fill="#ffffff" stroke="none" x="880" y="40" width="124.498046875" height="39"/></g><g transform="translate(10,10) scale(1,1)"><path fill="none" stroke="#000000" d="M 880 40 L 1004.498046875 40 L 1004.498046875 79 L 880 79 L 880 40 Z Z" stroke-miterlimit="10"/></g><g transform="translate(10,10) scale(1,1)"><g><path fill="none" stroke="none"/><text fill="#000000" stroke="none" font-family="Arial" font-size="13px" font-style="normal" font-weight="bold" text-decoration="none" x="892.7626953125" y="59.5">NetworkReceiver</text></g></g><g transform="translate(10,10) scale(1,1)"><path fill="none" stroke="#000000" d="M 943.5 80 L 943.5 1613" stroke-miterlimit="10" stroke-dasharray="3"/></g><g transform="translate(10,10) scale(1,1)"><rect fill="#C0C0C0" stroke="none" x="1039" y="47" width="96.3017578125" height="39" opacity="0.2"/></g><g transform="translate(10,10) scale(1,1)"><rect fill="#ffffff" stroke="none" x="1032" y="40" width="96.3017578125" height="39"/></g><g transform="translate(10,10) scale(1,1)"><path fill="none" stroke="#000000" d="M 1032 40 L 1128.3017578125 40 L 1128.3017578125 79 L 1032 79 L 1032 40 Z Z" stroke-miterlimit="10"/></g><g transform="translate(10,10) scale(1,1)"><g><path fill="none" stroke="none"/><text fill="#000000" stroke="none" font-family="Arial" font-size="13px" font-style="normal" font-weight="bold" text-decoration="none" x="1045.476806640625" y="59.5">MainActivity</text></g></g><g transform="translate(10,10) scale(1,1)"><path fill="none" stroke="#000000" d="M 1081.5 80 L 1081.5 2037" stroke-miterlimit="10" stroke-dasharray="3"/></g><g transform="translate(10,10) scale(1,1)"><rect fill="#C0C0C0" stroke="none" x="1399" y="47" width="74.62451171875" height="39" opacity="0.2"/></g><g transform="translate(10,10) scale(1,1)"><rect fill="#ffffff" stroke="none" x="1392" y="40" width="74.62451171875" height="39"/></g><g transform="translate(10,10) scale(1,1)"><path fill="none" stroke="#000000" d="M 1392 40 L 1466.62451171875 40 L 1466.62451171875 79 L 1392 79 L 1392 40 Z Z" stroke-miterlimit="10"/></g><g transform="translate(10,10) scale(1,1)"><g><path fill="none" stroke="none"/><text fill="#000000" stroke="none" font-family="Arial" font-size="13px" font-style="normal" font-weight="bold" text-decoration="none" x="1402.5791015625" y="59.5">MapView</text></g></g><g transform="translate(10,10) scale(1,1)"><path fill="none" stroke="#000000" d="M 1430.5 80 L 1430.5 1768" stroke-miterlimit="10" stroke-dasharray="3"/></g><g transform="translate(10,10) scale(1,1)"><rect fill="#C0C0C0" stroke="none" x="1495" y="47" width="165.65625" height="39" opacity="0.2"/></g><g transform="translate(10,10) scale(1,1)"><rect fill="#ffffff" stroke="none" x="1488" y="40" width="165.65625" height="39"/></g><g transform="translate(10,10) scale(1,1)"><path fill="none" stroke="#000000" d="M 1488 40 L 1653.65625 40 L 1653.65625 79 L 1488 79 L 1488 40 Z Z" stroke-miterlimit="10"/></g><g transform="translate(10,10) scale(1,1)"><g><path fill="none" stroke="none"/><text fill="#000000" stroke="none" font-family="Arial" font-size="13px" font-style="normal" font-weight="bold" text-decoration="none" x="1502.19091796875" y="59.5">MyLocationNewOverlay</text></g></g><g transform="translate(10,10) scale(1,1)"><path fill="none" stroke="#000000" d="M 1571.5 80 L 1571.5 2264" stroke-miterlimit="10" stroke-dasharray="3"/></g><g transform="translate(10,10) scale(1,1)"><rect fill="#C0C0C0" stroke="none" x="1695" y="47" width="169.2490234375" height="39" opacity="0.2"/></g><g transform="translate(10,10) scale(1,1)"><rect fill="#ffffff" stroke="none" x="1688" y="40" width="169.2490234375" height="39"/></g><g transform="translate(10,10) scale(1,1)"><path fill="none" stroke="#000000" d="M 1688 40 L 1857.2490234375 40 L 1857.2490234375 79 L 1688 79 L 1688 40 Z Z" stroke-miterlimit="10"/></g><g transform="translate(10,10) scale(1,1)"><g><path fill="none" stroke="none"/><text fill="#000000" stroke="none" font-family="Arial" font-size="13px" font-style="normal" font-weight="bold" text-decoration="none" x="1703.260498046875" y="59.5">GpsMyLocationProvider</text></g></g><g transform="translate(10,10) scale(1,1)"><path fill="none" stroke="#000000" d="M 1773.5 80 L 1773.5 1432" stroke-miterlimit="10" stroke-dasharray="3"/></g><g transform="translate(10,10) scale(1,1)"><rect fill="#C0C0C0" stroke="none" x="1967" y="47" width="110.7236328125" height="39" opacity="0.2"/></g><g transform="translate(10,10) scale(1,1)"><rect fill="#ffffff" stroke="none" x="1960" y="40" width="110.7236328125" height="39"/></g><g transform="translate(10,10) scale(1,1)"><path fill="none" stroke="#000000" d="M 1960 40 L 2070.7236328125 40 L 2070.7236328125 79 L 1960 79 L 1960 40 Z Z" stroke-miterlimit="10"/></g><g transform="translate(10,10) scale(1,1)"><g><path fill="none" stroke="none"/><text fill="#000000" stroke="none" font-family="Arial" font-size="13px" font-style="normal" font-weight="bold" text-decoration="none" x="1972.734130859375" y="59.5">IMapController</text></g></g><g transform="translate(10,10) scale(1,1)"><path fill="none" stroke="#000000" d="M 2016.5 80 L 2016.5 1504" stroke-miterlimit="10" stroke-dasharray="3"/></g><g transform="translate(10,10) scale(1,1)"><rect fill="#C0C0C0" stroke="none" x="2151" y="47" width="76.7763671875" height="39" opacity="0.2"/></g><g transform="translate(10,10) scale(1,1)"><rect fill="#ffffff" stroke="none" x="2144" y="40" width="76.7763671875" height="39"/></g><g transform="translate(10,10) scale(1,1)"><path fill="none" stroke="#000000" d="M 2144 40 L 2220.7763671875 40 L 2220.7763671875 79 L 2144 79 L 2144 40 Z Z" stroke-miterlimit="10"/></g><g transform="translate(10,10) scale(1,1)"><g><path fill="none" stroke="none"/><text fill="#000000" stroke="none" font-family="Arial" font-size="13px" font-style="normal" font-weight="bold" text-decoration="none" x="2155.286865234375" y="59.5">GeoPoint</text></g></g><g transform="translate(10,10) scale(1,1)"><path fill="none" stroke="#000000" d="M 2183.5 80 L 2183.5 1163" stroke-miterlimit="10" stroke-dasharray="3"/></g><g transform="translate(10,10) scale(1,1)"><rect fill="#C0C0C0" stroke="none" x="2311" y="47" width="71.736328125" height="39" opacity="0.2"/></g><g transform="translate(10,10) scale(1,1)"><rect fill="#ffffff" stroke="none" x="2304" y="40" width="71.736328125" height="39"/></g><g transform="translate(10,10) scale(1,1)"><path fill="none" stroke="#000000" d="M 2304 40 L 2375.736328125 40 L 2375.736328125 79 L 2304 79 L 2304 40 Z Z" stroke-miterlimit="10"/></g><g transform="translate(10,10) scale(1,1)"><g><path fill="none" stroke="none"/><text fill="#000000" stroke="none" font-family="Arial" font-size="13px" font-style="normal" font-weight="bold" text-decoration="none" x="2319.64453125" y="59.5">Marker</text></g></g><g transform="translate(10,10) scale(1,1)"><path fill="none" stroke="#000000" d="M 2340.5 80 L 2340.5 1342" stroke-miterlimit="10" stroke-dasharray="3"/></g><g transform="translate(10,10) scale(1,1)"><rect fill="#C0C0C0" stroke="none" x="1151" y="47" width="86.16455078125" height="39" opacity="0.2"/></g><g transform="translate(10,10) scale(1,1)"><rect fill="#ffffff" stroke="none" x="1144" y="40" width="86.16455078125" height="39"/></g><g transform="translate(10,10) scale(1,1)"><path fill="none" stroke="#000000" d="M 1144 40 L 1230.16455078125 40 L 1230.16455078125 79 L 1144 79 L 1144 40 Z Z" stroke-miterlimit="10"/></g><g transform="translate(10,10) scale(1,1)"><g><path fill="none" stroke="none"/><text fill="#000000" stroke="none" font-family="Arial" font-size="13px" font-style="normal" font-weight="bold" text-decoration="none" x="1156.37548828125" y="59.5">IntentFilter</text></g></g><g transform="translate(10,10) scale(1,1)"><path fill="none" stroke="#000000" d="M 1188.5 80 L 1188.5 1784" stroke-miterlimit="10" stroke-dasharray="3"/></g><g transform="translate(10,10) scale(1,1)"><path fill="#ffffff" stroke="none" d="M 190 1823 L 1285 1823 L 1295 1833 L 1295 1854 L 190 1854 L 190 1823"/></g><g transform="translate(10,10) scale(1,1)"><path fill="none" stroke="#000000" d="M 190 1823 L 1285 1823 L 1295 1833 L 1295 1854 L 190 1854 L 190 1823 L 190 1823" stroke-miterlimit="10"/></g><g transform="translate(10,10) scale(1,1)"><path fill="none" stroke="#000000" d="M 1285 1823 L 1285 1833 L 1295 1833 L 1285 1823" stroke-miterlimit="10"/></g><g transform="translate(10,10) scale(1,1)"><g><path fill="none" stroke="none"/><text fill="#000000" stroke="none" font-family="Arial" font-size="13px" font-style="normal" font-weight="normal" text-decoration="none" x="195" y="1841">                                                                                                                       The User decide to go on another view</text></g></g><g transform="translate(10,10) scale(1,1)"><path fill="none" stroke="#000000" d="M 121 128 L 296 128" stroke-miterlimit="10"/></g><g transform="translate(10,10) scale(1,1)"><path fill="#000000" stroke="none" d="M 285.83732514237585 132.209517756016 L 296 128 L 285.83732514237585 123.79048224398402"/></g><g transform="translate(10,10) scale(1,1)"><path fill="none" stroke="#000000" d="M 285.83732514237585 132.209517756016 L 296 128 L 285.83732514237585 123.79048224398402 L 285.83732514237585 132.209517756016" stroke-miterlimit="10"/></g><g transform="translate(10,10) scale(1,1)"><g><path fill="none" stroke="none"/><text fill="#000000" stroke="none" font-family="Arial" font-size="13px" font-style="normal" font-weight="normal" text-decoration="none" x="155" y="125">1 : onClick(v:View)</text></g></g><g transform="translate(10,10) scale(1,1)"><rect fill="#ffffff" stroke="none" x="296" y="128" width="13" height="264"/></g><g transform="translate(10,10) scale(1,1)"><path fill="none" stroke="#000000" d="M 296 128 L 309 128 L 309 392 L 296 392 L 296 128 Z Z" stroke-miterlimit="10"/></g><g transform="translate(10,10) scale(1,1)"><path fill="none" stroke="#000000" d="M 309 256 L 339 256 L 339 276 L 316 276" stroke-miterlimit="10"/></g><g transform="translate(10,10) scale(1,1)"><path fill="#000000" stroke="none" d="M 326.16267485762415 271.790482243984 L 316 276 L 326.16267485762415 280.209517756016"/></g><g transform="translate(10,10) scale(1,1)"><path fill="none" stroke="#000000" d="M 326.16267485762415 271.790482243984 L 316 276 L 326.16267485762415 280.209517756016 L 326.16267485762415 271.790482243984" stroke-miterlimit="10"/></g><g transform="translate(10,10) scale(1,1)"><g><path fill="none" stroke="none"/><text fill="#000000" stroke="none" font-family="Arial" font-size="13px" font-style="normal" font-weight="normal" text-decoration="none" x="341" y="272">2 : startDetailHCFragment(healthCenter: HealthCenter)</text></g></g><g transform="translate(10,10) scale(1,1)"><rect fill="#ffffff" stroke="none" x="303" y="276" width="13" height="76"/></g><g transform="translate(10,10) scale(1,1)"><path fill="none" stroke="#000000" d="M 303 276 L 316 276 L 316 352 L 303 352 L 303 276 Z Z" stroke-miterlimit="10"/></g><g transform="translate(10,10) scale(1,1)"><path fill="none" stroke="#000000" d="M 316 288 L 1301 288" stroke-miterlimit="10"/></g><g transform="translate(10,10) scale(1,1)"><path fill="#000000" stroke="none" d="M 1290.837325142376 292.209517756016 L 1301 288 L 1290.837325142376 283.790482243984"/></g><g transform="translate(10,10) scale(1,1)"><path fill="none" stroke="#000000" d="M 1290.837325142376 292.209517756016 L 1301 288 L 1290.837325142376 283.790482243984 L 1290.837325142376 292.209517756016" stroke-miterlimit="10"/></g><g transform="translate(10,10) scale(1,1)"><g><path fill="none" stroke="none"/><text fill="#000000" stroke="none" font-family="Arial" font-size="13px" font-style="normal" font-weight="normal" text-decoration="none" x="765" y="285">3 : new Bundle</text></g></g><g transform="translate(10,10) scale(1,1)"><rect fill="#ffffff" stroke="none" x="1301" y="288" width="13" height="80"/></g><g transform="translate(10,10) scale(1,1)"><path fill="none" stroke="#000000" d="M 1301 288 L 1314 288 L 1314 368 L 1301 368 L 1301 288 Z Z" stroke-miterlimit="10"/></g><g transform="translate(10,10) scale(1,1)"><path fill="none" stroke="#000000" d="M 1301 304 L 316 304" stroke-miterlimit="10" stroke-dasharray="3"/></g><g transform="translate(10,10) scale(1,1)"><path fill="none" stroke="#000000" d="M 326.16267485762415 299.790482243984 L 316 304 L 326.16267485762415 308.209517756016" stroke-miterlimit="10"/></g><g transform="translate(10,10) scale(1,1)"><g><path fill="none" stroke="none"/><text fill="#000000" stroke="none" font-family="Arial" font-size="13px" font-style="normal" font-weight="normal" text-decoration="none" x="778" y="321">4 : Bundle</text></g></g><g transform="translate(10,10) scale(1,1)"><path fill="none" stroke="#000000" d="M 316 336 L 1308 336" stroke-miterlimit="10"/></g><g transform="translate(10,10) scale(1,1)"><path fill="#000000" stroke="none" d="M 1297.837325142376 340.209517756016 L 1308 336 L 1297.837325142376 331.790482243984"/></g><g transform="translate(10,10) scale(1,1)"><path fill="none" stroke="#000000" d="M 1297.837325142376 340.209517756016 L 1308 336 L 1297.837325142376 331.790482243984 L 1297.837325142376 340.209517756016" stroke-miterlimit="10"/></g><g transform="translate(10,10) scale(1,1)"><g><path fill="none" stroke="none"/><text fill="#000000" stroke="none" font-family="Arial" font-size="13px" font-style="normal" font-weight="normal" text-decoration="none" x="615" y="333">5 : putParcelable(DetailHCFragment.KEY_HC_ARGS, healthCenter)</text></g></g><g transform="translate(10,10) scale(1,1)"><rect fill="#ffffff" stroke="none" x="1308" y="336" width="13" height="28"/></g><g transform="translate(10,10) scale(1,1)"><path fill="none" stroke="#000000" d="M 1308 336 L 1321 336 L 1321 364 L 1308 364 L 1308 336 Z Z" stroke-miterlimit="10"/></g><g transform="translate(10,10) scale(1,1)"><path fill="none" stroke="#000000" d="M 309 360 L 538 360" stroke-miterlimit="10"/></g><g transform="translate(10,10) scale(1,1)"><path fill="#000000" stroke="none" d="M 527.8373251423759 364.209517756016 L 538 360 L 527.8373251423758 355.790482243984"/></g><g transform="translate(10,10) scale(1,1)"><path fill="none" stroke="#000000" d="M 527.8373251423759 364.209517756016 L 538 360 L 527.8373251423758 355.790482243984 L 527.8373251423759 364.209517756016" stroke-miterlimit="10"/></g><g transform="translate(10,10) scale(1,1)"><g><path fill="none" stroke="none"/><text fill="#000000" stroke="none" font-family="Arial" font-size="13px" font-style="normal" font-weight="normal" text-decoration="none" x="347" y="357">6 : new DetailHCFragment</text></g></g><g transform="translate(10,10) scale(1,1)"><rect fill="#ffffff" stroke="none" x="538" y="360" width="13" height="1664"/></g><g transform="translate(10,10) scale(1,1)"><path fill="none" stroke="#000000" d="M 538 360 L 551 360 L 551 2024 L 538 2024 L 538 360 Z Z" stroke-miterlimit="10"/></g><g transform="translate(10,10) scale(1,1)"><path fill="none" stroke="#000000" d="M 551 396 L 1423 396" stroke-miterlimit="10"/></g><g transform="translate(10,10) scale(1,1)"><path fill="#000000" stroke="none" d="M 1412.837325142376 400.209517756016 L 1423 396 L 1412.837325142376 391.790482243984"/></g><g transform="translate(10,10) scale(1,1)"><path fill="none" stroke="#000000" d="M 1412.837325142376 400.209517756016 L 1423 396 L 1412.837325142376 391.790482243984 L 1412.837325142376 400.209517756016" stroke-miterlimit="10"/></g><g transform="translate(10,10) scale(1,1)"><g><path fill="none" stroke="none"/><text fill="#000000" stroke="none" font-family="Arial" font-size="13px" font-style="normal" font-weight="normal" text-decoration="none" x="938" y="393">7 : new MapView</text></g></g><g transform="translate(10,10) scale(1,1)"><rect fill="#ffffff" stroke="none" x="1423" y="396" width="13" height="1124"/></g><g transform="translate(10,10) scale(1,1)"><path fill="none" stroke="#000000" d="M 1423 396 L 1436 396 L 1436 1520 L 1423 1520 L 1423 396 Z Z" stroke-miterlimit="10"/></g><g transform="translate(10,10) scale(1,1)"><path fill="none" stroke="#000000" d="M 1423 412 L 551 412" stroke-miterlimit="10" stroke-dasharray="3"/></g><g transform="translate(10,10) scale(1,1)"><path fill="none" stroke="#000000" d="M 561.1626748576241 407.790482243984 L 551 412 L 561.1626748576241 416.209517756016" stroke-miterlimit="10"/></g><g transform="translate(10,10) scale(1,1)"><g><path fill="none" stroke="none"/><text fill="#000000" stroke="none" font-family="Arial" font-size="13px" font-style="normal" font-weight="normal" text-decoration="none" x="965" y="429">8 : map</text></g></g><g transform="translate(10,10) scale(1,1)"><path fill="none" stroke="#000000" d="M 1436 420 L 2009 420" stroke-miterlimit="10"/></g><g transform="translate(10,10) scale(1,1)"><path fill="#000000" stroke="none" d="M 1998.837325142376 424.209517756016 L 2009 420 L 1998.837325142376 415.790482243984"/></g><g transform="translate(10,10) scale(1,1)"><path fill="none" stroke="#000000" d="M 1998.837325142376 424.209517756016 L 2009 420 L 1998.837325142376 415.790482243984 L 1998.837325142376 424.209517756016" stroke-miterlimit="10"/></g><g transform="translate(10,10) scale(1,1)"><g><path fill="none" stroke="none"/><text fill="#000000" stroke="none" font-family="Arial" font-size="13px" font-style="normal" font-weight="normal" text-decoration="none" x="1657" y="417">9 : new IMapController</text></g></g><g transform="translate(10,10) scale(1,1)"><rect fill="#ffffff" stroke="none" x="2009" y="420" width="13" height="700"/></g><g transform="translate(10,10) scale(1,1)"><path fill="none" stroke="#000000" d="M 2009 420 L 2022 420 L 2022 1120 L 2009 1120 L 2009 420 Z Z" stroke-miterlimit="10"/></g><g transform="translate(10,10) scale(1,1)"><path fill="none" stroke="#000000" d="M 551 424 L 581 424 L 581 444 L 558 444" stroke-miterlimit="10"/></g><g transform="translate(10,10) scale(1,1)"><path fill="#000000" stroke="none" d="M 568.1626748576241 439.790482243984 L 558 444 L 568.1626748576241 448.209517756016"/></g><g transform="translate(10,10) scale(1,1)"><path fill="none" stroke="#000000" d="M 568.1626748576241 439.790482243984 L 558 444 L 568.1626748576241 448.209517756016 L 568.1626748576241 439.790482243984" stroke-miterlimit="10"/></g><g transform="translate(10,10) scale(1,1)"><g><path fill="none" stroke="none"/><text fill="#000000" stroke="none" font-family="Arial" font-size="13px" font-style="normal" font-weight="normal" text-decoration="none" x="587" y="440">10 : initView</text></g></g><g transform="translate(10,10) scale(1,1)"><rect fill="#ffffff" stroke="none" x="545" y="444" width="13" height="28"/></g><g transform="translate(10,10) scale(1,1)"><path fill="none" stroke="#000000" d="M 545 444 L 558 444 L 558 472 L 545 472 L 545 444 Z Z" stroke-miterlimit="10"/></g><g transform="translate(10,10) scale(1,1)"><path fill="none" stroke="#000000" d="M 2009 448 L 1436 448" stroke-miterlimit="10" stroke-dasharray="3"/></g><g transform="translate(10,10) scale(1,1)"><path fill="none" stroke="#000000" d="M 1446.162674857624 443.790482243984 L 1436 448 L 1446.162674857624 452.209517756016" stroke-miterlimit="10"/></g><g transform="translate(10,10) scale(1,1)"><g><path fill="none" stroke="none"/><text fill="#000000" stroke="none" font-family="Arial" font-size="13px" font-style="normal" font-weight="normal" text-decoration="none" x="1681" y="444">11 : controller</text></g></g><g transform="translate(10,10) scale(1,1)"><path fill="none" stroke="#000000" d="M 551 480 L 581 480 L 581 500 L 558 500" stroke-miterlimit="10"/></g><g transform="translate(10,10) scale(1,1)"><path fill="#000000" stroke="none" d="M 568.1626748576241 495.790482243984 L 558 500 L 568.1626748576241 504.209517756016"/></g><g transform="translate(10,10) scale(1,1)"><path fill="none" stroke="#000000" d="M 568.1626748576241 495.790482243984 L 558 500 L 568.1626748576241 504.209517756016 L 568.1626748576241 495.790482243984" stroke-miterlimit="10"/></g><g transform="translate(10,10) scale(1,1)"><g><path fill="none" stroke="none"/><text fill="#000000" stroke="none" font-family="Arial" font-size="13px" font-style="normal" font-weight="normal" text-decoration="none" x="557" y="496">12 : initMap</text></g></g><g transform="translate(10,10) scale(1,1)"><rect fill="#ffffff" stroke="none" x="545" y="500" width="13" height="1004"/></g><g transform="translate(10,10) scale(1,1)"><path fill="none" stroke="#000000" d="M 545 500 L 558 500 L 558 1504 L 545 1504 L 545 500 Z Z" stroke-miterlimit="10"/></g><g transform="translate(10,10) scale(1,1)"><path fill="none" stroke="#000000" d="M 558 520 L 1430 520" stroke-miterlimit="10"/></g><g transform="translate(10,10) scale(1,1)"><path fill="#000000" stroke="none" d="M 1419.837325142376 524.209517756016 L 1430 520 L 1419.837325142376 515.790482243984"/></g><g transform="translate(10,10) scale(1,1)"><path fill="none" stroke="#000000" d="M 1419.837325142376 524.209517756016 L 1430 520 L 1419.837325142376 515.790482243984 L 1419.837325142376 524.209517756016" stroke-miterlimit="10"/></g><g transform="translate(10,10) scale(1,1)"><g><path fill="none" stroke="none"/><text fill="#000000" stroke="none" font-family="Arial" font-size="13px" font-style="normal" font-weight="normal" text-decoration="none" x="858" y="517">13 : setTileSource(TileSourceFactory.MAPNIK)</text></g></g><g transform="translate(10,10) scale(1,1)"><rect fill="#ffffff" stroke="none" x="1430" y="520" width="13" height="28"/></g><g transform="translate(10,10) scale(1,1)"><path fill="none" stroke="#000000" d="M 1430 520 L 1443 520 L 1443 548 L 1430 548 L 1430 520 Z Z" stroke-miterlimit="10"/></g><g transform="translate(10,10) scale(1,1)"><path fill="none" stroke="#000000" d="M 558 551 L 1430 551" stroke-miterlimit="10"/></g><g transform="translate(10,10) scale(1,1)"><path fill="#000000" stroke="none" d="M 1419.837325142376 555.209517756016 L 1430 551 L 1419.837325142376 546.790482243984"/></g><g transform="translate(10,10) scale(1,1)"><path fill="none" stroke="#000000" d="M 1419.837325142376 555.209517756016 L 1430 551 L 1419.837325142376 546.790482243984 L 1419.837325142376 555.209517756016" stroke-miterlimit="10"/></g><g transform="translate(10,10) scale(1,1)"><g><path fill="none" stroke="none"/><text fill="#000000" stroke="none" font-family="Arial" font-size="13px" font-style="normal" font-weight="normal" text-decoration="none" x="899" y="548">14 : setBuiltInZoomControls(true)</text></g></g><g transform="translate(10,10) scale(1,1)"><rect fill="#ffffff" stroke="none" x="1430" y="551" width="13" height="28"/></g><g transform="translate(10,10) scale(1,1)"><path fill="none" stroke="#000000" d="M 1430 551 L 1443 551 L 1443 579 L 1430 579 L 1430 551 Z Z" stroke-miterlimit="10"/></g><g transform="translate(10,10) scale(1,1)"><path fill="none" stroke="#000000" d="M 558 586 L 1430 586" stroke-miterlimit="10"/></g><g transform="translate(10,10) scale(1,1)"><path fill="#000000" stroke="none" d="M 1419.837325142376 590.209517756016 L 1430 586 L 1419.837325142376 581.790482243984"/></g><g transform="translate(10,10) scale(1,1)"><path fill="none" stroke="#000000" d="M 1419.837325142376 590.209517756016 L 1430 586 L 1419.837325142376 581.790482243984 L 1419.837325142376 590.209517756016" stroke-miterlimit="10"/></g><g transform="translate(10,10) scale(1,1)"><g><path fill="none" stroke="none"/><text fill="#000000" stroke="none" font-family="Arial" font-size="13px" font-style="normal" font-weight="normal" text-decoration="none" x="902" y="583">15 : setMultiTouchControls(true)</text></g></g><g transform="translate(10,10) scale(1,1)"><rect fill="#ffffff" stroke="none" x="1430" y="586" width="13" height="28"/></g><g transform="translate(10,10) scale(1,1)"><path fill="none" stroke="#000000" d="M 1430 586 L 1443 586 L 1443 614 L 1430 614 L 1430 586 Z Z" stroke-miterlimit="10"/></g><g transform="translate(10,10) scale(1,1)"><path fill="none" stroke="#000000" d="M 558 617 L 1430 617" stroke-miterlimit="10"/></g><g transform="translate(10,10) scale(1,1)"><path fill="#000000" stroke="none" d="M 1419.837325142376 621.209517756016 L 1430 617 L 1419.837325142376 612.790482243984"/></g><g transform="translate(10,10) scale(1,1)"><path fill="none" stroke="#000000" d="M 1419.837325142376 621.209517756016 L 1430 617 L 1419.837325142376 612.790482243984 L 1419.837325142376 621.209517756016" stroke-miterlimit="10"/></g><g transform="translate(10,10) scale(1,1)"><g><path fill="none" stroke="none"/><text fill="#000000" stroke="none" font-family="Arial" font-size="13px" font-style="normal" font-weight="normal" text-decoration="none" x="899" y="614">16 : setUseDataConnection(true)</text></g></g><g transform="translate(10,10) scale(1,1)"><rect fill="#ffffff" stroke="none" x="1430" y="617" width="13" height="28"/></g><g transform="translate(10,10) scale(1,1)"><path fill="none" stroke="#000000" d="M 1430 617 L 1443 617 L 1443 645 L 1430 645 L 1430 617 Z Z" stroke-miterlimit="10"/></g><g transform="translate(10,10) scale(1,1)"><path fill="none" stroke="#000000" d="M 558 624 L 588 624 L 588 644 L 565 644" stroke-miterlimit="10"/></g><g transform="translate(10,10) scale(1,1)"><path fill="#000000" stroke="none" d="M 575.1626748576241 639.790482243984 L 565 644 L 575.1626748576241 648.209517756016"/></g><g transform="translate(10,10) scale(1,1)"><path fill="none" stroke="#000000" d="M 575.1626748576241 639.790482243984 L 565 644 L 575.1626748576241 648.209517756016 L 575.1626748576241 639.790482243984" stroke-miterlimit="10"/></g><g transform="translate(10,10) scale(1,1)"><g><path fill="none" stroke="none"/><text fill="#000000" stroke="none" font-family="Arial" font-size="13px" font-style="normal" font-weight="normal" text-decoration="none" x="591" y="637">17 : initOnlineMap</text></g></g><g transform="translate(10,10) scale(1,1)"><rect fill="#ffffff" stroke="none" x="552" y="644" width="13" height="751"/></g><g transform="translate(10,10) scale(1,1)"><path fill="none" stroke="#000000" d="M 552 644 L 565 644 L 565 1395 L 552 1395 L 552 644 Z Z" stroke-miterlimit="10"/></g><g transform="translate(10,10) scale(1,1)"><path fill="none" stroke="#000000" d="M 565 648 L 595 648 L 595 668 L 572 668" stroke-miterlimit="10"/></g><g transform="translate(10,10) scale(1,1)"><path fill="#000000" stroke="none" d="M 582.1626748576241 663.790482243984 L 572 668 L 582.1626748576241 672.209517756016"/></g><g transform="translate(10,10) scale(1,1)"><path fill="none" stroke="#000000" d="M 582.1626748576241 663.790482243984 L 572 668 L 582.1626748576241 672.209517756016 L 582.1626748576241 663.790482243984" stroke-miterlimit="10"/></g><g transform="translate(10,10) scale(1,1)"><g><path fill="none" stroke="none"/><text fill="#000000" stroke="none" font-family="Arial" font-size="13px" font-style="normal" font-weight="normal" text-decoration="none" x="607" y="664">18 : getContext</text></g></g><g transform="translate(10,10) scale(1,1)"><rect fill="#ffffff" stroke="none" x="559" y="668" width="13" height="28"/></g><g transform="translate(10,10) scale(1,1)"><path fill="none" stroke="#000000" d="M 559 668 L 572 668 L 572 696 L 559 696 L 559 668 Z Z" stroke-miterlimit="10"/></g><g transform="translate(10,10) scale(1,1)"><path fill="none" stroke="#000000" d="M 565 704 L 1564 704" stroke-miterlimit="10"/></g><g transform="translate(10,10) scale(1,1)"><path fill="#000000" stroke="none" d="M 1553.837325142376 708.209517756016 L 1564 704 L 1553.837325142376 699.790482243984"/></g><g transform="translate(10,10) scale(1,1)"><path fill="none" stroke="#000000" d="M 1553.837325142376 708.209517756016 L 1564 704 L 1553.837325142376 699.790482243984 L 1553.837325142376 708.209517756016" stroke-miterlimit="10"/></g><g transform="translate(10,10) scale(1,1)"><g><path fill="none" stroke="none"/><text fill="#000000" stroke="none" font-family="Arial" font-size="13px" font-style="normal" font-weight="normal" text-decoration="none" x="943" y="701">19 : new MyLocationOverlay(context,map)</text></g></g><g transform="translate(10,10) scale(1,1)"><rect fill="#ffffff" stroke="none" x="1564" y="704" width="13" height="288"/></g><g transform="translate(10,10) scale(1,1)"><path fill="none" stroke="#000000" d="M 1564 704 L 1577 704 L 1577 992 L 1564 992 L 1564 704 Z Z" stroke-miterlimit="10"/></g><g transform="translate(10,10) scale(1,1)"><path fill="none" stroke="#000000" d="M 1564 723 L 565 723" stroke-miterlimit="10" stroke-dasharray="3"/></g><g transform="translate(10,10) scale(1,1)"><path fill="none" stroke="#000000" d="M 575.1626748576241 718.790482243984 L 565 723 L 575.1626748576241 727.209517756016" stroke-miterlimit="10"/></g><g transform="translate(10,10) scale(1,1)"><g><path fill="none" stroke="none"/><text fill="#000000" stroke="none" font-family="Arial" font-size="13px" font-style="normal" font-weight="normal" text-decoration="none" x="1006" y="740">20 : locationOverlay</text></g></g><g transform="translate(10,10) scale(1,1)"><path fill="none" stroke="#000000" d="M 565 760 L 1766 760" stroke-miterlimit="10"/></g><g transform="translate(10,10) scale(1,1)"><path fill="#000000" stroke="none" d="M 1755.837325142376 764.209517756016 L 1766 760 L 1755.837325142376 755.790482243984"/></g><g transform="translate(10,10) scale(1,1)"><path fill="none" stroke="#000000" d="M 1755.837325142376 764.209517756016 L 1766 760 L 1755.837325142376 755.790482243984 L 1755.837325142376 764.209517756016" stroke-miterlimit="10"/></g><g transform="translate(10,10) scale(1,1)"><g><path fill="none" stroke="none"/><text fill="#000000" stroke="none" font-family="Arial" font-size="13px" font-style="normal" font-weight="normal" text-decoration="none" x="1044" y="757">21 : new GpsMyLocationProvider(context)</text></g></g><g transform="translate(10,10) scale(1,1)"><rect fill="#ffffff" stroke="none" x="1766" y="760" width="13" height="216"/></g><g transform="translate(10,10) scale(1,1)"><path fill="none" stroke="#000000" d="M 1766 760 L 1779 760 L 1779 976 L 1766 976 L 1766 760 Z Z" stroke-miterlimit="10"/></g><g transform="translate(10,10) scale(1,1)"><path fill="none" stroke="#000000" d="M 1766 784 L 565 784" stroke-miterlimit="10" stroke-dasharray="3"/></g><g transform="translate(10,10) scale(1,1)"><path fill="none" stroke="#000000" d="M 575.1626748576241 779.790482243984 L 565 784 L 575.1626748576241 788.209517756016" stroke-miterlimit="10"/></g><g transform="translate(10,10) scale(1,1)"><g><path fill="none" stroke="none"/><text fill="#000000" stroke="none" font-family="Arial" font-size="13px" font-style="normal" font-weight="normal" text-decoration="none" x="1084" y="801">22 : gpsMyLocationProvider</text></g></g><g transform="translate(10,10) scale(1,1)"><path fill="none" stroke="#000000" d="M 565 824 L 1773 824" stroke-miterlimit="10"/></g><g transform="translate(10,10) scale(1,1)"><path fill="#000000" stroke="none" d="M 1762.837325142376 828.209517756016 L 1773 824 L 1762.837325142376 819.790482243984"/></g><g transform="translate(10,10) scale(1,1)"><path fill="none" stroke="#000000" d="M 1762.837325142376 828.209517756016 L 1773 824 L 1762.837325142376 819.790482243984 L 1762.837325142376 828.209517756016" stroke-miterlimit="10"/></g><g transform="translate(10,10) scale(1,1)"><g><path fill="none" stroke="none"/><text fill="#000000" stroke="none" font-family="Arial" font-size="13px" font-style="normal" font-weight="normal" text-decoration="none" x="1047" y="821">23 : startLocationProvicer(locationOverlay)</text></g></g><g transform="translate(10,10) scale(1,1)"><rect fill="#ffffff" stroke="none" x="1773" y="824" width="13" height="28"/></g><g transform="translate(10,10) scale(1,1)"><path fill="none" stroke="#000000" d="M 1773 824 L 1786 824 L 1786 852 L 1773 852 L 1773 824 Z Z" stroke-miterlimit="10"/></g><g transform="translate(10,10) scale(1,1)"><path fill="none" stroke="#000000" d="M 565 863 L 1773 863" stroke-miterlimit="10"/></g><g transform="translate(10,10) scale(1,1)"><path fill="#000000" stroke="none" d="M 1762.837325142376 867.209517756016 L 1773 863 L 1762.837325142376 858.790482243984"/></g><g transform="translate(10,10) scale(1,1)"><path fill="none" stroke="#000000" d="M 1762.837325142376 867.209517756016 L 1773 863 L 1762.837325142376 858.790482243984 L 1762.837325142376 867.209517756016" stroke-miterlimit="10"/></g><g transform="translate(10,10) scale(1,1)"><g><path fill="none" stroke="none"/><text fill="#000000" stroke="none" font-family="Arial" font-size="13px" font-style="normal" font-weight="normal" text-decoration="none" x="1066" y="860">24 : setLocationUpdateMinTime(10)</text></g></g><g transform="translate(10,10) scale(1,1)"><rect fill="#ffffff" stroke="none" x="1773" y="863" width="13" height="28"/></g><g transform="translate(10,10) scale(1,1)"><path fill="none" stroke="#000000" d="M 1773 863 L 1786 863 L 1786 891 L 1773 891 L 1773 863 Z Z" stroke-miterlimit="10"/></g><g transform="translate(10,10) scale(1,1)"><path fill="none" stroke="#000000" d="M 565 900 L 1773 900" stroke-miterlimit="10"/></g><g transform="translate(10,10) scale(1,1)"><path fill="#000000" stroke="none" d="M 1762.837325142376 904.209517756016 L 1773 900 L 1762.837325142376 895.790482243984"/></g><g transform="translate(10,10) scale(1,1)"><path fill="none" stroke="#000000" d="M 1762.837325142376 904.209517756016 L 1773 900 L 1762.837325142376 895.790482243984 L 1762.837325142376 904.209517756016" stroke-miterlimit="10"/></g><g transform="translate(10,10) scale(1,1)"><g><path fill="none" stroke="none"/><text fill="#000000" stroke="none" font-family="Arial" font-size="13px" font-style="normal" font-weight="normal" text-decoration="none" x="1059" y="897">25 : setLocationUpdateMinDistance(5)</text></g></g><g transform="translate(10,10) scale(1,1)"><rect fill="#ffffff" stroke="none" x="1773" y="900" width="13" height="28"/></g><g transform="translate(10,10) scale(1,1)"><path fill="none" stroke="#000000" d="M 1773 900 L 1786 900 L 1786 928 L 1773 928 L 1773 900 Z Z" stroke-miterlimit="10"/></g><g transform="translate(10,10) scale(1,1)"><path fill="none" stroke="#000000" d="M 565 921 L 1571 921" stroke-miterlimit="10"/></g><g transform="translate(10,10) scale(1,1)"><path fill="#000000" stroke="none" d="M 1560.837325142376 925.209517756016 L 1571 921 L 1560.837325142376 916.790482243984"/></g><g transform="translate(10,10) scale(1,1)"><path fill="none" stroke="#000000" d="M 1560.837325142376 925.209517756016 L 1571 921 L 1560.837325142376 916.790482243984 L 1560.837325142376 925.209517756016" stroke-miterlimit="10"/></g><g transform="translate(10,10) scale(1,1)"><g><path fill="none" stroke="none"/><text fill="#000000" stroke="none" font-family="Arial" font-size="13px" font-style="normal" font-weight="normal" text-decoration="none" x="931" y="918">26 : enableMyLocation(gpsMyLocationProvider)</text></g></g><g transform="translate(10,10) scale(1,1)"><rect fill="#ffffff" stroke="none" x="1571" y="921" width="13" height="28"/></g><g transform="translate(10,10) scale(1,1)"><path fill="none" stroke="#000000" d="M 1571 921 L 1584 921 L 1584 949 L 1571 949 L 1571 921 Z Z" stroke-miterlimit="10"/></g><g transform="translate(10,10) scale(1,1)"><path fill="none" stroke="#000000" d="M 565 957 L 1571 957" stroke-miterlimit="10"/></g><g transform="translate(10,10) scale(1,1)"><path fill="#000000" stroke="none" d="M 1560.837325142376 961.209517756016 L 1571 957 L 1560.837325142376 952.790482243984"/></g><g transform="translate(10,10) scale(1,1)"><path fill="none" stroke="#000000" d="M 1560.837325142376 961.209517756016 L 1571 957 L 1560.837325142376 952.790482243984 L 1560.837325142376 961.209517756016" stroke-miterlimit="10"/></g><g transform="translate(10,10) scale(1,1)"><g><path fill="none" stroke="none"/><text fill="#000000" stroke="none" font-family="Arial" font-size="13px" font-style="normal" font-weight="normal" text-decoration="none" x="993" y="954">27 : enableFollowLocation</text></g></g><g transform="translate(10,10) scale(1,1)"><rect fill="#ffffff" stroke="none" x="1571" y="957" width="13" height="28"/></g><g transform="translate(10,10) scale(1,1)"><path fill="none" stroke="#000000" d="M 1571 957 L 1584 957 L 1584 985 L 1571 985 L 1571 957 Z Z" stroke-miterlimit="10"/></g><g transform="translate(10,10) scale(1,1)"><path fill="none" stroke="#000000" d="M 565 983 L 1430 983" stroke-miterlimit="10"/></g><g transform="translate(10,10) scale(1,1)"><path fill="#000000" stroke="none" d="M 1419.837325142376 987.209517756016 L 1430 983 L 1419.837325142376 978.790482243984"/></g><g transform="translate(10,10) scale(1,1)"><path fill="none" stroke="#000000" d="M 1419.837325142376 987.209517756016 L 1430 983 L 1419.837325142376 978.790482243984 L 1419.837325142376 987.209517756016" stroke-miterlimit="10"/></g><g transform="translate(10,10) scale(1,1)"><g><path fill="none" stroke="none"/><text fill="#000000" stroke="none" font-family="Arial" font-size="13px" font-style="normal" font-weight="normal" text-decoration="none" x="884" y="980">28 : getOverlays().add(locationOverlay)</text></g></g><g transform="translate(10,10) scale(1,1)"><rect fill="#ffffff" stroke="none" x="1430" y="983" width="13" height="28"/></g><g transform="translate(10,10) scale(1,1)"><path fill="none" stroke="#000000" d="M 1430 983 L 1443 983 L 1443 1011 L 1430 1011 L 1430 983 Z Z" stroke-miterlimit="10"/></g><g transform="translate(10,10) scale(1,1)"><path fill="none" stroke="#000000" d="M 565 1000 L 595 1000 L 595 1020 L 572 1020" stroke-miterlimit="10"/></g><g transform="translate(10,10) scale(1,1)"><path fill="#000000" stroke="none" d="M 582.1626748576241 1015.790482243984 L 572 1020 L 582.1626748576241 1024.2095177560159"/></g><g transform="translate(10,10) scale(1,1)"><path fill="none" stroke="#000000" d="M 582.1626748576241 1015.790482243984 L 572 1020 L 582.1626748576241 1024.2095177560159 L 582.1626748576241 1015.790482243984" stroke-miterlimit="10"/></g><g transform="translate(10,10) scale(1,1)"><g><path fill="none" stroke="none"/><text fill="#000000" stroke="none" font-family="Arial" font-size="13px" font-style="normal" font-weight="normal" text-decoration="none" x="607" y="1016">29 : initClientLocation(false)</text></g></g><g transform="translate(10,10) scale(1,1)"><rect fill="#ffffff" stroke="none" x="559" y="1020" width="13" height="372"/></g><g transform="translate(10,10) scale(1,1)"><path fill="none" stroke="#000000" d="M 559 1020 L 572 1020 L 572 1392 L 559 1392 L 559 1020 Z Z" stroke-miterlimit="10"/></g><g transform="translate(10,10) scale(1,1)"><path fill="none" stroke="#000000" d="M 572 1042 L 1430 1042" stroke-miterlimit="10"/></g><g transform="translate(10,10) scale(1,1)"><path fill="#000000" stroke="none" d="M 1419.837325142376 1046.2095177560159 L 1430 1042 L 1419.837325142376 1037.7904822439841"/></g><g transform="translate(10,10) scale(1,1)"><path fill="none" stroke="#000000" d="M 1419.837325142376 1046.2095177560159 L 1430 1042 L 1419.837325142376 1037.7904822439841 L 1419.837325142376 1046.2095177560159" stroke-miterlimit="10"/></g><g transform="translate(10,10) scale(1,1)"><g><path fill="none" stroke="none"/><text fill="#000000" stroke="none" font-family="Arial" font-size="13px" font-style="normal" font-weight="normal" text-decoration="none" x="952" y="1039">30 : getController</text></g></g><g transform="translate(10,10) scale(1,1)"><rect fill="#ffffff" stroke="none" x="1430" y="1042" width="13" height="28"/></g><g transform="translate(10,10) scale(1,1)"><path fill="none" stroke="#000000" d="M 1430 1042 L 1443 1042 L 1443 1070 L 1430 1070 L 1430 1042 Z Z" stroke-miterlimit="10"/></g><g transform="translate(10,10) scale(1,1)"><path fill="none" stroke="#000000" d="M 1430 1064 L 572 1064" stroke-miterlimit="10" stroke-dasharray="3"/></g><g transform="translate(10,10) scale(1,1)"><path fill="none" stroke="#000000" d="M 582.1626748576241 1059.7904822439841 L 572 1064 L 582.1626748576241 1068.2095177560159" stroke-miterlimit="10"/></g><g transform="translate(10,10) scale(1,1)"><g><path fill="none" stroke="none"/><text fill="#000000" stroke="none" font-family="Arial" font-size="13px" font-style="normal" font-weight="normal" text-decoration="none" x="947" y="1081">31 : mapController</text></g></g><g transform="translate(10,10) scale(1,1)"><path fill="none" stroke="#000000" d="M 572 1088 L 2016 1088" stroke-miterlimit="10"/></g><g transform="translate(10,10) scale(1,1)"><path fill="#000000" stroke="none" d="M 2005.837325142376 1092.2095177560159 L 2016 1088 L 2005.837325142376 1083.7904822439841"/></g><g transform="translate(10,10) scale(1,1)"><path fill="none" stroke="#000000" d="M 2005.837325142376 1092.2095177560159 L 2016 1088 L 2005.837325142376 1083.7904822439841 L 2005.837325142376 1092.2095177560159" stroke-miterlimit="10"/></g><g transform="translate(10,10) scale(1,1)"><g><path fill="none" stroke="none"/><text fill="#000000" stroke="none" font-family="Arial" font-size="13px" font-style="normal" font-weight="normal" text-decoration="none" x="1245" y="1085">32 : setZoom(15)</text></g></g><g transform="translate(10,10) scale(1,1)"><rect fill="#ffffff" stroke="none" x="2016" y="1088" width="13" height="28"/></g><g transform="translate(10,10) scale(1,1)"><path fill="none" stroke="#000000" d="M 2016 1088 L 2029 1088 L 2029 1116 L 2016 1116 L 2016 1088 Z Z" stroke-miterlimit="10"/></g><g transform="translate(10,10) scale(1,1)"><path fill="none" stroke="#000000" d="M 572 1112 L 2176 1112" stroke-miterlimit="10"/></g><g transform="translate(10,10) scale(1,1)"><path fill="#000000" stroke="none" d="M 2165.837325142376 1116.2095177560159 L 2176 1112 L 2165.837325142376 1107.7904822439841"/></g><g transform="translate(10,10) scale(1,1)"><path fill="none" stroke="#000000" d="M 2165.837325142376 1116.2095177560159 L 2176 1112 L 2165.837325142376 1107.7904822439841 L 2165.837325142376 1116.2095177560159" stroke-miterlimit="10"/></g><g transform="translate(10,10) scale(1,1)"><g><path fill="none" stroke="none"/><text fill="#000000" stroke="none" font-family="Arial" font-size="13px" font-style="normal" font-weight="normal" text-decoration="none" x="1191" y="1109">33 : new GeoPoint(healthcenter.lattitude,healthcenter.longitude)</text></g></g><g transform="translate(10,10) scale(1,1)"><rect fill="#ffffff" stroke="none" x="2176" y="1112" width="13" height="28"/></g><g transform="translate(10,10) scale(1,1)"><path fill="none" stroke="#000000" d="M 2176 1112 L 2189 1112 L 2189 1140 L 2176 1140 L 2176 1112 Z Z" stroke-miterlimit="10"/></g><g transform="translate(10,10) scale(1,1)"><path fill="none" stroke="#000000" d="M 2176 1133 L 572 1133" stroke-miterlimit="10" stroke-dasharray="3"/></g><g transform="translate(10,10) scale(1,1)"><path fill="none" stroke="#000000" d="M 582.1626748576241 1128.7904822439841 L 572 1133 L 582.1626748576241 1137.2095177560159" stroke-miterlimit="10"/></g><g transform="translate(10,10) scale(1,1)"><g><path fill="none" stroke="none"/><text fill="#000000" stroke="none" font-family="Arial" font-size="13px" font-style="normal" font-weight="normal" text-decoration="none" x="1333" y="1150">34 : startPoint</text></g></g><g transform="translate(10,10) scale(1,1)"><path fill="none" stroke="#000000" d="M 572 1168 L 2333 1168" stroke-miterlimit="10"/></g><g transform="translate(10,10) scale(1,1)"><path fill="#000000" stroke="none" d="M 2322.837325142376 1172.2095177560159 L 2333 1168 L 2322.837325142376 1163.7904822439841"/></g><g transform="translate(10,10) scale(1,1)"><path fill="none" stroke="#000000" d="M 2322.837325142376 1172.2095177560159 L 2333 1168 L 2322.837325142376 1163.7904822439841 L 2322.837325142376 1172.2095177560159" stroke-miterlimit="10"/></g><g transform="translate(10,10) scale(1,1)"><g><path fill="none" stroke="none"/><text fill="#000000" stroke="none" font-family="Arial" font-size="13px" font-style="normal" font-weight="normal" text-decoration="none" x="1382" y="1164">35 : new Marker(map)</text></g></g><g transform="translate(10,10) scale(1,1)"><rect fill="#ffffff" stroke="none" x="2333" y="1168" width="13" height="160"/></g><g transform="translate(10,10) scale(1,1)"><path fill="none" stroke="#000000" d="M 2333 1168 L 2346 1168 L 2346 1328 L 2333 1328 L 2333 1168 Z Z" stroke-miterlimit="10"/></g><g transform="translate(10,10) scale(1,1)"><path fill="none" stroke="#000000" d="M 2333 1190 L 572 1190" stroke-miterlimit="10" stroke-dasharray="3"/></g><g transform="translate(10,10) scale(1,1)"><path fill="none" stroke="#000000" d="M 582.1626748576241 1185.7904822439841 L 572 1190 L 582.1626748576241 1194.2095177560159" stroke-miterlimit="10"/></g><g transform="translate(10,10) scale(1,1)"><g><path fill="none" stroke="none"/><text fill="#000000" stroke="none" font-family="Arial" font-size="13px" font-style="normal" font-weight="normal" text-decoration="none" x="1400" y="1188">36 : marker</text></g></g><g transform="translate(10,10) scale(1,1)"><path fill="none" stroke="#000000" d="M 572 1208 L 2340 1208" stroke-miterlimit="10"/></g><g transform="translate(10,10) scale(1,1)"><path fill="#000000" stroke="none" d="M 2329.837325142376 1212.2095177560159 L 2340 1208 L 2329.837325142376 1203.7904822439841"/></g><g transform="translate(10,10) scale(1,1)"><path fill="none" stroke="#000000" d="M 2329.837325142376 1212.2095177560159 L 2340 1208 L 2329.837325142376 1203.7904822439841 L 2329.837325142376 1212.2095177560159" stroke-miterlimit="10"/></g><g transform="translate(10,10) scale(1,1)"><g><path fill="none" stroke="none"/><text fill="#000000" stroke="none" font-family="Arial" font-size="13px" font-style="normal" font-weight="normal" text-decoration="none" x="1380" y="1205">37 : setPosition(startPoint)</text></g></g><g transform="translate(10,10) scale(1,1)"><rect fill="#ffffff" stroke="none" x="2340" y="1208" width="13" height="28"/></g><g transform="translate(10,10) scale(1,1)"><path fill="none" stroke="#000000" d="M 2340 1208 L 2353 1208 L 2353 1236 L 2340 1236 L 2340 1208 Z Z" stroke-miterlimit="10"/></g><g transform="translate(10,10) scale(1,1)"><path fill="none" stroke="#000000" d="M 572 1238 L 2340 1238" stroke-miterlimit="10"/></g><g transform="translate(10,10) scale(1,1)"><path fill="#000000" stroke="none" d="M 2329.837325142376 1242.2095177560159 L 2340 1238 L 2329.837325142376 1233.7904822439841"/></g><g transform="translate(10,10) scale(1,1)"><path fill="none" stroke="#000000" d="M 2329.837325142376 1242.2095177560159 L 2340 1238 L 2329.837325142376 1233.7904822439841 L 2329.837325142376 1242.2095177560159" stroke-miterlimit="10"/></g><g transform="translate(10,10) scale(1,1)"><g><path fill="none" stroke="none"/><text fill="#000000" stroke="none" font-family="Arial" font-size="13px" font-style="normal" font-weight="normal" text-decoration="none" x="1246" y="1235">38 : setAnchor(Marker.ANCHOR_CENTER,Marker.ANCHOR_BOTTOM)</text></g></g><g transform="translate(10,10) scale(1,1)"><rect fill="#ffffff" stroke="none" x="2340" y="1238" width="13" height="28"/></g><g transform="translate(10,10) scale(1,1)"><path fill="none" stroke="#000000" d="M 2340 1238 L 2353 1238 L 2353 1266 L 2340 1266 L 2340 1238 Z Z" stroke-miterlimit="10"/></g><g transform="translate(10,10) scale(1,1)"><path fill="none" stroke="#000000" d="M 572 1271 L 2340 1271" stroke-miterlimit="10"/></g><g transform="translate(10,10) scale(1,1)"><path fill="#000000" stroke="none" d="M 2329.837325142376 1275.2095177560159 L 2340 1271 L 2329.837325142376 1266.7904822439841"/></g><g transform="translate(10,10) scale(1,1)"><path fill="none" stroke="#000000" d="M 2329.837325142376 1275.2095177560159 L 2340 1271 L 2329.837325142376 1266.7904822439841 L 2329.837325142376 1275.2095177560159" stroke-miterlimit="10"/></g><g transform="translate(10,10) scale(1,1)"><g><path fill="none" stroke="none"/><text fill="#000000" stroke="none" font-family="Arial" font-size="13px" font-style="normal" font-weight="normal" text-decoration="none" x="1238" y="1268">39 : setIcon(getResources().getDrawable(android.R.drawable.star_on, null))</text></g></g><g transform="translate(10,10) scale(1,1)"><rect fill="#ffffff" stroke="none" x="2340" y="1271" width="13" height="28"/></g><g transform="translate(10,10) scale(1,1)"><path fill="none" stroke="#000000" d="M 2340 1271 L 2353 1271 L 2353 1299 L 2340 1299 L 2340 1271 Z Z" stroke-miterlimit="10"/></g><g transform="translate(10,10) scale(1,1)"><path fill="none" stroke="#000000" d="M 572 1296 L 1430 1296" stroke-miterlimit="10"/></g><g transform="translate(10,10) scale(1,1)"><path fill="#000000" stroke="none" d="M 1419.837325142376 1300.2095177560159 L 1430 1296 L 1419.837325142376 1291.7904822439841"/></g><g transform="translate(10,10) scale(1,1)"><path fill="none" stroke="#000000" d="M 1419.837325142376 1300.2095177560159 L 1430 1296 L 1419.837325142376 1291.7904822439841 L 1419.837325142376 1300.2095177560159" stroke-miterlimit="10"/></g><g transform="translate(10,10) scale(1,1)"><g><path fill="none" stroke="none"/><text fill="#000000" stroke="none" font-family="Arial" font-size="13px" font-style="normal" font-weight="normal" text-decoration="none" x="910" y="1293">40 : setTitle(healthcenter.name)</text></g></g><g transform="translate(10,10) scale(1,1)"><rect fill="#ffffff" stroke="none" x="1430" y="1296" width="13" height="28"/></g><g transform="translate(10,10) scale(1,1)"><path fill="none" stroke="#000000" d="M 1430 1296 L 1443 1296 L 1443 1324 L 1430 1324 L 1430 1296 Z Z" stroke-miterlimit="10"/></g><g transform="translate(10,10) scale(1,1)"><path fill="none" stroke="#000000" d="M 572 1336 L 1430 1336" stroke-miterlimit="10"/></g><g transform="translate(10,10) scale(1,1)"><path fill="#000000" stroke="none" d="M 1419.837325142376 1340.2095177560159 L 1430 1336 L 1419.837325142376 1331.7904822439841"/></g><g transform="translate(10,10) scale(1,1)"><path fill="none" stroke="#000000" d="M 1419.837325142376 1340.2095177560159 L 1430 1336 L 1419.837325142376 1331.7904822439841 L 1419.837325142376 1340.2095177560159" stroke-miterlimit="10"/></g><g transform="translate(10,10) scale(1,1)"><g><path fill="none" stroke="none"/><text fill="#000000" stroke="none" font-family="Arial" font-size="13px" font-style="normal" font-weight="normal" text-decoration="none" x="913" y="1333">41 : getOverlays().add(marker)</text></g></g><g transform="translate(10,10) scale(1,1)"><rect fill="#ffffff" stroke="none" x="1430" y="1336" width="13" height="28"/></g><g transform="translate(10,10) scale(1,1)"><path fill="none" stroke="#000000" d="M 1430 1336 L 1443 1336 L 1443 1364 L 1430 1364 L 1430 1336 Z Z" stroke-miterlimit="10"/></g><g transform="translate(10,10) scale(1,1)"><path fill="none" stroke="#000000" d="M 572 1372 L 1430 1372" stroke-miterlimit="10"/></g><g transform="translate(10,10) scale(1,1)"><path fill="#000000" stroke="none" d="M 1419.837325142376 1376.2095177560159 L 1430 1372 L 1419.837325142376 1367.7904822439841"/></g><g transform="translate(10,10) scale(1,1)"><path fill="none" stroke="#000000" d="M 1419.837325142376 1376.2095177560159 L 1430 1372 L 1419.837325142376 1367.7904822439841 L 1419.837325142376 1376.2095177560159" stroke-miterlimit="10"/></g><g transform="translate(10,10) scale(1,1)"><g><path fill="none" stroke="none"/><text fill="#000000" stroke="none" font-family="Arial" font-size="13px" font-style="normal" font-weight="normal" text-decoration="none" x="961" y="1369">42 : invalidate</text></g></g><g transform="translate(10,10) scale(1,1)"><rect fill="#ffffff" stroke="none" x="1430" y="1372" width="13" height="28"/></g><g transform="translate(10,10) scale(1,1)"><path fill="none" stroke="#000000" d="M 1430 1372 L 1443 1372 L 1443 1400 L 1430 1400 L 1430 1372 Z Z" stroke-miterlimit="10"/></g><g transform="translate(10,10) scale(1,1)"><path fill="none" stroke="#000000" d="M 558 1429 L 1430 1429" stroke-miterlimit="10"/></g><g transform="translate(10,10) scale(1,1)"><path fill="#000000" stroke="none" d="M 1419.837325142376 1433.2095177560159 L 1430 1429 L 1419.837325142376 1424.7904822439841"/></g><g transform="translate(10,10) scale(1,1)"><path fill="none" stroke="#000000" d="M 1419.837325142376 1433.2095177560159 L 1430 1429 L 1419.837325142376 1424.7904822439841 L 1419.837325142376 1433.2095177560159" stroke-miterlimit="10"/></g><g transform="translate(10,10) scale(1,1)"><g><path fill="none" stroke="none"/><text fill="#000000" stroke="none" font-family="Arial" font-size="13px" font-style="normal" font-weight="normal" text-decoration="none" x="871" y="1426">43 : setOnTouchListener(onTouchListener)</text></g></g><g transform="translate(10,10) scale(1,1)"><rect fill="#ffffff" stroke="none" x="1430" y="1429" width="13" height="28"/></g><g transform="translate(10,10) scale(1,1)"><path fill="none" stroke="#000000" d="M 1430 1429 L 1443 1429 L 1443 1457 L 1430 1457 L 1430 1429 Z Z" stroke-miterlimit="10"/></g><g transform="translate(10,10) scale(1,1)"><path fill="none" stroke="#000000" d="M 558 1469 L 1430 1469" stroke-miterlimit="10"/></g><g transform="translate(10,10) scale(1,1)"><path fill="#000000" stroke="none" d="M 1419.837325142376 1473.2095177560159 L 1430 1469 L 1419.837325142376 1464.7904822439841"/></g><g transform="translate(10,10) scale(1,1)"><path fill="none" stroke="#000000" d="M 1419.837325142376 1473.2095177560159 L 1430 1469 L 1419.837325142376 1464.7904822439841 L 1419.837325142376 1473.2095177560159" stroke-miterlimit="10"/></g><g transform="translate(10,10) scale(1,1)"><g><path fill="none" stroke="none"/><text fill="#000000" stroke="none" font-family="Arial" font-size="13px" font-style="normal" font-weight="normal" text-decoration="none" x="954" y="1466">44 : invalidate</text></g></g><g transform="translate(10,10) scale(1,1)"><rect fill="#ffffff" stroke="none" x="1430" y="1469" width="13" height="28"/></g><g transform="translate(10,10) scale(1,1)"><path fill="none" stroke="#000000" d="M 1430 1469 L 1443 1469 L 1443 1497 L 1430 1497 L 1430 1469 Z Z" stroke-miterlimit="10"/></g><g transform="translate(10,10) scale(1,1)"><path fill="none" stroke="#000000" d="M 551 1528 L 581 1528 L 581 1548 L 558 1548" stroke-miterlimit="10"/></g><g transform="translate(10,10) scale(1,1)"><path fill="#000000" stroke="none" d="M 568.1626748576241 1543.7904822439841 L 558 1548 L 568.1626748576241 1552.2095177560159"/></g><g transform="translate(10,10) scale(1,1)"><path fill="none" stroke="#000000" d="M 568.1626748576241 1543.7904822439841 L 558 1548 L 568.1626748576241 1552.2095177560159 L 568.1626748576241 1543.7904822439841" stroke-miterlimit="10"/></g><g transform="translate(10,10) scale(1,1)"><g><path fill="none" stroke="none"/><text fill="#000000" stroke="none" font-family="Arial" font-size="13px" font-style="normal" font-weight="normal" text-decoration="none" x="546" y="1544">45 : onResume</text></g></g><g transform="translate(10,10) scale(1,1)"><rect fill="#ffffff" stroke="none" x="545" y="1548" width="13" height="188"/></g><g transform="translate(10,10) scale(1,1)"><path fill="none" stroke="#000000" d="M 545 1548 L 558 1548 L 558 1736 L 545 1736 L 545 1548 Z Z" stroke-miterlimit="10"/></g><g transform="translate(10,10) scale(1,1)"><path fill="none" stroke="#000000" d="M 558 1560 L 936 1560" stroke-miterlimit="10"/></g><g transform="translate(10,10) scale(1,1)"><path fill="#000000" stroke="none" d="M 925.8373251423759 1564.2095177560159 L 936 1560 L 925.8373251423758 1555.7904822439841"/></g><g transform="translate(10,10) scale(1,1)"><path fill="none" stroke="#000000" d="M 925.8373251423759 1564.2095177560159 L 936 1560 L 925.8373251423758 1555.7904822439841 L 925.8373251423759 1564.2095177560159" stroke-miterlimit="10"/></g><g transform="translate(10,10) scale(1,1)"><g><path fill="none" stroke="none"/><text fill="#000000" stroke="none" font-family="Arial" font-size="13px" font-style="normal" font-weight="normal" text-decoration="none" x="672" y="1557">46 : new NetworkReceiver</text></g></g><g transform="translate(10,10) scale(1,1)"><rect fill="#ffffff" stroke="none" x="936" y="1560" width="13" height="28"/></g><g transform="translate(10,10) scale(1,1)"><path fill="none" stroke="#000000" d="M 936 1560 L 949 1560 L 949 1588 L 936 1588 L 936 1560 Z Z" stroke-miterlimit="10"/></g><g transform="translate(10,10) scale(1,1)"><path fill="none" stroke="#000000" d="M 936 1583 L 558 1583" stroke-miterlimit="10" stroke-dasharray="3"/></g><g transform="translate(10,10) scale(1,1)"><path fill="none" stroke="#000000" d="M 568.1626748576241 1578.7904822439841 L 558 1583 L 568.1626748576241 1587.2095177560159" stroke-miterlimit="10"/></g><g transform="translate(10,10) scale(1,1)"><g><path fill="none" stroke="none"/><text fill="#000000" stroke="none" font-family="Arial" font-size="13px" font-style="normal" font-weight="normal" text-decoration="none" x="685" y="1600">47 : networkReceiver</text></g></g><g transform="translate(10,10) scale(1,1)"><path fill="none" stroke="#000000" d="M 558 1624 L 1181 1624" stroke-miterlimit="10"/></g><g transform="translate(10,10) scale(1,1)"><path fill="#000000" stroke="none" d="M 1170.837325142376 1628.2095177560159 L 1181 1624 L 1170.837325142376 1619.7904822439841"/></g><g transform="translate(10,10) scale(1,1)"><path fill="none" stroke="#000000" d="M 1170.837325142376 1628.2095177560159 L 1181 1624 L 1170.837325142376 1619.7904822439841 L 1170.837325142376 1628.2095177560159" stroke-miterlimit="10"/></g><g transform="translate(10,10) scale(1,1)"><g><path fill="none" stroke="none"/><text fill="#000000" stroke="none" font-family="Arial" font-size="13px" font-style="normal" font-weight="normal" text-decoration="none" x="669" y="1621">48 : new IntentFilter(ConnectivityManager.CONNECTIVITY_ACTION)</text></g></g><g transform="translate(10,10) scale(1,1)"><rect fill="#ffffff" stroke="none" x="1181" y="1624" width="13" height="28"/></g><g transform="translate(10,10) scale(1,1)"><path fill="none" stroke="#000000" d="M 1181 1624 L 1194 1624 L 1194 1652 L 1181 1652 L 1181 1624 Z Z" stroke-miterlimit="10"/></g><g transform="translate(10,10) scale(1,1)"><path fill="none" stroke="#000000" d="M 1181 1640 L 558 1640" stroke-miterlimit="10" stroke-dasharray="3"/></g><g transform="translate(10,10) scale(1,1)"><path fill="none" stroke="#000000" d="M 568.1626748576241 1635.7904822439841 L 558 1640 L 568.1626748576241 1644.2095177560159" stroke-miterlimit="10"/></g><g transform="translate(10,10) scale(1,1)"><g><path fill="none" stroke="none"/><text fill="#000000" stroke="none" font-family="Arial" font-size="13px" font-style="normal" font-weight="normal" text-decoration="none" x="826" y="1657">49 : intentFilter</text></g></g><g transform="translate(10,10) scale(1,1)"><path fill="none" stroke="#000000" d="M 558 1648 L 588 1648 L 588 1668 L 565 1668" stroke-miterlimit="10"/></g><g transform="translate(10,10) scale(1,1)"><path fill="#000000" stroke="none" d="M 575.1626748576241 1663.7904822439841 L 565 1668 L 575.1626748576241 1672.2095177560159"/></g><g transform="translate(10,10) scale(1,1)"><path fill="none" stroke="#000000" d="M 575.1626748576241 1663.7904822439841 L 565 1668 L 575.1626748576241 1672.2095177560159 L 575.1626748576241 1663.7904822439841" stroke-miterlimit="10"/></g><g transform="translate(10,10) scale(1,1)"><g><path fill="none" stroke="none"/><text fill="#000000" stroke="none" font-family="Arial" font-size="13px" font-style="normal" font-weight="normal" text-decoration="none" x="599" y="1664">50 : getActivity</text></g></g><g transform="translate(10,10) scale(1,1)"><rect fill="#ffffff" stroke="none" x="552" y="1668" width="13" height="28"/></g><g transform="translate(10,10) scale(1,1)"><path fill="none" stroke="#000000" d="M 552 1668 L 565 1668 L 565 1696 L 552 1696 L 552 1668 Z Z" stroke-miterlimit="10"/></g><g transform="translate(10,10) scale(1,1)"><path fill="none" stroke="#000000" d="M 558 1712 L 1074 1712" stroke-miterlimit="10"/></g><g transform="translate(10,10) scale(1,1)"><path fill="#000000" stroke="none" d="M 1063.837325142376 1716.2095177560159 L 1074 1712 L 1063.837325142376 1707.7904822439841"/></g><g transform="translate(10,10) scale(1,1)"><path fill="none" stroke="#000000" d="M 1063.837325142376 1716.2095177560159 L 1074 1712 L 1063.837325142376 1707.7904822439841 L 1063.837325142376 1716.2095177560159" stroke-miterlimit="10"/></g><g transform="translate(10,10) scale(1,1)"><g><path fill="none" stroke="none"/><text fill="#000000" stroke="none" font-family="Arial" font-size="13px" font-style="normal" font-weight="normal" text-decoration="none" x="672" y="1709">51 : registerReceiver(networkReceiver,intentFilter)</text></g></g><g transform="translate(10,10) scale(1,1)"><rect fill="#ffffff" stroke="none" x="1074" y="1712" width="13" height="28"/></g><g transform="translate(10,10) scale(1,1)"><path fill="none" stroke="#000000" d="M 1074 1712 L 1087 1712 L 1087 1740 L 1074 1740 L 1074 1712 Z Z" stroke-miterlimit="10"/></g><g transform="translate(10,10) scale(1,1)"><path fill="none" stroke="#000000" d="M 538 1752 L 121 1752" stroke-miterlimit="10" stroke-dasharray="3"/></g><g transform="translate(10,10) scale(1,1)"><path fill="none" stroke="#000000" d="M 131.16267485762415 1747.7904822439841 L 121 1752 L 131.16267485762415 1756.2095177560159" stroke-miterlimit="10"/></g><g transform="translate(10,10) scale(1,1)"><g><path fill="none" stroke="none"/><text fill="#000000" stroke="none" font-family="Arial" font-size="13px" font-style="normal" font-weight="normal" text-decoration="none" x="276" y="1789">52 : DetailHCView</text></g></g><g transform="translate(10,10) scale(1,1)"><path fill="none" stroke="#000000" d="M 551 1872 L 581 1872 L 581 1892 L 558 1892" stroke-miterlimit="10"/></g><g transform="translate(10,10) scale(1,1)"><path fill="#000000" stroke="none" d="M 568.1626748576241 1887.7904822439841 L 558 1892 L 568.1626748576241 1896.2095177560159"/></g><g transform="translate(10,10) scale(1,1)"><path fill="none" stroke="#000000" d="M 568.1626748576241 1887.7904822439841 L 558 1892 L 568.1626748576241 1896.2095177560159 L 568.1626748576241 1887.7904822439841" stroke-miterlimit="10"/></g><g transform="translate(10,10) scale(1,1)"><g><path fill="none" stroke="none"/><text fill="#000000" stroke="none" font-family="Arial" font-size="13px" font-style="normal" font-weight="normal" text-decoration="none" x="583" y="1885">53 : onPause</text></g></g><g transform="translate(10,10) scale(1,1)"><rect fill="#ffffff" stroke="none" x="545" y="1892" width="13" height="108"/></g><g transform="translate(10,10) scale(1,1)"><path fill="none" stroke="#000000" d="M 545 1892 L 558 1892 L 558 2000 L 545 2000 L 545 1892 Z Z" stroke-miterlimit="10"/></g><g transform="translate(10,10) scale(1,1)"><path fill="none" stroke="#000000" d="M 558 1912 L 588 1912 L 588 1932 L 565 1932" stroke-miterlimit="10"/></g><g transform="translate(10,10) scale(1,1)"><path fill="#000000" stroke="none" d="M 575.1626748576241 1927.7904822439841 L 565 1932 L 575.1626748576241 1936.2095177560159"/></g><g transform="translate(10,10) scale(1,1)"><path fill="none" stroke="#000000" d="M 575.1626748576241 1927.7904822439841 L 565 1932 L 575.1626748576241 1936.2095177560159 L 575.1626748576241 1927.7904822439841" stroke-miterlimit="10"/></g><g transform="translate(10,10) scale(1,1)"><g><path fill="none" stroke="none"/><text fill="#000000" stroke="none" font-family="Arial" font-size="13px" font-style="normal" font-weight="normal" text-decoration="none" x="599" y="1925">54 : getActivity</text></g></g><g transform="translate(10,10) scale(1,1)"><rect fill="#ffffff" stroke="none" x="552" y="1932" width="13" height="28"/></g><g transform="translate(10,10) scale(1,1)"><path fill="none" stroke="#000000" d="M 552 1932 L 565 1932 L 565 1960 L 552 1960 L 552 1932 Z Z" stroke-miterlimit="10"/></g><g transform="translate(10,10) scale(1,1)"><path fill="none" stroke="#000000" d="M 558 1968 L 1074 1968" stroke-miterlimit="10"/></g><g transform="translate(10,10) scale(1,1)"><path fill="#000000" stroke="none" d="M 1063.837325142376 1972.2095177560159 L 1074 1968 L 1063.837325142376 1963.7904822439841"/></g><g transform="translate(10,10) scale(1,1)"><path fill="none" stroke="#000000" d="M 1063.837325142376 1972.2095177560159 L 1074 1968 L 1063.837325142376 1963.7904822439841 L 1063.837325142376 1972.2095177560159" stroke-miterlimit="10"/></g><g transform="translate(10,10) scale(1,1)"><g><path fill="none" stroke="none"/><text fill="#000000" stroke="none" font-family="Arial" font-size="13px" font-style="normal" font-weight="normal" text-decoration="none" x="697" y="1965">55 : unregisterReceiver(networkReceiver)</text></g></g><g transform="translate(10,10) scale(1,1)"><rect fill="#ffffff" stroke="none" x="1074" y="1968" width="13" height="55"/></g><g transform="translate(10,10) scale(1,1)"><path fill="none" stroke="#000000" d="M 1074 1968 L 1087 1968 L 1087 2023 L 1074 2023 L 1074 1968 Z Z" stroke-miterlimit="10"/></g></g></svg>