<svg version="1.1" xmlns="http://www.w3.org/2000/svg" xmlns:xlink="http://www.w3.org/1999/xlink" width="584.578125" height="344"><defs/><g><g transform="translate(-102,-30) scale(1,1)"><rect fill="#C0C0C0" stroke="none" x="319" y="199" width="162.17529296875" height="44" opacity="0.2"/></g><g transform="translate(-102,-30) scale(1,1)"><rect fill="#ffffff" stroke="none" x="312" y="192" width="162.17529296875" height="44"/></g><g transform="translate(-102,-30) scale(1,1)"><path fill="none" stroke="#000000" d="M 312 192 L 474.17529296875 192 L 474.17529296875 236 L 312 236 L 312 192 Z Z" stroke-miterlimit="10"/></g><g transform="translate(-102,-30) scale(1,1)"><path fill="none" stroke="#000000" d="M 312 217 L 474.17529296875 217" stroke-miterlimit="10"/></g><g transform="translate(-102,-30) scale(1,1)"><path fill="none" stroke="#000000" d="M 312 227 L 474.17529296875 227" stroke-miterlimit="10"/></g><g transform="translate(-102,-30) scale(1,1)"><g><path fill="none" stroke="none"/><text fill="#000000" stroke="none" font-family="Arial" font-size="13px" font-style="normal" font-weight="bold" text-decoration="none" x="320.838623046875" y="211.5">CrvPreformatedMessage</text></g></g><g transform="translate(-102,-30) scale(1,1)"><rect fill="#C0C0C0" stroke="none" x="591" y="327" width="72.578125" height="44" opacity="0.2"/></g><g transform="translate(-102,-30) scale(1,1)"><rect fill="#ffffff" stroke="none" x="584" y="320" width="72.578125" height="44"/></g><g transform="translate(-102,-30) scale(1,1)"><path fill="none" stroke="#000000" d="M 584 320 L 656.578125 320 L 656.578125 364 L 584 364 L 584 320 Z Z" stroke-miterlimit="10"/></g><g transform="translate(-102,-30) scale(1,1)"><path fill="none" stroke="#000000" d="M 584 345 L 656.578125 345" stroke-miterlimit="10"/></g><g transform="translate(-102,-30) scale(1,1)"><path fill="none" stroke="#000000" d="M 584 355 L 656.578125 355" stroke-miterlimit="10"/></g><g transform="translate(-102,-30) scale(1,1)"><g><path fill="none" stroke="none"/><text fill="#000000" stroke="none" font-family="Arial" font-size="13px" font-style="normal" font-weight="bold" text-decoration="none" x="589.575927734375" y="339.5">CacheDao</text></g></g><g transform="translate(-102,-30) scale(1,1)"><rect fill="#C0C0C0" stroke="none" x="303" y="47" width="55.9599609375" height="44" opacity="0.2"/></g><g transform="translate(-102,-30) scale(1,1)"><rect fill="#ffffff" stroke="none" x="296" y="40" width="55.9599609375" height="44"/></g><g transform="translate(-102,-30) scale(1,1)"><path fill="none" stroke="#000000" d="M 296 40 L 351.9599609375 40 L 351.9599609375 84 L 296 84 L 296 40 Z Z" stroke-miterlimit="10"/></g><g transform="translate(-102,-30) scale(1,1)"><path fill="none" stroke="#000000" d="M 296 65 L 351.9599609375 65" stroke-miterlimit="10"/></g><g transform="translate(-102,-30) scale(1,1)"><path fill="none" stroke="#000000" d="M 296 75 L 351.9599609375 75" stroke-miterlimit="10"/></g><g transform="translate(-102,-30) scale(1,1)"><g><path fill="none" stroke="none"/><text fill="#000000" stroke="none" font-family="Arial" font-size="13px" font-style="normal" font-weight="bold" text-decoration="none" x="303.39453125" y="59.5">Activity</text></g></g><g transform="translate(-102,-30) scale(1,1)"><rect fill="#C0C0C0" stroke="none" x="559" y="183" width="124.578125" height="44" opacity="0.2"/></g><g transform="translate(-102,-30) scale(1,1)"><rect fill="#ffffff" stroke="none" x="552" y="176" width="124.578125" height="44"/></g><g transform="translate(-102,-30) scale(1,1)"><path fill="none" stroke="#000000" d="M 552 176 L 676.578125 176 L 676.578125 220 L 552 220 L 552 176 Z Z" stroke-miterlimit="10"/></g><g transform="translate(-102,-30) scale(1,1)"><path fill="none" stroke="#000000" d="M 552 201 L 676.578125 201" stroke-miterlimit="10"/></g><g transform="translate(-102,-30) scale(1,1)"><path fill="none" stroke="#000000" d="M 552 211 L 676.578125 211" stroke-miterlimit="10"/></g><g transform="translate(-102,-30) scale(1,1)"><g><path fill="none" stroke="none"/><text fill="#000000" stroke="none" font-family="Arial" font-size="13px" font-style="normal" font-weight="bold" text-decoration="none" x="559.369140625" y="195.5">SQLiteOpenHelper</text></g></g><g transform="translate(-102,-30) scale(1,1)"><path fill="none" stroke="#000000" d="M 382 191 L 334 85" stroke-miterlimit="10"/></g><g transform="translate(-102,-30) scale(1,1)"><path fill="#FFFFFF" stroke="none" d="M 350.0537158742899 100.04254654729624 L 334 85 L 334.71500468804504 106.98837802785994"/></g><g transform="translate(-102,-30) scale(1,1)"><path fill="none" stroke="#000000" d="M 350.0537158742899 100.04254654729624 L 334 85 L 334.71500468804504 106.98837802785994 L 350.0537158742899 100.04254654729624" stroke-miterlimit="10"/></g><g transform="translate(-102,-30) scale(1,1)"><path fill="none" stroke="#000000" d="M 619 319 L 615 221" stroke-miterlimit="10"/></g><g transform="translate(-102,-30) scale(1,1)"><path fill="#FFFFFF" stroke="none" d="M 624.2409472441365 240.96509188636725 L 615 221 L 607.4168846010532 241.65178832077882"/></g><g transform="translate(-102,-30) scale(1,1)"><path fill="none" stroke="#000000" d="M 624.2409472441365 240.96509188636725 L 615 221 L 607.4168846010532 241.65178832077882 L 624.2409472441365 240.96509188636725" stroke-miterlimit="10"/></g><g transform="translate(-102,-30) scale(1,1)"><rect fill="#C0C0C0" stroke="none" x="119" y="327" width="118.103515625" height="44" opacity="0.2"/></g><g transform="translate(-102,-30) scale(1,1)"><rect fill="#ffffff" stroke="none" x="112" y="320" width="118.103515625" height="44"/></g><g transform="translate(-102,-30) scale(1,1)"><path fill="none" stroke="#000000" d="M 112 320 L 230.103515625 320 L 230.103515625 364 L 112 364 L 112 320 Z Z" stroke-miterlimit="10"/></g><g transform="translate(-102,-30) scale(1,1)"><path fill="none" stroke="#000000" d="M 112 345 L 230.103515625 345" stroke-miterlimit="10"/></g><g transform="translate(-102,-30) scale(1,1)"><path fill="none" stroke="#000000" d="M 112 355 L 230.103515625 355" stroke-miterlimit="10"/></g><g transform="translate(-102,-30) scale(1,1)"><g><path fill="none" stroke="none"/><text fill="#000000" stroke="none" font-family="Arial" font-size="13px" font-style="normal" font-weight="bold" text-decoration="none" x="120.84814453125" y="339.5">CreateCrvActivity</text></g></g><g transform="translate(-102,-30) scale(1,1)"><path fill="none" stroke="#000000" d="M 183 319 L 311 85" stroke-miterlimit="10"/></g><g transform="translate(-102,-30) scale(1,1)"><path fill="#FFFFFF" stroke="none" d="M 308.632016746246 106.87218908362719 L 311 85 L 293.8596097631072 98.79155620396152"/></g><g transform="translate(-102,-30) scale(1,1)"><path fill="none" stroke="#000000" d="M 308.632016746246 106.87218908362719 L 311 85 L 293.8596097631072 98.79155620396152 L 308.632016746246 106.87218908362719" stroke-miterlimit="10"/></g><g transform="translate(-102,-30) scale(1,1)"><path fill="none" stroke="#000000" d="M 211 319 L 353 237" stroke-miterlimit="10"/></g><g transform="translate(-102,-30) scale(1,1)"><path fill="none" stroke="#000000" d="M 434 237 L 583 321" stroke-miterlimit="10"/></g><g transform="translate(-102,-30) scale(1,1)"><path fill="none" stroke="#000000" d="M 231 342 L 583 342" stroke-miterlimit="10"/></g></g></svg>