<svg version="1.1" xmlns="http://www.w3.org/2000/svg" xmlns:xlink="http://www.w3.org/1999/xlink" width="1287" height="735"><defs/><g><g transform="translate(-46,10) scale(1,1)"><path fill="none" stroke="#000000" d="M 56 0 L 1323 0 L 1323 715 L 56 715 L 56 0" stroke-miterlimit="10"/></g><g transform="translate(-46,10) scale(1,1)"><path fill="#ffffff" stroke="none" d="M 56 0 L 56 22 L 517.10400390625 22 L 528.10400390625 11 L 528.10400390625 0 L 56 0"/></g><g transform="translate(-46,10) scale(1,1)"><path fill="none" stroke="#000000" d="M 56 0 L 56 22 L 517.10400390625 22 L 528.10400390625 11 L 528.10400390625 0 L 56 0 L 56 0" stroke-miterlimit="10"/></g><g transform="translate(-46,10) scale(1,1)"><g><path fill="none" stroke="none"/><text fill="#000000" stroke="none" font-family="Arial" font-size="13px" font-style="normal" font-weight="normal" text-decoration="none" x="126.97900390625" y="17.5">user creates a formatted message in CRM-Tab Android application</text></g></g><g transform="translate(-46,10) scale(1,1)"><g><path fill="none" stroke="none"/><text fill="#000000" stroke="none" font-family="Arial" font-size="13px" font-style="normal" font-weight="bold" text-decoration="none" x="61" y="17.5">interaction</text></g></g><g transform="translate(-46,10) scale(1,1)"><rect fill="#C0C0C0" stroke="none" x="447" y="47" width="215.47900390625" height="39" opacity="0.2"/></g><g transform="translate(-46,10) scale(1,1)"><rect fill="#ffffff" stroke="none" x="440" y="40" width="215.47900390625" height="39"/></g><g transform="translate(-46,10) scale(1,1)"><path fill="none" stroke="#000000" d="M 440 40 L 655.47900390625 40 L 655.47900390625 79 L 440 79 L 440 40 Z Z" stroke-miterlimit="10"/></g><g transform="translate(-46,10) scale(1,1)"><g><path fill="none" stroke="none"/><text fill="#000000" stroke="none" font-family="Arial" font-size="13px" font-style="normal" font-weight="bold" text-decoration="none" x="464.6708984375" y="59.5">ACTIVITY: CreateCrvActivity</text></g></g><g transform="translate(-46,10) scale(1,1)"><path fill="none" stroke="#000000" d="M 548.5 80 L 548.5 576" stroke-miterlimit="10" stroke-dasharray="3"/></g><g transform="translate(-46,10) scale(1,1)"><rect fill="#C0C0C0" stroke="none" x="1007" y="47" width="206.10986328125" height="39" opacity="0.2"/></g><g transform="translate(-46,10) scale(1,1)"><rect fill="#ffffff" stroke="none" x="1000" y="40" width="206.10986328125" height="39"/></g><g transform="translate(-46,10) scale(1,1)"><path fill="none" stroke="#000000" d="M 1000 40 L 1206.10986328125 40 L 1206.10986328125 79 L 1000 79 L 1000 40 Z Z" stroke-miterlimit="10"/></g><g transform="translate(-46,10) scale(1,1)"><g><path fill="none" stroke="none"/><text fill="#000000" stroke="none" font-family="Arial" font-size="13px" font-style="normal" font-weight="bold" text-decoration="none" x="1030.786865234375" y="59.5">SqlLiteHelper: appCache</text></g></g><g transform="translate(-46,10) scale(1,1)"><path fill="none" stroke="#000000" d="M 1104.5 80 L 1104.5 576" stroke-miterlimit="10" stroke-dasharray="3"/></g><g transform="translate(-46,10) scale(1,1)"><rect fill="#C0C0C0" stroke="none" x="719" y="47" width="239.33984375" height="39" opacity="0.2"/></g><g transform="translate(-46,10) scale(1,1)"><rect fill="#ffffff" stroke="none" x="712" y="40" width="239.33984375" height="39"/></g><g transform="translate(-46,10) scale(1,1)"><path fill="none" stroke="#000000" d="M 712 40 L 951.33984375 40 L 951.33984375 79 L 712 79 L 712 40 Z Z" stroke-miterlimit="10"/></g><g transform="translate(-46,10) scale(1,1)"><g><path fill="none" stroke="none"/><text fill="#000000" stroke="none" font-family="Arial" font-size="13px" font-style="normal" font-weight="bold" text-decoration="none" x="726.555908203125" y="59.5">ACTIVITY: CrvPreformatedMessage</text></g></g><g transform="translate(-46,10) scale(1,1)"><path fill="none" stroke="#000000" d="M 832.5 80 L 832.5 576" stroke-miterlimit="10" stroke-dasharray="3"/></g><g transform="translate(-46,10) scale(1,1)"><path fill="#ffffff" stroke="none" d="M 157.1395126065341 47.3 C 157.1395126065341 43.82060576 160.0179143287159 41 163.568603515625 41 C 167.1192927025341 41 169.99769442471592 43.82060576 169.99769442471592 47.3 C 169.99769442471592 50.779394239999995 167.1192927025341 53.6 163.568603515625 53.6 C 160.0179143287159 53.6 157.1395126065341 50.779394239999995 157.1395126065341 47.3 Z"/></g><g transform="translate(-46,10) scale(1,1)"><path fill="none" stroke="#000000" d="M 157.1395126065341 47.3 C 157.1395126065341 43.82060576 160.0179143287159 41 163.568603515625 41 C 167.1192927025341 41 169.99769442471592 43.82060576 169.99769442471592 47.3 C 169.99769442471592 50.779394239999995 167.1192927025341 53.6 163.568603515625 53.6 C 160.0179143287159 53.6 157.1395126065341 50.779394239999995 157.1395126065341 47.3 Z" stroke-miterlimit="10"/></g><g transform="translate(-46,10) scale(1,1)"><path fill="none" stroke="#000000" d="M 163.568603515625 53.6 L 163.568603515625 66.4" stroke-miterlimit="10"/></g><g transform="translate(-46,10) scale(1,1)"><path fill="none" stroke="#000000" d="M 156.7613307883523 58.4 L 170.37587624289773 58.4" stroke-miterlimit="10"/></g><g transform="translate(-46,10) scale(1,1)"><path fill="none" stroke="#000000" d="M 163.568603515625 66.4 L 154.11405806107956 79" stroke-miterlimit="10"/></g><g transform="translate(-46,10) scale(1,1)"><path fill="none" stroke="#000000" d="M 163.568603515625 66.4 L 173.02314897017047 79" stroke-miterlimit="10"/></g><g transform="translate(-46,10) scale(1,1)"><g><path fill="none" stroke="none"/><text fill="#000000" stroke="none" font-family="Arial" font-size="13px" font-style="normal" font-weight="bold" text-decoration="none" x="123.09912109375" y="99.5">Lifeline1: user</text></g></g><g transform="translate(-46,10) scale(1,1)"><path fill="none" stroke="#000000" d="M 164.5 105 L 164.5 576" stroke-miterlimit="10" stroke-dasharray="3"/></g><g transform="translate(-46,10) scale(1,1)"><path fill="none" stroke="#000000" d="M 164 128 L 541 128" stroke-miterlimit="10"/></g><g transform="translate(-46,10) scale(1,1)"><path fill="#000000" stroke="none" d="M 530.8373251423759 132.209517756016 L 541 128 L 530.8373251423758 123.79048224398402"/></g><g transform="translate(-46,10) scale(1,1)"><path fill="none" stroke="#000000" d="M 530.8373251423759 132.209517756016 L 541 128 L 530.8373251423758 123.79048224398402 L 530.8373251423759 132.209517756016" stroke-miterlimit="10"/></g><g transform="translate(-46,10) scale(1,1)"><g><path fill="none" stroke="none"/><text fill="#000000" stroke="none" font-family="Arial" font-size="13px" font-style="normal" font-weight="normal" text-decoration="none" x="276" y="125">1 : onClick(button, activity)</text></g></g><g transform="translate(-46,10) scale(1,1)"><rect fill="#ffffff" stroke="none" x="541" y="128" width="13" height="28"/></g><g transform="translate(-46,10) scale(1,1)"><path fill="none" stroke="#000000" d="M 541 128 L 554 128 L 554 156 L 541 156 L 541 128 Z Z" stroke-miterlimit="10"/></g><g transform="translate(-46,10) scale(1,1)"><path fill="none" stroke="#000000" d="M 548 177 L 825 177" stroke-miterlimit="10"/></g><g transform="translate(-46,10) scale(1,1)"><path fill="#000000" stroke="none" d="M 814.8373251423759 181.209517756016 L 825 177 L 814.8373251423758 172.790482243984"/></g><g transform="translate(-46,10) scale(1,1)"><path fill="none" stroke="#000000" d="M 814.8373251423759 181.209517756016 L 825 177 L 814.8373251423758 172.790482243984 L 814.8373251423759 181.209517756016" stroke-miterlimit="10"/></g><g transform="translate(-46,10) scale(1,1)"><g><path fill="none" stroke="none"/><text fill="#000000" stroke="none" font-family="Arial" font-size="13px" font-style="normal" font-weight="normal" text-decoration="none" x="624" y="174">2 : startActivity(intent)</text></g></g><g transform="translate(-46,10) scale(1,1)"><rect fill="#ffffff" stroke="none" x="825" y="177" width="13" height="28"/></g><g transform="translate(-46,10) scale(1,1)"><path fill="none" stroke="#000000" d="M 825 177 L 838 177 L 838 205 L 825 205 L 825 177 Z Z" stroke-miterlimit="10"/></g><g transform="translate(-46,10) scale(1,1)"><path fill="none" stroke="#000000" d="M 832 248 L 170 248" stroke-miterlimit="10"/></g><g transform="translate(-46,10) scale(1,1)"><path fill="#000000" stroke="none" d="M 180.16267485762415 243.790482243984 L 170 248 L 180.16267485762415 252.209517756016"/></g><g transform="translate(-46,10) scale(1,1)"><path fill="none" stroke="#000000" d="M 180.16267485762415 243.790482243984 L 170 248 L 180.16267485762415 252.209517756016 L 180.16267485762415 243.790482243984" stroke-miterlimit="10"/></g><g transform="translate(-46,10) scale(1,1)"><g><path fill="none" stroke="none"/><text fill="#000000" stroke="none" font-family="Arial" font-size="13px" font-style="normal" font-weight="normal" text-decoration="none" x="410" y="265">3 : showMessageCreationForm</text></g></g><g transform="translate(-46,10) scale(1,1)"><rect fill="#ffffff" stroke="none" x="157" y="248" width="13" height="28"/></g><g transform="translate(-46,10) scale(1,1)"><path fill="none" stroke="#000000" d="M 157 248 L 170 248 L 170 276 L 157 276 L 157 248 Z Z" stroke-miterlimit="10"/></g><g transform="translate(-46,10) scale(1,1)"><path fill="none" stroke="#000000" d="M 164 320 L 825 320" stroke-miterlimit="10"/></g><g transform="translate(-46,10) scale(1,1)"><path fill="#000000" stroke="none" d="M 814.8373251423759 324.209517756016 L 825 320 L 814.8373251423758 315.790482243984"/></g><g transform="translate(-46,10) scale(1,1)"><path fill="none" stroke="#000000" d="M 814.8373251423759 324.209517756016 L 825 320 L 814.8373251423758 315.790482243984 L 814.8373251423759 324.209517756016" stroke-miterlimit="10"/></g><g transform="translate(-46,10) scale(1,1)"><g><path fill="none" stroke="none"/><text fill="#000000" stroke="none" font-family="Arial" font-size="13px" font-style="normal" font-weight="normal" text-decoration="none" x="415" y="317">4 : saveMessage(message)</text></g></g><g transform="translate(-46,10) scale(1,1)"><rect fill="#ffffff" stroke="none" x="825" y="320" width="13" height="28"/></g><g transform="translate(-46,10) scale(1,1)"><path fill="none" stroke="#000000" d="M 825 320 L 838 320 L 838 348 L 825 348 L 825 320 Z Z" stroke-miterlimit="10"/></g><g transform="translate(-46,10) scale(1,1)"><path fill="none" stroke="#000000" d="M 832 368 L 1097 368" stroke-miterlimit="10"/></g><g transform="translate(-46,10) scale(1,1)"><path fill="#000000" stroke="none" d="M 1086.837325142376 372.209517756016 L 1097 368 L 1086.837325142376 363.790482243984"/></g><g transform="translate(-46,10) scale(1,1)"><path fill="none" stroke="#000000" d="M 1086.837325142376 372.209517756016 L 1097 368 L 1086.837325142376 363.790482243984 L 1086.837325142376 372.209517756016" stroke-miterlimit="10"/></g><g transform="translate(-46,10) scale(1,1)"><g><path fill="none" stroke="none"/><text fill="#000000" stroke="none" font-family="Arial" font-size="13px" font-style="normal" font-weight="normal" text-decoration="none" x="860" y="365">5 : saveMessageInCache(message)</text></g></g><g transform="translate(-46,10) scale(1,1)"><rect fill="#ffffff" stroke="none" x="1097" y="368" width="13" height="28"/></g><g transform="translate(-46,10) scale(1,1)"><path fill="none" stroke="#000000" d="M 1097 368 L 1110 368 L 1110 396 L 1097 396 L 1097 368 Z Z" stroke-miterlimit="10"/></g><g transform="translate(-46,10) scale(1,1)"><path fill="none" stroke="#000000" d="M 832 384 L 862 384 L 862 404 L 838 404" stroke-miterlimit="10"/></g><g transform="translate(-46,10) scale(1,1)"><path fill="#000000" stroke="none" d="M 848.1626748576241 399.790482243984 L 838 404 L 848.1626748576241 408.209517756016"/></g><g transform="translate(-46,10) scale(1,1)"><path fill="none" stroke="#000000" d="M 848.1626748576241 399.790482243984 L 838 404 L 848.1626748576241 408.209517756016 L 848.1626748576241 399.790482243984" stroke-miterlimit="10"/></g><g transform="translate(-46,10) scale(1,1)"><g><path fill="none" stroke="none"/><text fill="#000000" stroke="none" font-family="Arial" font-size="13px" font-style="normal" font-weight="normal" text-decoration="none" x="797" y="400">6 : addMessage(ListView)</text></g></g><g transform="translate(-46,10) scale(1,1)"><rect fill="#ffffff" stroke="none" x="825" y="404" width="13" height="28"/></g><g transform="translate(-46,10) scale(1,1)"><path fill="none" stroke="#000000" d="M 825 404 L 838 404 L 838 432 L 825 432 L 825 404 Z Z" stroke-miterlimit="10"/></g></g></svg>