<svg version="1.1" xmlns="http://www.w3.org/2000/svg" xmlns:xlink="http://www.w3.org/1999/xlink" width="724.0107421875" height="572"><defs/><g><g transform="translate(-70,-6) scale(1,1)"><rect fill="#C0C0C0" stroke="none" x="681" y="527" width="102.052734375" height="44" opacity="0.2"/></g><g transform="translate(-70,-6) scale(1,1)"><rect fill="#ffff49" stroke="none" x="674" y="520" width="102.052734375" height="44"/></g><g transform="translate(-70,-6) scale(1,1)"><path fill="none" stroke="#000000" d="M 674 520 L 776.052734375 520 L 776.052734375 564 L 674 564 L 674 520 Z Z" stroke-miterlimit="10"/></g><g transform="translate(-70,-6) scale(1,1)"><rect fill="#ffff49" stroke="none" x="664" y="527" width="20" height="10"/></g><g transform="translate(-70,-6) scale(1,1)"><path fill="none" stroke="#000000" d="M 664 527 L 684 527 L 684 537 L 664 537 L 664 527 Z Z" stroke-miterlimit="10"/></g><g transform="translate(-70,-6) scale(1,1)"><rect fill="#ffff49" stroke="none" x="664" y="547" width="20" height="10"/></g><g transform="translate(-70,-6) scale(1,1)"><path fill="none" stroke="#000000" d="M 664 547 L 684 547 L 684 557 L 664 557 L 664 547 Z Z" stroke-miterlimit="10"/></g><g transform="translate(-70,-6) scale(1,1)"><g><path fill="none" stroke="none"/><text fill="#000000" stroke="none" font-family="Arial" font-size="13px" font-style="normal" font-weight="normal" text-decoration="none" x="694.971435546875" y="537.5">«Database»</text></g></g><g transform="translate(-70,-6) scale(1,1)"><g><path fill="none" stroke="none"/><text fill="#000000" stroke="none" font-family="Arial" font-size="13px" font-style="normal" font-weight="bold" text-decoration="none" x="690.280517578125" y="552.5">MongoDB 3.3</text></g></g><g transform="translate(-70,-6) scale(1,1)"><rect fill="#C0C0C0" stroke="none" x="257" y="343" width="203.22802734375" height="44" opacity="0.2"/></g><g transform="translate(-70,-6) scale(1,1)"><rect fill="#6dff6d" stroke="none" x="250" y="336" width="203.22802734375" height="44"/></g><g transform="translate(-70,-6) scale(1,1)"><path fill="none" stroke="#000000" d="M 250 336 L 453.22802734375 336 L 453.22802734375 380 L 250 380 L 250 336 Z Z" stroke-miterlimit="10"/></g><g transform="translate(-70,-6) scale(1,1)"><rect fill="#6dff6d" stroke="none" x="240" y="343" width="20" height="10"/></g><g transform="translate(-70,-6) scale(1,1)"><path fill="none" stroke="#000000" d="M 240 343 L 260 343 L 260 353 L 240 353 L 240 343 Z Z" stroke-miterlimit="10"/></g><g transform="translate(-70,-6) scale(1,1)"><rect fill="#6dff6d" stroke="none" x="240" y="363" width="20" height="10"/></g><g transform="translate(-70,-6) scale(1,1)"><path fill="none" stroke="#000000" d="M 240 363 L 260 363 L 260 373 L 240 373 L 240 363 Z Z" stroke-miterlimit="10"/></g><g transform="translate(-70,-6) scale(1,1)"><g><path fill="none" stroke="none"/><text fill="#000000" stroke="none" font-family="Arial" font-size="13px" font-style="normal" font-weight="normal" text-decoration="none" x="338.910400390625" y="353.5">«war»</text></g></g><g transform="translate(-70,-6) scale(1,1)"><g><path fill="none" stroke="none"/><text fill="#000000" stroke="none" font-family="Arial" font-size="13px" font-style="normal" font-weight="bold" text-decoration="none" x="266.30908203125" y="368.5">Serveur REST SNAPSHOT 1.0</text></g></g><g transform="translate(-70,-6) scale(1,1)"><rect fill="#C0C0C0" stroke="none" x="97" y="399" width="98.44091796875" height="44" opacity="0.2"/></g><g transform="translate(-70,-6) scale(1,1)"><rect fill="#ff0000" stroke="none" x="90" y="392" width="98.44091796875" height="44"/></g><g transform="translate(-70,-6) scale(1,1)"><path fill="none" stroke="#000000" d="M 90 392 L 188.44091796875 392 L 188.44091796875 436 L 90 436 L 90 392 Z Z" stroke-miterlimit="10"/></g><g transform="translate(-70,-6) scale(1,1)"><rect fill="#ff0000" stroke="none" x="80" y="399" width="20" height="10"/></g><g transform="translate(-70,-6) scale(1,1)"><path fill="none" stroke="#000000" d="M 80 399 L 100 399 L 100 409 L 80 409 L 80 399 Z Z" stroke-miterlimit="10"/></g><g transform="translate(-70,-6) scale(1,1)"><rect fill="#ff0000" stroke="none" x="80" y="419" width="20" height="10"/></g><g transform="translate(-70,-6) scale(1,1)"><path fill="none" stroke="#000000" d="M 80 419 L 100 419 L 100 429 L 80 429 L 80 419 Z Z" stroke-miterlimit="10"/></g><g transform="translate(-70,-6) scale(1,1)"><g><path fill="none" stroke="none"/><text fill="#000000" stroke="none" font-family="Arial" font-size="13px" font-style="normal" font-weight="normal" text-decoration="none" x="128.31640625" y="409.5">«api»</text></g></g><g transform="translate(-70,-6) scale(1,1)"><g><path fill="none" stroke="none"/><text fill="#000000" stroke="none" font-family="Arial" font-size="13px" font-style="normal" font-weight="bold" text-decoration="none" x="126.52001953125" y="424.5">JRE 8</text></g></g><g transform="translate(-70,-6) scale(1,1)"><rect fill="#C0C0C0" stroke="none" x="113" y="255" width="98.44091796875" height="44" opacity="0.2"/></g><g transform="translate(-70,-6) scale(1,1)"><rect fill="#ff0000" stroke="none" x="106" y="248" width="98.44091796875" height="44"/></g><g transform="translate(-70,-6) scale(1,1)"><path fill="none" stroke="#000000" d="M 106 248 L 204.44091796875 248 L 204.44091796875 292 L 106 292 L 106 248 Z Z" stroke-miterlimit="10"/></g><g transform="translate(-70,-6) scale(1,1)"><rect fill="#ff0000" stroke="none" x="96" y="255" width="20" height="10"/></g><g transform="translate(-70,-6) scale(1,1)"><path fill="none" stroke="#000000" d="M 96 255 L 116 255 L 116 265 L 96 265 L 96 255 Z Z" stroke-miterlimit="10"/></g><g transform="translate(-70,-6) scale(1,1)"><rect fill="#ff0000" stroke="none" x="96" y="275" width="20" height="10"/></g><g transform="translate(-70,-6) scale(1,1)"><path fill="none" stroke="#000000" d="M 96 275 L 116 275 L 116 285 L 96 285 L 96 275 Z Z" stroke-miterlimit="10"/></g><g transform="translate(-70,-6) scale(1,1)"><g><path fill="none" stroke="none"/><text fill="#000000" stroke="none" font-family="Arial" font-size="13px" font-style="normal" font-weight="normal" text-decoration="none" x="145.766845703125" y="265.5">«jar»</text></g></g><g transform="translate(-70,-6) scale(1,1)"><g><path fill="none" stroke="none"/><text fill="#000000" stroke="none" font-family="Arial" font-size="13px" font-style="normal" font-weight="bold" text-decoration="none" x="133.128662109375" y="280.5">Tomcat 8</text></g></g><g transform="translate(-70,-6) scale(1,1)"><rect fill="#C0C0C0" stroke="none" x="321" y="127" width="142" height="48" opacity="0.2"/></g><g transform="translate(-70,-6) scale(1,1)"><rect fill="#6dff6d" stroke="none" x="314" y="120" width="142" height="48"/></g><g transform="translate(-70,-6) scale(1,1)"><path fill="none" stroke="#000000" d="M 314 120 L 456 120 L 456 168 L 314 168 L 314 120 Z Z" stroke-miterlimit="10"/></g><g transform="translate(-70,-6) scale(1,1)"><rect fill="#6dff6d" stroke="none" x="304" y="127" width="20" height="10"/></g><g transform="translate(-70,-6) scale(1,1)"><path fill="none" stroke="#000000" d="M 304 127 L 324 127 L 324 137 L 304 137 L 304 127 Z Z" stroke-miterlimit="10"/></g><g transform="translate(-70,-6) scale(1,1)"><rect fill="#6dff6d" stroke="none" x="304" y="147" width="20" height="10"/></g><g transform="translate(-70,-6) scale(1,1)"><path fill="none" stroke="#000000" d="M 304 147 L 324 147 L 324 157 L 304 157 L 304 147 Z Z" stroke-miterlimit="10"/></g><g transform="translate(-70,-6) scale(1,1)"><g><path fill="none" stroke="none"/><text fill="#000000" stroke="none" font-family="Arial" font-size="13px" font-style="normal" font-weight="normal" text-decoration="none" x="372.2900390625" y="137.5">«apk»</text></g></g><g transform="translate(-70,-6) scale(1,1)"><g><path fill="none" stroke="none"/><text fill="#000000" stroke="none" font-family="Arial" font-size="13px" font-style="normal" font-weight="bold" text-decoration="none" x="347.378662109375" y="152.5">CRM TAb v1.0</text></g></g><g transform="translate(-70,-6) scale(1,1)"><rect fill="#C0C0C0" stroke="none" x="489" y="191" width="98.44091796875" height="44" opacity="0.2"/></g><g transform="translate(-70,-6) scale(1,1)"><rect fill="#ff0000" stroke="none" x="482" y="184" width="98.44091796875" height="44"/></g><g transform="translate(-70,-6) scale(1,1)"><path fill="none" stroke="#000000" d="M 482 184 L 580.44091796875 184 L 580.44091796875 228 L 482 228 L 482 184 Z Z" stroke-miterlimit="10"/></g><g transform="translate(-70,-6) scale(1,1)"><rect fill="#ff0000" stroke="none" x="472" y="191" width="20" height="10"/></g><g transform="translate(-70,-6) scale(1,1)"><path fill="none" stroke="#000000" d="M 472 191 L 492 191 L 492 201 L 472 201 L 472 191 Z Z" stroke-miterlimit="10"/></g><g transform="translate(-70,-6) scale(1,1)"><rect fill="#ff0000" stroke="none" x="472" y="211" width="20" height="10"/></g><g transform="translate(-70,-6) scale(1,1)"><path fill="none" stroke="#000000" d="M 472 211 L 492 211 L 492 221 L 472 221 L 472 211 Z Z" stroke-miterlimit="10"/></g><g transform="translate(-70,-6) scale(1,1)"><g><path fill="none" stroke="none"/><text fill="#000000" stroke="none" font-family="Arial" font-size="13px" font-style="normal" font-weight="normal" text-decoration="none" x="521.766845703125" y="201.5">«jar»</text></g></g><g transform="translate(-70,-6) scale(1,1)"><g><path fill="none" stroke="none"/><text fill="#000000" stroke="none" font-family="Arial" font-size="13px" font-style="normal" font-weight="bold" text-decoration="none" x="509.84912109375" y="216.5">Retrofit 2</text></g></g><g transform="translate(-70,-6) scale(1,1)"><rect fill="#C0C0C0" stroke="none" x="577" y="23" width="124.7490234375" height="44" opacity="0.2"/></g><g transform="translate(-70,-6) scale(1,1)"><rect fill="#5656ff" stroke="none" x="570" y="16" width="124.7490234375" height="44"/></g><g transform="translate(-70,-6) scale(1,1)"><path fill="none" stroke="#000000" d="M 570 16 L 694.7490234375 16 L 694.7490234375 60 L 570 60 L 570 16 Z Z" stroke-miterlimit="10"/></g><g transform="translate(-70,-6) scale(1,1)"><rect fill="#5656ff" stroke="none" x="560" y="23" width="20" height="10"/></g><g transform="translate(-70,-6) scale(1,1)"><path fill="none" stroke="#000000" d="M 560 23 L 580 23 L 580 33 L 560 33 L 560 23 Z Z" stroke-miterlimit="10"/></g><g transform="translate(-70,-6) scale(1,1)"><rect fill="#5656ff" stroke="none" x="560" y="43" width="20" height="10"/></g><g transform="translate(-70,-6) scale(1,1)"><path fill="none" stroke="#000000" d="M 560 43 L 580 43 L 580 53 L 560 53 L 560 43 Z Z" stroke-miterlimit="10"/></g><g transform="translate(-70,-6) scale(1,1)"><g><path fill="none" stroke="none"/><text fill="#000000" stroke="none" font-family="Arial" font-size="13px" font-style="normal" font-weight="normal" text-decoration="none" x="621.470458984375" y="33.5">«api»</text></g></g><g transform="translate(-70,-6) scale(1,1)"><g><path fill="none" stroke="none"/><text fill="#000000" stroke="none" font-family="Arial" font-size="13px" font-style="normal" font-weight="bold" text-decoration="none" x="594.734130859375" y="48.5">android sdk 19</text></g></g><g transform="translate(-70,-6) scale(1,1)"><path fill="#C0C0C0" stroke="none" d="M 566.7099609375 538.5 C 566.7099609375 532.1487248 571.8586857375 527 578.2099609375 527 C 584.5612361375 527 589.7099609375 532.1487248 589.7099609375 538.5 C 589.7099609375 544.8512752 584.5612361375 550 578.2099609375 550 C 571.8586857375 550 566.7099609375 544.8512752 566.7099609375 538.5 Z" opacity="0.2"/></g><g transform="translate(-70,-6) scale(1,1)"><path fill="none" stroke="#000000" d="M 571.319321273264 542.4955658375062 A 11.5 11.5 0 0 1 570.6806787267359 519.5044341624938" stroke-miterlimit="10"/></g><g transform="translate(-70,-6) scale(1,1)"><path fill="#ffffff" stroke="none" d="M 562.7099609375 531.5 C 562.7099609375 526.8055792 566.5155401375 523 571.2099609375 523 C 575.9043817375 523 579.7099609375 526.8055792 579.7099609375 531.5 C 579.7099609375 536.1944208 575.9043817375 540 571.2099609375 540 C 566.5155401375 540 562.7099609375 536.1944208 562.7099609375 531.5 Z"/></g><g transform="translate(-70,-6) scale(1,1)"><path fill="none" stroke="#000000" d="M 562.7099609375 531.5 C 562.7099609375 526.8055792 566.5155401375 523 571.2099609375 523 C 575.9043817375 523 579.7099609375 526.8055792 579.7099609375 531.5 C 579.7099609375 536.1944208 575.9043817375 540 571.2099609375 540 C 566.5155401375 540 562.7099609375 536.1944208 562.7099609375 531.5 Z" stroke-miterlimit="10"/></g><g transform="translate(-70,-6) scale(1,1)"><g><path fill="none" stroke="none"/><text fill="#000000" stroke="none" font-family="Arial" font-size="13px" font-style="normal" font-weight="bold" text-decoration="none" x="571.2099609375" y="562.5"></text></g></g><g transform="translate(-70,-6) scale(1,1)"><path fill="none" stroke="#000000" d="M 259 381 L 189 399" stroke-miterlimit="10" stroke-dasharray="3"/></g><g transform="translate(-70,-6) scale(1,1)"><path fill="none" stroke="#000000" d="M 197.79413609682922 392.3921886898576 L 189 399 L 199.89082145494817 400.54596508254247" stroke-miterlimit="10"/></g><g transform="translate(-70,-6) scale(1,1)"><path fill="none" stroke="#000000" d="M 295 335 L 201 293" stroke-miterlimit="10" stroke-dasharray="3"/></g><g transform="translate(-70,-6) scale(1,1)"><path fill="none" stroke="#000000" d="M 211.9958416033466 293.3024358347019 L 201 293 L 208.56137973298803 300.9890885921711" stroke-miterlimit="10"/></g><g transform="translate(-70,-6) scale(1,1)"><path fill="none" stroke="#000000" d="M 461 506 L 559.7099609375 531.3136121961805" stroke-miterlimit="10"/></g><g transform="translate(-70,-6) scale(1,1)"><path fill="none" stroke="#000000" d="M 663 543 L 582.7099609375 535.2285970052084" stroke-miterlimit="10"/></g><g transform="translate(-70,-6) scale(1,1)"><path fill="#C0C0C0" stroke="none" d="M 526.7099609375 290.5 C 526.7099609375 284.1487248 531.8586857375 279 538.2099609375 279 C 544.5612361375 279 549.7099609375 284.1487248 549.7099609375 290.5 C 549.7099609375 296.8512752 544.5612361375 302 538.2099609375 302 C 531.8586857375 302 526.7099609375 296.8512752 526.7099609375 290.5 Z" opacity="0.2"/></g><g transform="translate(-70,-6) scale(1,1)"><path fill="none" stroke="#000000" d="M 519.5397237801839 283.95502301831795 A 11.5 11.5 0 0 1 542.4602762198161 282.04497698168205" stroke-miterlimit="10"/></g><g transform="translate(-70,-6) scale(1,1)"><path fill="#ffffff" stroke="none" d="M 522.7099609375 283.5 C 522.7099609375 278.8055792 526.5155401375 275 531.2099609375 275 C 535.9043817375 275 539.7099609375 278.8055792 539.7099609375 283.5 C 539.7099609375 288.1944208 535.9043817375 292 531.2099609375 292 C 526.5155401375 292 522.7099609375 288.1944208 522.7099609375 283.5 Z"/></g><g transform="translate(-70,-6) scale(1,1)"><path fill="none" stroke="#000000" d="M 522.7099609375 283.5 C 522.7099609375 278.8055792 526.5155401375 275 531.2099609375 275 C 535.9043817375 275 539.7099609375 278.8055792 539.7099609375 283.5 C 539.7099609375 288.1944208 535.9043817375 292 531.2099609375 292 C 526.5155401375 292 522.7099609375 288.1944208 522.7099609375 283.5 Z" stroke-miterlimit="10"/></g><g transform="translate(-70,-6) scale(1,1)"><g><path fill="none" stroke="none"/><text fill="#000000" stroke="none" font-family="Arial" font-size="13px" font-style="normal" font-weight="bold" text-decoration="none" x="531.2099609375" y="314.5"></text></g></g><g transform="translate(-70,-6) scale(1,1)"><path fill="none" stroke="#000000" d="M 415 335 L 519.7099609375 290.8403049045139" stroke-miterlimit="10"/></g><g transform="translate(-70,-6) scale(1,1)"><path fill="none" stroke="#000000" d="M 439 169 L 472 183" stroke-miterlimit="10" stroke-dasharray="3"/></g><g transform="translate(-70,-6) scale(1,1)"><path fill="none" stroke="#000000" d="M 461.0004001559991 182.90617424737457 L 472 183 L 464.28845318589987 175.1557635340371" stroke-miterlimit="10"/></g><g transform="translate(-70,-6) scale(1,1)"><path fill="none" stroke="#000000" d="M 438 119 L 573 61" stroke-miterlimit="10" stroke-dasharray="3"/></g><g transform="translate(-70,-6) scale(1,1)"><path fill="none" stroke="#000000" d="M 565.3242764975017 68.87929366841946 L 573 61 L 562.0009418769708 61.143945844770116" stroke-miterlimit="10"/></g><g transform="translate(-70,-6) scale(1,1)"><rect fill="#C0C0C0" stroke="none" x="609" y="431" width="98.44091796875" height="44" opacity="0.2"/></g><g transform="translate(-70,-6) scale(1,1)"><rect fill="#ff0000" stroke="none" x="602" y="424" width="98.44091796875" height="44"/></g><g transform="translate(-70,-6) scale(1,1)"><path fill="none" stroke="#000000" d="M 602 424 L 700.44091796875 424 L 700.44091796875 468 L 602 468 L 602 424 Z Z" stroke-miterlimit="10"/></g><g transform="translate(-70,-6) scale(1,1)"><rect fill="#ff0000" stroke="none" x="592" y="431" width="20" height="10"/></g><g transform="translate(-70,-6) scale(1,1)"><path fill="none" stroke="#000000" d="M 592 431 L 612 431 L 612 441 L 592 441 L 592 431 Z Z" stroke-miterlimit="10"/></g><g transform="translate(-70,-6) scale(1,1)"><rect fill="#ff0000" stroke="none" x="592" y="451" width="20" height="10"/></g><g transform="translate(-70,-6) scale(1,1)"><path fill="none" stroke="#000000" d="M 592 451 L 612 451 L 612 461 L 592 461 L 592 451 Z Z" stroke-miterlimit="10"/></g><g transform="translate(-70,-6) scale(1,1)"><g><path fill="none" stroke="none"/><text fill="#000000" stroke="none" font-family="Arial" font-size="13px" font-style="normal" font-weight="normal" text-decoration="none" x="641.766845703125" y="441.5">«jar»</text></g></g><g transform="translate(-70,-6) scale(1,1)"><g><path fill="none" stroke="none"/><text fill="#000000" stroke="none" font-family="Arial" font-size="13px" font-style="normal" font-weight="bold" text-decoration="none" x="620.438720703125" y="456.5">Log4j 1.2.17</text></g></g><g transform="translate(-70,-6) scale(1,1)"><rect fill="#C0C0C0" stroke="none" x="121" y="183" width="98.44091796875" height="44" opacity="0.2"/></g><g transform="translate(-70,-6) scale(1,1)"><rect fill="#ff0000" stroke="none" x="114" y="176" width="98.44091796875" height="44"/></g><g transform="translate(-70,-6) scale(1,1)"><path fill="none" stroke="#000000" d="M 114 176 L 212.44091796875 176 L 212.44091796875 220 L 114 220 L 114 176 Z Z" stroke-miterlimit="10"/></g><g transform="translate(-70,-6) scale(1,1)"><rect fill="#ff0000" stroke="none" x="104" y="183" width="20" height="10"/></g><g transform="translate(-70,-6) scale(1,1)"><path fill="none" stroke="#000000" d="M 104 183 L 124 183 L 124 193 L 104 193 L 104 183 Z Z" stroke-miterlimit="10"/></g><g transform="translate(-70,-6) scale(1,1)"><rect fill="#ff0000" stroke="none" x="104" y="203" width="20" height="10"/></g><g transform="translate(-70,-6) scale(1,1)"><path fill="none" stroke="#000000" d="M 104 203 L 124 203 L 124 213 L 104 213 L 104 203 Z Z" stroke-miterlimit="10"/></g><g transform="translate(-70,-6) scale(1,1)"><g><path fill="none" stroke="none"/><text fill="#000000" stroke="none" font-family="Arial" font-size="13px" font-style="normal" font-weight="normal" text-decoration="none" x="153.766845703125" y="193.5">«jar»</text></g></g><g transform="translate(-70,-6) scale(1,1)"><g><path fill="none" stroke="none"/><text fill="#000000" stroke="none" font-family="Arial" font-size="13px" font-style="normal" font-weight="bold" text-decoration="none" x="141.8427734375" y="208.5">Gson 2.5</text></g></g><g transform="translate(-70,-6) scale(1,1)"><path fill="none" stroke="#000000" d="M 424 381 L 591 430" stroke-miterlimit="10" stroke-dasharray="3"/></g><g transform="translate(-70,-6) scale(1,1)"><path fill="none" stroke="#000000" d="M 580.0632578262114 431.1779943225984 L 591 430 L 582.4335876711166 423.09952321853376" stroke-miterlimit="10"/></g><g transform="translate(-70,-6) scale(1,1)"><path fill="none" stroke="#000000" d="M 303 163 L 213 185" stroke-miterlimit="10" stroke-dasharray="3"/></g><g transform="translate(-70,-6) scale(1,1)"><path fill="none" stroke="#000000" d="M 221.87244925946212 178.49772008151987 L 213 185 L 223.87157526062964 186.67596281356882" stroke-miterlimit="10"/></g><g transform="translate(-70,-6) scale(1,1)"><rect fill="#C0C0C0" stroke="none" x="97" y="111" width="98.44091796875" height="44" opacity="0.2"/></g><g transform="translate(-70,-6) scale(1,1)"><rect fill="#ff0000" stroke="none" x="90" y="104" width="98.44091796875" height="44"/></g><g transform="translate(-70,-6) scale(1,1)"><path fill="none" stroke="#000000" d="M 90 104 L 188.44091796875 104 L 188.44091796875 148 L 90 148 L 90 104 Z Z" stroke-miterlimit="10"/></g><g transform="translate(-70,-6) scale(1,1)"><rect fill="#ff0000" stroke="none" x="80" y="111" width="20" height="10"/></g><g transform="translate(-70,-6) scale(1,1)"><path fill="none" stroke="#000000" d="M 80 111 L 100 111 L 100 121 L 80 121 L 80 111 Z Z" stroke-miterlimit="10"/></g><g transform="translate(-70,-6) scale(1,1)"><rect fill="#ff0000" stroke="none" x="80" y="131" width="20" height="10"/></g><g transform="translate(-70,-6) scale(1,1)"><path fill="none" stroke="#000000" d="M 80 131 L 100 131 L 100 141 L 80 141 L 80 131 Z Z" stroke-miterlimit="10"/></g><g transform="translate(-70,-6) scale(1,1)"><g><path fill="none" stroke="none"/><text fill="#000000" stroke="none" font-family="Arial" font-size="13px" font-style="normal" font-weight="normal" text-decoration="none" x="129.766845703125" y="121.5">«jar»</text></g></g><g transform="translate(-70,-6) scale(1,1)"><g><path fill="none" stroke="none"/><text fill="#000000" stroke="none" font-family="Arial" font-size="13px" font-style="normal" font-weight="bold" text-decoration="none" x="117.115966796875" y="136.5">otto 1.3.8</text></g></g><g transform="translate(-70,-6) scale(1,1)"><path fill="none" stroke="#000000" d="M 303 138 L 189 130" stroke-miterlimit="10" stroke-dasharray="3"/></g><g transform="translate(-70,-6) scale(1,1)"><path fill="none" stroke="#000000" d="M 199.43242344471213 126.51222978534697 L 189 130 L 198.84306333196707 134.91061139196384" stroke-miterlimit="10"/></g><g transform="translate(-70,-6) scale(1,1)"><path fill="none" stroke="#000000" d="M 527 229 L 530.0833333333334 272" stroke-miterlimit="10"/></g><g transform="translate(-70,-6) scale(1,1)"><rect fill="#C0C0C0" stroke="none" x="601" y="111" width="120.1435546875" height="44" opacity="0.2"/></g><g transform="translate(-70,-6) scale(1,1)"><rect fill="#ff0000" stroke="none" x="594" y="104" width="120.1435546875" height="44"/></g><g transform="translate(-70,-6) scale(1,1)"><path fill="none" stroke="#000000" d="M 594 104 L 714.1435546875 104 L 714.1435546875 148 L 594 148 L 594 104 Z Z" stroke-miterlimit="10"/></g><g transform="translate(-70,-6) scale(1,1)"><rect fill="#ff0000" stroke="none" x="584" y="111" width="20" height="10"/></g><g transform="translate(-70,-6) scale(1,1)"><path fill="none" stroke="#000000" d="M 584 111 L 604 111 L 604 121 L 584 121 L 584 111 Z Z" stroke-miterlimit="10"/></g><g transform="translate(-70,-6) scale(1,1)"><rect fill="#ff0000" stroke="none" x="584" y="131" width="20" height="10"/></g><g transform="translate(-70,-6) scale(1,1)"><path fill="none" stroke="#000000" d="M 584 131 L 604 131 L 604 141 L 584 141 L 584 131 Z Z" stroke-miterlimit="10"/></g><g transform="translate(-70,-6) scale(1,1)"><g><path fill="none" stroke="none"/><text fill="#000000" stroke="none" font-family="Arial" font-size="13px" font-style="normal" font-weight="normal" text-decoration="none" x="644.6181640625" y="121.5">«jar»</text></g></g><g transform="translate(-70,-6) scale(1,1)"><g><path fill="none" stroke="none"/><text fill="#000000" stroke="none" font-family="Arial" font-size="13px" font-style="normal" font-weight="bold" text-decoration="none" x="611.7373046875" y="136.5">Butterknife 7.0.1</text></g></g><g transform="translate(-70,-6) scale(1,1)"><rect fill="#C0C0C0" stroke="none" x="217" y="31" width="136.78076171875" height="44" opacity="0.2"/></g><g transform="translate(-70,-6) scale(1,1)"><rect fill="#ff0000" stroke="none" x="210" y="24" width="136.78076171875" height="44"/></g><g transform="translate(-70,-6) scale(1,1)"><path fill="none" stroke="#000000" d="M 210 24 L 346.78076171875 24 L 346.78076171875 68 L 210 68 L 210 24 Z Z" stroke-miterlimit="10"/></g><g transform="translate(-70,-6) scale(1,1)"><rect fill="#ff0000" stroke="none" x="200" y="31" width="20" height="10"/></g><g transform="translate(-70,-6) scale(1,1)"><path fill="none" stroke="#000000" d="M 200 31 L 220 31 L 220 41 L 200 41 L 200 31 Z Z" stroke-miterlimit="10"/></g><g transform="translate(-70,-6) scale(1,1)"><rect fill="#ff0000" stroke="none" x="200" y="51" width="20" height="10"/></g><g transform="translate(-70,-6) scale(1,1)"><path fill="none" stroke="#000000" d="M 200 51 L 220 51 L 220 61 L 200 61 L 200 51 Z Z" stroke-miterlimit="10"/></g><g transform="translate(-70,-6) scale(1,1)"><g><path fill="none" stroke="none"/><text fill="#000000" stroke="none" font-family="Arial" font-size="13px" font-style="normal" font-weight="bold" text-decoration="none" x="226.674072265625" y="43.5">Cardview v7-23-1-1</text></g></g><g transform="translate(-70,-6) scale(1,1)"><rect fill="#C0C0C0" stroke="none" x="361" y="471" width="106.419921875" height="44" opacity="0.2"/></g><g transform="translate(-70,-6) scale(1,1)"><rect fill="#ff0000" stroke="none" x="354" y="464" width="106.419921875" height="44"/></g><g transform="translate(-70,-6) scale(1,1)"><path fill="none" stroke="#000000" d="M 354 464 L 460.419921875 464 L 460.419921875 508 L 354 508 L 354 464 Z Z" stroke-miterlimit="10"/></g><g transform="translate(-70,-6) scale(1,1)"><rect fill="#ff0000" stroke="none" x="344" y="471" width="20" height="10"/></g><g transform="translate(-70,-6) scale(1,1)"><path fill="none" stroke="#000000" d="M 344 471 L 364 471 L 364 481 L 344 481 L 344 471 Z Z" stroke-miterlimit="10"/></g><g transform="translate(-70,-6) scale(1,1)"><rect fill="#ff0000" stroke="none" x="344" y="491" width="20" height="10"/></g><g transform="translate(-70,-6) scale(1,1)"><path fill="none" stroke="#000000" d="M 344 491 L 364 491 L 364 501 L 344 501 L 344 491 Z Z" stroke-miterlimit="10"/></g><g transform="translate(-70,-6) scale(1,1)"><g><path fill="none" stroke="none"/><text fill="#000000" stroke="none" font-family="Arial" font-size="13px" font-style="normal" font-weight="bold" text-decoration="none" x="370.658203125" y="483.5">morphia  1.0.1</text></g></g><g transform="translate(-70,-6) scale(1,1)"><path fill="none" stroke="#000000" d="M 353 119 L 298 69" stroke-miterlimit="10" stroke-dasharray="3"/></g><g transform="translate(-70,-6) scale(1,1)"><path fill="none" stroke="#000000" d="M 308.3513984503659 72.72136401360612 L 298 69 L 302.68814230973317 78.95094576830212" stroke-miterlimit="10"/></g><g transform="translate(-70,-6) scale(1,1)"><path fill="none" stroke="#000000" d="M 457 139 L 583 130" stroke-miterlimit="10" stroke-dasharray="3"/></g><g transform="translate(-70,-6) scale(1,1)"><path fill="none" stroke="#000000" d="M 573.1630672716996 134.92288071142212 L 583 130 L 572.5632358277238 126.52524049576192" stroke-miterlimit="10"/></g><g transform="translate(-70,-6) scale(1,1)"><path fill="none" stroke="#000000" d="M 356 381 L 392 463" stroke-miterlimit="10" stroke-dasharray="3"/></g><g transform="translate(-70,-6) scale(1,1)"><path fill="none" stroke="#000000" d="M 384.0602859002599 455.38679173972054 L 392 463 L 391.7691255068204 452.00242313196225" stroke-miterlimit="10"/></g><g transform="translate(-70,-6) scale(1,1)"><rect fill="#C0C0C0" stroke="none" x="569" y="335" width="222.0107421875" height="44" opacity="0.2"/></g><g transform="translate(-70,-6) scale(1,1)"><rect fill="#ff0000" stroke="none" x="562" y="328" width="222.0107421875" height="44"/></g><g transform="translate(-70,-6) scale(1,1)"><path fill="none" stroke="#000000" d="M 562 328 L 784.0107421875 328 L 784.0107421875 372 L 562 372 L 562 328 Z Z" stroke-miterlimit="10"/></g><g transform="translate(-70,-6) scale(1,1)"><rect fill="#ff0000" stroke="none" x="552" y="335" width="20" height="10"/></g><g transform="translate(-70,-6) scale(1,1)"><path fill="none" stroke="#000000" d="M 552 335 L 572 335 L 572 345 L 552 345 L 552 335 Z Z" stroke-miterlimit="10"/></g><g transform="translate(-70,-6) scale(1,1)"><rect fill="#ff0000" stroke="none" x="552" y="355" width="20" height="10"/></g><g transform="translate(-70,-6) scale(1,1)"><path fill="none" stroke="#000000" d="M 552 355 L 572 355 L 572 365 L 552 365 L 552 355 Z Z" stroke-miterlimit="10"/></g><g transform="translate(-70,-6) scale(1,1)"><g><path fill="none" stroke="none"/><text fill="#000000" stroke="none" font-family="Arial" font-size="13px" font-style="normal" font-weight="normal" text-decoration="none" x="663.5517578125" y="345.5">«jar»</text></g></g><g transform="translate(-70,-6) scale(1,1)"><g><path fill="none" stroke="none"/><text fill="#000000" stroke="none" font-family="Arial" font-size="13px" font-style="normal" font-weight="bold" text-decoration="none" x="581.908203125" y="360.5">springframework 4.2.4.RELEASE</text></g></g><g transform="translate(-70,-6) scale(1,1)"><path fill="none" stroke="#000000" d="M 454 355 L 551 353" stroke-miterlimit="10" stroke-dasharray="3"/></g><g transform="translate(-70,-6) scale(1,1)"><path fill="none" stroke="#000000" d="M 540.9262603940535 357.4181184175603 L 551 353 L 540.7527089195856 349.0008719058698" stroke-miterlimit="10"/></g><g transform="translate(-70,-6) scale(1,1)"><rect fill="#C0C0C0" stroke="none" x="329" y="223" width="98.44091796875" height="44" opacity="0.2"/></g><g transform="translate(-70,-6) scale(1,1)"><rect fill="#fb0000" stroke="none" x="322" y="216" width="98.44091796875" height="44"/></g><g transform="translate(-70,-6) scale(1,1)"><path fill="none" stroke="#000000" d="M 322 216 L 420.44091796875 216 L 420.44091796875 260 L 322 260 L 322 216 Z Z" stroke-miterlimit="10"/></g><g transform="translate(-70,-6) scale(1,1)"><rect fill="#fb0000" stroke="none" x="312" y="223" width="20" height="10"/></g><g transform="translate(-70,-6) scale(1,1)"><path fill="none" stroke="#000000" d="M 312 223 L 332 223 L 332 233 L 312 233 L 312 223 Z Z" stroke-miterlimit="10"/></g><g transform="translate(-70,-6) scale(1,1)"><rect fill="#fb0000" stroke="none" x="312" y="243" width="20" height="10"/></g><g transform="translate(-70,-6) scale(1,1)"><path fill="none" stroke="#000000" d="M 312 243 L 332 243 L 332 253 L 312 253 L 312 243 Z Z" stroke-miterlimit="10"/></g><g transform="translate(-70,-6) scale(1,1)"><g><path fill="none" stroke="none"/><text fill="#000000" stroke="none" font-family="Arial" font-size="13px" font-style="normal" font-weight="bold" text-decoration="none" x="358.87548828125" y="235.5">junit 4</text></g></g><g transform="translate(-70,-6) scale(1,1)"><rect fill="#C0C0C0" stroke="none" x="209" y="487" width="98.44091796875" height="44" opacity="0.2"/></g><g transform="translate(-70,-6) scale(1,1)"><rect fill="#ff0000" stroke="none" x="202" y="480" width="98.44091796875" height="44"/></g><g transform="translate(-70,-6) scale(1,1)"><path fill="none" stroke="#000000" d="M 202 480 L 300.44091796875 480 L 300.44091796875 524 L 202 524 L 202 480 Z Z" stroke-miterlimit="10"/></g><g transform="translate(-70,-6) scale(1,1)"><rect fill="#ff0000" stroke="none" x="192" y="487" width="20" height="10"/></g><g transform="translate(-70,-6) scale(1,1)"><path fill="none" stroke="#000000" d="M 192 487 L 212 487 L 212 497 L 192 497 L 192 487 Z Z" stroke-miterlimit="10"/></g><g transform="translate(-70,-6) scale(1,1)"><rect fill="#ff0000" stroke="none" x="192" y="507" width="20" height="10"/></g><g transform="translate(-70,-6) scale(1,1)"><path fill="none" stroke="#000000" d="M 192 507 L 212 507 L 212 517 L 192 517 L 192 507 Z Z" stroke-miterlimit="10"/></g><g transform="translate(-70,-6) scale(1,1)"><g><path fill="none" stroke="none"/><text fill="#000000" stroke="none" font-family="Arial" font-size="13px" font-style="normal" font-weight="bold" text-decoration="none" x="238.87548828125" y="499.5">junit 4</text></g></g><g transform="translate(-70,-6) scale(1,1)"><path fill="none" stroke="#000000" d="M 376 169 L 369 215" stroke-miterlimit="10" stroke-dasharray="3"/></g><g transform="translate(-70,-6) scale(1,1)"><path fill="none" stroke="#000000" d="M 366.3672845505921 204.3196999404301 L 369 215 L 374.69050165001806 205.58627645556012" stroke-miterlimit="10"/></g><g transform="translate(-70,-6) scale(1,1)"><path fill="none" stroke="#000000" d="M 330 381 L 262 479" stroke-miterlimit="10" stroke-dasharray="3"/></g><g transform="translate(-70,-6) scale(1,1)"><path fill="none" stroke="#000000" d="M 264.33506366445675 468.2506987351301 L 262 479 L 271.2520431690463 473.0502355342331" stroke-miterlimit="10"/></g></g></svg>