<svg version="1.1" xmlns="http://www.w3.org/2000/svg" xmlns:xlink="http://www.w3.org/1999/xlink" width="2660" height="2234"><defs/><g><g transform="translate(2,2) scale(1,1)"><path fill="none" stroke="#000000" d="M 8 8 L 2648 8 L 2648 1808 L 8 1808 L 8 8" stroke-miterlimit="10"/></g><g transform="translate(2,2) scale(1,1)"><path fill="#ffffff" stroke="none" d="M 8 8 L 8 30 L 257.4033203125 30 L 268.4033203125 19 L 268.4033203125 8 L 8 8"/></g><g transform="translate(2,2) scale(1,1)"><path fill="none" stroke="#000000" d="M 8 8 L 8 30 L 257.4033203125 30 L 268.4033203125 19 L 268.4033203125 8 L 8 8 L 8 8" stroke-miterlimit="10"/></g><g transform="translate(2,2) scale(1,1)"><g><path fill="none" stroke="none"/><text fill="#000000" stroke="none" font-family="Arial" font-size="13px" font-style="normal" font-weight="normal" text-decoration="none" x="78.97900390625" y="25.5">DS détaillé erreur saisie indep</text></g></g><g transform="translate(2,2) scale(1,1)"><g><path fill="none" stroke="none"/><text fill="#000000" stroke="none" font-family="Arial" font-size="13px" font-style="normal" font-weight="bold" text-decoration="none" x="13" y="25.5">interaction</text></g></g><g transform="translate(2,2) scale(1,1)"><rect fill="#C0C0C0" stroke="none" x="199" y="47" width="162.01904296875" height="39" opacity="0.2"/></g><g transform="translate(2,2) scale(1,1)"><rect fill="#ffffff" stroke="none" x="192" y="40" width="162.01904296875" height="39"/></g><g transform="translate(2,2) scale(1,1)"><path fill="none" stroke="#000000" d="M 192 40 L 354.01904296875 40 L 354.01904296875 79 L 192 79 L 192 40 Z Z" stroke-miterlimit="10"/></g><g transform="translate(2,2) scale(1,1)"><g><path fill="none" stroke="none"/><text fill="#000000" stroke="none" font-family="Arial" font-size="13px" font-style="normal" font-weight="bold" text-decoration="none" x="206.905029296875" y="59.5">ListCustomerFragment</text></g></g><g transform="translate(2,2) scale(1,1)"><path fill="none" stroke="#000000" d="M 274.5 80 L 274.5 1942" stroke-miterlimit="10" stroke-dasharray="3"/></g><g transform="translate(2,2) scale(1,1)"><path fill="#ffffff" stroke="none" d="M 103.0372176846591 47.3 C 103.0372176846591 43.82060576 105.91561940684092 41 109.46630859375 41 C 113.01699778065908 41 115.8953995028409 43.82060576 115.8953995028409 47.3 C 115.8953995028409 50.779394239999995 113.01699778065908 53.6 109.46630859375 53.6 C 105.91561940684092 53.6 103.0372176846591 50.779394239999995 103.0372176846591 47.3 Z"/></g><g transform="translate(2,2) scale(1,1)"><path fill="none" stroke="#000000" d="M 103.0372176846591 47.3 C 103.0372176846591 43.82060576 105.91561940684092 41 109.46630859375 41 C 113.01699778065908 41 115.8953995028409 43.82060576 115.8953995028409 47.3 C 115.8953995028409 50.779394239999995 113.01699778065908 53.6 109.46630859375 53.6 C 105.91561940684092 53.6 103.0372176846591 50.779394239999995 103.0372176846591 47.3 Z" stroke-miterlimit="10"/></g><g transform="translate(2,2) scale(1,1)"><path fill="none" stroke="#000000" d="M 109.46630859375 53.6 L 109.46630859375 66.4" stroke-miterlimit="10"/></g><g transform="translate(2,2) scale(1,1)"><path fill="none" stroke="#000000" d="M 102.65903586647727 58.4 L 116.27358132102273 58.4" stroke-miterlimit="10"/></g><g transform="translate(2,2) scale(1,1)"><path fill="none" stroke="#000000" d="M 109.46630859375 66.4 L 100.01176313920455 79" stroke-miterlimit="10"/></g><g transform="translate(2,2) scale(1,1)"><path fill="none" stroke="#000000" d="M 109.46630859375 66.4 L 118.92085404829545 79" stroke-miterlimit="10"/></g><g transform="translate(2,2) scale(1,1)"><g><path fill="none" stroke="none"/><text fill="#000000" stroke="none" font-family="Arial" font-size="13px" font-style="normal" font-weight="bold" text-decoration="none" x="42.285888671875" y="99.5">Utilisateur: Commercial</text></g></g><g transform="translate(2,2) scale(1,1)"><path fill="none" stroke="#000000" d="M 110.5 105 L 110.5 2222" stroke-miterlimit="10" stroke-dasharray="3"/></g><g transform="translate(2,2) scale(1,1)"><rect fill="#C0C0C0" stroke="none" x="975" y="47" width="153.36083984375" height="39" opacity="0.2"/></g><g transform="translate(2,2) scale(1,1)"><rect fill="#ffffff" stroke="none" x="968" y="40" width="153.36083984375" height="39"/></g><g transform="translate(2,2) scale(1,1)"><path fill="none" stroke="#000000" d="M 968 40 L 1121.36083984375 40 L 1121.36083984375 79 L 968 79 L 968 40 Z Z" stroke-miterlimit="10"/></g><g transform="translate(2,2) scale(1,1)"><g><path fill="none" stroke="none"/><text fill="#000000" stroke="none" font-family="Arial" font-size="13px" font-style="normal" font-weight="bold" text-decoration="none" x="981.089599609375" y="59.5">CreateIndepFragment</text></g></g><g transform="translate(2,2) scale(1,1)"><path fill="none" stroke="#000000" d="M 1045.5 80 L 1045.5 1936" stroke-miterlimit="10" stroke-dasharray="3"/></g><g transform="translate(2,2) scale(1,1)"><rect fill="#C0C0C0" stroke="none" x="407" y="47" width="189.4853515625" height="39" opacity="0.2"/></g><g transform="translate(2,2) scale(1,1)"><rect fill="#ffffff" stroke="none" x="400" y="40" width="189.4853515625" height="39"/></g><g transform="translate(2,2) scale(1,1)"><path fill="none" stroke="#000000" d="M 400 40 L 589.4853515625 40 L 589.4853515625 79 L 400 79 L 400 40 Z Z" stroke-miterlimit="10"/></g><g transform="translate(2,2) scale(1,1)"><g><path fill="none" stroke="none"/><text fill="#000000" stroke="none" font-family="Arial" font-size="13px" font-style="normal" font-weight="bold" text-decoration="none" x="415.266845703125" y="59.5">CreateCustomerAlertDialog</text></g></g><g transform="translate(2,2) scale(1,1)"><path fill="none" stroke="#000000" d="M 495.5 80 L 495.5 984" stroke-miterlimit="10" stroke-dasharray="3"/></g><g transform="translate(2,2) scale(1,1)"><rect fill="#C0C0C0" stroke="none" x="807" y="47" width="74.62451171875" height="39" opacity="0.2"/></g><g transform="translate(2,2) scale(1,1)"><rect fill="#ffffff" stroke="none" x="800" y="40" width="74.62451171875" height="39"/></g><g transform="translate(2,2) scale(1,1)"><path fill="none" stroke="#000000" d="M 800 40 L 874.62451171875 40 L 874.62451171875 79 L 800 79 L 800 40 Z Z" stroke-miterlimit="10"/></g><g transform="translate(2,2) scale(1,1)"><g><path fill="none" stroke="none"/><text fill="#000000" stroke="none" font-family="Arial" font-size="13px" font-style="normal" font-weight="bold" text-decoration="none" x="811.658203125" y="59.5">Validator</text></g></g><g transform="translate(2,2) scale(1,1)"><path fill="none" stroke="#000000" d="M 838.5 80 L 838.5 1782" stroke-miterlimit="10" stroke-dasharray="3"/></g><g transform="translate(2,2) scale(1,1)"><rect fill="#C0C0C0" stroke="none" x="1263" y="47" width="123.025390625" height="39" opacity="0.2"/></g><g transform="translate(2,2) scale(1,1)"><rect fill="#ffffff" stroke="none" x="1256" y="40" width="123.025390625" height="39"/></g><g transform="translate(2,2) scale(1,1)"><path fill="none" stroke="#000000" d="M 1256 40 L 1379.025390625 40 L 1379.025390625 79 L 1256 79 L 1256 40 Z Z" stroke-miterlimit="10"/></g><g transform="translate(2,2) scale(1,1)"><g><path fill="none" stroke="none"/><text fill="#000000" stroke="none" font-family="Arial" font-size="13px" font-style="normal" font-weight="bold" text-decoration="none" x="1299.447265625" y="59.5">Select</text></g></g><g transform="translate(2,2) scale(1,1)"><path fill="none" stroke="#000000" d="M 1318.5 80 L 1318.5 503" stroke-miterlimit="10" stroke-dasharray="3"/></g><g transform="translate(2,2) scale(1,1)"><rect fill="#C0C0C0" stroke="none" x="1711" y="47" width="71.736328125" height="39" opacity="0.2"/></g><g transform="translate(2,2) scale(1,1)"><rect fill="#ffffff" stroke="none" x="1704" y="40" width="71.736328125" height="39"/></g><g transform="translate(2,2) scale(1,1)"><path fill="none" stroke="#000000" d="M 1704 40 L 1775.736328125 40 L 1775.736328125 79 L 1704 79 L 1704 40 Z Z" stroke-miterlimit="10"/></g><g transform="translate(2,2) scale(1,1)"><g><path fill="none" stroke="none"/><text fill="#000000" stroke="none" font-family="Arial" font-size="13px" font-style="normal" font-weight="bold" text-decoration="none" x="1722.88818359375" y="59.5">String</text></g></g><g transform="translate(2,2) scale(1,1)"><path fill="none" stroke="#000000" d="M 1740.5 80 L 1740.5 926" stroke-miterlimit="10" stroke-dasharray="3"/></g><g transform="translate(2,2) scale(1,1)"><rect fill="#C0C0C0" stroke="none" x="1919" y="47" width="112.9072265625" height="39" opacity="0.2"/></g><g transform="translate(2,2) scale(1,1)"><rect fill="#ffffff" stroke="none" x="1912" y="40" width="112.9072265625" height="39"/></g><g transform="translate(2,2) scale(1,1)"><path fill="none" stroke="#000000" d="M 1912 40 L 2024.9072265625 40 L 2024.9072265625 79 L 1912 79 L 1912 40 Z Z" stroke-miterlimit="10"/></g><g transform="translate(2,2) scale(1,1)"><g><path fill="none" stroke="none"/><text fill="#000000" stroke="none" font-family="Arial" font-size="13px" font-style="normal" font-weight="bold" text-decoration="none" x="1925.4609375" y="59.5">ValidationError</text></g></g><g transform="translate(2,2) scale(1,1)"><path fill="none" stroke="#000000" d="M 1969.5 80 L 1969.5 824" stroke-miterlimit="10" stroke-dasharray="3"/></g><g transform="translate(2,2) scale(1,1)"><rect fill="#C0C0C0" stroke="none" x="2087" y="47" width="180.80810546875" height="39" opacity="0.2"/></g><g transform="translate(2,2) scale(1,1)"><rect fill="#ffffff" stroke="none" x="2080" y="40" width="180.80810546875" height="39"/></g><g transform="translate(2,2) scale(1,1)"><path fill="none" stroke="#000000" d="M 2080 40 L 2260.80810546875 40 L 2260.80810546875 79 L 2080 79 L 2080 40 Z Z" stroke-miterlimit="10"/></g><g transform="translate(2,2) scale(1,1)"><g><path fill="none" stroke="none"/><text fill="#000000" stroke="none" font-family="Arial" font-size="13px" font-style="normal" font-weight="bold" text-decoration="none" x="2095.99365234375" y="59.5">ErrorCustomerAlertDialog</text></g></g><g transform="translate(2,2) scale(1,1)"><path fill="none" stroke="#000000" d="M 2171.5 80 L 2171.5 1283" stroke-miterlimit="10" stroke-dasharray="3"/></g><g transform="translate(2,2) scale(1,1)"><rect fill="#C0C0C0" stroke="none" x="2343" y="47" width="216.2216796875" height="39" opacity="0.2"/></g><g transform="translate(2,2) scale(1,1)"><rect fill="#ffffff" stroke="none" x="2336" y="40" width="216.2216796875" height="39"/></g><g transform="translate(2,2) scale(1,1)"><path fill="none" stroke="#000000" d="M 2336 40 L 2552.2216796875 40 L 2552.2216796875 79 L 2336 79 L 2336 40 Z Z" stroke-miterlimit="10"/></g><g transform="translate(2,2) scale(1,1)"><g><path fill="none" stroke="none"/><text fill="#000000" stroke="none" font-family="Arial" font-size="13px" font-style="normal" font-weight="bold" text-decoration="none" x="2352.707763671875" y="59.5">DialogInterface.OnClickListener</text></g></g><g transform="translate(2,2) scale(1,1)"><path fill="none" stroke="#000000" d="M 2445.5 80 L 2445.5 1512" stroke-miterlimit="10" stroke-dasharray="3"/></g><g transform="translate(2,2) scale(1,1)"><path fill="none" stroke="#000000" d="M 992 728 L 2160 728 L 2160 904 L 992 904 L 992 728" stroke-miterlimit="10"/></g><g transform="translate(2,2) scale(1,1)"><path fill="#ffffff" stroke="none" d="M 992 728 L 992 750 L 1248.58251953125 750 L 1259.58251953125 739 L 1259.58251953125 728 L 992 728"/></g><g transform="translate(2,2) scale(1,1)"><path fill="none" stroke="#000000" d="M 992 728 L 992 750 L 1248.58251953125 750 L 1259.58251953125 739 L 1259.58251953125 728 L 992 728 L 992 728" stroke-miterlimit="10"/></g><g transform="translate(2,2) scale(1,1)"><g><path fill="none" stroke="none"/><text fill="#000000" stroke="none" font-family="Arial" font-size="13px" font-style="normal" font-weight="normal" text-decoration="none" x="1027.578125" y="745.5">               ValidationError error : errors</text></g></g><g transform="translate(2,2) scale(1,1)"><g><path fill="none" stroke="none"/><text fill="#000000" stroke="none" font-family="Arial" font-size="13px" font-style="normal" font-weight="bold" text-decoration="none" x="997" y="745.5">loop</text></g></g><g transform="translate(2,2) scale(1,1)"><path fill="none" stroke="#000000" d="M 110 120 L 267 120" stroke-miterlimit="10"/></g><g transform="translate(2,2) scale(1,1)"><path fill="#000000" stroke="none" d="M 256.83732514237585 124.20951775601598 L 267 120 L 256.83732514237585 115.79048224398402"/></g><g transform="translate(2,2) scale(1,1)"><path fill="none" stroke="#000000" d="M 256.83732514237585 124.20951775601598 L 267 120 L 256.83732514237585 115.79048224398402 L 256.83732514237585 124.20951775601598" stroke-miterlimit="10"/></g><g transform="translate(2,2) scale(1,1)"><g><path fill="none" stroke="none"/><text fill="#000000" stroke="none" font-family="Arial" font-size="13px" font-style="normal" font-weight="normal" text-decoration="none" x="141" y="117">1 : ListCustomer</text></g></g><g transform="translate(2,2) scale(1,1)"><rect fill="#ffffff" stroke="none" x="267" y="120" width="13" height="28"/></g><g transform="translate(2,2) scale(1,1)"><path fill="none" stroke="#000000" d="M 267 120 L 280 120 L 280 148 L 267 148 L 267 120 Z Z" stroke-miterlimit="10"/></g><g transform="translate(2,2) scale(1,1)"><path fill="none" stroke="#000000" d="M 267 137 L 110 137" stroke-miterlimit="10" stroke-dasharray="3"/></g><g transform="translate(2,2) scale(1,1)"><path fill="none" stroke="#000000" d="M 120.16267485762415 132.790482243984 L 110 137 L 120.16267485762415 141.209517756016" stroke-miterlimit="10"/></g><g transform="translate(2,2) scale(1,1)"><g><path fill="none" stroke="none"/><text fill="#000000" stroke="none" font-family="Arial" font-size="13px" font-style="normal" font-weight="normal" text-decoration="none" x="126" y="154">2 : ListCustomerView</text></g></g><g transform="translate(2,2) scale(1,1)"><path fill="none" stroke="#000000" d="M 110 184 L 267 184" stroke-miterlimit="10"/></g><g transform="translate(2,2) scale(1,1)"><path fill="#000000" stroke="none" d="M 256.83732514237585 188.209517756016 L 267 184 L 256.83732514237585 179.790482243984"/></g><g transform="translate(2,2) scale(1,1)"><path fill="none" stroke="#000000" d="M 256.83732514237585 188.209517756016 L 267 184 L 256.83732514237585 179.790482243984 L 256.83732514237585 188.209517756016" stroke-miterlimit="10"/></g><g transform="translate(2,2) scale(1,1)"><g><path fill="none" stroke="none"/><text fill="#000000" stroke="none" font-family="Arial" font-size="13px" font-style="normal" font-weight="normal" text-decoration="none" x="112" y="181">3 : onOptionsItemSelected</text></g></g><g transform="translate(2,2) scale(1,1)"><rect fill="#ffffff" stroke="none" x="267" y="184" width="13" height="224"/></g><g transform="translate(2,2) scale(1,1)"><path fill="none" stroke="#000000" d="M 267 184 L 280 184 L 280 408 L 267 408 L 267 184 Z Z" stroke-miterlimit="10"/></g><g transform="translate(2,2) scale(1,1)"><path fill="none" stroke="#000000" d="M 280 208 L 488 208" stroke-miterlimit="10"/></g><g transform="translate(2,2) scale(1,1)"><path fill="#000000" stroke="none" d="M 477.83732514237585 212.209517756016 L 488 208 L 477.83732514237585 203.790482243984"/></g><g transform="translate(2,2) scale(1,1)"><path fill="none" stroke="#000000" d="M 477.83732514237585 212.209517756016 L 488 208 L 477.83732514237585 203.790482243984 L 477.83732514237585 212.209517756016" stroke-miterlimit="10"/></g><g transform="translate(2,2) scale(1,1)"><g><path fill="none" stroke="none"/><text fill="#000000" stroke="none" font-family="Arial" font-size="13px" font-style="normal" font-weight="normal" text-decoration="none" x="282" y="205">4 : new CreateCustomerAlertDialog</text></g></g><g transform="translate(2,2) scale(1,1)"><rect fill="#ffffff" stroke="none" x="488" y="208" width="13" height="144"/></g><g transform="translate(2,2) scale(1,1)"><path fill="none" stroke="#000000" d="M 488 208 L 501 208 L 501 352 L 488 352 L 488 208 Z Z" stroke-miterlimit="10"/></g><g transform="translate(2,2) scale(1,1)"><path fill="none" stroke="#000000" d="M 488 224 L 280 224" stroke-miterlimit="10" stroke-dasharray="3"/></g><g transform="translate(2,2) scale(1,1)"><path fill="none" stroke="#000000" d="M 290.16267485762415 219.790482243984 L 280 224 L 290.16267485762415 228.209517756016" stroke-miterlimit="10"/></g><g transform="translate(2,2) scale(1,1)"><g><path fill="none" stroke="none"/><text fill="#000000" stroke="none" font-family="Arial" font-size="13px" font-style="normal" font-weight="normal" text-decoration="none" x="295" y="241">5 : CreateCustomerAlertDialog</text></g></g><g transform="translate(2,2) scale(1,1)"><path fill="none" stroke="#000000" d="M 280 264 L 495 264" stroke-miterlimit="10"/></g><g transform="translate(2,2) scale(1,1)"><path fill="#000000" stroke="none" d="M 484.83732514237585 268.209517756016 L 495 264 L 484.83732514237585 259.790482243984"/></g><g transform="translate(2,2) scale(1,1)"><path fill="none" stroke="#000000" d="M 484.83732514237585 268.209517756016 L 495 264 L 484.83732514237585 259.790482243984 L 484.83732514237585 268.209517756016" stroke-miterlimit="10"/></g><g transform="translate(2,2) scale(1,1)"><g><path fill="none" stroke="none"/><text fill="#000000" stroke="none" font-family="Arial" font-size="13px" font-style="normal" font-weight="normal" text-decoration="none" x="248" y="260">6 : show(FragmentManager fm, String name)</text></g></g><g transform="translate(2,2) scale(1,1)"><rect fill="#ffffff" stroke="none" x="495" y="264" width="13" height="28"/></g><g transform="translate(2,2) scale(1,1)"><path fill="none" stroke="#000000" d="M 495 264 L 508 264 L 508 292 L 495 292 L 495 264 Z Z" stroke-miterlimit="10"/></g><g transform="translate(2,2) scale(1,1)"><path fill="none" stroke="#000000" d="M 495 280 L 110 280" stroke-miterlimit="10" stroke-dasharray="3"/></g><g transform="translate(2,2) scale(1,1)"><path fill="none" stroke="#000000" d="M 120.16267485762415 275.790482243984 L 110 280 L 120.16267485762415 284.209517756016" stroke-miterlimit="10"/></g><g transform="translate(2,2) scale(1,1)"><g><path fill="none" stroke="none"/><text fill="#000000" stroke="none" font-family="Arial" font-size="13px" font-style="normal" font-weight="normal" text-decoration="none" x="218" y="297">7 : CustomerAlertDialogView</text></g></g><g transform="translate(2,2) scale(1,1)"><path fill="none" stroke="#000000" d="M 110 320 L 495 320" stroke-miterlimit="10"/></g><g transform="translate(2,2) scale(1,1)"><path fill="#000000" stroke="none" d="M 484.83732514237585 324.209517756016 L 495 320 L 484.83732514237585 315.790482243984"/></g><g transform="translate(2,2) scale(1,1)"><path fill="none" stroke="#000000" d="M 484.83732514237585 324.209517756016 L 495 320 L 484.83732514237585 315.790482243984 L 484.83732514237585 324.209517756016" stroke-miterlimit="10"/></g><g transform="translate(2,2) scale(1,1)"><g><path fill="none" stroke="none"/><text fill="#000000" stroke="none" font-family="Arial" font-size="13px" font-style="normal" font-weight="normal" text-decoration="none" x="175" y="315">8 : onClick(DialogInterface dialog, int which)</text></g></g><g transform="translate(2,2) scale(1,1)"><rect fill="#ffffff" stroke="none" x="495" y="320" width="13" height="28"/></g><g transform="translate(2,2) scale(1,1)"><path fill="none" stroke="#000000" d="M 495 320 L 508 320 L 508 348 L 495 348 L 495 320 Z Z" stroke-miterlimit="10"/></g><g transform="translate(2,2) scale(1,1)"><path fill="none" stroke="#000000" d="M 495 352 L 287 352" stroke-miterlimit="10"/></g><g transform="translate(2,2) scale(1,1)"><path fill="#000000" stroke="none" d="M 297.16267485762415 347.790482243984 L 287 352 L 297.16267485762415 356.209517756016"/></g><g transform="translate(2,2) scale(1,1)"><path fill="none" stroke="#000000" d="M 297.16267485762415 347.790482243984 L 287 352 L 297.16267485762415 356.209517756016 L 297.16267485762415 347.790482243984" stroke-miterlimit="10"/></g><g transform="translate(2,2) scale(1,1)"><g><path fill="none" stroke="none"/><text fill="#000000" stroke="none" font-family="Arial" font-size="13px" font-style="normal" font-weight="normal" text-decoration="none" x="200" y="348">9 : onActivityResult(int requestCode, int resultCode, Intent data)</text></g></g><g transform="translate(2,2) scale(1,1)"><rect fill="#ffffff" stroke="none" x="274" y="352" width="13" height="38"/></g><g transform="translate(2,2) scale(1,1)"><path fill="none" stroke="#000000" d="M 274 352 L 287 352 L 287 390 L 274 390 L 274 352 Z Z" stroke-miterlimit="10"/></g><g transform="translate(2,2) scale(1,1)"><path fill="none" stroke="#000000" d="M 287 384 L 1038 384" stroke-miterlimit="10"/></g><g transform="translate(2,2) scale(1,1)"><path fill="#000000" stroke="none" d="M 1027.837325142376 388.209517756016 L 1038 384 L 1027.837325142376 379.790482243984"/></g><g transform="translate(2,2) scale(1,1)"><path fill="none" stroke="#000000" d="M 1027.837325142376 388.209517756016 L 1038 384 L 1027.837325142376 379.790482243984 L 1027.837325142376 388.209517756016" stroke-miterlimit="10"/></g><g transform="translate(2,2) scale(1,1)"><g><path fill="none" stroke="none"/><text fill="#000000" stroke="none" font-family="Arial" font-size="13px" font-style="normal" font-weight="normal" text-decoration="none" x="573" y="381">10 : new CreateIndepFragment</text></g></g><g transform="translate(2,2) scale(1,1)"><rect fill="#ffffff" stroke="none" x="1038" y="384" width="13" height="896"/></g><g transform="translate(2,2) scale(1,1)"><path fill="none" stroke="#000000" d="M 1038 384 L 1051 384 L 1051 1280 L 1038 1280 L 1038 384 Z Z" stroke-miterlimit="10"/></g><g transform="translate(2,2) scale(1,1)"><path fill="none" stroke="#000000" d="M 1051 392 L 1081 392 L 1081 412 L 1058 412" stroke-miterlimit="10"/></g><g transform="translate(2,2) scale(1,1)"><path fill="#000000" stroke="none" d="M 1068.162674857624 407.790482243984 L 1058 412 L 1068.162674857624 416.209517756016"/></g><g transform="translate(2,2) scale(1,1)"><path fill="none" stroke="#000000" d="M 1068.162674857624 407.790482243984 L 1058 412 L 1068.162674857624 416.209517756016 L 1068.162674857624 407.790482243984" stroke-miterlimit="10"/></g><g transform="translate(2,2) scale(1,1)"><g><path fill="none" stroke="none"/><text fill="#000000" stroke="none" font-family="Arial" font-size="13px" font-style="normal" font-weight="normal" text-decoration="none" x="1047" y="408">11 : initSpinner</text></g></g><g transform="translate(2,2) scale(1,1)"><rect fill="#ffffff" stroke="none" x="1045" y="412" width="13" height="92"/></g><g transform="translate(2,2) scale(1,1)"><path fill="none" stroke="#000000" d="M 1045 412 L 1058 412 L 1058 504 L 1045 504 L 1045 412 Z Z" stroke-miterlimit="10"/></g><g transform="translate(2,2) scale(1,1)"><path fill="none" stroke="#000000" d="M 1058 416 L 1311 416" stroke-miterlimit="10"/></g><g transform="translate(2,2) scale(1,1)"><path fill="#000000" stroke="none" d="M 1300.837325142376 420.209517756016 L 1311 416 L 1300.837325142376 411.790482243984"/></g><g transform="translate(2,2) scale(1,1)"><path fill="none" stroke="#000000" d="M 1300.837325142376 420.209517756016 L 1311 416 L 1300.837325142376 411.790482243984 L 1300.837325142376 420.209517756016" stroke-miterlimit="10"/></g><g transform="translate(2,2) scale(1,1)"><g><path fill="none" stroke="none"/><text fill="#000000" stroke="none" font-family="Arial" font-size="13px" font-style="normal" font-weight="normal" text-decoration="none" x="1127" y="405">12 : new Select(Company_table.NAME).from(Company.class).queryList()</text></g></g><g transform="translate(2,2) scale(1,1)"><rect fill="#ffffff" stroke="none" x="1311" y="416" width="13" height="28"/></g><g transform="translate(2,2) scale(1,1)"><path fill="none" stroke="#000000" d="M 1311 416 L 1324 416 L 1324 444 L 1311 444 L 1311 416 Z Z" stroke-miterlimit="10"/></g><g transform="translate(2,2) scale(1,1)"><path fill="none" stroke="#000000" d="M 1311 433 L 1058 433" stroke-miterlimit="10" stroke-dasharray="3"/></g><g transform="translate(2,2) scale(1,1)"><path fill="none" stroke="#000000" d="M 1068.162674857624 428.790482243984 L 1058 433 L 1068.162674857624 437.209517756016" stroke-miterlimit="10"/></g><g transform="translate(2,2) scale(1,1)"><g><path fill="none" stroke="none"/><text fill="#000000" stroke="none" font-family="Arial" font-size="13px" font-style="normal" font-weight="normal" text-decoration="none" x="1130" y="428">13 : List&lt;Holding&gt;</text></g></g><g transform="translate(2,2) scale(1,1)"><path fill="none" stroke="#000000" d="M 1058 461 L 1311 461" stroke-miterlimit="10"/></g><g transform="translate(2,2) scale(1,1)"><path fill="#000000" stroke="none" d="M 1300.837325142376 465.209517756016 L 1311 461 L 1300.837325142376 456.790482243984"/></g><g transform="translate(2,2) scale(1,1)"><path fill="none" stroke="#000000" d="M 1300.837325142376 465.209517756016 L 1311 461 L 1300.837325142376 456.790482243984 L 1300.837325142376 465.209517756016" stroke-miterlimit="10"/></g><g transform="translate(2,2) scale(1,1)"><g><path fill="none" stroke="none"/><text fill="#000000" stroke="none" font-family="Arial" font-size="13px" font-style="normal" font-weight="normal" text-decoration="none" x="1082" y="458">14 : new Select(Specialty_Table.NAME).from(PurchasingCentral.class).queryList();</text></g></g><g transform="translate(2,2) scale(1,1)"><rect fill="#ffffff" stroke="none" x="1311" y="461" width="13" height="28"/></g><g transform="translate(2,2) scale(1,1)"><path fill="none" stroke="#000000" d="M 1311 461 L 1324 461 L 1324 489 L 1311 489 L 1311 461 Z Z" stroke-miterlimit="10"/></g><g transform="translate(2,2) scale(1,1)"><path fill="none" stroke="#000000" d="M 1038 512 L 844 512" stroke-miterlimit="10"/></g><g transform="translate(2,2) scale(1,1)"><path fill="#000000" stroke="none" d="M 854.1626748576241 507.790482243984 L 844 512 L 854.1626748576241 516.209517756016"/></g><g transform="translate(2,2) scale(1,1)"><path fill="none" stroke="#000000" d="M 854.1626748576241 507.790482243984 L 844 512 L 854.1626748576241 516.209517756016 L 854.1626748576241 507.790482243984" stroke-miterlimit="10"/></g><g transform="translate(2,2) scale(1,1)"><g><path fill="none" stroke="none"/><text fill="#000000" stroke="none" font-family="Arial" font-size="13px" font-style="normal" font-weight="normal" text-decoration="none" x="675" y="508">15 : new Validator(int siretNumber, new QuickRule&lt;EditText&gt;)</text></g></g><g transform="translate(2,2) scale(1,1)"><rect fill="#ffffff" stroke="none" x="831" y="512" width="13" height="240"/></g><g transform="translate(2,2) scale(1,1)"><path fill="none" stroke="#000000" d="M 831 512 L 844 512 L 844 752 L 831 752 L 831 512 Z Z" stroke-miterlimit="10"/></g><g transform="translate(2,2) scale(1,1)"><path fill="none" stroke="#000000" d="M 844 534 L 1038 534" stroke-miterlimit="10" stroke-dasharray="3"/></g><g transform="translate(2,2) scale(1,1)"><path fill="none" stroke="#000000" d="M 1027.837325142376 538.209517756016 L 1038 534 L 1027.837325142376 529.790482243984" stroke-miterlimit="10"/></g><g transform="translate(2,2) scale(1,1)"><g><path fill="none" stroke="none"/><text fill="#000000" stroke="none" font-family="Arial" font-size="13px" font-style="normal" font-weight="normal" text-decoration="none" x="903" y="531">16 : Validator</text></g></g><g transform="translate(2,2) scale(1,1)"><path fill="none" stroke="#000000" d="M 1038 568 L 110 568" stroke-miterlimit="10" stroke-dasharray="3"/></g><g transform="translate(2,2) scale(1,1)"><path fill="none" stroke="#000000" d="M 120.16267485762415 563.790482243984 L 110 568 L 120.16267485762415 572.209517756016" stroke-miterlimit="10"/></g><g transform="translate(2,2) scale(1,1)"><g><path fill="none" stroke="none"/><text fill="#000000" stroke="none" font-family="Arial" font-size="13px" font-style="normal" font-weight="normal" text-decoration="none" x="493" y="564">17 : IndepFragmentView</text></g></g><g transform="translate(2,2) scale(1,1)"><path fill="none" stroke="#000000" d="M 110 632 L 1045 632" stroke-miterlimit="10"/></g><g transform="translate(2,2) scale(1,1)"><path fill="#000000" stroke="none" d="M 1034.837325142376 636.209517756016 L 1045 632 L 1034.837325142376 627.790482243984"/></g><g transform="translate(2,2) scale(1,1)"><path fill="none" stroke="#000000" d="M 1034.837325142376 636.209517756016 L 1045 632 L 1034.837325142376 627.790482243984 L 1034.837325142376 636.209517756016" stroke-miterlimit="10"/></g><g transform="translate(2,2) scale(1,1)"><g><path fill="none" stroke="none"/><text fill="#000000" stroke="none" font-family="Arial" font-size="13px" font-style="normal" font-weight="normal" text-decoration="none" x="493" y="629">18 : insertIndep(final View view)</text></g></g><g transform="translate(2,2) scale(1,1)"><rect fill="#ffffff" stroke="none" x="1045" y="632" width="13" height="632"/></g><g transform="translate(2,2) scale(1,1)"><path fill="none" stroke="#000000" d="M 1045 632 L 1058 632 L 1058 1264 L 1045 1264 L 1045 632 Z Z" stroke-miterlimit="10"/></g><g transform="translate(2,2) scale(1,1)"><path fill="none" stroke="#000000" d="M 1045 640 L 851 640" stroke-miterlimit="10"/></g><g transform="translate(2,2) scale(1,1)"><path fill="#000000" stroke="none" d="M 861.1626748576241 635.790482243984 L 851 640 L 861.1626748576241 644.209517756016"/></g><g transform="translate(2,2) scale(1,1)"><path fill="none" stroke="#000000" d="M 861.1626748576241 635.790482243984 L 851 640 L 861.1626748576241 644.209517756016 L 861.1626748576241 635.790482243984" stroke-miterlimit="10"/></g><g transform="translate(2,2) scale(1,1)"><g><path fill="none" stroke="none"/><text fill="#000000" stroke="none" font-family="Arial" font-size="13px" font-style="normal" font-weight="normal" text-decoration="none" x="897" y="657">19 : validate(true)</text></g></g><g transform="translate(2,2) scale(1,1)"><rect fill="#ffffff" stroke="none" x="838" y="640" width="13" height="56"/></g><g transform="translate(2,2) scale(1,1)"><path fill="none" stroke="#000000" d="M 838 640 L 851 640 L 851 696 L 838 696 L 838 640 Z Z" stroke-miterlimit="10"/></g><g transform="translate(2,2) scale(1,1)"><path fill="none" stroke="#000000" d="M 851 680 L 1052 680" stroke-miterlimit="10"/></g><g transform="translate(2,2) scale(1,1)"><path fill="#000000" stroke="none" d="M 1041.837325142376 684.209517756016 L 1052 680 L 1041.837325142376 675.790482243984"/></g><g transform="translate(2,2) scale(1,1)"><path fill="none" stroke="#000000" d="M 1041.837325142376 684.209517756016 L 1052 680 L 1041.837325142376 675.790482243984 L 1041.837325142376 684.209517756016" stroke-miterlimit="10"/></g><g transform="translate(2,2) scale(1,1)"><g><path fill="none" stroke="none"/><text fill="#000000" stroke="none" font-family="Arial" font-size="13px" font-style="normal" font-weight="normal" text-decoration="none" x="868" y="677">20 : onValidationFailed(errors:List&lt;ValidationError&gt;)</text></g></g><g transform="translate(2,2) scale(1,1)"><rect fill="#ffffff" stroke="none" x="1052" y="680" width="13" height="568"/></g><g transform="translate(2,2) scale(1,1)"><path fill="none" stroke="#000000" d="M 1052 680 L 1065 680 L 1065 1248 L 1052 1248 L 1052 680 Z Z" stroke-miterlimit="10"/></g><g transform="translate(2,2) scale(1,1)"><path fill="none" stroke="#000000" d="M 1065 696 L 1733 696" stroke-miterlimit="10"/></g><g transform="translate(2,2) scale(1,1)"><path fill="#000000" stroke="none" d="M 1722.837325142376 700.209517756016 L 1733 696 L 1722.837325142376 691.790482243984"/></g><g transform="translate(2,2) scale(1,1)"><path fill="none" stroke="#000000" d="M 1722.837325142376 700.209517756016 L 1733 696 L 1722.837325142376 691.790482243984 L 1722.837325142376 700.209517756016" stroke-miterlimit="10"/></g><g transform="translate(2,2) scale(1,1)"><g><path fill="none" stroke="none"/><text fill="#000000" stroke="none" font-family="Arial" font-size="13px" font-style="normal" font-weight="normal" text-decoration="none" x="1356" y="693">21 : new String</text></g></g><g transform="translate(2,2) scale(1,1)"><rect fill="#ffffff" stroke="none" x="1733" y="696" width="13" height="216"/></g><g transform="translate(2,2) scale(1,1)"><path fill="none" stroke="#000000" d="M 1733 696 L 1746 696 L 1746 912 L 1733 912 L 1733 696 Z Z" stroke-miterlimit="10"/></g><g transform="translate(2,2) scale(1,1)"><path fill="none" stroke="#000000" d="M 1733 714 L 1065 714" stroke-miterlimit="10" stroke-dasharray="3"/></g><g transform="translate(2,2) scale(1,1)"><path fill="none" stroke="#000000" d="M 1075.162674857624 709.790482243984 L 1065 714 L 1075.162674857624 718.209517756016" stroke-miterlimit="10"/></g><g transform="translate(2,2) scale(1,1)"><g><path fill="none" stroke="none"/><text fill="#000000" stroke="none" font-family="Arial" font-size="13px" font-style="normal" font-weight="normal" text-decoration="none" x="1363" y="709">22 : errorString</text></g></g><g transform="translate(2,2) scale(1,1)"><path fill="none" stroke="#000000" d="M 1065 768 L 1962 768" stroke-miterlimit="10"/></g><g transform="translate(2,2) scale(1,1)"><path fill="#000000" stroke="none" d="M 1951.837325142376 772.209517756016 L 1962 768 L 1951.837325142376 763.790482243984"/></g><g transform="translate(2,2) scale(1,1)"><path fill="none" stroke="#000000" d="M 1951.837325142376 772.209517756016 L 1962 768 L 1951.837325142376 763.790482243984 L 1951.837325142376 772.209517756016" stroke-miterlimit="10"/></g><g transform="translate(2,2) scale(1,1)"><g><path fill="none" stroke="none"/><text fill="#000000" stroke="none" font-family="Arial" font-size="13px" font-style="normal" font-weight="normal" text-decoration="none" x="1427" y="765">23 : getCollatedErrorMessage</text></g></g><g transform="translate(2,2) scale(1,1)"><rect fill="#ffffff" stroke="none" x="1962" y="768" width="13" height="28"/></g><g transform="translate(2,2) scale(1,1)"><path fill="none" stroke="#000000" d="M 1962 768 L 1975 768 L 1975 796 L 1962 796 L 1962 768 Z Z" stroke-miterlimit="10"/></g><g transform="translate(2,2) scale(1,1)"><path fill="none" stroke="#000000" d="M 1962 794 L 1065 794" stroke-miterlimit="10" stroke-dasharray="3"/></g><g transform="translate(2,2) scale(1,1)"><path fill="none" stroke="#000000" d="M 1075.162674857624 789.790482243984 L 1065 794 L 1075.162674857624 798.209517756016" stroke-miterlimit="10"/></g><g transform="translate(2,2) scale(1,1)"><g><path fill="none" stroke="none"/><text fill="#000000" stroke="none" font-family="Arial" font-size="13px" font-style="normal" font-weight="normal" text-decoration="none" x="1420" y="811">24 : collatedErrorMessageString</text></g></g><g transform="translate(2,2) scale(1,1)"><path fill="none" stroke="#000000" d="M 1065 840 L 1740 840" stroke-miterlimit="10"/></g><g transform="translate(2,2) scale(1,1)"><path fill="#000000" stroke="none" d="M 1729.837325142376 844.209517756016 L 1740 840 L 1729.837325142376 835.790482243984"/></g><g transform="translate(2,2) scale(1,1)"><path fill="none" stroke="#000000" d="M 1729.837325142376 844.209517756016 L 1740 840 L 1729.837325142376 835.790482243984 L 1729.837325142376 844.209517756016" stroke-miterlimit="10"/></g><g transform="translate(2,2) scale(1,1)"><g><path fill="none" stroke="none"/><text fill="#000000" stroke="none" font-family="Arial" font-size="13px" font-style="normal" font-weight="normal" text-decoration="none" x="1254" y="837">25 : concat(errorString,collatedErrorMessageString)</text></g></g><g transform="translate(2,2) scale(1,1)"><rect fill="#ffffff" stroke="none" x="1740" y="840" width="13" height="28"/></g><g transform="translate(2,2) scale(1,1)"><path fill="none" stroke="#000000" d="M 1740 840 L 1753 840 L 1753 868 L 1740 868 L 1740 840 Z Z" stroke-miterlimit="10"/></g><g transform="translate(2,2) scale(1,1)"><path fill="none" stroke="#000000" d="M 1740 864 L 1065 864" stroke-miterlimit="10" stroke-dasharray="3"/></g><g transform="translate(2,2) scale(1,1)"><path fill="none" stroke="#000000" d="M 1075.162674857624 859.790482243984 L 1065 864 L 1075.162674857624 868.209517756016" stroke-miterlimit="10"/></g><g transform="translate(2,2) scale(1,1)"><g><path fill="none" stroke="none"/><text fill="#000000" stroke="none" font-family="Arial" font-size="13px" font-style="normal" font-weight="normal" text-decoration="none" x="1357" y="860">26 : errorString</text></g></g><g transform="translate(2,2) scale(1,1)"><path fill="none" stroke="#000000" d="M 1065 944 L 2164 944" stroke-miterlimit="10"/></g><g transform="translate(2,2) scale(1,1)"><path fill="#000000" stroke="none" d="M 2153.837325142376 948.209517756016 L 2164 944 L 2153.837325142376 939.790482243984"/></g><g transform="translate(2,2) scale(1,1)"><path fill="none" stroke="#000000" d="M 2153.837325142376 948.209517756016 L 2164 944 L 2153.837325142376 939.790482243984 L 2153.837325142376 948.209517756016" stroke-miterlimit="10"/></g><g transform="translate(2,2) scale(1,1)"><g><path fill="none" stroke="none"/><text fill="#000000" stroke="none" font-family="Arial" font-size="13px" font-style="normal" font-weight="normal" text-decoration="none" x="1508" y="941">27 : new ErrorCustomerAlertDialog(activity)</text></g></g><g transform="translate(2,2) scale(1,1)"><rect fill="#ffffff" stroke="none" x="2164" y="944" width="13" height="311"/></g><g transform="translate(2,2) scale(1,1)"><path fill="none" stroke="#000000" d="M 2164 944 L 2177 944 L 2177 1255 L 2164 1255 L 2164 944 Z Z" stroke-miterlimit="10"/></g><g transform="translate(2,2) scale(1,1)"><path fill="none" stroke="#000000" d="M 2164 964 L 1065 964" stroke-miterlimit="10" stroke-dasharray="3"/></g><g transform="translate(2,2) scale(1,1)"><path fill="none" stroke="#000000" d="M 1075.162674857624 959.790482243984 L 1065 964 L 1075.162674857624 968.209517756016" stroke-miterlimit="10"/></g><g transform="translate(2,2) scale(1,1)"><g><path fill="none" stroke="none"/><text fill="#000000" stroke="none" font-family="Arial" font-size="13px" font-style="normal" font-weight="normal" text-decoration="none" x="1570" y="981">28 : alertDialog</text></g></g><g transform="translate(2,2) scale(1,1)"><path fill="none" stroke="#000000" d="M 1065 1000 L 2171 1000" stroke-miterlimit="10"/></g><g transform="translate(2,2) scale(1,1)"><path fill="#000000" stroke="none" d="M 2160.837325142376 1004.209517756016 L 2171 1000 L 2160.837325142376 995.790482243984"/></g><g transform="translate(2,2) scale(1,1)"><path fill="none" stroke="#000000" d="M 2160.837325142376 1004.209517756016 L 2171 1000 L 2160.837325142376 995.790482243984 L 2160.837325142376 1004.209517756016" stroke-miterlimit="10"/></g><g transform="translate(2,2) scale(1,1)"><g><path fill="none" stroke="none"/><text fill="#000000" stroke="none" font-family="Arial" font-size="13px" font-style="normal" font-weight="normal" text-decoration="none" x="1478" y="997">29 : setTitle("Erreur dans le format des champs")</text></g></g><g transform="translate(2,2) scale(1,1)"><rect fill="#ffffff" stroke="none" x="2171" y="1000" width="13" height="28"/></g><g transform="translate(2,2) scale(1,1)"><path fill="none" stroke="#000000" d="M 2171 1000 L 2184 1000 L 2184 1028 L 2171 1028 L 2171 1000 Z Z" stroke-miterlimit="10"/></g><g transform="translate(2,2) scale(1,1)"><path fill="none" stroke="#000000" d="M 1065 1048 L 2171 1048" stroke-miterlimit="10"/></g><g transform="translate(2,2) scale(1,1)"><path fill="#000000" stroke="none" d="M 2160.837325142376 1052.2095177560159 L 2171 1048 L 2160.837325142376 1043.7904822439841"/></g><g transform="translate(2,2) scale(1,1)"><path fill="none" stroke="#000000" d="M 2160.837325142376 1052.2095177560159 L 2171 1048 L 2160.837325142376 1043.7904822439841 L 2160.837325142376 1052.2095177560159" stroke-miterlimit="10"/></g><g transform="translate(2,2) scale(1,1)"><g><path fill="none" stroke="none"/><text fill="#000000" stroke="none" font-family="Arial" font-size="13px" font-style="normal" font-weight="normal" text-decoration="none" x="1536" y="1045">30 : setMessage(errorString)</text></g></g><g transform="translate(2,2) scale(1,1)"><rect fill="#ffffff" stroke="none" x="2171" y="1048" width="13" height="28"/></g><g transform="translate(2,2) scale(1,1)"><path fill="none" stroke="#000000" d="M 2171 1048 L 2184 1048 L 2184 1076 L 2171 1076 L 2171 1048 Z Z" stroke-miterlimit="10"/></g><g transform="translate(2,2) scale(1,1)"><path fill="none" stroke="#000000" d="M 1065 1099 L 2438 1099" stroke-miterlimit="10"/></g><g transform="translate(2,2) scale(1,1)"><path fill="#000000" stroke="none" d="M 2427.837325142376 1103.2095177560159 L 2438 1099 L 2427.837325142376 1094.7904822439841"/></g><g transform="translate(2,2) scale(1,1)"><path fill="none" stroke="#000000" d="M 2427.837325142376 1103.2095177560159 L 2438 1099 L 2427.837325142376 1094.7904822439841 L 2427.837325142376 1103.2095177560159" stroke-miterlimit="10"/></g><g transform="translate(2,2) scale(1,1)"><g><path fill="none" stroke="none"/><text fill="#000000" stroke="none" font-family="Arial" font-size="13px" font-style="normal" font-weight="normal" text-decoration="none" x="1634" y="1096">31 : new DialogInterface.OnClickListener</text></g></g><g transform="translate(2,2) scale(1,1)"><rect fill="#ffffff" stroke="none" x="2438" y="1099" width="13" height="28"/></g><g transform="translate(2,2) scale(1,1)"><path fill="none" stroke="#000000" d="M 2438 1099 L 2451 1099 L 2451 1127 L 2438 1127 L 2438 1099 Z Z" stroke-miterlimit="10"/></g><g transform="translate(2,2) scale(1,1)"><path fill="none" stroke="#000000" d="M 2438 1120 L 1065 1120" stroke-miterlimit="10" stroke-dasharray="3"/></g><g transform="translate(2,2) scale(1,1)"><path fill="none" stroke="#000000" d="M 1075.162674857624 1115.7904822439841 L 1065 1120 L 1075.162674857624 1124.2095177560159" stroke-miterlimit="10"/></g><g transform="translate(2,2) scale(1,1)"><g><path fill="none" stroke="none"/><text fill="#000000" stroke="none" font-family="Arial" font-size="13px" font-style="normal" font-weight="normal" text-decoration="none" x="1697" y="1137">32 : dialogListener</text></g></g><g transform="translate(2,2) scale(1,1)"><path fill="none" stroke="#000000" d="M 1065 1160 L 2171 1160" stroke-miterlimit="10"/></g><g transform="translate(2,2) scale(1,1)"><path fill="#000000" stroke="none" d="M 2160.837325142376 1164.2095177560159 L 2171 1160 L 2160.837325142376 1155.7904822439841"/></g><g transform="translate(2,2) scale(1,1)"><path fill="none" stroke="#000000" d="M 2160.837325142376 1164.2095177560159 L 2171 1160 L 2160.837325142376 1155.7904822439841 L 2160.837325142376 1164.2095177560159" stroke-miterlimit="10"/></g><g transform="translate(2,2) scale(1,1)"><g><path fill="none" stroke="none"/><text fill="#000000" stroke="none" font-family="Arial" font-size="13px" font-style="normal" font-weight="normal" text-decoration="none" x="1422" y="1157">33 : setButton(AlertDialog.BUTTON_NEUTRAL,"OK",dialogListener)</text></g></g><g transform="translate(2,2) scale(1,1)"><rect fill="#ffffff" stroke="none" x="2171" y="1160" width="13" height="28"/></g><g transform="translate(2,2) scale(1,1)"><path fill="none" stroke="#000000" d="M 2171 1160 L 2184 1160 L 2184 1188 L 2171 1188 L 2171 1160 Z Z" stroke-miterlimit="10"/></g><g transform="translate(2,2) scale(1,1)"><path fill="none" stroke="#000000" d="M 1065 1224 L 2171 1224" stroke-miterlimit="10"/></g><g transform="translate(2,2) scale(1,1)"><path fill="#000000" stroke="none" d="M 2160.837325142376 1228.2095177560159 L 2171 1224 L 2160.837325142376 1219.7904822439841"/></g><g transform="translate(2,2) scale(1,1)"><path fill="none" stroke="#000000" d="M 2160.837325142376 1228.2095177560159 L 2171 1224 L 2160.837325142376 1219.7904822439841 L 2160.837325142376 1228.2095177560159" stroke-miterlimit="10"/></g><g transform="translate(2,2) scale(1,1)"><g><path fill="none" stroke="none"/><text fill="#000000" stroke="none" font-family="Arial" font-size="13px" font-style="normal" font-weight="normal" text-decoration="none" x="1591" y="1221">34 : show</text></g></g><g transform="translate(2,2) scale(1,1)"><rect fill="#ffffff" stroke="none" x="2171" y="1224" width="13" height="28"/></g><g transform="translate(2,2) scale(1,1)"><path fill="none" stroke="#000000" d="M 2171 1224 L 2184 1224 L 2184 1252 L 2171 1252 L 2171 1224 Z Z" stroke-miterlimit="10"/></g><g transform="translate(2,2) scale(1,1)"><path fill="none" stroke="#000000" d="M 2164 1253 L 110 1253" stroke-miterlimit="10" stroke-dasharray="3"/></g><g transform="translate(2,2) scale(1,1)"><path fill="none" stroke="#000000" d="M 120.16267485762415 1248.7904822439841 L 110 1253 L 120.16267485762415 1257.2095177560159" stroke-miterlimit="10"/></g><g transform="translate(2,2) scale(1,1)"><g><path fill="none" stroke="none"/><text fill="#000000" stroke="none" font-family="Arial" font-size="13px" font-style="normal" font-weight="normal" text-decoration="none" x="1065" y="1270">35 : errorMessageDialog</text></g></g></g></svg>