<svg version="1.1" xmlns="http://www.w3.org/2000/svg" xmlns:xlink="http://www.w3.org/1999/xlink" width="784.28271484375" height="472"><defs/><g><g transform="translate(-30,-102) scale(1,1)"><rect fill="#C0C0C0" stroke="none" x="71" y="191" width="95.9599609375" height="44" opacity="0.2"/></g><g transform="translate(-30,-102) scale(1,1)"><rect fill="#d10000" stroke="none" x="64" y="184" width="95.9599609375" height="44"/></g><g transform="translate(-30,-102) scale(1,1)"><path fill="none" stroke="#000000" d="M 64 184 L 159.9599609375 184 L 159.9599609375 228 L 64 228 L 64 184 Z Z" stroke-miterlimit="10"/></g><g transform="translate(-30,-102) scale(1,1)"><path fill="none" stroke="#000000" d="M 64 209 L 159.9599609375 209" stroke-miterlimit="10"/></g><g transform="translate(-30,-102) scale(1,1)"><path fill="none" stroke="#000000" d="M 64 219 L 159.9599609375 219" stroke-miterlimit="10"/></g><g transform="translate(-30,-102) scale(1,1)"><g><path fill="none" stroke="none"/><text fill="#000000" stroke="none" font-family="Arial" font-size="13px" font-style="normal" font-weight="bold" text-decoration="none" x="91.39453125" y="203.5">Activity</text></g></g><g transform="translate(-30,-102) scale(1,1)"><rect fill="#C0C0C0" stroke="none" x="391" y="335" width="154.208984375" height="44" opacity="0.2"/></g><g transform="translate(-30,-102) scale(1,1)"><rect fill="#ffffff" stroke="none" x="384" y="328" width="154.208984375" height="44"/></g><g transform="translate(-30,-102) scale(1,1)"><path fill="none" stroke="#000000" d="M 384 328 L 538.208984375 328 L 538.208984375 372 L 384 372 L 384 328 Z Z" stroke-miterlimit="10"/></g><g transform="translate(-30,-102) scale(1,1)"><path fill="none" stroke="#000000" d="M 384 353 L 538.208984375 353" stroke-miterlimit="10"/></g><g transform="translate(-30,-102) scale(1,1)"><path fill="none" stroke="#000000" d="M 384 363 L 538.208984375 363" stroke-miterlimit="10"/></g><g transform="translate(-30,-102) scale(1,1)"><g><path fill="none" stroke="none"/><text fill="#000000" stroke="none" font-family="Arial" font-size="13px" font-style="normal" font-weight="bold" text-decoration="none" x="393.924072265625" y="347.5">NormalizeDemoActivity</text></g></g><g transform="translate(-30,-102) scale(1,1)"><path fill="none" stroke="#000000" d="M 405 327 L 161 227" stroke-miterlimit="10"/></g><g transform="translate(-30,-102) scale(1,1)"><path fill="#FFFFFF" stroke="none" d="M 182.9998459553854 226.91767175872164 L 161 227 L 176.61445511780357 242.49802540242138"/></g><g transform="translate(-30,-102) scale(1,1)"><path fill="none" stroke="#000000" d="M 182.9998459553854 226.91767175872164 L 161 227 L 176.61445511780357 242.49802540242138 L 182.9998459553854 226.91767175872164" stroke-miterlimit="10"/></g><g transform="translate(-30,-102) scale(1,1)"><rect fill="#C0C0C0" stroke="none" x="407" y="119" width="133.24267578125" height="44" opacity="0.2"/></g><g transform="translate(-30,-102) scale(1,1)"><rect fill="#ffffff" stroke="none" x="400" y="112" width="133.24267578125" height="44"/></g><g transform="translate(-30,-102) scale(1,1)"><path fill="none" stroke="#000000" d="M 400 112 L 533.24267578125 112 L 533.24267578125 156 L 400 156 L 400 112 Z Z" stroke-miterlimit="10"/></g><g transform="translate(-30,-102) scale(1,1)"><path fill="none" stroke="#000000" d="M 400 137 L 533.24267578125 137" stroke-miterlimit="10"/></g><g transform="translate(-30,-102) scale(1,1)"><path fill="none" stroke="#000000" d="M 400 147 L 533.24267578125 147" stroke-miterlimit="10"/></g><g transform="translate(-30,-102) scale(1,1)"><g><path fill="none" stroke="none"/><text fill="#000000" stroke="none" font-family="Arial" font-size="13px" font-style="normal" font-weight="bold" text-decoration="none" x="409.187744140625" y="131.5">ControllerNormalize</text></g></g><g transform="translate(-30,-102) scale(1,1)"><rect fill="#C0C0C0" stroke="none" x="367" y="199" width="50.919921875" height="44" opacity="0.2"/></g><g transform="translate(-30,-102) scale(1,1)"><rect fill="#ffffff" stroke="none" x="360" y="192" width="50.919921875" height="44"/></g><g transform="translate(-30,-102) scale(1,1)"><path fill="none" stroke="#000000" d="M 360 192 L 410.919921875 192 L 410.919921875 236 L 360 236 L 360 192 Z Z" stroke-miterlimit="10"/></g><g transform="translate(-30,-102) scale(1,1)"><path fill="none" stroke="#000000" d="M 360 217 L 410.919921875 217" stroke-miterlimit="10"/></g><g transform="translate(-30,-102) scale(1,1)"><path fill="none" stroke="#000000" d="M 360 227 L 410.919921875 227" stroke-miterlimit="10"/></g><g transform="translate(-30,-102) scale(1,1)"><g><path fill="none" stroke="none"/><text fill="#000000" stroke="none" font-family="Arial" font-size="13px" font-style="normal" font-weight="bold" text-decoration="none" x="380.765869140625" y="211.5">R</text></g></g><g transform="translate(-30,-102) scale(1,1)"><rect fill="#C0C0C0" stroke="none" x="743" y="199" width="57.38818359375" height="44" opacity="0.2"/></g><g transform="translate(-30,-102) scale(1,1)"><rect fill="#ffffff" stroke="none" x="736" y="192" width="57.38818359375" height="44"/></g><g transform="translate(-30,-102) scale(1,1)"><path fill="none" stroke="#000000" d="M 736 192 L 793.38818359375 192 L 793.38818359375 236 L 736 236 L 736 192 Z Z" stroke-miterlimit="10"/></g><g transform="translate(-30,-102) scale(1,1)"><path fill="none" stroke="#000000" d="M 736 217 L 793.38818359375 217" stroke-miterlimit="10"/></g><g transform="translate(-30,-102) scale(1,1)"><path fill="none" stroke="#000000" d="M 736 227 L 793.38818359375 227" stroke-miterlimit="10"/></g><g transform="translate(-30,-102) scale(1,1)"><g><path fill="none" stroke="none"/><text fill="#000000" stroke="none" font-family="Arial" font-size="13px" font-style="normal" font-weight="bold" text-decoration="none" x="742.293212890625" y="211.5">Context</text></g></g><g transform="translate(-30,-102) scale(1,1)"><rect fill="#C0C0C0" stroke="none" x="119" y="391" width="61.01904296875" height="44" opacity="0.2"/></g><g transform="translate(-30,-102) scale(1,1)"><rect fill="#ffffff" stroke="none" x="112" y="384" width="61.01904296875" height="44"/></g><g transform="translate(-30,-102) scale(1,1)"><path fill="none" stroke="#000000" d="M 112 384 L 173.01904296875 384 L 173.01904296875 428 L 112 428 L 112 384 Z Z" stroke-miterlimit="10"/></g><g transform="translate(-30,-102) scale(1,1)"><path fill="none" stroke="#000000" d="M 112 409 L 173.01904296875 409" stroke-miterlimit="10"/></g><g transform="translate(-30,-102) scale(1,1)"><path fill="none" stroke="#000000" d="M 112 419 L 173.01904296875 419" stroke-miterlimit="10"/></g><g transform="translate(-30,-102) scale(1,1)"><g><path fill="none" stroke="none"/><text fill="#000000" stroke="none" font-family="Arial" font-size="13px" font-style="normal" font-weight="bold" text-decoration="none" x="118.66455078125" y="403.5">Address</text></g></g><g transform="translate(-30,-102) scale(1,1)"><rect fill="#C0C0C0" stroke="none" x="735" y="271" width="69.68359375" height="44" opacity="0.2"/></g><g transform="translate(-30,-102) scale(1,1)"><rect fill="#ffffff" stroke="none" x="728" y="264" width="69.68359375" height="44"/></g><g transform="translate(-30,-102) scale(1,1)"><path fill="none" stroke="#000000" d="M 728 264 L 797.68359375 264 L 797.68359375 308 L 728 308 L 728 264 Z Z" stroke-miterlimit="10"/></g><g transform="translate(-30,-102) scale(1,1)"><path fill="none" stroke="#000000" d="M 728 289 L 797.68359375 289" stroke-miterlimit="10"/></g><g transform="translate(-30,-102) scale(1,1)"><path fill="none" stroke="#000000" d="M 728 299 L 797.68359375 299" stroke-miterlimit="10"/></g><g transform="translate(-30,-102) scale(1,1)"><g><path fill="none" stroke="none"/><text fill="#000000" stroke="none" font-family="Arial" font-size="13px" font-style="normal" font-weight="bold" text-decoration="none" x="734.29638671875" y="283.5">Geocoder</text></g></g><g transform="translate(-30,-102) scale(1,1)"><rect fill="#C0C0C0" stroke="none" x="687" y="127" width="59.5654296875" height="44" opacity="0.2"/></g><g transform="translate(-30,-102) scale(1,1)"><rect fill="#ffffff" stroke="none" x="680" y="120" width="59.5654296875" height="44"/></g><g transform="translate(-30,-102) scale(1,1)"><path fill="none" stroke="#000000" d="M 680 120 L 739.5654296875 120 L 739.5654296875 164 L 680 164 L 680 120 Z Z" stroke-miterlimit="10"/></g><g transform="translate(-30,-102) scale(1,1)"><path fill="none" stroke="#000000" d="M 680 145 L 739.5654296875 145" stroke-miterlimit="10"/></g><g transform="translate(-30,-102) scale(1,1)"><path fill="none" stroke="#000000" d="M 680 155 L 739.5654296875 155" stroke-miterlimit="10"/></g><g transform="translate(-30,-102) scale(1,1)"><g><path fill="none" stroke="none"/><text fill="#000000" stroke="none" font-family="Arial" font-size="13px" font-style="normal" font-weight="bold" text-decoration="none" x="686.293212890625" y="139.5">Editable</text></g></g><g transform="translate(-30,-102) scale(1,1)"><rect fill="#C0C0C0" stroke="none" x="47" y="479" width="191.7998046875" height="44" opacity="0.2"/></g><g transform="translate(-30,-102) scale(1,1)"><rect fill="#ffffff" stroke="none" x="40" y="472" width="191.7998046875" height="44"/></g><g transform="translate(-30,-102) scale(1,1)"><path fill="none" stroke="#000000" d="M 40 472 L 231.7998046875 472 L 231.7998046875 516 L 40 516 L 40 472 Z Z" stroke-miterlimit="10"/></g><g transform="translate(-30,-102) scale(1,1)"><path fill="none" stroke="#000000" d="M 40 497 L 231.7998046875 497" stroke-miterlimit="10"/></g><g transform="translate(-30,-102) scale(1,1)"><path fill="none" stroke="#000000" d="M 40 507 L 231.7998046875 507" stroke-miterlimit="10"/></g><g transform="translate(-30,-102) scale(1,1)"><g><path fill="none" stroke="none"/><text fill="#000000" stroke="none" font-family="Arial" font-size="13px" font-style="normal" font-weight="bold" text-decoration="none" x="50.99365234375" y="491.5">SpellCheckerSessionListener</text></g></g><g transform="translate(-30,-102) scale(1,1)"><rect fill="#C0C0C0" stroke="none" x="223" y="151" width="80.55078125" height="44" opacity="0.2"/></g><g transform="translate(-30,-102) scale(1,1)"><rect fill="#ffffff" stroke="none" x="216" y="144" width="80.55078125" height="44"/></g><g transform="translate(-30,-102) scale(1,1)"><path fill="none" stroke="#000000" d="M 216 144 L 296.55078125 144 L 296.55078125 188 L 216 188 L 216 144 Z Z" stroke-miterlimit="10"/></g><g transform="translate(-30,-102) scale(1,1)"><path fill="none" stroke="#000000" d="M 216 169 L 296.55078125 169" stroke-miterlimit="10"/></g><g transform="translate(-30,-102) scale(1,1)"><path fill="none" stroke="#000000" d="M 216 179 L 296.55078125 179" stroke-miterlimit="10"/></g><g transform="translate(-30,-102) scale(1,1)"><g><path fill="none" stroke="none"/><text fill="#000000" stroke="none" font-family="Arial" font-size="13px" font-style="normal" font-weight="bold" text-decoration="none" x="223.04541015625" y="163.5">Textservice</text></g></g><g transform="translate(-30,-102) scale(1,1)"><rect fill="#C0C0C0" stroke="none" x="119" y="303" width="92.08447265625" height="44" opacity="0.2"/></g><g transform="translate(-30,-102) scale(1,1)"><rect fill="#ffffff" stroke="none" x="112" y="296" width="92.08447265625" height="44"/></g><g transform="translate(-30,-102) scale(1,1)"><path fill="none" stroke="#000000" d="M 112 296 L 204.08447265625 296 L 204.08447265625 340 L 112 340 L 112 296 Z Z" stroke-miterlimit="10"/></g><g transform="translate(-30,-102) scale(1,1)"><path fill="none" stroke="#000000" d="M 112 321 L 204.08447265625 321" stroke-miterlimit="10"/></g><g transform="translate(-30,-102) scale(1,1)"><path fill="none" stroke="#000000" d="M 112 331 L 204.08447265625 331" stroke-miterlimit="10"/></g><g transform="translate(-30,-102) scale(1,1)"><g><path fill="none" stroke="none"/><text fill="#000000" stroke="none" font-family="Arial" font-size="13px" font-style="normal" font-weight="bold" text-decoration="none" x="119.746826171875" y="315.5">ArrayAdapter</text></g></g><g transform="translate(-30,-102) scale(1,1)"><rect fill="#C0C0C0" stroke="none" x="663" y="431" width="50.919921875" height="44" opacity="0.2"/></g><g transform="translate(-30,-102) scale(1,1)"><rect fill="#ffffff" stroke="none" x="656" y="424" width="50.919921875" height="44"/></g><g transform="translate(-30,-102) scale(1,1)"><path fill="none" stroke="#000000" d="M 656 424 L 706.919921875 424 L 706.919921875 468 L 656 468 L 656 424 Z Z" stroke-miterlimit="10"/></g><g transform="translate(-30,-102) scale(1,1)"><path fill="none" stroke="#000000" d="M 656 449 L 706.919921875 449" stroke-miterlimit="10"/></g><g transform="translate(-30,-102) scale(1,1)"><path fill="none" stroke="#000000" d="M 656 459 L 706.919921875 459" stroke-miterlimit="10"/></g><g transform="translate(-30,-102) scale(1,1)"><g><path fill="none" stroke="none"/><text fill="#000000" stroke="none" font-family="Arial" font-size="13px" font-style="normal" font-weight="bold" text-decoration="none" x="662.667724609375" y="443.5">Button</text></g></g><g transform="translate(-30,-102) scale(1,1)"><rect fill="#C0C0C0" stroke="none" x="751" y="343" width="60.28271484375" height="44" opacity="0.2"/></g><g transform="translate(-30,-102) scale(1,1)"><rect fill="#ffffff" stroke="none" x="744" y="336" width="60.28271484375" height="44"/></g><g transform="translate(-30,-102) scale(1,1)"><path fill="none" stroke="#000000" d="M 744 336 L 804.28271484375 336 L 804.28271484375 380 L 744 380 L 744 336 Z Z" stroke-miterlimit="10"/></g><g transform="translate(-30,-102) scale(1,1)"><path fill="none" stroke="#000000" d="M 744 361 L 804.28271484375 361" stroke-miterlimit="10"/></g><g transform="translate(-30,-102) scale(1,1)"><path fill="none" stroke="#000000" d="M 744 371 L 804.28271484375 371" stroke-miterlimit="10"/></g><g transform="translate(-30,-102) scale(1,1)"><g><path fill="none" stroke="none"/><text fill="#000000" stroke="none" font-family="Arial" font-size="13px" font-style="normal" font-weight="bold" text-decoration="none" x="750.299560546875" y="355.5">EditText</text></g></g><g transform="translate(-30,-102) scale(1,1)"><rect fill="#C0C0C0" stroke="none" x="399" y="511" width="61.736328125" height="44" opacity="0.2"/></g><g transform="translate(-30,-102) scale(1,1)"><rect fill="#ffffff" stroke="none" x="392" y="504" width="61.736328125" height="44"/></g><g transform="translate(-30,-102) scale(1,1)"><path fill="none" stroke="#000000" d="M 392 504 L 453.736328125 504 L 453.736328125 548 L 392 548 L 392 504 Z Z" stroke-miterlimit="10"/></g><g transform="translate(-30,-102) scale(1,1)"><path fill="none" stroke="#000000" d="M 392 529 L 453.736328125 529" stroke-miterlimit="10"/></g><g transform="translate(-30,-102) scale(1,1)"><path fill="none" stroke="#000000" d="M 392 539 L 453.736328125 539" stroke-miterlimit="10"/></g><g transform="translate(-30,-102) scale(1,1)"><g><path fill="none" stroke="none"/><text fill="#000000" stroke="none" font-family="Arial" font-size="13px" font-style="normal" font-weight="bold" text-decoration="none" x="398.66455078125" y="523.5">ListView</text></g></g><g transform="translate(-30,-102) scale(1,1)"><rect fill="#C0C0C0" stroke="none" x="583" y="527" width="65.3544921875" height="44" opacity="0.2"/></g><g transform="translate(-30,-102) scale(1,1)"><rect fill="#ffffff" stroke="none" x="576" y="520" width="65.3544921875" height="44"/></g><g transform="translate(-30,-102) scale(1,1)"><path fill="none" stroke="#000000" d="M 576 520 L 641.3544921875 520 L 641.3544921875 564 L 576 564 L 576 520 Z Z" stroke-miterlimit="10"/></g><g transform="translate(-30,-102) scale(1,1)"><path fill="none" stroke="#000000" d="M 576 545 L 641.3544921875 545" stroke-miterlimit="10"/></g><g transform="translate(-30,-102) scale(1,1)"><path fill="none" stroke="#000000" d="M 576 555 L 641.3544921875 555" stroke-miterlimit="10"/></g><g transform="translate(-30,-102) scale(1,1)"><g><path fill="none" stroke="none"/><text fill="#000000" stroke="none" font-family="Arial" font-size="13px" font-style="normal" font-weight="bold" text-decoration="none" x="581.947265625" y="539.5">TextView</text></g></g><g transform="translate(-30,-102) scale(1,1)"><rect fill="#C0C0C0" stroke="none" x="263" y="527" width="50.919921875" height="44" opacity="0.2"/></g><g transform="translate(-30,-102) scale(1,1)"><rect fill="#ffffff" stroke="none" x="256" y="520" width="50.919921875" height="44"/></g><g transform="translate(-30,-102) scale(1,1)"><path fill="none" stroke="#000000" d="M 256 520 L 306.919921875 520 L 306.919921875 564 L 256 564 L 256 520 Z Z" stroke-miterlimit="10"/></g><g transform="translate(-30,-102) scale(1,1)"><path fill="none" stroke="#000000" d="M 256 545 L 306.919921875 545" stroke-miterlimit="10"/></g><g transform="translate(-30,-102) scale(1,1)"><path fill="none" stroke="#000000" d="M 256 555 L 306.919921875 555" stroke-miterlimit="10"/></g><g transform="translate(-30,-102) scale(1,1)"><g><path fill="none" stroke="none"/><text fill="#000000" stroke="none" font-family="Arial" font-size="13px" font-style="normal" font-weight="bold" text-decoration="none" x="265.20361328125" y="539.5">Toast</text></g></g><g transform="translate(-30,-102) scale(1,1)"><path fill="none" stroke="#000000" d="M 435 327 L 282 189" stroke-miterlimit="10" stroke-dasharray="3"/></g><g transform="translate(-30,-102) scale(1,1)"><path fill="none" stroke="#000000" d="M 292.3658981906526 192.68078180567997 L 282 189 L 286.72709112883547 198.9325026785642" stroke-miterlimit="10"/></g><g transform="translate(-30,-102) scale(1,1)"><path fill="none" stroke="#000000" d="M 479 373 L 590 519" stroke-miterlimit="10" stroke-dasharray="3"/></g><g transform="translate(-30,-102) scale(1,1)"><path fill="none" stroke="#000000" d="M 580.4983140685592 513.4576210468555 L 590 519 L 587.2003471868475 508.36223970349926" stroke-miterlimit="10"/></g><g transform="translate(-30,-102) scale(1,1)"><path fill="none" stroke="#000000" d="M 456 373 L 427 503" stroke-miterlimit="10" stroke-dasharray="3"/></g><g transform="translate(-30,-102) scale(1,1)"><path fill="none" stroke="#000000" d="M 425.10413992388067 492.1646082409644 L 427 503 L 433.32120347362206 493.99764549436827" stroke-miterlimit="10"/></g><g transform="translate(-30,-102) scale(1,1)"><path fill="none" stroke="#000000" d="M 439 373 L 303 519" stroke-miterlimit="10" stroke-dasharray="3"/></g><g transform="translate(-30,-102) scale(1,1)"><path fill="none" stroke="#000000" d="M 306.8467213833377 508.6945288997071 L 303 519 L 313.0071112738325 514.4329742771542" stroke-miterlimit="10"/></g><g transform="translate(-30,-102) scale(1,1)"><path fill="none" stroke="#000000" d="M 514 373 L 655 435" stroke-miterlimit="10" stroke-dasharray="3"/></g><g transform="translate(-30,-102) scale(1,1)"><path fill="none" stroke="#000000" d="M 644.0025588799939 434.76274736671934 L 655 435 L 647.3913977541911 427.05587186249676" stroke-miterlimit="10"/></g><g transform="translate(-30,-102) scale(1,1)"><path fill="none" stroke="#000000" d="M 383 342 L 205 323" stroke-miterlimit="10" stroke-dasharray="3"/></g><g transform="translate(-30,-102) scale(1,1)"><path fill="none" stroke="#000000" d="M 215.55206181882002 319.8929127189922 L 205 323 L 214.6584769537264 328.26439198144817" stroke-miterlimit="10"/></g><g transform="translate(-30,-102) scale(1,1)"><path fill="none" stroke="#000000" d="M 488 327 L 682 165" stroke-miterlimit="10" stroke-dasharray="3"/></g><g transform="translate(-30,-102) scale(1,1)"><path fill="none" stroke="#000000" d="M 676.8975552456077 174.74500166897752 L 682 165 L 671.5012699507313 168.2827834763477" stroke-miterlimit="10"/></g><g transform="translate(-30,-102) scale(1,1)"><path fill="none" stroke="#000000" d="M 539 333 L 727 293" stroke-miterlimit="10" stroke-dasharray="3"/></g><g transform="translate(-30,-102) scale(1,1)"><path fill="none" stroke="#000000" d="M 717.9358602919502 299.2322846014086 L 727 293 L 716.1837946428752 290.9975760507562" stroke-miterlimit="10"/></g><g transform="translate(-30,-102) scale(1,1)"><path fill="none" stroke="#000000" d="M 512 327 L 735 227" stroke-miterlimit="10" stroke-dasharray="3"/></g><g transform="translate(-30,-102) scale(1,1)"><path fill="none" stroke="#000000" d="M 727.4494223676988 234.99929855791078 L 735 227 L 724.0045770992899 227.31729360935887" stroke-miterlimit="10"/></g><g transform="translate(-30,-102) scale(1,1)"><path fill="none" stroke="#000000" d="M 539 352 L 743 357" stroke-miterlimit="10" stroke-dasharray="3"/></g><g transform="translate(-30,-102) scale(1,1)"><path fill="none" stroke="#000000" d="M 732.7372328033354 360.9592435473287 L 743 357 L 732.9435197608144 352.5427356821848" stroke-miterlimit="10"/></g><g transform="translate(-30,-102) scale(1,1)"><path fill="none" stroke="#000000" d="M 462 327 L 465 157" stroke-miterlimit="10"/></g><g transform="translate(-30,-102) scale(1,1)"><path fill="none" stroke="#000000" d="M 469.0295490454078 167.23536684690163 L 465 157 L 460.61182414975553 167.08681876050775" stroke-miterlimit="10"/></g><g transform="translate(-30,-102) scale(1,1)"><path fill="none" stroke="#000000" d="M 448 327 L 398 237" stroke-miterlimit="10" stroke-dasharray="3"/></g><g transform="translate(-30,-102) scale(1,1)"><path fill="none" stroke="#000000" d="M 406.61521178185615 243.83945362976948 L 398 237 L 399.2556506310878 247.92809871352966" stroke-miterlimit="10"/></g><g transform="translate(-30,-102) scale(1,1)"><path fill="none" stroke="#000000" d="M 383 364 L 174 400" stroke-miterlimit="10" stroke-dasharray="3"/></g><g transform="translate(-30,-102) scale(1,1)"><path fill="none" stroke="#000000" d="M 183.30062579901931 394.12646956706476 L 174 400 L 184.72974877039917 402.42332237313104" stroke-miterlimit="10"/></g><g transform="translate(-30,-102) scale(1,1)"><path fill="none" stroke="#000000" d="M 409 373 L 187 471" stroke-miterlimit="10" stroke-dasharray="3"/></g><g transform="translate(-30,-102) scale(1,1)"><path fill="none" stroke="#000000" d="M 194.59711743497667 463.04488801592504 L 187 471 L 197.99708688478034 470.74685962670475" stroke-miterlimit="10"/></g></g></svg>