<svg version="1.1" xmlns="http://www.w3.org/2000/svg" xmlns:xlink="http://www.w3.org/1999/xlink" width="662.919921875" height="448"><defs/><g><g transform="translate(-262,-22) scale(1,1)"><rect fill="#C0C0C0" stroke="none" x="279" y="191" width="80" height="44" opacity="0.2"/></g><g transform="translate(-262,-22) scale(1,1)"><rect fill="#d10000" stroke="none" x="272" y="184" width="80" height="44"/></g><g transform="translate(-262,-22) scale(1,1)"><path fill="none" stroke="#000000" d="M 272 184 L 352 184 L 352 228 L 272 228 L 272 184 Z Z" stroke-miterlimit="10"/></g><g transform="translate(-262,-22) scale(1,1)"><path fill="none" stroke="#000000" d="M 272 209 L 352 209" stroke-miterlimit="10"/></g><g transform="translate(-262,-22) scale(1,1)"><path fill="none" stroke="#000000" d="M 272 219 L 352 219" stroke-miterlimit="10"/></g><g transform="translate(-262,-22) scale(1,1)"><g><path fill="none" stroke="none"/><text fill="#000000" stroke="none" font-family="Arial" font-size="13px" font-style="normal" font-weight="bold" text-decoration="none" x="291.41455078125" y="203.5">Activity</text></g></g><g transform="translate(-262,-22) scale(1,1)"><rect fill="#C0C0C0" stroke="none" x="463" y="319" width="144.7890625" height="44" opacity="0.2"/></g><g transform="translate(-262,-22) scale(1,1)"><rect fill="#ffffff" stroke="none" x="456" y="312" width="144.7890625" height="44"/></g><g transform="translate(-262,-22) scale(1,1)"><path fill="none" stroke="#000000" d="M 456 312 L 600.7890625 312 L 600.7890625 356 L 456 356 L 456 312 Z Z" stroke-miterlimit="10"/></g><g transform="translate(-262,-22) scale(1,1)"><path fill="none" stroke="#000000" d="M 456 337 L 600.7890625 337" stroke-miterlimit="10"/></g><g transform="translate(-262,-22) scale(1,1)"><path fill="none" stroke="#000000" d="M 456 347 L 600.7890625 347" stroke-miterlimit="10"/></g><g transform="translate(-262,-22) scale(1,1)"><g><path fill="none" stroke="none"/><text fill="#000000" stroke="none" font-family="Arial" font-size="13px" font-style="normal" font-weight="bold" text-decoration="none" x="466.9873046875" y="331.5">ImportContactActivity</text></g></g><g transform="translate(-262,-22) scale(1,1)"><path fill="none" stroke="#000000" d="M 489 311 L 351 229" stroke-miterlimit="10"/></g><g transform="translate(-262,-22) scale(1,1)"><path fill="#FFFFFF" stroke="none" d="M 372.7740405917906 232.14502087545623 L 351 229 L 364.17270616827795 246.62043734429463"/></g><g transform="translate(-262,-22) scale(1,1)"><path fill="none" stroke="#000000" d="M 372.7740405917906 232.14502087545623 L 351 229 L 364.17270616827795 246.62043734429463 L 372.7740405917906 232.14502087545623" stroke-miterlimit="10"/></g><g transform="translate(-262,-22) scale(1,1)"><rect fill="#C0C0C0" stroke="none" x="703" y="79" width="165.71728515625" height="44" opacity="0.2"/></g><g transform="translate(-262,-22) scale(1,1)"><rect fill="#ffffff" stroke="none" x="696" y="72" width="165.71728515625" height="44"/></g><g transform="translate(-262,-22) scale(1,1)"><path fill="none" stroke="#000000" d="M 696 72 L 861.71728515625 72 L 861.71728515625 116 L 696 116 L 696 72 Z Z" stroke-miterlimit="10"/></g><g transform="translate(-262,-22) scale(1,1)"><path fill="none" stroke="#000000" d="M 696 97 L 861.71728515625 97" stroke-miterlimit="10"/></g><g transform="translate(-262,-22) scale(1,1)"><path fill="none" stroke="#000000" d="M 696 107 L 861.71728515625 107" stroke-miterlimit="10"/></g><g transform="translate(-262,-22) scale(1,1)"><g><path fill="none" stroke="none"/><text fill="#000000" stroke="none" font-family="Arial" font-size="13px" font-style="normal" font-weight="bold" text-decoration="none" x="707.330078125" y="91.5">ControllerContactRetrofit</text></g></g><g transform="translate(-262,-22) scale(1,1)"><rect fill="#C0C0C0" stroke="none" x="711" y="327" width="179.47265625" height="44" opacity="0.2"/></g><g transform="translate(-262,-22) scale(1,1)"><rect fill="#ffffff" stroke="none" x="704" y="320" width="179.47265625" height="44"/></g><g transform="translate(-262,-22) scale(1,1)"><path fill="none" stroke="#000000" d="M 704 320 L 883.47265625 320 L 883.47265625 364 L 704 364 L 704 320 Z Z" stroke-miterlimit="10"/></g><g transform="translate(-262,-22) scale(1,1)"><path fill="none" stroke="#000000" d="M 704 345 L 883.47265625 345" stroke-miterlimit="10"/></g><g transform="translate(-262,-22) scale(1,1)"><path fill="none" stroke="#000000" d="M 704 355 L 883.47265625 355" stroke-miterlimit="10"/></g><g transform="translate(-262,-22) scale(1,1)"><g><path fill="none" stroke="none"/><text fill="#000000" stroke="none" font-family="Arial" font-size="13px" font-style="normal" font-weight="bold" text-decoration="none" x="714.98095703125" y="339.5">ControllerConvertCsv2Pojo</text></g></g><g transform="translate(-262,-22) scale(1,1)"><rect fill="#C0C0C0" stroke="none" x="751" y="423" width="125.29541015625" height="44" opacity="0.2"/></g><g transform="translate(-262,-22) scale(1,1)"><rect fill="#ffffff" stroke="none" x="744" y="416" width="125.29541015625" height="44"/></g><g transform="translate(-262,-22) scale(1,1)"><path fill="none" stroke="#000000" d="M 744 416 L 869.29541015625 416 L 869.29541015625 460 L 744 460 L 744 416 Z Z" stroke-miterlimit="10"/></g><g transform="translate(-262,-22) scale(1,1)"><path fill="none" stroke="#000000" d="M 744 441 L 869.29541015625 441" stroke-miterlimit="10"/></g><g transform="translate(-262,-22) scale(1,1)"><path fill="none" stroke="#000000" d="M 744 451 L 869.29541015625 451" stroke-miterlimit="10"/></g><g transform="translate(-262,-22) scale(1,1)"><g><path fill="none" stroke="none"/><text fill="#000000" stroke="none" font-family="Arial" font-size="13px" font-style="normal" font-weight="bold" text-decoration="none" x="752.457763671875" y="435.5">ControllerReadFile</text></g></g><g transform="translate(-262,-22) scale(1,1)"><rect fill="#C0C0C0" stroke="none" x="871" y="143" width="50.919921875" height="44" opacity="0.2"/></g><g transform="translate(-262,-22) scale(1,1)"><rect fill="#ffffff" stroke="none" x="864" y="136" width="50.919921875" height="44"/></g><g transform="translate(-262,-22) scale(1,1)"><path fill="none" stroke="#000000" d="M 864 136 L 914.919921875 136 L 914.919921875 180 L 864 180 L 864 136 Z Z" stroke-miterlimit="10"/></g><g transform="translate(-262,-22) scale(1,1)"><path fill="none" stroke="#000000" d="M 864 161 L 914.919921875 161" stroke-miterlimit="10"/></g><g transform="translate(-262,-22) scale(1,1)"><path fill="none" stroke="#000000" d="M 864 171 L 914.919921875 171" stroke-miterlimit="10"/></g><g transform="translate(-262,-22) scale(1,1)"><g><path fill="none" stroke="none"/><text fill="#000000" stroke="none" font-family="Arial" font-size="13px" font-style="normal" font-weight="bold" text-decoration="none" x="873.924072265625" y="155.5">Gson</text></g></g><g transform="translate(-262,-22) scale(1,1)"><rect fill="#C0C0C0" stroke="none" x="759" y="255" width="55.21728515625" height="44" opacity="0.2"/></g><g transform="translate(-262,-22) scale(1,1)"><rect fill="#ffffff" stroke="none" x="752" y="248" width="55.21728515625" height="44"/></g><g transform="translate(-262,-22) scale(1,1)"><path fill="none" stroke="#000000" d="M 752 248 L 807.21728515625 248 L 807.21728515625 292 L 752 292 L 752 248 Z Z" stroke-miterlimit="10"/></g><g transform="translate(-262,-22) scale(1,1)"><path fill="none" stroke="#000000" d="M 752 273 L 807.21728515625 273" stroke-miterlimit="10"/></g><g transform="translate(-262,-22) scale(1,1)"><path fill="none" stroke="#000000" d="M 752 283 L 807.21728515625 283" stroke-miterlimit="10"/></g><g transform="translate(-262,-22) scale(1,1)"><g><path fill="none" stroke="none"/><text fill="#000000" stroke="none" font-family="Arial" font-size="13px" font-style="normal" font-weight="bold" text-decoration="none" x="758.658203125" y="267.5">Retrofit</text></g></g><g transform="translate(-262,-22) scale(1,1)"><rect fill="#C0C0C0" stroke="none" x="591" y="95" width="57.38818359375" height="44" opacity="0.2"/></g><g transform="translate(-262,-22) scale(1,1)"><rect fill="#ffffff" stroke="none" x="584" y="88" width="57.38818359375" height="44"/></g><g transform="translate(-262,-22) scale(1,1)"><path fill="none" stroke="#000000" d="M 584 88 L 641.38818359375 88 L 641.38818359375 132 L 584 132 L 584 88 Z Z" stroke-miterlimit="10"/></g><g transform="translate(-262,-22) scale(1,1)"><path fill="none" stroke="#000000" d="M 584 113 L 641.38818359375 113" stroke-miterlimit="10"/></g><g transform="translate(-262,-22) scale(1,1)"><path fill="none" stroke="#000000" d="M 584 123 L 641.38818359375 123" stroke-miterlimit="10"/></g><g transform="translate(-262,-22) scale(1,1)"><g><path fill="none" stroke="none"/><text fill="#000000" stroke="none" font-family="Arial" font-size="13px" font-style="normal" font-weight="bold" text-decoration="none" x="590.293212890625" y="107.5">Contact</text></g></g><g transform="translate(-262,-22) scale(1,1)"><rect fill="#C0C0C0" stroke="none" x="375" y="407" width="50.919921875" height="44" opacity="0.2"/></g><g transform="translate(-262,-22) scale(1,1)"><rect fill="#ffffff" stroke="none" x="368" y="400" width="50.919921875" height="44"/></g><g transform="translate(-262,-22) scale(1,1)"><path fill="none" stroke="#000000" d="M 368 400 L 418.919921875 400 L 418.919921875 444 L 368 444 L 368 400 Z Z" stroke-miterlimit="10"/></g><g transform="translate(-262,-22) scale(1,1)"><path fill="none" stroke="#000000" d="M 368 425 L 418.919921875 425" stroke-miterlimit="10"/></g><g transform="translate(-262,-22) scale(1,1)"><path fill="none" stroke="#000000" d="M 368 435 L 418.919921875 435" stroke-miterlimit="10"/></g><g transform="translate(-262,-22) scale(1,1)"><g><path fill="none" stroke="none"/><text fill="#000000" stroke="none" font-family="Arial" font-size="13px" font-style="normal" font-weight="bold" text-decoration="none" x="376.121337890625" y="419.5">io.File</text></g></g><g transform="translate(-262,-22) scale(1,1)"><path fill="none" stroke="#000000" d="M 552 311 L 754 117" stroke-miterlimit="10"/></g><g transform="translate(-262,-22) scale(1,1)"><path fill="none" stroke="#000000" d="M 749.5860762981692 127.07557827394618 L 754 117 L 743.7543748969122 121.00339434067861" stroke-miterlimit="10"/></g><g transform="translate(-262,-22) scale(1,1)"><path fill="none" stroke="#000000" d="M 602 336 L 703 339" stroke-miterlimit="10"/></g><g transform="translate(-262,-22) scale(1,1)"><path fill="none" stroke="#000000" d="M 692.7168252114292 342.90593346944127 L 703 339 L 692.9667853317696 334.49060941798047" stroke-miterlimit="10"/></g><g transform="translate(-262,-22) scale(1,1)"><path fill="none" stroke="#000000" d="M 589 357 L 745 415" stroke-miterlimit="10"/></g><g transform="translate(-262,-22) scale(1,1)"><path fill="none" stroke="#000000" d="M 734.0074237596007 415.40406385511284 L 745 415 L 736.9413585057208 407.5127910896862" stroke-miterlimit="10"/></g><g transform="translate(-262,-22) scale(1,1)"><path fill="none" stroke="#000000" d="M 537 311 L 603 133" stroke-miterlimit="10"/></g><g transform="translate(-262,-22) scale(1,1)"><path fill="none" stroke="#000000" d="M 603.4138051831544 143.99221384755566 L 603 133 L 595.5199354992394 141.06527340295793" stroke-miterlimit="10"/></g><g transform="translate(-262,-22) scale(1,1)"><path fill="none" stroke="#000000" d="M 818 117 L 863 143" stroke-miterlimit="10" stroke-dasharray="3"/></g><g transform="translate(-262,-22) scale(1,1)"><path fill="none" stroke="#000000" d="M 852.0945673588525 141.56071583438393 L 863 143 L 856.306422221233 134.27096703410987" stroke-miterlimit="10"/></g><g transform="translate(-262,-22) scale(1,1)"><path fill="none" stroke="#000000" d="M 778 117 L 779 247" stroke-miterlimit="10" stroke-dasharray="3"/></g><g transform="translate(-262,-22) scale(1,1)"><path fill="none" stroke="#000000" d="M 774.7124346711711 236.87000574772995 L 779 247 L 783.1312211103657 236.80524585204384" stroke-miterlimit="10"/></g><g transform="translate(-262,-22) scale(1,1)"><path fill="none" stroke="#000000" d="M 493 357 L 420 404" stroke-miterlimit="10" stroke-dasharray="3"/></g><g transform="translate(-262,-22) scale(1,1)"><path fill="none" stroke="#000000" d="M 426.26603952694177 394.95916217119213 L 420 404 L 430.82359677704136 402.03792130432555" stroke-miterlimit="10"/></g><g transform="translate(-262,-22) scale(1,1)"><rect fill="#C0C0C0" stroke="none" x="439" y="39" width="50.919921875" height="44" opacity="0.2"/></g><g transform="translate(-262,-22) scale(1,1)"><rect fill="#ffffff" stroke="none" x="432" y="32" width="50.919921875" height="44"/></g><g transform="translate(-262,-22) scale(1,1)"><path fill="none" stroke="#000000" d="M 432 32 L 482.919921875 32 L 482.919921875 76 L 432 76 L 432 32 Z Z" stroke-miterlimit="10"/></g><g transform="translate(-262,-22) scale(1,1)"><path fill="none" stroke="#000000" d="M 432 57 L 482.919921875 57" stroke-miterlimit="10"/></g><g transform="translate(-262,-22) scale(1,1)"><path fill="none" stroke="#000000" d="M 432 67 L 482.919921875 67" stroke-miterlimit="10"/></g><g transform="translate(-262,-22) scale(1,1)"><g><path fill="none" stroke="none"/><text fill="#000000" stroke="none" font-family="Arial" font-size="13px" font-style="normal" font-weight="bold" text-decoration="none" x="452.765869140625" y="51.5">R</text></g></g><g transform="translate(-262,-22) scale(1,1)"><rect fill="#C0C0C0" stroke="none" x="279" y="79" width="50.919921875" height="44" opacity="0.2"/></g><g transform="translate(-262,-22) scale(1,1)"><rect fill="#ffffff" stroke="none" x="272" y="72" width="50.919921875" height="44"/></g><g transform="translate(-262,-22) scale(1,1)"><path fill="none" stroke="#000000" d="M 272 72 L 322.919921875 72 L 322.919921875 116 L 272 116 L 272 72 Z Z" stroke-miterlimit="10"/></g><g transform="translate(-262,-22) scale(1,1)"><path fill="none" stroke="#000000" d="M 272 97 L 322.919921875 97" stroke-miterlimit="10"/></g><g transform="translate(-262,-22) scale(1,1)"><path fill="none" stroke="#000000" d="M 272 107 L 322.919921875 107" stroke-miterlimit="10"/></g><g transform="translate(-262,-22) scale(1,1)"><g><path fill="none" stroke="none"/><text fill="#000000" stroke="none" font-family="Arial" font-size="13px" font-style="normal" font-weight="bold" text-decoration="none" x="281.197265625" y="91.5">Intent</text></g></g><g transform="translate(-262,-22) scale(1,1)"><rect fill="#C0C0C0" stroke="none" x="359" y="63" width="50.919921875" height="44" opacity="0.2"/></g><g transform="translate(-262,-22) scale(1,1)"><rect fill="#ffffff" stroke="none" x="352" y="56" width="50.919921875" height="44"/></g><g transform="translate(-262,-22) scale(1,1)"><path fill="none" stroke="#000000" d="M 352 56 L 402.919921875 56 L 402.919921875 100 L 352 100 L 352 56 Z Z" stroke-miterlimit="10"/></g><g transform="translate(-262,-22) scale(1,1)"><path fill="none" stroke="#000000" d="M 352 81 L 402.919921875 81" stroke-miterlimit="10"/></g><g transform="translate(-262,-22) scale(1,1)"><path fill="none" stroke="#000000" d="M 352 91 L 402.919921875 91" stroke-miterlimit="10"/></g><g transform="translate(-262,-22) scale(1,1)"><g><path fill="none" stroke="none"/><text fill="#000000" stroke="none" font-family="Arial" font-size="13px" font-style="normal" font-weight="bold" text-decoration="none" x="369.1572265625" y="75.5">Uri</text></g></g><g transform="translate(-262,-22) scale(1,1)"><rect fill="#C0C0C0" stroke="none" x="511" y="71" width="50.919921875" height="44" opacity="0.2"/></g><g transform="translate(-262,-22) scale(1,1)"><rect fill="#ffffff" stroke="none" x="504" y="64" width="50.919921875" height="44"/></g><g transform="translate(-262,-22) scale(1,1)"><path fill="none" stroke="#000000" d="M 504 64 L 554.919921875 64 L 554.919921875 108 L 504 108 L 504 64 Z Z" stroke-miterlimit="10"/></g><g transform="translate(-262,-22) scale(1,1)"><path fill="none" stroke="#000000" d="M 504 89 L 554.919921875 89" stroke-miterlimit="10"/></g><g transform="translate(-262,-22) scale(1,1)"><path fill="none" stroke="#000000" d="M 504 99 L 554.919921875 99" stroke-miterlimit="10"/></g><g transform="translate(-262,-22) scale(1,1)"><g><path fill="none" stroke="none"/><text fill="#000000" stroke="none" font-family="Arial" font-size="13px" font-style="normal" font-weight="bold" text-decoration="none" x="513.20361328125" y="83.5">Toast</text></g></g><g transform="translate(-262,-22) scale(1,1)"><path fill="none" stroke="#000000" d="M 528 311 L 529 109" stroke-miterlimit="10" stroke-dasharray="3"/></g><g transform="translate(-262,-22) scale(1,1)"><path fill="none" stroke="#000000" d="M 533.159156519697 119.18338927099724 L 529 109 L 524.7402241701095 119.14171138807849" stroke-miterlimit="10"/></g><g transform="translate(-262,-22) scale(1,1)"><path fill="none" stroke="#000000" d="M 522 311 L 463 77" stroke-miterlimit="10" stroke-dasharray="3"/></g><g transform="translate(-262,-22) scale(1,1)"><path fill="none" stroke="#000000" d="M 469.56639491029813 85.82510384539528 L 463 77 L 461.40285159526616 87.88343314277513" stroke-miterlimit="10"/></g><g transform="translate(-262,-22) scale(1,1)"><path fill="none" stroke="#000000" d="M 514 311 L 391 101" stroke-miterlimit="10" stroke-dasharray="3"/></g><g transform="translate(-262,-22) scale(1,1)"><path fill="none" stroke="#000000" d="M 399.7685703242358 107.64169966717341 L 391 101 L 392.5039246643155 111.896706410841" stroke-miterlimit="10"/></g><g transform="translate(-262,-22) scale(1,1)"><path fill="none" stroke="#000000" d="M 506 311 L 319 117" stroke-miterlimit="10" stroke-dasharray="3"/></g><g transform="translate(-262,-22) scale(1,1)"><path fill="none" stroke="#000000" d="M 329.08363288342844 121.39549176682662 L 319 117 L 323.02212315589514 127.23828722584065" stroke-miterlimit="10"/></g></g></svg>