<svg version="1.1" xmlns="http://www.w3.org/2000/svg" xmlns:xlink="http://www.w3.org/1999/xlink" width="646.921875" height="440"><defs/><g><g transform="translate(-246,-6) scale(1,1)"><rect fill="#C0C0C0" stroke="none" x="263" y="119" width="57.4072265625" height="44" opacity="0.2"/></g><g transform="translate(-246,-6) scale(1,1)"><rect fill="#ffffff" stroke="none" x="256" y="112" width="57.4072265625" height="44"/></g><g transform="translate(-246,-6) scale(1,1)"><path fill="none" stroke="#000000" d="M 256 112 L 313.4072265625 112 L 313.4072265625 156 L 256 156 L 256 112 Z Z" stroke-miterlimit="10"/></g><g transform="translate(-246,-6) scale(1,1)"><path fill="none" stroke="#000000" d="M 256 137 L 313.4072265625 137" stroke-miterlimit="10"/></g><g transform="translate(-246,-6) scale(1,1)"><path fill="none" stroke="#000000" d="M 256 147 L 313.4072265625 147" stroke-miterlimit="10"/></g><g transform="translate(-246,-6) scale(1,1)"><g><path fill="none" stroke="none"/><text fill="#000000" stroke="none" font-family="Arial" font-size="13px" font-style="normal" font-weight="bold" text-decoration="none" x="262.66455078125" y="131.5">java.util</text></g></g><g transform="translate(-246,-6) scale(1,1)"><rect fill="#C0C0C0" stroke="none" x="343" y="279" width="139.025390625" height="44" opacity="0.2"/></g><g transform="translate(-246,-6) scale(1,1)"><rect fill="#ffffff" stroke="none" x="336" y="272" width="139.025390625" height="44"/></g><g transform="translate(-246,-6) scale(1,1)"><path fill="none" stroke="#000000" d="M 336 272 L 475.025390625 272 L 475.025390625 316 L 336 316 L 336 272 Z Z" stroke-miterlimit="10"/></g><g transform="translate(-246,-6) scale(1,1)"><path fill="none" stroke="#000000" d="M 336 297 L 475.025390625 297" stroke-miterlimit="10"/></g><g transform="translate(-246,-6) scale(1,1)"><path fill="none" stroke="#000000" d="M 336 307 L 475.025390625 307" stroke-miterlimit="10"/></g><g transform="translate(-246,-6) scale(1,1)"><g><path fill="none" stroke="none"/><text fill="#000000" stroke="none" font-family="Arial" font-size="13px" font-style="normal" font-weight="bold" text-decoration="none" x="346.27001953125" y="291.5">org.springframework</text></g></g><g transform="translate(-246,-6) scale(1,1)"><rect fill="#C0C0C0" stroke="none" x="559" y="295" width="59.5654296875" height="44" opacity="0.2"/></g><g transform="translate(-246,-6) scale(1,1)"><rect fill="#ffffff" stroke="none" x="552" y="288" width="59.5654296875" height="44"/></g><g transform="translate(-246,-6) scale(1,1)"><path fill="none" stroke="#000000" d="M 552 288 L 611.5654296875 288 L 611.5654296875 332 L 552 332 L 552 288 Z Z" stroke-miterlimit="10"/></g><g transform="translate(-246,-6) scale(1,1)"><path fill="none" stroke="#000000" d="M 552 313 L 611.5654296875 313" stroke-miterlimit="10"/></g><g transform="translate(-246,-6) scale(1,1)"><path fill="none" stroke="#000000" d="M 552 323 L 611.5654296875 323" stroke-miterlimit="10"/></g><g transform="translate(-246,-6) scale(1,1)"><g><path fill="none" stroke="none"/><text fill="#000000" stroke="none" font-family="Arial" font-size="13px" font-style="normal" font-weight="bold" text-decoration="none" x="559.023193359375" y="307.5">org.slf4j</text></g></g><g transform="translate(-246,-6) scale(1,1)"><rect fill="#C0C0C0" stroke="none" x="743" y="295" width="146.921875" height="44" opacity="0.2"/></g><g transform="translate(-246,-6) scale(1,1)"><rect fill="#ffffff" stroke="none" x="736" y="288" width="146.921875" height="44"/></g><g transform="translate(-246,-6) scale(1,1)"><path fill="none" stroke="#000000" d="M 736 288 L 882.921875 288 L 882.921875 332 L 736 332 L 736 288 Z Z" stroke-miterlimit="10"/></g><g transform="translate(-246,-6) scale(1,1)"><path fill="none" stroke="#000000" d="M 736 313 L 882.921875 313" stroke-miterlimit="10"/></g><g transform="translate(-246,-6) scale(1,1)"><path fill="none" stroke="#000000" d="M 736 323 L 882.921875 323" stroke-miterlimit="10"/></g><g transform="translate(-246,-6) scale(1,1)"><g><path fill="none" stroke="none"/><text fill="#000000" stroke="none" font-family="Arial" font-size="13px" font-style="normal" font-weight="bold" text-decoration="none" x="745.146484375" y="307.5">MongoDataStorConfig</text></g></g><g transform="translate(-246,-6) scale(1,1)"><rect fill="#C0C0C0" stroke="none" x="767" y="399" width="92.75732421875" height="44" opacity="0.2"/></g><g transform="translate(-246,-6) scale(1,1)"><rect fill="#ffffff" stroke="none" x="760" y="392" width="92.75732421875" height="44"/></g><g transform="translate(-246,-6) scale(1,1)"><path fill="none" stroke="#000000" d="M 760 392 L 852.75732421875 392 L 852.75732421875 436 L 760 436 L 760 392 Z Z" stroke-miterlimit="10"/></g><g transform="translate(-246,-6) scale(1,1)"><path fill="none" stroke="#000000" d="M 760 417 L 852.75732421875 417" stroke-miterlimit="10"/></g><g transform="translate(-246,-6) scale(1,1)"><path fill="none" stroke="#000000" d="M 760 427 L 852.75732421875 427" stroke-miterlimit="10"/></g><g transform="translate(-246,-6) scale(1,1)"><g><path fill="none" stroke="none"/><text fill="#000000" stroke="none" font-family="Arial" font-size="13px" font-style="normal" font-weight="bold" text-decoration="none" x="768.07373046875" y="411.5">org.mongodb</text></g></g><g transform="translate(-246,-6) scale(1,1)"><rect fill="#C0C0C0" stroke="none" x="703" y="151" width="81.947265625" height="44" opacity="0.2"/></g><g transform="translate(-246,-6) scale(1,1)"><rect fill="#ffffff" stroke="none" x="696" y="144" width="81.947265625" height="44"/></g><g transform="translate(-246,-6) scale(1,1)"><path fill="none" stroke="#000000" d="M 696 144 L 777.947265625 144 L 777.947265625 188 L 696 188 L 696 144 Z Z" stroke-miterlimit="10"/></g><g transform="translate(-246,-6) scale(1,1)"><path fill="none" stroke="#000000" d="M 696 169 L 777.947265625 169" stroke-miterlimit="10"/></g><g transform="translate(-246,-6) scale(1,1)"><path fill="none" stroke="#000000" d="M 696 179 L 777.947265625 179" stroke-miterlimit="10"/></g><g transform="translate(-246,-6) scale(1,1)"><g><path fill="none" stroke="none"/><text fill="#000000" stroke="none" font-family="Arial" font-size="13px" font-style="normal" font-weight="bold" text-decoration="none" x="702.648681640625" y="163.5">ContactDao</text></g></g><g transform="translate(-246,-6) scale(1,1)"><rect fill="#C0C0C0" stroke="none" x="375" y="199" width="152.72998046875" height="44" opacity="0.2"/></g><g transform="translate(-246,-6) scale(1,1)"><rect fill="#ffffff" stroke="none" x="368" y="192" width="152.72998046875" height="44"/></g><g transform="translate(-246,-6) scale(1,1)"><path fill="none" stroke="#000000" d="M 368 192 L 520.72998046875 192 L 520.72998046875 236 L 368 236 L 368 192 Z Z" stroke-miterlimit="10"/></g><g transform="translate(-246,-6) scale(1,1)"><path fill="none" stroke="#000000" d="M 368 217 L 520.72998046875 217" stroke-miterlimit="10"/></g><g transform="translate(-246,-6) scale(1,1)"><path fill="none" stroke="#000000" d="M 368 227 L 520.72998046875 227" stroke-miterlimit="10"/></g><g transform="translate(-246,-6) scale(1,1)"><g><path fill="none" stroke="none"/><text fill="#000000" stroke="none" font-family="Arial" font-size="13px" font-style="normal" font-weight="bold" text-decoration="none" x="378.25732421875" y="211.5">MockContactController</text></g></g><g transform="translate(-246,-6) scale(1,1)"><rect fill="#C0C0C0" stroke="none" x="711" y="23" width="57.38818359375" height="44" opacity="0.2"/></g><g transform="translate(-246,-6) scale(1,1)"><rect fill="#ffffff" stroke="none" x="704" y="16" width="57.38818359375" height="44"/></g><g transform="translate(-246,-6) scale(1,1)"><path fill="none" stroke="#000000" d="M 704 16 L 761.38818359375 16 L 761.38818359375 60 L 704 60 L 704 16 Z Z" stroke-miterlimit="10"/></g><g transform="translate(-246,-6) scale(1,1)"><path fill="none" stroke="#000000" d="M 704 41 L 761.38818359375 41" stroke-miterlimit="10"/></g><g transform="translate(-246,-6) scale(1,1)"><path fill="none" stroke="#000000" d="M 704 51 L 761.38818359375 51" stroke-miterlimit="10"/></g><g transform="translate(-246,-6) scale(1,1)"><g><path fill="none" stroke="none"/><text fill="#000000" stroke="none" font-family="Arial" font-size="13px" font-style="normal" font-weight="bold" text-decoration="none" x="710.293212890625" y="35.5">Contact</text></g></g><g transform="translate(-246,-6) scale(1,1)"><path fill="none" stroke="#000000" d="M 398 191 L 314 149" stroke-miterlimit="10" stroke-dasharray="3"/></g><g transform="translate(-246,-6) scale(1,1)"><path fill="none" stroke="#000000" d="M 324.97232629693906 149.77977922099748 L 314 149 L 321.2072191549614 157.30999350495279" stroke-miterlimit="10"/></g><g transform="translate(-246,-6) scale(1,1)"><path fill="none" stroke="#000000" d="M 433 237 L 416 271" stroke-miterlimit="10" stroke-dasharray="3"/></g><g transform="translate(-246,-6) scale(1,1)"><path fill="none" stroke="#000000" d="M 416.77977922099745 260.02767370306094 L 416 271 L 424.3099935049528 263.7927808450386" stroke-miterlimit="10"/></g><g transform="translate(-246,-6) scale(1,1)"><path fill="none" stroke="#000000" d="M 522 201 L 695 173" stroke-miterlimit="10"/></g><g transform="translate(-246,-6) scale(1,1)"><path fill="none" stroke="#000000" d="M 685.6404304110139 178.77913982430996 L 695 173 L 684.2953159154457 170.46825383383532" stroke-miterlimit="10"/></g><g transform="translate(-246,-6) scale(1,1)"><path fill="none" stroke="#000000" d="M 748 189 L 797 287" stroke-miterlimit="10" stroke-dasharray="3"/></g><g transform="translate(-246,-6) scale(1,1)"><path fill="none" stroke="#000000" d="M 788.6900064950472 279.7927808450386 L 797 287 L 796.2202207790025 276.02767370306094" stroke-miterlimit="10"/></g><g transform="translate(-246,-6) scale(1,1)"><path fill="none" stroke="#000000" d="M 808 333 L 807 391" stroke-miterlimit="10" stroke-dasharray="3"/></g><g transform="translate(-246,-6) scale(1,1)"><path fill="none" stroke="#000000" d="M 802.9663002706619 380.76626820297025 L 807 391 L 811.3840847186387 380.9114024175906" stroke-miterlimit="10"/></g><g transform="translate(-246,-6) scale(1,1)"><path fill="none" stroke="#000000" d="M 477 237 L 551 289" stroke-miterlimit="10" stroke-dasharray="3"/></g><g transform="translate(-246,-6) scale(1,1)"><path fill="none" stroke="#000000" d="M 540.2647404522526 286.6012081285579 L 551 289 L 545.105227174942 279.7128231770383" stroke-miterlimit="10"/></g><g transform="translate(-246,-6) scale(1,1)"><path fill="none" stroke="#000000" d="M 735 143 L 733 61" stroke-miterlimit="10"/></g><g transform="translate(-246,-6) scale(1,1)"><path fill="none" stroke="#000000" d="M 737.456062651372 71.05701275961444 L 733 61 L 729.0395301973742 71.26229403898024" stroke-miterlimit="10"/></g></g></svg>