<svg version="1.1" xmlns="http://www.w3.org/2000/svg" xmlns:xlink="http://www.w3.org/1999/xlink" width="1692" height="1031"><defs/><g><g transform="translate(10,-6) scale(1,1)"><path fill="none" stroke="#000000" d="M 0 16 L 1672 16 L 1672 1027 L 0 1027 L 0 16" stroke-miterlimit="10"/></g><g transform="translate(10,-6) scale(1,1)"><path fill="#ffffff" stroke="none" d="M 0 16 L 0 38 L 315.86962890625 38 L 326.86962890625 27 L 326.86962890625 16 L 0 16"/></g><g transform="translate(10,-6) scale(1,1)"><path fill="none" stroke="#000000" d="M 0 16 L 0 38 L 315.86962890625 38 L 326.86962890625 27 L 326.86962890625 16 L 0 16 L 0 16" stroke-miterlimit="10"/></g><g transform="translate(10,-6) scale(1,1)"><g><path fill="none" stroke="none"/><text fill="#000000" stroke="none" font-family="Arial" font-size="13px" font-style="normal" font-weight="normal" text-decoration="none" x="70.97900390625" y="33.5">The user insert the prospect into client list</text></g></g><g transform="translate(10,-6) scale(1,1)"><g><path fill="none" stroke="none"/><text fill="#000000" stroke="none" font-family="Arial" font-size="13px" font-style="normal" font-weight="bold" text-decoration="none" x="5" y="33.5">interaction</text></g></g><g transform="translate(10,-6) scale(1,1)"><path fill="#ffffff" stroke="none" d="M 96.6194930752841 47.3 C 96.6194930752841 43.82060576 99.49789479746592 41 103.048583984375 41 C 106.59927317128408 41 109.4776748934659 43.82060576 109.4776748934659 47.3 C 109.4776748934659 50.779394239999995 106.59927317128408 53.6 103.048583984375 53.6 C 99.49789479746592 53.6 96.6194930752841 50.779394239999995 96.6194930752841 47.3 Z"/></g><g transform="translate(10,-6) scale(1,1)"><path fill="none" stroke="#000000" d="M 96.6194930752841 47.3 C 96.6194930752841 43.82060576 99.49789479746592 41 103.048583984375 41 C 106.59927317128408 41 109.4776748934659 43.82060576 109.4776748934659 47.3 C 109.4776748934659 50.779394239999995 106.59927317128408 53.6 103.048583984375 53.6 C 99.49789479746592 53.6 96.6194930752841 50.779394239999995 96.6194930752841 47.3 Z" stroke-miterlimit="10"/></g><g transform="translate(10,-6) scale(1,1)"><path fill="none" stroke="#000000" d="M 103.048583984375 53.6 L 103.048583984375 66.4" stroke-miterlimit="10"/></g><g transform="translate(10,-6) scale(1,1)"><path fill="none" stroke="#000000" d="M 96.24131125710227 58.4 L 109.85585671164773 58.4" stroke-miterlimit="10"/></g><g transform="translate(10,-6) scale(1,1)"><path fill="none" stroke="#000000" d="M 103.048583984375 66.4 L 93.59403852982955 79" stroke-miterlimit="10"/></g><g transform="translate(10,-6) scale(1,1)"><path fill="none" stroke="#000000" d="M 103.048583984375 66.4 L 112.50312943892045 79" stroke-miterlimit="10"/></g><g transform="translate(10,-6) scale(1,1)"><g><path fill="none" stroke="none"/><text fill="#000000" stroke="none" font-family="Arial" font-size="13px" font-style="normal" font-weight="bold" text-decoration="none" x="40.552734375" y="99.5">Lifeline1: Commercial</text></g></g><g transform="translate(10,-6) scale(1,1)"><path fill="none" stroke="#000000" d="M 104.5 105 L 104.5 936" stroke-miterlimit="10" stroke-dasharray="3"/></g><g transform="translate(10,-6) scale(1,1)"><rect fill="#C0C0C0" stroke="none" x="279" y="47" width="121.5908203125" height="39" opacity="0.2"/></g><g transform="translate(10,-6) scale(1,1)"><rect fill="#ffffff" stroke="none" x="272" y="40" width="121.5908203125" height="39"/></g><g transform="translate(10,-6) scale(1,1)"><path fill="none" stroke="#000000" d="M 272 40 L 393.5908203125 40 L 393.5908203125 79 L 272 79 L 272 40 Z Z" stroke-miterlimit="10"/></g><g transform="translate(10,-6) scale(1,1)"><g><path fill="none" stroke="none"/><text fill="#000000" stroke="none" font-family="Arial" font-size="13px" font-style="normal" font-weight="normal" text-decoration="none" x="281.852294921875" y="57.5">«android-crmtab»</text></g></g><g transform="translate(10,-6) scale(1,1)"><g><path fill="none" stroke="none"/><text fill="#000000" stroke="none" font-family="Arial" font-size="13px" font-style="normal" font-weight="bold" text-decoration="none" x="286.55908203125" y="72.5">ProspectActivity</text></g></g><g transform="translate(10,-6) scale(1,1)"><path fill="none" stroke="#000000" d="M 333.5 80 L 333.5 928" stroke-miterlimit="10" stroke-dasharray="3"/></g><g transform="translate(10,-6) scale(1,1)"><rect fill="#C0C0C0" stroke="none" x="631" y="47" width="164.919921875" height="39" opacity="0.2"/></g><g transform="translate(10,-6) scale(1,1)"><rect fill="#ffffff" stroke="none" x="624" y="40" width="164.919921875" height="39"/></g><g transform="translate(10,-6) scale(1,1)"><path fill="none" stroke="#000000" d="M 624 40 L 788.919921875 40 L 788.919921875 79 L 624 79 L 624 40 Z Z" stroke-miterlimit="10"/></g><g transform="translate(10,-6) scale(1,1)"><g><path fill="none" stroke="none"/><text fill="#000000" stroke="none" font-family="Arial" font-size="13px" font-style="normal" font-weight="normal" text-decoration="none" x="668.1708984375" y="57.5">«server-rest»</text></g></g><g transform="translate(10,-6) scale(1,1)"><g><path fill="none" stroke="none"/><text fill="#000000" stroke="none" font-family="Arial" font-size="13px" font-style="normal" font-weight="bold" text-decoration="none" x="639.266845703125" y="72.5">ProspectRestController</text></g></g><g transform="translate(10,-6) scale(1,1)"><path fill="none" stroke="#000000" d="M 707.5 80 L 707.5 928" stroke-miterlimit="10" stroke-dasharray="3"/></g><g transform="translate(10,-6) scale(1,1)"><rect fill="#C0C0C0" stroke="none" x="1015" y="47" width="136.74267578125" height="39" opacity="0.2"/></g><g transform="translate(10,-6) scale(1,1)"><rect fill="#ffffff" stroke="none" x="1008" y="40" width="136.74267578125" height="39"/></g><g transform="translate(10,-6) scale(1,1)"><path fill="none" stroke="#000000" d="M 1008 40 L 1144.74267578125 40 L 1144.74267578125 79 L 1008 79 L 1008 40 Z Z" stroke-miterlimit="10"/></g><g transform="translate(10,-6) scale(1,1)"><g><path fill="none" stroke="none"/><text fill="#000000" stroke="none" font-family="Arial" font-size="13px" font-style="normal" font-weight="normal" text-decoration="none" x="1038.082275390625" y="57.5">«server-rest»</text></g></g><g transform="translate(10,-6) scale(1,1)"><g><path fill="none" stroke="none"/><text fill="#000000" stroke="none" font-family="Arial" font-size="13px" font-style="normal" font-weight="bold" text-decoration="none" x="1022.543212890625" y="72.5">ProspectController</text></g></g><g transform="translate(10,-6) scale(1,1)"><path fill="none" stroke="#000000" d="M 1077.5 80 L 1077.5 912" stroke-miterlimit="10" stroke-dasharray="3"/></g><g transform="translate(10,-6) scale(1,1)"><path fill="#ffffff" stroke="none" d="M 400 144 L 711 144 L 721 154 L 721 197 L 400 197 L 400 144"/></g><g transform="translate(10,-6) scale(1,1)"><path fill="none" stroke="#000000" d="M 400 144 L 711 144 L 721 154 L 721 197 L 400 197 L 400 144 L 400 144" stroke-miterlimit="10"/></g><g transform="translate(10,-6) scale(1,1)"><path fill="none" stroke="#000000" d="M 711 144 L 711 154 L 721 154 L 711 144" stroke-miterlimit="10"/></g><g transform="translate(10,-6) scale(1,1)"><g><path fill="none" stroke="none"/><text fill="#000000" stroke="none" font-family="Arial" font-size="13px" font-style="normal" font-weight="normal" text-decoration="none" x="405" y="162">GET</text></g></g><g transform="translate(10,-6) scale(1,1)"><g><path fill="none" stroke="none"/><text fill="#000000" stroke="none" font-family="Arial" font-size="13px" font-style="normal" font-weight="normal" text-decoration="none" x="405" y="177">application(JSON)</text></g></g><g transform="translate(10,-6) scale(1,1)"><g><path fill="none" stroke="none"/><text fill="#000000" stroke="none" font-family="Arial" font-size="13px" font-style="normal" font-weight="normal" text-decoration="none" x="405" y="192">http://192.168.20.3:8082/api/suggestion/prospects</text></g></g><g transform="translate(10,-6) scale(1,1)"><path fill="none" stroke="#000000" d="M 519 272 L 592 272 L 592 198" stroke-miterlimit="10" stroke-dasharray="3"/></g><g transform="translate(10,-6) scale(1,1)"><rect fill="#C0C0C0" stroke="none" x="1271" y="47" width="123.787109375" height="39" opacity="0.2"/></g><g transform="translate(10,-6) scale(1,1)"><rect fill="#ffffff" stroke="none" x="1264" y="40" width="123.787109375" height="39"/></g><g transform="translate(10,-6) scale(1,1)"><path fill="none" stroke="#000000" d="M 1264 40 L 1387.787109375 40 L 1387.787109375 79 L 1264 79 L 1264 40 Z Z" stroke-miterlimit="10"/></g><g transform="translate(10,-6) scale(1,1)"><g><path fill="none" stroke="none"/><text fill="#000000" stroke="none" font-family="Arial" font-size="13px" font-style="normal" font-weight="normal" text-decoration="none" x="1273.5" y="57.5">«android_crmtab»</text></g></g><g transform="translate(10,-6) scale(1,1)"><g><path fill="none" stroke="none"/><text fill="#000000" stroke="none" font-family="Arial" font-size="13px" font-style="normal" font-weight="bold" text-decoration="none" x="1283.62451171875" y="72.5">DetailProspect</text></g></g><g transform="translate(10,-6) scale(1,1)"><path fill="none" stroke="#000000" d="M 1326.5 80 L 1326.5 920" stroke-miterlimit="10" stroke-dasharray="3"/></g><g transform="translate(10,-6) scale(1,1)"><path fill="#ffffff" stroke="none" d="M 800 688 L 1126.73486328125 688 L 1136.73486328125 698 L 1136.73486328125 741 L 800 741 L 800 688"/></g><g transform="translate(10,-6) scale(1,1)"><path fill="none" stroke="#000000" d="M 800 688 L 1126.73486328125 688 L 1136.73486328125 698 L 1136.73486328125 741 L 800 741 L 800 688 L 800 688" stroke-miterlimit="10"/></g><g transform="translate(10,-6) scale(1,1)"><path fill="none" stroke="#000000" d="M 1126.73486328125 688 L 1126.73486328125 698 L 1136.73486328125 698 L 1126.73486328125 688" stroke-miterlimit="10"/></g><g transform="translate(10,-6) scale(1,1)"><g><path fill="none" stroke="none"/><text fill="#000000" stroke="none" font-family="Arial" font-size="13px" font-style="normal" font-weight="normal" text-decoration="none" x="805" y="706">GET</text></g></g><g transform="translate(10,-6) scale(1,1)"><g><path fill="none" stroke="none"/><text fill="#000000" stroke="none" font-family="Arial" font-size="13px" font-style="normal" font-weight="normal" text-decoration="none" x="805" y="721">application(JSON)</text></g></g><g transform="translate(10,-6) scale(1,1)"><g><path fill="none" stroke="none"/><text fill="#000000" stroke="none" font-family="Arial" font-size="13px" font-style="normal" font-weight="normal" text-decoration="none" x="805" y="736">http://192.168.20.3:8082/api/suggestion/prospect/{siret}</text></g></g><g transform="translate(10,-6) scale(1,1)"><path fill="none" stroke="#000000" d="M 1007 629 L 981 687" stroke-miterlimit="10" stroke-dasharray="3"/></g><g transform="translate(10,-6) scale(1,1)"><rect fill="#C0C0C0" stroke="none" x="1479" y="47" width="167.8017578125" height="39" opacity="0.2"/></g><g transform="translate(10,-6) scale(1,1)"><rect fill="#ffffff" stroke="none" x="1472" y="40" width="167.8017578125" height="39"/></g><g transform="translate(10,-6) scale(1,1)"><path fill="none" stroke="#000000" d="M 1472 40 L 1639.8017578125 40 L 1639.8017578125 79 L 1472 79 L 1472 40 Z Z" stroke-miterlimit="10"/></g><g transform="translate(10,-6) scale(1,1)"><g><path fill="none" stroke="none"/><text fill="#000000" stroke="none" font-family="Arial" font-size="13px" font-style="normal" font-weight="normal" text-decoration="none" x="1517.61181640625" y="57.5">«server-rest»</text></g></g><g transform="translate(10,-6) scale(1,1)"><g><path fill="none" stroke="none"/><text fill="#000000" stroke="none" font-family="Arial" font-size="13px" font-style="normal" font-weight="bold" text-decoration="none" x="1485.819580078125" y="72.5">RelationUserClientDAOI</text></g></g><g transform="translate(10,-6) scale(1,1)"><path fill="none" stroke="#000000" d="M 1556.5 80 L 1556.5 928" stroke-miterlimit="10" stroke-dasharray="3"/></g><g transform="translate(10,-6) scale(1,1)"><path fill="none" stroke="#000000" d="M 104 194 L 326 194" stroke-miterlimit="10"/></g><g transform="translate(10,-6) scale(1,1)"><path fill="#000000" stroke="none" d="M 315.83732514237585 198.209517756016 L 326 194 L 315.83732514237585 189.790482243984"/></g><g transform="translate(10,-6) scale(1,1)"><path fill="none" stroke="#000000" d="M 315.83732514237585 198.209517756016 L 326 194 L 315.83732514237585 189.790482243984 L 315.83732514237585 198.209517756016" stroke-miterlimit="10"/></g><g transform="translate(10,-6) scale(1,1)"><g><path fill="none" stroke="none"/><text fill="#000000" stroke="none" font-family="Arial" font-size="13px" font-style="normal" font-weight="normal" text-decoration="none" x="151" y="191">1 : click Finding button</text></g></g><g transform="translate(10,-6) scale(1,1)"><rect fill="#ffffff" stroke="none" x="326" y="194" width="13" height="302"/></g><g transform="translate(10,-6) scale(1,1)"><path fill="none" stroke="#000000" d="M 326 194 L 339 194 L 339 496 L 326 496 L 326 194 Z Z" stroke-miterlimit="10"/></g><g transform="translate(10,-6) scale(1,1)"><path fill="none" stroke="#000000" d="M 339 272 L 700 272" stroke-miterlimit="10"/></g><g transform="translate(10,-6) scale(1,1)"><path fill="none" stroke="#000000" d="M 689.8373251423759 276.209517756016 L 700 272 L 689.8373251423758 267.790482243984" stroke-miterlimit="10"/></g><g transform="translate(10,-6) scale(1,1)"><g><path fill="none" stroke="none"/><text fill="#000000" stroke="none" font-family="Arial" font-size="13px" font-style="normal" font-weight="normal" text-decoration="none" x="473" y="269">2 : getProspects</text></g></g><g transform="translate(10,-6) scale(1,1)"><g><path fill="none" stroke="none"/><text fill="#000000" stroke="none" font-family="Arial" font-size="13px" font-style="normal" font-weight="normal" text-decoration="none" x="489" y="254">«http/rest»</text></g></g><g transform="translate(10,-6) scale(1,1)"><rect fill="#ffffff" stroke="none" x="700" y="272" width="13" height="152"/></g><g transform="translate(10,-6) scale(1,1)"><path fill="none" stroke="#000000" d="M 700 272 L 713 272 L 713 424 L 700 424 L 700 272 Z Z" stroke-miterlimit="10"/></g><g transform="translate(10,-6) scale(1,1)"><path fill="none" stroke="#000000" d="M 713 296 L 1070 296" stroke-miterlimit="10"/></g><g transform="translate(10,-6) scale(1,1)"><path fill="#000000" stroke="none" d="M 1059.837325142376 300.209517756016 L 1070 296 L 1059.837325142376 291.790482243984"/></g><g transform="translate(10,-6) scale(1,1)"><path fill="none" stroke="#000000" d="M 1059.837325142376 300.209517756016 L 1070 296 L 1059.837325142376 291.790482243984 L 1059.837325142376 300.209517756016" stroke-miterlimit="10"/></g><g transform="translate(10,-6) scale(1,1)"><g><path fill="none" stroke="none"/><text fill="#000000" stroke="none" font-family="Arial" font-size="13px" font-style="normal" font-weight="normal" text-decoration="none" x="820" y="293">3 : startAnalyzeProscess</text></g></g><g transform="translate(10,-6) scale(1,1)"><rect fill="#ffffff" stroke="none" x="1070" y="296" width="13" height="80"/></g><g transform="translate(10,-6) scale(1,1)"><path fill="none" stroke="#000000" d="M 1070 296 L 1083 296 L 1083 376 L 1070 376 L 1070 296 Z Z" stroke-miterlimit="10"/></g><g transform="translate(10,-6) scale(1,1)"><path fill="none" stroke="#000000" d="M 1070 370 L 713 370" stroke-miterlimit="10" stroke-dasharray="3"/></g><g transform="translate(10,-6) scale(1,1)"><path fill="none" stroke="#000000" d="M 723.1626748576241 365.790482243984 L 713 370 L 723.1626748576241 374.209517756016" stroke-miterlimit="10"/></g><g transform="translate(10,-6) scale(1,1)"><g><path fill="none" stroke="none"/><text fill="#000000" stroke="none" font-family="Arial" font-size="13px" font-style="normal" font-weight="normal" text-decoration="none" x="837" y="387">4 : return Prospect</text></g></g><g transform="translate(10,-6) scale(1,1)"><path fill="none" stroke="#000000" d="M 700 411 L 339 411" stroke-miterlimit="10" stroke-dasharray="3"/></g><g transform="translate(10,-6) scale(1,1)"><path fill="none" stroke="#000000" d="M 349.16267485762415 406.790482243984 L 339 411 L 349.16267485762415 415.209517756016" stroke-miterlimit="10"/></g><g transform="translate(10,-6) scale(1,1)"><g><path fill="none" stroke="none"/><text fill="#000000" stroke="none" font-family="Arial" font-size="13px" font-style="normal" font-weight="normal" text-decoration="none" x="447" y="428">5 : return List&lt;Prospect&gt;</text></g></g><g transform="translate(10,-6) scale(1,1)"><g><path fill="none" stroke="none"/><text fill="#000000" stroke="none" font-family="Arial" font-size="13px" font-style="normal" font-weight="normal" text-decoration="none" x="467" y="443">«ResponseBody»</text></g></g><g transform="translate(10,-6) scale(1,1)"><path fill="none" stroke="#000000" d="M 333 560 L 1319 560" stroke-miterlimit="10"/></g><g transform="translate(10,-6) scale(1,1)"><path fill="#000000" stroke="none" d="M 1308.837325142376 564.209517756016 L 1319 560 L 1308.837325142376 555.790482243984"/></g><g transform="translate(10,-6) scale(1,1)"><path fill="none" stroke="#000000" d="M 1308.837325142376 564.209517756016 L 1319 560 L 1308.837325142376 555.790482243984 L 1308.837325142376 564.209517756016" stroke-miterlimit="10"/></g><g transform="translate(10,-6) scale(1,1)"><g><path fill="none" stroke="none"/><text fill="#000000" stroke="none" font-family="Arial" font-size="13px" font-style="normal" font-weight="normal" text-decoration="none" x="760" y="557">6 : onItemClickListener</text></g></g><g transform="translate(10,-6) scale(1,1)"><g><path fill="none" stroke="none"/><text fill="#000000" stroke="none" font-family="Arial" font-size="13px" font-style="normal" font-weight="normal" text-decoration="none" x="803" y="542">«intent»</text></g></g><g transform="translate(10,-6) scale(1,1)"><rect fill="#ffffff" stroke="none" x="1319" y="560" width="13" height="72"/></g><g transform="translate(10,-6) scale(1,1)"><path fill="none" stroke="#000000" d="M 1319 560 L 1332 560 L 1332 632 L 1319 632 L 1319 560 Z Z" stroke-miterlimit="10"/></g><g transform="translate(10,-6) scale(1,1)"><path fill="none" stroke="#000000" d="M 1319 625 L 713 625" stroke-miterlimit="10"/></g><g transform="translate(10,-6) scale(1,1)"><path fill="#000000" stroke="none" d="M 723.1626748576241 620.790482243984 L 713 625 L 723.1626748576241 629.209517756016"/></g><g transform="translate(10,-6) scale(1,1)"><path fill="none" stroke="#000000" d="M 723.1626748576241 620.790482243984 L 713 625 L 723.1626748576241 629.209517756016 L 723.1626748576241 620.790482243984" stroke-miterlimit="10"/></g><g transform="translate(10,-6) scale(1,1)"><g><path fill="none" stroke="none"/><text fill="#000000" stroke="none" font-family="Arial" font-size="13px" font-style="normal" font-weight="normal" text-decoration="none" x="941" y="642">7 : createClient(long siret)</text></g></g><g transform="translate(10,-6) scale(1,1)"><g><path fill="none" stroke="none"/><text fill="#000000" stroke="none" font-family="Arial" font-size="13px" font-style="normal" font-weight="normal" text-decoration="none" x="985" y="657">«http/rest»</text></g></g><g transform="translate(10,-6) scale(1,1)"><rect fill="#ffffff" stroke="none" x="700" y="625" width="13" height="271"/></g><g transform="translate(10,-6) scale(1,1)"><path fill="none" stroke="#000000" d="M 700 625 L 713 625 L 713 896 L 700 896 L 700 625 Z Z" stroke-miterlimit="10"/></g><g transform="translate(10,-6) scale(1,1)"><path fill="none" stroke="#000000" d="M 713 785 L 1549 785" stroke-miterlimit="10"/></g><g transform="translate(10,-6) scale(1,1)"><path fill="#000000" stroke="none" d="M 1538.837325142376 789.209517756016 L 1549 785 L 1538.837325142376 780.790482243984"/></g><g transform="translate(10,-6) scale(1,1)"><path fill="none" stroke="#000000" d="M 1538.837325142376 789.209517756016 L 1549 785 L 1538.837325142376 780.790482243984 L 1538.837325142376 789.209517756016" stroke-miterlimit="10"/></g><g transform="translate(10,-6) scale(1,1)"><g><path fill="none" stroke="none"/><text fill="#000000" stroke="none" font-family="Arial" font-size="13px" font-style="normal" font-weight="normal" text-decoration="none" x="1052" y="782">8 : save(prospectId, userId)</text></g></g><g transform="translate(10,-6) scale(1,1)"><rect fill="#ffffff" stroke="none" x="1549" y="785" width="13" height="103"/></g><g transform="translate(10,-6) scale(1,1)"><path fill="none" stroke="#000000" d="M 1549 785 L 1562 785 L 1562 888 L 1549 888 L 1549 785 Z Z" stroke-miterlimit="10"/></g><g transform="translate(10,-6) scale(1,1)"><path fill="none" stroke="#000000" d="M 1549 851 L 713 851" stroke-miterlimit="10" stroke-dasharray="3"/></g><g transform="translate(10,-6) scale(1,1)"><path fill="none" stroke="#000000" d="M 723.1626748576241 846.790482243984 L 713 851 L 723.1626748576241 855.209517756016" stroke-miterlimit="10"/></g><g transform="translate(10,-6) scale(1,1)"><g><path fill="none" stroke="none"/><text fill="#000000" stroke="none" font-family="Arial" font-size="13px" font-style="normal" font-weight="normal" text-decoration="none" x="1096" y="868">9 : return ok</text></g></g></g></svg>