<svg version="1.1" xmlns="http://www.w3.org/2000/svg" xmlns:xlink="http://www.w3.org/1999/xlink" width="1343" height="943"><defs/><g><g transform="translate(5,10) scale(1,1)"><path fill="none" stroke="#000000" d="M 5 0 L 1328 0 L 1328 923 L 5 923 L 5 0" stroke-miterlimit="10"/></g><g transform="translate(5,10) scale(1,1)"><path fill="#ffffff" stroke="none" d="M 5 0 L 5 22 L 395.9814453125 22 L 406.9814453125 11 L 406.9814453125 0 L 5 0"/></g><g transform="translate(5,10) scale(1,1)"><path fill="none" stroke="#000000" d="M 5 0 L 5 22 L 395.9814453125 22 L 406.9814453125 11 L 406.9814453125 0 L 5 0 L 5 0" stroke-miterlimit="10"/></g><g transform="translate(5,10) scale(1,1)"><g><path fill="none" stroke="none"/><text fill="#000000" stroke="none" font-family="Arial" font-size="13px" font-style="normal" font-weight="normal" text-decoration="none" x="75.97900390625" y="17.5">User selects a report from the list and clicks  on modify</text></g></g><g transform="translate(5,10) scale(1,1)"><g><path fill="none" stroke="none"/><text fill="#000000" stroke="none" font-family="Arial" font-size="13px" font-style="normal" font-weight="bold" text-decoration="none" x="10" y="17.5">interaction</text></g></g><g transform="translate(5,10) scale(1,1)"><path fill="#ffffff" stroke="none" d="M 56.99815518465909 47.3 C 56.99815518465909 43.82060576 59.87655690684091 41 63.42724609375 41 C 66.9779352806591 41 69.8563370028409 43.82060576 69.8563370028409 47.3 C 69.8563370028409 50.779394239999995 66.9779352806591 53.6 63.42724609375 53.6 C 59.87655690684091 53.6 56.99815518465909 50.779394239999995 56.99815518465909 47.3 Z"/></g><g transform="translate(5,10) scale(1,1)"><path fill="none" stroke="#000000" d="M 56.99815518465909 47.3 C 56.99815518465909 43.82060576 59.87655690684091 41 63.42724609375 41 C 66.9779352806591 41 69.8563370028409 43.82060576 69.8563370028409 47.3 C 69.8563370028409 50.779394239999995 66.9779352806591 53.6 63.42724609375 53.6 C 59.87655690684091 53.6 56.99815518465909 50.779394239999995 56.99815518465909 47.3 Z" stroke-miterlimit="10"/></g><g transform="translate(5,10) scale(1,1)"><path fill="none" stroke="#000000" d="M 63.42724609375 53.6 L 63.42724609375 66.4" stroke-miterlimit="10"/></g><g transform="translate(5,10) scale(1,1)"><path fill="none" stroke="#000000" d="M 56.619973366477275 58.4 L 70.23451882102273 58.4" stroke-miterlimit="10"/></g><g transform="translate(5,10) scale(1,1)"><path fill="none" stroke="#000000" d="M 63.42724609375 66.4 L 53.97270063920455 79" stroke-miterlimit="10"/></g><g transform="translate(5,10) scale(1,1)"><path fill="none" stroke="#000000" d="M 63.42724609375 66.4 L 72.88179154829545 79" stroke-miterlimit="10"/></g><g transform="translate(5,10) scale(1,1)"><g><path fill="none" stroke="none"/><text fill="#000000" stroke="none" font-family="Arial" font-size="13px" font-style="normal" font-weight="bold" text-decoration="none" x="16.81640625" y="99.5">Lifeline1: Actor1</text></g></g><g transform="translate(5,10) scale(1,1)"><path fill="none" stroke="#000000" d="M 64.5 105 L 64.5 896" stroke-miterlimit="10" stroke-dasharray="3"/></g><g transform="translate(5,10) scale(1,1)"><rect fill="#C0C0C0" stroke="none" x="151" y="47" width="219.052734375" height="39" opacity="0.2"/></g><g transform="translate(5,10) scale(1,1)"><rect fill="#ffffff" stroke="none" x="144" y="40" width="219.052734375" height="39"/></g><g transform="translate(5,10) scale(1,1)"><path fill="none" stroke="#000000" d="M 144 40 L 363.052734375 40 L 363.052734375 79 L 144 79 L 144 40 Z Z" stroke-miterlimit="10"/></g><g transform="translate(5,10) scale(1,1)"><g><path fill="none" stroke="none"/><text fill="#000000" stroke="none" font-family="Arial" font-size="13px" font-style="normal" font-weight="bold" text-decoration="none" x="167.550537109375" y="59.5">Fragment: ClientListFragment</text></g></g><g transform="translate(5,10) scale(1,1)"><path fill="none" stroke="#000000" d="M 254.5 80 L 254.5 888" stroke-miterlimit="10" stroke-dasharray="3"/></g><g transform="translate(5,10) scale(1,1)"><rect fill="#C0C0C0" stroke="none" x="535" y="47" width="172.841796875" height="39" opacity="0.2"/></g><g transform="translate(5,10) scale(1,1)"><rect fill="#ffffff" stroke="none" x="528" y="40" width="172.841796875" height="39"/></g><g transform="translate(5,10) scale(1,1)"><path fill="none" stroke="#000000" d="M 528 40 L 700.841796875 40 L 700.841796875 79 L 528 79 L 528 40 Z Z" stroke-miterlimit="10"/></g><g transform="translate(5,10) scale(1,1)"><g><path fill="none" stroke="none"/><text fill="#000000" stroke="none" font-family="Arial" font-size="13px" font-style="normal" font-weight="bold" text-decoration="none" x="544.345947265625" y="59.5">Controller: CrvController</text></g></g><g transform="translate(5,10) scale(1,1)"><path fill="none" stroke="#000000" d="M 615.5 80 L 615.5 880" stroke-miterlimit="10" stroke-dasharray="3"/></g><g transform="translate(5,10) scale(1,1)"><rect fill="#C0C0C0" stroke="none" x="743" y="47" width="172.14990234375" height="39" opacity="0.2"/></g><g transform="translate(5,10) scale(1,1)"><rect fill="#ffffff" stroke="none" x="736" y="40" width="172.14990234375" height="39"/></g><g transform="translate(5,10) scale(1,1)"><path fill="none" stroke="#000000" d="M 736 40 L 908.14990234375 40 L 908.14990234375 79 L 736 79 L 736 40 Z Z" stroke-miterlimit="10"/></g><g transform="translate(5,10) scale(1,1)"><g><path fill="none" stroke="none"/><text fill="#000000" stroke="none" font-family="Arial" font-size="13px" font-style="normal" font-weight="bold" text-decoration="none" x="753.094970703125" y="59.5">Activity: CrvMainActivity</text></g></g><g transform="translate(5,10) scale(1,1)"><path fill="none" stroke="#000000" d="M 823.5 80 L 823.5 896" stroke-miterlimit="10" stroke-dasharray="3"/></g><g transform="translate(5,10) scale(1,1)"><rect fill="#C0C0C0" stroke="none" x="951" y="47" width="183.00439453125" height="39" opacity="0.2"/></g><g transform="translate(5,10) scale(1,1)"><rect fill="#ffffff" stroke="none" x="944" y="40" width="183.00439453125" height="39"/></g><g transform="translate(5,10) scale(1,1)"><path fill="none" stroke="#000000" d="M 944 40 L 1127.00439453125 40 L 1127.00439453125 79 L 944 79 L 944 40 Z Z" stroke-miterlimit="10"/></g><g transform="translate(5,10) scale(1,1)"><g><path fill="none" stroke="none"/><text fill="#000000" stroke="none" font-family="Arial" font-size="13px" font-style="normal" font-weight="bold" text-decoration="none" x="961.101318359375" y="59.5">Activity: CreateCrvActivity</text></g></g><g transform="translate(5,10) scale(1,1)"><path fill="none" stroke="#000000" d="M 1036.5 80 L 1036.5 888" stroke-miterlimit="10" stroke-dasharray="3"/></g><g transform="translate(5,10) scale(1,1)"><rect fill="#C0C0C0" stroke="none" x="1159" y="47" width="91.9853515625" height="39" opacity="0.2"/></g><g transform="translate(5,10) scale(1,1)"><rect fill="#ffffff" stroke="none" x="1152" y="40" width="91.9853515625" height="39"/></g><g transform="translate(5,10) scale(1,1)"><path fill="none" stroke="#000000" d="M 1152 40 L 1243.9853515625 40 L 1243.9853515625 79 L 1152 79 L 1152 40 Z Z" stroke-miterlimit="10"/></g><g transform="translate(5,10) scale(1,1)"><g><path fill="none" stroke="none"/><text fill="#000000" stroke="none" font-family="Arial" font-size="13px" font-style="normal" font-weight="normal" text-decoration="none" x="1180.2890625" y="57.5">«war»</text></g></g><g transform="translate(5,10) scale(1,1)"><g><path fill="none" stroke="none"/><text fill="#000000" stroke="none" font-family="Arial" font-size="13px" font-style="normal" font-weight="bold" text-decoration="none" x="1163.318603515625" y="72.5">Server-Rest</text></g></g><g transform="translate(5,10) scale(1,1)"><path fill="none" stroke="#000000" d="M 1198.5 80 L 1198.5 888" stroke-miterlimit="10" stroke-dasharray="3"/></g><g transform="translate(5,10) scale(1,1)"><path fill="none" stroke="#000000" d="M 64 130 L 247 130" stroke-miterlimit="10"/></g><g transform="translate(5,10) scale(1,1)"><path fill="#000000" stroke="none" d="M 236.83732514237585 134.209517756016 L 247 130 L 236.83732514237585 125.79048224398402"/></g><g transform="translate(5,10) scale(1,1)"><path fill="none" stroke="#000000" d="M 236.83732514237585 134.209517756016 L 247 130 L 236.83732514237585 125.79048224398402 L 236.83732514237585 134.209517756016" stroke-miterlimit="10"/></g><g transform="translate(5,10) scale(1,1)"><g><path fill="none" stroke="none"/><text fill="#000000" stroke="none" font-family="Arial" font-size="13px" font-style="normal" font-weight="normal" text-decoration="none" x="99" y="127">1 : clicks on a client</text></g></g><g transform="translate(5,10) scale(1,1)"><rect fill="#ffffff" stroke="none" x="247" y="130" width="13" height="28"/></g><g transform="translate(5,10) scale(1,1)"><path fill="none" stroke="#000000" d="M 247 130 L 260 130 L 260 158 L 247 158 L 247 130 Z Z" stroke-miterlimit="10"/></g><g transform="translate(5,10) scale(1,1)"><path fill="none" stroke="#000000" d="M 254 176 L 284 176 L 284 196 L 260 196" stroke-miterlimit="10"/></g><g transform="translate(5,10) scale(1,1)"><path fill="#000000" stroke="none" d="M 270.16267485762415 191.790482243984 L 260 196 L 270.16267485762415 200.209517756016"/></g><g transform="translate(5,10) scale(1,1)"><path fill="none" stroke="#000000" d="M 270.16267485762415 191.790482243984 L 260 196 L 270.16267485762415 200.209517756016 L 270.16267485762415 191.790482243984" stroke-miterlimit="10"/></g><g transform="translate(5,10) scale(1,1)"><g><path fill="none" stroke="none"/><text fill="#000000" stroke="none" font-family="Arial" font-size="13px" font-style="normal" font-weight="normal" text-decoration="none" x="232" y="192">2 : launchListDialog()</text></g></g><g transform="translate(5,10) scale(1,1)"><rect fill="#ffffff" stroke="none" x="247" y="196" width="13" height="28"/></g><g transform="translate(5,10) scale(1,1)"><path fill="none" stroke="#000000" d="M 247 196 L 260 196 L 260 224 L 247 224 L 247 196 Z Z" stroke-miterlimit="10"/></g><g transform="translate(5,10) scale(1,1)"><path fill="none" stroke="#000000" d="M 64 228 L 247 228" stroke-miterlimit="10"/></g><g transform="translate(5,10) scale(1,1)"><path fill="#000000" stroke="none" d="M 236.83732514237585 232.209517756016 L 247 228 L 236.83732514237585 223.790482243984"/></g><g transform="translate(5,10) scale(1,1)"><path fill="none" stroke="#000000" d="M 236.83732514237585 232.209517756016 L 247 228 L 236.83732514237585 223.790482243984 L 236.83732514237585 232.209517756016" stroke-miterlimit="10"/></g><g transform="translate(5,10) scale(1,1)"><g><path fill="none" stroke="none"/><text fill="#000000" stroke="none" font-family="Arial" font-size="13px" font-style="normal" font-weight="normal" text-decoration="none" x="109" y="225">3 : clicks on visit</text></g></g><g transform="translate(5,10) scale(1,1)"><rect fill="#ffffff" stroke="none" x="247" y="228" width="13" height="28"/></g><g transform="translate(5,10) scale(1,1)"><path fill="none" stroke="#000000" d="M 247 228 L 260 228 L 260 256 L 247 256 L 247 228 Z Z" stroke-miterlimit="10"/></g><g transform="translate(5,10) scale(1,1)"><path fill="none" stroke="#000000" d="M 254 264 L 608 264" stroke-miterlimit="10"/></g><g transform="translate(5,10) scale(1,1)"><path fill="#000000" stroke="none" d="M 597.8373251423759 268.209517756016 L 608 264 L 597.8373251423758 259.790482243984"/></g><g transform="translate(5,10) scale(1,1)"><path fill="none" stroke="#000000" d="M 597.8373251423759 268.209517756016 L 608 264 L 597.8373251423758 259.790482243984 L 597.8373251423759 268.209517756016" stroke-miterlimit="10"/></g><g transform="translate(5,10) scale(1,1)"><g><path fill="none" stroke="none"/><text fill="#000000" stroke="none" font-family="Arial" font-size="13px" font-style="normal" font-weight="normal" text-decoration="none" x="277" y="261">4 : new CrvController().getAllReportForClient(clientId)</text></g></g><g transform="translate(5,10) scale(1,1)"><rect fill="#ffffff" stroke="none" x="608" y="264" width="13" height="28"/></g><g transform="translate(5,10) scale(1,1)"><path fill="none" stroke="#000000" d="M 608 264 L 621 264 L 621 292 L 608 292 L 608 264 Z Z" stroke-miterlimit="10"/></g><g transform="translate(5,10) scale(1,1)"><path fill="none" stroke="#000000" d="M 615 304 L 1191 304" stroke-miterlimit="10"/></g><g transform="translate(5,10) scale(1,1)"><path fill="#000000" stroke="none" d="M 1180.837325142376 308.209517756016 L 1191 304 L 1180.837325142376 299.790482243984"/></g><g transform="translate(5,10) scale(1,1)"><path fill="none" stroke="#000000" d="M 1180.837325142376 308.209517756016 L 1191 304 L 1180.837325142376 299.790482243984 L 1180.837325142376 308.209517756016" stroke-miterlimit="10"/></g><g transform="translate(5,10) scale(1,1)"><g><path fill="none" stroke="none"/><text fill="#000000" stroke="none" font-family="Arial" font-size="13px" font-style="normal" font-weight="normal" text-decoration="none" x="830" y="301">5 : getReportList(idClient)</text></g></g><g transform="translate(5,10) scale(1,1)"><rect fill="#ffffff" stroke="none" x="1191" y="304" width="13" height="28"/></g><g transform="translate(5,10) scale(1,1)"><path fill="none" stroke="#000000" d="M 1191 304 L 1204 304 L 1204 332 L 1191 332 L 1191 304 Z Z" stroke-miterlimit="10"/></g><g transform="translate(5,10) scale(1,1)"><path fill="none" stroke="#000000" d="M 1198 369 L 621 369" stroke-miterlimit="10"/></g><g transform="translate(5,10) scale(1,1)"><path fill="none" stroke="#000000" d="M 631.1626748576241 364.790482243984 L 621 369 L 631.1626748576241 373.209517756016" stroke-miterlimit="10"/></g><g transform="translate(5,10) scale(1,1)"><g><path fill="none" stroke="none"/><text fill="#000000" stroke="none" font-family="Arial" font-size="13px" font-style="normal" font-weight="normal" text-decoration="none" x="837" y="386">6 : onResponse( Report)</text></g></g><g transform="translate(5,10) scale(1,1)"><rect fill="#ffffff" stroke="none" x="608" y="369" width="13" height="28"/></g><g transform="translate(5,10) scale(1,1)"><path fill="none" stroke="#000000" d="M 608 369 L 621 369 L 621 397 L 608 397 L 608 369 Z Z" stroke-miterlimit="10"/></g><g transform="translate(5,10) scale(1,1)"><path fill="none" stroke="#000000" d="M 615 433 L 816 433" stroke-miterlimit="10"/></g><g transform="translate(5,10) scale(1,1)"><path fill="#000000" stroke="none" d="M 805.8373251423759 437.209517756016 L 816 433 L 805.8373251423758 428.790482243984"/></g><g transform="translate(5,10) scale(1,1)"><path fill="none" stroke="#000000" d="M 805.8373251423759 437.209517756016 L 816 433 L 805.8373251423758 428.790482243984 L 805.8373251423759 437.209517756016" stroke-miterlimit="10"/></g><g transform="translate(5,10) scale(1,1)"><g><path fill="none" stroke="none"/><text fill="#000000" stroke="none" font-family="Arial" font-size="13px" font-style="normal" font-weight="normal" text-decoration="none" x="653" y="430">7 : startActivity(intent)</text></g></g><g transform="translate(5,10) scale(1,1)"><rect fill="#ffffff" stroke="none" x="816" y="433" width="13" height="28"/></g><g transform="translate(5,10) scale(1,1)"><path fill="none" stroke="#000000" d="M 816 433 L 829 433 L 829 461 L 816 461 L 816 433 Z Z" stroke-miterlimit="10"/></g><g transform="translate(5,10) scale(1,1)"><path fill="none" stroke="#000000" d="M 823 464 L 853 464 L 853 484 L 829 484" stroke-miterlimit="10"/></g><g transform="translate(5,10) scale(1,1)"><path fill="#000000" stroke="none" d="M 839.1626748576241 479.790482243984 L 829 484 L 839.1626748576241 488.209517756016"/></g><g transform="translate(5,10) scale(1,1)"><path fill="none" stroke="#000000" d="M 839.1626748576241 479.790482243984 L 829 484 L 839.1626748576241 488.209517756016 L 839.1626748576241 479.790482243984" stroke-miterlimit="10"/></g><g transform="translate(5,10) scale(1,1)"><g><path fill="none" stroke="none"/><text fill="#000000" stroke="none" font-family="Arial" font-size="13px" font-style="normal" font-weight="normal" text-decoration="none" x="787" y="480">8 : ReportAdapter(Report)</text></g></g><g transform="translate(5,10) scale(1,1)"><rect fill="#ffffff" stroke="none" x="816" y="484" width="13" height="28"/></g><g transform="translate(5,10) scale(1,1)"><path fill="none" stroke="#000000" d="M 816 484 L 829 484 L 829 512 L 816 512 L 816 484 Z Z" stroke-miterlimit="10"/></g><g transform="translate(5,10) scale(1,1)"><path fill="none" stroke="#000000" d="M 64 536 L 816 536" stroke-miterlimit="10"/></g><g transform="translate(5,10) scale(1,1)"><path fill="#000000" stroke="none" d="M 805.8373251423759 540.209517756016 L 816 536 L 805.8373251423758 531.790482243984"/></g><g transform="translate(5,10) scale(1,1)"><path fill="none" stroke="#000000" d="M 805.8373251423759 540.209517756016 L 816 536 L 805.8373251423758 531.790482243984 L 805.8373251423759 540.209517756016" stroke-miterlimit="10"/></g><g transform="translate(5,10) scale(1,1)"><g><path fill="none" stroke="none"/><text fill="#000000" stroke="none" font-family="Arial" font-size="13px" font-style="normal" font-weight="normal" text-decoration="none" x="382" y="533">9 : clicks on a report</text></g></g><g transform="translate(5,10) scale(1,1)"><rect fill="#ffffff" stroke="none" x="816" y="536" width="13" height="28"/></g><g transform="translate(5,10) scale(1,1)"><path fill="none" stroke="#000000" d="M 816 536 L 829 536 L 829 564 L 816 564 L 816 536 Z Z" stroke-miterlimit="10"/></g><g transform="translate(5,10) scale(1,1)"><path fill="none" stroke="#000000" d="M 823 579 L 1029 579" stroke-miterlimit="10"/></g><g transform="translate(5,10) scale(1,1)"><path fill="#000000" stroke="none" d="M 1018.8373251423759 583.209517756016 L 1029 579 L 1018.8373251423758 574.790482243984"/></g><g transform="translate(5,10) scale(1,1)"><path fill="none" stroke="#000000" d="M 1018.8373251423759 583.209517756016 L 1029 579 L 1018.8373251423758 574.790482243984 L 1018.8373251423759 583.209517756016" stroke-miterlimit="10"/></g><g transform="translate(5,10) scale(1,1)"><g><path fill="none" stroke="none"/><text fill="#000000" stroke="none" font-family="Arial" font-size="13px" font-style="normal" font-weight="normal" text-decoration="none" x="826" y="576">10 : startActivity(CreateCrvActivity)</text></g></g><g transform="translate(5,10) scale(1,1)"><rect fill="#ffffff" stroke="none" x="1029" y="579" width="13" height="28"/></g><g transform="translate(5,10) scale(1,1)"><path fill="none" stroke="#000000" d="M 1029 579 L 1042 579 L 1042 607 L 1029 607 L 1029 579 Z Z" stroke-miterlimit="10"/></g></g></svg>