<svg version="1.1" xmlns="http://www.w3.org/2000/svg" xmlns:xlink="http://www.w3.org/1999/xlink" width="1060" height="924"><defs/><g><g transform="translate(2,-6) scale(1,1)"><rect fill="#C0C0C0" stroke="none" x="15" y="23" width="416" height="15" opacity="0.2"/></g><g transform="translate(2,-6) scale(1,1)"><rect fill="#C0C0C0" stroke="none" x="15" y="37" width="1040" height="890" opacity="0.2"/></g><g transform="translate(2,-6) scale(1,1)"><rect fill="#ffffff" stroke="none" x="8" y="31" width="1040" height="889"/></g><g transform="translate(2,-6) scale(1,1)"><path fill="none" stroke="#000000" d="M 8 31 L 1048 31 L 1048 920 L 8 920 L 8 31 Z Z" stroke-miterlimit="10"/></g><g transform="translate(2,-6) scale(1,1)"><rect fill="#ffffff" stroke="none" x="8" y="16" width="416" height="15"/></g><g transform="translate(2,-6) scale(1,1)"><path fill="none" stroke="#000000" d="M 8 16 L 424 16 L 424 31 L 8 31 L 8 16 Z Z" stroke-miterlimit="10"/></g><g transform="translate(2,-6) scale(1,1)"><rect fill="#ffffff" stroke="none" x="8" y="30" width="1040" height="890"/></g><g transform="translate(2,-6) scale(1,1)"><path fill="none" stroke="#000000" d="M 8 30 L 1048 30 L 1048 920 L 8 920 L 8 30 Z Z" stroke-miterlimit="10"/></g><g transform="translate(2,-6) scale(1,1)"><g><path fill="none" stroke="none"/><text fill="#000000" stroke="none" font-family="Arial" font-size="13px" font-style="normal" font-weight="bold" text-decoration="none" x="496.94091796875" y="50.5">server-rest</text></g></g><g transform="translate(2,-6) scale(1,1)"><rect fill="#C0C0C0" stroke="none" x="63" y="135" width="126.80000000000001" height="15" opacity="0.2"/></g><g transform="translate(2,-6) scale(1,1)"><rect fill="#C0C0C0" stroke="none" x="63" y="149" width="317" height="229" opacity="0.2"/></g><g transform="translate(2,-6) scale(1,1)"><rect fill="#ffffff" stroke="none" x="56" y="143" width="317" height="228"/></g><g transform="translate(2,-6) scale(1,1)"><path fill="none" stroke="#000000" d="M 56 143 L 373 143 L 373 371 L 56 371 L 56 143 Z Z" stroke-miterlimit="10"/></g><g transform="translate(2,-6) scale(1,1)"><rect fill="#ffffff" stroke="none" x="56" y="128" width="126.80000000000001" height="15"/></g><g transform="translate(2,-6) scale(1,1)"><path fill="none" stroke="#000000" d="M 56 128 L 182.8 128 L 182.8 143 L 56 143 L 56 128 Z Z" stroke-miterlimit="10"/></g><g transform="translate(2,-6) scale(1,1)"><rect fill="#ffffff" stroke="none" x="56" y="142" width="317" height="229"/></g><g transform="translate(2,-6) scale(1,1)"><path fill="none" stroke="#000000" d="M 56 142 L 373 142 L 373 371 L 56 371 L 56 142 Z Z" stroke-miterlimit="10"/></g><g transform="translate(2,-6) scale(1,1)"><g><path fill="none" stroke="none"/><text fill="#000000" stroke="none" font-family="Arial" font-size="13px" font-style="normal" font-weight="bold" text-decoration="none" x="187.766845703125" y="162.5">controller</text></g></g><g transform="translate(2,-6) scale(1,1)"><rect fill="#C0C0C0" stroke="none" x="423" y="183" width="93.60000000000002" height="15" opacity="0.2"/></g><g transform="translate(2,-6) scale(1,1)"><rect fill="#C0C0C0" stroke="none" x="423" y="197" width="234" height="130" opacity="0.2"/></g><g transform="translate(2,-6) scale(1,1)"><rect fill="#ffffff" stroke="none" x="416" y="191" width="234" height="129"/></g><g transform="translate(2,-6) scale(1,1)"><path fill="none" stroke="#000000" d="M 416 191 L 650 191 L 650 320 L 416 320 L 416 191 Z Z" stroke-miterlimit="10"/></g><g transform="translate(2,-6) scale(1,1)"><rect fill="#ffffff" stroke="none" x="416" y="176" width="93.60000000000002" height="15"/></g><g transform="translate(2,-6) scale(1,1)"><path fill="none" stroke="#000000" d="M 416 176 L 509.6 176 L 509.6 191 L 416 191 L 416 176 Z Z" stroke-miterlimit="10"/></g><g transform="translate(2,-6) scale(1,1)"><rect fill="#ffffff" stroke="none" x="416" y="190" width="234" height="130"/></g><g transform="translate(2,-6) scale(1,1)"><path fill="none" stroke="#000000" d="M 416 190 L 650 190 L 650 320 L 416 320 L 416 190 Z Z" stroke-miterlimit="10"/></g><g transform="translate(2,-6) scale(1,1)"><g><path fill="none" stroke="none"/><text fill="#000000" stroke="none" font-family="Arial" font-size="13px" font-style="normal" font-weight="bold" text-decoration="none" x="512.411376953125" y="210.5">service</text></g></g><g transform="translate(2,-6) scale(1,1)"><g><path fill="none" stroke="none"/><text fill="#000000" stroke="none" font-family="Arial" font-size="13px" font-style="normal" font-weight="normal" text-decoration="none" x="482.805908203125" y="225.5">(from server-rest)</text></g></g><g transform="translate(2,-6) scale(1,1)"><rect fill="#C0C0C0" stroke="none" x="119" y="210" width="158.55078125" height="72" opacity="0.2"/></g><g transform="translate(2,-6) scale(1,1)"><rect fill="#ffffff" stroke="none" x="112" y="203" width="158.55078125" height="72"/></g><g transform="translate(2,-6) scale(1,1)"><path fill="none" stroke="#000000" d="M 112 203 L 270.55078125 203 L 270.55078125 275 L 112 275 L 112 203 Z Z" stroke-miterlimit="10"/></g><g transform="translate(2,-6) scale(1,1)"><path fill="none" stroke="#000000" d="M 112 243 L 270.55078125 243" stroke-miterlimit="10"/></g><g transform="translate(2,-6) scale(1,1)"><path fill="none" stroke="#000000" d="M 112 253 L 270.55078125 253" stroke-miterlimit="10"/></g><g transform="translate(2,-6) scale(1,1)"><g><path fill="none" stroke="none"/><text fill="#000000" stroke="none" font-family="Arial" font-size="13px" font-style="normal" font-weight="bold" text-decoration="none" x="137.447265625" y="222.5">ProspectController</text></g></g><g transform="translate(2,-6) scale(1,1)"><g><path fill="none" stroke="none"/><text fill="#000000" stroke="none" font-family="Arial" font-size="13px" font-style="normal" font-weight="normal" text-decoration="none" x="145.4072265625" y="237.5">(from controller)</text></g></g><g transform="translate(2,-6) scale(1,1)"><g><path fill="none" stroke="none"/><text fill="#000000" stroke="none" font-family="Arial" font-size="13px" font-style="normal" font-weight="normal" text-decoration="none" x="117" y="270.5">-getProspectByTurnover()</text></g></g><g transform="translate(2,-6) scale(1,1)"><path fill="none" stroke="#000000" d="M 463 265 L 349.852294921875 246.87478872445914" stroke-miterlimit="10"/></g><g transform="translate(2,-6) scale(1,1)"><path fill="none" stroke="#000000" d="M 272 248 L 326.852294921875 244.53007716758577" stroke-miterlimit="10"/></g><g transform="translate(2,-6) scale(1,1)"><rect fill="#C0C0C0" stroke="none" x="471" y="247" width="109.38818359375" height="59" opacity="0.2"/></g><g transform="translate(2,-6) scale(1,1)"><rect fill="#ffffff" stroke="none" x="464" y="240" width="109.38818359375" height="59"/></g><g transform="translate(2,-6) scale(1,1)"><path fill="none" stroke="#000000" d="M 464 240 L 573.38818359375 240 L 573.38818359375 299 L 464 299 L 464 240 Z Z" stroke-miterlimit="10"/></g><g transform="translate(2,-6) scale(1,1)"><path fill="none" stroke="#000000" d="M 464 280 L 573.38818359375 280" stroke-miterlimit="10"/></g><g transform="translate(2,-6) scale(1,1)"><path fill="none" stroke="#000000" d="M 464 290 L 573.38818359375 290" stroke-miterlimit="10"/></g><g transform="translate(2,-6) scale(1,1)"><g><path fill="none" stroke="none"/><text fill="#000000" stroke="none" font-family="Arial" font-size="13px" font-style="normal" font-weight="bold" text-decoration="none" x="477.1455078125" y="259.5">MongoService</text></g></g><g transform="translate(2,-6) scale(1,1)"><g><path fill="none" stroke="none"/><text fill="#000000" stroke="none" font-family="Arial" font-size="13px" font-style="normal" font-weight="normal" text-decoration="none" x="468.5" y="274.5">(from server-rest)</text></g></g><g transform="translate(2,-6) scale(1,1)"><path fill="#C0C0C0" stroke="none" d="M 333.852294921875 250.5 C 333.852294921875 244.1487248 339.001019721875 239 345.352294921875 239 C 351.703570121875 239 356.852294921875 244.1487248 356.852294921875 250.5 C 356.852294921875 256.8512752 351.703570121875 262 345.352294921875 262 C 339.001019721875 262 333.852294921875 256.8512752 333.852294921875 250.5 Z" opacity="0.2"/></g><g transform="translate(2,-6) scale(1,1)"><path fill="none" stroke="#000000" d="M 339.5637702383952 254.39318316545072 A 11.5 11.5 0 0 1 336.4362297616048 231.60681683454928" stroke-miterlimit="10"/></g><g transform="translate(2,-6) scale(1,1)"><path fill="#ffffff" stroke="none" d="M 329.852294921875 243.5 C 329.852294921875 238.8055792 333.657874121875 235 338.352294921875 235 C 343.046715721875 235 346.852294921875 238.8055792 346.852294921875 243.5 C 346.852294921875 248.1944208 343.046715721875 252 338.352294921875 252 C 333.657874121875 252 329.852294921875 248.1944208 329.852294921875 243.5 Z"/></g><g transform="translate(2,-6) scale(1,1)"><path fill="none" stroke="#000000" d="M 329.852294921875 243.5 C 329.852294921875 238.8055792 333.657874121875 235 338.352294921875 235 C 343.046715721875 235 346.852294921875 238.8055792 346.852294921875 243.5 C 346.852294921875 248.1944208 343.046715721875 252 338.352294921875 252 C 333.657874121875 252 329.852294921875 248.1944208 329.852294921875 243.5 Z" stroke-miterlimit="10"/></g><g transform="translate(2,-6) scale(1,1)"><g><path fill="none" stroke="none"/><text fill="#000000" stroke="none" font-family="Arial" font-size="13px" font-style="normal" font-weight="bold" text-decoration="none" x="296.080078125" y="274.5">MorphiaConfig</text></g></g><g transform="translate(2,-6) scale(1,1)"><rect fill="#C0C0C0" stroke="none" x="455" y="87" width="131.08447265625" height="44" opacity="0.2"/></g><g transform="translate(2,-6) scale(1,1)"><rect fill="#ffffff" stroke="none" x="448" y="80" width="131.08447265625" height="44"/></g><g transform="translate(2,-6) scale(1,1)"><path fill="none" stroke="#000000" d="M 448 80 L 579.08447265625 80 L 579.08447265625 124 L 448 124 L 448 80 Z Z" stroke-miterlimit="10"/></g><g transform="translate(2,-6) scale(1,1)"><path fill="none" stroke="#000000" d="M 448 105 L 579.08447265625 105" stroke-miterlimit="10"/></g><g transform="translate(2,-6) scale(1,1)"><path fill="none" stroke="#000000" d="M 448 115 L 579.08447265625 115" stroke-miterlimit="10"/></g><g transform="translate(2,-6) scale(1,1)"><g><path fill="none" stroke="none"/><text fill="#000000" stroke="none" font-family="Arial" font-size="13px" font-style="normal" font-weight="bold" text-decoration="none" x="457.905029296875" y="99.5">java.util.Collections</text></g></g><g transform="translate(2,-6) scale(1,1)"><path fill="none" stroke="#000000" d="M 272 205 L 459 125" stroke-miterlimit="10" stroke-dasharray="3"/></g><g transform="translate(2,-6) scale(1,1)"><path fill="none" stroke="#000000" d="M 451.3121575300926 132.86746961594946 L 459 125 L 448.00073334061756 125.12701557305154" stroke-miterlimit="10"/></g><g transform="translate(2,-6) scale(1,1)"><rect fill="#C0C0C0" stroke="none" x="47" y="399" width="201.6" height="15" opacity="0.2"/></g><g transform="translate(2,-6) scale(1,1)"><rect fill="#C0C0C0" stroke="none" x="47" y="413" width="504" height="331" opacity="0.2"/></g><g transform="translate(2,-6) scale(1,1)"><rect fill="#ffffff" stroke="none" x="40" y="407" width="504" height="330"/></g><g transform="translate(2,-6) scale(1,1)"><path fill="none" stroke="#000000" d="M 40 407 L 544 407 L 544 737 L 40 737 L 40 407 Z Z" stroke-miterlimit="10"/></g><g transform="translate(2,-6) scale(1,1)"><rect fill="#ffffff" stroke="none" x="40" y="392" width="201.6" height="15"/></g><g transform="translate(2,-6) scale(1,1)"><path fill="none" stroke="#000000" d="M 40 392 L 241.6 392 L 241.6 407 L 40 407 L 40 392 Z Z" stroke-miterlimit="10"/></g><g transform="translate(2,-6) scale(1,1)"><rect fill="#ffffff" stroke="none" x="40" y="406" width="504" height="331"/></g><g transform="translate(2,-6) scale(1,1)"><path fill="none" stroke="#000000" d="M 40 406 L 544 406 L 544 737 L 40 737 L 40 406 Z Z" stroke-miterlimit="10"/></g><g transform="translate(2,-6) scale(1,1)"><g><path fill="none" stroke="none"/><text fill="#000000" stroke="none" font-family="Arial" font-size="13px" font-style="normal" font-weight="bold" text-decoration="none" x="281.155029296875" y="426.5">dao</text></g></g><g transform="translate(2,-6) scale(1,1)"><g><path fill="none" stroke="none"/><text fill="#000000" stroke="none" font-family="Arial" font-size="13px" font-style="normal" font-weight="normal" text-decoration="none" x="241.805908203125" y="441.5">(from server-rest)</text></g></g><g transform="translate(2,-6) scale(1,1)"><rect fill="#C0C0C0" stroke="none" x="567" y="335" width="181.20000000000005" height="15" opacity="0.2"/></g><g transform="translate(2,-6) scale(1,1)"><rect fill="#C0C0C0" stroke="none" x="567" y="349" width="453" height="378" opacity="0.2"/></g><g transform="translate(2,-6) scale(1,1)"><rect fill="#ffffff" stroke="none" x="560" y="343" width="453" height="377"/></g><g transform="translate(2,-6) scale(1,1)"><path fill="none" stroke="#000000" d="M 560 343 L 1013 343 L 1013 720 L 560 720 L 560 343 Z Z" stroke-miterlimit="10"/></g><g transform="translate(2,-6) scale(1,1)"><rect fill="#ffffff" stroke="none" x="560" y="328" width="181.20000000000005" height="15"/></g><g transform="translate(2,-6) scale(1,1)"><path fill="none" stroke="#000000" d="M 560 328 L 741.2 328 L 741.2 343 L 560 343 L 560 328 Z Z" stroke-miterlimit="10"/></g><g transform="translate(2,-6) scale(1,1)"><rect fill="#ffffff" stroke="none" x="560" y="342" width="453" height="378"/></g><g transform="translate(2,-6) scale(1,1)"><path fill="none" stroke="#000000" d="M 560 342 L 1013 342 L 1013 720 L 560 720 L 560 342 Z Z" stroke-miterlimit="10"/></g><g transform="translate(2,-6) scale(1,1)"><path fill="none" stroke="#000000" d="M 732.2 331 L 726.2 338 L 738.2 338 L 732.2 331" stroke-miterlimit="10"/></g><g transform="translate(2,-6) scale(1,1)"><g><path fill="none" stroke="none"/><text fill="#000000" stroke="none" font-family="Arial" font-size="13px" font-style="normal" font-weight="bold" text-decoration="none" x="768.79638671875" y="362.5">model</text></g></g><g transform="translate(2,-6) scale(1,1)"><g><path fill="none" stroke="none"/><text fill="#000000" stroke="none" font-family="Arial" font-size="13px" font-style="normal" font-weight="normal" text-decoration="none" x="736.305908203125" y="377.5">(from server-rest)</text></g></g><g transform="translate(2,-6) scale(1,1)"><rect fill="#C0C0C0" stroke="none" x="74" y="527" width="115.91357421875" height="72" opacity="0.2"/></g><g transform="translate(2,-6) scale(1,1)"><rect fill="#ffffff" stroke="none" x="67" y="520" width="115.91357421875" height="72"/></g><g transform="translate(2,-6) scale(1,1)"><path fill="none" stroke="#000000" d="M 67 520 L 182.91357421875 520 L 182.91357421875 592 L 67 592 L 67 520 Z Z" stroke-miterlimit="10"/></g><g transform="translate(2,-6) scale(1,1)"><path fill="none" stroke="#000000" d="M 67 560 L 182.91357421875 560" stroke-miterlimit="10"/></g><g transform="translate(2,-6) scale(1,1)"><path fill="none" stroke="#000000" d="M 67 570 L 182.91357421875 570" stroke-miterlimit="10"/></g><g transform="translate(2,-6) scale(1,1)"><g><path fill="none" stroke="none"/><text fill="#000000" stroke="none" font-family="Arial" font-size="13px" font-style="normal" font-weight="bold" text-decoration="none" x="75.102294921875" y="539.5">ProspectDaoImpl</text></g></g><g transform="translate(2,-6) scale(1,1)"><g><path fill="none" stroke="none"/><text fill="#000000" stroke="none" font-family="Arial" font-size="13px" font-style="normal" font-weight="normal" text-decoration="none" x="94.976806640625" y="554.5">(from dao)</text></g></g><g transform="translate(2,-6) scale(1,1)"><g><path fill="none" stroke="none"/><text fill="#000000" stroke="none" font-family="Arial" font-size="13px" font-style="normal" font-weight="normal" text-decoration="none" x="72" y="587.5">+getListProspect()</text></g></g><g transform="translate(2,-6) scale(1,1)"><rect fill="#C0C0C0" stroke="none" x="175" y="831" width="156.32275390625" height="44" opacity="0.2"/></g><g transform="translate(2,-6) scale(1,1)"><rect fill="#ffffff" stroke="none" x="168" y="824" width="156.32275390625" height="44"/></g><g transform="translate(2,-6) scale(1,1)"><path fill="none" stroke="#000000" d="M 168 824 L 324.32275390625 824 L 324.32275390625 868 L 168 868 L 168 824 Z Z" stroke-miterlimit="10"/></g><g transform="translate(2,-6) scale(1,1)"><path fill="none" stroke="#000000" d="M 168 849 L 324.32275390625 849" stroke-miterlimit="10"/></g><g transform="translate(2,-6) scale(1,1)"><path fill="none" stroke="#000000" d="M 168 859 L 324.32275390625 859" stroke-miterlimit="10"/></g><g transform="translate(2,-6) scale(1,1)"><g><path fill="none" stroke="none"/><text fill="#000000" stroke="none" font-family="Arial" font-size="13px" font-style="normal" font-weight="bold" text-decoration="none" x="178.23193359375" y="843.5">org.mongodb.morphia.*</text></g></g><g transform="translate(2,-6) scale(1,1)"><path fill="none" stroke="#000000" d="M 140 593 L 236 823" stroke-miterlimit="10" stroke-dasharray="3"/></g><g transform="translate(2,-6) scale(1,1)"><path fill="none" stroke="#000000" d="M 228.20078040170677 815.2429275072616 L 236 823 L 235.97019749585476 812.0000403723129" stroke-miterlimit="10"/></g><g transform="translate(2,-6) scale(1,1)"><path fill="#C0C0C0" stroke="none" d="M 99.259521484375 434.5 C 99.259521484375 428.1487248 104.408246284375 423 110.759521484375 423 C 117.110796684375 423 122.259521484375 428.1487248 122.259521484375 434.5 C 122.259521484375 440.8512752 117.110796684375 446 110.759521484375 446 C 104.408246284375 446 99.259521484375 440.8512752 99.259521484375 434.5 Z" opacity="0.2"/></g><g transform="translate(2,-6) scale(1,1)"><path fill="none" stroke="#000000" d="M 95.51589920525635 418.2685490727991 A 11.5 11.5 0 0 1 110.48410079474364 435.7314509272009" stroke-miterlimit="10"/></g><g transform="translate(2,-6) scale(1,1)"><path fill="#ffffff" stroke="none" d="M 95.259521484375 427.5 C 95.259521484375 422.8055792 99.065100684375 419 103.759521484375 419 C 108.453942284375 419 112.259521484375 422.8055792 112.259521484375 427.5 C 112.259521484375 432.1944208 108.453942284375 436 103.759521484375 436 C 99.065100684375 436 95.259521484375 432.1944208 95.259521484375 427.5 Z"/></g><g transform="translate(2,-6) scale(1,1)"><path fill="none" stroke="#000000" d="M 95.259521484375 427.5 C 95.259521484375 422.8055792 99.065100684375 419 103.759521484375 419 C 108.453942284375 419 112.259521484375 422.8055792 112.259521484375 427.5 C 112.259521484375 432.1944208 108.453942284375 436 103.759521484375 436 C 99.065100684375 436 95.259521484375 432.1944208 95.259521484375 427.5 Z" stroke-miterlimit="10"/></g><g transform="translate(2,-6) scale(1,1)"><g><path fill="none" stroke="none"/><text fill="#000000" stroke="none" font-family="Arial" font-size="13px" font-style="normal" font-weight="bold" text-decoration="none" x="64.023193359375" y="458.5">ProspectDAO</text></g></g><g transform="translate(2,-6) scale(1,1)"><g><path fill="none" stroke="none"/><text fill="#000000" stroke="none" font-family="Arial" font-size="13px" font-style="normal" font-weight="normal" text-decoration="none" x="73.779541015625" y="473.5">(from dao)</text></g></g><g transform="translate(2,-6) scale(1,1)"><path fill="none" stroke="#000000" d="M 117 519 L 104.35849056603773 439" stroke-miterlimit="10"/></g><g transform="translate(2,-6) scale(1,1)"><path fill="none" stroke="#000000" d="M 175 276 L 115.259521484375 416.49183872767856" stroke-miterlimit="10"/></g><g transform="translate(2,-6) scale(1,1)"><rect fill="#C0C0C0" stroke="none" x="658" y="412" width="125.3271484375" height="207" opacity="0.2"/></g><g transform="translate(2,-6) scale(1,1)"><rect fill="#ffffff" stroke="none" x="651" y="405" width="125.3271484375" height="207"/></g><g transform="translate(2,-6) scale(1,1)"><path fill="none" stroke="#000000" d="M 651 405 L 776.3271484375 405 L 776.3271484375 612 L 651 612 L 651 405 Z Z" stroke-miterlimit="10"/></g><g transform="translate(2,-6) scale(1,1)"><path fill="none" stroke="#000000" d="M 651 445 L 776.3271484375 445" stroke-miterlimit="10"/></g><g transform="translate(2,-6) scale(1,1)"><path fill="none" stroke="#000000" d="M 651 603 L 776.3271484375 603" stroke-miterlimit="10"/></g><g transform="translate(2,-6) scale(1,1)"><g><path fill="none" stroke="none"/><text fill="#000000" stroke="none" font-family="Arial" font-size="13px" font-style="normal" font-weight="bold" text-decoration="none" x="688.733154296875" y="424.5">prospect</text></g></g><g transform="translate(2,-6) scale(1,1)"><g><path fill="none" stroke="none"/><text fill="#000000" stroke="none" font-family="Arial" font-size="13px" font-style="normal" font-weight="normal" text-decoration="none" x="676.824951171875" y="439.5">(from model)</text></g></g><g transform="translate(2,-6) scale(1,1)"><g><path fill="none" stroke="none"/><text fill="#000000" stroke="none" font-family="Arial" font-size="13px" font-style="normal" font-weight="normal" text-decoration="none" x="656" y="462.5">-id: int</text></g></g><g transform="translate(2,-6) scale(1,1)"><g><path fill="none" stroke="none"/><text fill="#000000" stroke="none" font-family="Arial" font-size="13px" font-style="normal" font-weight="normal" text-decoration="none" x="656" y="477.5">-name: String</text></g></g><g transform="translate(2,-6) scale(1,1)"><g><path fill="none" stroke="none"/><text fill="#000000" stroke="none" font-family="Arial" font-size="13px" font-style="normal" font-weight="normal" text-decoration="none" x="656" y="492.5">-finessNumber: long</text></g></g><g transform="translate(2,-6) scale(1,1)"><g><path fill="none" stroke="none"/><text fill="#000000" stroke="none" font-family="Arial" font-size="13px" font-style="normal" font-weight="normal" text-decoration="none" x="656" y="507.5">-siretNumber: long</text></g></g><g transform="translate(2,-6) scale(1,1)"><g><path fill="none" stroke="none"/><text fill="#000000" stroke="none" font-family="Arial" font-size="13px" font-style="normal" font-weight="normal" text-decoration="none" x="656" y="522.5">-streetNumber: int</text></g></g><g transform="translate(2,-6) scale(1,1)"><g><path fill="none" stroke="none"/><text fill="#000000" stroke="none" font-family="Arial" font-size="13px" font-style="normal" font-weight="normal" text-decoration="none" x="656" y="537.5">-streetName: String</text></g></g><g transform="translate(2,-6) scale(1,1)"><g><path fill="none" stroke="none"/><text fill="#000000" stroke="none" font-family="Arial" font-size="13px" font-style="normal" font-weight="normal" text-decoration="none" x="656" y="552.5">-zipCode: int</text></g></g><g transform="translate(2,-6) scale(1,1)"><g><path fill="none" stroke="none"/><text fill="#000000" stroke="none" font-family="Arial" font-size="13px" font-style="normal" font-weight="normal" text-decoration="none" x="656" y="567.5">-city: String</text></g></g><g transform="translate(2,-6) scale(1,1)"><g><path fill="none" stroke="none"/><text fill="#000000" stroke="none" font-family="Arial" font-size="13px" font-style="normal" font-weight="normal" text-decoration="none" x="656" y="582.5">-bedNumber: int</text></g></g><g transform="translate(2,-6) scale(1,1)"><g><path fill="none" stroke="none"/><text fill="#000000" stroke="none" font-family="Arial" font-size="13px" font-style="normal" font-weight="normal" text-decoration="none" x="656" y="597.5">-website: String</text></g></g><g transform="translate(2,-6) scale(1,1)"><path fill="none" stroke="#000000" d="M 263 276 L 650 476" stroke-miterlimit="10"/></g><g transform="translate(2,-6) scale(1,1)"><path fill="none" stroke="#000000" d="M 175 593 L 600 904 L 683 613" stroke-miterlimit="10"/></g><g transform="translate(2,-6) scale(1,1)"><path fill="none" stroke="#000000" d="M 684.2606110544201 623.9275276146745 L 683 613 L 676.1644577470796 621.6183155029588" stroke-miterlimit="10"/></g><g transform="translate(2,-6) scale(1,1)"><rect fill="#C0C0C0" stroke="none" x="854" y="430" width="120.97265625" height="87" opacity="0.2"/></g><g transform="translate(2,-6) scale(1,1)"><rect fill="#ffffff" stroke="none" x="847" y="423" width="120.97265625" height="87"/></g><g transform="translate(2,-6) scale(1,1)"><path fill="none" stroke="#000000" d="M 847 423 L 967.97265625 423 L 967.97265625 510 L 847 510 L 847 423 Z Z" stroke-miterlimit="10"/></g><g transform="translate(2,-6) scale(1,1)"><path fill="none" stroke="#000000" d="M 847 448 L 967.97265625 448" stroke-miterlimit="10"/></g><g transform="translate(2,-6) scale(1,1)"><path fill="none" stroke="#000000" d="M 847 501 L 967.97265625 501" stroke-miterlimit="10"/></g><g transform="translate(2,-6) scale(1,1)"><g><path fill="none" stroke="none"/><text fill="#000000" stroke="none" font-family="Arial" font-size="13px" font-style="normal" font-weight="bold" text-decoration="none" x="855.825927734375" y="442.5">relationUserClient</text></g></g><g transform="translate(2,-6) scale(1,1)"><g><path fill="none" stroke="none"/><text fill="#000000" stroke="none" font-family="Arial" font-size="13px" font-style="normal" font-weight="normal" text-decoration="none" x="852" y="465.5">-id: int</text></g></g><g transform="translate(2,-6) scale(1,1)"><g><path fill="none" stroke="none"/><text fill="#000000" stroke="none" font-family="Arial" font-size="13px" font-style="normal" font-weight="normal" text-decoration="none" x="852" y="480.5">-idClient: int</text></g></g><g transform="translate(2,-6) scale(1,1)"><g><path fill="none" stroke="none"/><text fill="#000000" stroke="none" font-family="Arial" font-size="13px" font-style="normal" font-weight="normal" text-decoration="none" x="852" y="495.5">-idUser: String</text></g></g><g transform="translate(2,-6) scale(1,1)"><path fill="none" stroke="#000000" d="M 777 494 L 846 479" stroke-miterlimit="10"/></g><g transform="translate(2,-6) scale(1,1)"><rect fill="#C0C0C0" stroke="none" x="848" y="617" width="95.70263671875" height="102" opacity="0.2"/></g><g transform="translate(2,-6) scale(1,1)"><rect fill="#ffffff" stroke="none" x="841" y="610" width="95.70263671875" height="102"/></g><g transform="translate(2,-6) scale(1,1)"><path fill="none" stroke="#000000" d="M 841 610 L 936.70263671875 610 L 936.70263671875 712 L 841 712 L 841 610 Z Z" stroke-miterlimit="10"/></g><g transform="translate(2,-6) scale(1,1)"><path fill="none" stroke="#000000" d="M 841 635 L 936.70263671875 635" stroke-miterlimit="10"/></g><g transform="translate(2,-6) scale(1,1)"><path fill="none" stroke="#000000" d="M 841 703 L 936.70263671875 703" stroke-miterlimit="10"/></g><g transform="translate(2,-6) scale(1,1)"><g><path fill="none" stroke="none"/><text fill="#000000" stroke="none" font-family="Arial" font-size="13px" font-style="normal" font-weight="bold" text-decoration="none" x="873.67724609375" y="629.5">sales</text></g></g><g transform="translate(2,-6) scale(1,1)"><g><path fill="none" stroke="none"/><text fill="#000000" stroke="none" font-family="Arial" font-size="13px" font-style="normal" font-weight="normal" text-decoration="none" x="846" y="652.5">-id: String</text></g></g><g transform="translate(2,-6) scale(1,1)"><g><path fill="none" stroke="none"/><text fill="#000000" stroke="none" font-family="Arial" font-size="13px" font-style="normal" font-weight="normal" text-decoration="none" x="846" y="667.5">-idProspect: int</text></g></g><g transform="translate(2,-6) scale(1,1)"><g><path fill="none" stroke="none"/><text fill="#000000" stroke="none" font-family="Arial" font-size="13px" font-style="normal" font-weight="normal" text-decoration="none" x="846" y="682.5">-date: Date</text></g></g><g transform="translate(2,-6) scale(1,1)"><g><path fill="none" stroke="none"/><text fill="#000000" stroke="none" font-family="Arial" font-size="13px" font-style="normal" font-weight="normal" text-decoration="none" x="846" y="697.5">-value: long</text></g></g><g transform="translate(2,-6) scale(1,1)"><path fill="none" stroke="#000000" d="M 840 619 L 777 564" stroke-miterlimit="10"/></g><g transform="translate(2,-6) scale(1,1)"><path fill="#000000" stroke="none" d="M 787.4241367087436 567.5124598043853 L 777 564 L 781.8872936084422 573.8546619010943 L 793.5729727506424 578.4684682743704"/></g><g transform="translate(2,-6) scale(1,1)"><path fill="none" stroke="#000000" d="M 787.4241367087436 567.5124598043853 L 777 564 L 781.8872936084422 573.8546619010943 L 793.5729727506424 578.4684682743704 L 787.4241367087436 567.5124598043853" stroke-miterlimit="10"/></g><g transform="translate(2,-6) scale(1,1)"><path fill="none" stroke="#000000" d="M 524 642 L 840 658" stroke-miterlimit="10"/></g><g transform="translate(2,-6) scale(1,1)"><path fill="none" stroke="#000000" d="M 829.6374596796204 661.69022466911 L 840 658 L 830.0631945815111 653.2819603567701" stroke-miterlimit="10"/></g><g transform="translate(2,-6) scale(1,1)"><rect fill="#C0C0C0" stroke="none" x="319" y="615" width="210.96337890625" height="57" opacity="0.2"/></g><g transform="translate(2,-6) scale(1,1)"><rect fill="#ffffff" stroke="none" x="312" y="608" width="210.96337890625" height="57"/></g><g transform="translate(2,-6) scale(1,1)"><path fill="none" stroke="#000000" d="M 312 608 L 522.96337890625 608 L 522.96337890625 665 L 312 665 L 312 608 Z Z" stroke-miterlimit="10"/></g><g transform="translate(2,-6) scale(1,1)"><path fill="none" stroke="#000000" d="M 312 633 L 522.96337890625 633" stroke-miterlimit="10"/></g><g transform="translate(2,-6) scale(1,1)"><path fill="none" stroke="#000000" d="M 312 643 L 522.96337890625 643" stroke-miterlimit="10"/></g><g transform="translate(2,-6) scale(1,1)"><g><path fill="none" stroke="none"/><text fill="#000000" stroke="none" font-family="Arial" font-size="13px" font-style="normal" font-weight="bold" text-decoration="none" x="374.857177734375" y="627.5">SalesDAOImpl</text></g></g><g transform="translate(2,-6) scale(1,1)"><g><path fill="none" stroke="none"/><text fill="#000000" stroke="none" font-family="Arial" font-size="13px" font-style="normal" font-weight="normal" text-decoration="none" x="317" y="660.5">+getSalesSixMonthEachProspect()</text></g></g><g transform="translate(2,-6) scale(1,1)"><path fill="#C0C0C0" stroke="none" d="M 205.430419921875 474.5 C 205.430419921875 468.1487248 210.579144721875 463 216.930419921875 463 C 223.281695121875 463 228.430419921875 468.1487248 228.430419921875 474.5 C 228.430419921875 480.8512752 223.281695121875 486 216.930419921875 486 C 210.579144721875 486 205.430419921875 480.8512752 205.430419921875 474.5 Z" opacity="0.2"/></g><g transform="translate(2,-6) scale(1,1)"><path fill="none" stroke="#000000" d="M 197.65646987593036 468.89058835401164 A 11.5 11.5 0 0 1 220.34353012406964 465.10941164598836" stroke-miterlimit="10"/></g><g transform="translate(2,-6) scale(1,1)"><path fill="#ffffff" stroke="none" d="M 201.430419921875 467.5 C 201.430419921875 462.8055792 205.235999121875 459 209.930419921875 459 C 214.624840721875 459 218.430419921875 462.8055792 218.430419921875 467.5 C 218.430419921875 472.1944208 214.624840721875 476 209.930419921875 476 C 205.235999121875 476 201.430419921875 472.1944208 201.430419921875 467.5 Z"/></g><g transform="translate(2,-6) scale(1,1)"><path fill="none" stroke="#000000" d="M 201.430419921875 467.5 C 201.430419921875 462.8055792 205.235999121875 459 209.930419921875 459 C 214.624840721875 459 218.430419921875 462.8055792 218.430419921875 467.5 C 218.430419921875 472.1944208 214.624840721875 476 209.930419921875 476 C 205.235999121875 476 201.430419921875 472.1944208 201.430419921875 467.5 Z" stroke-miterlimit="10"/></g><g transform="translate(2,-6) scale(1,1)"><g><path fill="none" stroke="none"/><text fill="#000000" stroke="none" font-family="Arial" font-size="13px" font-style="normal" font-weight="bold" text-decoration="none" x="179.58544921875" y="498.5">SalesDAO</text></g></g><g transform="translate(2,-6) scale(1,1)"><g><path fill="none" stroke="none"/><text fill="#000000" stroke="none" font-family="Arial" font-size="13px" font-style="normal" font-weight="normal" text-decoration="none" x="179.950439453125" y="513.5">(from dao)</text></g></g><g transform="translate(2,-6) scale(1,1)"><path fill="none" stroke="#000000" d="M 377 607 L 218.70212765957447 479" stroke-miterlimit="10"/></g><g transform="translate(2,-6) scale(1,1)"><path fill="none" stroke="#000000" d="M 194 276 L 207.16666666666666 456" stroke-miterlimit="10"/></g><g transform="translate(2,-6) scale(1,1)"><path fill="#C0C0C0" stroke="none" d="M 376.594970703125 450.5 C 376.594970703125 444.1487248 381.743695503125 439 388.094970703125 439 C 394.446245903125 439 399.594970703125 444.1487248 399.594970703125 450.5 C 399.594970703125 456.8512752 394.446245903125 462 388.094970703125 462 C 381.743695503125 462 376.594970703125 456.8512752 376.594970703125 450.5 Z" opacity="0.2"/></g><g transform="translate(2,-6) scale(1,1)"><path fill="none" stroke="#000000" d="M 375.4932004971734 453.09579908851543 A 11.5 11.5 0 0 1 386.5067995028266 432.90420091148457" stroke-miterlimit="10"/></g><g transform="translate(2,-6) scale(1,1)"><path fill="#ffffff" stroke="none" d="M 372.594970703125 443.5 C 372.594970703125 438.8055792 376.400549903125 435 381.094970703125 435 C 385.789391503125 435 389.594970703125 438.8055792 389.594970703125 443.5 C 389.594970703125 448.1944208 385.789391503125 452 381.094970703125 452 C 376.400549903125 452 372.594970703125 448.1944208 372.594970703125 443.5 Z"/></g><g transform="translate(2,-6) scale(1,1)"><path fill="none" stroke="#000000" d="M 372.594970703125 443.5 C 372.594970703125 438.8055792 376.400549903125 435 381.094970703125 435 C 385.789391503125 435 389.594970703125 438.8055792 389.594970703125 443.5 C 389.594970703125 448.1944208 385.789391503125 452 381.094970703125 452 C 376.400549903125 452 372.594970703125 448.1944208 372.594970703125 443.5 Z" stroke-miterlimit="10"/></g><g transform="translate(2,-6) scale(1,1)"><g><path fill="none" stroke="none"/><text fill="#000000" stroke="none" font-family="Arial" font-size="13px" font-style="normal" font-weight="bold" text-decoration="none" x="312.819580078125" y="474.5">RelationUserClientDAO</text></g></g><g transform="translate(2,-6) scale(1,1)"><path fill="none" stroke="#000000" d="M 223 276 L 369.594970703125 436.77907492897725" stroke-miterlimit="10"/></g><g transform="translate(2,-6) scale(1,1)"><rect fill="#C0C0C0" stroke="none" x="358" y="509" width="180.91357421875" height="57" opacity="0.2"/></g><g transform="translate(2,-6) scale(1,1)"><rect fill="#ffffff" stroke="none" x="351" y="502" width="180.91357421875" height="57"/></g><g transform="translate(2,-6) scale(1,1)"><path fill="none" stroke="#000000" d="M 351 502 L 531.91357421875 502 L 531.91357421875 559 L 351 559 L 351 502 Z Z" stroke-miterlimit="10"/></g><g transform="translate(2,-6) scale(1,1)"><path fill="none" stroke="#000000" d="M 351 527 L 531.91357421875 527" stroke-miterlimit="10"/></g><g transform="translate(2,-6) scale(1,1)"><path fill="none" stroke="#000000" d="M 351 537 L 531.91357421875 537" stroke-miterlimit="10"/></g><g transform="translate(2,-6) scale(1,1)"><g><path fill="none" stroke="none"/><text fill="#000000" stroke="none" font-family="Arial" font-size="13px" font-style="normal" font-weight="bold" text-decoration="none" x="360.90185546875" y="521.5">RelationUserClientDAOImpl</text></g></g><g transform="translate(2,-6) scale(1,1)"><g><path fill="none" stroke="none"/><text fill="#000000" stroke="none" font-family="Arial" font-size="13px" font-style="normal" font-weight="normal" text-decoration="none" x="356" y="554.5">+checkRelationWithClient()</text></g></g><g transform="translate(2,-6) scale(1,1)"><path fill="none" stroke="#000000" d="M 417 501 L 387.3157894736842 455" stroke-miterlimit="10"/></g><g transform="translate(2,-6) scale(1,1)"><path fill="none" stroke="#000000" d="M 441 502 L 441 368 L 907 368 L 907 423" stroke-miterlimit="10"/></g><g transform="translate(2,-6) scale(1,1)"><path fill="none" stroke="#000000" d="M 902.790482243984 412.83732514237585 L 907 423 L 911.209517756016 412.83732514237585" stroke-miterlimit="10"/></g><g transform="translate(2,-6) scale(1,1)"><path fill="none" stroke="#000000" d="M 393 666 L 265 823" stroke-miterlimit="10" stroke-dasharray="3"/></g><g transform="translate(2,-6) scale(1,1)"><path fill="none" stroke="#000000" d="M 268.1591084984339 812.4633955424376 L 265 823 L 274.6843315043694 817.7833225791239" stroke-miterlimit="10"/></g><g transform="translate(2,-6) scale(1,1)"><path fill="none" stroke="#000000" d="M 351 544 L 248 544 L 248 824" stroke-miterlimit="10" stroke-dasharray="3"/></g><g transform="translate(2,-6) scale(1,1)"><path fill="none" stroke="#000000" d="M 243.790482243984 813.8373251423759 L 248 824 L 252.209517756016 813.8373251423759" stroke-miterlimit="10"/></g></g></svg>